<svg width="253" height="491" viewBox="0 0 253 491" fill="none" xmlns="http://www.w3.org/2000/svg">
<g clip-path="url(#clip0_1031_924)">
<path d="M113.717 163.374L133.131 178.086L81.4532 231.322L77.5436 211.962L71.9954 197.4L60.1578 163.846C59.8315 162.921 59.6006 161.966 59.4687 160.994L58.5891 154.518C57.9547 149.848 61.3731 145.603 66.0714 145.227C66.8627 145.164 67.6591 145.216 68.4355 145.381L79.5649 147.749C91.9584 150.386 103.619 155.72 113.717 163.374Z" fill="#3D3AA9" stroke="#D49357" stroke-width="0.402726"/>
<path d="M74.567 236.416L101.277 200.003C110.831 186.979 124.742 177.816 140.48 174.181C150.081 171.964 160.053 171.877 169.691 173.928L180.336 176.193C187.077 177.627 193.553 180.104 199.531 183.533C213.909 191.781 224.676 205.115 229.711 220.908L230.403 223.079L239.479 265.567L239.873 268.148C241.325 277.651 235.558 286.772 226.35 289.536L203.084 296.32L187.714 302.129C177.724 305.904 166.861 306.73 156.416 304.507C149.804 303.101 143.504 300.503 137.822 296.84L78.6885 258.725C73.2499 255.22 70.5444 248.717 71.891 242.389C72.3501 240.231 73.2622 238.195 74.567 236.416Z" fill="#3D3AA9" stroke="#D49357" stroke-width="0.402726"/>
<path d="M104.046 327.452L104.646 326.249C106.822 321.888 112.833 321.356 115.742 325.266C116.801 326.69 118.393 327.623 120.153 327.849L171.91 334.506C174.414 334.828 176.84 333.497 177.912 331.211C180.133 326.481 186.981 326.856 188.672 331.8L202.395 371.914C203.004 373.695 203.392 375.545 203.55 377.422L217.823 547.321L61.6888 519.658L69.3749 417.741L55.533 512.79L12.6472 509.224L13.4035 468.835C13.5073 463.291 12.4153 457.789 10.2017 452.705C6.99031 445.328 6.16403 437.132 7.83839 429.263L8.84119 424.55C9.50027 421.452 9.88371 418.303 9.98704 415.137L11.4925 369.02C11.8869 356.94 17.108 345.385 25.8337 337.023C36.7293 326.581 52.2344 322.07 66.995 325.211L95.9239 331.366C99.2069 332.065 102.547 330.455 104.046 327.452Z" fill="#3D3AA9"/>
<path d="M217.295 344.22L206.497 341.923C203.152 341.211 199.661 341.964 196.907 343.991C193.534 346.474 191.703 350.538 192.079 354.71L204.494 492.534C205.694 505.856 211.612 518.311 221.183 527.654L238.043 473.86C241.755 462.015 244.324 449.841 245.713 437.506L250.162 398.022C251.19 388.896 249.721 379.661 245.911 371.305L242.951 364.813C238.145 354.271 228.627 346.632 217.295 344.22Z" fill="#3D3AA9"/>
<path d="M112.38 209.759L80.5749 226.038C78.3257 227.19 75.7477 225.215 76.2736 222.743C76.3749 222.267 76.3588 221.773 76.2267 221.305L70.5613 201.212C69.437 196.285 72.5461 191.342 77.4506 190.12L81.9645 188.552C90.9014 185.447 99.2804 180.924 106.78 175.156L116.684 169.363C117.134 169.1 117.554 168.788 117.936 168.433C120.435 166.115 124.224 165.884 126.985 167.882L129.382 169.616C131.767 171.342 134.756 172.014 137.651 171.475L144.221 170.252C146.102 169.902 148.016 169.758 149.928 169.822L157.233 170.069C162.699 170.253 168.138 170.918 173.487 172.056L183.864 174.264C185.369 174.585 186.839 175.055 188.251 175.667L190.25 176.535C196.873 179.409 204.542 178.384 210.176 173.87C211.509 172.802 212.977 171.914 214.541 171.229L230.983 164.031C232.372 163.423 233.81 162.935 235.282 162.572L244.111 160.395C246.201 159.879 248.412 160.321 250.143 161.6C252.102 163.047 253.201 165.382 253.069 167.813L252.479 178.679C252.402 180.097 252.215 181.508 251.919 182.898L245.993 210.747L239.415 230.88C238.699 233.07 238.609 235.416 239.155 237.655L240.602 243.594C240.949 245.015 240.38 246.503 239.174 247.331C237.704 248.339 235.713 248.09 234.536 246.751L222.369 232.897C220.167 230.391 217.473 228.364 214.455 226.944L198.091 219.246C184.496 212.85 169.745 209.275 154.73 208.738L122.206 207.575C118.798 207.453 115.415 208.205 112.38 209.759Z" fill="#3D3AA9" stroke="#D6C68D" stroke-width="0.402726"/>
<path d="M86.0067 204.088L70.5372 210.801C69.0105 211.463 68.2194 213.162 68.6948 214.757L72.2567 226.706C72.6267 227.947 73.8719 228.71 75.146 228.477C80.8933 227.426 86.4159 225.39 91.4706 222.46L95.4414 220.158C107.069 213.417 120.257 209.83 133.697 209.754L139.57 209.72L156.97 210.409C172.15 211.011 187.038 214.776 200.679 221.464L214.041 228.014C215.567 228.762 216.964 229.748 218.181 230.935L235.3 247.634C236.915 249.208 239.631 248.386 240.1 246.18C240.134 246.023 240.18 245.868 240.24 245.719L242.975 238.835C243.406 237.751 243.097 236.514 242.208 235.76L222.905 219.394C216.902 214.305 210.343 209.911 203.353 206.297C195.071 202.014 186.253 198.86 177.134 196.92L172.367 195.905C160.594 193.401 148.417 192.424 136.394 192.988C123.343 193.6 110.294 196.009 97.8953 200.133L86.0067 204.088Z" fill="#3D3AA9"/>
<path d="M113.808 300.642L102.022 273.989L188.611 301.471L182.148 313.145C180.89 315.418 179.976 317.865 179.435 320.405L175.978 336.652C174.866 341.879 178.202 347.018 183.428 348.13C184.974 348.459 186.576 348.404 188.096 347.971L195.331 345.907C201.006 344.289 206.991 344.085 212.763 345.313L218.748 346.586C229.882 348.956 238.379 357.983 240.07 369.24L242.253 413.767C242.314 415.009 242.268 416.253 242.116 417.487L232.708 493.714C232.471 495.627 229.843 495.97 229.124 494.182C228.436 492.472 225.95 492.688 225.566 494.49L221.697 512.673C219.964 520.821 208.244 520.55 206.888 512.331L205.116 501.588L208.724 535.913L59.956 516.2L62.8878 502.421C68.4071 476.481 71.3506 450.06 71.6755 423.541L71.7656 416.189L71.5478 414.067C70.9614 408.354 62.6185 408.414 62.1148 414.136L56.9307 485.911L21.0095 484.444L17.2592 448.854L16.8363 399.561L15.9427 364.835C15.7583 357.67 17.8356 350.628 21.8798 344.71C27.9381 335.845 37.8168 330.349 48.5441 329.876L49.387 329.839C52.4154 329.706 55.4485 329.958 58.4135 330.588L96.2292 338.635C99.5978 339.351 103.107 338.975 106.247 337.561C111.684 335.113 115.335 329.876 115.752 323.928L116.361 315.235C116.711 310.235 115.834 305.226 113.808 300.642Z" fill="#3D3AA9"/>
<mask id="mask0_1031_924" style="mask-type:alpha" maskUnits="userSpaceOnUse" x="0" y="136" width="247" height="404">
<path d="M107.335 155.288L126.748 170L75.0704 223.236L71.1608 203.876L65.6126 189.314L53.775 155.76C53.4487 154.835 53.2178 153.88 53.0858 152.908L52.2063 146.433C51.5719 141.762 54.9903 137.517 59.6886 137.141C60.4799 137.078 61.2762 137.13 62.0527 137.295L73.1821 139.663C85.5755 142.3 97.236 147.635 107.335 155.288Z" fill="#FFDAB8" stroke="#D49357" stroke-width="0.402726"/>
<path d="M68.1842 228.331L94.8945 191.917C104.448 178.893 118.359 169.73 134.097 166.096C143.699 163.878 153.67 163.792 163.308 165.842L173.953 168.107C180.694 169.542 187.17 172.018 193.148 175.447C207.526 183.695 218.293 197.03 223.328 212.822L224.02 214.993L233.096 257.481L233.49 260.062C234.942 269.565 229.175 278.687 219.967 281.45L196.701 288.235L181.331 294.043C171.341 297.818 160.478 298.644 150.033 296.422C143.421 295.015 137.121 292.417 131.439 288.755L72.3057 250.639C66.8671 247.134 64.1616 240.631 65.5082 234.303C65.9673 232.145 66.8794 230.109 68.1842 228.331Z" fill="#FFDAB8" stroke="#D49357" stroke-width="0.402726"/>
<path d="M97.6629 319.366L98.2634 318.163C100.44 313.802 106.45 313.27 109.359 317.18C110.418 318.604 112.01 319.537 113.77 319.763L165.527 326.42C168.031 326.742 170.457 325.411 171.53 323.125C173.75 318.396 180.598 318.77 182.289 323.714L196.012 363.828C196.622 365.61 197.01 367.46 197.167 369.336L211.441 539.235L55.306 511.572L62.9921 409.655L49.1502 504.704L6.2644 501.138L7.02068 460.75C7.1245 455.205 6.03247 449.703 3.81891 444.619C0.607495 437.242 -0.218781 429.046 1.45558 421.177L2.45838 416.464C3.11745 413.367 3.5009 410.217 3.60423 407.052L5.10973 360.934C5.50405 348.855 10.7252 337.299 19.4509 328.937C30.3465 318.496 45.8516 313.984 60.6122 317.125L89.5411 323.28C92.8241 323.979 96.1641 322.369 97.6629 319.366Z" fill="#FFDAB8"/>
<path d="M210.912 336.135L200.114 333.837C196.769 333.125 193.279 333.878 190.524 335.906C187.151 338.388 185.32 342.453 185.696 346.624L198.111 484.448C199.311 497.77 205.23 510.225 214.8 519.569L231.66 465.774C235.372 453.929 237.941 441.755 239.331 429.42L243.779 389.937C244.807 380.81 243.338 371.576 239.528 363.219L236.568 356.727C231.762 346.185 222.244 338.546 210.912 336.135Z" fill="#FFDAB8"/>
<path d="M105.997 201.673L74.1921 217.952C71.9429 219.104 69.3649 217.129 69.8908 214.658C69.9921 214.181 69.976 213.688 69.8439 213.219L64.1784 193.127C63.0542 188.199 66.1633 183.256 71.0677 182.034L75.5817 180.466C84.5186 177.361 92.8976 172.838 100.397 167.07L110.301 161.277C110.751 161.014 111.171 160.702 111.553 160.347C114.052 158.029 117.841 157.798 120.603 159.797L122.999 161.53C125.384 163.256 128.373 163.928 131.268 163.39L137.839 162.166C139.719 161.816 141.633 161.672 143.545 161.737L150.85 161.983C156.316 162.167 161.755 162.832 167.104 163.971L177.481 166.178C178.986 166.499 180.456 166.969 181.868 167.582L183.867 168.449C190.49 171.324 198.159 170.298 203.793 165.784C205.126 164.716 206.594 163.828 208.159 163.143L224.6 155.945C225.989 155.337 227.427 154.849 228.899 154.486L237.728 152.309C239.818 151.793 242.029 152.235 243.76 153.514C245.719 154.961 246.819 157.296 246.686 159.727L246.096 170.593C246.019 172.012 245.832 173.422 245.536 174.812L239.61 202.661L233.032 222.795C232.317 224.984 232.226 227.331 232.772 229.569L234.22 235.508C234.566 236.93 233.997 238.417 232.791 239.245C231.321 240.253 229.33 240.005 228.153 238.665L215.986 224.811C213.785 222.305 211.091 220.278 208.072 218.858L191.708 211.16C178.113 204.764 163.363 201.19 148.348 200.653L115.823 199.49C112.415 199.368 109.033 200.119 105.997 201.673Z" fill="#FFDAB8" stroke="#D6C68D" stroke-width="0.402726"/>
<path d="M79.6238 196.002L64.1544 202.715C62.6277 203.377 61.8366 205.076 62.312 206.671L65.8739 218.62C66.2439 219.861 67.4891 220.625 68.7632 220.392C74.5105 219.34 80.0331 217.304 85.0878 214.374L89.0586 212.072C100.687 205.331 113.874 201.745 127.314 201.668L133.187 201.634L150.587 202.323C165.767 202.925 180.655 206.69 194.297 213.378L207.658 219.928C209.184 220.677 210.581 221.662 211.798 222.849L228.918 239.548C230.532 241.123 233.248 240.3 233.717 238.094C233.751 237.937 233.798 237.782 233.857 237.633L236.593 230.749C237.023 229.666 236.714 228.428 235.825 227.675L216.522 211.309C210.519 206.219 203.96 201.826 196.97 198.211C188.689 193.928 179.87 190.774 170.751 188.834L165.984 187.82C154.211 185.315 142.034 184.338 130.012 184.902C116.96 185.515 103.911 187.923 91.5124 192.047L79.6238 196.002Z" fill="#FFDAB8"/>
<path d="M107.425 292.556L95.6392 265.903L182.228 293.385L175.765 305.059C174.507 307.332 173.593 309.779 173.052 312.32L169.595 328.566C168.483 333.793 171.819 338.932 177.046 340.044C178.591 340.373 180.193 340.318 181.713 339.885L188.948 337.822C194.623 336.203 200.608 335.999 206.38 337.227L212.365 338.501C223.499 340.87 231.996 349.897 233.687 361.154L235.871 405.681C235.932 406.923 235.886 408.167 235.733 409.401L226.325 485.628C226.089 487.541 223.46 487.885 222.741 486.096C222.053 484.387 219.567 484.602 219.183 486.404L215.315 504.587C213.581 512.735 201.861 512.464 200.505 504.245L198.733 493.502L202.341 527.827L53.5732 508.114L56.505 494.335C62.0243 468.395 64.9678 441.974 65.2927 415.455L65.3827 408.103L65.165 405.982C64.5786 400.268 56.2357 400.328 55.732 406.05L50.5479 477.825L14.6267 476.358L10.8764 440.768L10.4535 391.475L9.55987 356.749C9.37547 349.584 11.4528 342.542 15.497 336.624C21.5553 327.759 31.434 322.263 42.1613 321.791L43.0042 321.753C46.0326 321.62 49.0657 321.872 52.0307 322.503L89.8464 330.549C93.215 331.266 96.7243 330.89 99.8646 329.475C105.301 327.028 108.952 321.79 109.369 315.843L109.978 307.149C110.328 302.149 109.452 297.14 107.425 292.556Z" fill="url(#paint0_linear_1031_924)"/>
</mask>
<g mask="url(#mask0_1031_924)">
<path d="M107.335 155.29L126.748 170.002L75.0704 223.238L71.1608 203.878L65.6126 189.316L53.775 155.762C53.4487 154.837 53.2178 153.881 53.0858 152.91L52.2063 146.434C51.5719 141.764 54.9903 137.519 59.6886 137.143C60.4799 137.08 61.2762 137.132 62.0527 137.297L73.1821 139.665C85.5755 142.302 97.236 147.636 107.335 155.29Z" fill="#FBB778" stroke="#D49357" stroke-width="0.402726"/>
<path d="M107.335 155.29L126.748 170.002L75.0704 223.238L71.1608 203.878L65.6126 189.316L53.775 155.762C53.4487 154.837 53.2178 153.881 53.0858 152.91L52.2063 146.434C51.5719 141.764 54.9903 137.519 59.6886 137.143C60.4799 137.08 61.2762 137.132 62.0527 137.297L73.1821 139.665C85.5755 142.302 97.236 147.636 107.335 155.29Z" fill="url(#paint1_linear_1031_924)" stroke="#D49357" stroke-width="0.402726"/>
<g style="mix-blend-mode:color-burn">
<path d="M107.335 155.29L126.748 170.002L75.0704 223.238L71.1608 203.878L65.6126 189.316L53.775 155.762C53.4487 154.837 53.2178 153.881 53.0858 152.91L52.2063 146.434C51.5719 141.764 54.9903 137.519 59.6886 137.143C60.4799 137.08 61.2762 137.132 62.0527 137.297L73.1821 139.665C85.5755 142.302 97.236 147.636 107.335 155.29Z" fill="url(#paint2_linear_1031_924)"/>
<path d="M107.335 155.29L126.748 170.002L75.0704 223.238L71.1608 203.878L65.6126 189.316L53.775 155.762C53.4487 154.837 53.2178 153.881 53.0858 152.91L52.2063 146.434C51.5719 141.764 54.9903 137.519 59.6886 137.143C60.4799 137.08 61.2762 137.132 62.0527 137.297L73.1821 139.665C85.5755 142.302 97.236 147.636 107.335 155.29Z" stroke="#D49357" stroke-width="0.402726"/>
</g>
<path d="M95.7362 174.798L105.734 186.529L81.7477 219.923L73.0316 193.158L63.5487 161.289L61.9131 154.568C61.0181 150.89 65.1242 148.042 68.2557 150.168C78.4781 157.109 87.7211 165.394 95.7362 174.798Z" fill="url(#paint3_linear_1031_924)" stroke="#FDE2B7" stroke-width="0.402726"/>
<path d="M204.407 170.136L196.577 175.597L189.692 179.897L224.787 232.655L237.355 190.038L241.381 171.117C241.656 169.822 241.713 168.49 241.549 167.176L241.124 163.77C240.752 160.794 238.535 158.379 235.601 157.755C234.299 157.478 232.946 157.575 231.698 158.036L217.681 163.205C212.979 164.939 208.518 167.268 204.407 170.136Z" fill="#FBB778" stroke="#D49357" stroke-width="0.402726"/>
<path d="M204.407 170.136L196.577 175.597L189.692 179.897L224.787 232.655L237.355 190.038L241.381 171.117C241.656 169.822 241.713 168.49 241.549 167.176L241.124 163.77C240.752 160.794 238.535 158.379 235.601 157.755C234.299 157.478 232.946 157.575 231.698 158.036L217.681 163.205C212.979 164.939 208.518 167.268 204.407 170.136Z" fill="url(#paint4_linear_1031_924)" stroke="#D49357" stroke-width="0.402726"/>
<g style="mix-blend-mode:color-burn">
<path d="M204.407 170.136L196.577 175.597L189.692 179.897L224.787 232.655L237.355 190.038L241.381 171.117C241.656 169.822 241.713 168.49 241.549 167.176L241.124 163.77C240.752 160.794 238.535 158.379 235.601 157.755C234.299 157.478 232.946 157.575 231.698 158.036L217.681 163.205C212.979 164.939 208.518 167.268 204.407 170.136Z" fill="url(#paint5_linear_1031_924)"/>
<path d="M204.407 170.136L196.577 175.597L189.692 179.897L224.787 232.655L237.355 190.038L241.381 171.117C241.656 169.822 241.713 168.49 241.549 167.176L241.124 163.77C240.752 160.794 238.535 158.379 235.601 157.755C234.299 157.478 232.946 157.575 231.698 158.036L217.681 163.205C212.979 164.939 208.518 167.268 204.407 170.136Z" stroke="#D49357" stroke-width="0.402726"/>
</g>
<path d="M226.734 189.63L237.187 170.751C237.859 169.537 239.715 170.23 239.426 171.588L235.874 188.281L222.757 230.576L215.671 212.598L226.734 189.63Z" fill="url(#paint6_linear_1031_924)" stroke="#FDE2B7" stroke-width="0.402726"/>
<path d="M107.425 292.556L95.6392 265.903L182.228 293.384L175.765 305.059C174.507 307.332 173.593 309.778 173.052 312.319L169.595 328.566C168.483 333.793 171.819 338.932 177.046 340.044C178.591 340.372 180.193 340.318 181.713 339.885L188.948 337.821C194.623 336.203 200.608 335.999 206.38 337.227L212.365 338.5C223.499 340.869 231.996 349.897 233.687 361.154L235.871 405.68C235.932 406.922 235.886 408.167 235.733 409.401L226.325 485.628C226.089 487.541 223.46 487.884 222.741 486.096C222.053 484.386 219.567 484.602 219.183 486.404L215.315 504.586C213.581 512.734 201.861 512.464 200.505 504.245L198.733 493.502L202.341 527.827L53.5732 508.113L56.505 494.335C62.0243 468.395 64.9678 441.973 65.2927 415.455L65.3827 408.103L65.165 405.981C64.5786 400.268 56.2357 400.328 55.732 406.05L50.5479 477.824L14.6267 476.358L10.8764 440.768L10.4535 391.475L9.55987 356.749C9.37547 349.583 11.4528 342.542 15.497 336.624C21.5553 327.758 31.434 322.263 42.1613 321.79L43.0042 321.753C46.0326 321.62 49.0657 321.871 52.0307 322.502L89.8464 330.548C93.215 331.265 96.7243 330.889 99.8646 329.475C105.301 327.027 108.952 321.79 109.369 315.842L109.978 307.149C110.328 302.149 109.452 297.14 107.425 292.556Z" fill="url(#paint7_linear_1031_924)"/>
<g style="mix-blend-mode:color-burn">
<path d="M107.425 292.556L95.6392 265.903L182.228 293.384L175.765 305.059C174.507 307.332 173.593 309.778 173.052 312.319L169.595 328.566C168.483 333.793 171.819 338.932 177.046 340.044C178.591 340.372 180.193 340.318 181.713 339.885L188.948 337.821C194.623 336.203 200.608 335.999 206.38 337.227L212.365 338.5C223.499 340.869 231.996 349.897 233.687 361.154L235.871 405.68C235.932 406.922 235.886 408.167 235.733 409.401L226.325 485.628C226.089 487.541 223.46 487.884 222.741 486.096C222.053 484.386 219.567 484.602 219.183 486.404L215.315 504.586C213.581 512.734 201.861 512.464 200.505 504.245L198.733 493.502L202.341 527.827L53.5732 508.113L56.505 494.335C62.0243 468.395 64.9678 441.973 65.2927 415.455L65.3827 408.103L65.165 405.981C64.5786 400.268 56.2357 400.328 55.732 406.05L50.5479 477.824L14.6267 476.358L10.8764 440.768L10.4535 391.475L9.55987 356.749C9.37547 349.583 11.4528 342.542 15.497 336.624C21.5553 327.758 31.434 322.263 42.1613 321.79L43.0042 321.753C46.0326 321.62 49.0657 321.871 52.0307 322.502L89.8464 330.548C93.215 331.265 96.7243 330.889 99.8646 329.475C105.301 327.027 108.952 321.79 109.369 315.842L109.978 307.149C110.328 302.149 109.452 297.14 107.425 292.556Z" fill="url(#paint8_linear_1031_924)"/>
<path d="M197.552 377.14L196.479 456.859C196.314 469.112 197.068 481.361 198.733 493.502V493.502M198.733 493.502L200.505 504.245C201.861 512.464 213.581 512.734 215.315 504.586L219.183 486.404C219.567 484.602 222.053 484.386 222.741 486.096V486.096C223.46 487.884 226.089 487.541 226.325 485.628L235.733 409.401C235.886 408.167 235.932 406.922 235.871 405.68L233.687 361.154V361.154C231.996 349.897 223.499 340.869 212.365 338.5L206.38 337.227C200.608 335.999 194.623 336.203 188.948 337.821L181.713 339.885C180.193 340.318 178.591 340.372 177.046 340.044V340.044C171.819 338.932 168.483 333.793 169.595 328.566L173.052 312.319C173.593 309.778 174.507 307.332 175.765 305.059L182.228 293.384L95.6392 265.903L107.425 292.556C109.452 297.14 110.328 302.149 109.978 307.149L109.369 315.842C108.952 321.79 105.301 327.027 99.8646 329.475V329.475C96.7243 330.889 93.215 331.265 89.8464 330.548L52.0307 322.502C49.0657 321.871 46.0326 321.62 43.0042 321.753L42.1613 321.79C31.434 322.263 21.5553 327.758 15.497 336.624V336.624C11.4528 342.542 9.37548 349.583 9.55987 356.749L10.4535 391.475L10.8764 440.768L14.6267 476.358L50.5479 477.824L55.732 406.05V406.05C56.2357 400.328 64.5786 400.268 65.165 405.981L65.3827 408.103L65.2927 415.455C64.9678 441.973 62.0243 468.395 56.505 494.335L53.5732 508.113L202.341 527.827L198.733 493.502Z" stroke="#D49357" stroke-width="0.402726"/>
</g>
<g style="mix-blend-mode:soft-light" filter="url(#filter0_f_1031_924)">
<ellipse cx="35.6413" cy="38.0575" rx="35.6413" ry="38.0575" transform="matrix(0.978105 0.208113 -0.208115 0.978104 113.359 266.792)" fill="#88FFEA"/>
</g>
<mask id="mask1_1031_924" style="mask-type:alpha" maskUnits="userSpaceOnUse" x="64" y="164" width="170" height="134">
<path d="M68.1842 228.327L94.8945 191.913C104.448 178.889 118.359 169.727 134.097 166.092C143.699 163.874 153.67 163.788 163.308 165.839L173.953 168.104C180.694 169.538 187.17 172.014 193.148 175.444C207.526 183.692 218.293 197.026 223.328 212.818L224.02 214.989L233.096 257.477L233.49 260.058C234.942 269.561 229.175 278.683 219.967 281.447L196.701 288.231L181.331 294.04C171.341 297.815 160.478 298.64 150.033 296.418C143.421 295.011 137.121 292.413 131.439 288.751L72.3057 250.635C66.8671 247.13 64.1616 240.628 65.5082 234.299C65.9673 232.141 66.8794 230.106 68.1842 228.327Z" fill="#FBB778" stroke="#D49357" stroke-width="0.402726"/>
</mask>
<g mask="url(#mask1_1031_924)">
<path d="M68.1842 228.327L94.8945 191.913C104.448 178.889 118.359 169.727 134.097 166.092C143.699 163.874 153.67 163.788 163.308 165.839L173.953 168.104C180.694 169.538 187.17 172.014 193.148 175.444C207.526 183.692 218.293 197.026 223.328 212.818L224.02 214.989L233.096 257.477L233.49 260.058C234.942 269.561 229.175 278.683 219.967 281.447L196.701 288.231L181.331 294.04C171.341 297.815 160.478 298.64 150.033 296.418C143.421 295.011 137.121 292.413 131.439 288.751L72.3057 250.635C66.8671 247.13 64.1616 240.628 65.5082 234.299C65.9673 232.141 66.8794 230.106 68.1842 228.327Z" fill="url(#paint9_linear_1031_924)" stroke="#D49357" stroke-width="0.402726"/>
<g style="mix-blend-mode:color-burn">
<path d="M68.1842 228.327L94.8945 191.913C104.448 178.889 118.359 169.727 134.097 166.092C143.699 163.874 153.67 163.788 163.308 165.839L173.953 168.104C180.694 169.538 187.17 172.014 193.148 175.444C207.526 183.692 218.293 197.026 223.328 212.818L224.02 214.989L233.096 257.477L233.49 260.058C234.942 269.561 229.175 278.683 219.967 281.447L196.701 288.231L181.331 294.04C171.341 297.815 160.478 298.64 150.033 296.418C143.421 295.011 137.121 292.413 131.439 288.751L72.3057 250.635C66.8671 247.13 64.1616 240.628 65.5082 234.299C65.9673 232.141 66.8794 230.106 68.1842 228.327Z" fill="url(#paint10_linear_1031_924)"/>
<path d="M68.1842 228.327L94.8945 191.913C104.448 178.889 118.359 169.727 134.097 166.092C143.699 163.874 153.67 163.788 163.308 165.839L173.953 168.104C180.694 169.538 187.17 172.014 193.148 175.444C207.526 183.692 218.293 197.026 223.328 212.818L224.02 214.989L233.096 257.477L233.49 260.058C234.942 269.561 229.175 278.683 219.967 281.447L196.701 288.231L181.331 294.04C171.341 297.815 160.478 298.64 150.033 296.418C143.421 295.011 137.121 292.413 131.439 288.751L72.3057 250.635C66.8671 247.13 64.1616 240.628 65.5082 234.299C65.9673 232.141 66.8794 230.106 68.1842 228.327Z" stroke="#D49357" stroke-width="0.402726"/>
</g>
<path d="M68.1842 228.327L94.8945 191.913C104.448 178.889 118.359 169.727 134.097 166.092C143.699 163.874 153.67 163.788 163.308 165.839L173.953 168.104C180.694 169.538 187.17 172.014 193.148 175.444C207.526 183.692 218.293 197.026 223.328 212.818L224.02 214.989L233.096 257.477L233.49 260.058C234.942 269.561 229.175 278.683 219.967 281.447L196.701 288.231L181.331 294.04C171.341 297.815 160.478 298.64 150.033 296.418C143.421 295.011 137.121 292.413 131.439 288.751L72.3057 250.635C66.8671 247.13 64.1616 240.628 65.5082 234.299C65.9673 232.141 66.8794 230.106 68.1842 228.327Z" fill="url(#paint11_linear_1031_924)" stroke="#D49357" stroke-width="0.402726"/>
<ellipse cx="30.0031" cy="25.7744" rx="30.0031" ry="25.7744" transform="matrix(0.978105 0.208113 -0.208115 0.978104 83.9141 194.237)" fill="url(#paint12_radial_1031_924)"/>
<ellipse cx="30.0031" cy="25.7744" rx="30.0031" ry="25.7744" transform="matrix(0.978105 0.208113 -0.208115 0.978104 184.359 215.608)" fill="url(#paint13_radial_1031_924)"/>
<g filter="url(#filter1_f_1031_924)">
<path d="M131.579 252.965L93.9167 244.951C100.469 255.046 108.923 263.77 118.807 270.637L138.075 284.023C142.825 287.323 148.185 289.643 153.842 290.846C162.128 292.61 170.749 291.915 178.646 288.847L191.543 283.837C197.005 281.715 202.248 279.064 207.194 275.921L224.514 264.915L197.132 264.966C191.42 264.976 186.036 262.302 182.593 257.745C178.543 252.386 171.869 249.696 165.235 250.749L148.511 253.406C142.888 254.299 137.148 254.149 131.579 252.965Z" fill="url(#paint14_linear_1031_924)"/>
</g>
<g style="mix-blend-mode:soft-light" filter="url(#filter2_f_1031_924)">
<ellipse cx="79.7398" cy="47.1188" rx="79.7398" ry="47.1188" transform="matrix(0.978105 0.208113 -0.208115 0.978104 115.898 156.163)" fill="#88FFEA"/>
</g>
<g style="mix-blend-mode:soft-light" filter="url(#filter3_f_1031_924)">
<ellipse cx="35.6413" cy="38.0575" rx="35.6413" ry="38.0575" transform="matrix(0.978105 0.208113 -0.208115 0.978104 56.2188 159.933)" fill="#88FFEA"/>
</g>
</g>
<path d="M149.445 220.466L145.255 218.519C144.29 218.07 143.277 217.732 142.236 217.511L125.392 213.927L142.902 210.567C144.026 210.351 145.175 210.289 146.316 210.383L150.731 210.744C152.682 210.903 154.385 212.128 155.158 213.926L155.459 214.625C156.402 216.82 155.46 219.369 153.317 220.423C152.099 221.022 150.676 221.038 149.445 220.466Z" fill="url(#paint15_linear_1031_924)"/>
<path d="M190.962 219.978L193.235 219.743C194.208 219.643 195.192 219.741 196.127 220.032L199.404 221.053C203.511 222.333 207.197 224.695 210.076 227.891L210.177 228.003L205.466 227.513C203.604 227.32 201.723 227.492 199.928 228.02C197.978 228.593 195.929 228.746 193.916 228.469L192.026 228.208C192.026 228.208 192.025 228.208 192.024 228.208L189.732 227.118C188.042 226.313 187.199 224.388 187.756 222.601C188.204 221.164 189.465 220.132 190.962 219.978Z" fill="url(#paint16_linear_1031_924)"/>
<path d="M150.691 263.635L169.02 271.918C171.366 272.979 174.097 272.089 175.394 269.937L175.875 270.95C176.546 272.362 178.294 272.879 179.625 272.059C180.869 271.292 182.492 272.042 182.713 273.487L182.923 274.856C183.16 276.402 182.153 277.866 180.624 278.197L175.003 279.413C173.749 279.684 172.452 279.686 171.197 279.419L147.188 274.311C145.734 274.001 144.46 273.131 143.643 271.889C140.534 267.16 145.534 261.304 150.691 263.635Z" fill="url(#paint17_radial_1031_924)" stroke="#E9ABCC" stroke-width="0.58519"/>
<path d="M102.703 218.007L151.942 228.484L151.157 229.674C145.515 238.223 135.446 242.747 125.308 241.289C114.097 239.676 105.156 231.105 103.071 219.972L102.703 218.007Z" fill="white" stroke="#D59357" stroke-width="0.402726"/>
<path d="M221.833 242.529L187.562 235.238L187.489 239.544C187.33 248.805 194.552 256.52 203.803 256.972C211.479 257.348 218.468 252.573 220.909 245.286L221.833 242.529Z" fill="white" stroke="#D59357" stroke-width="0.402726"/>
<path d="M124.13 228.637L122.398 222.198L146.821 227.395L145.337 231.394C144.431 233.835 142.605 235.824 140.25 236.933C137.776 238.099 134.931 238.194 132.384 237.197L131.474 236.841C127.863 235.427 125.137 232.382 124.13 228.637Z" fill="url(#paint18_linear_1031_924)"/>
<path d="M194.097 243.178L192.055 236.399L213.129 240.883L212.664 243.069C212.037 246.017 210.019 248.477 207.251 249.67C204.059 251.045 200.366 250.523 197.68 248.319L197.336 248.036C195.798 246.774 194.67 245.083 194.097 243.178Z" fill="url(#paint19_linear_1031_924)"/>
<ellipse cx="2.5589" cy="2.28472" rx="2.5589" ry="2.28472" transform="matrix(0.978105 0.208113 -0.208115 0.978104 121.586 224.082)" fill="white"/>
<ellipse cx="2.5589" cy="2.28472" rx="2.5589" ry="2.28472" transform="matrix(0.978105 0.208113 -0.208115 0.978104 191.312 238.918)" fill="white"/>
<path d="M174.403 268.595L171.377 267.236C169.103 266.215 168.433 263.305 170.031 261.392C170.78 260.496 171.903 259.998 173.069 260.045L177.427 260.221C177.759 260.234 178.089 260.276 178.414 260.345L180.108 260.706C182.349 261.182 183.779 263.386 183.302 265.627C182.93 267.379 181.474 268.694 179.693 268.887L177.652 269.109C176.543 269.23 175.421 269.052 174.403 268.595Z" fill="url(#paint20_radial_1031_924)" stroke="#B55A26" stroke-width="0.58519"/>
<path d="M95.1172 324.464L97.0232 320.645C99.7679 315.145 107.348 314.474 111.016 319.406L165.527 326.417C168.031 326.739 170.457 325.408 171.53 323.122C173.75 318.393 180.598 318.767 182.289 323.711L196.012 363.825C196.622 365.607 197.01 367.457 197.167 369.333L211.441 539.232L55.306 511.569L62.9921 409.652L49.1502 504.701L6.2644 501.135L7.02068 460.747C7.1245 455.202 6.03247 449.7 3.81891 444.616C0.607495 437.239 -0.218781 429.043 1.45558 421.174L2.45838 416.461C3.11745 413.364 3.5009 410.214 3.60423 407.049L5.10973 360.931C5.50405 348.852 10.6104 337.406 19.3361 329.044C30.3954 318.446 45.9844 314.01 60.9668 317.198L95.1172 324.464Z" fill="#F1F3FF"/>
<path d="M210.912 336.132L200.114 333.834C196.769 333.122 193.279 333.875 190.524 335.903C187.151 338.385 185.32 342.45 185.696 346.621L198.111 484.445C199.311 497.767 205.23 510.222 214.8 519.566L231.66 465.772C235.372 453.926 237.941 441.752 239.331 429.417L243.779 389.934C244.807 380.807 243.338 371.573 239.528 363.216L236.568 356.724C231.762 346.182 222.244 338.543 210.912 336.132Z" fill="#E0E5FF"/>
<path fill-rule="evenodd" clip-rule="evenodd" d="M98.2602 318.163L97.6598 319.366C96.1609 322.369 92.8209 323.979 89.538 323.28L60.609 317.125C45.8484 313.984 30.3433 318.495 19.4478 328.937C10.722 337.299 5.50088 348.854 5.10655 360.934L3.60106 407.051C3.49773 410.217 3.11428 413.367 2.4552 416.464L1.45241 421.177C-0.221954 429.046 0.604321 437.242 3.81574 444.619C6.02929 449.703 7.12133 455.205 7.01751 460.749L6.26123 501.138L49.147 504.704L62.9889 409.655L55.3029 511.572L211.437 539.235L209.257 513.286C210.936 515.504 212.786 517.605 214.797 519.568L231.657 465.774C235.369 453.929 237.938 441.755 239.327 429.419L243.776 389.936C244.804 380.81 243.335 371.575 239.525 363.218L236.565 356.727C231.759 346.185 222.241 338.545 210.909 336.134L200.111 333.837C196.766 333.125 193.275 333.878 190.521 335.905C189.324 336.786 188.321 337.866 187.543 339.079L182.286 323.714C180.595 318.77 173.747 318.395 171.526 323.125C170.454 325.411 168.028 326.742 165.524 326.42L113.767 319.763C112.007 319.537 110.415 318.604 109.356 317.18C106.447 313.27 100.436 313.802 98.2602 318.163Z" fill="url(#paint21_linear_1031_924)"/>
<path fill-rule="evenodd" clip-rule="evenodd" d="M98.2602 318.163L97.6598 319.366C96.1609 322.369 92.8209 323.979 89.538 323.28L60.609 317.125C45.8484 313.984 30.3433 318.495 19.4478 328.937C10.722 337.299 5.50088 348.854 5.10655 360.934L3.60106 407.051C3.49773 410.217 3.11428 413.367 2.4552 416.464L1.45241 421.177C-0.221954 429.046 0.604321 437.242 3.81574 444.619C6.02929 449.703 7.12133 455.205 7.01751 460.749L6.26123 501.138L49.147 504.704L62.9889 409.655L55.3029 511.572L211.437 539.235L209.257 513.286C210.936 515.504 212.786 517.605 214.797 519.568L231.657 465.774C235.369 453.929 237.938 441.755 239.327 429.419L243.776 389.936C244.804 380.81 243.335 371.575 239.525 363.218L236.565 356.727C231.759 346.185 222.241 338.545 210.909 336.134L200.111 333.837C196.766 333.125 193.275 333.878 190.521 335.905C189.324 336.786 188.321 337.866 187.543 339.079L182.286 323.714C180.595 318.77 173.747 318.395 171.526 323.125C170.454 325.411 168.028 326.742 165.524 326.42L113.767 319.763C112.007 319.537 110.415 318.604 109.356 317.18C106.447 313.27 100.436 313.802 98.2602 318.163Z" fill="url(#paint22_linear_1031_924)"/>
<g style="mix-blend-mode:color-burn">
<path d="M32.4531 319.984L37.3883 325.282C49.1977 337.96 57.4738 353.515 61.3898 370.393L62.3616 374.582C64.9994 385.95 65.1076 397.76 62.6788 409.175V409.175" stroke="#919191" stroke-width="0.402726"/>
</g>
<g style="mix-blend-mode:color-burn">
<path d="M229.709 346.926V346.926C220.139 356.831 212.782 368.657 208.128 381.62L202.555 397.145" stroke="#919191" stroke-width="0.402726"/>
</g>
<g style="mix-blend-mode:color-burn">
<path d="M185.719 339.831L192.608 350.991C200.941 364.491 204.515 380.392 202.761 396.16V396.16L193.944 464.692L197.346 512.56" stroke="#919191" stroke-width="0.402726"/>
</g>
<g style="mix-blend-mode:screen">
<ellipse cx="81.3507" cy="49.5351" rx="81.3507" ry="49.5351" transform="matrix(0.978105 0.208113 -0.208115 0.978104 119.812 313.867)" fill="#3656FF"/>
</g>
<g style="mix-blend-mode:soft-light" filter="url(#filter4_f_1031_924)">
<ellipse cx="48.1258" cy="47.1188" rx="48.1258" ry="47.1188" transform="matrix(0.978105 0.208113 -0.208115 0.978104 48.1719 275.155)" fill="#EE88FF"/>
</g>
<path d="M106.005 201.673L74.1999 217.952C71.9507 219.103 69.3727 217.129 69.8986 214.657C69.9999 214.181 69.9838 213.687 69.8517 213.219L64.1863 193.126C63.062 188.198 66.1711 183.256 71.0756 182.034L75.5895 180.466C84.5264 177.361 92.9054 172.838 100.405 167.07L110.309 161.277C110.759 161.013 111.179 160.702 111.561 160.347C114.06 158.029 117.849 157.798 120.61 159.796L123.007 161.53C125.392 163.256 128.381 163.928 131.276 163.389L137.846 162.166C139.727 161.816 141.641 161.672 143.553 161.736L150.858 161.983C156.324 162.167 161.763 162.832 167.112 163.97L177.489 166.178C178.994 166.498 180.464 166.968 181.876 167.581L183.875 168.449C190.498 171.323 198.167 170.297 203.801 165.784C205.134 164.716 206.602 163.828 208.166 163.143L224.608 155.945C225.997 155.337 227.435 154.849 228.907 154.486L237.736 152.308C239.826 151.793 242.037 152.235 243.768 153.514C245.727 154.961 246.826 157.296 246.694 159.727L246.104 170.592C246.027 172.011 245.84 173.422 245.544 174.812L239.618 202.661L233.04 222.794C232.324 224.984 232.234 227.33 232.78 229.568L234.227 235.508C234.574 236.929 234.005 238.417 232.799 239.245C231.329 240.253 229.338 240.004 228.161 238.665L215.994 224.811C213.792 222.304 211.098 220.278 208.08 218.858L191.716 211.159C178.121 204.764 163.37 201.189 148.355 200.652L115.831 199.489C112.423 199.367 109.04 200.119 106.005 201.673Z" fill="#FFF9C8" stroke="#D6C68D" stroke-width="0.402726"/>
<path d="M106.005 201.673L74.1999 217.952C71.9507 219.103 69.3727 217.129 69.8986 214.657C69.9999 214.181 69.9838 213.687 69.8517 213.219L64.1863 193.126C63.062 188.198 66.1711 183.256 71.0756 182.034L75.5895 180.466C84.5264 177.361 92.9054 172.838 100.405 167.07L110.309 161.277C110.759 161.013 111.179 160.702 111.561 160.347C114.06 158.029 117.849 157.798 120.61 159.796L123.007 161.53C125.392 163.256 128.381 163.928 131.276 163.389L137.846 162.166C139.727 161.816 141.641 161.672 143.553 161.736L150.858 161.983C156.324 162.167 161.763 162.832 167.112 163.97L177.489 166.178C178.994 166.498 180.464 166.968 181.876 167.581L183.875 168.449C190.498 171.323 198.167 170.297 203.801 165.784C205.134 164.716 206.602 163.828 208.166 163.143L224.608 155.945C225.997 155.337 227.435 154.849 228.907 154.486L237.736 152.308C239.826 151.793 242.037 152.235 243.768 153.514C245.727 154.961 246.826 157.296 246.694 159.727L246.104 170.592C246.027 172.011 245.84 173.422 245.544 174.812L239.618 202.661L233.04 222.794C232.324 224.984 232.234 227.33 232.78 229.568L234.227 235.508C234.574 236.929 234.005 238.417 232.799 239.245C231.329 240.253 229.338 240.004 228.161 238.665L215.994 224.811C213.792 222.304 211.098 220.278 208.08 218.858L191.716 211.159C178.121 204.764 163.37 201.189 148.355 200.652L115.831 199.489C112.423 199.367 109.04 200.119 106.005 201.673Z" fill="url(#paint23_linear_1031_924)" stroke="#D6C68D" stroke-width="0.402726"/>
<g style="mix-blend-mode:multiply">
<path d="M230.087 180.665L240.54 161.786C241.212 160.571 243.067 161.264 242.778 162.623L239.227 179.316L228.239 215.475L221.153 197.498L230.087 180.665Z" fill="url(#paint24_linear_1031_924)"/>
<path d="M230.087 180.665L240.54 161.786C241.212 160.571 243.067 161.264 242.778 162.623L239.227 179.316L228.239 215.475L221.153 197.498L230.087 180.665Z" stroke="#CCC695" stroke-width="0.402726"/>
</g>
<path d="M79.6317 196.002L64.1622 202.714C62.6355 203.377 61.8444 205.076 62.3198 206.67L65.8817 218.619C66.2517 219.861 67.4969 220.624 68.771 220.391C74.5183 219.34 80.0409 217.304 85.0956 214.374L89.0664 212.072C100.694 205.331 113.882 201.744 127.322 201.667L133.195 201.634L150.595 202.323C165.775 202.924 180.663 206.69 194.304 213.377L207.666 219.928C209.192 220.676 210.589 221.662 211.806 222.849L228.925 239.548C230.54 241.122 233.256 240.3 233.725 238.094C233.759 237.936 233.805 237.782 233.865 237.632L236.6 230.749C237.031 229.665 236.722 228.428 235.833 227.674L216.53 211.308C210.527 206.219 203.968 201.825 196.978 198.21C188.696 193.928 179.878 190.774 170.759 188.834L165.992 187.819C154.219 185.314 142.042 184.338 130.019 184.902C116.968 185.514 103.919 187.923 91.5203 192.047L79.6317 196.002Z" fill="#FFD88D" stroke="#ECB28F" stroke-width="0.402726"/>
<g style="mix-blend-mode:color-burn">
<path d="M79.6317 196.002L64.1622 202.714C62.6355 203.377 61.8444 205.076 62.3198 206.67L65.8817 218.619C66.2517 219.861 67.4969 220.624 68.771 220.391C74.5183 219.34 80.0409 217.304 85.0956 214.374L89.0664 212.072C100.694 205.331 113.882 201.744 127.322 201.667L133.195 201.634L150.595 202.323C165.775 202.924 180.663 206.69 194.304 213.377L207.666 219.928C209.192 220.676 210.589 221.662 211.806 222.849L228.925 239.548C230.54 241.122 233.256 240.3 233.725 238.094C233.759 237.936 233.805 237.782 233.865 237.632L236.6 230.749C237.031 229.665 236.722 228.428 235.833 227.674L216.53 211.308C210.527 206.219 203.968 201.825 196.978 198.21C188.696 193.928 179.878 190.774 170.759 188.834L165.992 187.819C154.219 185.314 142.042 184.338 130.019 184.902C116.968 185.514 103.919 187.923 91.5203 192.047L79.6317 196.002Z" fill="url(#paint25_linear_1031_924)"/>
</g>
<g style="mix-blend-mode:color-dodge" opacity="0.5">
<ellipse cx="76.3166" cy="39.8698" rx="76.3166" ry="39.8698" transform="matrix(0.978105 0.208113 -0.208115 0.978104 144.773 126.895)" fill="#FF6636"/>
</g>
<g style="mix-blend-mode:color-burn">
<path d="M188.867 170.248V170.248C197.105 174.702 204.094 181.153 209.193 189.008L215.891 199.327C218.954 204.046 221.63 209.004 223.892 214.154L226.179 219.361" stroke="#1D1D1D" stroke-width="0.402726"/>
</g>
<g style="mix-blend-mode:soft-light">
<rect width="506.962" height="551.257" transform="matrix(0.978105 0.208113 -0.208115 0.978104 54.6719 112.024)" fill="#003EDC"/>
</g>
<g style="mix-blend-mode:soft-light">
<rect width="507.782" height="547.156" transform="matrix(0.978105 0.208113 -0.208115 0.978104 53.8203 116.035)" fill="#FF7E36"/>
</g>
<g style="mix-blend-mode:color-burn" opacity="0.5">
<rect width="507.782" height="547.156" transform="matrix(0.978105 0.208113 -0.208115 0.978104 53.8203 116.035)" fill="#A2B0FF"/>
</g>
</g>
</g>
<defs>
<filter id="filter0_f_1031_924" x="64.2665" y="233.198" width="152.061" height="156.472" filterUnits="userSpaceOnUse" color-interpolation-filters="sRGB">
<feFlood flood-opacity="0" result="BackgroundImageFix"/>
<feBlend mode="normal" in="SourceGraphic" in2="BackgroundImageFix" result="shape"/>
<feGaussianBlur stdDeviation="20.1363" result="effect1_foregroundBlur_1031_924"/>
</filter>
<filter id="filter1_f_1031_924" x="89.8868" y="240.924" width="138.656" height="54.9024" filterUnits="userSpaceOnUse" color-interpolation-filters="sRGB">
<feFlood flood-opacity="0" result="BackgroundImageFix"/>
<feBlend mode="normal" in="SourceGraphic" in2="BackgroundImageFix" result="shape"/>
<feGaussianBlur stdDeviation="2.01363" result="effect1_foregroundBlur_1031_924"/>
</filter>
<filter id="filter2_f_1031_924" x="65.1962" y="129.575" width="237.779" height="178.539" filterUnits="userSpaceOnUse" color-interpolation-filters="sRGB">
<feFlood flood-opacity="0" result="BackgroundImageFix"/>
<feBlend mode="normal" in="SourceGraphic" in2="BackgroundImageFix" result="shape"/>
<feGaussianBlur stdDeviation="20.1363" result="effect1_foregroundBlur_1031_924"/>
</filter>
<filter id="filter3_f_1031_924" x="7.12589" y="126.339" width="152.061" height="156.472" filterUnits="userSpaceOnUse" color-interpolation-filters="sRGB">
<feFlood flood-opacity="0" result="BackgroundImageFix"/>
<feBlend mode="normal" in="SourceGraphic" in2="BackgroundImageFix" result="shape"/>
<feGaussianBlur stdDeviation="20.1363" result="effect1_foregroundBlur_1031_924"/>
</filter>
<filter id="filter4_f_1031_924" x="-2.9288" y="243.812" width="176.733" height="174.891" filterUnits="userSpaceOnUse" color-interpolation-filters="sRGB">
<feFlood flood-opacity="0" result="BackgroundImageFix"/>
<feBlend mode="normal" in="SourceGraphic" in2="BackgroundImageFix" result="shape"/>
<feGaussianBlur stdDeviation="20.1363" result="effect1_foregroundBlur_1031_924"/>
</filter>
<linearGradient id="paint0_linear_1031_924" x1="203.669" y1="288.889" x2="235.756" y2="530.182" gradientUnits="userSpaceOnUse">
<stop stop-color="#EE8423"/>
<stop offset="1" stop-color="#FBB778"/>
</linearGradient>
<linearGradient id="paint1_linear_1031_924" x1="57.3367" y1="136.293" x2="117.507" y2="227.944" gradientUnits="userSpaceOnUse">
<stop stop-color="#EA661C"/>
<stop offset="1" stop-color="#E78124" stop-opacity="0.38"/>
</linearGradient>
<linearGradient id="paint2_linear_1031_924" x1="57.3367" y1="136.293" x2="117.507" y2="227.944" gradientUnits="userSpaceOnUse">
<stop stop-color="#EA661C"/>
<stop offset="1" stop-color="#E78124" stop-opacity="0.38"/>
</linearGradient>
<linearGradient id="paint3_linear_1031_924" x1="55.4232" y1="163.678" x2="104.058" y2="194.407" gradientUnits="userSpaceOnUse">
<stop stop-color="#FDE2B7"/>
<stop offset="1" stop-color="#EDBB6B"/>
</linearGradient>
<linearGradient id="paint4_linear_1031_924" x1="218.259" y1="162.712" x2="276.706" y2="237.773" gradientUnits="userSpaceOnUse">
<stop stop-color="#EA661C"/>
<stop offset="1" stop-color="#FBB778" stop-opacity="0"/>
</linearGradient>
<linearGradient id="paint5_linear_1031_924" x1="218.259" y1="162.712" x2="276.706" y2="237.773" gradientUnits="userSpaceOnUse">
<stop stop-color="#F78F54"/>
<stop offset="1" stop-color="#FBB778" stop-opacity="0"/>
</linearGradient>
<linearGradient id="paint6_linear_1031_924" x1="233.923" y1="162.132" x2="219.507" y2="229.884" gradientUnits="userSpaceOnUse">
<stop stop-color="#FDE2B7"/>
<stop offset="1" stop-color="#EDBB6B"/>
</linearGradient>
<linearGradient id="paint7_linear_1031_924" x1="203.669" y1="288.888" x2="235.756" y2="530.182" gradientUnits="userSpaceOnUse">
<stop stop-color="#EE8423"/>
<stop offset="1" stop-color="#FBB778"/>
</linearGradient>
<linearGradient id="paint8_linear_1031_924" x1="64.3624" y1="209.633" x2="136.056" y2="320.973" gradientUnits="userSpaceOnUse">
<stop stop-color="#FA7B05"/>
<stop offset="1" stop-color="#FBB778"/>
</linearGradient>
<linearGradient id="paint9_linear_1031_924" x1="169.552" y1="167.167" x2="189.565" y2="293.712" gradientUnits="userSpaceOnUse">
<stop stop-color="#EE8423"/>
<stop offset="1" stop-color="#FBB778"/>
</linearGradient>
<linearGradient id="paint10_linear_1031_924" x1="124.558" y1="174.475" x2="189.564" y2="293.712" gradientUnits="userSpaceOnUse">
<stop stop-color="#FA7B05"/>
<stop offset="1" stop-color="#FBB778"/>
</linearGradient>
<linearGradient id="paint11_linear_1031_924" x1="237.572" y1="269.34" x2="135.676" y2="159.959" gradientUnits="userSpaceOnUse">
<stop stop-color="#FFDAB8"/>
<stop offset="1" stop-color="#FBB778" stop-opacity="0.21"/>
</linearGradient>
<radialGradient id="paint12_radial_1031_924" cx="0" cy="0" r="1" gradientUnits="userSpaceOnUse" gradientTransform="translate(30.0031 25.7744) rotate(90) scale(25.7744 30.0031)">
<stop stop-color="#FF0505"/>
<stop offset="1" stop-color="#E9724D" stop-opacity="0"/>
</radialGradient>
<radialGradient id="paint13_radial_1031_924" cx="0" cy="0" r="1" gradientUnits="userSpaceOnUse" gradientTransform="translate(30.0031 25.7744) rotate(90) scale(25.7744 30.0031)">
<stop stop-color="#FF6868"/>
<stop offset="1" stop-color="#E9724D" stop-opacity="0"/>
</radialGradient>
<linearGradient id="paint14_linear_1031_924" x1="172.032" y1="248.396" x2="162.561" y2="292.908" gradientUnits="userSpaceOnUse">
<stop stop-color="#FFCA99"/>
<stop offset="0.453125" stop-color="#FFE2C7"/>
<stop offset="1" stop-color="#FFE2C7"/>
</linearGradient>
<linearGradient id="paint15_linear_1031_924" x1="155.965" y1="219.955" x2="127.934" y2="220.726" gradientUnits="userSpaceOnUse">
<stop stop-color="#761C00" stop-opacity="0.81"/>
<stop offset="1"/>
</linearGradient>
<linearGradient id="paint16_linear_1031_924" x1="216.913" y1="222.286" x2="188.01" y2="227.835" gradientUnits="userSpaceOnUse">
<stop/>
<stop offset="1" stop-color="#761C00" stop-opacity="0.81"/>
</linearGradient>
<radialGradient id="paint17_radial_1031_924" cx="0" cy="0" r="1" gradientUnits="userSpaceOnUse" gradientTransform="translate(162.711 269.585) rotate(92.091) scale(10.0646 37.9629)">
<stop offset="0.302083" stop-color="#E9ABCC"/>
<stop offset="1" stop-color="#D13982"/>
</radialGradient>
<linearGradient id="paint18_linear_1031_924" x1="134.826" y1="224.913" x2="136.681" y2="239.937" gradientUnits="userSpaceOnUse">
<stop stop-color="#00810D"/>
<stop offset="1" stop-color="#63DAA1"/>
</linearGradient>
<linearGradient id="paint19_linear_1031_924" x1="202.777" y1="238.75" x2="205.199" y2="253.223" gradientUnits="userSpaceOnUse">
<stop stop-color="#00810D"/>
<stop offset="1" stop-color="#63DAA1"/>
</linearGradient>
<radialGradient id="paint20_radial_1031_924" cx="0" cy="0" r="1" gradientUnits="userSpaceOnUse" gradientTransform="translate(176.725 265.211) rotate(97.4774) scale(6.72404 11.778)">
<stop offset="0.302083" stop-color="#9F735A"/>
<stop offset="1" stop-color="#4A2307"/>
</radialGradient>
<linearGradient id="paint21_linear_1031_924" x1="196.051" y1="517.779" x2="176.492" y2="351.943" gradientUnits="userSpaceOnUse">
<stop stop-color="#495CC9"/>
<stop offset="1" stop-color="#E0E5FF" stop-opacity="0.18"/>
</linearGradient>
<linearGradient id="paint22_linear_1031_924" x1="74.9359" y1="313.123" x2="224.26" y2="367.363" gradientUnits="userSpaceOnUse">
<stop stop-color="#495CC9"/>
<stop offset="1" stop-color="#E0E5FF" stop-opacity="0.18"/>
</linearGradient>
<linearGradient id="paint23_linear_1031_924" x1="139.549" y1="140.812" x2="204.627" y2="241.331" gradientUnits="userSpaceOnUse">
<stop stop-color="#FFF732"/>
<stop offset="1" stop-color="#FDFFA0" stop-opacity="0"/>
</linearGradient>
<linearGradient id="paint24_linear_1031_924" x1="237.276" y1="153.167" x2="222.86" y2="220.919" gradientUnits="userSpaceOnUse">
<stop stop-color="#E4B65B"/>
<stop offset="1" stop-color="#FFE7B8"/>
</linearGradient>
<linearGradient id="paint25_linear_1031_924" x1="123.846" y1="184.616" x2="236.218" y2="235.084" gradientUnits="userSpaceOnUse">
<stop stop-color="#D2A03E"/>
<stop offset="1" stop-color="#FFD88D" stop-opacity="0"/>
</linearGradient>
<clipPath id="clip0_1031_924">
<rect width="253" height="491" fill="white"/>
</clipPath>
</defs>
</svg>
