<svg width="257" height="491" viewBox="0 0 257 491" fill="none" xmlns="http://www.w3.org/2000/svg">
<g clip-path="url(#clip0_1031_1222)">
<path d="M113.655 131.775L125.906 156.654L113.655 167.316L102.936 138.883L93.9019 119.115C86.4955 102.908 84.3013 84.8015 87.6223 67.2944C87.6223 83.2003 92.2308 98.7655 100.89 112.108L113.655 131.775Z" fill="#3D3AA9"/>
<path d="M182.566 116.239L180.547 146.307H167.927L173.48 116.239L175.898 101.37C177.977 88.5873 178.182 75.5698 176.509 62.7277C183.396 75.3094 186.089 89.7602 184.198 103.978L182.566 116.239Z" fill="#3D3AA9"/>
<path d="M164.722 273.911L165.939 270.629C168.173 264.607 172.217 259.424 177.516 255.794L129.67 206.594L100.657 206.594L106.712 221.547C110.399 230.652 111.334 240.639 109.401 250.27C108.664 253.941 107.519 257.518 105.987 260.935L86.6282 304.103L129.67 327.624L152.853 324.655L166.326 315.749L162.765 296.036C161.426 288.618 162.101 280.978 164.722 273.911Z" fill="#3D3AA9"/>
<path d="M230.061 179.654L228.288 178.928C222.079 176.387 215.435 175.08 208.726 175.08L207.202 187.787L211.266 206.593H217.494C221.459 206.593 225.413 206.178 229.291 205.355L234.694 204.208C238.344 203.434 241.808 201.956 244.892 199.857C250.1 196.314 253.999 191.157 255.99 185.182L256.984 182.196L255.036 182.397C246.611 183.269 238.096 182.334 230.061 179.654Z" fill="#3D3AA9"/>
<path d="M128.78 312.192L137.718 312.903C149.172 313.814 160.216 308.432 166.557 298.851H202.409H212.957C222.307 298.851 230.713 304.55 234.172 313.237L239.175 325.797L255.617 391.336C242.995 402.919 227.059 410.252 210.052 412.305L209.717 412.345V455.962L209.717 514.194H72.0155C75.6506 491.929 76.0828 469.259 73.2989 446.871L72.0155 436.551L67.7854 394.533L66.0782 415.086H62.6935C43.6031 415.086 24.6318 412.08 6.47614 406.18L9.23721 347.06C9.97229 331.321 14.7313 316.034 23.0594 302.658C24.5559 300.255 27.0742 298.673 29.889 298.368L88.6858 292L105.66 303.882C112.488 308.662 120.47 311.531 128.78 312.192Z" fill="#3D3AA9"/>
<path d="M196.664 161.915L187.936 155.129C186.579 154.074 185.785 152.451 185.785 150.732C185.785 148.664 184.639 146.767 182.809 145.804L177.91 143.226C176.744 142.613 175.468 142.232 174.156 142.108L168.575 141.576C166.799 141.407 165.167 142.561 164.734 144.292C164.294 146.052 162.615 147.211 160.814 146.999L156.748 146.521C155.814 146.411 154.869 146.461 153.952 146.67L146.218 148.427C144.859 148.735 143.539 149.196 142.283 149.798L133.257 154.129C132.178 154.647 130.897 154.487 129.977 153.722C129.044 152.944 127.74 152.793 126.654 153.336L117.277 158.022L116.596 158.262C112.001 159.884 109.235 164.571 110.036 169.377C110.127 169.923 110.173 170.475 110.173 171.028V180.83C110.173 182.594 108.89 184.096 107.147 184.371L103.747 184.907C101.607 185.245 99.5043 185.781 97.4646 186.509C94.7825 187.467 92.228 188.75 89.8581 190.329L81.7544 195.729C78.3854 197.975 74.7416 199.777 70.9127 201.093L68.6219 201.88C63.2409 203.729 57.5051 204.308 51.863 203.573L49.8043 203.304C49.1154 203.214 48.4354 203.067 47.7714 202.862L43.8156 201.646C42.7755 201.326 41.6467 201.49 40.7412 202.094C39.733 202.766 39.1273 203.897 39.1273 205.109V207.545C39.1273 209.315 39.7013 211.036 40.7632 212.451L43.2002 215.7C44.5356 217.479 46.1539 219.028 47.9905 220.284L51.3173 222.56C53.6729 224.171 56.1771 225.553 58.7959 226.687L63.0281 228.521C67.6818 230.536 72.6994 231.577 77.771 231.577H78.002C80.4965 231.577 82.9839 231.309 85.4216 230.78C90.6867 229.636 95.6158 227.289 99.8238 223.924L108.65 216.866L117.528 209.202C118.618 208.26 120.315 208.727 120.77 210.093C120.81 210.212 120.838 210.333 120.855 210.457L121.946 218.365C122.549 222.734 123.996 226.945 126.207 230.763C127.69 233.323 129.501 235.68 131.594 237.772L138.361 244.536C142.19 248.363 146.806 251.311 151.888 253.173C156.838 254.988 162.116 255.731 167.374 255.356L173.606 254.911C181.255 254.911 188.903 256.464 195.935 259.476L213.189 268.607L214.218 269.065C219.6 271.456 225.262 273.155 231.071 274.123L231.352 274.17C231.422 274.181 231.493 274.185 231.564 274.181L234.986 273.98C238.228 273.789 241.233 272.218 243.241 269.665C244.812 267.665 245.666 265.196 245.666 262.653V259.599C245.666 259.521 245.698 259.445 245.753 259.39C247.34 257.804 248.339 255.726 248.587 253.496L249.009 249.694C249.149 248.44 249.174 247.176 249.084 245.918L248.251 234.261C248.221 233.842 248.024 233.452 247.705 233.179L218.621 208.32C215.078 205.291 212.506 201.287 211.225 196.806C211.182 196.656 211.189 196.496 211.246 196.351L214.559 187.889C215.319 185.947 215.475 183.82 215.006 181.788C214.486 179.536 213.228 177.523 211.431 176.07L206.131 171.781C204.416 170.393 202.889 168.786 201.591 167.001C200.195 165.083 198.537 163.371 196.664 161.915Z" fill="#3D3AA9"/>
<path d="M226.02 273.666L229.71 273.936C229.744 273.938 229.751 273.889 229.718 273.881L225.631 272.891C218.562 271.177 211.779 268.444 205.497 264.778L204.403 264.141V266.644C204.403 268.248 203.771 269.788 202.644 270.929L200.64 272.959C200.089 273.517 199.489 274.024 198.846 274.474L198.052 275.031C196.847 275.876 195.566 276.607 194.226 277.215L188.387 279.864C188.138 279.977 188.185 280.344 188.454 280.391L190.797 280.802C192.722 281.139 194.672 281.309 196.627 281.309H198.96C199.241 281.309 199.363 281.662 199.143 281.836C196.88 283.621 194.368 285.065 191.687 286.122L188.48 287.387C188.288 287.463 188.342 287.747 188.548 287.747H190.326C196.625 287.747 202.897 286.949 208.995 285.371L209.356 285.278C209.437 285.257 209.523 285.289 209.572 285.357C212.465 289.401 216.782 292.276 221.637 293.351C223.068 293.667 224.529 293.827 225.994 293.827H232.889C233.515 293.827 233.704 292.977 233.137 292.712L232.462 292.397L228.226 290.126C225.302 288.558 222.744 286.386 220.723 283.754C220.579 283.567 220.772 283.309 220.992 283.393L221.121 283.442C224.234 284.633 227.539 285.243 230.872 285.243H234.774C234.983 285.243 235.059 284.967 234.879 284.86L230.009 281.967C229.272 281.529 228.582 281.018 227.948 280.441L224.47 277.278C224.037 276.884 223.79 276.325 223.79 275.74C223.79 274.532 224.815 273.578 226.02 273.666Z" fill="#3D3AA9"/>
<path d="M257.445 458.935L250.595 395.907L211.773 410.066L216.569 458.935L220.908 510.087H257.445V458.935Z" fill="#3D3AA9"/>
<path d="M52.4648 456.523L59.2286 404.813L16.7536 398.876L11.958 436.555L9.54898 454.716C9.17906 457.504 9.32755 460.337 9.98697 463.072L16.7536 491.133L22.6909 514.426H56.7166L52.3489 461.358C52.2163 459.747 52.2551 458.126 52.4648 456.523Z" fill="#3D3AA9"/>
<mask id="mask0_1031_1222" style="mask-type:alpha" maskUnits="userSpaceOnUse" x="-1" y="56" width="253" height="453">
<path d="M107.179 125.294L119.43 150.172L107.179 160.834L96.4593 132.402L87.4254 112.633C80.0189 96.4262 77.8248 78.32 81.1458 60.8129C81.1458 76.7187 85.7542 92.2839 94.4137 105.626L107.179 125.294Z" fill="#D9A557" stroke="#95694A" stroke-width="0.45672"/>
<path d="M176.09 109.757L174.07 139.826H161.451L167.003 109.757L169.421 94.8886C171.5 82.1058 171.706 69.0883 170.032 56.2461C176.919 68.8278 179.613 83.2787 177.721 97.4967L176.09 109.757Z" fill="#D9A557" stroke="#95694A" stroke-width="0.45672"/>
<path d="M158.246 267.429L159.463 264.148C161.696 258.125 165.74 252.943 171.039 249.312L123.193 200.112L94.1807 200.112L100.236 215.065C103.922 224.17 104.857 234.157 102.924 243.789C102.187 247.46 101.042 251.037 99.5103 254.453L80.1517 297.621L123.193 321.142L146.376 318.174L159.849 309.268L156.289 289.554C154.949 282.137 155.625 274.496 158.246 267.429Z" fill="#D9A557" stroke="#FFD88B" stroke-width="0.45672"/>
<path d="M223.585 173.173L221.811 172.447C215.603 169.905 208.958 168.598 202.249 168.598L200.725 181.305L204.789 200.112H211.017C214.982 200.112 218.936 199.697 222.815 198.873L228.217 197.727C231.867 196.952 235.331 195.474 238.416 193.375C243.623 189.832 247.522 184.676 249.513 178.7L250.508 175.714L248.56 175.916C240.134 176.788 231.62 175.853 223.585 173.173Z" fill="#D9A557" stroke="#FFD88B" stroke-width="0.45672"/>
<g style="mix-blend-mode:color-burn">
<path d="M122.303 305.71L131.242 306.421C142.695 307.332 153.739 301.951 160.08 292.369H195.933H206.481C215.831 292.369 224.236 298.069 227.696 306.755L232.699 319.316L249.141 384.855C236.519 396.437 220.583 403.771 203.575 405.823L203.24 405.864V449.48L203.24 507.712H65.539C69.1741 485.447 69.6062 462.777 66.8223 440.39L65.539 430.07L61.3088 388.052L59.6016 408.604H56.2169C37.1266 408.604 18.1552 405.599 -0.000427246 399.698L2.76065 340.579C3.49573 324.84 8.25471 309.552 16.5829 296.177C18.0793 293.773 20.5977 292.191 23.4124 291.886L82.2093 285.518L99.1832 297.4C106.012 302.18 113.994 305.049 122.303 305.71Z" fill="#D9A557"/>
<path d="M65.539 337.128L61.3088 388.052M61.3088 388.052L59.6016 408.604H56.2169C37.1266 408.604 18.1552 405.599 -0.000424653 399.698V399.698L2.76065 340.579C3.49572 324.84 8.25471 309.552 16.5829 296.177V296.177C18.0793 293.773 20.5977 292.191 23.4124 291.886L82.2093 285.518L99.1832 297.4C106.012 302.18 113.994 305.049 122.303 305.71L131.242 306.421C142.695 307.332 153.739 301.951 160.08 292.369V292.369H195.933H206.481C215.831 292.369 224.236 298.069 227.696 306.755L232.699 319.316L249.141 384.855V384.855C236.519 396.437 220.583 403.771 203.575 405.823L203.24 405.864M61.3088 388.052L65.539 430.07L66.8223 440.39C69.6062 462.777 69.1741 485.447 65.539 507.712V507.712H203.24L203.24 449.48V405.864M192.736 331.875V331.875C199.647 345.999 203.24 361.515 203.24 377.239V392.619V405.864" stroke="#C7FFDF" stroke-width="0.274032"/>
</g>
<path d="M190.188 155.433L181.46 148.647C180.103 147.592 179.309 145.97 179.309 144.251C179.309 142.183 178.163 140.285 176.333 139.322L171.434 136.745C170.267 136.131 168.992 135.751 167.679 135.626L162.098 135.095C160.323 134.926 158.69 136.08 158.257 137.81C157.817 139.57 156.139 140.729 154.337 140.517L150.271 140.039C149.338 139.929 148.392 139.98 147.476 140.188L139.741 141.945C138.382 142.254 137.062 142.714 135.806 143.317L126.78 147.647C125.702 148.165 124.42 148.006 123.501 147.24C122.568 146.463 121.263 146.311 120.177 146.854L110.801 151.541L110.12 151.781C105.525 153.402 102.758 158.089 103.559 162.896C103.65 163.441 103.696 163.993 103.696 164.546V174.349C103.696 176.112 102.413 177.614 100.671 177.889L97.2702 178.426C95.1309 178.763 93.0278 179.3 90.9881 180.028C88.306 180.985 85.7514 182.268 83.3815 183.848L75.2779 189.248C71.9088 191.493 68.265 193.296 64.4361 194.611L62.1454 195.398C56.7643 197.247 51.0285 197.827 45.3864 197.091L43.3278 196.823C42.6389 196.733 41.9588 196.585 41.2948 196.381L37.3391 195.164C36.299 194.844 35.1702 195.009 34.2647 195.612C33.2564 196.284 32.6507 197.416 32.6507 198.627V201.064C32.6507 202.833 33.2248 204.555 34.2866 205.97L36.7237 209.218C38.0591 210.998 39.6773 212.547 41.5139 213.803L44.8407 216.078C47.1963 217.689 49.7006 219.071 52.3193 220.206L56.5515 222.039C61.2052 224.055 66.2229 225.095 71.2944 225.095H71.5254C74.0199 225.095 76.5073 224.828 78.945 224.298C84.2101 223.154 89.1393 220.808 93.3472 217.443L102.174 210.384L111.051 202.72C112.142 201.779 113.838 202.245 114.294 203.612C114.333 203.73 114.362 203.852 114.379 203.975L115.47 211.883C116.073 216.253 117.52 220.464 119.731 224.281C121.214 226.842 123.025 229.198 125.118 231.29L131.885 238.055C135.713 241.882 140.329 244.829 145.412 246.692C150.361 248.506 155.639 249.25 160.897 248.874L167.13 248.429C174.779 248.429 182.427 249.983 189.458 252.995L206.712 262.126L207.742 262.583C213.123 264.974 218.786 266.674 224.594 267.641L224.876 267.688C224.946 267.7 225.017 267.704 225.087 267.699L228.509 267.498C231.752 267.308 234.757 265.737 236.764 263.183C238.336 261.184 239.19 258.714 239.19 256.171V253.118C239.19 253.039 239.221 252.964 239.277 252.908C240.863 251.322 241.862 249.244 242.11 247.015L242.533 243.213C242.672 241.959 242.697 240.694 242.607 239.436L241.774 227.779C241.744 227.36 241.547 226.97 241.228 226.697L212.144 201.838C208.601 198.81 206.029 194.805 204.748 190.324C204.705 190.174 204.713 190.015 204.77 189.869L208.082 181.408C208.843 179.465 208.998 177.339 208.529 175.306C208.009 173.055 206.751 171.042 204.955 169.588L199.655 165.299C197.939 163.911 196.413 162.304 195.114 160.519C193.719 158.601 192.06 156.889 190.188 155.433Z" fill="#FCFFE9" stroke="#FFD88B" stroke-width="0.45672"/>
<path d="M219.544 267.185L223.233 267.454C223.267 267.457 223.275 267.408 223.242 267.4L219.155 266.409C212.085 264.695 205.303 261.963 199.02 258.297L197.927 257.659V260.163C197.927 261.767 197.295 263.306 196.168 264.448L194.164 266.477C193.612 267.035 193.012 267.543 192.37 267.993L191.576 268.55C190.371 269.395 189.089 270.126 187.749 270.734L181.911 273.382C181.662 273.495 181.708 273.862 181.977 273.909L184.32 274.32C186.245 274.658 188.196 274.827 190.15 274.827H192.484C192.764 274.827 192.887 275.181 192.667 275.354C190.404 277.139 187.892 278.583 185.21 279.641L182.003 280.906C181.812 280.981 181.866 281.265 182.071 281.265H183.85C190.148 281.265 196.421 280.467 202.519 278.89L202.879 278.796C202.96 278.775 203.047 278.807 203.095 278.876C205.989 282.92 210.306 285.794 215.161 286.869C216.591 287.186 218.052 287.346 219.517 287.346H226.413C227.039 287.346 227.227 286.495 226.66 286.23L225.986 285.915L221.75 283.644C218.825 282.076 216.268 279.904 214.247 277.273C214.103 277.085 214.295 276.827 214.516 276.911L214.645 276.961C217.758 278.151 221.062 278.762 224.395 278.762H228.298C228.507 278.762 228.583 278.486 228.403 278.379L223.532 275.485C222.796 275.048 222.105 274.537 221.471 273.96L217.993 270.796C217.56 270.402 217.313 269.844 217.313 269.258C217.313 268.05 218.339 267.097 219.544 267.185Z" fill="#FCFFE9" stroke="#FFD88B" stroke-width="0.45672"/>
<path d="M250.969 452.453L244.118 389.426L205.297 403.584L210.092 452.453L214.431 503.605H250.969L250.969 452.453Z" fill="#FCFFE9"/>
<path d="M45.9883 450.042L52.752 398.332L10.277 392.394L5.48145 430.074L3.07242 448.234C2.7025 451.023 2.85098 453.856 3.51041 456.59L10.277 484.652L16.2144 507.944H50.2401L45.8723 454.877C45.7397 453.265 45.7786 451.645 45.9883 450.042Z" fill="#FCFFE9"/>
<path d="M250.969 452.453L244.118 389.426L205.297 403.584L210.092 452.453L214.431 503.605H250.969L250.969 452.453Z" stroke="#FFD88B" stroke-width="0.45672"/>
<path d="M45.9883 450.042L52.752 398.332L10.277 392.394L5.48145 430.074L3.07242 448.234C2.7025 451.023 2.85098 453.856 3.51041 456.59L10.277 484.652L16.2144 507.944H50.2401L45.8723 454.877C45.7397 453.265 45.7786 451.645 45.9883 450.042Z" stroke="#FFD88B" stroke-width="0.45672"/>
</mask>
<g mask="url(#mask0_1031_1222)">
<path d="M107.179 125.295L119.43 150.174L107.179 160.836L96.4593 132.403L87.4254 112.635C80.0189 96.4278 77.8248 78.3215 81.1458 60.8145C81.1458 76.7203 85.7542 92.2855 94.4137 105.628L107.179 125.295Z" fill="#B0896D" stroke="#95694A" stroke-width="0.577824"/>
<g style="mix-blend-mode:color-burn">
<path d="M107.179 125.295L119.43 150.174L107.179 160.836L96.4593 132.403L87.4254 112.635C80.0189 96.4278 77.8248 78.3215 81.1458 60.8145C81.1458 76.7203 85.7542 92.2855 94.4137 105.628L107.179 125.295Z" fill="url(#paint0_linear_1031_1222)"/>
<path d="M107.179 125.295L119.43 150.174L107.179 160.836L96.4593 132.403L87.4254 112.635C80.0189 96.4278 77.8248 78.3215 81.1458 60.8145C81.1458 76.7203 85.7542 92.2855 94.4137 105.628L107.179 125.295Z" stroke="#95694A" stroke-width="0.577824"/>
</g>
<g style="mix-blend-mode:color-dodge" opacity="0.5">
<path d="M102.128 146.221L104.505 145.338C107.992 144.043 111.317 142.347 114.412 140.284V140.284M100.482 143.024L103.868 141.953C106.826 140.834 110.302 138.779 112.813 136.859M99.4425 139.599L100.568 139.195C103.873 138.012 107.029 136.451 109.976 134.544L111.34 133.662M97.9698 136.402L99.8705 135.747C102.835 134.725 105.687 133.4 108.381 131.794L109.845 130.921M97.0564 133.89L97.158 133.85C101.078 132.3 104.764 130.215 108.112 127.654L108.246 127.552M95.6862 130.921L97.2847 130.233C99.757 129.168 102.13 127.887 104.377 126.405L106.876 124.755M94.4956 127.953L95.5663 127.487C98.1449 126.367 100.615 125.012 102.944 123.438L105.049 122.015M93.4026 125.441L94.1683 125.108C97.0308 123.867 99.7585 122.335 102.309 120.537L103.45 119.732M91.8041 122.244V122.244C95.3377 120.974 98.6831 119.232 101.749 117.064L101.852 116.991M90.6623 119.275V119.275C93.923 118.097 97.0303 116.532 99.9172 114.612L100.025 114.54M89.2903 116.307V116.307C92.2342 115.133 95.043 113.645 97.6683 111.869L98.1982 111.511M87.9201 113.567V113.567C90.7946 112.475 93.558 111.11 96.1722 109.491L96.5978 109.228M86.7783 110.826L90.7647 109.31L95.2277 106.944M85.4082 107.858L85.4546 107.846C88.3328 107.117 91.0874 105.967 93.6291 104.432V104.432M84.4947 104.889L84.925 104.796C87.4609 104.248 89.9125 103.364 92.2154 102.17V102.17M83.5813 102.605L84.4756 102.35C86.6731 101.722 88.8205 100.93 90.8998 99.9816V99.9816M82.8962 100.093V100.093C85.1563 99.6377 87.3675 98.9666 89.4997 98.0893L90.0922 97.8456M82.2613 97.8456L86.2941 96.8402L89.071 95.7903M81.7544 95.2978L81.8413 95.2792C83.9116 94.8356 85.944 94.231 87.9201 93.471V93.471M81.0693 92.5575L81.2104 92.5475C83.228 92.4033 85.1975 91.8636 87.0067 90.959V90.959M80.8409 90.5023L83.7226 90.2739L86.0932 89.3605M80.3842 88.4471L80.4255 88.4436C82.1858 88.2939 83.9296 87.9895 85.6365 87.5336V87.5336M80.1559 86.6202L82.6678 86.3918L85.0849 85.9351M80.1559 85.0217V85.0217C81.6148 85.0217 83.0703 84.8787 84.5014 84.5949L84.6524 84.565M79.9275 83.2973V83.2973C81.2916 83.2973 82.6496 83.1158 83.9659 82.7577L84.038 82.7381M79.9275 81.3679L79.9567 81.3679C81.1502 81.3679 82.3387 81.2144 83.4931 80.9112V80.9112M79.6991 79.541L79.8635 79.541C80.9664 79.541 82.064 79.3873 83.1245 79.0843V79.0843M103.066 149.647L106.019 148.681C109.553 147.525 112.927 145.93 116.063 143.934V143.934M82.6678 77.4858V77.4858C81.7603 77.7883 80.8099 77.9425 79.8533 77.9425L79.6991 77.9425M82.4394 75.8873L82.369 75.9108C81.5081 76.1977 80.6066 76.344 79.6991 76.344V76.344M82.211 74.2888L81.967 74.3295C81.2175 74.4544 80.4589 74.5171 79.6991 74.5171V74.5171M81.9826 72.6903L81.5135 72.7685C80.9138 72.8684 80.3069 72.9186 79.699 72.9186V72.9186M81.7544 71.3201L81.3207 71.4069C80.8567 71.4997 80.3765 71.4698 79.9275 71.3201V71.3201M81.5261 69.7216L80.1559 69.7216M81.2976 67.8947L80.1559 67.8947" stroke="#B18D74" stroke-width="0.274032"/>
</g>
<path d="M107.179 125.295L119.43 150.174L107.179 160.836L96.4593 132.403L87.4254 112.635C80.0189 96.4278 77.8248 78.3215 81.1458 60.8145C81.1458 76.7203 85.7542 92.2855 94.4137 105.628L107.179 125.295Z" stroke="#95694A" stroke-width="0.577824"/>
<path d="M176.09 109.759L174.07 139.827H161.451L167.003 109.759L169.421 94.8902C171.5 82.1073 171.706 69.0898 170.032 56.2477C176.919 68.8294 179.613 83.2803 177.721 97.4983L176.09 109.759Z" fill="#B0896D" stroke="#95694A" stroke-width="0.577824"/>
<g style="mix-blend-mode:color-burn">
<path d="M176.09 109.759L174.07 139.827H161.451L167.003 109.759L169.421 94.8902C171.5 82.1073 171.706 69.0898 170.032 56.2477C176.919 68.8294 179.613 83.2803 177.721 97.4983L176.09 109.759Z" fill="url(#paint1_linear_1031_1222)"/>
<path d="M176.09 109.759L174.07 139.827H161.451L167.003 109.759L169.421 94.8902C171.5 82.1073 171.706 69.0898 170.032 56.2477C176.919 68.8294 179.613 83.2803 177.721 97.4983L176.09 109.759Z" stroke="#95694A" stroke-width="0.577824"/>
</g>
<g style="mix-blend-mode:color-dodge" opacity="0.5">
<path d="M174.92 128.864H174.027C170.533 128.864 167.06 128.325 163.73 127.266V127.266M175.149 125.439H173.751C170.589 125.439 167.444 124.977 164.416 124.069M175.149 121.785V121.785C172.115 121.785 169.093 121.413 166.15 120.678L165.101 120.415M175.377 118.36V118.36C172.191 118.36 169.016 117.987 165.916 117.249L165.786 117.218M175.834 115.391H175.578C172.416 115.391 169.271 114.93 166.242 114.021V114.021M176.062 111.966V111.966C173.194 111.966 170.305 111.696 167.488 111.159L166.928 111.052M176.519 108.997L176.322 108.987C173.566 108.842 170.829 108.447 168.144 107.808L167.384 107.627M176.519 106.257V106.257C173.634 106.105 170.772 105.658 167.978 104.923L167.841 104.887M176.975 102.831H176.741C173.871 102.831 171.02 102.369 168.298 101.461V101.461M177.432 99.6344H177.076C174.277 99.6344 171.487 99.3281 168.754 98.721V98.721M177.889 96.4374L177.755 96.4304C174.956 96.2831 172.175 95.9035 169.439 95.2956V95.2956M178.117 93.2404H177.949C175.326 93.2404 172.708 93.0111 170.125 92.5553V92.5553M178.117 90.0433V90.0433C175.686 90.1953 173.246 90.1364 170.825 89.8674L170.353 89.815M178.117 87.0747V87.0747C175.695 87.3774 173.241 87.3157 170.837 86.8915L170.581 86.8463M178.117 84.106V84.106C175.69 84.4094 173.236 84.4183 170.806 84.1325L170.581 84.106M177.889 81.3657V81.3657C175.626 81.6674 173.316 81.7459 171.038 81.5941V81.5941M177.432 78.8537L177.369 78.8672C175.29 79.3127 173.159 79.4619 171.038 79.3105V79.3105M177.204 76.5701L177.169 76.5755C175.216 76.876 173.243 77.0269 171.266 77.0269V77.0269M176.519 74.0582V74.0582C175 74.3619 173.455 74.5149 171.906 74.5149H171.266M176.062 71.5462V71.5462C174.7 71.849 173.299 71.944 171.909 71.8281L171.266 71.7746M175.377 69.491L173.778 69.9477H171.266M174.92 67.4358V67.4358C173.856 67.7397 172.769 67.9539 171.669 68.0761L171.266 68.1209M174.235 65.8373V65.8373C173.324 66.141 172.385 66.354 171.432 66.4731L171.038 66.5223M173.778 64.4671L173.726 64.4846C172.849 64.777 171.95 65.0002 171.038 65.1522V65.1522M173.093 62.8686V62.8686C172.493 63.1689 171.83 63.3253 171.159 63.3253H170.81M172.408 61.0417V61.0417C171.954 61.193 171.479 61.2701 171.001 61.2701H170.81M171.495 59.2148L170.581 59.4432M174.463 132.975L174.12 132.962C170.397 132.819 166.693 132.365 163.045 131.605V131.605" stroke="#B18D74" stroke-width="0.274032"/>
</g>
<path d="M176.09 109.759L174.07 139.827H161.451L167.003 109.759L169.421 94.8902C171.5 82.1073 171.706 69.0898 170.032 56.2477C176.919 68.8294 179.613 83.2803 177.721 97.4983L176.09 109.759Z" stroke="#95694A" stroke-width="0.577824"/>
<path d="M158.246 267.431L159.463 264.15C161.696 258.127 165.74 252.945 171.039 249.315L123.193 200.114L94.1807 200.114L100.202 214.985C103.911 224.144 104.851 234.19 102.907 243.878C102.182 247.491 101.063 251.015 99.5708 254.385L86.5458 283.806L75.5845 305.159L131.076 323.885L159.849 309.27L156.289 289.556C154.949 282.139 155.625 274.498 158.246 267.431Z" fill="#FCFFE9" stroke="#FFD88B" stroke-width="0.45672"/>
<path d="M158.246 267.431L159.463 264.15C161.696 258.127 165.74 252.945 171.039 249.315L123.193 200.114L94.1807 200.114L100.236 215.067C103.922 224.173 104.857 234.159 102.924 243.791C102.187 247.462 101.042 251.039 99.5103 254.455L80.1517 297.624L123.193 321.145L146.376 318.176L159.849 309.27L156.289 289.556C154.949 282.139 155.625 274.498 158.246 267.431Z" fill="url(#paint2_linear_1031_1222)" stroke="#FFD88B" stroke-width="0.577824"/>
<path d="M223.592 173.174L221.819 172.449C215.61 169.907 208.966 168.6 202.257 168.6L200.733 181.307L204.797 200.113H211.025C214.99 200.113 218.944 199.698 222.822 198.875L228.225 197.729C231.875 196.954 235.339 195.476 238.423 193.377C243.631 189.834 247.53 184.678 249.521 178.702L250.516 175.716L248.568 175.917C240.142 176.79 231.628 175.854 223.592 173.174Z" fill="#FCFFE9" stroke="#FFD88B" stroke-width="0.45672"/>
<path d="M223.592 173.174L221.819 172.449C215.61 169.907 208.966 168.6 202.257 168.6L200.733 181.307L204.797 200.113H211.025C214.99 200.113 218.944 199.698 222.822 198.875L228.225 197.729C231.875 196.954 235.339 195.476 238.423 193.377C243.631 189.834 247.53 184.678 249.521 178.702L250.516 175.716L248.568 175.917C240.142 176.79 231.628 175.854 223.592 173.174Z" fill="url(#paint3_linear_1031_1222)" stroke="#FFD88B" stroke-width="0.45672"/>
<path d="M220.024 183.002L207.45 180.474L203.929 193.621L211.366 194.155C215.774 194.471 220.205 194.15 224.521 193.201C230.841 191.811 236.796 189.101 241.995 185.25L243.664 184.013H235.617L220.024 183.002Z" fill="#FFC896" stroke="#D98F4B" stroke-width="0.45672"/>
<path d="M190.195 155.433L181.467 148.647C180.11 147.592 179.317 145.97 179.317 144.251C179.317 142.183 178.171 140.285 176.34 139.322L171.442 136.745C170.275 136.131 169 135.751 167.687 135.626L162.106 135.095C160.331 134.926 158.698 136.08 158.265 137.81C157.825 139.57 156.146 140.729 154.345 140.517L150.279 140.039C149.346 139.929 148.4 139.98 147.484 140.188L139.749 141.945C138.39 142.254 137.07 142.714 135.814 143.317L126.788 147.647C125.709 148.165 124.428 148.006 123.509 147.24C122.576 146.463 121.271 146.311 120.185 146.854L110.809 151.54L110.128 151.781C105.533 153.402 102.766 158.089 103.567 162.895C103.658 163.441 103.704 163.993 103.704 164.546V174.349C103.704 176.112 102.421 177.614 100.679 177.889L97.278 178.426C95.1387 178.763 93.0356 179.3 90.9959 180.028C88.3138 180.985 85.7592 182.268 83.3893 183.847L75.2857 189.248C71.9166 191.493 68.2728 193.295 64.444 194.611L62.1532 195.398C56.7722 197.247 51.0364 197.827 45.3943 197.091L43.3356 196.823C42.6467 196.733 41.9666 196.585 41.3026 196.381L37.3469 195.164C36.3068 194.844 35.178 195.009 34.2725 195.612C33.2642 196.284 32.6585 197.415 32.6585 198.627V201.064C32.6585 202.833 33.2326 204.555 34.2944 205.97L36.7315 209.218C38.0669 210.998 39.6851 212.547 41.5217 213.803L44.8486 216.078C47.2041 217.689 49.7084 219.071 52.3271 220.206L56.5593 222.039C61.213 224.055 66.2307 225.095 71.3022 225.095H71.5332C74.0278 225.095 76.5151 224.828 78.9528 224.298C84.2179 223.154 89.1471 220.808 93.3551 217.442L102.182 210.384L111.059 202.72C112.149 201.779 113.846 202.245 114.301 203.612C114.341 203.73 114.369 203.852 114.386 203.975L115.478 211.883C116.081 216.253 117.528 220.464 119.739 224.281C121.222 226.842 123.033 229.198 125.126 231.29L131.893 238.054C135.721 241.881 140.337 244.829 145.42 246.692C150.369 248.506 155.647 249.25 160.905 248.874L167.137 248.429C174.787 248.429 182.435 249.983 189.466 252.995L206.72 262.126L207.75 262.583C213.131 264.974 218.794 266.674 224.602 267.641L224.884 267.688C224.953 267.7 225.024 267.704 225.095 267.699L228.517 267.498C231.759 267.308 234.765 265.736 236.772 263.183C238.343 261.183 239.198 258.714 239.198 256.171V253.118C239.198 253.039 239.229 252.964 239.285 252.908C240.871 251.322 241.87 249.244 242.118 247.015L242.54 243.212C242.68 241.958 242.705 240.694 242.615 239.436L241.782 227.779C241.752 227.36 241.555 226.97 241.236 226.697L212.152 201.838C208.609 198.81 206.037 194.805 204.756 190.324C204.713 190.174 204.721 190.014 204.778 189.869L208.09 181.407C208.85 179.465 209.006 177.338 208.537 175.306C208.017 173.055 206.759 171.042 204.963 169.588L199.663 165.299C197.947 163.911 196.42 162.304 195.122 160.519C193.726 158.601 192.068 156.889 190.195 155.433Z" fill="#FCFFE9" stroke="#FFD88B" stroke-width="0.577824"/>
<path d="M190.195 155.433L181.467 148.647C180.11 147.592 179.317 145.97 179.317 144.251C179.317 142.183 178.171 140.285 176.34 139.322L171.442 136.745C170.275 136.131 169 135.751 167.687 135.626L162.106 135.095C160.331 134.926 158.698 136.08 158.265 137.81C157.825 139.57 156.146 140.729 154.345 140.517L150.279 140.039C149.346 139.929 148.4 139.98 147.484 140.188L139.749 141.945C138.39 142.254 137.07 142.714 135.814 143.317L126.788 147.647C125.709 148.165 124.428 148.006 123.509 147.24C122.576 146.463 121.271 146.311 120.185 146.854L110.809 151.54L110.128 151.781C105.533 153.402 102.766 158.089 103.567 162.895C103.658 163.441 103.704 163.993 103.704 164.546V174.349C103.704 176.112 102.421 177.614 100.679 177.889L97.278 178.426C95.1387 178.763 93.0356 179.3 90.9959 180.028C88.3138 180.985 85.7592 182.268 83.3893 183.847L75.2857 189.248C71.9166 191.493 68.2728 193.295 64.444 194.611L62.1532 195.398C56.7722 197.247 51.0364 197.827 45.3943 197.091L43.3356 196.823C42.6467 196.733 41.9666 196.585 41.3026 196.381L37.3469 195.164C36.3068 194.844 35.178 195.009 34.2725 195.612C33.2642 196.284 32.6585 197.415 32.6585 198.627V201.064C32.6585 202.833 33.2326 204.555 34.2944 205.97L36.7315 209.218C38.0669 210.998 39.6851 212.547 41.5217 213.803L44.8486 216.078C47.2041 217.689 49.7084 219.071 52.3271 220.206L56.5593 222.039C61.213 224.055 66.2307 225.095 71.3022 225.095H71.5332C74.0278 225.095 76.5151 224.828 78.9528 224.298C84.2179 223.154 89.1471 220.808 93.3551 217.442L102.182 210.384L111.059 202.72C112.149 201.779 113.846 202.245 114.301 203.612C114.341 203.73 114.369 203.852 114.386 203.975L115.478 211.883C116.081 216.253 117.528 220.464 119.739 224.281C121.222 226.842 123.033 229.198 125.126 231.29L131.893 238.054C135.721 241.881 140.337 244.829 145.42 246.692C150.369 248.506 155.647 249.25 160.905 248.874L167.137 248.429C174.787 248.429 182.435 249.983 189.466 252.995L206.72 262.126L207.75 262.583C213.131 264.974 218.794 266.674 224.602 267.641L224.884 267.688C224.953 267.7 225.024 267.704 225.095 267.699L228.517 267.498C231.759 267.308 234.765 265.736 236.772 263.183C238.343 261.183 239.198 258.714 239.198 256.171V253.118C239.198 253.039 239.229 252.964 239.285 252.908C240.871 251.322 241.87 249.244 242.118 247.015L242.54 243.212C242.68 241.958 242.705 240.694 242.615 239.436L241.782 227.779C241.752 227.36 241.555 226.97 241.236 226.697L212.152 201.838C208.609 198.81 206.037 194.805 204.756 190.324C204.713 190.174 204.721 190.014 204.778 189.869L208.09 181.407C208.85 179.465 209.006 177.338 208.537 175.306C208.017 173.055 206.759 171.042 204.963 169.588L199.663 165.299C197.947 163.911 196.42 162.304 195.122 160.519C193.726 158.601 192.068 156.889 190.195 155.433Z" fill="url(#paint4_linear_1031_1222)" stroke="#FFD88B" stroke-width="0.577824"/>
<mask id="mask1_1031_1222" style="mask-type:alpha" maskUnits="userSpaceOnUse" x="32" y="135" width="211" height="134">
<path d="M190.098 155.624L181.363 148.83C180.005 147.774 179.21 146.149 179.21 144.428C179.21 142.358 178.063 140.458 176.231 139.493L171.329 136.913C170.161 136.299 168.885 135.918 167.571 135.793L161.987 135.261C160.209 135.092 158.575 136.248 158.142 137.98C157.701 139.742 156.021 140.902 154.217 140.69L150.149 140.212C149.215 140.102 148.269 140.152 147.351 140.361L139.61 142.12C138.25 142.429 136.929 142.89 135.672 143.493L126.639 147.829C125.56 148.347 124.277 148.188 123.357 147.421C122.423 146.643 121.117 146.491 120.03 147.035L110.646 151.727L109.968 151.966C105.367 153.59 102.597 158.283 103.399 163.095C103.49 163.641 103.536 164.194 103.536 164.748V174.564C103.536 176.329 102.252 177.831 100.509 178.106L97.1051 178.644C94.9639 178.982 92.8589 179.519 90.8174 180.248C88.1332 181.207 85.5767 182.491 83.2052 184.072L75.0937 189.48C71.7225 191.727 68.0762 193.532 64.2445 194.849L61.9512 195.637C56.5659 197.488 50.8254 198.068 45.1787 197.332L43.1184 197.063C42.429 196.973 41.7484 196.825 41.0839 196.621L37.1255 195.403C36.0842 195.082 34.954 195.247 34.0475 195.851C33.0387 196.524 32.4327 197.656 32.4327 198.869V201.309C32.4327 203.081 33.0072 204.804 34.07 206.221L36.5085 209.473C37.8453 211.255 39.4653 212.806 41.304 214.064L44.6322 216.341C46.99 217.955 49.4967 219.339 52.118 220.474L56.3534 222.31C61.0105 224.328 66.0322 225.369 71.1078 225.369H71.3387C73.8355 225.369 76.3251 225.102 78.765 224.571C84.0341 223.426 88.9669 221.077 93.1775 217.708L102.012 210.641L110.897 202.968C111.988 202.026 113.686 202.493 114.142 203.86C114.182 203.979 114.21 204.1 114.227 204.224L115.319 212.142C115.923 216.517 117.371 220.732 119.583 224.554C121.068 227.118 122.881 229.477 124.976 231.572L131.749 238.346C135.58 242.176 140.199 245.127 145.285 246.992C150.239 248.808 155.522 249.553 160.785 249.177L167.021 248.732C174.677 248.732 182.331 250.287 189.368 253.302L206.636 262.444L207.667 262.902C213.052 265.296 218.719 266.998 224.533 267.966L224.814 268.013C224.884 268.025 224.955 268.029 225.026 268.025L228.448 267.823C231.695 267.632 234.704 266.059 236.713 263.502C238.285 261.501 239.14 259.029 239.14 256.484V253.425C239.14 253.347 239.171 253.271 239.227 253.216C240.815 251.628 241.815 249.547 242.063 247.316L242.486 243.508C242.625 242.253 242.65 240.987 242.56 239.728L241.726 228.057C241.696 227.637 241.5 227.247 241.18 226.973L212.073 202.085C208.527 199.053 205.952 195.043 204.67 190.557C204.627 190.407 204.635 190.247 204.692 190.101L208.007 181.629C208.768 179.685 208.924 177.556 208.454 175.521C207.934 173.267 206.675 171.251 204.876 169.795L199.573 165.502C197.856 164.112 196.328 162.503 195.028 160.716C193.632 158.796 191.972 157.082 190.098 155.624Z" fill="#D9D9D9"/>
</mask>
<g mask="url(#mask1_1031_1222)">
<rect opacity="0.5" width="81.2107" height="31.6756" transform="matrix(-0.977972 0.208735 0.208737 0.977972 109.078 186.564)" fill="url(#paint5_linear_1031_1222)"/>
<path d="M156.29 178.757L153.883 177.949C153.261 177.74 152.608 177.634 151.952 177.636L148.487 177.646C144.813 177.657 141.186 178.478 137.865 180.05L142.045 180.702C143.573 180.94 145.05 181.428 146.42 182.145C147.901 182.921 149.508 183.427 151.167 183.641L152.961 183.872L152.963 183.872L155.79 183.544C157.036 183.4 157.975 182.342 157.971 181.087C157.968 180.031 157.292 179.093 156.29 178.757Z" fill="url(#paint6_linear_1031_1222)" stroke="#A0763E" stroke-width="0.456719"/>
<path d="M202.651 175.364L202.897 175.193C203.494 174.778 204.203 174.555 204.929 174.552L205.966 174.549C207.744 174.544 209.455 175.225 210.743 176.451L211.221 176.905L209.442 177.488C208.524 177.789 207.699 178.318 207.044 179.027C206.323 179.808 205.396 180.37 204.37 180.649L203.832 180.795C203.832 180.795 203.831 180.795 203.831 180.795L203.702 180.766C202.336 180.455 201.365 179.243 201.361 177.842C201.358 176.854 201.841 175.928 202.651 175.364Z" fill="url(#paint7_linear_1031_1222)" stroke="#A0763E" stroke-width="0.456719"/>
<path d="M191.609 166.981L188.352 164.423L187.527 163.915C183.777 161.607 179.38 160.575 174.995 160.974L174.083 161.057C171.773 161.267 169.534 161.972 167.52 163.123L167.248 163.278C164.777 164.69 162.756 166.771 161.417 169.281C160.1 171.75 159.496 174.536 159.67 177.328L159.699 177.788C159.839 180.029 160.428 182.218 161.432 184.225L163.337 188.034C164.772 190.904 166.567 193.578 168.68 195.993L172.608 200.482C181.056 208.593 190.206 215.939 199.95 222.435L200.542 222.829L216.794 232.987L217.164 233.102C222.305 234.709 227.66 235.526 233.046 235.526C236.044 232.528 238.228 228.816 239.393 224.74L239.648 223.845L210.186 197.371C206.573 194.125 204.17 189.747 203.371 184.956C202.846 181.803 201.622 178.809 199.789 176.19L198.274 174.025C196.41 171.363 194.164 168.989 191.609 166.981Z" fill="#FFFDFB"/>
<path d="M191.609 166.981L188.352 164.423L187.527 163.915C183.777 161.607 179.38 160.575 174.995 160.974L174.083 161.057C171.773 161.267 169.534 161.972 167.52 163.123L167.248 163.278C164.777 164.69 162.756 166.771 161.417 169.281C160.1 171.75 159.496 174.536 159.67 177.328L159.699 177.788C159.839 180.029 160.428 182.218 161.432 184.225L163.337 188.034C164.772 190.904 166.567 193.578 168.68 195.993L172.608 200.482C181.056 208.593 190.206 215.939 199.95 222.435L200.542 222.829L216.794 232.987L217.164 233.102C222.305 234.709 227.66 235.526 233.046 235.526C236.044 232.528 238.228 228.816 239.393 224.74L239.648 223.845L210.186 197.371C206.573 194.125 204.17 189.747 203.371 184.956C202.846 181.803 201.622 178.809 199.789 176.19L198.274 174.025C196.41 171.363 194.164 168.989 191.609 166.981Z" fill="url(#paint8_linear_1031_1222)"/>
</g>
<path d="M190.195 155.433L181.467 148.647C180.11 147.592 179.317 145.97 179.317 144.251C179.317 142.183 178.171 140.285 176.34 139.322L171.442 136.745C170.275 136.131 169 135.751 167.687 135.626L162.106 135.095C160.331 134.926 158.698 136.08 158.265 137.81C157.825 139.57 156.146 140.729 154.345 140.517L150.279 140.039C149.346 139.929 148.4 139.98 147.484 140.188L139.749 141.945C138.39 142.254 137.07 142.714 135.814 143.317L126.788 147.647C125.709 148.165 124.428 148.006 123.509 147.24C122.576 146.463 121.271 146.311 120.185 146.854L110.809 151.54L110.128 151.781C105.533 153.402 102.766 158.089 103.567 162.895C103.658 163.441 103.704 163.993 103.704 164.546V174.349C103.704 176.112 102.421 177.614 100.679 177.889L97.278 178.426C95.1387 178.763 93.0356 179.3 90.9959 180.028C88.3138 180.985 85.7592 182.268 83.3893 183.847L75.2857 189.248C71.9166 191.493 68.2728 193.295 64.444 194.611L62.1532 195.398C56.7722 197.247 51.0364 197.827 45.3943 197.091L43.3356 196.823C42.6467 196.733 41.9666 196.585 41.3026 196.381L37.3469 195.164C36.3068 194.844 35.178 195.009 34.2725 195.612C33.2642 196.284 32.6585 197.415 32.6585 198.627V201.064C32.6585 202.833 33.2326 204.555 34.2944 205.97L36.7315 209.218C38.0669 210.998 39.6851 212.547 41.5217 213.803L44.8486 216.078C47.2041 217.689 49.7084 219.071 52.3271 220.206L56.5593 222.039C61.213 224.055 66.2307 225.095 71.3022 225.095H71.5332C74.0278 225.095 76.5151 224.828 78.9528 224.298C84.2179 223.154 89.1471 220.808 93.3551 217.442L102.182 210.384L111.059 202.72C112.149 201.779 113.846 202.245 114.301 203.612C114.341 203.73 114.369 203.852 114.386 203.975L115.478 211.883C116.081 216.253 117.528 220.464 119.739 224.281C121.222 226.842 123.033 229.198 125.126 231.29L131.893 238.054C135.721 241.881 140.337 244.829 145.42 246.692C150.369 248.506 155.647 249.25 160.905 248.874L167.137 248.429C174.787 248.429 182.435 249.983 189.466 252.995L206.72 262.126L207.75 262.583C213.131 264.974 218.794 266.674 224.602 267.641L224.884 267.688C224.953 267.7 225.024 267.704 225.095 267.699L228.517 267.498C231.759 267.308 234.765 265.736 236.772 263.183C238.343 261.183 239.198 258.714 239.198 256.171V253.118C239.198 253.039 239.229 252.964 239.285 252.908C240.871 251.322 241.87 249.244 242.118 247.015L242.54 243.212C242.68 241.958 242.705 240.694 242.615 239.436L241.782 227.779C241.752 227.36 241.555 226.97 241.236 226.697L212.152 201.838C208.609 198.81 206.037 194.805 204.756 190.324C204.713 190.174 204.721 190.014 204.778 189.869L208.09 181.407C208.85 179.465 209.006 177.338 208.537 175.306C208.017 173.055 206.759 171.042 204.963 169.588L199.663 165.299C197.947 163.911 196.42 162.304 195.122 160.519C193.726 158.601 192.068 156.889 190.195 155.433Z" stroke="#FFD88B" stroke-width="0.45672"/>
<path d="M91.7941 203.015L96.9814 200.745C101.949 198.572 107.205 197.128 112.586 196.459L109.543 198.981L104.472 203.015L95.344 211.588L90.2985 215.351C88.2632 216.869 86.0225 218.09 83.6435 218.977C80.6495 220.093 77.4798 220.665 74.2843 220.665H71.3326C68.0869 220.665 64.8584 220.194 61.7482 219.266C58.1392 218.189 54.7373 216.512 51.6856 214.305L45.1393 209.571L39.0539 205.032L44.8253 207.492C48.0687 208.874 51.4462 209.917 54.9041 210.605L55.3718 210.698C58.3472 211.29 61.3736 211.588 64.4073 211.588H65.0983C69.3476 211.588 73.572 210.94 77.6261 209.667C79.9673 208.932 82.2392 207.992 84.4155 206.858L91.7941 203.015Z" fill="#FFC896" stroke="#D98F4B" stroke-width="0.45672"/>
<path d="M234.84 256.434L238.261 253.567C235.936 253.783 233.768 252.189 233.326 249.846C231.306 253.294 227.599 255.438 223.567 255.438H221.292C219.175 255.438 217.081 254.989 215.149 254.122L193.113 244.231L197.831 248.927C204.827 254.561 213.203 258.223 222.09 259.534L222.254 259.558L222.261 259.559L222.268 259.56C226.716 260.509 231.354 259.356 234.84 256.434Z" fill="url(#paint9_radial_1031_1222)" stroke="#E9ABCC" stroke-width="0.462542"/>
<g style="mix-blend-mode:color-burn">
<path d="M234.84 256.434L238.261 253.567C235.936 253.783 233.768 252.189 233.326 249.846C231.306 253.294 227.599 255.438 223.567 255.438H221.292C219.175 255.438 217.081 254.989 215.149 254.122L193.113 244.231L197.831 248.927C204.827 254.561 213.203 258.223 222.09 259.534L222.254 259.558L222.261 259.559L222.268 259.56C226.716 260.509 231.354 259.356 234.84 256.434Z" fill="url(#paint10_linear_1031_1222)"/>
<path d="M234.84 256.434L238.261 253.567C235.936 253.783 233.768 252.189 233.326 249.846C231.306 253.294 227.599 255.438 223.567 255.438H221.292C219.175 255.438 217.081 254.989 215.149 254.122L193.113 244.231L197.831 248.927C204.827 254.561 213.203 258.223 222.09 259.534L222.254 259.558L222.261 259.559L222.268 259.56C226.716 260.509 231.354 259.356 234.84 256.434Z" stroke="#E9ABCC" stroke-width="0.462542"/>
</g>
<path d="M157.903 197.523L163.281 202.985L156.36 206.499C152.267 208.577 147.604 209.252 143.09 208.418C136.87 207.27 131.504 203.37 128.492 197.808L127.657 196.266L129.907 194.743C134.359 191.729 139.761 190.45 145.092 191.148C149.953 191.785 154.463 194.029 157.903 197.523Z" fill="white" stroke="#FFC896" stroke-width="0.45672"/>
<path d="M146.993 192.23L147.981 191.664L153.576 193.847L158.2 197.844L163.281 202.853L155.745 206.964L151.121 208.462L146.497 208.962L145.112 207.423C143.6 205.743 142.661 203.626 142.43 201.378L142.409 201.168C142.318 200.289 142.355 199.401 142.517 198.531C143.014 195.877 144.65 193.573 146.993 192.23Z" fill="url(#paint11_linear_1031_1222)"/>
<mask id="mask2_1031_1222" style="mask-type:alpha" maskUnits="userSpaceOnUse" x="127" y="190" width="37" height="19">
<path d="M157.903 197.523L163.281 202.985L156.36 206.499C152.267 208.577 147.604 209.252 143.09 208.418C136.87 207.27 131.504 203.37 128.492 197.809L127.657 196.266L129.907 194.743C134.359 191.729 139.761 190.45 145.092 191.149C149.953 191.786 154.463 194.029 157.903 197.523Z" fill="white" stroke="#FFC896" stroke-width="0.45672"/>
</mask>
<g mask="url(#mask2_1031_1222)">
<ellipse cx="2.51196" cy="2.51195" rx="2.51196" ry="2.51195" transform="matrix(-1 0 0 1 146.016 194.923)" fill="white"/>
</g>
<path d="M157.903 197.523L163.281 202.985L156.36 206.499C152.267 208.577 147.604 209.252 143.09 208.418C136.87 207.27 131.504 203.37 128.492 197.808L127.657 196.266L129.907 194.743C134.359 191.729 139.761 190.45 145.092 191.148C149.953 191.785 154.463 194.029 157.903 197.523Z" stroke="#FFC896" stroke-width="0.45672"/>
<path d="M232.529 234.609L227.645 231.365C224.529 229.296 220.315 231.133 219.711 234.825C219.299 237.341 220.79 239.78 223.218 240.561L226.836 241.724C232.614 243.582 238.64 239.657 239.275 233.62L239.5 231.479C239.531 231.185 239.521 230.888 239.471 230.596C238.85 226.98 233.635 227.045 233.104 230.675L232.529 234.609Z" fill="#B0896D" stroke="#95694A" stroke-width="0.45672"/>
<path d="M232.529 234.609L227.645 231.365C224.529 229.296 220.315 231.133 219.711 234.825C219.299 237.341 220.79 239.78 223.218 240.561L226.836 241.724C232.614 243.582 238.64 239.657 239.275 233.62L239.5 231.479C239.531 231.185 239.521 230.888 239.471 230.596C238.85 226.98 233.635 227.045 233.104 230.675L232.529 234.609Z" fill="url(#paint12_linear_1031_1222)" stroke="#95694A" stroke-width="0.45672"/>
<path d="M219.544 267.183L223.233 267.453C223.267 267.455 223.275 267.406 223.242 267.399L219.155 266.408C212.085 264.694 205.303 261.961 199.02 258.296L197.927 257.658V260.161C197.927 261.766 197.295 263.305 196.168 264.447L194.164 266.476C193.612 267.034 193.012 267.541 192.37 267.992L191.576 268.548C190.371 269.393 189.089 270.125 187.749 270.733L181.911 273.381C181.662 273.494 181.708 273.861 181.977 273.908L184.32 274.319C186.245 274.656 188.196 274.826 190.15 274.826H192.484C192.764 274.826 192.887 275.18 192.667 275.353C190.404 277.138 187.892 278.582 185.21 279.64L182.003 280.904C181.812 280.98 181.866 281.264 182.071 281.264H183.85C190.148 281.264 196.421 280.466 202.519 278.888L202.879 278.795C202.96 278.774 203.047 278.806 203.095 278.874C205.989 282.919 210.306 285.793 215.161 286.868C216.591 287.185 218.052 287.344 219.517 287.344H226.413C227.039 287.344 227.227 286.494 226.66 286.229L225.986 285.914L221.75 283.643C218.825 282.075 216.268 279.903 214.247 277.271C214.103 277.084 214.295 276.826 214.516 276.91L214.645 276.959C217.758 278.15 221.062 278.76 224.395 278.76H228.298C228.507 278.76 228.583 278.484 228.403 278.378L223.532 275.484C222.796 275.046 222.105 274.535 221.471 273.959L217.993 270.795C217.56 270.401 217.313 269.842 217.313 269.257C217.313 268.049 218.339 267.095 219.544 267.183Z" fill="#FCFFE9" stroke="#FFD88B" stroke-width="0.45672"/>
<path d="M219.544 267.183L223.233 267.453C223.267 267.455 223.275 267.406 223.242 267.399L219.155 266.408C212.085 264.694 205.303 261.961 199.02 258.296L197.927 257.658V260.161C197.927 261.766 197.295 263.305 196.168 264.447L194.164 266.476C193.612 267.034 193.012 267.541 192.37 267.992L191.576 268.548C190.371 269.393 189.089 270.125 187.749 270.733L181.911 273.381C181.662 273.494 181.708 273.861 181.977 273.908L184.32 274.319C186.245 274.656 188.196 274.826 190.15 274.826H192.484C192.764 274.826 192.887 275.18 192.667 275.353C190.404 277.138 187.892 278.582 185.21 279.64L182.003 280.904C181.812 280.98 181.866 281.264 182.071 281.264H183.85C190.148 281.264 196.421 280.466 202.519 278.888L202.879 278.795C202.96 278.774 203.047 278.806 203.095 278.874C205.989 282.919 210.306 285.793 215.161 286.868C216.591 287.185 218.052 287.344 219.517 287.344H226.413C227.039 287.344 227.227 286.494 226.66 286.229L225.986 285.914L221.75 283.643C218.825 282.075 216.268 279.903 214.247 277.271C214.103 277.084 214.295 276.826 214.516 276.91L214.645 276.959C217.758 278.15 221.062 278.76 224.395 278.76H228.298C228.507 278.76 228.583 278.484 228.403 278.378L223.532 275.484C222.796 275.046 222.105 274.535 221.471 273.959L217.993 270.795C217.56 270.401 217.313 269.842 217.313 269.257C217.313 268.049 218.339 267.095 219.544 267.183Z" fill="url(#paint13_linear_1031_1222)" stroke="#FFD88B" stroke-width="0.45672"/>
<path d="M250.969 452.45L244.118 389.423L205.297 403.581L210.092 452.45L214.431 503.603H250.969L250.969 452.45Z" fill="#FCFFE9"/>
<path d="M45.9883 450.039L52.752 398.329L10.277 392.392L5.48145 430.071L3.07242 448.231C2.7025 451.02 2.85098 453.853 3.51041 456.587L10.277 484.649L16.2144 507.941H50.2401L45.8723 454.874C45.7397 453.262 45.7786 451.642 45.9883 450.039Z" fill="#FCFFE9"/>
<path d="M250.969 452.45L244.118 389.423L205.297 403.581L210.092 452.45L214.431 503.603H250.969L250.969 452.45Z" stroke="#FFD88B" stroke-width="0.45672"/>
<path d="M45.9883 450.039L52.752 398.329L10.277 392.392L5.48145 430.071L3.07242 448.231C2.7025 451.02 2.85098 453.853 3.51041 456.587L10.277 484.649L16.2144 507.941H50.2401L45.8723 454.874C45.7397 453.262 45.7786 451.642 45.9883 450.039Z" stroke="#FFD88B" stroke-width="0.45672"/>
<path d="M250.969 452.45L244.118 389.423L205.297 403.581L210.092 452.45L214.431 503.603H250.969L250.969 452.45Z" fill="url(#paint14_linear_1031_1222)"/>
<path d="M45.9883 450.039L52.752 398.329L10.277 392.392L5.48145 430.071L3.07242 448.231C2.7025 451.02 2.85098 453.853 3.51041 456.587L10.277 484.649L16.2144 507.941H50.2401L45.8723 454.874C45.7397 453.262 45.7786 451.642 45.9883 450.039Z" fill="url(#paint15_linear_1031_1222)"/>
<path d="M250.969 452.45L244.118 389.423L205.297 403.581L210.092 452.45L214.431 503.603H250.969L250.969 452.45Z" stroke="#FFD88B" stroke-width="0.45672"/>
<path d="M45.9883 450.039L52.752 398.329L10.277 392.392L5.48145 430.071L3.07242 448.231C2.7025 451.02 2.85098 453.853 3.51041 456.587L10.277 484.649L16.2144 507.941H50.2401L45.8723 454.874C45.7397 453.262 45.7786 451.642 45.9883 450.039Z" stroke="#FFD88B" stroke-width="0.45672"/>
<path d="M122.303 305.709L131.242 306.42C142.695 307.331 153.739 301.95 160.08 292.368H195.933H206.481C215.831 292.368 224.236 298.068 227.696 306.754L232.699 319.315L249.141 384.854C236.519 396.436 220.583 403.77 203.575 405.822L203.24 405.863V449.479L203.24 507.711H65.539C69.1741 485.446 69.6062 462.776 66.8223 440.389L65.539 430.069L61.3088 388.051L59.6016 408.603H56.2169C37.1266 408.603 18.1552 405.598 -0.000427246 399.697L2.76065 340.578C3.49573 324.839 8.25471 309.551 16.5829 296.175C18.0793 293.772 20.5977 292.19 23.4124 291.885L82.2093 285.517L99.1832 297.399C106.012 302.179 113.994 305.048 122.303 305.709Z" fill="#DCFFE6"/>
<path d="M65.539 337.127L61.3088 388.051M61.3088 388.051L59.6016 408.603H56.2169C37.1266 408.603 18.1552 405.598 -0.000424653 399.697V399.697L2.76065 340.578C3.49572 324.839 8.25471 309.551 16.5829 296.175V296.175C18.0793 293.772 20.5977 292.19 23.4124 291.885L82.2093 285.517L99.1832 297.399C106.012 302.179 113.994 305.048 122.303 305.709L131.242 306.42C142.695 307.331 153.739 301.95 160.08 292.368V292.368H195.933H206.481C215.831 292.368 224.236 298.068 227.696 306.754L232.699 319.315L249.141 384.854V384.854C236.519 396.436 220.583 403.77 203.575 405.822L203.24 405.863M61.3088 388.051L65.539 430.069L66.8223 440.389C69.6062 462.776 69.1741 485.446 65.539 507.711V507.711H203.24L203.24 449.479V405.863M192.736 331.874V331.874C199.647 345.998 203.24 361.514 203.24 377.238V392.618V405.863" stroke="#B18D74" stroke-width="0.274032"/>
<path d="M122.303 305.709L131.242 306.42C142.695 307.331 153.739 301.95 160.08 292.368H195.933H206.481C215.831 292.368 224.236 298.068 227.696 306.754L232.699 319.315L249.141 384.854C236.519 396.436 220.583 403.77 203.575 405.822L203.24 405.863V449.479L203.24 507.711H65.539C69.1741 485.446 69.6062 462.776 66.8223 440.389L65.539 430.069L61.3088 388.051L59.6016 408.603H56.2169C37.1266 408.603 18.1552 405.598 -0.000427246 399.697L2.76065 340.578C3.49573 324.839 8.25471 309.551 16.5829 296.175C18.0793 293.772 20.5977 292.19 23.4124 291.885L82.2093 285.517L99.1832 297.399C106.012 302.179 113.994 305.048 122.303 305.709Z" fill="url(#paint16_linear_1031_1222)"/>
<g style="mix-blend-mode:color-burn">
<path d="M122.303 305.709L131.242 306.42C142.695 307.331 153.739 301.95 160.08 292.368H195.933H206.481C215.831 292.368 224.236 298.068 227.696 306.754L232.699 319.315L249.141 384.854C236.519 396.436 220.583 403.77 203.575 405.822L203.24 405.863V449.479L203.24 507.711H65.539C69.1741 485.446 69.6062 462.776 66.8223 440.389L65.539 430.069L61.3088 388.051L59.6016 408.603H56.2169C37.1266 408.603 18.1552 405.598 -0.000427246 399.697L2.76065 340.578C3.49573 324.839 8.25471 309.551 16.5829 296.175C18.0793 293.772 20.5977 292.19 23.4124 291.885L82.2093 285.517L99.1832 297.399C106.012 302.179 113.994 305.048 122.303 305.709Z" fill="url(#paint17_linear_1031_1222)"/>
<path d="M65.539 337.127L61.3088 388.051M61.3088 388.051L59.6016 408.603H56.2169C37.1266 408.603 18.1552 405.598 -0.000424653 399.697V399.697L2.76065 340.578C3.49572 324.839 8.25471 309.551 16.5829 296.175V296.175C18.0793 293.772 20.5977 292.19 23.4124 291.885L82.2093 285.517L99.1832 297.399C106.012 302.179 113.994 305.048 122.303 305.709L131.242 306.42C142.695 307.331 153.739 301.95 160.08 292.368V292.368H195.933H206.481C215.831 292.368 224.236 298.068 227.696 306.754L232.699 319.315L249.141 384.854V384.854C236.519 396.436 220.583 403.77 203.575 405.822L203.24 405.863M61.3088 388.051L65.539 430.069L66.8223 440.389C69.6062 462.776 69.1741 485.446 65.539 507.711V507.711H203.24L203.24 449.479V405.863M192.736 331.874V331.874C199.647 345.998 203.24 361.514 203.24 377.238V392.618V405.863" stroke="#C7FFDF" stroke-width="0.577824"/>
</g>
<path d="M217.398 295.108L214.369 297.127C212.281 298.519 210.305 300.072 208.458 301.771L205.386 304.598C198.149 311.255 193.778 320.46 193.192 330.275V330.275" stroke="#7CB998" stroke-width="0.319704"/>
<path d="M20.0954 293.053V293.053C32.8549 291.476 45.5933 296.138 54.3203 305.579L54.6656 305.953C61.6564 313.516 65.5391 323.436 65.5391 333.735V337.583" stroke="#7CB998" stroke-width="0.319704"/>
<g style="mix-blend-mode:color-dodge" opacity="0.5">
<ellipse cx="196.176" cy="144.654" rx="51.7153" ry="39.8697" fill="#FF6636"/>
</g>
<g style="mix-blend-mode:screen" opacity="0.5">
<ellipse cx="224.484" cy="313.379" rx="75.4061" ry="39.8697" fill="#E3FF36"/>
</g>
<g style="mix-blend-mode:soft-light">
<rect x="-126.523" y="77.1759" width="506.962" height="551.257" fill="#003EDC"/>
</g>
<g style="mix-blend-mode:soft-light">
<rect x="-126.523" y="81.2769" width="507.782" height="547.155" fill="#FF7E36"/>
</g>
<g style="mix-blend-mode:color-burn" opacity="0.5">
<rect x="-126.523" y="81.2769" width="507.782" height="547.155" fill="#A2B0FF"/>
</g>
</g>
</g>
<defs>
<linearGradient id="paint0_linear_1031_1222" x1="111.682" y1="64.0938" x2="101.474" y2="171.185" gradientUnits="userSpaceOnUse">
<stop stop-color="#572908"/>
<stop offset="1" stop-color="#956645" stop-opacity="0"/>
</linearGradient>
<linearGradient id="paint1_linear_1031_1222" x1="177.207" y1="58.988" x2="161.451" y2="146.45" gradientUnits="userSpaceOnUse">
<stop stop-color="#572908"/>
<stop offset="1" stop-color="#956645" stop-opacity="0"/>
</linearGradient>
<linearGradient id="paint2_linear_1031_1222" x1="156.253" y1="208.634" x2="68.006" y2="234.589" gradientUnits="userSpaceOnUse">
<stop stop-color="#F0C380"/>
<stop offset="1" stop-color="#F8C99E" stop-opacity="0"/>
</linearGradient>
<linearGradient id="paint3_linear_1031_1222" x1="241.804" y1="171.145" x2="152.97" y2="241.63" gradientUnits="userSpaceOnUse">
<stop stop-color="#D9A557"/>
<stop offset="1" stop-color="#F8C99E" stop-opacity="0"/>
</linearGradient>
<linearGradient id="paint4_linear_1031_1222" x1="205.984" y1="145.533" x2="161.454" y2="240.074" gradientUnits="userSpaceOnUse">
<stop stop-color="#F0C380"/>
<stop offset="1" stop-color="#F8C99E" stop-opacity="0"/>
</linearGradient>
<linearGradient id="paint5_linear_1031_1222" x1="39.1966" y1="33.0408" x2="33.2707" y2="8.14028" gradientUnits="userSpaceOnUse">
<stop offset="0.229641" stop-color="#D9A557"/>
<stop offset="1" stop-color="#D9A557" stop-opacity="0"/>
</linearGradient>
<linearGradient id="paint6_linear_1031_1222" x1="157.612" y1="180.478" x2="132.542" y2="185.495" gradientUnits="userSpaceOnUse">
<stop stop-color="#80571A"/>
<stop offset="1" stop-color="#F8C99E"/>
</linearGradient>
<linearGradient id="paint7_linear_1031_1222" x1="201.535" y1="177.421" x2="214.205" y2="178.608" gradientUnits="userSpaceOnUse">
<stop stop-color="#80571A"/>
<stop offset="1" stop-color="#F8C99E"/>
</linearGradient>
<linearGradient id="paint8_linear_1031_1222" x1="178.808" y1="160.377" x2="239.552" y2="244.413" gradientUnits="userSpaceOnUse">
<stop stop-color="#FFE9D5"/>
<stop offset="0.723573" stop-color="#FFFDFB" stop-opacity="0"/>
</linearGradient>
<radialGradient id="paint9_radial_1031_1222" cx="0" cy="0" r="1" gradientUnits="userSpaceOnUse" gradientTransform="translate(232.7 255.376) rotate(-96.009) scale(4.3628 12.8501)">
<stop offset="0.302083" stop-color="#E9ABCC"/>
<stop offset="1" stop-color="#D13982"/>
</radialGradient>
<linearGradient id="paint10_linear_1031_1222" x1="230.644" y1="256.061" x2="196.959" y2="251.095" gradientUnits="userSpaceOnUse">
<stop offset="0.302083" stop-color="#E9ABCC"/>
<stop offset="1" stop-color="#9A054D"/>
</linearGradient>
<linearGradient id="paint11_linear_1031_1222" x1="156.659" y1="194.404" x2="147.068" y2="208.791" gradientUnits="userSpaceOnUse">
<stop stop-color="#2A0944"/>
<stop offset="1" stop-color="#D7ADF9"/>
</linearGradient>
<linearGradient id="paint12_linear_1031_1222" x1="235.665" y1="227.973" x2="222.192" y2="248.754" gradientUnits="userSpaceOnUse">
<stop stop-color="#530F00"/>
<stop offset="1" stop-color="#B0896D" stop-opacity="0"/>
</linearGradient>
<linearGradient id="paint13_linear_1031_1222" x1="205.069" y1="257.658" x2="205.069" y2="287.344" gradientUnits="userSpaceOnUse">
<stop stop-color="#F8D29C"/>
<stop offset="1" stop-color="#FFF2DF"/>
</linearGradient>
<linearGradient id="paint14_linear_1031_1222" x1="200.958" y1="320.002" x2="104.603" y2="579.096" gradientUnits="userSpaceOnUse">
<stop stop-color="#F0C380"/>
<stop offset="1" stop-color="#F8C99E" stop-opacity="0"/>
</linearGradient>
<linearGradient id="paint15_linear_1031_1222" x1="200.958" y1="320.002" x2="104.603" y2="579.096" gradientUnits="userSpaceOnUse">
<stop stop-color="#F0C380"/>
<stop offset="1" stop-color="#F8C99E" stop-opacity="0"/>
</linearGradient>
<linearGradient id="paint16_linear_1031_1222" x1="198.901" y1="285.517" x2="27.6321" y2="517.074" gradientUnits="userSpaceOnUse">
<stop stop-color="#3AC4BB"/>
<stop offset="1" stop-color="#DCFFE6" stop-opacity="0"/>
</linearGradient>
<linearGradient id="paint17_linear_1031_1222" x1="198.901" y1="285.517" x2="27.6321" y2="517.074" gradientUnits="userSpaceOnUse">
<stop stop-color="#3AC4BB"/>
<stop offset="1" stop-color="#DCFFE6" stop-opacity="0"/>
</linearGradient>
<clipPath id="clip0_1031_1222">
<rect width="257" height="491" fill="white"/>
</clipPath>
</defs>
</svg>
