<svg width="321" height="491" viewBox="0 0 321 491" fill="none" xmlns="http://www.w3.org/2000/svg">
<g clip-path="url(#clip0_1031_328)">
<path fill-rule="evenodd" clip-rule="evenodd" d="M69.687 211.956L56.7472 215.722C56.0479 215.926 55.4844 215.132 55.9067 214.539L77.4219 184.314L86.3099 155.816C87.111 153.248 88.8305 151.064 91.1397 149.683L97.5433 145.854C128.375 127.416 166.871 127.522 197.599 146.132C199.266 147.141 200.59 148.628 201.399 150.401L212.361 174.407L240.083 199.977C240.631 200.482 240.209 201.394 239.468 201.304L231.357 200.308L232.563 200.654L212.405 202.173C213.109 205.3 213.466 208.498 213.466 211.71V222.101L214.886 233.109C215.497 237.841 215.278 242.625 214.257 247.251V315.092C214.257 316.733 214.24 318.374 214.204 320.014L222.217 320.78L223.587 319.381L252.589 316.982C259.01 316.451 265.432 317.99 270.915 321.373C274.412 323.531 277.431 326.38 279.787 329.746L280.133 330.24C282.944 334.256 284.828 338.846 285.648 343.678L289.68 367.438C291.612 378.823 294.943 389.926 299.599 400.495L303.407 409.141C300.717 411.33 297.942 413.402 295.091 415.353L300.913 444.56C304.12 460.645 309.391 476.248 316.597 490.982C322.405 502.858 326.96 515.307 330.189 528.127L335.273 548.316L294.925 555.333L279.136 520.248L262.178 474.344L252.329 434.145L245.808 435.748L247.251 428.652C248.112 424.42 248.308 420.095 247.845 415.831L247.046 411.062C246.854 410.221 246.637 409.386 246.393 408.557C246.29 408.145 245.689 408.201 245.663 408.624L241.422 479.02L232.651 536.035L58.976 529.31L59.9892 527.689C66.1207 517.878 71.2594 507.481 75.3291 496.652C82.6894 477.066 86.4599 456.314 86.4599 435.391V432.519L75.0628 448.036C71.7659 452.525 67.4823 456.196 62.5422 458.768L59.4419 460.382C56.1328 462.105 52.6399 463.2 49.1105 463.699C47.5794 466.403 46.0186 469.091 44.4284 471.762L42.8917 474.344L8.39062 460.31L14.9566 444.252C11.7179 436.485 11.6108 427.626 14.9127 419.627L16.339 416.172C13.4887 414.284 10.7374 412.23 8.10156 410.019L17.898 401.686C28.1489 392.967 35.9569 381.733 40.5559 369.085L44.6493 353.589L49.2152 340.032L49.2773 339.768C49.7533 337.743 50.4253 335.781 51.278 333.907L51.2857 333.885C54.0316 325.732 60.1587 319.274 67.9451 316.045C76.957 289.836 81.5577 262.311 81.5577 234.593V229.672L81.7195 229.877C81.5161 226.852 81.5029 223.814 81.6814 220.78L81.8371 218.134C81.9591 216.06 82.1909 213.998 82.5303 211.956H69.687ZM117.457 282.591L123.668 284.879L123.589 284.881L131.604 299.129C133.214 301.992 133.644 305.37 132.801 308.545C131.335 314.072 126.332 317.92 120.614 317.92H117.44C117.451 316.98 117.457 316.04 117.457 315.099V282.591Z" fill="#3D3AA9"/>
<mask id="mask0_1031_328" style="mask-type:alpha" maskUnits="userSpaceOnUse" x="0" y="127" width="328" height="424">
<path fill-rule="evenodd" clip-rule="evenodd" d="M61.5854 207.096L48.6456 210.863C47.9463 211.066 47.3828 210.273 47.8052 209.68L69.3204 179.455L78.2084 150.957C79.0095 148.388 80.7289 146.205 83.0381 144.824L89.4417 140.994C120.273 122.556 158.769 122.663 189.498 141.272C191.164 142.282 192.488 143.769 193.297 145.541L204.26 169.548L231.981 195.117C232.529 195.623 232.107 196.535 231.367 196.444L223.255 195.449L224.461 195.795L204.304 197.314C205.008 200.441 205.364 203.639 205.364 206.85V217.241L206.785 228.25C207.395 232.982 207.177 237.766 206.156 242.392V310.233C206.156 311.874 206.138 313.515 206.103 315.155L214.115 315.921L215.485 314.521L244.487 312.123C250.908 311.592 257.33 313.13 262.814 316.514C266.31 318.671 269.33 321.52 271.686 324.887L272.032 325.381C274.843 329.396 276.726 333.986 277.546 338.819L281.578 362.578C283.51 373.964 286.842 385.067 291.497 395.636L295.306 404.282C292.615 406.47 289.841 408.542 286.99 410.494L292.812 439.7C296.018 455.786 301.29 471.389 308.495 486.123C314.303 497.999 318.858 510.448 322.087 523.267L327.172 543.457L286.823 550.474L271.035 515.388L254.076 469.485L244.228 429.285L237.706 430.889L239.15 423.792C240.01 419.56 240.206 415.236 239.744 410.971L238.944 406.202C238.753 405.362 238.535 404.527 238.291 403.697C238.188 403.286 237.587 403.342 237.561 403.765L233.321 474.161L224.549 531.175L50.8744 524.45L51.8876 522.829C58.0192 513.019 63.1578 502.622 67.2275 491.793C74.5878 472.207 78.3583 451.455 78.3583 430.532V427.659L66.9612 443.177C63.6644 447.665 59.3808 451.337 54.4406 453.909L51.3403 455.523C48.0312 457.245 44.5384 458.34 41.0089 458.839C39.4778 461.543 37.917 464.231 36.3269 466.903L34.7901 469.485L0.289062 455.45L6.85508 439.393C3.61634 431.626 3.50927 422.766 6.81119 414.768L8.23744 411.313C5.38711 409.424 2.63587 407.371 0 405.159L9.79644 396.827C20.0473 388.108 27.8554 376.873 32.4544 364.226L36.5477 348.73L41.1136 335.173L41.1757 334.909C41.6517 332.883 42.3238 330.921 43.1764 329.048L43.1842 329.025C45.93 320.872 52.0572 314.415 59.8435 311.186C68.8555 284.977 73.4561 257.452 73.4561 229.733V224.812L73.6179 225.018C73.4145 221.993 73.4014 218.954 73.5798 215.921L73.7355 213.275C73.8575 211.201 74.0893 209.138 74.4287 207.096H61.5854ZM109.356 277.732L115.566 280.019L115.487 280.022L123.502 294.27C125.112 297.133 125.542 300.511 124.7 303.685C123.233 309.213 118.231 313.061 112.512 313.061H109.338C109.35 312.121 109.356 311.18 109.356 310.24V277.732Z" fill="#D9D9D9"/>
</mask>
<g mask="url(#mask0_1031_328)">
<path d="M73.8982 207.096H55.4688L58.0028 201.791L153.145 175.499L223.867 195.795L73.8982 207.096Z" fill="#BBCCDB"/>
<path d="M73.4483 229.733V224.812L109.348 270.402V310.239C109.348 321.733 108.484 333.211 106.764 344.575L103.029 369.26C99.9239 389.776 91.8846 409.232 79.6014 425.956L66.9534 443.176C63.6565 447.665 59.3729 451.337 54.4328 453.908L51.3325 455.522C37.7095 462.614 20.9726 459.071 11.3911 447.068C4.10174 437.937 2.34494 425.567 6.80337 414.767L11.2331 404.037C12.2065 401.679 13.3528 399.396 14.6624 397.206L37.9182 358.332C46.7004 343.652 53.9557 328.111 59.5706 311.952C68.7574 285.513 73.4483 257.722 73.4483 229.733Z" fill="white" stroke="#F4EBF0" stroke-width="0.512063"/>
<path d="M170.188 229.717V224.812L206.148 226.193V310.233C206.148 321.731 205.282 333.213 203.559 344.582L199.824 369.221C196.71 389.762 188.65 409.239 176.339 425.973L163.691 443.164C160.383 447.661 156.087 451.338 151.134 453.912L147.99 455.546C134.366 462.626 117.638 459.087 108.049 447.095C100.736 437.949 98.9739 425.55 103.449 414.728L107.87 404.035C108.845 401.678 109.992 399.397 111.303 397.209L134.607 358.32C143.398 343.648 150.663 328.114 156.285 311.96C165.489 285.517 170.188 257.716 170.188 229.717Z" fill="white" stroke="#F4EBF0" stroke-width="0.512063"/>
<path d="M73.4483 229.733V224.812L109.348 270.402V310.239C109.348 321.733 108.484 333.211 106.764 344.575L103.029 369.26C99.9239 389.776 91.8846 409.232 79.6014 425.956L66.9534 443.176C63.6565 447.665 59.3729 451.337 54.4328 453.908L51.3325 455.522C37.7095 462.614 20.9726 459.071 11.3911 447.068C4.10174 437.937 2.34494 425.567 6.80337 414.767L11.2331 404.037C12.2065 401.679 13.3528 399.396 14.6624 397.206L37.9182 358.332C46.7004 343.652 53.9557 328.111 59.5706 311.952C68.7574 285.513 73.4483 257.722 73.4483 229.733Z" fill="url(#paint0_linear_1031_328)" stroke="#F4EBF0" stroke-width="0.512063"/>
<path d="M170.188 229.717V224.812L206.148 226.193V310.233C206.148 321.731 205.282 333.213 203.559 344.582L199.824 369.221C196.71 389.762 188.65 409.239 176.339 425.973L163.691 443.164C160.383 447.661 156.087 451.338 151.134 453.912L147.99 455.546C134.366 462.626 117.638 459.087 108.049 447.095C100.736 437.949 98.9739 425.55 103.449 414.728L107.87 404.035C108.845 401.678 109.992 399.397 111.303 397.209L134.607 358.32C143.398 343.648 150.663 328.114 156.285 311.96C165.489 285.517 170.188 257.716 170.188 229.717Z" fill="url(#paint1_linear_1031_328)" stroke="#F4EBF0" stroke-width="0.512063"/>
<path d="M79.755 240.201V222.62L102.775 269.831L101.164 324.181L93.4786 374.958C91.2648 389.584 85.7449 403.513 77.3386 415.685L67.6287 429.744C65.1596 433.319 61.8685 436.249 58.0319 438.288L50.5232 442.279C38.6378 448.596 23.9885 441.984 20.8633 428.892C20.081 425.615 20.1158 422.195 20.9646 418.935L23.328 409.855C24.7202 404.507 26.8675 399.384 29.705 394.642L43.8524 370.997C57.1183 348.825 66.8748 324.734 72.776 299.58L72.9876 298.678C77.4842 279.51 79.755 259.889 79.755 240.201Z" fill="#FFF7FD" stroke="#F4EBF0" stroke-width="0.81972"/>
<path d="M175.414 240.222V222.62L200.488 245.65L196.807 324.181L189.126 374.97C186.915 389.588 181.401 403.51 173.003 415.679L163.294 429.748C160.828 433.321 157.541 436.249 153.709 438.287L146.221 442.27C134.338 448.59 119.687 441.979 116.564 428.887C115.783 425.613 115.818 422.197 116.665 418.94L119.028 409.857C120.42 404.507 122.566 399.384 125.402 394.64L139.538 370.996C152.794 348.825 162.543 324.737 168.439 299.586L168.656 298.658C173.146 279.504 175.414 259.896 175.414 240.222Z" fill="#FFF7FD" stroke="#F4EBF0" stroke-width="0.81972"/>
<path d="M123.502 294.266L115.487 280.018L175.718 277.971V292.906C175.718 296.719 176.743 300.462 178.685 303.743C182.149 309.596 188.201 313.44 194.971 314.087L217.714 316.261C221.868 316.658 226.052 316.632 230.201 316.182L249.15 314.129C255.417 313.45 261.66 315.606 266.172 320.009C269.334 323.093 271.449 327.092 272.219 331.441L280.098 375.919L292.812 439.696C296.018 455.782 301.29 471.385 308.495 486.119C314.303 497.995 318.858 510.444 322.087 523.263L327.172 543.453L286.823 550.47L271.035 515.384L254.076 469.481L239.75 411.005L230.978 358.668L234.195 386.737C234.195 430.115 230.27 473.404 222.468 516.075L219.868 530.296L82.4483 521.817L84.0439 515.622C92.8389 481.477 94.9774 445.958 90.3427 411.005L84.495 381.474L81.5712 366.709L80.9063 363.657C80.5775 362.147 78.355 362.386 78.355 363.931C77.3823 371.324 75.7539 378.615 73.4889 385.718L70.4607 395.216C61.319 420.112 49.8923 444.109 36.3269 466.899L34.7901 469.481L0.289062 455.446L29.8196 383.228L42.4546 334.175C43.9413 328.403 47.0445 323.175 51.3994 319.106C58.4468 312.521 68.1356 309.551 77.6628 311.055L87.4291 312.597C89.3685 312.903 91.3289 313.057 93.2923 313.057H112.512C118.231 313.057 123.233 309.209 124.7 303.681C125.542 300.507 125.112 297.129 123.502 294.266Z" fill="white" stroke="#F4EBF0" stroke-width="0.81972"/>
<path d="M123.502 294.266L115.487 280.018L175.718 277.971V292.906C175.718 296.719 176.743 300.462 178.685 303.743C182.149 309.596 188.201 313.44 194.971 314.087L217.714 316.261C221.868 316.658 226.052 316.632 230.201 316.182L249.15 314.129C255.417 313.45 261.66 315.606 266.172 320.009C269.334 323.093 271.449 327.092 272.219 331.441L280.098 375.919L292.812 439.696C296.018 455.782 301.29 471.385 308.495 486.119C314.303 497.995 318.858 510.444 322.087 523.263L327.172 543.453L286.823 550.47L271.035 515.384L254.076 469.481L239.75 411.005L230.978 358.668L234.195 386.737C234.195 430.115 230.27 473.404 222.468 516.075L219.868 530.296L82.4483 521.817L84.0439 515.622C92.8389 481.477 94.9774 445.958 90.3427 411.005L84.495 381.474L81.5712 366.709L80.9063 363.657C80.5775 362.147 78.355 362.386 78.355 363.931C77.3823 371.324 75.7539 378.615 73.4889 385.718L70.4607 395.216C61.319 420.112 49.8923 444.109 36.3269 466.899L34.7901 469.481L0.289062 455.446L25.4369 393.947C28.3542 386.812 30.7054 379.459 32.4687 371.956L41.1757 334.905C42.7252 328.311 46.3526 322.391 51.523 318.016C58.5351 312.082 67.7825 309.495 76.8557 310.928L87.4291 312.597C89.3685 312.903 91.3289 313.057 93.2923 313.057H112.512C118.231 313.057 123.233 309.209 124.7 303.681C125.542 300.507 125.112 297.129 123.502 294.266Z" fill="url(#paint2_linear_1031_328)"/>
<path d="M123.502 294.266L115.487 280.018L175.718 277.971V292.906C175.718 296.719 176.743 300.462 178.685 303.743C182.149 309.596 188.201 313.44 194.971 314.087L217.714 316.261C221.868 316.658 226.052 316.632 230.201 316.182L249.15 314.129C255.417 313.45 261.66 315.606 266.172 320.009C269.334 323.093 271.449 327.092 272.219 331.441L280.098 375.919L292.812 439.696C296.018 455.782 301.29 471.385 308.495 486.119C314.303 497.995 318.858 510.444 322.087 523.263L327.172 543.453L286.823 550.47L271.035 515.384L254.076 469.481L239.75 411.005L230.978 358.668L234.195 386.737C234.195 430.115 230.27 473.404 222.468 516.075L219.868 530.296L82.4483 521.817L84.0439 515.622C92.8389 481.477 94.9774 445.958 90.3427 411.005L84.495 381.474L81.5712 366.709L80.9063 363.657C80.5775 362.147 78.355 362.386 78.355 363.931C77.3823 371.324 75.7539 378.615 73.4889 385.718L70.4607 395.216C61.319 420.112 49.8923 444.109 36.3269 466.899L34.7901 469.481L0.289062 455.446L25.4563 393.899C28.3614 386.795 30.7496 379.49 32.6023 372.041L41.8323 334.933C43.3417 328.864 46.5987 323.372 51.1995 319.136C58.3798 312.526 68.1874 309.559 77.8278 311.081L87.4291 312.597C89.3685 312.903 91.3289 313.057 93.2923 313.057H112.512C118.231 313.057 123.233 309.209 124.7 303.681C125.542 300.507 125.112 297.129 123.502 294.266Z" fill="url(#paint3_linear_1031_328)"/>
<g style="mix-blend-mode:color-burn">
<path d="M123.502 294.266L115.487 280.018L175.718 277.971V292.906C175.718 296.719 176.743 300.462 178.685 303.743C182.149 309.596 188.201 313.44 194.971 314.087L217.714 316.261C221.868 316.658 226.052 316.632 230.201 316.182L249.15 314.129C255.417 313.45 261.66 315.606 266.172 320.009C269.334 323.093 271.449 327.092 272.219 331.441L280.098 375.919L292.812 439.696C296.018 455.782 301.29 471.385 308.495 486.119C314.303 497.995 318.858 510.444 322.087 523.263L327.172 543.453L286.823 550.47L271.035 515.384L254.076 469.481L239.75 411.005L230.978 358.668L234.195 386.737C234.195 430.115 230.27 473.404 222.468 516.075L219.868 530.296L82.4483 521.817L84.0439 515.622C92.8389 481.477 94.9774 445.958 90.3427 411.005L84.495 381.474L81.5712 366.709L80.9063 363.657C80.5775 362.147 78.355 362.386 78.355 363.931C77.3823 371.324 75.7539 378.615 73.4889 385.718L70.4607 395.216C61.319 420.112 49.8923 444.109 36.3269 466.899L34.7901 469.481L0.289062 455.446L25.4369 393.947C28.3542 386.812 30.7054 379.459 32.4687 371.956L41.1757 334.905C42.7252 328.311 46.3526 322.391 51.523 318.016C58.5351 312.082 67.7825 309.495 76.8557 310.928L87.4291 312.597C89.3685 312.903 91.3289 313.057 93.2923 313.057H112.512C118.231 313.057 123.233 309.209 124.7 303.681C125.542 300.507 125.112 297.129 123.502 294.266Z" fill="url(#paint4_linear_1031_328)"/>
</g>
<path d="M177.862 277.096L160.566 287.459C159.186 288.286 157.569 288.624 155.974 288.42L138.592 286.198C132.234 285.386 125.987 283.857 119.972 281.641L105.942 276.473C95.1094 272.482 86.1531 264.597 80.8224 254.356C78.8845 250.634 77.4606 246.665 76.5896 242.56L75.0212 235.167C73.6798 228.844 73.1924 222.369 73.572 215.916L73.7277 213.27C74.1721 205.716 76.0726 198.319 79.3246 191.486L79.5288 191.057C83.0702 183.616 88.1946 177.038 94.5436 171.784C101.553 165.984 109.859 161.96 118.756 160.053L124.822 158.754L137.117 157.115C142.9 156.344 148.761 156.35 154.543 157.134L159.007 157.739C173.696 159.73 186.95 167.592 195.74 179.528L196.899 181.102C199.836 185.089 202.069 189.55 203.501 194.291C204.731 198.363 205.356 202.593 205.356 206.846V217.237L206.777 228.245C207.682 235.259 206.765 242.388 204.114 248.944C202.159 253.782 199.302 258.203 195.695 261.973L192.103 265.728C187.885 270.137 183.095 273.961 177.862 277.096Z" fill="white" stroke="#F4EBF0" stroke-width="0.81972"/>
<path d="M177.862 277.096L160.566 287.459C159.186 288.286 157.569 288.624 155.974 288.42L138.592 286.198C132.234 285.386 125.987 283.857 119.972 281.641L105.942 276.473C95.1094 272.482 86.1531 264.597 80.8224 254.356C78.8845 250.634 77.4606 246.665 76.5896 242.56L75.0212 235.167C73.6798 228.844 73.1924 222.369 73.572 215.916L73.7277 213.27C74.1721 205.716 76.0726 198.319 79.3246 191.486L79.5288 191.057C83.0702 183.616 88.1946 177.038 94.5436 171.784C101.553 165.984 109.859 161.96 118.756 160.053L124.822 158.754L137.117 157.115C142.9 156.344 148.761 156.35 154.543 157.134L159.007 157.739C173.696 159.73 186.95 167.592 195.74 179.528L196.899 181.102C199.836 185.089 202.069 189.55 203.501 194.291C204.731 198.363 205.356 202.593 205.356 206.846V217.237L206.777 228.245C207.682 235.259 206.765 242.388 204.114 248.944C202.159 253.782 199.302 258.203 195.695 261.973L192.103 265.728C187.885 270.137 183.095 273.961 177.862 277.096Z" fill="url(#paint5_linear_1031_328)"/>
<path d="M177.862 277.096L160.566 287.459C159.186 288.286 157.569 288.624 155.974 288.42L138.592 286.198C132.234 285.386 125.987 283.857 119.972 281.641L105.942 276.473C95.1094 272.482 86.1531 264.597 80.8224 254.356C78.8845 250.634 77.4606 246.665 76.5896 242.56L75.0212 235.167C73.6798 228.844 73.1924 222.369 73.572 215.916L73.7277 213.27C74.1721 205.716 76.0726 198.319 79.3246 191.486L79.5288 191.057C83.0702 183.616 88.1946 177.038 94.5436 171.784C101.553 165.984 109.859 161.96 118.756 160.053L124.822 158.754L137.117 157.115C142.9 156.344 148.761 156.35 154.543 157.134L159.007 157.739C173.696 159.73 186.95 167.592 195.74 179.528L196.899 181.102C199.836 185.089 202.069 189.55 203.501 194.291C204.731 198.363 205.356 202.593 205.356 206.846V217.237L206.777 228.245C207.682 235.259 206.765 242.388 204.114 248.944C202.159 253.782 199.302 258.203 195.695 261.973L192.103 265.728C187.885 270.137 183.095 273.961 177.862 277.096Z" fill="url(#paint6_linear_1031_328)"/>
<g style="mix-blend-mode:soft-light">
<path d="M177.862 277.096L160.566 287.459C159.186 288.286 157.569 288.624 155.974 288.42L138.592 286.198C132.234 285.386 125.987 283.857 119.972 281.641L105.942 276.473C95.1094 272.482 86.1531 264.597 80.8224 254.356C78.8845 250.634 77.4606 246.665 76.5896 242.56L75.0212 235.167C73.6798 228.844 73.1924 222.369 73.572 215.916L73.7277 213.27C74.1721 205.716 76.0726 198.319 79.3246 191.486L79.5288 191.057C83.0702 183.616 88.1946 177.038 94.5436 171.784C101.553 165.984 109.859 161.96 118.756 160.053L124.822 158.754L137.117 157.115C142.9 156.344 148.761 156.35 154.543 157.134L159.007 157.739C173.696 159.73 186.95 167.592 195.74 179.528L196.899 181.102C199.836 185.089 202.069 189.55 203.501 194.291C204.731 198.363 205.356 202.593 205.356 206.846V217.237L206.777 228.245C207.682 235.259 206.765 242.388 204.114 248.944C202.159 253.782 199.302 258.203 195.695 261.973L192.103 265.728C187.885 270.137 183.095 273.961 177.862 277.096Z" fill="#40B1F0"/>
</g>
<path d="M206.125 224.174C207.295 230.021 208.401 240.794 201.135 245.033C184.31 254.848 173.094 239.122 173.094 227.506C173.094 215.891 182.196 206.475 193.423 206.475C204.651 206.475 204.956 212.479 206.125 224.174Z" fill="url(#paint7_radial_1031_328)"/>
<ellipse cx="94.1431" cy="232.069" rx="20.1743" ry="25.7295" fill="url(#paint8_radial_1031_328)"/>
<path d="M119.562 215.382L114.9 214.313C113.97 214.1 113.021 213.979 112.068 213.953L99.568 213.603L110.033 206.831C111.923 205.609 114.139 204.988 116.389 205.051L119.124 205.127C120.903 205.177 122.555 206.062 123.583 207.515L124.225 208.423C125.603 210.372 125.213 213.059 123.337 214.535C122.272 215.374 120.884 215.685 119.562 215.382Z" fill="url(#paint9_linear_1031_328)"/>
<path d="M165.003 203.076L167.153 202.308C168.074 201.979 169.052 201.84 170.029 201.901L174.182 202.158C178.022 202.396 181.77 203.437 185.182 205.214L187.169 206.248L180.948 206.986C179.047 207.211 177.211 207.824 175.556 208.785C173.84 209.782 171.932 210.403 169.958 210.607L167.993 210.811C167.992 210.811 167.991 210.811 167.991 210.811L165.507 210.298C163.675 209.919 162.399 208.251 162.515 206.384C162.608 204.883 163.587 203.582 165.003 203.076Z" fill="url(#paint10_linear_1031_328)"/>
<path d="M146.407 255.685L147.652 255.269C150.218 254.411 152.054 252.202 152.475 249.591L154.132 251.901C154.96 253.056 156.131 253.92 157.479 254.37C159.029 254.889 160.715 254.827 162.223 254.197L163.549 253.643C166.061 252.594 168.95 253.744 170.053 256.232C170.449 257.126 170.575 258.116 170.414 259.08L170.184 260.467C169.642 263.725 167.48 266.483 164.446 267.787L161.836 268.908C160.462 269.499 159.007 269.879 157.519 270.036L153.585 270.451C148.959 270.94 144.282 270.55 139.8 269.301L135.27 268.04C134.497 267.824 133.763 267.487 133.096 267.041L131.713 266.117C128.024 263.651 127.903 258.27 131.478 255.642C133.075 254.468 135.126 254.1 137.031 254.646L141.064 255.801C142.816 256.303 144.678 256.262 146.407 255.685Z" fill="url(#paint11_radial_1031_328)" stroke="#E9ABCC" stroke-width="0.81972"/>
<path d="M153.569 241.13L153.569 241.13L153.572 241.135L154.892 243.116C155.94 244.688 155.636 246.796 154.188 248.009C153.313 248.742 152.15 249.03 151.035 248.791L149.824 248.532C149.264 248.412 148.73 248.192 148.249 247.882C146.352 246.664 145.569 244.283 146.373 242.178L149.297 234.517L153.569 241.13Z" fill="url(#paint12_radial_1031_328)" stroke="#E9ABCC" stroke-width="0.81972"/>
<path d="M164.544 235.691L164.198 236.683L174.647 234.525L182.952 232.191C184.348 231.798 185.773 231.516 187.214 231.347L196.005 230.317C197.512 230.141 198.89 229.384 199.847 228.207C200.979 226.816 201.407 224.981 201.008 223.233L200.494 220.982C200 218.821 198.839 216.871 197.175 215.406L196.767 215.047C193.531 212.199 189.038 211.262 184.934 212.579L183.552 213.022C181.086 213.813 178.87 215.238 177.126 217.154L172.66 222.061C169.064 226.011 166.304 230.647 164.544 235.691Z" fill="white" stroke="black" stroke-width="0.256031"/>
<path d="M178.342 218.177L176.979 217.179L174.255 220.375L171.332 223.591L168.7 227.099L166.227 231.491L164.198 236.683L174.84 234.409L185.658 231.485L184.584 226.814C183.464 223.35 181.279 220.327 178.342 218.177Z" fill="url(#paint13_linear_1031_328)"/>
<path d="M164.544 235.691L164.198 236.683L174.647 234.525L182.952 232.191C184.348 231.798 185.773 231.516 187.214 231.347L196.005 230.317C197.512 230.141 198.89 229.384 199.847 228.207C200.979 226.816 201.407 224.981 201.008 223.233L200.494 220.982C200 218.821 198.839 216.871 197.175 215.406L196.767 215.047C193.531 212.199 189.038 211.262 184.934 212.579L183.552 213.022C181.086 213.813 178.87 215.238 177.126 217.154L172.66 222.061C169.064 226.011 166.304 230.647 164.544 235.691Z" stroke="#F4EBF0" stroke-width="0.256031"/>
<path d="M126.611 234.809L129.566 240.167C121.257 238.807 112.815 238.454 104.421 239.115L103.854 239.159L97.9976 239.621C93.6524 239.963 89.6193 237.343 88.1653 233.234C87.1094 230.251 87.5874 226.939 89.4436 224.375L90.425 223.02C93.4933 218.783 98.829 216.836 103.905 218.102L110.984 219.867C111.807 220.072 112.59 220.41 113.303 220.867L113.952 221.283C119.232 224.668 123.583 229.317 126.611 234.809Z" fill="white" stroke="#E9ABCC" stroke-width="0.256031"/>
<path d="M109.67 222.869L112.842 220.611L115.78 222.422L118.704 224.761L121.628 227.684L123.967 230.608L126.891 235.286L129.522 240.257L123.382 239.38L117.004 238.819L110.81 238.795L104.67 239.087L104.286 234.465C104.134 232.626 104.377 230.775 104.999 229.038C105.89 226.553 107.52 224.4 109.67 222.869Z" fill="url(#paint14_linear_1031_328)"/>
<path d="M126.611 234.809L129.566 240.167C121.257 238.807 112.815 238.454 104.421 239.115L103.854 239.159L97.9976 239.621C93.6524 239.963 89.6193 237.343 88.1653 233.234C87.1094 230.251 87.5874 226.939 89.4436 224.375L90.425 223.02C93.4933 218.783 98.829 216.836 103.905 218.102L110.984 219.867C111.807 220.072 112.59 220.41 113.303 220.867L113.952 221.283C119.232 224.668 123.583 229.317 126.611 234.809Z" stroke="#F4EBF0" stroke-width="0.256031"/>
<g style="mix-blend-mode:multiply">
<path d="M204.326 169.471L139.603 175.893L69.3516 179.334" stroke="#C2DBEA" stroke-width="0.256031"/>
</g>
<path d="M97.1755 196.732L48.6378 210.86C47.9385 211.064 47.375 210.271 47.7974 209.677L69.3126 179.452L78.2006 150.954C79.0017 148.386 80.7211 146.202 83.0303 144.821L89.4339 140.992C120.265 122.554 158.761 122.661 189.49 141.27C191.156 142.279 192.48 143.766 193.29 145.539L204.252 169.545L231.973 195.115C232.522 195.621 232.099 196.533 231.359 196.442L184.909 190.742L183.231 190.512C154.426 186.562 125.113 188.681 97.1755 196.732Z" fill="#D6FDFF"/>
<path d="M204.252 169.545L231.973 195.115C232.522 195.621 232.099 196.533 231.359 196.442L184.909 190.742L183.231 190.512C154.426 186.562 125.113 188.681 97.1755 196.732V196.732L48.6378 210.86C47.9385 211.064 47.375 210.271 47.7974 209.677L69.3126 179.452M204.252 169.545L193.29 145.539C192.48 143.766 191.156 142.279 189.49 141.27V141.27C158.761 122.661 120.265 122.554 89.4339 140.992L83.0303 144.821C80.7211 146.202 79.0017 148.386 78.2006 150.954L69.3126 179.452M204.252 169.545L139.546 175.996L69.3126 179.452" stroke="#C2DBEA" stroke-width="0.256031"/>
<g style="mix-blend-mode:multiply">
<path d="M97.1755 196.732L48.6378 210.86C47.9385 211.064 47.375 210.271 47.7974 209.677L69.3126 179.452L78.2006 150.954C79.0017 148.386 80.7211 146.202 83.0303 144.821L89.4339 140.992C120.265 122.554 158.761 122.661 189.49 141.27C191.156 142.279 192.48 143.766 193.29 145.539L204.252 169.545L231.973 195.115C232.522 195.621 232.099 196.533 231.359 196.442L184.909 190.742L183.231 190.512C154.426 186.562 125.113 188.681 97.1755 196.732Z" fill="url(#paint15_linear_1031_328)"/>
</g>
<ellipse cx="108.073" cy="224.721" rx="2.55703" ry="2.28305" fill="white"/>
<ellipse cx="172.38" cy="223.153" rx="2.46571" ry="2.28305" fill="white"/>
<mask id="mask1_1031_328" style="mask-type:alpha" maskUnits="userSpaceOnUse" x="47" y="127" width="186" height="84">
<g style="mix-blend-mode:multiply">
<path d="M97.1833 196.734L48.6456 210.862C47.9463 211.066 47.3828 210.273 47.8052 209.679L69.3204 179.454L78.2084 150.957C79.0095 148.388 80.7289 146.205 83.0381 144.824L89.4417 140.994C120.273 122.556 158.769 122.663 189.498 141.272C191.164 142.281 192.488 143.769 193.297 145.541L204.26 169.547L231.981 195.117C232.529 195.623 232.107 196.535 231.367 196.444L184.917 190.744L183.239 190.514C154.434 186.564 125.121 188.683 97.1833 196.734Z" fill="url(#paint16_linear_1031_328)"/>
</g>
</mask>
<g mask="url(#mask1_1031_328)">
<g style="mix-blend-mode:lighten">
<path d="M241.214 160.144C241.214 172.887 226.168 184.016 203.789 189.991C192.704 192.95 176.895 188.505 163.148 188.505C142.947 188.505 127.531 190.985 114.028 185.03C99.7909 178.752 90.9297 169.923 90.9297 160.144C90.9297 141.09 124.572 125.644 166.072 125.644C207.572 125.644 241.214 141.09 241.214 160.144Z" fill="#96CDF5"/>
</g>
<g style="mix-blend-mode:soft-light" filter="url(#filter0_f_1031_328)">
<ellipse cx="165.197" cy="148.743" rx="65.4935" ry="37.7171" fill="#FFC1C1"/>
</g>
</g>
<mask id="mask2_1031_328" style="mask-type:alpha" maskUnits="userSpaceOnUse" x="-2" y="308" width="298" height="224">
<path d="M112.256 326.733L100.58 311.309L73.6251 309.042C70.7542 308.8 67.8633 308.98 65.0445 309.577C54.83 311.737 46.5175 319.135 43.1851 329.029L36.5487 348.734L25.0564 372.101C21.0421 380.264 15.9138 387.829 9.81844 394.581L1.14341 404.19C0.38597 405.029 -0.491689 405.751 -1.46094 406.333C9.84028 431.841 39.6874 443.349 65.1881 432.031L73.6812 428.261L71.7401 406.632C71.6718 405.871 71.8683 405.11 72.2963 404.477L77.3764 396.968C77.6733 396.529 78.3593 396.739 78.3593 397.269V430.536C78.3593 451.459 74.5888 472.211 67.2285 491.796C63.1588 502.626 58.0201 513.023 51.8886 522.833L50.8754 524.454L224.55 531.179L233.322 474.165L237.565 403.719C237.59 403.304 238.179 403.25 238.28 403.653C238.288 403.685 238.292 403.718 238.291 403.751L238.073 411.482C237.844 419.601 241.649 427.307 248.233 432.062L273.67 422.706L291.506 407.21L295.014 403.994L291.304 395.439C286.777 385.002 283.526 374.056 281.623 362.84L277.547 338.823C276.727 333.99 274.844 329.4 272.033 325.385L271.687 324.891C269.331 321.524 266.311 318.675 262.814 316.517C257.331 313.134 250.909 311.595 244.488 312.127L215.486 314.525L203.14 327.134C193.293 337.19 180.559 343.93 166.706 346.416L163.901 346.919C157.225 348.118 150.381 348.024 143.74 346.643C131.183 344.032 119.998 336.959 112.256 326.733Z" fill="#96CDF5" stroke="#81ABCA" stroke-width="0.81972"/>
</mask>
<g mask="url(#mask2_1031_328)">
<path d="M112.255 326.733L100.579 311.309L73.6242 309.042C70.7532 308.8 67.8623 308.98 65.0436 309.577C54.8291 311.737 46.5165 319.135 43.1842 329.029L36.5477 348.734L32.4544 364.23C27.8554 376.877 20.0473 388.111 9.79644 396.831L0 405.163C16.3486 418.881 37.1351 426.507 58.4764 426.507L71.3412 405.163L77.3265 396.933C77.6515 396.486 78.3583 396.716 78.3583 397.269V430.536C78.3583 451.459 74.5878 472.211 67.2275 491.796C63.1578 502.626 58.0192 513.023 51.8876 522.833L50.8744 524.454L224.549 531.179L233.321 474.165L237.561 403.769C237.587 403.345 238.188 403.29 238.291 403.701C240.211 410.229 240.506 417.128 239.15 423.796L237.706 430.893L245.929 428.871C264.003 424.426 280.866 416.03 295.306 404.286L291.497 395.64C286.842 385.071 283.51 373.968 281.578 362.582L277.546 338.823C276.726 333.99 274.843 329.4 272.032 325.385L271.686 324.891C269.33 321.524 266.31 318.675 262.814 316.517C257.33 313.134 250.908 311.595 244.487 312.127L215.485 314.525L203.139 327.134C193.292 337.19 180.558 343.93 166.705 346.416L163.9 346.919C157.224 348.118 150.38 348.024 143.739 346.643C131.182 344.032 119.997 336.959 112.255 326.733Z" fill="#FFFBED" stroke="#F9E8C3" stroke-width="0.256031"/>
<g style="mix-blend-mode:multiply" opacity="0.7">
<path d="M112.255 326.733L100.579 311.309L73.6242 309.042C70.7532 308.8 67.8623 308.98 65.0436 309.577C54.8291 311.737 46.5165 319.135 43.1842 329.029L36.5477 348.734L32.4544 364.23C27.8554 376.877 20.0473 388.111 9.79644 396.831L0 405.163C16.3486 418.881 37.1351 426.507 58.4764 426.507L71.3412 405.163L77.3265 396.933C77.6515 396.486 78.3583 396.716 78.3583 397.269V430.536C78.3583 451.459 74.5878 472.211 67.2275 491.796C63.1578 502.626 58.0192 513.023 51.8876 522.833L50.8744 524.454L224.549 531.179L233.321 474.165L237.561 403.769C237.587 403.345 238.188 403.29 238.291 403.701C240.211 410.229 240.506 417.128 239.15 423.796L237.706 430.893L245.929 428.871C264.003 424.426 280.866 416.03 295.306 404.286L291.497 395.64C286.842 385.071 283.51 373.968 281.578 362.582L277.546 338.823C276.726 333.99 274.843 329.4 272.032 325.385L271.686 324.891C269.33 321.524 266.31 318.675 262.814 316.517C257.33 313.134 250.908 311.595 244.487 312.127L215.485 314.525L203.139 327.134C193.292 337.19 180.558 343.93 166.705 346.416L163.9 346.919C157.224 348.118 150.38 348.024 143.739 346.643C131.182 344.032 119.997 336.959 112.255 326.733Z" fill="url(#paint17_linear_1031_328)"/>
</g>
<path d="M63.7422 309.846L65.7407 313.071C72.9061 324.634 77.5823 337.563 79.4708 351.034V351.034C80.4822 358.249 80.6848 365.554 80.0747 372.814L78.0689 396.683" stroke="#F9E8C3" stroke-width="0.254113"/>
<path d="M261.683 316.28L259.488 320.463C254.723 329.548 250.75 339.026 247.613 348.793V348.793C243.943 360.225 241.436 371.998 240.13 383.933L238 403.409" stroke="#F9E8C3" stroke-width="0.254113"/>
<g style="mix-blend-mode:color-burn" filter="url(#filter1_f_1031_328)">
<path d="M100.578 306.63L112.254 322.054C119.995 332.279 131.18 339.353 143.737 341.964V341.964C150.379 343.345 157.223 343.439 163.899 342.24L166.704 341.737C180.557 339.25 193.291 332.511 203.138 322.455L215.484 309.846" stroke="url(#paint18_linear_1031_328)" stroke-width="5.73804"/>
</g>
<g style="mix-blend-mode:soft-light">
<path d="M279.808 351.145C279.808 374.172 264.762 394.284 242.383 405.082C231.297 410.43 215.489 402.397 201.742 402.397C181.541 402.397 166.125 406.879 152.622 396.118C138.385 384.772 129.523 368.817 129.523 351.145C129.523 316.711 163.166 288.797 204.666 288.797C246.165 288.797 279.808 316.711 279.808 351.145Z" fill="url(#paint19_radial_1031_328)"/>
</g>
<g style="mix-blend-mode:overlay" opacity="0.8" filter="url(#filter2_f_1031_328)">
<path d="M337.706 371.095C337.706 410.994 322.661 445.841 300.281 464.55C289.196 473.817 273.387 459.898 259.64 459.898C239.439 459.898 224.023 467.663 210.52 449.018C196.283 429.36 187.422 401.715 187.422 371.095C187.422 311.432 221.064 263.066 262.564 263.066C304.064 263.066 337.706 311.432 337.706 371.095Z" fill="#EE96F5"/>
</g>
<g style="mix-blend-mode:color-burn" filter="url(#filter3_f_1031_328)">
<path d="M150.581 348.705C150.581 366.945 135.536 382.875 113.156 391.427C102.071 395.664 86.2622 389.301 72.5152 389.301C52.3139 389.301 36.8984 392.851 23.395 384.327C9.15813 375.341 0.296875 362.703 0.296875 348.705C0.296875 321.431 33.9391 299.321 75.439 299.321C116.939 299.321 150.581 321.431 150.581 348.705Z" fill="url(#paint20_linear_1031_328)"/>
</g>
<g style="mix-blend-mode:lighten">
<path d="M316.651 344.953C316.651 359.431 301.606 372.076 279.227 378.864C268.141 382.227 252.333 377.176 238.585 377.176C218.384 377.176 202.969 379.994 189.465 373.228C175.228 366.095 166.367 356.064 166.367 344.953C166.367 323.304 200.009 305.754 241.509 305.754C283.009 305.754 316.651 323.304 316.651 344.953Z" fill="#96CDF5"/>
</g>
</g>
<g style="mix-blend-mode:soft-light" opacity="0.8">
<rect x="-34.2109" y="98.7462" width="518.89" height="564.227" fill="#003EDC"/>
</g>
<g style="mix-blend-mode:color-burn" opacity="0.5">
<rect x="-34.2109" y="102.946" width="519.729" height="560.029" fill="url(#paint21_linear_1031_328)"/>
</g>
<g style="mix-blend-mode:saturation">
<rect x="-34.2109" y="102.946" width="519.729" height="560.029" fill="#3656FF"/>
</g>
<g style="mix-blend-mode:color-burn" opacity="0.5">
<rect x="-34.2109" y="102.946" width="519.729" height="560.029" fill="#A2B0FF"/>
</g>
</g>
</g>
<defs>
<filter id="filter0_f_1031_328" x="17.7311" y="29.0536" width="294.928" height="239.378" filterUnits="userSpaceOnUse" color-interpolation-filters="sRGB">
<feFlood flood-opacity="0" result="BackgroundImageFix"/>
<feBlend mode="normal" in="SourceGraphic" in2="BackgroundImageFix" result="shape"/>
<feGaussianBlur stdDeviation="40.986" result="effect1_foregroundBlur_1031_328"/>
</filter>
<filter id="filter1_f_1031_328" x="73.6975" y="280.306" width="168.425" height="90.2284" filterUnits="userSpaceOnUse" color-interpolation-filters="sRGB">
<feFlood flood-opacity="0" result="BackgroundImageFix"/>
<feBlend mode="normal" in="SourceGraphic" in2="BackgroundImageFix" result="shape"/>
<feGaussianBlur stdDeviation="12.2958" result="effect1_foregroundBlur_1031_328"/>
</filter>
<filter id="filter2_f_1031_328" x="105.45" y="181.094" width="314.225" height="368.61" filterUnits="userSpaceOnUse" color-interpolation-filters="sRGB">
<feFlood flood-opacity="0" result="BackgroundImageFix"/>
<feBlend mode="normal" in="SourceGraphic" in2="BackgroundImageFix" result="shape"/>
<feGaussianBlur stdDeviation="40.986" result="effect1_foregroundBlur_1031_328"/>
</filter>
<filter id="filter3_f_1031_328" x="-81.6752" y="217.349" width="314.225" height="257.506" filterUnits="userSpaceOnUse" color-interpolation-filters="sRGB">
<feFlood flood-opacity="0" result="BackgroundImageFix"/>
<feBlend mode="normal" in="SourceGraphic" in2="BackgroundImageFix" result="shape"/>
<feGaussianBlur stdDeviation="40.986" result="effect1_foregroundBlur_1031_328"/>
</filter>
<linearGradient id="paint0_linear_1031_328" x1="54.463" y1="224.812" x2="54.463" y2="467.729" gradientUnits="userSpaceOnUse">
<stop stop-color="#FDDBF0"/>
<stop offset="1" stop-color="white" stop-opacity="0"/>
</linearGradient>
<linearGradient id="paint1_linear_1031_328" x1="151.171" y1="224.812" x2="151.171" y2="467.729" gradientUnits="userSpaceOnUse">
<stop stop-color="#FDDBF0"/>
<stop offset="1" stop-color="white" stop-opacity="0"/>
</linearGradient>
<linearGradient id="paint2_linear_1031_328" x1="154.082" y1="277.679" x2="154.082" y2="438.196" gradientUnits="userSpaceOnUse">
<stop stop-color="#FEECF6"/>
<stop offset="1" stop-color="white" stop-opacity="0"/>
</linearGradient>
<linearGradient id="paint3_linear_1031_328" x1="63.4435" y1="298.438" x2="169.87" y2="435.273" gradientUnits="userSpaceOnUse">
<stop stop-color="#FEECF6"/>
<stop offset="1" stop-color="white" stop-opacity="0"/>
</linearGradient>
<linearGradient id="paint4_linear_1031_328" x1="150.087" y1="278.326" x2="170.336" y2="401.473" gradientUnits="userSpaceOnUse">
<stop stop-color="#F3766F"/>
<stop offset="1" stop-color="#FFD6DB" stop-opacity="0"/>
</linearGradient>
<linearGradient id="paint5_linear_1031_328" x1="72.7697" y1="216.675" x2="177.531" y2="259.505" gradientUnits="userSpaceOnUse">
<stop stop-color="#FFD9D9"/>
<stop offset="1" stop-color="#FEF5F5" stop-opacity="0"/>
</linearGradient>
<linearGradient id="paint6_linear_1031_328" x1="134.938" y1="156.126" x2="146.448" y2="215.524" gradientUnits="userSpaceOnUse">
<stop stop-color="#F3766F"/>
<stop offset="1" stop-color="#FFD6DB" stop-opacity="0"/>
</linearGradient>
<radialGradient id="paint7_radial_1031_328" cx="0" cy="0" r="1" gradientUnits="userSpaceOnUse" gradientTransform="translate(193.423 227.506) rotate(90) scale(21.0316 20.3297)">
<stop stop-color="#FFC1C1"/>
<stop offset="1" stop-color="#FFEEEE" stop-opacity="0"/>
</radialGradient>
<radialGradient id="paint8_radial_1031_328" cx="0" cy="0" r="1" gradientUnits="userSpaceOnUse" gradientTransform="translate(94.1431 232.069) rotate(90) scale(25.7295 20.1743)">
<stop stop-color="#FFC1C1"/>
<stop offset="1" stop-color="#FFEEEE" stop-opacity="0"/>
</radialGradient>
<linearGradient id="paint9_linear_1031_328" x1="124.596" y1="210.473" x2="97.6581" y2="213.697" gradientUnits="userSpaceOnUse">
<stop stop-color="#0A0033" stop-opacity="0.72"/>
<stop offset="1"/>
</linearGradient>
<linearGradient id="paint10_linear_1031_328" x1="185.17" y1="207.239" x2="160.66" y2="209.599" gradientUnits="userSpaceOnUse">
<stop/>
<stop offset="1" stop-color="#0A0033" stop-opacity="0.72"/>
</linearGradient>
<radialGradient id="paint11_radial_1031_328" cx="0" cy="0" r="1" gradientUnits="userSpaceOnUse" gradientTransform="translate(151.884 261.359) rotate(84.6711) scale(16.1317 33.1543)">
<stop offset="0.302083" stop-color="#E9ABCC"/>
<stop offset="1" stop-color="#D13982"/>
</radialGradient>
<radialGradient id="paint12_radial_1031_328" cx="0" cy="0" r="1" gradientUnits="userSpaceOnUse" gradientTransform="translate(152.128 242.384) rotate(87.8843) scale(10.8841 8.92446)">
<stop offset="0.302083" stop-color="#E9ABCC"/>
<stop offset="1" stop-color="#D13982"/>
</radialGradient>
<linearGradient id="paint13_linear_1031_328" x1="177.173" y1="217.237" x2="163.812" y2="233.685" gradientUnits="userSpaceOnUse">
<stop/>
<stop offset="1" stop-color="#C3C2F7"/>
</linearGradient>
<linearGradient id="paint14_linear_1031_328" x1="113.073" y1="221.533" x2="127.584" y2="239.096" gradientUnits="userSpaceOnUse">
<stop/>
<stop offset="1" stop-color="#C3C2F7"/>
</linearGradient>
<linearGradient id="paint15_linear_1031_328" x1="135.401" y1="130.607" x2="211.894" y2="207.749" gradientUnits="userSpaceOnUse">
<stop stop-color="#8983CF"/>
<stop offset="1" stop-color="#D6FDFF" stop-opacity="0"/>
</linearGradient>
<linearGradient id="paint16_linear_1031_328" x1="135.408" y1="130.61" x2="211.902" y2="207.751" gradientUnits="userSpaceOnUse">
<stop stop-color="#8983CF"/>
<stop offset="1" stop-color="#D6FDFF" stop-opacity="0"/>
</linearGradient>
<linearGradient id="paint17_linear_1031_328" x1="81.3792" y1="308.678" x2="294.85" y2="410.821" gradientUnits="userSpaceOnUse">
<stop stop-color="#FFF5D0"/>
<stop offset="1" stop-color="#F4FFD6" stop-opacity="0"/>
</linearGradient>
<linearGradient id="paint18_linear_1031_328" x1="118.121" y1="310.723" x2="200.28" y2="366.276" gradientUnits="userSpaceOnUse">
<stop stop-color="#B04B4B"/>
<stop offset="0.462669" stop-color="#E22C2C"/>
<stop offset="1" stop-color="#DE1F1F" stop-opacity="0"/>
</linearGradient>
<radialGradient id="paint19_radial_1031_328" cx="0" cy="0" r="1" gradientUnits="userSpaceOnUse" gradientTransform="translate(204.666 347.858) rotate(90) scale(59.0609 75.1421)">
<stop stop-color="#EE96F5"/>
<stop offset="1" stop-color="#F7FBFF" stop-opacity="0"/>
</radialGradient>
<linearGradient id="paint20_linear_1031_328" x1="123.39" y1="357.137" x2="76.1578" y2="304.833" gradientUnits="userSpaceOnUse">
<stop stop-color="#559DD0"/>
<stop offset="1" stop-color="#C7E7FE" stop-opacity="0"/>
</linearGradient>
<linearGradient id="paint21_linear_1031_328" x1="225.654" y1="102.946" x2="210.885" y2="663.04" gradientUnits="userSpaceOnUse">
<stop stop-color="#DB3A3A" stop-opacity="0.43"/>
<stop offset="0.995878" stop-color="#712121"/>
</linearGradient>
<clipPath id="clip0_1031_328">
<rect width="321" height="491" fill="white"/>
</clipPath>
</defs>
</svg>
