<svg width="349" height="491" viewBox="0 0 349 491" fill="none" xmlns="http://www.w3.org/2000/svg">
<g clip-path="url(#clip0_1031_626)">
<path d="M163.436 279.951L166.728 270.572C172.787 253.314 177.072 235.485 179.52 217.359L249.058 255.661C238.584 267.109 231.432 281.199 228.374 296.411L226.71 304.686L191.393 319.577L163.436 279.951Z" fill="#3D3AA9"/>
<path d="M49.8336 489.203L9.0063 407.138C7.43484 403.979 7.29203 400.299 8.61401 397.028C18.5512 372.44 30.8452 348.872 45.3242 326.654L48.3533 322.006L90.4294 351.279L56.6617 408.249C56.4347 408.632 56.4733 409.117 56.7582 409.459L59.6494 412.933C68.5518 423.629 74.7498 436.311 77.7201 449.906C79.9299 460.021 83.9327 469.658 89.5389 478.362L93.2995 484.201L62.0657 511.671L49.8336 489.203Z" fill="#3D3AA9"/>
<path d="M285.964 527.099L347.093 458.8C349.446 456.171 350.56 452.66 350.153 449.156C347.092 422.813 341.489 396.829 333.421 371.566L331.733 366.281L290.447 380.83L300.942 447.296C301.005 447.696 300.835 448.096 300.503 448.327L296.727 450.957C285.306 458.909 275.967 469.493 269.498 481.814C264.684 490.98 258.269 499.211 250.555 506.116L245.381 510.749L268.211 545.519L285.964 527.099Z" fill="#3D3AA9"/>
<path d="M251.988 290.518L233.352 288.001C232.505 287.887 231.655 288.199 231.083 288.835C221.243 299.764 209.613 308.935 196.69 315.955L192.004 318.501L187.242 311.894C178.627 299.94 171.421 287.032 165.766 273.425L165.353 272.43C164.825 271.16 163.662 270.265 162.298 270.081L158.593 269.581C151.348 268.603 144.238 266.802 137.401 264.214L122.349 258.517C113.496 255.166 103.821 254.647 94.6599 257.032C81.6925 260.407 70.8599 269.304 65.0281 281.368L57.5314 296.876L26.5585 349.824C40.9467 359.378 57.315 365.542 74.4307 367.853L82.4961 368.942L100.616 339.238L115.47 314.876C109.911 336.707 107.046 359.138 106.939 381.666L106.704 431.192L102.196 464.584L237.62 487.726C239.778 471.742 244.023 456.111 250.247 441.232L255.386 428.946C265.022 405.912 271.594 381.713 274.935 356.969L276.404 346.088C281.044 363.032 284.287 380.328 286.102 397.801L288.101 417.057L297.703 414.811C314.647 410.848 331.05 404.855 346.558 396.962L331.952 344.104L328.923 327.567C326.936 316.716 320.851 307.046 311.929 300.559C305.193 295.661 297.177 292.827 288.859 292.402L251.988 290.518Z" fill="#3D3AA9"/>
<path d="M262.705 131.369L263.779 131.773C267.104 133.024 270.323 134.541 273.404 136.309C278.028 138.964 282.315 142.169 286.169 145.854L289.616 149.15C292.446 151.856 294.836 154.987 296.7 158.43C298.151 161.111 299.271 163.959 300.036 166.911L300.313 167.984C301.383 172.116 301.881 176.374 301.794 180.641L301.431 198.43L299.223 214.786L295.331 237.585C293.692 247.182 286.071 254.639 276.44 256.068C274.156 256.406 271.834 256.392 269.555 256.025L238.523 251.024C215.031 247.239 193.643 235.245 178.162 217.175L163.656 199.003C161.374 196.144 159.976 192.682 159.633 189.04C159.177 184.204 160.612 179.379 163.637 175.577L168.395 169.597L192.593 146.265L203.306 137.977C207.844 134.465 212.909 131.692 218.312 129.76C226.527 126.822 235.327 125.898 243.972 127.065L247.557 127.549C252.734 128.248 257.815 129.53 262.705 131.369Z" fill="#3D3AA9"/>
<path d="M256.027 154.724L256.897 161.858C256.997 162.677 257.874 163.154 258.616 162.792L266.356 159.017C270.977 156.763 276.162 155.928 281.258 156.615L282.559 156.791C284.644 157.073 286.666 157.709 288.536 158.673C292.951 160.948 296.261 164.91 297.716 169.659L298.9 173.525C299.694 176.116 300.107 178.808 300.128 181.517L300.207 191.791C300.216 193.022 300.139 194.252 299.974 195.471L299.23 200.978C298.581 205.785 295.666 209.99 291.392 212.284C291.161 212.408 291.082 212.701 291.221 212.923L291.26 212.987C293.403 216.434 294.279 220.521 293.736 224.543L293.134 228.996L291.631 240.134C290.939 245.254 288.406 249.946 284.505 253.332C280.955 256.414 276.483 258.231 271.79 258.499L250.126 259.735L232.182 260.191C225.966 260.349 219.794 259.107 214.123 256.555C210.581 254.961 207.28 252.877 204.317 250.364L201.389 247.88C195.975 243.287 191.306 237.882 187.549 231.857L172.058 207.01C169.106 202.275 167.455 196.845 167.273 191.267L167.17 188.111C166.953 181.469 169.463 175.027 174.116 170.282L177.658 166.671C180.803 163.464 185.277 161.929 189.729 162.53C189.962 162.562 190.177 162.398 190.209 162.164L190.347 161.139C191.003 156.282 192.911 151.679 195.882 147.782C198.985 143.714 203.133 140.564 207.885 138.668L217.81 134.708C222.73 132.746 228.072 132.087 233.321 132.796L234.538 132.96C238.041 133.433 241.404 134.643 244.406 136.51C250.836 140.51 255.109 147.207 256.027 154.724Z" fill="#3D3AA9"/>
<mask id="mask0_1031_626" style="mask-type:alpha" maskUnits="userSpaceOnUse" x="0" y="120" width="344" height="421">
<path d="M156.147 274.283L159.439 264.904C165.497 247.646 169.783 229.817 172.231 211.692L241.769 249.993C231.295 261.441 224.143 275.531 221.085 290.744L219.421 299.018L184.103 313.909L156.147 274.283Z" fill="#D9D9D9" stroke="#C2DEFF" stroke-width="0.638895"/>
<path d="M42.5446 483.535L1.71723 401.47C0.145778 398.311 0.00296857 394.631 1.32495 391.36C11.2621 366.772 23.5562 343.204 38.0351 320.986L41.0642 316.338L83.1404 345.611L49.3727 402.581C49.1456 402.964 49.1842 403.449 49.4691 403.791L52.3603 407.265C61.2627 417.961 67.4607 430.643 70.4311 444.239C72.6409 454.353 76.6436 463.99 82.2498 472.694L86.0104 478.533L54.7767 506.003L42.5446 483.535Z" fill="#D9D9D9" stroke="#C2DEFF" stroke-width="0.638895"/>
<path d="M278.675 521.431L339.804 453.132C342.157 450.503 343.271 446.992 342.864 443.488C339.803 417.145 334.2 391.161 326.131 365.898L324.444 360.613L283.158 375.162L293.653 441.628C293.716 442.028 293.546 442.428 293.214 442.659L289.438 445.289C278.017 453.241 268.678 463.825 262.209 476.146C257.395 485.312 250.98 493.543 243.266 500.449L238.092 505.081L260.922 539.851L278.675 521.431Z" fill="#D9D9D9" stroke="#C2DEFF" stroke-width="0.638895"/>
<path d="M244.699 284.85L226.063 282.334C225.216 282.219 224.366 282.531 223.794 283.167C213.954 294.096 202.323 303.267 189.401 310.287L184.714 312.833L179.953 306.226C171.338 294.272 164.132 281.364 158.477 267.757L158.064 266.762C157.536 265.492 156.372 264.597 155.009 264.413L151.304 263.913C144.059 262.935 136.949 261.134 130.112 258.546L115.06 252.849C106.207 249.498 96.5315 248.979 87.3708 251.364C74.4034 254.739 63.5708 263.636 57.739 275.7L50.2424 291.208L19.2694 344.157C33.6576 353.71 50.0259 359.874 67.1416 362.185L75.207 363.274L93.3269 333.57L108.181 309.208C102.622 331.039 99.757 353.47 99.6502 375.998L99.4153 425.524L94.9068 458.916L230.331 482.058C232.489 466.074 236.734 450.443 242.958 435.564L248.097 423.278C257.733 400.244 264.305 376.045 267.646 351.301L269.115 340.42C273.754 357.364 276.998 374.66 278.813 392.133L280.812 411.389L290.414 409.143C307.358 405.18 323.761 399.187 339.269 391.294L324.663 338.437L321.634 321.899C319.647 311.048 313.562 301.378 304.64 294.892C297.904 289.993 289.888 287.159 281.57 286.734L244.699 284.85Z" fill="#D9D9D9" stroke="#EA4050" stroke-width="0.638895"/>
<path d="M255.415 125.701L256.49 126.105C259.815 127.356 263.033 128.873 266.114 130.641C270.739 133.296 275.026 136.501 278.88 140.186L282.327 143.483C285.157 146.188 287.547 149.319 289.41 152.762C290.862 155.443 291.982 158.291 292.747 161.243L293.024 162.316C294.094 166.448 294.592 170.707 294.505 174.973L294.142 192.762L291.934 209.118L288.042 231.917C286.403 241.514 278.782 248.971 269.151 250.4C266.867 250.739 264.545 250.724 262.265 250.357L231.233 245.356C207.742 241.571 186.354 229.577 170.872 211.508L156.367 193.335C154.085 190.477 152.687 187.014 152.344 183.372C151.888 178.536 153.323 173.711 156.348 169.909L161.105 163.929L185.304 140.597L196.016 132.309C200.555 128.798 205.62 126.024 211.023 124.092C219.238 121.154 228.037 120.23 236.683 121.397L240.268 121.881C245.445 122.58 250.526 123.862 255.415 125.701Z" fill="#D9D9D9" stroke="#071457" stroke-width="0.638895"/>
<path d="M248.737 149.056L249.608 156.19C249.708 157.01 250.585 157.486 251.327 157.124L259.067 153.349C263.688 151.095 268.873 150.26 273.969 150.948L275.27 151.123C277.355 151.405 279.377 152.041 281.247 153.005C285.662 155.28 288.972 159.242 290.427 163.991L291.611 167.858C292.405 170.448 292.818 173.14 292.839 175.849L292.918 186.123C292.927 187.354 292.849 188.584 292.685 189.803L291.941 195.31C291.292 200.117 288.377 204.322 284.102 206.616C283.872 206.74 283.793 207.033 283.932 207.256L283.971 207.319C286.114 210.766 286.99 214.853 286.447 218.876L285.845 223.328L284.341 234.466C283.65 239.586 281.117 244.278 277.216 247.664C273.666 250.746 269.194 252.563 264.501 252.831L242.837 254.067L224.893 254.523C218.677 254.681 212.505 253.439 206.834 250.887C203.292 249.294 199.991 247.21 197.028 244.697L194.1 242.212C188.686 237.619 184.017 232.214 180.26 226.189L164.769 201.342C161.817 196.607 160.166 191.177 159.984 185.599L159.881 182.443C159.664 175.801 162.174 169.359 166.827 164.614L170.369 161.003C173.514 157.796 177.988 156.261 182.44 156.862C182.673 156.894 182.888 156.73 182.92 156.496L183.058 155.471C183.714 150.614 185.622 146.011 188.593 142.114C191.696 138.046 195.844 134.896 200.596 133L210.521 129.04C215.441 127.078 220.783 126.419 226.032 127.128L227.249 127.292C230.752 127.765 234.115 128.975 237.117 130.842C243.547 134.842 247.82 141.539 248.737 149.056Z" fill="#D9D9D9"/>
</mask>
<g mask="url(#mask0_1031_626)">
<path d="M156.139 274.279L159.431 264.899C165.49 247.642 169.776 229.812 172.223 211.687L241.761 249.988C231.287 261.437 224.135 275.526 221.077 290.739L219.413 299.013L184.096 313.905L156.139 274.279Z" fill="#FFE4D5" stroke="#C2DEFF" stroke-width="0.638895"/>
<path d="M156.139 274.279L159.431 264.899C165.49 247.642 169.776 229.812 172.223 211.687L241.761 249.988C231.287 261.437 224.135 275.526 221.077 290.739L219.413 299.013L184.096 313.905L156.139 274.279Z" fill="url(#paint0_linear_1031_626)" stroke="#C2DEFF" stroke-width="0.638895"/>
<path d="M42.5367 483.532L1.70942 401.467C0.137966 398.308 -0.00484393 394.628 1.31713 391.357C11.2543 366.769 23.5484 343.201 38.0273 320.983L41.0564 316.335L83.1326 345.608L49.3649 402.578C49.1378 402.961 49.1764 403.446 49.4613 403.788L52.3525 407.262C61.2549 417.958 67.4529 430.64 70.4233 444.235C72.6331 454.35 76.6358 463.987 82.242 472.691L86.0026 478.53L54.7689 506L42.5367 483.532Z" fill="#FFE4D4" stroke="#C2DEFF" stroke-width="0.638895"/>
<path d="M278.667 521.426L339.796 453.127C342.149 450.498 343.263 446.987 342.856 443.483C339.795 417.14 334.192 391.156 326.124 365.893L324.436 360.608L283.15 375.157L293.645 441.623C293.708 442.023 293.538 442.423 293.206 442.655L289.43 445.284C278.01 453.236 268.67 463.82 262.201 476.141C257.388 485.308 250.972 493.538 243.259 500.444L238.084 505.076L260.914 539.846L278.667 521.426Z" fill="#FFE4D4" stroke="#C2DEFF" stroke-width="0.638895"/>
<path d="M42.5367 483.532L1.70942 401.467C0.137966 398.308 -0.00484393 394.628 1.31713 391.357C11.2543 366.769 23.5484 343.201 38.0273 320.983L41.0564 316.335L83.1326 345.608L49.3649 402.578C49.1378 402.961 49.1764 403.446 49.4613 403.788L52.3525 407.262C61.2549 417.958 67.4529 430.64 70.4233 444.235C72.6331 454.35 76.6358 463.987 82.242 472.691L86.0026 478.53L54.7689 506L42.5367 483.532Z" fill="url(#paint1_linear_1031_626)" stroke="#C2DEFF" stroke-width="0.638895"/>
<path d="M278.667 521.426L339.796 453.127C342.149 450.498 343.263 446.987 342.856 443.483C339.795 417.14 334.192 391.156 326.124 365.893L324.436 360.608L283.15 375.157L293.645 441.623C293.708 442.023 293.538 442.423 293.206 442.655L289.43 445.284C278.01 453.236 268.67 463.82 262.201 476.141C257.388 485.308 250.972 493.538 243.259 500.444L238.084 505.076L260.914 539.846L278.667 521.426Z" fill="url(#paint2_linear_1031_626)" stroke="#C2DEFF" stroke-width="0.638895"/>
<path d="M42.5367 483.532L1.70942 401.467C0.137966 398.308 -0.00484393 394.628 1.31713 391.357C11.2543 366.769 23.5484 343.201 38.0273 320.983L41.0564 316.335L83.1326 345.608L49.3649 402.578C49.1378 402.961 49.1764 403.446 49.4613 403.788L52.3525 407.262C61.2549 417.958 67.4529 430.64 70.4233 444.235C72.6331 454.35 76.6358 463.987 82.242 472.691L86.0026 478.53L54.7689 506L42.5367 483.532Z" fill="url(#paint3_linear_1031_626)" stroke="#C2DEFF" stroke-width="0.638895"/>
<path d="M278.667 521.426L339.796 453.127C342.149 450.498 343.263 446.987 342.856 443.483C339.795 417.14 334.192 391.156 326.124 365.893L324.436 360.608L283.15 375.157L293.645 441.623C293.708 442.023 293.538 442.423 293.206 442.655L289.43 445.284C278.01 453.236 268.67 463.82 262.201 476.141C257.388 485.308 250.972 493.538 243.259 500.444L238.084 505.076L260.914 539.846L278.667 521.426Z" fill="url(#paint4_linear_1031_626)" stroke="#C2DEFF" stroke-width="0.638895"/>
<path d="M244.691 284.851L226.056 282.335C225.208 282.22 224.358 282.532 223.786 283.168C213.947 294.097 202.316 303.268 189.393 310.288L184.707 312.835L179.945 306.227C171.33 294.273 164.124 281.365 158.469 267.759L158.056 266.764C157.528 265.493 156.365 264.599 155.001 264.414L151.296 263.914C144.051 262.936 136.941 261.136 130.104 258.548L115.052 252.851C106.199 249.5 96.5237 248.981 87.363 251.365C74.3956 254.741 63.563 263.637 57.7312 275.701L50.2346 291.209L19.2616 344.158C33.6498 353.711 50.0181 359.875 67.1338 362.186L75.1992 363.275L93.3191 333.571L108.173 309.209C102.614 331.041 99.7491 353.471 99.6423 375.999L99.4075 425.525L94.8989 458.917L230.323 482.059C232.481 466.076 236.726 450.444 242.95 435.565L248.089 423.279C257.725 400.245 264.297 376.046 267.638 351.302L269.107 340.421C273.747 357.365 276.99 374.661 278.805 392.135L280.804 411.39L290.407 409.144C307.35 405.181 323.753 399.188 339.261 391.295L324.655 338.438L321.626 321.9C319.639 311.05 313.554 301.38 304.633 294.893C297.896 289.995 289.88 287.161 281.562 286.735L244.691 284.851Z" fill="#FFCB9A" stroke="#EA4050" stroke-width="0.638895"/>
<path d="M244.691 284.851L226.056 282.335C225.208 282.22 224.358 282.532 223.786 283.168C213.947 294.097 202.316 303.268 189.393 310.288L184.707 312.835L179.945 306.227C171.33 294.273 164.124 281.365 158.469 267.759L158.056 266.764C157.528 265.493 156.365 264.599 155.001 264.414L151.296 263.914C144.051 262.936 136.941 261.136 130.104 258.548L115.052 252.851C106.199 249.5 96.5237 248.981 87.363 251.365C74.3956 254.741 63.563 263.637 57.7312 275.701L50.2346 291.209L19.2616 344.158C33.6498 353.711 50.0181 359.875 67.1338 362.186L75.1992 363.275L93.3191 333.571L108.173 309.209C102.614 331.041 99.7491 353.471 99.6423 375.999L99.4075 425.525L94.8989 458.917L230.323 482.059C232.481 466.076 236.726 450.444 242.95 435.565L248.089 423.279C257.725 400.245 264.297 376.046 267.638 351.302L269.107 340.421C273.747 357.365 276.99 374.661 278.805 392.135L280.804 411.39L290.407 409.144C307.35 405.181 323.753 399.188 339.261 391.295L324.655 338.438L321.626 321.9C319.639 311.05 313.554 301.38 304.633 294.893C297.896 289.995 289.88 287.161 281.562 286.735L244.691 284.851Z" fill="url(#paint5_linear_1031_626)" stroke="#EA4050" stroke-width="0.638895"/>
<path d="M255.408 125.702L256.482 126.106C259.807 127.357 263.026 128.874 266.107 130.642C270.732 133.297 275.018 136.502 278.872 140.187L282.319 143.483C285.149 146.189 287.539 149.32 289.403 152.763C290.854 155.444 291.975 158.292 292.739 161.244L293.017 162.317C294.086 166.449 294.584 170.708 294.497 174.974L294.134 192.763L291.926 209.119L288.034 231.918C286.395 241.515 278.774 248.972 269.143 250.401C266.859 250.74 264.537 250.725 262.258 250.358L231.226 245.357C207.734 241.572 186.346 229.578 170.865 211.509L156.359 193.336C154.077 190.478 152.679 187.015 152.336 183.373C151.88 178.537 153.315 173.712 156.34 169.91L161.098 163.93L185.296 140.598L196.009 132.31C200.547 128.798 205.612 126.025 211.015 124.093C219.23 121.155 228.03 120.231 236.676 121.398L240.26 121.882C245.437 122.581 250.518 123.863 255.408 125.702Z" fill="#BED8FF" stroke="black" stroke-width="0.638895"/>
<path d="M255.408 125.702L256.482 126.106C259.807 127.357 263.026 128.874 266.107 130.642C270.732 133.297 275.018 136.502 278.872 140.187L282.319 143.483C285.149 146.189 287.539 149.32 289.403 152.763C290.854 155.444 291.975 158.292 292.739 161.244L293.017 162.317C294.086 166.449 294.584 170.708 294.497 174.974L294.134 192.763L291.926 209.119L288.034 231.918C286.395 241.515 278.774 248.972 269.143 250.401C266.859 250.74 264.537 250.725 262.258 250.358L231.226 245.357C207.734 241.572 186.346 229.578 170.865 211.509L156.359 193.336C154.077 190.478 152.679 187.015 152.336 183.373C151.88 178.537 153.315 173.712 156.34 169.91L161.098 163.93L185.296 140.598L196.009 132.31C200.547 128.798 205.612 126.025 211.015 124.093C219.23 121.155 228.03 120.231 236.676 121.398L240.26 121.882C245.437 122.581 250.518 123.863 255.408 125.702Z" fill="url(#paint6_linear_1031_626)" stroke="#071457" stroke-width="0.638895"/>
<path d="M248.737 149.059L249.608 156.193C249.708 157.012 250.585 157.489 251.327 157.127L259.067 153.352C263.688 151.098 268.873 150.262 273.969 150.95L275.27 151.126C277.355 151.408 279.377 152.044 281.247 153.008C285.662 155.283 288.972 159.244 290.427 163.994L291.611 167.86C292.405 170.451 292.818 173.142 292.839 175.852L292.918 186.126C292.927 187.356 292.849 188.586 292.685 189.806L291.941 195.313C291.292 200.12 288.377 204.325 284.102 206.619C283.872 206.743 283.793 207.036 283.932 207.258L283.971 207.322C286.114 210.769 286.99 214.855 286.447 218.878L285.845 223.331L284.341 234.469C283.65 239.589 281.117 244.281 277.216 247.667C273.666 250.749 269.194 252.566 264.501 252.834L242.837 254.069L224.893 254.526C218.677 254.684 212.505 253.442 206.834 250.89C203.292 249.296 199.991 247.212 197.028 244.699L194.1 242.215C188.686 237.622 184.017 232.216 180.26 226.191L164.769 201.345C161.817 196.61 160.166 191.18 159.984 185.602L159.881 182.446C159.664 175.804 162.174 169.361 166.827 164.617L170.369 161.005C173.514 157.799 177.988 156.264 182.44 156.865C182.673 156.896 182.888 156.732 182.92 156.499L183.058 155.474C183.714 150.617 185.622 146.014 188.593 142.117C191.696 138.048 195.844 134.899 200.596 133.003L210.521 129.043C215.441 127.081 220.783 126.422 226.032 127.131L227.249 127.295C230.752 127.768 234.115 128.978 237.117 130.845C243.547 134.845 247.82 141.542 248.737 149.059Z" fill="#F9FFED" stroke="#C2DEFF" stroke-width="0.638895"/>
<path d="M248.737 149.059L249.608 156.193C249.708 157.012 250.585 157.489 251.327 157.127L259.067 153.352C263.688 151.098 268.873 150.262 273.969 150.95L275.27 151.126C277.355 151.408 279.377 152.044 281.247 153.008C285.662 155.283 288.972 159.244 290.427 163.994L291.611 167.86C292.405 170.451 292.818 173.142 292.839 175.852L292.918 186.126C292.927 187.356 292.849 188.586 292.685 189.806L291.941 195.313C291.292 200.12 288.377 204.325 284.102 206.619C283.872 206.743 283.793 207.036 283.932 207.258L283.971 207.322C286.114 210.769 286.99 214.855 286.447 218.878L285.845 223.331L284.341 234.469C283.65 239.589 281.117 244.281 277.216 247.667C273.666 250.749 269.194 252.566 264.501 252.834L242.837 254.069L224.893 254.526C218.677 254.684 212.505 253.442 206.834 250.89C203.292 249.296 199.991 247.212 197.028 244.699L194.1 242.215C188.686 237.622 184.017 232.216 180.26 226.191L164.769 201.345C161.817 196.61 160.166 191.18 159.984 185.602L159.881 182.446C159.664 175.804 162.174 169.361 166.827 164.617L170.369 161.005C173.514 157.799 177.988 156.264 182.44 156.865C182.673 156.896 182.888 156.732 182.92 156.499L183.058 155.474C183.714 150.617 185.622 146.014 188.593 142.117C191.696 138.048 195.844 134.899 200.596 133.003L210.521 129.043C215.441 127.081 220.783 126.422 226.032 127.131L227.249 127.295C230.752 127.768 234.115 128.978 237.117 130.845C243.547 134.845 247.82 141.542 248.737 149.059Z" fill="url(#paint7_linear_1031_626)"/>
<path d="M232.894 153.83L229.962 151.049C229.286 150.409 228.541 149.847 227.739 149.374L214.771 141.715L230.223 143.802C231.216 143.936 232.185 144.204 233.106 144.599L236.665 146.127C238.239 146.802 239.31 148.291 239.451 149.997L239.505 150.661C239.676 152.743 238.186 154.594 236.116 154.872C234.94 155.029 233.755 154.646 232.894 153.83Z" fill="url(#paint8_linear_1031_626)"/>
<path d="M267.442 164.975L269.391 165.412C270.227 165.6 271.015 165.955 271.709 166.457L274.142 168.215C277.191 170.419 279.59 173.403 281.087 176.854L281.14 176.975L277.37 175.258C275.881 174.58 274.273 174.199 272.638 174.137C270.862 174.07 269.12 173.626 267.528 172.836L266.034 172.095L266.033 172.094L264.436 170.552C263.257 169.415 263.095 167.585 264.054 166.258C264.825 165.191 266.158 164.686 267.442 164.975Z" fill="url(#paint9_linear_1031_626)"/>
<ellipse opacity="0.5" cx="23.1512" cy="22.9219" rx="23.1512" ry="22.9219" transform="matrix(0.991008 0.133804 -0.133805 0.991008 178.062 147.948)" fill="url(#paint10_radial_1031_626)"/>
<ellipse opacity="0.5" cx="23.1512" cy="22.9219" rx="23.1512" ry="22.9219" transform="matrix(0.991008 0.133804 -0.133805 0.991008 246.617 184.96)" fill="url(#paint11_radial_1031_626)"/>
<path d="M202.599 161.02L193.302 172.093C201.991 175.403 210.086 180.102 217.268 186.007L217.379 186.098L224.001 173.449C224.921 171.692 225.436 169.752 225.508 167.771L225.569 166.085C225.71 162.223 223.711 158.598 220.371 156.655C218.058 155.309 215.317 154.901 212.711 155.513L210.829 155.956C207.611 156.712 204.725 158.489 202.599 161.02Z" fill="white" stroke="#CEE1EC" stroke-width="0.638895"/>
<path d="M253.966 188.31L244.669 199.383C253.358 202.693 261.453 207.392 268.636 213.297L268.746 213.388L275.369 200.739C276.288 198.982 276.803 197.042 276.875 195.061L276.936 193.375C277.077 189.513 275.078 185.888 271.738 183.945C269.425 182.599 266.684 182.191 264.078 182.803L262.196 183.246C258.978 184.002 256.092 185.779 253.966 188.31Z" fill="white" stroke="#CEE1EC" stroke-width="0.638895"/>
<path d="M205.048 164.623L196.838 173.302L204.449 176.988L208.219 179.092L214.131 183.347L219.259 173.377C219.505 172.898 219.714 172.4 219.884 171.889L220.578 169.797C221.393 167.338 220.755 164.629 218.926 162.793C218.073 161.937 217.009 161.321 215.841 161.008L215.386 160.886C212.995 160.246 210.443 160.665 208.383 162.037L207.112 162.883C206.361 163.384 205.668 163.967 205.048 164.623Z" fill="url(#paint12_linear_1031_626)"/>
<path d="M256.415 191.913L248.205 200.592L255.816 204.278L259.586 206.382L265.499 210.637L270.626 200.667C270.872 200.188 271.081 199.69 271.251 199.179L271.945 197.087C272.761 194.628 272.122 191.919 270.293 190.083C269.44 189.227 268.376 188.611 267.208 188.298L266.753 188.176C264.362 187.536 261.81 187.955 259.75 189.327L258.479 190.173C257.728 190.674 257.035 191.257 256.415 191.913Z" fill="url(#paint13_linear_1031_626)"/>
<path d="M230.625 186.403L237.948 181.087C238.846 180.435 240.098 181.116 240.04 182.224L239.842 185.966C239.676 189.103 240.114 192.244 241.13 195.217C241.869 197.379 242.906 199.427 244.211 201.303L244.579 201.833C247.245 205.665 250.791 208.803 254.92 210.982L261.591 214.503L272.554 220.302C275.015 221.603 277.238 223.31 279.13 225.351C279.434 225.679 279.382 226.2 279.018 226.46L273.767 230.216C271.926 231.532 269.958 232.661 267.891 233.584C263.135 235.708 257.952 236.704 252.748 236.494L247.56 236.284C243.273 236.111 238.981 236.448 234.773 237.287L230.366 238.166C227.405 238.757 224.367 238.852 221.375 238.448L221.26 238.433C217.137 237.876 213.2 236.367 209.761 234.025C207.056 232.183 204.712 229.862 202.844 227.176L195.017 215.923L181.837 198.628C178.49 194.237 176.251 189.105 175.308 183.665C174.708 180.205 174.642 176.674 175.111 173.194L175.202 172.523C175.307 171.744 176.14 171.291 176.851 171.628L198.027 181.635L207.427 186.642C210.058 188.043 212.918 188.965 215.872 189.364L217.828 189.628C220.912 190.044 224.052 189.642 226.932 188.461C228.241 187.925 229.481 187.234 230.625 186.403Z" fill="#FFC179"/>
<g style="mix-blend-mode:color-burn">
<path d="M230.625 186.403L237.948 181.087C238.846 180.435 240.098 181.116 240.04 182.224L239.842 185.966C239.676 189.103 240.114 192.244 241.13 195.217C241.869 197.379 242.906 199.427 244.211 201.303L244.579 201.833C247.245 205.665 250.791 208.803 254.92 210.982L261.591 214.503L272.554 220.302C275.015 221.603 277.238 223.31 279.13 225.351C279.434 225.679 279.382 226.2 279.018 226.46L273.767 230.216C271.926 231.532 269.958 232.661 267.891 233.584C263.135 235.708 257.952 236.704 252.748 236.494L247.56 236.284C243.273 236.111 238.981 236.448 234.773 237.287L230.366 238.166C227.405 238.757 224.367 238.852 221.375 238.448L221.26 238.433C217.137 237.876 213.2 236.367 209.761 234.025C207.056 232.183 204.712 229.862 202.844 227.176L195.017 215.923L181.837 198.628C178.49 194.237 176.251 189.105 175.308 183.665C174.708 180.205 174.642 176.674 175.111 173.194L175.202 172.523C175.307 171.744 176.14 171.291 176.851 171.628L198.027 181.635L207.427 186.642C210.058 188.043 212.918 188.965 215.872 189.364L217.828 189.628C220.912 190.044 224.052 189.642 226.932 188.461C228.241 187.925 229.481 187.234 230.625 186.403Z" fill="url(#paint14_linear_1031_626)"/>
</g>
<g style="mix-blend-mode:darken">
<path d="M230.625 186.403L237.948 181.087C238.846 180.435 240.098 181.116 240.04 182.224L239.842 185.966C239.676 189.103 240.114 192.244 241.13 195.217C241.869 197.379 242.906 199.427 244.211 201.303L244.579 201.833C247.245 205.665 250.791 208.803 254.92 210.982L261.591 214.503L272.554 220.302C275.015 221.603 277.238 223.31 279.13 225.351C279.434 225.679 279.382 226.2 279.018 226.46L273.767 230.216C271.926 231.532 269.958 232.661 267.891 233.584C263.135 235.708 257.952 236.704 252.748 236.494L247.56 236.284C243.273 236.111 238.981 236.448 234.773 237.287L230.366 238.166C227.405 238.757 224.367 238.852 221.375 238.448L221.26 238.433C217.137 237.876 213.2 236.367 209.761 234.025C207.056 232.183 204.712 229.862 202.844 227.176L195.017 215.923L181.837 198.628C178.49 194.237 176.251 189.105 175.308 183.665C174.708 180.205 174.642 176.674 175.111 173.194L175.202 172.523C175.307 171.744 176.14 171.291 176.851 171.628L198.027 181.635L207.427 186.642C210.058 188.043 212.918 188.965 215.872 189.364L217.828 189.628C220.912 190.044 224.052 189.642 226.932 188.461C228.241 187.925 229.481 187.234 230.625 186.403Z" fill="url(#paint15_radial_1031_626)"/>
</g>
<g style="mix-blend-mode:darken">
<path d="M230.625 186.403L237.948 181.087C238.846 180.435 240.098 181.116 240.04 182.224L239.842 185.966C239.676 189.103 240.114 192.244 241.13 195.217C241.869 197.379 242.906 199.427 244.211 201.303L244.579 201.833C247.245 205.665 250.791 208.803 254.92 210.982L261.591 214.503L272.554 220.302C275.015 221.603 277.238 223.31 279.13 225.351C279.434 225.679 279.382 226.2 279.018 226.46L273.767 230.216C271.926 231.532 269.958 232.661 267.891 233.584C263.135 235.708 257.952 236.704 252.748 236.494L247.56 236.284C243.273 236.111 238.981 236.448 234.773 237.287L230.366 238.166C227.405 238.757 224.367 238.852 221.375 238.448L221.26 238.433C217.137 237.876 213.2 236.367 209.761 234.025C207.056 232.183 204.712 229.862 202.844 227.176L195.017 215.923L181.837 198.628C178.49 194.237 176.251 189.105 175.308 183.665C174.708 180.205 174.642 176.674 175.111 173.194L175.202 172.523C175.307 171.744 176.14 171.291 176.851 171.628L198.027 181.635L207.427 186.642C210.058 188.043 212.918 188.965 215.872 189.364L217.828 189.628C220.912 190.044 224.052 189.642 226.932 188.461C228.241 187.925 229.481 187.234 230.625 186.403Z" fill="url(#paint16_radial_1031_626)"/>
</g>
<g style="mix-blend-mode:darken">
<path d="M230.625 186.403L237.948 181.087C238.846 180.435 240.098 181.116 240.04 182.224L239.842 185.966C239.676 189.103 240.114 192.244 241.13 195.217C241.869 197.379 242.906 199.427 244.211 201.303L244.579 201.833C247.245 205.665 250.791 208.803 254.92 210.982L261.591 214.503L272.554 220.302C275.015 221.603 277.238 223.31 279.13 225.351C279.434 225.679 279.382 226.2 279.018 226.46L273.767 230.216C271.926 231.532 269.958 232.661 267.891 233.584C263.135 235.708 257.952 236.704 252.748 236.494L247.56 236.284C243.273 236.111 238.981 236.448 234.773 237.287L230.366 238.166C227.405 238.757 224.367 238.852 221.375 238.448L221.26 238.433C217.137 237.876 213.2 236.367 209.761 234.025C207.056 232.183 204.712 229.862 202.844 227.176L195.017 215.923L181.837 198.628C178.49 194.237 176.251 189.105 175.308 183.665C174.708 180.205 174.642 176.674 175.111 173.194L175.202 172.523C175.307 171.744 176.14 171.291 176.851 171.628L198.027 181.635L207.427 186.642C210.058 188.043 212.918 188.965 215.872 189.364L217.828 189.628C220.912 190.044 224.052 189.642 226.932 188.461C228.241 187.925 229.481 187.234 230.625 186.403Z" fill="url(#paint17_radial_1031_626)"/>
</g>
<g style="mix-blend-mode:overlay" opacity="0.5">
<path d="M230.625 186.403L237.948 181.087C238.846 180.435 240.098 181.116 240.04 182.224L239.842 185.966C239.676 189.103 240.114 192.244 241.13 195.217C241.869 197.379 242.906 199.427 244.211 201.303L244.579 201.833C247.245 205.665 250.791 208.803 254.92 210.982L261.591 214.503L272.554 220.302C275.015 221.603 277.238 223.31 279.13 225.351C279.434 225.679 279.382 226.2 279.018 226.46L273.767 230.216C271.926 231.532 269.958 232.661 267.891 233.584C263.135 235.708 257.952 236.704 252.748 236.494L247.56 236.284C243.273 236.111 238.981 236.448 234.773 237.287L230.366 238.166C227.405 238.757 224.367 238.852 221.375 238.448L221.26 238.433C217.137 237.876 213.2 236.367 209.761 234.025C207.056 232.183 204.712 229.862 202.844 227.176L195.017 215.923L181.837 198.628C178.49 194.237 176.251 189.105 175.308 183.665C174.708 180.205 174.642 176.674 175.111 173.194L175.202 172.523C175.307 171.744 176.14 171.291 176.851 171.628L198.027 181.635L207.427 186.642C210.058 188.043 212.918 188.965 215.872 189.364L217.828 189.628C220.912 190.044 224.052 189.642 226.932 188.461C228.241 187.925 229.481 187.234 230.625 186.403Z" fill="#FFC179"/>
</g>
<path d="M181.852 180.042L190.24 185.434C201.438 192.632 214.247 196.94 227.519 197.971C230.472 198.372 233.13 199.972 234.866 202.394L238.235 207.092C240.603 210.394 243.743 213.066 247.381 214.874L254.051 218.189L254.069 218.199L254.088 218.205L268.95 223.369C268.021 224.763 266.601 225.766 264.965 226.171L259.016 227.644C257.286 228.072 255.509 228.281 253.727 228.266L234.504 228.101L234.493 228.101L234.483 228.102L222.18 228.797C221.547 228.832 220.912 228.808 220.284 228.723C218.456 228.476 216.732 227.727 215.304 226.559L213.625 225.184C212.658 224.393 211.777 223.5 210.999 222.522L202.699 212.099L202.699 212.099L202.693 212.092L192.331 199.831L186.25 191.194C183.915 187.878 182.408 184.054 181.852 180.042Z" fill="url(#paint18_radial_1031_626)" stroke="#592441" stroke-width="0.64704"/>
<path d="M209.017 213.522L205.427 208.949C205.16 208.609 204.971 208.214 204.875 207.792C204.619 206.672 205.042 205.506 205.955 204.81L207.522 203.616C207.931 203.304 208.379 203.046 208.854 202.849L209.234 202.691C211.005 201.955 212.962 201.792 214.83 202.226L224.669 204.512C226.478 204.933 228.23 205.572 229.885 206.417L234.563 208.806C236.639 209.866 238.243 211.666 239.058 213.85L239.509 215.059C239.963 216.275 239.986 217.61 239.575 218.842C238.999 220.566 237.632 221.91 235.898 222.457L233.102 223.338L228.901 224.864C227.291 225.448 225.593 225.753 223.88 225.764L222.917 225.77C221.068 225.782 219.245 225.335 217.612 224.47C215.757 223.487 214.217 222.003 213.167 220.186L211.063 216.546C210.454 215.491 209.77 214.48 209.017 213.522Z" fill="url(#paint19_linear_1031_626)"/>
<path d="M209.017 213.522L205.427 208.949C205.16 208.609 204.971 208.214 204.875 207.792C204.619 206.672 205.042 205.506 205.955 204.81L207.522 203.616C207.931 203.304 208.379 203.046 208.854 202.849L209.234 202.691C211.005 201.955 212.962 201.792 214.83 202.226L224.669 204.512C226.478 204.933 228.23 205.572 229.885 206.417L234.563 208.806C236.639 209.866 238.243 211.666 239.058 213.85L239.509 215.059C239.963 216.275 239.986 217.61 239.575 218.842C238.999 220.566 237.632 221.91 235.898 222.457L233.102 223.338L228.901 224.864C227.291 225.448 225.593 225.753 223.88 225.764L222.917 225.77C221.068 225.782 219.245 225.335 217.612 224.47C215.757 223.487 214.217 222.003 213.167 220.186L211.063 216.546C210.454 215.491 209.77 214.48 209.017 213.522Z" fill="url(#paint20_radial_1031_626)"/>
<ellipse cx="1.83376" cy="1.83375" rx="1.83376" ry="1.83375" transform="matrix(0.991008 0.133804 -0.133805 0.991008 205.266 162.258)" fill="white"/>
<ellipse cx="1.83376" cy="1.83375" rx="1.83376" ry="1.83375" transform="matrix(0.991008 0.133804 -0.133805 0.991008 256.633 189.548)" fill="white"/>
<g style="mix-blend-mode:color-burn">
<path d="M145.875 262.949L148.842 269.375C157.689 288.538 168.798 306.574 181.932 323.098V323.098V323.098C199.711 314.145 216.13 302.716 230.701 289.154L236.512 283.745" stroke="#ED9CA4" stroke-width="0.638895"/>
</g>
<g style="mix-blend-mode:color-burn">
<path d="M297.775 290.861L290.466 295.577C284.939 299.144 280.297 303.924 276.893 309.553V309.553C273.823 314.63 271.829 320.284 271.035 326.164L269.08 340.647" stroke="#ED9CA4" stroke-width="0.638895"/>
</g>
<g style="mix-blend-mode:color-burn">
<path d="M88.0156 251.207L95.6677 257.352C100.655 261.358 104.659 266.453 107.37 272.247V272.247C111.219 280.473 112.29 289.727 110.419 298.614L108.141 309.436" stroke="#ED9CA4" stroke-width="0.638895"/>
</g>
<g style="mix-blend-mode:screen">
<ellipse cx="64.5427" cy="39.3006" rx="64.5427" ry="39.3006" transform="matrix(0.991008 0.133804 -0.133805 0.991008 236.969 105.94)" fill="#3656FF"/>
</g>
<g style="mix-blend-mode:color-dodge" opacity="0.5">
<ellipse cx="102.232" cy="53.408" rx="102.232" ry="53.408" transform="matrix(0.991008 0.133804 -0.133805 0.991008 208.891 262.205)" fill="#FF6636"/>
</g>
<g style="mix-blend-mode:soft-light">
<rect width="444.571" height="442.473" transform="matrix(0.992499 0.122251 -0.146406 0.989225 -21.5781 70.8716)" fill="#003EDC"/>
</g>
<g style="mix-blend-mode:soft-light">
<rect width="445.291" height="439.181" transform="matrix(0.992499 0.122251 -0.146406 0.989225 -22.0625 74.1288)" fill="#FF7E36"/>
</g>
<g style="mix-blend-mode:color-burn" opacity="0.5">
<rect width="445.291" height="439.181" transform="matrix(0.992499 0.122251 -0.146406 0.989225 -22.0625 74.1288)" fill="#A2B0FF"/>
</g>
</g>
</g>
<defs>
<linearGradient id="paint0_linear_1031_626" x1="175.662" y1="220.478" x2="223.864" y2="308.097" gradientUnits="userSpaceOnUse">
<stop offset="0.161995" stop-color="#9FB7DB"/>
<stop offset="1" stop-color="#BDD2F0" stop-opacity="0"/>
</linearGradient>
<linearGradient id="paint1_linear_1031_626" x1="35.7686" y1="353.785" x2="144.671" y2="457.081" gradientUnits="userSpaceOnUse">
<stop offset="0.161995" stop-color="#B5D2FF"/>
<stop offset="1" stop-color="#BDD2F0" stop-opacity="0"/>
</linearGradient>
<linearGradient id="paint2_linear_1031_626" x1="311.013" y1="398.348" x2="253.461" y2="512.414" gradientUnits="userSpaceOnUse">
<stop offset="0.161995" stop-color="#B5D2FF"/>
<stop offset="1" stop-color="#BDD2F0" stop-opacity="0"/>
</linearGradient>
<linearGradient id="paint3_linear_1031_626" x1="60.7004" y1="358.734" x2="62.7217" y2="378.918" gradientUnits="userSpaceOnUse">
<stop offset="0.161995" stop-color="#8FB4EC"/>
<stop offset="1" stop-color="#BDD2F0" stop-opacity="0"/>
</linearGradient>
<linearGradient id="paint4_linear_1031_626" x1="290.675" y1="407.835" x2="300.496" y2="433.265" gradientUnits="userSpaceOnUse">
<stop offset="0.161995" stop-color="#8FB4EC"/>
<stop offset="1" stop-color="#BDD2F0" stop-opacity="0"/>
</linearGradient>
<linearGradient id="paint5_linear_1031_626" x1="106.896" y1="248.436" x2="268.707" y2="499.27" gradientUnits="userSpaceOnUse">
<stop stop-color="#EA4050"/>
<stop offset="1" stop-color="#FFC1C7" stop-opacity="0"/>
</linearGradient>
<linearGradient id="paint6_linear_1031_626" x1="224.419" y1="114.655" x2="272.512" y2="251.832" gradientUnits="userSpaceOnUse">
<stop stop-color="#5B69E3"/>
<stop offset="1" stop-color="#6076EB" stop-opacity="0"/>
</linearGradient>
<linearGradient id="paint7_linear_1031_626" x1="225.092" y1="130.242" x2="242.027" y2="258.355" gradientUnits="userSpaceOnUse">
<stop stop-color="#BCD1F1"/>
<stop offset="0.692708" stop-color="white" stop-opacity="0"/>
</linearGradient>
<linearGradient id="paint8_linear_1031_626" x1="238.872" y1="152.371" x2="217.138" y2="142.812" gradientUnits="userSpaceOnUse">
<stop stop-color="#000833" stop-opacity="0.72"/>
<stop offset="1"/>
</linearGradient>
<linearGradient id="paint9_linear_1031_626" x1="280.41" y1="177.489" x2="261.178" y2="167.768" gradientUnits="userSpaceOnUse">
<stop/>
<stop offset="1" stop-color="#000833" stop-opacity="0.72"/>
</linearGradient>
<radialGradient id="paint10_radial_1031_626" cx="0" cy="0" r="1" gradientUnits="userSpaceOnUse" gradientTransform="translate(23.1512 22.9219) rotate(90) scale(22.9219 23.1512)">
<stop stop-color="#FFB6DD"/>
<stop offset="1" stop-color="white" stop-opacity="0"/>
</radialGradient>
<radialGradient id="paint11_radial_1031_626" cx="0" cy="0" r="1" gradientUnits="userSpaceOnUse" gradientTransform="translate(23.1512 22.9219) rotate(90) scale(22.9219 23.1512)">
<stop stop-color="#FFB6DD"/>
<stop offset="1" stop-color="white" stop-opacity="0"/>
</radialGradient>
<linearGradient id="paint12_linear_1031_626" x1="210.903" y1="159.901" x2="217.012" y2="182.831" gradientUnits="userSpaceOnUse">
<stop offset="0.291667" stop-color="#130701"/>
<stop offset="1" stop-color="#DA7F63"/>
</linearGradient>
<linearGradient id="paint13_linear_1031_626" x1="262.27" y1="187.191" x2="268.379" y2="210.121" gradientUnits="userSpaceOnUse">
<stop offset="0.291667" stop-color="#130701"/>
<stop offset="1" stop-color="#DA7F63"/>
</linearGradient>
<linearGradient id="paint14_linear_1031_626" x1="239.504" y1="179.371" x2="222.146" y2="238.552" gradientUnits="userSpaceOnUse">
<stop stop-color="#E67C01"/>
<stop offset="1" stop-color="#FFC179" stop-opacity="0"/>
</linearGradient>
<radialGradient id="paint15_radial_1031_626" cx="0" cy="0" r="1" gradientUnits="userSpaceOnUse" gradientTransform="translate(177.865 181.919) rotate(28.8292) scale(55.2956 100.405)">
<stop stop-color="#E67C01"/>
<stop offset="1" stop-color="#FFC179"/>
</radialGradient>
<radialGradient id="paint16_radial_1031_626" cx="0" cy="0" r="1" gradientUnits="userSpaceOnUse" gradientTransform="translate(210.712 241.866) rotate(-64.8924) scale(36.7559 66.7411)">
<stop stop-color="#E67C01"/>
<stop offset="1" stop-color="#FFDAAE"/>
</radialGradient>
<radialGradient id="paint17_radial_1031_626" cx="0" cy="0" r="1" gradientUnits="userSpaceOnUse" gradientTransform="translate(238.595 179.248) rotate(115.557) scale(36.6069 66.4706)">
<stop stop-color="#AD1F00"/>
<stop offset="1" stop-color="#FFDAAE"/>
</radialGradient>
<radialGradient id="paint18_radial_1031_626" cx="0" cy="0" r="1" gradientUnits="userSpaceOnUse" gradientTransform="translate(233.612 208.405) rotate(91.5232) scale(27.2296 64.6294)">
<stop offset="0.302083" stop-color="#520B31"/>
<stop offset="1" stop-color="#220312"/>
</radialGradient>
<linearGradient id="paint19_linear_1031_626" x1="227.888" y1="203.71" x2="220.153" y2="231.903" gradientUnits="userSpaceOnUse">
<stop offset="0.302083" stop-color="#510B31"/>
<stop offset="1" stop-color="#DDA0BD"/>
</linearGradient>
<radialGradient id="paint20_radial_1031_626" cx="0" cy="0" r="1" gradientUnits="userSpaceOnUse" gradientTransform="translate(226.525 203.526) rotate(104.03) scale(29.0593 52.77)">
<stop offset="0.078125" stop-color="#510B31"/>
<stop offset="1" stop-color="#FF8CC3"/>
</radialGradient>
<clipPath id="clip0_1031_626">
<rect width="349" height="491" fill="white"/>
</clipPath>
</defs>
</svg>
