<svg width="934" height="135" viewBox="0 0 934 135" fill="none" xmlns="http://www.w3.org/2000/svg">
<g clip-path="url(#clip0_1267_37)">
<rect width="933" height="133.985" transform="translate(0.546875 0.15387)" fill="#F9F9F9"/>
<mask id="mask0_1267_37" style="mask-type:alpha" maskUnits="userSpaceOnUse" x="0" y="-7" width="1185" height="341">
<rect x="0.546875" y="-6.84607" width="1184" height="340" rx="5" fill="#F9F9F9"/>
</mask>
<g mask="url(#mask0_1267_37)">
<path d="M26.0425 -238.924C26.941 -241.612 29.8918 -243.016 32.5446 -242.019L1270.51 223.532C1273.03 224.478 1274.34 227.246 1273.49 229.797L1265.79 252.825C1264.94 255.38 1262.21 256.799 1259.63 256.034L-8.35442 -119.695C-11.0668 -120.499 -12.5729 -123.391 -11.6761 -126.074L26.0425 -238.924Z" fill="#D6DAEE" fill-opacity="0.25"/>
<path d="M-7.31266 -54.7078C-6.70453 -57.476 -3.91941 -59.1858 -1.17569 -58.4753L1279.2 273.081C1281.8 273.755 1283.41 276.368 1282.83 278.994L1277.62 302.709C1277.04 305.34 1274.48 307.04 1271.83 306.553L-28.8635 67.498C-31.6459 66.9866 -33.4503 64.2706 -32.8433 61.5075L-7.31266 -54.7078Z" fill="#D6DAEE" fill-opacity="0.25"/>
</g>
</g>
<defs>
<clipPath id="clip0_1267_37">
<rect width="933" height="133.985" fill="white" transform="translate(0.546875 0.15387)"/>
</clipPath>
</defs>
</svg>
