<svg width="33" height="32" viewBox="0 0 33 32" fill="none" xmlns="http://www.w3.org/2000/svg">
<path d="M11.1679 15.991C11.1679 13.0473 13.5551 10.6603 16.5006 10.6603C19.4462 10.6603 21.8346 13.0473 21.8346 15.991C21.8346 18.9348 19.4462 21.3218 16.5006 21.3218C13.5551 21.3218 11.1679 18.9348 11.1679 15.991ZM8.2845 15.991C8.2845 20.5261 11.9629 24.2023 16.5006 24.2023C21.0384 24.2023 24.7168 20.5261 24.7168 15.991C24.7168 11.456 21.0384 7.77984 16.5006 7.77984C11.9629 7.77984 8.2845 11.456 8.2845 15.991ZM23.122 7.45426C23.1218 7.83379 23.2343 8.20483 23.4451 8.52048C23.656 8.83613 23.9558 9.08221 24.3065 9.22759C24.6573 9.37297 25.0434 9.41112 25.4159 9.33723C25.7884 9.26334 26.1306 9.08071 26.3992 8.81245C26.6678 8.54419 26.8508 8.20235 26.9251 7.83014C26.9993 7.45794 26.9614 7.07209 26.8163 6.72139C26.6711 6.3707 26.4251 6.0709 26.1094 5.85992C25.7937 5.64894 25.4226 5.53625 25.0428 5.5361H25.042C24.533 5.53634 24.0449 5.73848 23.6849 6.09813C23.3249 6.45778 23.1224 6.94553 23.122 7.45426ZM10.0364 29.0074C8.47638 28.9364 7.62848 28.6767 7.065 28.4573C6.31796 28.1666 5.78495 27.8205 5.22454 27.2612C4.66413 26.7018 4.31724 26.1697 4.02769 25.4231C3.80804 24.8602 3.54819 24.0125 3.47727 22.4535C3.3997 20.7679 3.38421 20.2616 3.38421 15.9912C3.38421 11.7208 3.40098 11.2159 3.47727 9.52887C3.54831 7.96981 3.81008 7.12382 4.02769 6.55927C4.31852 5.81268 4.6649 5.27999 5.22454 4.71992C5.78418 4.15985 6.31668 3.81316 7.065 3.52379C7.62822 3.30426 8.47638 3.04457 10.0364 2.97369C11.723 2.89617 12.2296 2.88069 16.5006 2.88069C20.7717 2.88069 21.2788 2.89745 22.9668 2.97369C24.5268 3.0447 25.3733 3.30631 25.9382 3.52379C26.6852 3.81316 27.2183 4.16061 27.7787 4.71992C28.3391 5.27922 28.6847 5.81268 28.9755 6.55927C29.1952 7.12216 29.455 7.96981 29.5259 9.52887C29.6035 11.2159 29.619 11.7208 29.619 15.9912C29.619 20.2616 29.6035 20.7665 29.5259 22.4535C29.4549 24.0125 29.1938 24.8599 28.9755 25.4231C28.6847 26.1697 28.3383 26.7024 27.7787 27.2612C27.219 27.8199 26.6852 28.1666 25.9382 28.4573C25.375 28.6768 24.5268 28.9365 22.9668 29.0074C21.2802 29.0849 20.7736 29.1004 16.5006 29.1004C12.2277 29.1004 11.7225 29.0849 10.0364 29.0074ZM9.9039 0.0968418C8.20053 0.174366 7.03658 0.444295 6.02009 0.839594C4.96738 1.24781 4.07621 1.79547 3.18568 2.68407C2.29514 3.57266 1.74856 4.4647 1.3401 5.51678C0.944562 6.5333 0.674471 7.69592 0.5969 9.39826C0.518049 11.1033 0.5 11.6484 0.5 15.991C0.5 20.3337 0.518049 20.8788 0.5969 22.5838C0.674471 24.2863 0.944562 25.4488 1.3401 26.4653C1.74856 27.5168 2.29527 28.4098 3.18568 29.298C4.07608 30.1862 4.96738 30.7331 6.02009 31.1425C7.0385 31.5378 8.20053 31.8077 9.9039 31.8853C11.6108 31.9628 12.1554 31.9821 16.5006 31.9821C20.8459 31.9821 21.3913 31.9641 23.0974 31.8853C24.8009 31.8077 25.9641 31.5378 26.9812 31.1425C28.0333 30.7331 28.9251 30.1866 29.8156 29.298C30.7061 28.4094 31.2516 27.5168 31.6612 26.4653C32.0567 25.4488 32.3281 24.2862 32.4044 22.5838C32.482 20.8775 32.5 20.3337 32.5 15.991C32.5 11.6484 32.482 11.1033 32.4044 9.39826C32.3268 7.69579 32.0567 6.53266 31.6612 5.51678C31.2516 4.46534 30.7047 3.57406 29.8156 2.68407C28.9265 1.79407 28.0333 1.24781 26.9825 0.839594C25.9641 0.444295 24.8007 0.173087 23.0987 0.0968418C21.3926 0.0193172 20.8472 0 16.5019 0C12.1567 0 11.6108 0.0180379 9.9039 0.0968418Z" fill="#F9F9F9"/>
</svg>
