<svg width="398" height="179" viewBox="0 0 398 179" fill="none" xmlns="http://www.w3.org/2000/svg">
<path d="M119.204 16.2503H152.602V106.168H108.928L70.1344 53.1167V106.168H36.7362V16.2503H80.4108L119.204 69.302V16.2503ZM252.846 41.9412H191.188V50.2907H252.846V72.128H191.188V80.4776H252.846V106.168H157.79V16.2503H252.846V41.9412ZM311.875 107.453C272.311 107.453 255.355 92.4238 255.355 61.0809C255.355 29.8665 272.311 14.9657 311.875 14.9657C351.31 14.9657 368.395 29.9949 368.395 61.0809C368.395 92.2954 351.31 107.453 311.875 107.453ZM311.875 79.193C331.528 79.193 334.997 70.5866 334.997 61.0809C334.997 51.7037 331.657 43.2257 311.875 43.2257C292.093 43.2257 288.753 51.5753 288.753 61.0809C288.753 70.715 292.221 79.193 311.875 79.193ZM52.3244 147.907H80.0525V161.168H36.6519V118.973H52.3244V147.907ZM86.4703 147.304L65.0111 118.973H83.0947L94.3065 134.646L105.518 118.973H123.602L102.143 147.304V161.168H86.4703V147.304ZM189.452 118.973V161.168H173.779V141.096L162.266 161.168H152.019L140.505 141.096V161.168H124.833V118.973H144.122L157.142 143.085L170.162 118.973H189.452ZM225.034 118.973C234.619 118.973 241.189 125.725 241.189 135.128C241.189 144.532 234.619 151.283 225.034 151.283H207.553V161.168H191.881V118.973H225.034ZM222.02 138.021C223.588 138.021 225.517 138.021 225.517 135.128C225.517 132.235 223.588 132.235 222.02 132.235H207.553V138.021H222.02ZM258.649 118.973V161.168H242.977V118.973H258.649ZM259.857 140.011C259.857 125.363 267.814 118.371 286.38 118.371C303.258 118.371 312.058 124.278 312.721 137.6H296.687C296.084 133.621 293.01 131.632 286.38 131.632C277.097 131.632 275.529 135.55 275.529 140.011C275.529 144.532 277.157 148.51 286.38 148.51C293.01 148.51 296.084 146.46 296.687 142.422H312.721C312.058 155.804 303.318 161.771 286.38 161.771C267.814 161.771 259.857 154.719 259.857 140.011ZM313.955 146.28H329.627C329.627 148.329 331.556 149.716 341.502 149.716C350.785 149.716 352.171 149.113 352.171 147.545C352.171 145.737 350.785 145.496 340.899 145.195C321.851 144.592 314.557 141.457 314.557 131.632C314.557 122.349 323.659 118.371 340.296 118.371C356.752 118.371 366.035 122.349 366.035 133.139H350.363C350.363 130.909 346.746 130.426 339.091 130.426C331.737 130.426 330.23 130.788 330.23 132.416C330.23 134.043 331.737 133.983 340.899 134.344C357.536 135.008 367.844 136.153 367.844 147.184C367.844 158.818 358.199 161.771 340.899 161.771C323.599 161.771 313.955 158.818 313.955 146.28Z" fill="#E9EEFD"/>
</svg>
