<svg width="798" height="506" viewBox="0 0 798 506" fill="none" xmlns="http://www.w3.org/2000/svg">
<g clip-path="url(#clip0_405_48951)">
<mask id="mask0_405_48951" style="mask-type:alpha" maskUnits="userSpaceOnUse" x="-6" y="0" width="810" height="506">
<rect x="-6" width="810" height="506" fill="#EDE7FF"/>
</mask>
<g mask="url(#mask0_405_48951)">
<mask id="mask1_405_48951" style="mask-type:alpha" maskUnits="userSpaceOnUse" x="164" y="-8" width="622" height="677">
<path d="M265.172 46.2085L303.333 64.121L235.03 172.848L221.439 141.485L206.803 118.833L174.68 66.2983C173.795 64.8505 173.059 63.3161 172.486 61.7189L168.665 51.0743C165.909 43.397 170.167 34.9804 177.984 32.6518C179.301 32.2596 180.667 32.0604 182.041 32.0604H201.733C223.662 32.0604 245.321 36.8909 265.172 46.2085Z" fill="#3D3AA9" stroke="#D49357" stroke-width="0.69697"/>
<path d="M314.762 278.539L285.212 237.666L442.03 253L435.087 274.898C433.684 279.323 432.97 283.938 432.97 288.58V317.103C432.97 326.351 440.467 333.848 449.715 333.848C452.449 333.848 455.142 333.179 457.558 331.898L469.062 325.799C478.085 321.016 488.143 318.515 498.355 318.515H508.945C528.645 318.515 546.28 330.735 553.197 349.182L572.93 423.768C573.481 425.848 573.851 427.971 574.038 430.115L583.403 537.684L632.651 445.015L652.926 408.21C654.506 405.34 655.793 402.317 656.767 399.189L659.009 391.982C665.203 372.074 685.538 360.157 705.933 364.483C712.5 365.876 719.311 365.61 725.749 363.708L732.49 361.716C741.481 359.059 748.936 352.736 753.023 344.298L762.927 323.85C765.806 317.906 773.064 315.568 778.872 318.713C782.61 320.738 784.939 324.648 784.939 328.9V347.109C784.939 353.963 783.268 360.714 780.07 366.776L777.786 371.106C771.572 382.887 761.699 392.331 749.654 398.015L744.938 400.241C739.841 402.646 734.274 403.894 728.637 403.894C712.805 403.894 698.614 413.661 692.96 428.449L666.106 498.682L634.636 574.735C633.316 577.924 631.686 580.975 629.769 583.845L622.608 594.566C602.004 625.41 555.219 620.343 541.697 585.803L560.167 642.606L301.242 662.818V638.438C301.242 592.541 296.709 546.756 287.708 501.751L285.212 489.272L284.079 485.76C281.029 476.299 266.928 479.406 268.136 489.272L285.212 612.636L223.879 623.091L204.712 564.197L186.242 480.909L172.223 422.449C169.33 410.386 170.31 397.718 175.024 386.244C182.086 369.055 196.829 356.194 214.817 351.531L216.23 351.164C221.309 349.848 226.534 349.182 231.78 349.182H298.69C304.65 349.182 310.455 347.281 315.261 343.757C323.582 337.655 327.876 327.474 326.439 317.257L324.339 302.321C323.131 293.732 319.844 285.568 314.762 278.539Z" fill="#3D3AA9"/>
<path d="M497.788 389.257L524.684 524.587C528.818 545.388 534.505 565.851 541.697 585.803V585.803M541.697 585.803V585.803C555.219 620.343 602.004 625.41 622.608 594.566L629.769 583.845C631.686 580.975 633.316 577.924 634.636 574.735L666.106 498.682L692.96 428.449C698.614 413.661 712.805 403.894 728.637 403.894V403.894C734.274 403.894 739.841 402.646 744.938 400.241L749.654 398.015C761.699 392.331 771.572 382.887 777.786 371.106L780.07 366.776C783.268 360.714 784.939 353.963 784.939 347.109V328.9C784.939 324.648 782.61 320.738 778.872 318.713V318.713C773.064 315.568 765.806 317.906 762.927 323.85L753.023 344.298C748.936 352.736 741.481 359.059 732.49 361.716L725.749 363.708C719.311 365.61 712.5 365.876 705.933 364.483V364.483C685.538 360.157 665.203 372.074 659.009 391.982L656.767 399.189C655.793 402.317 654.506 405.34 652.926 408.21L632.651 445.015L575.211 553.097C574.316 554.781 574.422 556.821 575.487 558.404V558.404C578.464 562.829 585.379 560.387 584.917 555.073L574.038 430.115C573.851 427.971 573.481 425.848 572.93 423.768L553.197 349.182V349.182C546.28 330.735 528.645 318.515 508.945 318.515H498.355C488.143 318.515 478.085 321.016 469.062 325.799L457.558 331.898C455.142 333.179 452.449 333.848 449.715 333.848V333.848C440.467 333.848 432.97 326.351 432.97 317.103V288.58C432.97 283.938 433.684 279.323 435.087 274.898L442.03 253L285.212 237.666L314.762 278.539C319.844 285.568 323.131 293.732 324.339 302.321L326.439 317.257C327.876 327.474 323.582 337.655 315.261 343.757V343.757C310.455 347.281 304.65 349.182 298.69 349.182H231.78C226.534 349.182 221.309 349.848 216.23 351.164L214.817 351.531C196.829 356.194 182.086 369.055 175.024 386.244V386.244C170.31 397.718 169.33 410.386 172.223 422.449L186.242 480.909L204.712 564.197L223.879 623.091L285.212 612.636L268.136 489.272V489.272C266.928 479.406 281.029 476.299 284.079 485.76L285.212 489.272L287.708 501.751C296.709 546.756 301.242 592.541 301.242 638.438V662.818L560.167 642.606L541.697 585.803Z" stroke="#D49357" stroke-width="0.69697"/>
<path d="M225.212 183.946L257.311 112.687C268.791 87.2 289.038 66.6797 314.37 54.8585C329.824 47.6464 346.671 43.9088 363.726 43.9088H382.56C394.488 43.9088 406.342 45.7683 417.696 49.4203C445.005 58.2038 468.033 76.8971 482.243 101.816L484.197 105.242L514.864 173.894L516.461 178.121C522.34 193.685 515.863 211.202 501.273 219.197L464.333 239.06L440.407 254.429C424.857 264.417 406.766 269.727 388.285 269.727C376.586 269.727 364.986 267.599 354.049 263.446L240.224 220.224C229.755 216.249 222.833 206.217 222.833 195.019C222.833 191.201 223.644 187.427 225.212 183.946Z" fill="#3D3AA9" stroke="#D49357" stroke-width="0.69697"/>
<path d="M307.896 327.433L308.479 325.18C310.593 317.015 320.575 313.95 326.907 319.522C329.213 321.551 332.244 322.555 335.305 322.304L425.314 314.932C429.668 314.575 433.294 311.448 434.287 307.193C436.342 298.387 448.069 296.554 452.712 304.314L490.389 367.274C492.063 370.07 493.386 373.062 494.328 376.182L579.682 658.636L305.424 668.045L281.727 492.757L292.53 658.636L218.651 668.045L205.385 599.406C203.564 589.983 199.734 581.063 194.155 573.254C186.063 561.924 181.712 548.348 181.712 534.425V526.086C181.712 520.605 181.227 515.135 180.262 509.74L166.2 431.132C162.517 410.543 167.193 389.102 178.951 371.805C193.634 350.205 218.255 336.985 244.372 336.985H295.558C301.367 336.985 306.441 333.057 307.896 327.433Z" fill="#3D3AA9"/>
<path d="M486.533 315.03H505.639C525.689 315.03 544.553 324.534 556.485 340.647L563.833 350.57C573.292 363.344 579.105 378.446 580.651 394.265L590.485 494.848L624.376 423.549C626.238 419.632 630.188 417.136 634.525 417.136C638.725 417.136 642.576 414.793 644.505 411.062L647.066 406.112C652.473 395.659 665.58 391.939 675.672 397.994L698.412 411.638C703.162 414.488 704.132 420.962 700.427 425.079C698.972 426.696 698.167 428.794 698.167 430.97V433.732C698.167 435.662 697.817 437.577 697.136 439.382L644.771 578.164C634.333 605.827 607.855 624.136 578.288 624.136C558.722 611.767 544.217 592.815 537.388 570.697L466.732 341.868C464.594 334.942 466.229 327.403 471.044 321.986C474.977 317.561 480.614 315.03 486.533 315.03Z" fill="#3D3AA9"/>
<path d="M279.624 125.208L231.649 164.22C228.257 166.979 223.182 164.565 223.182 160.192C223.182 159.349 222.977 158.519 222.584 157.774L205.758 125.803C202.08 117.866 205.562 108.38 213.424 104.545L220.5 100.265C234.51 91.7897 247.064 81.1155 257.682 68.6513L272.36 55.2777C273.027 54.67 273.626 53.9911 274.145 53.2532C277.54 48.4287 283.87 46.6738 289.264 49.0616L293.945 51.1333C298.605 53.1958 303.906 53.2568 308.612 51.302L319.294 46.8652C322.351 45.595 325.538 44.6619 328.798 44.0824L341.252 41.8684C350.571 40.2117 360.018 39.3785 369.482 39.3785H387.843C390.507 39.3785 393.164 39.6449 395.774 40.1736L399.471 40.9224C411.717 43.4025 424.329 38.9038 432.241 29.234C434.112 26.9464 436.277 24.9149 438.679 23.192L463.918 5.08555C466.049 3.5564 468.308 2.21224 470.668 1.06776L484.829 -5.79805C488.181 -7.42346 492.084 -7.4719 495.475 -5.93021C499.312 -4.18643 502.014 -0.630201 502.666 3.53308L505.58 22.138C505.96 24.5674 506.151 27.0227 506.151 29.4817V78.7573L502.267 115.207C501.845 119.172 502.538 123.176 504.267 126.768L508.857 136.3C509.955 138.582 509.528 141.305 507.784 143.141C505.66 145.377 502.199 145.673 499.725 143.829L474.139 124.761C469.51 121.311 464.22 118.851 458.599 117.534L428.127 110.396C402.81 104.466 376.554 103.728 350.944 108.227L295.47 117.973C289.657 118.994 284.202 121.485 279.624 125.208Z" fill="#3D3AA9" stroke="#D6C68D" stroke-width="0.69697"/>
<path d="M232.939 125.106L209.171 142.04C206.826 143.712 206.098 146.872 207.478 149.401L217.811 168.344C218.884 170.312 221.267 171.156 223.34 170.303C232.689 166.453 241.305 161.018 248.805 154.237L254.698 148.91C271.953 133.312 292.984 122.491 315.707 117.52L325.636 115.348L355.337 110.248C381.251 105.798 407.808 106.81 433.308 113.217L458.285 119.493C461.137 120.21 463.858 121.376 466.345 122.947L501.338 145.047C504.638 147.131 508.939 144.76 508.939 140.858C508.939 140.579 508.963 140.301 509.01 140.026L511.161 127.389C511.499 125.4 510.531 123.417 508.754 122.461L470.184 101.71C458.191 95.2571 445.506 90.1817 432.371 86.5803C416.81 82.3135 400.747 80.1512 384.611 80.1512H376.177C355.347 80.1512 334.383 82.8844 314.235 88.1691C292.362 93.9062 271.141 102.683 251.639 114.13L232.939 125.106Z" fill="#3D3AA9"/>
</mask>
<g mask="url(#mask1_405_48951)">
<path d="M265.172 46.2088L303.333 64.1213L235.03 172.849L221.439 141.485L206.803 118.833L174.68 66.2987C173.795 64.8509 173.06 63.3164 172.486 61.7192L168.665 51.0746C165.909 43.3973 170.167 34.9807 177.984 32.6521C179.301 32.2599 180.668 32.0607 182.041 32.0607H201.733C223.662 32.0607 245.321 36.8912 265.172 46.2088Z" fill="#3D3AA9" stroke="#D49357" stroke-width="0.69697"/>
<path d="M265.172 46.2088L303.333 64.1213L235.03 172.849L221.439 141.485L206.803 118.833L174.68 66.2987C173.795 64.8509 173.06 63.3164 172.486 61.7192L168.665 51.0746C165.909 43.3973 170.167 34.9807 177.984 32.6521C179.301 32.2599 180.668 32.0607 182.041 32.0607H201.733C223.662 32.0607 245.321 36.8912 265.172 46.2088Z" fill="#3D3AA9" stroke="#D49357" stroke-width="0.69697"/>
<g style="mix-blend-mode:color-burn">
<path d="M265.172 46.2088L303.333 64.1213L235.03 172.849L221.439 141.485L206.803 118.833L174.68 66.2987C173.795 64.8509 173.06 63.3164 172.486 61.7192L168.665 51.0746C165.909 43.3973 170.167 34.9807 177.984 32.6521C179.301 32.2599 180.668 32.0607 182.041 32.0607H201.733C223.662 32.0607 245.321 36.8912 265.172 46.2088Z" fill="#3D3AA9"/>
<path d="M265.172 46.2088L303.333 64.1213L235.03 172.849L221.439 141.485L206.803 118.833L174.68 66.2987C173.795 64.8509 173.06 63.3164 172.486 61.7192L168.665 51.0746C165.909 43.3973 170.167 34.9807 177.984 32.6521C179.301 32.2599 180.668 32.0607 182.041 32.0607H201.733C223.662 32.0607 245.321 36.8912 265.172 46.2088Z" stroke="#D49357" stroke-width="0.69697"/>
</g>
<path d="M252.563 83.41L273.712 99.6668L245.136 164.833L220.742 122.667L193.212 72.1365L188.023 61.3477C185.183 55.4443 191.108 49.1439 197.174 51.6155C216.978 59.6838 235.608 70.3777 252.563 83.41Z" fill="#3D3AA9" stroke="#FDE2B7" stroke-width="0.69697"/>
<path d="M434.847 36.3743L423.561 48.4395L413.455 58.1971L491.864 134.864L497.788 58.1971V24.7191C497.788 22.4277 497.404 20.1524 496.653 17.9876L494.706 12.3755C493.005 7.47057 488.383 4.18195 483.191 4.18195C480.889 4.18195 478.633 4.83408 476.686 6.06284L454.821 19.861C447.486 24.4902 440.773 30.0398 434.847 36.3743Z" fill="#3D3AA9" stroke="#D49357" stroke-width="0.69697"/>
<path d="M434.847 36.3743L423.561 48.4395L413.455 58.1971L491.864 134.864L497.788 58.1971V24.7191C497.788 22.4277 497.404 20.1524 496.653 17.9876L494.706 12.3755C493.005 7.47057 488.383 4.18195 483.191 4.18195C480.889 4.18195 478.633 4.83408 476.686 6.06284L454.821 19.861C447.486 24.4902 440.773 30.0398 434.847 36.3743Z" fill="#3D3AA9" stroke="#D49357" stroke-width="0.69697"/>
<g style="mix-blend-mode:color-burn">
<path d="M434.847 36.3743L423.561 48.4395L413.455 58.1971L491.864 134.864L497.788 58.1971V24.7191C497.788 22.4277 497.404 20.1524 496.653 17.9876L494.706 12.3755C493.005 7.47057 488.383 4.18195 483.191 4.18195C480.889 4.18195 478.633 4.83408 476.686 6.06284L454.821 19.861C447.486 24.4902 440.773 30.0398 434.847 36.3743Z" fill="#3D3AA9"/>
<path d="M434.847 36.3743L423.561 48.4395L413.455 58.1971L491.864 134.864L497.788 58.1971V24.7191C497.788 22.4277 497.404 20.1524 496.653 17.9876L494.706 12.3755C493.005 7.47057 488.383 4.18195 483.191 4.18195C480.889 4.18195 478.633 4.83408 476.686 6.06284L454.821 19.861C447.486 24.4902 440.773 30.0398 434.847 36.3743Z" stroke="#D49357" stroke-width="0.69697"/>
</g>
<path d="M479.667 61.3336L490.561 25.6116C491.262 23.313 494.651 23.8185 494.651 26.2215V55.7579L487.682 132.076L469.212 104.197L479.667 61.3336Z" fill="#3D3AA9" stroke="#FDE2B7" stroke-width="0.69697"/>
<path d="M314.762 278.539L285.212 237.667L441.682 253L434.947 275.09C433.636 279.39 432.97 283.861 432.97 288.357V317.103C432.97 326.352 440.467 333.849 449.715 333.849C452.449 333.849 455.142 333.179 457.558 331.898L469.062 325.8C478.085 321.016 488.143 318.515 498.355 318.515H508.945C528.646 318.515 546.28 330.736 553.197 349.182L572.931 423.768C573.481 425.848 573.851 427.972 574.038 430.115L583.403 537.684L632.652 445.015L652.926 408.21C654.507 405.34 655.793 402.318 656.767 399.189L659.009 391.982C665.203 372.074 685.538 360.157 705.933 364.484C712.5 365.877 719.311 365.61 725.749 363.708L732.49 361.716C741.481 359.06 748.936 352.736 753.023 344.298L762.927 323.85C765.806 317.906 773.065 315.568 778.872 318.714C782.61 320.739 784.939 324.649 784.939 328.901V347.109C784.939 353.963 783.268 360.714 780.07 366.777L777.786 371.107C771.572 382.888 761.699 392.331 749.654 398.016L744.938 400.241C739.841 402.646 734.274 403.894 728.637 403.894C712.805 403.894 698.614 413.661 692.96 428.449L666.106 498.682L634.636 574.735C633.316 577.924 631.686 580.976 629.769 583.846L622.608 594.566C602.004 625.411 555.219 620.344 541.697 585.803L560.167 642.606L301.242 662.818V638.438C301.242 592.541 296.709 546.756 287.708 501.751L285.212 489.273L284.079 485.76C281.029 476.299 266.928 479.406 268.136 489.273L285.212 612.636L223.879 623.091L204.712 564.197L186.242 480.909L172.223 422.449C169.33 410.386 170.31 397.719 175.024 386.244C182.086 369.056 196.829 356.195 214.817 351.531L216.231 351.165C221.309 349.848 226.534 349.182 231.78 349.182H298.69C304.65 349.182 310.455 347.282 315.261 343.757C323.582 337.655 327.876 327.474 326.44 317.257L324.339 302.322C323.131 293.732 319.844 285.568 314.762 278.539Z" fill="#3D3AA9"/>
<g style="mix-blend-mode:color-burn">
<path d="M314.762 278.539L285.212 237.667L442.03 253L435.087 274.899C433.684 279.324 432.97 283.938 432.97 288.581V317.103C432.97 326.352 440.467 333.849 449.715 333.849C452.449 333.849 455.142 333.179 457.558 331.898L469.062 325.8C478.085 321.016 488.143 318.515 498.355 318.515H508.945C528.646 318.515 546.28 330.736 553.197 349.182L572.931 423.768C573.481 425.848 573.851 427.972 574.038 430.115L583.403 537.684L632.652 445.015L652.926 408.21C654.507 405.34 655.793 402.318 656.767 399.189L659.009 391.982C665.203 372.074 685.538 360.157 705.933 364.484C712.5 365.877 719.311 365.61 725.749 363.708L732.49 361.716C741.481 359.06 748.936 352.736 753.023 344.298L762.927 323.85C765.806 317.906 773.065 315.568 778.872 318.714C782.61 320.739 784.939 324.649 784.939 328.901V347.109C784.939 353.963 783.268 360.714 780.07 366.777L777.786 371.107C771.572 382.888 761.699 392.331 749.654 398.016L744.938 400.241C739.841 402.646 734.274 403.894 728.637 403.894C712.805 403.894 698.614 413.661 692.96 428.449L666.106 498.682L634.636 574.735C633.316 577.924 631.686 580.976 629.769 583.846L622.608 594.566C602.004 625.411 555.219 620.344 541.697 585.803L560.167 642.606L301.242 662.818V638.438C301.242 592.541 296.709 546.756 287.708 501.751L285.212 489.273L284.079 485.76C281.029 476.299 266.928 479.406 268.136 489.273L285.212 612.636L223.879 623.091L204.712 564.197L186.242 480.909L172.223 422.449C169.33 410.386 170.31 397.719 175.024 386.244C182.086 369.056 196.829 356.195 214.817 351.531L216.231 351.165C221.309 349.848 226.534 349.182 231.78 349.182H298.69C304.65 349.182 310.455 347.282 315.261 343.757C323.582 337.655 327.876 327.474 326.44 317.257L324.339 302.322C323.131 293.732 319.844 285.568 314.762 278.539Z" fill="#3D3AA9"/>
<path d="M497.788 389.258L524.684 524.587C528.818 545.389 534.505 565.851 541.697 585.803V585.803M541.697 585.803V585.803C555.219 620.344 602.004 625.411 622.608 594.566L629.769 583.846C631.686 580.976 633.316 577.924 634.636 574.735L666.106 498.682L692.96 428.449C698.614 413.661 712.805 403.894 728.637 403.894V403.894C734.274 403.894 739.841 402.646 744.938 400.241L749.654 398.016C761.699 392.331 771.572 382.888 777.786 371.107L780.07 366.777C783.268 360.714 784.939 353.963 784.939 347.109V328.901C784.939 324.649 782.61 320.739 778.872 318.714V318.714C773.065 315.568 765.806 317.906 762.927 323.85L753.023 344.298C748.936 352.736 741.481 359.06 732.49 361.716L725.749 363.708C719.311 365.61 712.5 365.877 705.933 364.484V364.484C685.538 360.157 665.203 372.074 659.009 391.982L656.767 399.189C655.793 402.318 654.507 405.34 652.926 408.21L632.652 445.015L575.211 553.098C574.317 554.782 574.422 556.822 575.487 558.404V558.404C578.464 562.83 585.379 560.387 584.917 555.073L574.038 430.115C573.851 427.972 573.481 425.848 572.931 423.768L553.197 349.182V349.182C546.28 330.736 528.646 318.515 508.945 318.515H498.355C488.143 318.515 478.085 321.016 469.062 325.8L457.558 331.898C455.142 333.179 452.449 333.849 449.715 333.849V333.849C440.467 333.849 432.97 326.352 432.97 317.103V288.581C432.97 283.938 433.684 279.324 435.087 274.899L442.03 253L285.212 237.667L314.762 278.539C319.844 285.568 323.131 293.732 324.339 302.322L326.44 317.257C327.876 327.474 323.582 337.655 315.261 343.757V343.757C310.455 347.282 304.65 349.182 298.69 349.182H231.78C226.534 349.182 221.309 349.848 216.231 351.165L214.817 351.531C196.829 356.195 182.086 369.056 175.024 386.244V386.244C170.31 397.719 169.33 410.386 172.223 422.449L186.242 480.909L204.712 564.197L223.879 623.091L285.212 612.636L268.136 489.273V489.273C266.928 479.406 281.029 476.299 284.079 485.76L285.212 489.273L287.708 501.751C296.709 546.756 301.242 592.541 301.242 638.438V662.818L560.167 642.606L541.697 585.803Z" stroke="#D49357" stroke-width="0.69697"/>
</g>
<g style="mix-blend-mode:soft-light" filter="url(#filter0_f_405_48951)">
<ellipse cx="377.212" cy="298.652" rx="61.6818" ry="65.8636" fill="#3D3AA9"/>
</g>
<mask id="mask2_405_48951" style="mask-type:alpha" maskUnits="userSpaceOnUse" x="222" y="43" width="297" height="228">
<path d="M225.212 183.946L257.311 112.688C268.791 87.2003 289.039 66.6801 314.37 54.8588C329.824 47.6467 346.672 43.9092 363.726 43.9092H382.56C394.488 43.9092 406.342 45.7687 417.696 49.4206C445.005 58.2041 468.033 76.8974 482.243 101.817L484.197 105.243L514.864 173.894L516.461 178.121C522.34 193.685 515.863 211.202 501.273 219.197L464.333 239.061L440.407 254.429C424.857 264.417 406.766 269.727 388.285 269.727C376.587 269.727 364.986 267.599 354.049 263.446L240.224 220.225C229.755 216.25 222.833 206.217 222.833 195.019C222.833 191.202 223.644 187.427 225.212 183.946Z" fill="#3D3AA9" stroke="#D49357" stroke-width="0.69697"/>
</mask>
<g mask="url(#mask2_405_48951)">
<path d="M225.212 183.946L257.311 112.688C268.791 87.2003 289.039 66.6801 314.37 54.8588C329.824 47.6467 346.672 43.9092 363.726 43.9092H382.56C394.488 43.9092 406.342 45.7687 417.696 49.4206C445.005 58.2041 468.033 76.8974 482.243 101.817L484.197 105.243L514.864 173.894L516.461 178.121C522.34 193.685 515.863 211.202 501.273 219.197L464.333 239.061L440.407 254.429C424.857 264.417 406.766 269.727 388.285 269.727C376.587 269.727 364.986 267.599 354.049 263.446L240.224 220.225C229.755 216.25 222.833 206.217 222.833 195.019C222.833 191.202 223.644 187.427 225.212 183.946Z" fill="#3D3AA9" stroke="#D49357" stroke-width="0.69697"/>
<g style="mix-blend-mode:color-burn">
<path d="M225.212 183.946L257.311 112.688C268.791 87.2003 289.039 66.6801 314.37 54.8588C329.824 47.6467 346.672 43.9092 363.726 43.9092H382.56C394.488 43.9092 406.342 45.7687 417.696 49.4206C445.005 58.2041 468.033 76.8974 482.243 101.817L484.197 105.243L514.864 173.894L516.461 178.121C522.34 193.685 515.863 211.202 501.273 219.197L464.333 239.061L440.407 254.429C424.857 264.417 406.766 269.727 388.285 269.727C376.587 269.727 364.986 267.599 354.049 263.446L240.224 220.225C229.755 216.25 222.833 206.217 222.833 195.019C222.833 191.202 223.644 187.427 225.212 183.946Z" fill="#3D3AA9"/>
<path d="M225.212 183.946L257.311 112.688C268.791 87.2003 289.039 66.6801 314.37 54.8588C329.824 47.6467 346.672 43.9092 363.726 43.9092H382.56C394.488 43.9092 406.342 45.7687 417.696 49.4206C445.005 58.2041 468.033 76.8974 482.243 101.817L484.197 105.243L514.864 173.894L516.461 178.121C522.34 193.685 515.863 211.202 501.273 219.197L464.333 239.061L440.407 254.429C424.857 264.417 406.766 269.727 388.285 269.727C376.587 269.727 364.986 267.599 354.049 263.446L240.224 220.225C229.755 216.25 222.833 206.217 222.833 195.019C222.833 191.202 223.644 187.427 225.212 183.946Z" stroke="#D49357" stroke-width="0.69697"/>
</g>
<path d="M225.212 183.946L257.311 112.688C268.791 87.2003 289.039 66.6801 314.37 54.8588C329.824 47.6467 346.672 43.9092 363.726 43.9092H382.56C394.488 43.9092 406.342 45.7687 417.696 49.4206C445.005 58.2041 468.033 76.8974 482.243 101.817L484.197 105.243L514.864 173.894L516.461 178.121C522.34 193.685 515.863 211.202 501.273 219.197L464.333 239.061L440.407 254.429C424.857 264.417 406.766 269.727 388.285 269.727C376.587 269.727 364.986 267.599 354.049 263.446L240.224 220.225C229.755 216.25 222.833 206.217 222.833 195.019C222.833 191.202 223.644 187.427 225.212 183.946Z" fill="#3D3AA9" stroke="#D49357" stroke-width="0.69697"/>
<ellipse cx="291.485" cy="165.182" rx="51.9242" ry="44.6061" fill="#3D3AA9"/>
<ellipse cx="469.212" cy="165.182" rx="51.9242" ry="44.6061" fill="#3D3AA9"/>
<g filter="url(#filter1_f_405_48951)">
<path d="M341.396 202.818H274.757C289.485 217.546 306.938 229.269 326.142 237.333L363.579 253.053C372.807 256.928 382.716 258.924 392.725 258.924C407.387 258.924 421.729 254.643 433.992 246.606L454.018 233.481C462.501 227.921 470.419 221.545 477.66 214.443L503.015 189.576L456.682 199.523C447.017 201.598 436.94 199.011 429.47 192.537C420.685 184.923 408.418 182.774 397.568 186.947L370.216 197.467C361.019 201.004 351.25 202.818 341.396 202.818Z" fill="#3D3AA9"/>
</g>
<g style="mix-blend-mode:soft-light" filter="url(#filter2_f_405_48951)">
<ellipse cx="417.985" cy="126.152" rx="138" ry="81.5455" fill="#3D3AA9"/>
</g>
<g style="mix-blend-mode:soft-light" filter="url(#filter3_f_405_48951)">
<ellipse cx="242" cy="138.349" rx="61.6818" ry="65.8636" fill="#3D3AA9"/>
</g>
</g>
<path d="M359.995 141.363L352.201 139.576C350.405 139.164 348.57 138.957 346.728 138.957L316.924 138.956L345.354 126.963C347.18 126.193 349.102 125.674 351.067 125.421L358.67 124.442C362.03 124.01 365.355 125.469 367.311 128.235L368.071 129.31C370.458 132.686 369.782 137.34 366.533 139.896C364.688 141.349 362.284 141.888 359.995 141.363Z" fill="#3D3AA9"/>
<path d="M430.088 125.588L433.851 124.373C435.463 123.852 437.163 123.664 438.85 123.82L444.765 124.368C452.178 125.055 459.269 127.726 465.293 132.1L465.504 132.253L457.353 133.121C454.133 133.464 451.01 134.432 448.162 135.972C445.068 137.645 441.654 138.642 438.146 138.898L434.854 139.138C434.853 139.138 434.852 139.138 434.851 139.137L430.578 138.118C427.426 137.365 425.307 134.41 425.606 131.183C425.847 128.59 427.61 126.389 430.088 125.588Z" fill="#3D3AA9"/>
<path d="M377.597 213.995L411.605 221.415C415.959 222.365 420.262 219.875 421.683 215.766L422.861 217.306C424.505 219.456 427.651 219.701 429.608 217.833C431.437 216.087 434.455 216.773 435.35 219.138L436.198 221.381C437.156 223.913 435.978 226.753 433.51 227.863L424.433 231.946C422.408 232.856 420.213 233.327 417.993 233.327H375.512C372.939 233.327 370.469 232.313 368.639 230.504C361.672 223.62 368.028 211.907 377.597 213.995Z" fill="#3D3AA9" stroke="#E9ABCC" stroke-width="1.01275"/>
<path d="M279.985 154.03H367.106L366.205 156.327C359.735 172.83 344.32 184.115 326.634 185.297C307.076 186.605 288.855 175.318 281.315 157.224L279.985 154.03Z" fill="#3D3AA9" stroke="#D59357" stroke-width="0.69697"/>
<path d="M490.47 152.636H429.833L431.26 159.952C434.327 175.686 449.33 186.144 465.153 183.578C478.281 181.449 488.392 170.85 489.899 157.635L490.47 152.636Z" fill="#3D3AA9" stroke="#D59357" stroke-width="0.69697"/>
<path d="M320.084 164.306L314.833 154.03H358.045L356.974 161.335C356.321 165.793 353.945 169.817 350.358 172.543C346.59 175.407 341.808 176.593 337.139 175.823L335.469 175.548C328.847 174.455 323.137 170.283 320.084 164.306Z" fill="#3D3AA9"/>
<path d="M443.747 163.725L437.848 152.985H475.136V156.852C475.136 162.068 472.607 166.959 468.352 169.974C463.444 173.452 457.005 173.9 451.663 171.135L450.979 170.781C447.921 169.198 445.404 166.742 443.747 163.725Z" fill="#3D3AA9"/>
<ellipse cx="318.565" cy="161.469" rx="4.42851" ry="3.95402" fill="#3D3AA9"/>
<ellipse cx="441.928" cy="161.469" rx="4.42851" ry="3.95402" fill="#3D3AA9"/>
<path d="M419.514 213.856L413.902 212.645C409.685 211.736 407.502 207.051 409.519 203.238C410.464 201.451 412.185 200.204 414.177 199.864L421.616 198.591C422.183 198.495 422.757 198.446 423.332 198.446L426.329 198.446C430.294 198.446 433.509 201.66 433.509 205.625C433.509 208.726 431.518 211.476 428.573 212.445L425.199 213.555C423.364 214.159 421.402 214.263 419.514 213.856Z" fill="#3D3AA9" stroke="#B55A26" stroke-width="1.01275"/>
<path d="M305.424 336.985L307.275 329.834C309.94 319.537 322.53 315.671 330.515 322.698L425.314 314.932C429.668 314.576 433.294 311.449 434.287 307.194C436.342 298.388 448.069 296.555 452.712 304.314L490.389 367.275C492.063 370.071 493.386 373.063 494.328 376.183L579.682 658.637L305.424 668.046L281.727 492.758L292.53 658.637L218.651 668.046L205.385 599.407C203.564 589.984 199.734 581.064 194.155 573.255C186.063 561.925 181.712 548.349 181.712 534.425V526.086C181.712 520.606 181.227 515.136 180.262 509.74L166.2 431.132C162.517 410.543 167.038 389.331 178.797 372.033C193.7 350.109 218.49 336.985 245 336.985H305.424Z" fill="#3D3AA9"/>
<path d="M486.533 315.031H505.639C525.689 315.031 544.553 324.535 556.485 340.648L563.833 350.571C573.292 363.345 579.105 378.447 580.651 394.266L590.485 494.849L624.376 423.55C626.238 419.633 630.188 417.137 634.525 417.137C638.725 417.137 642.576 414.794 644.505 411.062L647.066 406.113C652.473 395.66 665.58 391.94 675.672 397.995L698.412 411.639C703.162 414.488 704.132 420.963 700.427 425.08C698.972 426.697 698.167 428.795 698.167 430.97V433.733C698.167 435.663 697.817 437.577 697.136 439.383L644.771 578.164C634.333 605.828 607.855 624.137 578.288 624.137C558.722 611.767 544.217 592.816 537.388 570.698L466.732 341.868C464.594 334.943 466.229 327.404 471.044 321.986C474.977 317.562 480.614 315.031 486.533 315.031Z" fill="#3D3AA9"/>
<path fill-rule="evenodd" clip-rule="evenodd" d="M308.479 325.181L307.896 327.434C306.441 333.057 301.367 336.985 295.558 336.985H244.372C218.255 336.985 193.634 350.206 178.951 371.805C167.193 389.103 162.517 410.543 166.2 431.132L180.262 509.74C181.227 515.135 181.712 520.605 181.712 526.086V534.425C181.712 548.348 186.063 561.924 194.156 573.254C199.734 581.064 203.564 589.984 205.385 599.406L218.652 668.046L292.53 658.636L281.727 492.758L305.424 668.046L579.682 658.636L566.646 615.496C570.287 618.646 574.175 621.537 578.288 624.136C607.855 624.136 634.333 605.827 644.771 578.164L697.136 439.383C697.818 437.577 698.167 435.663 698.167 433.733V430.97C698.167 428.795 698.972 426.696 700.427 425.079C704.132 420.963 703.162 414.488 698.412 411.638L675.672 397.994C665.58 391.939 652.473 395.659 647.066 406.112L644.506 411.062C642.576 414.793 638.726 417.136 634.525 417.136C630.188 417.136 626.238 419.632 624.376 423.549L590.485 494.849L580.651 394.266C579.105 378.447 573.292 363.344 563.833 350.57L556.485 340.647C544.553 324.534 525.689 315.03 505.639 315.03H486.534C480.614 315.03 474.977 317.562 471.045 321.986C469.336 323.909 468.027 326.098 467.146 328.433L452.712 304.314C448.069 296.555 436.342 298.387 434.287 307.193C433.294 311.448 429.668 314.575 425.314 314.932L335.305 322.305C332.244 322.555 329.213 321.551 326.907 319.522C320.575 313.95 310.593 317.016 308.479 325.181Z" fill="#3D3AA9"/>
<path fill-rule="evenodd" clip-rule="evenodd" d="M372.838 348.988L372.001 352.22C369.913 360.289 362.633 365.924 354.299 365.924H280.858C243.386 365.924 208.06 384.894 186.994 415.884C170.123 440.702 163.413 471.464 168.698 501.005L188.873 613.79C190.258 621.531 190.955 629.38 190.955 637.243V649.208C190.955 669.185 197.197 688.663 208.808 704.92C216.812 716.125 222.307 728.923 224.92 742.442L243.955 840.924L349.955 827.424L334.455 589.424L368.455 840.924L761.955 827.424L743.25 765.528C748.474 770.047 754.054 774.194 759.955 777.924C802.377 777.924 840.367 751.655 855.343 711.964L930.476 512.843C931.454 510.252 931.955 507.506 931.955 504.736V500.773C931.955 497.651 933.11 494.641 935.198 492.321C940.514 486.414 939.121 477.125 932.307 473.036L899.68 453.46C885.2 444.772 866.394 450.109 858.636 465.107L854.963 472.209C852.193 477.563 846.67 480.924 840.642 480.924C834.42 480.924 828.752 484.506 826.081 490.126L777.455 592.424L763.346 448.11C761.127 425.413 752.786 403.744 739.215 385.417L728.672 371.179C711.552 348.06 684.487 334.424 655.719 334.424H628.307C619.814 334.424 611.726 338.056 606.084 344.404C603.632 347.163 601.754 350.305 600.49 353.655L579.781 319.049C573.119 307.916 556.293 310.545 553.345 323.18C551.921 329.285 546.718 333.772 540.47 334.283L411.327 344.862C406.935 345.221 402.586 343.78 399.278 340.869C390.193 332.875 375.87 337.273 372.838 348.988Z" fill="#3D3AA9"/>
<g style="mix-blend-mode:color-burn">
<path d="M581.12 594.113L588.796 512.754C589.913 500.909 593.098 489.351 598.206 478.606L624.376 423.55C626.238 419.633 630.188 417.137 634.525 417.137C638.725 417.137 642.576 414.794 644.505 411.062L647.066 406.113C652.473 395.66 665.58 391.94 675.672 397.995L698.412 411.639C703.162 414.489 704.132 420.963 700.427 425.08C698.972 426.697 698.167 428.795 698.167 430.97V433.733C698.167 435.663 697.817 437.577 697.136 439.383L634.124 606.38C630.093 617.065 619.866 624.137 608.445 624.137C592.269 624.137 579.601 610.218 581.12 594.113Z" fill="#3D3AA9"/>
</g>
<g style="mix-blend-mode:color-burn">
<path d="M581.12 594.113L588.796 512.754C589.913 500.909 593.098 489.351 598.206 478.606L624.376 423.55C626.238 419.633 630.188 417.137 634.525 417.137C638.725 417.137 642.576 414.794 644.505 411.062L647.066 406.113C652.473 395.66 665.58 391.94 675.672 397.995L698.412 411.639C703.162 414.489 704.132 420.963 700.427 425.08C698.972 426.697 698.167 428.795 698.167 430.97V433.733C698.167 435.663 697.817 437.577 697.136 439.383L634.124 606.38C630.093 617.065 619.866 624.137 608.445 624.137C592.269 624.137 579.601 610.218 581.12 594.113Z" fill="#3D3AA9"/>
</g>
<g style="mix-blend-mode:color-burn">
<path d="M197.742 351.97L208.004 359.161C232.561 376.369 252.173 399.718 264.88 426.878L268.034 433.618C276.594 451.912 281.03 471.863 281.03 492.061V492.061" stroke="#919191" stroke-width="0.69697"/>
</g>
<g style="mix-blend-mode:color-burn">
<path d="M541.348 326.531V326.531C528.715 346.744 520.522 369.412 517.313 393.032L513.47 421.319" stroke="#919191" stroke-width="0.69697"/>
</g>
<g style="mix-blend-mode:color-burn">
<path d="M464.333 330.364L480.014 346.774C498.982 366.625 510.76 392.254 513.47 419.576V419.576L523.227 538.758L546.227 618.561" stroke="#919191" stroke-width="0.69697"/>
</g>
<g style="mix-blend-mode:screen">
<ellipse cx="484.197" cy="395.879" rx="140.788" ry="85.7273" fill="#3D3AA9"/>
</g>
<g style="mix-blend-mode:soft-light" filter="url(#filter4_f_405_48951)">
<ellipse cx="291.485" cy="351.97" rx="83.2879" ry="81.5455" fill="#3D3AA9"/>
</g>
<path d="M279.624 125.208L231.65 164.22C228.257 166.979 223.182 164.565 223.182 160.192C223.182 159.35 222.977 158.52 222.584 157.774L205.758 125.803C202.08 117.867 205.562 108.381 213.424 104.546L220.5 100.265C234.51 91.7901 247.064 81.1158 257.682 68.6516L272.36 55.278C273.027 54.6703 273.626 53.9915 274.145 53.2535C277.54 48.4291 283.87 46.6742 289.264 49.0619L293.945 51.1337C298.605 53.1962 303.906 53.2572 308.612 51.3024L319.294 46.8655C322.351 45.5954 325.538 44.6623 328.798 44.0828L341.252 41.8687C350.571 40.2121 360.018 39.3789 369.483 39.3789H387.843C390.507 39.3789 393.164 39.6453 395.774 40.174L399.471 40.9228C411.717 43.4028 424.329 38.9042 432.241 29.2343C434.113 26.9467 436.277 24.9153 438.679 23.1924L463.918 5.08591C466.05 3.55676 468.308 2.21261 470.668 1.06813L484.829 -5.79769C488.182 -7.42309 492.084 -7.47153 495.475 -5.92984C499.312 -4.18606 502.014 -0.629835 502.666 3.53345L505.58 22.1384C505.96 24.5678 506.151 27.0231 506.151 29.4821V78.7577L502.267 115.208C501.845 119.172 502.538 123.176 504.267 126.768L508.857 136.301C509.955 138.582 509.528 141.305 507.784 143.141C505.66 145.377 502.199 145.673 499.725 143.83L474.139 124.761C469.51 121.311 464.22 118.851 458.599 117.534L428.127 110.397C402.81 104.467 376.554 103.729 350.944 108.228L295.47 117.973C289.657 118.994 284.202 121.485 279.624 125.208Z" fill="#3D3AA9" stroke="#D6C68D" stroke-width="0.69697"/>
<path d="M279.624 125.208L231.65 164.22C228.257 166.979 223.182 164.565 223.182 160.192C223.182 159.35 222.977 158.52 222.584 157.774L205.758 125.803C202.08 117.867 205.562 108.381 213.424 104.546L220.5 100.265C234.51 91.7901 247.064 81.1158 257.682 68.6516L272.36 55.278C273.027 54.6703 273.626 53.9915 274.145 53.2535C277.54 48.4291 283.87 46.6742 289.264 49.0619L293.945 51.1337C298.605 53.1962 303.906 53.2572 308.612 51.3024L319.294 46.8655C322.351 45.5954 325.538 44.6623 328.798 44.0828L341.252 41.8687C350.571 40.2121 360.018 39.3789 369.483 39.3789H387.843C390.507 39.3789 393.164 39.6453 395.774 40.174L399.471 40.9228C411.717 43.4028 424.329 38.9042 432.241 29.2343C434.113 26.9467 436.277 24.9153 438.679 23.1924L463.918 5.08591C466.05 3.55676 468.308 2.21261 470.668 1.06813L484.829 -5.79769C488.182 -7.42309 492.084 -7.47153 495.475 -5.92984C499.312 -4.18606 502.014 -0.629835 502.666 3.53345L505.58 22.1384C505.96 24.5678 506.151 27.0231 506.151 29.4821V78.7577L502.267 115.208C501.845 119.172 502.538 123.176 504.267 126.768L508.857 136.301C509.955 138.582 509.528 141.305 507.784 143.141C505.66 145.377 502.199 145.673 499.725 143.83L474.139 124.761C469.51 121.311 464.22 118.851 458.599 117.534L428.127 110.397C402.81 104.467 376.554 103.729 350.944 108.228L295.47 117.973C289.657 118.994 284.202 121.485 279.624 125.208Z" fill="#3D3AA9" stroke="#D6C68D" stroke-width="0.69697"/>
<g style="mix-blend-mode:multiply">
<path d="M482.106 44.9547L493 9.23259C493.701 6.93406 497.091 7.43949 497.091 9.84253V39.3789L491.515 104.546L473.045 76.6668L482.106 44.9547Z" fill="#3D3AA9"/>
<path d="M482.106 44.9547L493 9.23259C493.701 6.93406 497.091 7.43949 497.091 9.84253V39.3789L491.515 104.546L473.045 76.6668L482.106 44.9547Z" stroke="#CCC695" stroke-width="0.69697"/>
</g>
<path d="M232.939 125.106L209.171 142.041C206.826 143.712 206.098 146.872 207.478 149.401L217.811 168.345C218.884 170.313 221.267 171.157 223.34 170.303C232.689 166.453 241.305 161.018 248.805 154.237L254.698 148.911C271.953 133.312 292.984 122.491 315.707 117.521L325.636 115.349L355.337 110.248C381.251 105.799 407.808 106.81 433.308 113.218L458.285 119.494C461.137 120.211 463.858 121.376 466.345 122.947L501.338 145.048C504.638 147.132 508.939 144.761 508.939 140.858C508.939 140.58 508.963 140.301 509.01 140.027L511.161 127.389C511.499 125.4 510.531 123.417 508.754 122.461L470.184 101.71C458.191 95.2575 445.506 90.1821 432.371 86.5807C416.81 82.3139 400.747 80.1516 384.611 80.1516H376.177C355.347 80.1516 334.383 82.8847 314.235 88.1695C292.362 93.9066 271.141 102.684 251.639 114.13L232.939 125.106Z" fill="#3D3AA9" stroke="#ECB28F" stroke-width="0.69697"/>
<g style="mix-blend-mode:color-burn">
<path d="M232.939 125.106L209.171 142.041C206.826 143.712 206.098 146.872 207.478 149.401L217.811 168.345C218.884 170.313 221.267 171.157 223.34 170.303C232.689 166.453 241.305 161.018 248.805 154.237L254.698 148.911C271.953 133.312 292.984 122.491 315.707 117.521L325.636 115.349L355.337 110.248C381.251 105.799 407.808 106.81 433.308 113.218L458.285 119.494C461.137 120.211 463.858 121.376 466.345 122.947L501.338 145.048C504.638 147.132 508.939 144.761 508.939 140.858C508.939 140.58 508.963 140.301 509.01 140.027L511.161 127.389C511.499 125.4 510.531 123.417 508.754 122.461L470.184 101.71C458.191 95.2575 445.506 90.1821 432.371 86.5807C416.81 82.3139 400.747 80.1516 384.611 80.1516H376.177C355.347 80.1516 334.383 82.8847 314.235 88.1695C292.362 93.9066 271.141 102.684 251.639 114.13L232.939 125.106Z" fill="#3D3AA9"/>
</g>
<g style="mix-blend-mode:color-dodge">
<ellipse cx="450.394" cy="53.6667" rx="132.076" ry="69" fill="#3D3AA9"/>
</g>
<g style="mix-blend-mode:color-burn">
<path d="M408.576 42.1668V42.1668C424.125 46.7401 438.278 55.1418 449.739 66.6025L464.794 81.6575C471.677 88.5413 477.993 95.9711 483.677 103.874L489.424 111.864" stroke="#1D1D1D" stroke-width="0.69697"/>
</g>
<g style="mix-blend-mode:soft-light" opacity="0.8">
<rect x="160.455" y="-8.04828" width="898" height="976.466" fill="#3D3AA9"/>
</g>
<g style="mix-blend-mode:saturation">
<rect x="160.455" y="-0.783142" width="899.453" height="969.201" fill="#3D3AA9"/>
</g>
<g style="mix-blend-mode:color-burn" opacity="0.5">
<rect x="160.455" y="-0.783142" width="899.453" height="969.201" fill="#3D3AA9"/>
</g>
</g>
<mask id="mask3_405_48951" style="mask-type:alpha" maskUnits="userSpaceOnUse" x="-14" y="-11" width="827" height="529">
<rect x="-14" y="-11" width="827" height="529" fill="#D9D9D9"/>
</mask>
<g mask="url(#mask3_405_48951)">
<mask id="mask4_405_48951" style="mask-type:alpha" maskUnits="userSpaceOnUse" x="176" y="-19" width="621" height="676">
<path d="M276.324 35.0586L314.485 52.9711L246.182 161.698L232.591 130.335L217.955 107.683L185.832 55.1485C184.946 53.7007 184.211 52.1663 183.638 50.569L179.817 39.9244C177.061 32.2471 181.318 23.8306 189.136 21.5019C190.453 21.1097 191.819 20.9105 193.193 20.9105H212.885C234.814 20.9105 256.473 25.741 276.324 35.0586Z" fill="#FFDAB8" stroke="#D49357" stroke-width="0.69697"/>
<path d="M325.913 267.389L296.364 226.517L453.182 241.85L446.239 263.748C444.835 268.174 444.121 272.788 444.121 277.43V305.953C444.121 315.201 451.618 322.698 460.867 322.698C463.601 322.698 466.294 322.029 468.71 320.748L480.214 314.649C489.237 309.866 499.294 307.365 509.507 307.365H520.097C539.797 307.365 557.431 319.586 564.349 338.032L584.082 412.618C584.633 414.698 585.003 416.822 585.19 418.965L594.555 526.534L643.803 433.865L664.077 397.06C665.658 394.19 666.945 391.168 667.919 388.039L670.161 380.832C676.354 360.924 696.689 349.007 717.085 353.333C723.652 354.726 730.463 354.46 736.901 352.558L743.642 350.566C752.633 347.91 760.087 341.586 764.174 333.148L774.079 312.7C776.958 306.756 784.216 304.418 790.024 307.563C793.762 309.588 796.091 313.499 796.091 317.75V335.959C796.091 342.813 794.42 349.564 791.222 355.627L788.938 359.957C782.724 371.738 772.851 381.181 760.805 386.865L756.09 389.091C750.992 391.496 745.426 392.744 739.789 392.744C723.957 392.744 709.766 402.511 704.112 417.299L677.258 487.532L645.787 563.585C644.468 566.774 642.838 569.826 640.921 572.696L633.76 583.416C613.156 614.261 566.371 609.194 552.849 574.653L571.318 631.456L312.394 651.668V627.288C312.394 581.391 307.861 535.606 298.859 490.601L296.364 478.123L295.231 474.61C292.181 465.149 278.08 468.256 279.288 478.123L296.364 601.486L235.031 611.941L215.864 553.047L197.394 469.759L183.374 411.299C180.481 399.236 181.462 386.568 186.176 375.094C193.238 357.905 207.981 345.045 225.969 340.381L227.382 340.015C232.461 338.698 237.685 338.032 242.932 338.032H309.842C315.802 338.032 321.607 336.131 326.413 332.607C334.734 326.505 339.028 316.324 337.591 306.107L335.491 291.171C334.283 282.582 330.995 274.418 325.913 267.389Z" fill="#FFDAB8"/>
<path d="M508.94 378.107L535.836 513.437C539.97 534.239 545.657 554.701 552.849 574.653V574.653M552.849 574.653V574.653C566.371 609.194 613.156 614.261 633.76 583.416L640.921 572.696C642.838 569.826 644.468 566.774 645.787 563.585L677.258 487.532L704.112 417.299C709.766 402.511 723.957 392.744 739.789 392.744V392.744C745.426 392.744 750.992 391.496 756.09 389.091L760.805 386.865C772.851 381.181 782.724 371.738 788.938 359.957L791.222 355.627C794.42 349.564 796.091 342.813 796.091 335.959V317.75C796.091 313.499 793.762 309.588 790.024 307.563V307.563C784.216 304.418 776.958 306.756 774.079 312.7L764.174 333.148C760.087 341.586 752.633 347.91 743.642 350.566L736.901 352.558C730.463 354.46 723.652 354.726 717.085 353.333V353.333C696.689 349.007 676.354 360.924 670.161 380.832L667.919 388.039C666.945 391.168 665.658 394.19 664.077 397.06L643.803 433.865L586.363 541.948C585.468 543.631 585.574 545.672 586.639 547.254V547.254C589.616 551.679 596.531 549.237 596.068 543.923L585.19 418.965C585.003 416.822 584.633 414.698 584.082 412.618L564.349 338.032V338.032C557.431 319.586 539.797 307.365 520.097 307.365H509.507C499.294 307.365 489.237 309.866 480.214 314.649L468.71 320.748C466.294 322.029 463.601 322.698 460.867 322.698V322.698C451.618 322.698 444.121 315.201 444.121 305.953V277.43C444.121 272.788 444.835 268.174 446.239 263.748L453.182 241.85L296.364 226.517L325.913 267.389C330.995 274.418 334.283 282.582 335.491 291.171L337.591 306.107C339.028 316.324 334.734 326.505 326.413 332.607V332.607C321.607 336.131 315.802 338.032 309.842 338.032H242.932C237.685 338.032 232.461 338.698 227.382 340.015L225.969 340.381C207.981 345.045 193.238 357.905 186.176 375.094V375.094C181.462 386.568 180.481 399.236 183.374 411.299L197.394 469.759L215.864 553.047L235.031 611.941L296.364 601.486L279.288 478.123V478.123C278.08 468.256 292.181 465.149 295.231 474.61L296.364 478.123L298.859 490.601C307.861 535.606 312.394 581.391 312.394 627.288V651.668L571.318 631.456L552.849 574.653Z" stroke="#D49357" stroke-width="0.69697"/>
<path d="M236.364 172.796L268.462 101.537C279.943 76.0501 300.19 55.5299 325.521 43.7087C340.976 36.4966 357.823 32.759 374.878 32.759H393.712C405.639 32.759 417.494 34.6185 428.848 38.2705C456.157 47.0539 479.185 65.7472 493.395 90.6666L495.349 94.0923L526.015 162.744L527.612 166.971C533.492 182.535 527.015 200.052 512.424 208.047L475.485 227.911L451.559 243.279C436.009 253.267 417.918 258.577 399.437 258.577C387.738 258.577 376.137 256.449 365.201 252.296L251.375 209.075C240.907 205.099 233.985 195.067 233.985 183.869C233.985 180.051 234.796 176.277 236.364 172.796Z" fill="#FFDAB8" stroke="#D49357" stroke-width="0.69697"/>
<path d="M319.048 316.283L319.631 314.031C321.744 305.865 331.727 302.8 338.059 308.372C340.364 310.401 343.396 311.405 346.457 311.154L436.465 303.782C440.82 303.425 444.446 300.298 445.439 296.043C447.494 287.237 459.221 285.404 463.864 293.164L501.541 356.124C503.215 358.921 504.538 361.912 505.48 365.032L590.834 647.486L316.576 656.895L292.879 481.607L303.682 647.486L229.803 656.895L216.537 588.256C214.716 578.833 210.886 569.914 205.307 562.104C197.214 550.774 192.864 537.198 192.864 523.275V514.936C192.864 509.455 192.378 503.985 191.413 498.59L177.351 419.982C173.668 399.393 178.345 377.952 190.103 360.655C204.786 339.056 229.407 325.835 255.524 325.835H306.71C312.519 325.835 317.593 321.907 319.048 316.283Z" fill="#FFDAB8"/>
<path d="M497.685 303.88H516.791C536.841 303.88 555.704 313.384 567.636 329.497L574.984 339.42C584.443 352.194 590.256 367.296 591.803 383.116L601.637 483.698L635.528 412.399C637.39 408.482 641.339 405.986 645.676 405.986C649.877 405.986 653.727 403.643 655.657 399.912L658.218 394.962C663.624 384.509 676.732 380.789 686.824 386.844L709.564 400.488C714.313 403.338 715.284 409.812 711.579 413.929C710.124 415.546 709.318 417.644 709.318 419.82V422.582C709.318 424.512 708.969 426.427 708.288 428.232L655.922 567.014C645.484 594.677 619.007 612.986 589.44 612.986C569.873 600.617 555.369 581.665 548.539 559.548L477.884 330.718C475.746 323.792 477.381 316.253 482.196 310.836C486.129 306.412 491.766 303.88 497.685 303.88Z" fill="#FFDAB8"/>
<path d="M290.775 114.058L242.801 153.07C239.409 155.829 234.334 153.415 234.334 149.042C234.334 148.199 234.128 147.369 233.736 146.624L216.909 114.653C213.231 106.716 216.714 97.2304 224.576 93.3954L231.652 89.1148C245.661 80.6399 258.216 69.9656 268.834 57.5014L283.512 44.1278C284.179 43.5201 284.777 42.8413 285.297 42.1033C288.692 37.2789 295.021 35.524 300.416 37.9117L305.097 39.9835C309.756 42.046 315.058 42.107 319.764 40.1522L330.445 35.7153C333.503 34.4452 336.69 33.5121 339.95 32.9325L352.404 30.7185C361.723 29.0619 371.169 28.2287 380.634 28.2287H398.995C401.658 28.2287 404.315 28.495 406.926 29.0238L410.623 29.7726C422.868 32.2526 435.481 27.754 443.393 18.0841C445.264 15.7965 447.429 13.7651 449.83 12.0422L475.07 -6.0643C477.201 -7.59344 479.46 -8.9376 481.82 -10.0821L495.981 -16.9479C499.333 -18.5733 503.235 -18.6217 506.627 -17.08C510.463 -15.3363 513.165 -11.78 513.818 -7.61676L516.732 10.9882C517.112 13.4176 517.303 15.8729 517.303 18.3319V67.6075L513.419 104.058C512.997 108.022 513.689 112.026 515.419 115.618L520.009 125.151C521.107 127.432 520.68 130.155 518.936 131.991C516.811 134.227 513.351 134.523 510.877 132.68L485.291 113.611C480.662 110.161 475.372 107.701 469.751 106.384L439.278 99.2464C413.962 93.3163 387.706 92.5785 362.096 97.0775L306.622 106.823C300.809 107.844 295.354 110.335 290.775 114.058Z" fill="#FFDAB8" stroke="#D6C68D" stroke-width="0.69697"/>
<path d="M244.091 113.956L220.323 130.891C217.977 132.562 217.25 135.722 218.629 138.251L228.962 157.195C230.036 159.162 232.419 160.006 234.491 159.153C243.841 155.303 252.456 149.868 259.957 143.087L265.85 137.76C283.105 122.162 304.136 111.341 326.859 106.37L336.788 104.198L366.489 99.0982C392.403 94.6484 418.96 95.6597 444.46 102.067L469.436 108.344C472.289 109.06 475.01 110.226 477.497 111.797L512.49 133.898C515.789 135.981 520.091 133.61 520.091 129.708C520.091 129.429 520.115 129.151 520.161 128.877L522.312 116.239C522.651 114.25 521.683 112.267 519.906 111.311L481.336 90.56C469.343 84.1073 456.658 79.0319 443.523 75.4305C427.962 71.1637 411.899 69.0014 395.763 69.0014H387.329C366.499 69.0014 345.535 71.7345 325.387 77.0193C303.514 82.7564 282.293 91.5333 262.791 102.98L244.091 113.956Z" fill="#FFDAB8"/>
</mask>
<g mask="url(#mask4_405_48951)">
<path d="M276.324 35.0582L314.485 52.9706L246.182 161.698L232.591 130.334L217.955 107.683L185.832 55.148C184.946 53.7002 184.211 52.1658 183.638 50.5686L179.817 39.9239C177.061 32.2466 181.318 23.8301 189.136 21.5015C190.453 21.1092 191.819 20.91 193.193 20.91H212.885C234.814 20.91 256.473 25.7405 276.324 35.0582Z" fill="#FBB778" stroke="#D49357" stroke-width="0.69697"/>
<path d="M276.324 35.0582L314.485 52.9706L246.182 161.698L232.591 130.334L217.955 107.683L185.832 55.148C184.946 53.7002 184.211 52.1658 183.638 50.5686L179.817 39.9239C177.061 32.2466 181.318 23.8301 189.136 21.5015C190.453 21.1092 191.819 20.91 193.193 20.91H212.885C234.814 20.91 256.473 25.7405 276.324 35.0582Z" fill="url(#paint0_linear_405_48951)" stroke="#D49357" stroke-width="0.69697"/>
<g style="mix-blend-mode:color-burn">
<path d="M276.324 35.0582L314.485 52.9706L246.182 161.698L232.591 130.334L217.955 107.683L185.832 55.148C184.946 53.7002 184.211 52.1658 183.638 50.5686L179.817 39.9239C177.061 32.2466 181.318 23.8301 189.136 21.5015C190.453 21.1092 191.819 20.91 193.193 20.91H212.885C234.814 20.91 256.473 25.7405 276.324 35.0582Z" fill="url(#paint1_linear_405_48951)"/>
<path d="M276.324 35.0582L314.485 52.9706L246.182 161.698L232.591 130.334L217.955 107.683L185.832 55.148C184.946 53.7002 184.211 52.1658 183.638 50.5686L179.817 39.9239C177.061 32.2466 181.318 23.8301 189.136 21.5015C190.453 21.1092 191.819 20.91 193.193 20.91H212.885C234.814 20.91 256.473 25.7405 276.324 35.0582Z" stroke="#D49357" stroke-width="0.69697"/>
</g>
<path d="M263.714 72.2592L284.864 88.516L256.288 153.683L231.894 111.516L204.364 60.9857L199.174 50.1969C196.335 44.2935 202.259 37.9931 208.326 40.4647C228.13 48.533 246.76 59.2269 263.714 72.2592Z" fill="url(#paint2_linear_405_48951)" stroke="#FDE2B7" stroke-width="0.69697"/>
<path d="M445.999 25.2236L434.712 37.2888L424.606 47.0464L503.015 123.713L508.939 47.0464V13.5684C508.939 11.277 508.556 9.00169 507.805 6.83686L505.858 1.22476C504.156 -3.68012 499.534 -6.96875 494.343 -6.96875C492.04 -6.96875 489.785 -6.31662 487.838 -5.08786L465.973 8.7103C458.637 13.3396 451.925 18.8891 445.999 25.2236Z" fill="#FBB778" stroke="#D49357" stroke-width="0.69697"/>
<path d="M445.999 25.2236L434.712 37.2888L424.606 47.0464L503.015 123.713L508.939 47.0464V13.5684C508.939 11.277 508.556 9.00169 507.805 6.83686L505.858 1.22476C504.156 -3.68012 499.534 -6.96875 494.343 -6.96875C492.04 -6.96875 489.785 -6.31662 487.838 -5.08786L465.973 8.7103C458.637 13.3396 451.925 18.8891 445.999 25.2236Z" fill="url(#paint3_linear_405_48951)" stroke="#D49357" stroke-width="0.69697"/>
<g style="mix-blend-mode:color-burn">
<path d="M445.999 25.2236L434.712 37.2888L424.606 47.0464L503.015 123.713L508.939 47.0464V13.5684C508.939 11.277 508.556 9.00169 507.805 6.83686L505.858 1.22476C504.156 -3.68012 499.534 -6.96875 494.343 -6.96875C492.04 -6.96875 489.785 -6.31662 487.838 -5.08786L465.973 8.7103C458.637 13.3396 451.925 18.8891 445.999 25.2236Z" fill="url(#paint4_linear_405_48951)"/>
<path d="M445.999 25.2236L434.712 37.2888L424.606 47.0464L503.015 123.713L508.939 47.0464V13.5684C508.939 11.277 508.556 9.00169 507.805 6.83686L505.858 1.22476C504.156 -3.68012 499.534 -6.96875 494.343 -6.96875C492.04 -6.96875 489.785 -6.31662 487.838 -5.08786L465.973 8.7103C458.637 13.3396 451.925 18.8891 445.999 25.2236Z" stroke="#D49357" stroke-width="0.69697"/>
</g>
<path d="M490.818 50.1828L501.712 14.4607C502.413 12.1622 505.803 12.6676 505.803 15.0707V44.6071L498.834 120.925L480.364 93.0464L490.818 50.1828Z" fill="url(#paint5_linear_405_48951)" stroke="#FDE2B7" stroke-width="0.69697"/>
<path d="M325.913 267.388L296.364 226.516L452.833 241.849L446.099 263.939C444.788 268.239 444.121 272.71 444.121 277.206V305.953C444.121 315.201 451.618 322.698 460.866 322.698C463.601 322.698 466.294 322.028 468.709 320.748L480.214 314.649C489.237 309.866 499.294 307.365 509.507 307.365H520.097C539.797 307.365 557.431 319.585 564.349 338.031L584.082 412.617C584.632 414.698 585.003 416.821 585.19 418.965L594.554 526.534L643.803 433.865L664.077 397.059C665.658 394.189 666.945 391.167 667.918 388.038L670.161 380.832C676.354 360.923 696.689 349.007 717.085 353.333C723.652 354.726 730.463 354.459 736.901 352.557L743.641 350.566C752.633 347.909 760.087 341.585 764.174 333.148L774.079 312.699C776.958 306.755 784.216 304.417 790.024 307.563C793.762 309.588 796.091 313.498 796.091 317.75V335.958C796.091 342.813 794.42 349.563 791.222 355.626L788.938 359.956C782.724 371.737 772.851 381.181 760.805 386.865L756.09 389.09C750.992 391.496 745.425 392.743 739.789 392.743C723.957 392.743 709.766 402.51 704.112 417.298L677.258 487.531L645.787 563.585C644.468 566.774 642.838 569.825 640.921 572.695L633.76 583.415C613.156 614.26 566.371 609.193 552.849 574.652L571.318 631.456L312.394 651.668V627.287C312.394 581.39 307.86 535.606 298.859 490.6L296.364 478.122L295.231 474.609C292.18 465.149 278.08 468.256 279.288 478.122L296.364 601.486L235.03 611.94L215.864 553.046L197.394 469.759L183.374 411.299C180.481 399.236 181.462 386.568 186.176 375.094C193.238 357.905 207.981 345.044 225.969 340.381L227.382 340.014C232.46 338.698 237.685 338.031 242.932 338.031H309.841C315.802 338.031 321.607 336.131 326.413 332.606C334.734 326.504 339.028 316.324 337.591 306.106L335.491 291.171C334.283 282.582 330.995 274.418 325.913 267.388Z" fill="url(#paint6_linear_405_48951)"/>
<g style="mix-blend-mode:color-burn">
<path d="M325.913 267.388L296.364 226.516L453.182 241.849L446.238 263.748C444.835 268.173 444.121 272.788 444.121 277.43V305.953C444.121 315.201 451.618 322.698 460.866 322.698C463.601 322.698 466.294 322.028 468.709 320.748L480.214 314.649C489.237 309.866 499.294 307.365 509.507 307.365H520.097C539.797 307.365 557.431 319.585 564.349 338.031L584.082 412.617C584.632 414.698 585.003 416.821 585.19 418.965L594.554 526.534L643.803 433.865L664.077 397.059C665.658 394.189 666.945 391.167 667.918 388.038L670.161 380.832C676.354 360.923 696.689 349.007 717.085 353.333C723.652 354.726 730.463 354.459 736.901 352.557L743.641 350.566C752.633 347.909 760.087 341.585 764.174 333.148L774.079 312.699C776.958 306.755 784.216 304.417 790.024 307.563C793.762 309.588 796.091 313.498 796.091 317.75V335.958C796.091 342.813 794.42 349.563 791.222 355.626L788.938 359.956C782.724 371.737 772.851 381.181 760.805 386.865L756.09 389.09C750.992 391.496 745.425 392.743 739.789 392.743C723.957 392.743 709.766 402.51 704.112 417.298L677.258 487.531L645.787 563.585C644.468 566.774 642.838 569.825 640.921 572.695L633.76 583.415C613.156 614.26 566.371 609.193 552.849 574.652L571.318 631.456L312.394 651.668V627.287C312.394 581.39 307.86 535.606 298.859 490.6L296.364 478.122L295.231 474.609C292.18 465.149 278.08 468.256 279.288 478.122L296.364 601.486L235.03 611.94L215.864 553.046L197.394 469.759L183.374 411.299C180.481 399.236 181.462 386.568 186.176 375.094C193.238 357.905 207.981 345.044 225.969 340.381L227.382 340.014C232.46 338.698 237.685 338.031 242.932 338.031H309.841C315.802 338.031 321.607 336.131 326.413 332.606C334.734 326.504 339.028 316.324 337.591 306.106L335.491 291.171C334.283 282.582 330.995 274.418 325.913 267.388Z" fill="url(#paint7_linear_405_48951)"/>
<path d="M508.939 378.107L535.836 513.437C539.97 534.238 545.657 554.701 552.849 574.652V574.652M552.849 574.652V574.652C566.371 609.193 613.156 614.26 633.76 583.415L640.921 572.695C642.838 569.825 644.468 566.774 645.787 563.585L677.258 487.531L704.111 417.298C709.766 402.51 723.957 392.743 739.789 392.743V392.743C745.425 392.743 750.992 391.496 756.09 389.09L760.805 386.865C772.851 381.181 782.724 371.737 788.938 359.956L791.222 355.626C794.42 349.563 796.091 342.813 796.091 335.958V317.75C796.091 313.498 793.762 309.588 790.024 307.563V307.563C784.216 304.417 776.958 306.755 774.079 312.699L764.174 333.148C760.087 341.585 752.633 347.909 743.641 350.566L736.901 352.557C730.463 354.459 723.652 354.726 717.085 353.333V353.333C696.689 349.007 676.354 360.923 670.161 380.832L667.918 388.038C666.945 391.167 665.658 394.189 664.077 397.059L643.803 433.865L586.363 541.947C585.468 543.631 585.574 545.671 586.638 547.253V547.253C589.616 551.679 596.531 549.236 596.068 543.923L585.19 418.965C585.003 416.821 584.632 414.698 584.082 412.617L564.349 338.031V338.031C557.431 319.585 539.797 307.365 520.097 307.365H509.507C499.294 307.365 489.237 309.866 480.214 314.649L468.709 320.748C466.294 322.028 463.601 322.698 460.866 322.698V322.698C451.618 322.698 444.121 315.201 444.121 305.953V277.43C444.121 272.788 444.835 268.173 446.238 263.748L453.182 241.849L296.364 226.516L325.913 267.388C330.995 274.418 334.283 282.582 335.491 291.171L337.591 306.106C339.028 316.324 334.734 326.504 326.413 332.606V332.606C321.607 336.131 315.802 338.031 309.841 338.031H242.932C237.685 338.031 232.46 338.698 227.382 340.014L225.969 340.381C207.981 345.044 193.238 357.905 186.176 375.094V375.094C181.462 386.568 180.481 399.236 183.374 411.299L197.394 469.759L215.864 553.046L235.03 611.94L296.364 601.486L279.288 478.122V478.122C278.08 468.256 292.18 465.149 295.231 474.609L296.364 478.122L298.859 490.6C307.86 535.606 312.394 581.39 312.394 627.287V651.668L571.318 631.456L552.849 574.652Z" stroke="#D49357" stroke-width="0.69697"/>
</g>
<g style="mix-blend-mode:soft-light" filter="url(#filter5_f_405_48951)">
<ellipse cx="388.364" cy="287.501" rx="61.6818" ry="65.8636" fill="#88FFEA"/>
</g>
<mask id="mask5_405_48951" style="mask-type:alpha" maskUnits="userSpaceOnUse" x="233" y="32" width="298" height="227">
<path d="M236.364 172.796L268.462 101.537C279.943 76.0496 300.19 55.5294 325.521 43.7082C340.976 36.4961 357.823 32.7585 374.878 32.7585H393.712C405.639 32.7585 417.493 34.618 428.848 38.27C456.156 47.0534 479.185 65.7467 493.395 90.6662L495.349 94.0918L526.015 162.743L527.612 166.971C533.492 182.534 527.015 200.052 512.424 208.046L475.485 227.91L451.559 243.279C436.009 253.267 417.917 258.577 399.437 258.577C387.738 258.577 376.137 256.448 365.201 252.296L251.375 209.074C240.907 205.099 233.985 195.067 233.985 183.869C233.985 180.051 234.796 176.277 236.364 172.796Z" fill="#FBB778" stroke="#D49357" stroke-width="0.69697"/>
</mask>
<g mask="url(#mask5_405_48951)">
<path d="M236.364 172.796L268.462 101.537C279.943 76.0496 300.19 55.5294 325.521 43.7082C340.976 36.4961 357.823 32.7585 374.878 32.7585H393.712C405.639 32.7585 417.493 34.618 428.848 38.27C456.156 47.0534 479.185 65.7467 493.395 90.6662L495.349 94.0918L526.015 162.743L527.612 166.971C533.492 182.534 527.015 200.052 512.424 208.046L475.485 227.91L451.559 243.279C436.009 253.267 417.917 258.577 399.437 258.577C387.738 258.577 376.137 256.448 365.201 252.296L251.375 209.074C240.907 205.099 233.985 195.067 233.985 183.869C233.985 180.051 234.796 176.277 236.364 172.796Z" fill="url(#paint8_linear_405_48951)" stroke="#D49357" stroke-width="0.69697"/>
<g style="mix-blend-mode:color-burn">
<path d="M236.364 172.796L268.462 101.537C279.943 76.0496 300.19 55.5294 325.521 43.7082C340.976 36.4961 357.823 32.7585 374.878 32.7585H393.712C405.639 32.7585 417.493 34.618 428.848 38.27C456.156 47.0534 479.185 65.7467 493.395 90.6662L495.349 94.0918L526.015 162.743L527.612 166.971C533.492 182.534 527.015 200.052 512.424 208.046L475.485 227.91L451.559 243.279C436.009 253.267 417.917 258.577 399.437 258.577C387.738 258.577 376.137 256.448 365.201 252.296L251.375 209.074C240.907 205.099 233.985 195.067 233.985 183.869C233.985 180.051 234.796 176.277 236.364 172.796Z" fill="url(#paint9_linear_405_48951)"/>
<path d="M236.364 172.796L268.462 101.537C279.943 76.0496 300.19 55.5294 325.521 43.7082C340.976 36.4961 357.823 32.7585 374.878 32.7585H393.712C405.639 32.7585 417.493 34.618 428.848 38.27C456.156 47.0534 479.185 65.7467 493.395 90.6662L495.349 94.0918L526.015 162.743L527.612 166.971C533.492 182.534 527.015 200.052 512.424 208.046L475.485 227.91L451.559 243.279C436.009 253.267 417.917 258.577 399.437 258.577C387.738 258.577 376.137 256.448 365.201 252.296L251.375 209.074C240.907 205.099 233.985 195.067 233.985 183.869C233.985 180.051 234.796 176.277 236.364 172.796Z" stroke="#D49357" stroke-width="0.69697"/>
</g>
<path d="M236.364 172.796L268.462 101.537C279.943 76.0496 300.19 55.5294 325.521 43.7082C340.976 36.4961 357.823 32.7585 374.878 32.7585H393.712C405.639 32.7585 417.493 34.618 428.848 38.27C456.156 47.0534 479.185 65.7467 493.395 90.6662L495.349 94.0918L526.015 162.743L527.612 166.971C533.492 182.534 527.015 200.052 512.424 208.046L475.485 227.91L451.559 243.279C436.009 253.267 417.917 258.577 399.437 258.577C387.738 258.577 376.137 256.448 365.201 252.296L251.375 209.074C240.907 205.099 233.985 195.067 233.985 183.869C233.985 180.051 234.796 176.277 236.364 172.796Z" fill="url(#paint10_linear_405_48951)" stroke="#D49357" stroke-width="0.69697"/>
<ellipse cx="302.636" cy="154.031" rx="51.9242" ry="44.6061" fill="url(#paint11_radial_405_48951)"/>
<ellipse cx="480.364" cy="154.031" rx="51.9242" ry="44.6061" fill="url(#paint12_radial_405_48951)"/>
<g filter="url(#filter6_f_405_48951)">
<path d="M352.548 191.667H285.909C300.637 206.395 318.089 218.118 337.294 226.182L374.73 241.902C383.959 245.777 393.868 247.773 403.877 247.773C418.538 247.773 432.881 243.492 445.143 235.455L465.17 222.33C473.652 216.77 481.571 210.394 488.812 203.292L514.167 178.425L467.834 188.372C458.169 190.447 448.092 187.86 440.622 181.386C431.837 173.772 419.57 171.623 408.72 175.796L381.368 186.316C372.171 189.853 362.401 191.667 352.548 191.667Z" fill="url(#paint13_linear_405_48951)"/>
</g>
<g style="mix-blend-mode:soft-light" filter="url(#filter7_f_405_48951)">
<ellipse cx="429.136" cy="115.001" rx="138" ry="81.5455" fill="#88FFEA"/>
</g>
<g style="mix-blend-mode:soft-light" filter="url(#filter8_f_405_48951)">
<ellipse cx="253.152" cy="127.198" rx="61.6818" ry="65.8636" fill="#88FFEA"/>
</g>
</g>
<path d="M371.147 130.213L363.352 128.426C361.557 128.015 359.722 127.807 357.88 127.807L328.076 127.807L356.506 115.814C358.332 115.043 360.254 114.525 362.219 114.271L369.822 113.293C373.182 112.86 376.507 114.319 378.463 117.085L379.223 118.16C381.61 121.536 380.934 126.19 377.685 128.746C375.84 130.199 373.436 130.738 371.147 130.213Z" fill="url(#paint14_linear_405_48951)"/>
<path d="M441.24 114.439L445.003 113.223C446.614 112.702 448.315 112.514 450.002 112.67L455.917 113.219C463.33 113.905 470.421 116.576 476.445 120.95L476.656 121.103L468.505 121.971C465.284 122.314 462.162 123.282 459.313 124.822C456.219 126.495 452.806 127.492 449.298 127.748L446.006 127.988C446.005 127.988 446.004 127.988 446.003 127.987L441.73 126.968C438.578 126.215 436.459 123.26 436.758 120.034C436.998 117.44 438.761 115.239 441.24 114.439Z" fill="url(#paint15_linear_405_48951)"/>
<path d="M388.748 202.844L422.757 210.264C427.111 211.214 431.414 208.725 432.835 204.615L434.013 206.156C435.656 208.305 438.803 208.551 440.76 206.682C442.589 204.937 445.606 205.622 446.501 207.987L447.35 210.23C448.308 212.762 447.13 215.602 444.661 216.712L435.584 220.795C433.56 221.706 431.365 222.177 429.144 222.177H386.664C384.091 222.177 381.621 221.162 379.791 219.354C372.824 212.47 379.18 200.756 388.748 202.844Z" fill="url(#paint16_radial_405_48951)" stroke="#E9ABCC" stroke-width="1.01275"/>
<path d="M291.137 142.88H378.258L377.357 145.177C370.887 161.68 355.472 172.965 337.786 174.148C318.227 175.455 300.006 164.168 292.467 146.074L291.137 142.88Z" fill="white" stroke="#D59357" stroke-width="0.69697"/>
<path d="M501.621 141.486H440.985L442.411 148.803C445.479 164.536 460.482 174.994 476.305 172.428C489.433 170.3 499.544 159.7 501.051 146.486L501.621 141.486Z" fill="white" stroke="#D59357" stroke-width="0.69697"/>
<path d="M331.235 153.156L325.985 142.88H369.197L368.126 150.185C367.472 154.643 365.097 158.667 361.51 161.394C357.741 164.258 352.96 165.444 348.29 164.673L346.621 164.398C339.999 163.305 334.289 159.133 331.235 153.156Z" fill="url(#paint17_linear_405_48951)"/>
<path d="M454.898 152.575L449 141.835H486.288V145.702C486.288 150.918 483.759 155.809 479.504 158.825C474.595 162.302 468.157 162.75 462.815 159.985L462.13 159.631C459.073 158.049 456.555 155.592 454.898 152.575Z" fill="url(#paint18_linear_405_48951)"/>
<ellipse cx="329.717" cy="150.319" rx="4.42851" ry="3.95402" fill="white"/>
<ellipse cx="453.08" cy="150.319" rx="4.42851" ry="3.95402" fill="white"/>
<path d="M430.666 202.705L425.053 201.494C420.837 200.585 418.654 195.9 420.67 192.087C421.615 190.3 423.336 189.054 425.329 188.713L432.768 187.441C433.335 187.344 433.909 187.295 434.483 187.295L437.481 187.295C441.446 187.295 444.66 190.51 444.66 194.475C444.66 197.575 442.67 200.325 439.725 201.294L436.35 202.405C434.516 203.008 432.554 203.112 430.666 202.705Z" fill="url(#paint19_radial_405_48951)" stroke="#B55A26" stroke-width="1.01275"/>
<path d="M316.576 325.835L318.427 318.683C321.092 308.386 333.682 304.52 341.667 311.547L436.465 303.782C440.82 303.425 444.446 300.298 445.439 296.043C447.494 287.237 459.221 285.404 463.864 293.164L501.541 356.124C503.215 358.92 504.538 361.912 505.48 365.032L590.834 647.486L316.576 656.895L292.879 481.607L303.682 647.486L229.803 656.895L216.537 588.256C214.716 578.833 210.886 569.913 205.307 562.104C197.214 550.774 192.864 537.198 192.864 523.275V514.935C192.864 509.455 192.378 503.985 191.413 498.59L177.351 419.982C173.668 399.393 178.19 378.18 189.948 360.882C204.852 338.958 229.642 325.835 256.152 325.835H316.576Z" fill="#F1F3FF"/>
<path d="M497.685 303.88H516.791C536.841 303.88 555.704 313.384 567.636 329.497L574.984 339.42C584.443 352.194 590.256 367.296 591.803 383.115L601.637 483.698L635.528 412.399C637.39 408.482 641.339 405.986 645.676 405.986C649.877 405.986 653.727 403.643 655.657 399.912L658.218 394.962C663.624 384.509 676.732 380.789 686.824 386.844L709.564 400.488C714.313 403.338 715.284 409.812 711.579 413.929C710.124 415.546 709.318 417.644 709.318 419.82V422.582C709.318 424.512 708.969 426.426 708.288 428.232L655.922 567.014C645.484 594.677 619.007 612.986 589.44 612.986C569.873 600.617 555.369 581.665 548.539 559.547L477.884 330.718C475.746 323.792 477.381 316.253 482.196 310.836C486.129 306.411 491.766 303.88 497.685 303.88Z" fill="#E0E5FF"/>
<path fill-rule="evenodd" clip-rule="evenodd" d="M319.631 314.031L319.048 316.284C317.592 321.907 312.518 325.835 306.71 325.835H255.524C229.407 325.835 204.785 339.056 190.103 360.655C178.344 377.953 173.668 399.393 177.351 419.982L191.413 498.59C192.378 503.985 192.864 509.455 192.864 514.936V523.275C192.864 537.199 197.214 550.774 205.307 562.104C210.885 569.914 214.715 578.834 216.537 588.256L229.803 656.896L303.682 647.486L292.879 481.608L316.576 656.896L590.833 647.486L577.797 604.346C581.438 607.496 585.327 610.387 589.439 612.986C619.007 612.986 645.484 594.677 655.922 567.014L708.288 428.233C708.969 426.427 709.318 424.513 709.318 422.583V419.82C709.318 417.645 710.123 415.546 711.579 413.929C715.284 409.813 714.313 403.338 709.564 400.488L686.823 386.844C676.732 380.789 663.624 384.509 658.217 394.962L655.657 399.912C653.727 403.643 649.877 405.986 645.676 405.986C641.339 405.986 637.389 408.482 635.527 412.399L601.636 483.699L591.803 383.116C590.256 367.297 584.443 352.194 574.984 339.42L567.636 329.498C555.704 313.384 536.841 303.88 516.791 303.88H497.685C491.766 303.88 486.129 306.412 482.196 310.836C480.487 312.759 479.179 314.948 478.297 317.283L463.864 293.164C459.22 285.405 447.493 287.237 445.439 296.043C444.446 300.298 440.82 303.425 436.465 303.782L346.457 311.155C343.396 311.405 340.364 310.401 338.059 308.372C331.727 302.8 321.744 305.866 319.631 314.031Z" fill="url(#paint20_linear_405_48951)"/>
<path fill-rule="evenodd" clip-rule="evenodd" d="M319.631 314.031L319.048 316.284C317.592 321.907 312.518 325.835 306.709 325.835H255.524C229.407 325.835 204.785 339.056 190.103 360.655C178.344 377.953 173.668 399.393 177.351 419.982L191.413 498.59C192.378 503.985 192.863 509.455 192.863 514.936V523.275C192.863 537.199 197.214 550.774 205.307 562.104C210.885 569.914 214.715 578.834 216.536 588.256L229.803 656.896L303.682 647.486L292.879 481.608L316.576 656.896L590.833 647.486L577.797 604.346C581.438 607.496 585.327 610.387 589.439 612.986C619.006 612.986 645.484 594.677 655.922 567.014L708.287 428.233C708.969 426.427 709.318 424.513 709.318 422.583V419.82C709.318 417.645 710.123 415.546 711.578 413.929C715.284 409.813 714.313 403.338 709.564 400.488L686.823 386.844C676.732 380.789 663.624 384.509 658.217 394.962L655.657 399.912C653.727 403.643 649.877 405.986 645.676 405.986C641.339 405.986 637.389 408.482 635.527 412.399L601.636 483.699L591.803 383.116C590.256 367.297 584.443 352.194 574.984 339.42L567.636 329.498C555.704 313.384 536.841 303.88 516.79 303.88H497.685C491.765 303.88 486.129 306.412 482.196 310.836C480.487 312.759 479.178 314.948 478.297 317.283L463.864 293.164C459.22 285.405 447.493 287.237 445.439 296.043C444.446 300.298 440.82 303.425 436.465 303.782L346.457 311.155C343.395 311.405 340.364 310.401 338.058 308.372C331.727 302.8 321.744 305.866 319.631 314.031Z" fill="url(#paint21_linear_405_48951)"/>
<g style="mix-blend-mode:color-burn">
<path d="M592.272 582.962L599.947 501.603C601.065 489.758 604.25 478.201 609.358 467.455L635.528 412.399C637.39 408.482 641.339 405.986 645.676 405.986C649.877 405.986 653.727 403.643 655.657 399.912L658.218 394.962C663.624 384.509 676.732 380.789 686.824 386.844L709.564 400.488C714.314 403.338 715.284 409.812 711.579 413.929C710.124 415.546 709.318 417.644 709.318 419.82V422.582C709.318 424.512 708.969 426.426 708.288 428.232L645.276 595.229C641.244 605.914 631.017 612.986 619.597 612.986C603.421 612.986 590.753 599.067 592.272 582.962Z" fill="url(#paint22_linear_405_48951)"/>
</g>
<g style="mix-blend-mode:color-burn">
<path d="M592.272 582.962L599.947 501.603C601.065 489.758 604.25 478.201 609.358 467.455L635.528 412.399C637.39 408.482 641.339 405.986 645.676 405.986C649.877 405.986 653.727 403.643 655.657 399.912L658.218 394.962C663.624 384.509 676.732 380.789 686.824 386.844L709.564 400.488C714.314 403.338 715.284 409.812 711.579 413.929C710.124 415.546 709.318 417.644 709.318 419.82V422.582C709.318 424.512 708.969 426.426 708.288 428.232L645.276 595.229C641.244 605.914 631.017 612.986 619.597 612.986C603.421 612.986 590.753 599.067 592.272 582.962Z" fill="url(#paint23_linear_405_48951)"/>
</g>
<g style="mix-blend-mode:color-burn">
<path d="M208.894 340.819L219.156 348.01C243.713 365.218 263.324 388.568 276.032 415.727L279.186 422.467C287.745 440.761 292.182 460.713 292.182 480.91V480.91" stroke="#919191" stroke-width="0.69697"/>
</g>
<g style="mix-blend-mode:color-burn">
<path d="M552.5 315.38V315.38C539.867 335.594 531.674 358.261 528.465 381.881L524.621 410.168" stroke="#919191" stroke-width="0.69697"/>
</g>
<g style="mix-blend-mode:color-burn">
<path d="M475.485 319.213L491.166 335.623C510.134 355.474 521.912 381.103 524.621 408.425V408.425L534.379 527.607L557.379 607.41" stroke="#919191" stroke-width="0.69697"/>
</g>
<g style="mix-blend-mode:screen">
<ellipse cx="495.349" cy="384.728" rx="140.788" ry="85.7273" fill="#3656FF"/>
</g>
<g style="mix-blend-mode:soft-light" filter="url(#filter9_f_405_48951)">
<ellipse cx="302.637" cy="340.819" rx="83.2879" ry="81.5455" fill="#EE88FF"/>
</g>
<path d="M290.775 114.058L242.801 153.07C239.408 155.829 234.333 153.414 234.333 149.041C234.333 148.199 234.128 147.369 233.736 146.623L216.909 114.652C213.231 106.716 216.714 97.2299 224.576 93.3949L231.652 89.1143C245.661 80.6394 258.216 69.9651 268.833 57.5009L283.512 44.1273C284.179 43.5196 284.777 42.8408 285.297 42.1028C288.691 37.2784 295.021 35.5235 300.416 37.9112L305.096 39.983C309.756 42.0455 315.058 42.1065 319.764 40.1517L330.445 35.7148C333.503 34.4447 336.69 33.5116 339.95 32.9321L352.404 30.7181C361.723 29.0614 371.169 28.2282 380.634 28.2282H398.995C401.658 28.2282 404.315 28.4946 406.926 29.0233L410.623 29.7721C422.868 32.2522 435.481 27.7535 443.392 18.0836C445.264 15.796 447.429 13.7646 449.83 12.0417L475.07 -6.06478C477.201 -7.59393 479.46 -8.93809 481.82 -10.0826L495.981 -16.9484C499.333 -18.5738 503.235 -18.6222 506.627 -17.0805C510.463 -15.3368 513.165 -11.7805 513.817 -7.61725L516.731 10.9877C517.112 13.4171 517.303 15.8724 517.303 18.3314V67.607L513.419 104.057C512.997 108.022 513.689 112.025 515.419 115.618L520.008 125.15C521.107 127.431 520.68 130.154 518.936 131.99C516.811 134.227 513.351 134.523 510.877 132.679L485.291 113.61C480.662 110.16 475.372 107.7 469.75 106.383L439.278 99.2459C413.962 93.3158 387.706 92.578 362.096 97.0771L306.622 106.823C300.809 107.844 295.354 110.334 290.775 114.058Z" fill="#FFF9C8" stroke="#D6C68D" stroke-width="0.69697"/>
<path d="M290.775 114.058L242.801 153.07C239.408 155.829 234.333 153.414 234.333 149.041C234.333 148.199 234.128 147.369 233.736 146.623L216.909 114.652C213.231 106.716 216.714 97.2299 224.576 93.3949L231.652 89.1143C245.661 80.6394 258.216 69.9651 268.833 57.5009L283.512 44.1273C284.179 43.5196 284.777 42.8408 285.297 42.1028C288.691 37.2784 295.021 35.5235 300.416 37.9112L305.096 39.983C309.756 42.0455 315.058 42.1065 319.764 40.1517L330.445 35.7148C333.503 34.4447 336.69 33.5116 339.95 32.9321L352.404 30.7181C361.723 29.0614 371.169 28.2282 380.634 28.2282H398.995C401.658 28.2282 404.315 28.4946 406.926 29.0233L410.623 29.7721C422.868 32.2522 435.481 27.7535 443.392 18.0836C445.264 15.796 447.429 13.7646 449.83 12.0417L475.07 -6.06478C477.201 -7.59393 479.46 -8.93809 481.82 -10.0826L495.981 -16.9484C499.333 -18.5738 503.235 -18.6222 506.627 -17.0805C510.463 -15.3368 513.165 -11.7805 513.817 -7.61725L516.731 10.9877C517.112 13.4171 517.303 15.8724 517.303 18.3314V67.607L513.419 104.057C512.997 108.022 513.689 112.025 515.419 115.618L520.008 125.15C521.107 127.431 520.68 130.154 518.936 131.99C516.811 134.227 513.351 134.523 510.877 132.679L485.291 113.61C480.662 110.16 475.372 107.7 469.75 106.383L439.278 99.2459C413.962 93.3158 387.706 92.578 362.096 97.0771L306.622 106.823C300.809 107.844 295.354 110.334 290.775 114.058Z" fill="url(#paint24_linear_405_48951)" stroke="#D6C68D" stroke-width="0.69697"/>
<g style="mix-blend-mode:multiply">
<path d="M493.258 33.804L504.152 -1.9181C504.853 -4.21664 508.242 -3.71121 508.242 -1.30817V28.2282L502.667 93.3949L484.197 65.5161L493.258 33.804Z" fill="url(#paint25_linear_405_48951)"/>
<path d="M493.258 33.804L504.152 -1.9181C504.853 -4.21664 508.242 -3.71121 508.242 -1.30817V28.2282L502.667 93.3949L484.197 65.5161L493.258 33.804Z" stroke="#CCC695" stroke-width="0.69697"/>
</g>
<path d="M244.091 113.955L220.323 130.89C217.977 132.561 217.25 135.722 218.629 138.25L228.962 157.194C230.036 159.162 232.419 160.006 234.491 159.153C243.841 155.303 252.456 149.868 259.957 143.087L265.85 137.76C283.105 122.161 304.136 111.341 326.859 106.37L336.788 104.198L366.489 99.0977C392.403 94.6479 418.96 95.6593 444.46 102.067L469.436 108.343C472.289 109.06 475.01 110.226 477.497 111.796L512.49 133.897C515.789 135.981 520.091 133.61 520.091 129.708C520.091 129.429 520.115 129.151 520.161 128.876L522.312 116.238C522.651 114.249 521.682 112.266 519.906 111.31L481.336 90.5595C469.342 84.1068 456.658 79.0314 443.523 75.43C427.962 71.1632 411.899 69.0009 395.763 69.0009H387.328C366.499 69.0009 345.535 71.7341 325.387 77.0188C303.514 82.7559 282.293 91.5329 262.791 102.979L244.091 113.955Z" fill="#FFD88D" stroke="#ECB28F" stroke-width="0.69697"/>
<g style="mix-blend-mode:color-burn">
<path d="M244.091 113.955L220.323 130.89C217.977 132.561 217.25 135.722 218.629 138.25L228.962 157.194C230.036 159.162 232.419 160.006 234.491 159.153C243.841 155.303 252.456 149.868 259.957 143.087L265.85 137.76C283.105 122.161 304.136 111.341 326.859 106.37L336.788 104.198L366.489 99.0977C392.403 94.6479 418.96 95.6593 444.46 102.067L469.436 108.343C472.289 109.06 475.01 110.226 477.497 111.796L512.49 133.897C515.789 135.981 520.091 133.61 520.091 129.708C520.091 129.429 520.115 129.151 520.161 128.876L522.312 116.238C522.651 114.249 521.682 112.266 519.906 111.31L481.336 90.5595C469.342 84.1068 456.658 79.0314 443.523 75.43C427.962 71.1632 411.899 69.0009 395.763 69.0009H387.328C366.499 69.0009 345.535 71.7341 325.387 77.0188C303.514 82.7559 282.293 91.5329 262.791 102.979L244.091 113.955Z" fill="url(#paint26_linear_405_48951)"/>
</g>
<g style="mix-blend-mode:color-dodge" opacity="0.5">
<ellipse cx="461.546" cy="42.5161" rx="132.076" ry="69" fill="#FF6636"/>
</g>
<g style="mix-blend-mode:color-burn">
<path d="M419.727 31.0161V31.0161C435.277 35.5894 449.43 43.9912 460.89 55.4518L475.945 70.5068C482.829 77.3906 489.144 84.8204 494.829 92.7235L500.576 100.713" stroke="#1D1D1D" stroke-width="0.69697"/>
</g>
<g style="mix-blend-mode:soft-light">
<rect x="171.606" y="-19.2957" width="625.879" height="680.567" fill="#003EDC"/>
</g>
<g style="mix-blend-mode:soft-light">
<rect x="171.606" y="-14.2325" width="626.892" height="675.503" fill="#FF7E36"/>
</g>
<g style="mix-blend-mode:color-burn" opacity="0.5">
<rect x="171.606" y="-14.2325" width="626.892" height="675.503" fill="#A2B0FF"/>
</g>
</g>
</g>
</g>
</g>
<defs>
<filter id="filter0_f_405_48951" x="245.833" y="163.091" width="262.758" height="271.121" filterUnits="userSpaceOnUse" color-interpolation-filters="sRGB">
<feFlood flood-opacity="0" result="BackgroundImageFix"/>
<feBlend mode="normal" in="SourceGraphic" in2="BackgroundImageFix" result="shape"/>
<feGaussianBlur stdDeviation="34.8485" result="effect1_foregroundBlur_405_48951"/>
</filter>
<filter id="filter1_f_405_48951" x="267.788" y="177.88" width="242.197" height="88.0144" filterUnits="userSpaceOnUse" color-interpolation-filters="sRGB">
<feFlood flood-opacity="0" result="BackgroundImageFix"/>
<feBlend mode="normal" in="SourceGraphic" in2="BackgroundImageFix" result="shape"/>
<feGaussianBlur stdDeviation="3.48485" result="effect1_foregroundBlur_405_48951"/>
</filter>
<filter id="filter2_f_405_48951" x="210.288" y="-25.0909" width="415.394" height="302.485" filterUnits="userSpaceOnUse" color-interpolation-filters="sRGB">
<feFlood flood-opacity="0" result="BackgroundImageFix"/>
<feBlend mode="normal" in="SourceGraphic" in2="BackgroundImageFix" result="shape"/>
<feGaussianBlur stdDeviation="34.8485" result="effect1_foregroundBlur_405_48951"/>
</filter>
<filter id="filter3_f_405_48951" x="110.621" y="2.7879" width="262.758" height="271.121" filterUnits="userSpaceOnUse" color-interpolation-filters="sRGB">
<feFlood flood-opacity="0" result="BackgroundImageFix"/>
<feBlend mode="normal" in="SourceGraphic" in2="BackgroundImageFix" result="shape"/>
<feGaussianBlur stdDeviation="34.8485" result="effect1_foregroundBlur_405_48951"/>
</filter>
<filter id="filter4_f_405_48951" x="138.5" y="200.728" width="305.97" height="302.485" filterUnits="userSpaceOnUse" color-interpolation-filters="sRGB">
<feFlood flood-opacity="0" result="BackgroundImageFix"/>
<feBlend mode="normal" in="SourceGraphic" in2="BackgroundImageFix" result="shape"/>
<feGaussianBlur stdDeviation="34.8485" result="effect1_foregroundBlur_405_48951"/>
</filter>
<filter id="filter5_f_405_48951" x="256.985" y="151.94" width="262.758" height="271.121" filterUnits="userSpaceOnUse" color-interpolation-filters="sRGB">
<feFlood flood-opacity="0" result="BackgroundImageFix"/>
<feBlend mode="normal" in="SourceGraphic" in2="BackgroundImageFix" result="shape"/>
<feGaussianBlur stdDeviation="34.8485" result="effect1_foregroundBlur_405_48951"/>
</filter>
<filter id="filter6_f_405_48951" x="278.939" y="166.729" width="242.197" height="88.0144" filterUnits="userSpaceOnUse" color-interpolation-filters="sRGB">
<feFlood flood-opacity="0" result="BackgroundImageFix"/>
<feBlend mode="normal" in="SourceGraphic" in2="BackgroundImageFix" result="shape"/>
<feGaussianBlur stdDeviation="3.48485" result="effect1_foregroundBlur_405_48951"/>
</filter>
<filter id="filter7_f_405_48951" x="221.439" y="-36.2417" width="415.394" height="302.485" filterUnits="userSpaceOnUse" color-interpolation-filters="sRGB">
<feFlood flood-opacity="0" result="BackgroundImageFix"/>
<feBlend mode="normal" in="SourceGraphic" in2="BackgroundImageFix" result="shape"/>
<feGaussianBlur stdDeviation="34.8485" result="effect1_foregroundBlur_405_48951"/>
</filter>
<filter id="filter8_f_405_48951" x="121.773" y="-8.36292" width="262.758" height="271.121" filterUnits="userSpaceOnUse" color-interpolation-filters="sRGB">
<feFlood flood-opacity="0" result="BackgroundImageFix"/>
<feBlend mode="normal" in="SourceGraphic" in2="BackgroundImageFix" result="shape"/>
<feGaussianBlur stdDeviation="34.8485" result="effect1_foregroundBlur_405_48951"/>
</filter>
<filter id="filter9_f_405_48951" x="149.652" y="189.577" width="305.97" height="302.485" filterUnits="userSpaceOnUse" color-interpolation-filters="sRGB">
<feFlood flood-opacity="0" result="BackgroundImageFix"/>
<feBlend mode="normal" in="SourceGraphic" in2="BackgroundImageFix" result="shape"/>
<feGaussianBlur stdDeviation="34.8485" result="effect1_foregroundBlur_405_48951"/>
</filter>
<linearGradient id="paint0_linear_405_48951" x1="184.849" y1="20.91" x2="319.712" y2="154.38" gradientUnits="userSpaceOnUse">
<stop stop-color="#EA661C"/>
<stop offset="1" stop-color="#E78124" stop-opacity="0.38"/>
</linearGradient>
<linearGradient id="paint1_linear_405_48951" x1="184.849" y1="20.91" x2="319.712" y2="154.38" gradientUnits="userSpaceOnUse">
<stop stop-color="#EA661C"/>
<stop offset="1" stop-color="#E78124" stop-opacity="0.38"/>
</linearGradient>
<linearGradient id="paint2_linear_405_48951" x1="191.47" y1="67.9554" x2="284.864" y2="102.455" gradientUnits="userSpaceOnUse">
<stop stop-color="#FDE2B7"/>
<stop offset="1" stop-color="#EDBB6B"/>
</linearGradient>
<linearGradient id="paint3_linear_405_48951" x1="466.773" y1="7.66762" x2="592.743" y2="113.676" gradientUnits="userSpaceOnUse">
<stop stop-color="#EA661C"/>
<stop offset="1" stop-color="#FBB778" stop-opacity="0"/>
</linearGradient>
<linearGradient id="paint4_linear_405_48951" x1="466.773" y1="7.66762" x2="592.743" y2="113.676" gradientUnits="userSpaceOnUse">
<stop stop-color="#F78F54"/>
<stop offset="1" stop-color="#FBB778" stop-opacity="0"/>
</linearGradient>
<linearGradient id="paint5_linear_405_48951" x1="493.084" y1="1.04645" x2="493.084" y2="120.925" gradientUnits="userSpaceOnUse">
<stop stop-color="#FDE2B7"/>
<stop offset="1" stop-color="#EDBB6B"/>
</linearGradient>
<linearGradient id="paint6_linear_405_48951" x1="487.508" y1="226.516" x2="628.73" y2="623.407" gradientUnits="userSpaceOnUse">
<stop stop-color="#EE8423"/>
<stop offset="1" stop-color="#FBB778"/>
</linearGradient>
<linearGradient id="paint7_linear_405_48951" x1="244.091" y1="142.531" x2="393.737" y2="364.636" gradientUnits="userSpaceOnUse">
<stop stop-color="#FA7B05"/>
<stop offset="1" stop-color="#FBB778"/>
</linearGradient>
<linearGradient id="paint8_linear_405_48951" x1="385.924" y1="32.7585" x2="465.379" y2="239.759" gradientUnits="userSpaceOnUse">
<stop stop-color="#EE8423"/>
<stop offset="1" stop-color="#FBB778"/>
</linearGradient>
<linearGradient id="paint9_linear_405_48951" x1="312.394" y1="61.3343" x2="465.379" y2="239.759" gradientUnits="userSpaceOnUse">
<stop stop-color="#FA7B05"/>
<stop offset="1" stop-color="#FBB778"/>
</linearGradient>
<linearGradient id="paint10_linear_405_48951" x1="537.864" y1="181.213" x2="325.985" y2="32.7585" gradientUnits="userSpaceOnUse">
<stop stop-color="#FFDAB8"/>
<stop offset="1" stop-color="#FBB778" stop-opacity="0.21"/>
</linearGradient>
<radialGradient id="paint11_radial_405_48951" cx="0" cy="0" r="1" gradientUnits="userSpaceOnUse" gradientTransform="translate(302.636 154.031) rotate(90) scale(44.6061 51.9242)">
<stop stop-color="#FF0505"/>
<stop offset="1" stop-color="#E9724D" stop-opacity="0"/>
</radialGradient>
<radialGradient id="paint12_radial_405_48951" cx="0" cy="0" r="1" gradientUnits="userSpaceOnUse" gradientTransform="translate(480.364 154.031) rotate(90) scale(44.6061 51.9242)">
<stop stop-color="#FF6868"/>
<stop offset="1" stop-color="#E9724D" stop-opacity="0"/>
</radialGradient>
<linearGradient id="paint13_linear_405_48951" x1="419.379" y1="169.364" x2="419.379" y2="248.122" gradientUnits="userSpaceOnUse">
<stop stop-color="#FFCA99"/>
<stop offset="0.453125" stop-color="#FFE2C7"/>
<stop offset="1" stop-color="#FFE2C7"/>
</linearGradient>
<linearGradient id="paint14_linear_405_48951" x1="382" y1="127" x2="334.828" y2="138.401" gradientUnits="userSpaceOnUse">
<stop stop-color="#761C00" stop-opacity="0.81"/>
<stop offset="1"/>
</linearGradient>
<linearGradient id="paint15_linear_405_48951" x1="486" y1="109" x2="439.072" y2="128.802" gradientUnits="userSpaceOnUse">
<stop/>
<stop offset="1" stop-color="#761C00" stop-opacity="0.81"/>
</linearGradient>
<radialGradient id="paint16_radial_405_48951" cx="0" cy="0" r="1" gradientUnits="userSpaceOnUse" gradientTransform="translate(411.237 208.587) rotate(80.0791) scale(17.4182 65.6997)">
<stop offset="0.302083" stop-color="#E9ABCC"/>
<stop offset="1" stop-color="#D13982"/>
</radialGradient>
<linearGradient id="paint17_linear_405_48951" x1="348" y1="143" x2="356.552" y2="167.764" gradientUnits="userSpaceOnUse">
<stop stop-color="#00810D"/>
<stop offset="1" stop-color="#63DAA1"/>
</linearGradient>
<linearGradient id="paint18_linear_405_48951" x1="467.997" y1="141.953" x2="477.309" y2="165.579" gradientUnits="userSpaceOnUse">
<stop stop-color="#00810D"/>
<stop offset="1" stop-color="#63DAA1"/>
</linearGradient>
<radialGradient id="paint19_radial_405_48951" cx="0" cy="0" r="1" gradientUnits="userSpaceOnUse" gradientTransform="translate(433.376 196.141) rotate(85.4655) scale(11.6369 20.3833)">
<stop offset="0.302083" stop-color="#9F735A"/>
<stop offset="1" stop-color="#4A2307"/>
</radialGradient>
<linearGradient id="paint20_linear_405_48951" x1="619.061" y1="616.709" x2="537.012" y2="335.479" gradientUnits="userSpaceOnUse">
<stop stop-color="#495CC9"/>
<stop offset="1" stop-color="#E0E5FF" stop-opacity="0.18"/>
</linearGradient>
<linearGradient id="paint21_linear_405_48951" x1="294.97" y1="313.902" x2="609.471" y2="364.975" gradientUnits="userSpaceOnUse">
<stop stop-color="#495CC9"/>
<stop offset="1" stop-color="#E0E5FF" stop-opacity="0.18"/>
</linearGradient>
<linearGradient id="paint22_linear_405_48951" x1="598.5" y1="515.41" x2="643.455" y2="561.759" gradientUnits="userSpaceOnUse">
<stop stop-color="#B7B7B7"/>
<stop offset="1" stop-color="#D9D9D9" stop-opacity="0"/>
</linearGradient>
<linearGradient id="paint23_linear_405_48951" x1="628.818" y1="426.547" x2="643.455" y2="561.759" gradientUnits="userSpaceOnUse">
<stop stop-color="#D2D2D2"/>
<stop offset="1" stop-color="#D9D9D9" stop-opacity="0"/>
</linearGradient>
<linearGradient id="paint24_linear_405_48951" x1="325.636" y1="-1.04453" x2="472" y2="145.668" gradientUnits="userSpaceOnUse">
<stop stop-color="#FFF732"/>
<stop offset="1" stop-color="#FDFFA0" stop-opacity="0"/>
</linearGradient>
<linearGradient id="paint25_linear_405_48951" x1="495.523" y1="-15.3324" x2="495.523" y2="104.546" gradientUnits="userSpaceOnUse">
<stop stop-color="#E4B65B"/>
<stop offset="1" stop-color="#FFE7B8"/>
</linearGradient>
<linearGradient id="paint26_linear_405_48951" x1="314.833" y1="78.7585" x2="523.227" y2="123.713" gradientUnits="userSpaceOnUse">
<stop stop-color="#D2A03E"/>
<stop offset="1" stop-color="#FFD88D" stop-opacity="0"/>
</linearGradient>
<clipPath id="clip0_405_48951">
<rect width="798" height="506" rx="15" fill="white"/>
</clipPath>
</defs>
</svg>
