<svg width="452" height="506" viewBox="0 0 452 506" fill="none" xmlns="http://www.w3.org/2000/svg">
<mask id="mask0_405_66696" style="mask-type:alpha" maskUnits="userSpaceOnUse" x="0" y="0" width="453" height="506">
<rect width="452.333" height="506" fill="#EDE7FF"/>
</mask>
<g mask="url(#mask0_405_66696)">
<path d="M170.491 63.4969L191.693 106.552L170.491 125.005L151.94 75.7985L136.305 41.5866C123.487 13.5379 119.69 -17.7974 125.438 -48.0958C125.438 -20.5686 133.413 6.36914 148.4 29.4593L170.491 63.4969Z" fill="#3D3AA9"/>
<path d="M289.746 36.6085L286.251 88.6456H264.411L274.021 36.6085L278.205 10.8761C281.803 -11.2464 282.159 -33.7749 279.262 -56C291.182 -34.2256 295.843 -9.2165 292.569 15.3898L289.746 36.6085Z" fill="#3D3AA9"/>
<path d="M258.869 309.482L260.975 303.803C264.84 293.38 271.839 284.411 281.01 278.128L198.207 192.98H147.997L158.475 218.859C164.856 234.617 166.474 251.9 163.128 268.569C161.853 274.922 159.872 281.112 157.22 287.025L123.717 361.733L198.207 402.44L238.327 397.302L261.645 381.889L255.482 347.772C253.164 334.935 254.333 321.712 258.869 309.482Z" fill="#3D3AA9"/>
<path d="M371.948 146.359L368.879 145.102C358.134 140.704 346.635 138.442 335.024 138.442L332.387 160.433L339.42 192.98H350.198C357.06 192.98 363.903 192.262 370.615 190.837L379.965 188.853C386.282 187.512 392.276 184.954 397.615 181.322C406.627 175.19 413.375 166.267 416.82 155.925L418.542 150.757L415.171 151.106C400.589 152.615 385.854 150.997 371.948 146.359Z" fill="#3D3AA9"/>
<g style="mix-blend-mode:color-burn">
<path d="M196.662 375.732L212.131 376.963C231.953 378.539 251.066 369.226 262.04 352.644H324.087H342.342C358.523 352.644 373.07 362.508 379.057 377.541L387.716 399.278L416.17 512.703C394.326 532.748 366.747 545.439 337.313 548.992L336.734 549.062V624.546V725.324H98.4242C104.715 686.792 105.463 647.558 100.645 608.814L98.4242 590.953L91.1035 518.235L88.1489 553.804H82.2913C49.2529 553.804 16.4205 548.603 -15.0001 538.391L-10.2217 436.077C-8.94955 408.838 -0.713531 382.381 13.6994 359.233C16.2892 355.073 20.6476 352.336 25.5189 351.808L127.274 340.788L156.65 361.35C168.468 369.623 182.281 374.588 196.662 375.732Z" fill="#3D3AA9"/>
</g>
<path d="M314.151 115.658L299.047 103.915C296.698 102.089 295.324 99.2806 295.324 96.3057C295.324 92.7268 293.341 89.4425 290.174 87.7761L281.696 83.3157C279.677 82.2534 277.469 81.5956 275.198 81.3794L265.54 80.4599C262.467 80.1673 259.641 82.1649 258.892 85.1596C258.131 88.2052 255.225 90.2113 252.107 89.8446L245.071 89.0171C243.456 88.8271 241.82 88.9142 240.234 89.2745L226.847 92.3157C224.496 92.8499 222.212 93.6461 220.038 94.6892L204.417 102.184C202.55 103.08 200.333 102.804 198.742 101.479C197.127 100.134 194.869 99.8719 192.989 100.811L176.762 108.922L175.584 109.338C167.632 112.143 162.844 120.255 164.231 128.573C164.388 129.517 164.467 130.472 164.467 131.429V148.394C164.467 151.447 162.246 154.045 159.231 154.521L153.346 155.45C149.644 156.034 146.004 156.963 142.474 158.223C137.832 159.88 133.411 162.1 129.31 164.833L115.286 174.179C109.455 178.065 103.149 181.185 96.5226 183.461L92.5581 184.824C83.2455 188.024 73.319 189.026 63.5547 187.753L59.9918 187.289C58.7997 187.133 57.6227 186.877 56.4736 186.524L49.6276 184.418C47.8276 183.865 45.8741 184.149 44.307 185.194C42.562 186.357 41.5139 188.315 41.5139 190.412V194.628C41.5139 197.69 42.5073 200.67 44.345 203.119L48.5626 208.74C50.8737 211.821 53.6743 214.501 56.8528 216.675L62.6102 220.613C66.6869 223.401 71.0208 225.793 75.5529 227.756L82.8772 230.929C90.931 234.418 99.6147 236.218 108.392 236.218H108.791C113.109 236.218 117.413 235.755 121.632 234.838C130.744 232.858 139.275 228.798 146.557 222.974L161.832 210.758L177.196 197.495C179.083 195.866 182.019 196.673 182.807 199.038C182.876 199.243 182.925 199.453 182.954 199.667L184.843 213.352C185.886 220.915 188.391 228.203 192.217 234.809C194.784 239.241 197.918 243.319 201.54 246.939L213.251 258.646C219.877 265.269 227.865 270.37 236.661 273.594C245.227 276.734 254.361 278.021 263.461 277.371L274.247 276.601C287.485 276.601 300.721 279.289 312.889 284.502L342.749 300.304L344.531 301.096C353.845 305.234 363.644 308.175 373.697 309.85L374.184 309.931C374.305 309.951 374.427 309.958 374.55 309.951L380.472 309.602C386.083 309.272 391.284 306.553 394.758 302.134C397.478 298.674 398.956 294.4 398.956 289.999V284.715C398.956 284.579 399.01 284.448 399.107 284.352C401.852 281.608 403.581 278.011 404.01 274.153L404.741 267.572C404.983 265.402 405.026 263.215 404.87 261.037L403.429 240.863C403.377 240.138 403.036 239.463 402.484 238.991L352.15 195.968C346.019 190.728 341.567 183.797 339.351 176.042C339.276 175.783 339.29 175.506 339.388 175.255L345.12 160.611C346.436 157.249 346.706 153.569 345.894 150.051C344.994 146.155 342.817 142.671 339.708 140.156L330.536 132.733C327.566 130.33 324.925 127.549 322.677 124.461C320.262 121.141 317.392 118.178 314.151 115.658Z" fill="#3D3AA9"/>
<path d="M371.945 311.058L378.331 311.524C378.389 311.528 378.403 311.444 378.346 311.43L371.273 309.715C359.038 306.749 347.3 302.02 336.427 295.676L334.535 294.572V298.905C334.535 301.681 333.441 304.346 331.49 306.321L328.022 309.833C327.068 310.799 326.029 311.677 324.918 312.456L323.544 313.42C321.458 314.882 319.241 316.148 316.921 317.2L306.817 321.784C306.386 321.979 306.466 322.614 306.932 322.696L310.987 323.407C314.319 323.991 317.694 324.284 321.076 324.284H325.115C325.6 324.284 325.812 324.896 325.431 325.197C321.515 328.286 317.168 330.785 312.527 332.615L306.977 334.804C306.646 334.934 306.739 335.426 307.095 335.426H310.172C321.073 335.426 331.929 334.045 342.481 331.315L343.105 331.154C343.246 331.117 343.395 331.172 343.48 331.291C348.487 338.29 355.958 343.264 364.36 345.124C366.836 345.673 369.364 345.949 371.9 345.949H383.833C384.916 345.949 385.243 344.477 384.262 344.019L383.095 343.473L375.764 339.543C370.703 336.829 366.276 333.071 362.778 328.516C362.529 328.192 362.863 327.745 363.244 327.891L363.467 327.977C368.855 330.037 374.574 331.093 380.342 331.093H387.095C387.457 331.093 387.589 330.616 387.277 330.431L378.849 325.423C377.574 324.666 376.378 323.781 375.281 322.783L369.262 317.308C368.512 316.626 368.085 315.66 368.085 314.646C368.085 312.556 369.861 310.905 371.945 311.058Z" fill="#3D3AA9"/>
<mask id="mask1_405_66696" style="mask-type:alpha" maskUnits="userSpaceOnUse" x="-1" y="-63" width="436" height="783">
<path d="M185.491 57.4969L206.693 100.552L185.491 119.005L166.94 69.7985L151.305 35.5866C138.488 7.53794 134.69 -23.7974 140.438 -54.0958C140.438 -26.5686 148.413 0.369137 163.4 23.4593L185.491 57.4969Z" fill="#D9A557" stroke="#95694A" stroke-width="0.790413"/>
<path d="M304.746 30.6085L301.252 82.6456H279.411L289.021 30.6085L293.206 4.87611C296.803 -17.2464 297.159 -39.7749 294.263 -62C306.182 -40.2256 310.843 -15.2165 307.569 9.38979L304.746 30.6085Z" fill="#D9A557" stroke="#95694A" stroke-width="0.790413"/>
<path d="M273.869 303.482L275.975 297.803C279.84 287.38 286.839 278.411 296.01 272.128L213.207 186.98H162.997L173.475 212.859C179.856 228.617 181.474 245.9 178.129 262.569C176.853 268.922 174.872 275.112 172.22 281.025L138.718 355.733L213.207 396.44L253.328 391.302L276.645 375.889L270.482 341.772C268.164 328.935 269.333 315.712 273.869 303.482Z" fill="#D9A557" stroke="#FFD88B" stroke-width="0.790413"/>
<path d="M386.948 140.359L383.879 139.102C373.134 134.704 361.635 132.442 350.024 132.442L347.387 154.433L354.42 186.98H365.198C372.06 186.98 378.903 186.262 385.616 184.837L394.966 182.853C401.282 181.512 407.277 178.954 412.615 175.322C421.627 169.19 428.375 160.267 431.82 149.925L433.542 144.757L430.171 145.106C415.59 146.615 400.854 144.997 386.948 140.359Z" fill="#D9A557" stroke="#FFD88B" stroke-width="0.790413"/>
<g style="mix-blend-mode:color-burn">
<path d="M211.662 369.732L227.131 370.963C246.953 372.539 266.067 363.226 277.04 346.644H339.087H357.342C373.523 346.644 388.07 356.508 394.057 371.541L402.716 393.278L431.171 506.703C409.327 526.748 381.747 539.439 352.314 542.992L351.734 543.062V618.546V719.324H113.424C119.715 680.792 120.463 641.558 115.645 602.814L113.424 584.953L106.104 512.235L103.149 547.804H97.2914C64.2531 547.804 31.4207 542.603 3.05176e-05 532.391L4.77841 430.077C6.05057 402.838 14.2866 376.381 28.6996 353.233C31.2894 349.073 35.6477 346.336 40.519 345.808L142.274 334.788L171.65 355.35C183.468 363.623 197.282 368.588 211.662 369.732Z" fill="#D9A557"/>
<path d="M113.424 424.104L106.104 512.235M106.104 512.235L103.149 547.804H97.2914C64.2531 547.804 31.4206 542.603 3.3617e-05 532.391V532.391L4.77843 430.077C6.05057 402.838 14.2866 376.381 28.6995 353.233V353.233C31.2894 349.073 35.6477 346.336 40.519 345.808L142.274 334.788L171.65 355.35C183.468 363.623 197.282 368.588 211.662 369.732L227.131 370.963C246.953 372.539 266.067 363.226 277.04 346.644V346.644H339.087H357.342C373.523 346.644 388.07 356.508 394.057 371.541L402.716 393.278L431.171 506.703V506.703C409.327 526.748 381.747 539.439 352.314 542.992L351.734 543.062M106.104 512.235L113.424 584.953L115.645 602.814C120.463 641.558 119.715 680.792 113.424 719.324V719.324H351.734V618.546V543.062M333.554 415.015V415.015C345.516 439.457 351.734 466.31 351.734 493.523V520.14V543.062" stroke="#C7FFDF" stroke-width="0.474248"/>
</g>
<path d="M329.151 109.658L314.047 97.9147C311.698 96.0888 310.324 93.2806 310.324 90.3057C310.324 86.7268 308.341 83.4425 305.174 81.7761L296.696 77.3157C294.677 76.2534 292.469 75.5956 290.198 75.3794L280.54 74.4599C277.467 74.1673 274.641 76.1649 273.892 79.1596C273.131 82.2052 270.225 84.2113 267.107 83.8446L260.071 83.0171C258.456 82.8271 256.82 82.9142 255.234 83.2745L241.847 86.3157C239.496 86.8499 237.212 87.6461 235.038 88.6892L219.417 96.1841C217.55 97.0799 215.333 96.8044 213.742 95.479C212.127 94.1339 209.869 93.8719 207.989 94.8115L191.762 102.922L190.584 103.338C182.632 106.143 177.844 114.255 179.231 122.573C179.388 123.517 179.467 124.472 179.467 125.429V142.394C179.467 145.447 177.246 148.045 174.231 148.521L168.346 149.45C164.644 150.034 161.004 150.963 157.474 152.223C152.832 153.88 148.411 156.1 144.31 158.833L130.286 168.179C124.455 172.065 118.149 175.185 111.523 177.461L107.558 178.824C98.2455 182.024 88.319 183.026 78.5547 181.753L74.9918 181.289C73.7997 181.133 72.6227 180.877 71.4736 180.524L64.6276 178.418C62.8276 177.865 60.8741 178.149 59.307 179.194C57.562 180.357 56.5139 182.315 56.5139 184.412V188.628C56.5139 191.69 57.5073 194.67 59.345 197.119L63.5626 202.74C65.8737 205.821 68.6743 208.501 71.8528 210.675L77.6102 214.613C81.6869 217.401 86.0208 219.793 90.5529 221.756L97.8772 224.929C105.931 228.418 114.615 230.218 123.392 230.218H123.791C128.109 230.218 132.413 229.755 136.632 228.838C145.744 226.858 154.275 222.798 161.557 216.974L176.832 204.758L192.196 191.495C194.083 189.866 197.019 190.673 197.807 193.038C197.876 193.243 197.925 193.453 197.954 193.667L199.843 207.352C200.886 214.915 203.391 222.203 207.217 228.809C209.784 233.241 212.918 237.319 216.54 240.939L228.251 252.646C234.877 259.269 242.865 264.37 251.661 267.594C260.227 270.734 269.361 272.021 278.461 271.371L289.247 270.601C302.485 270.601 315.721 273.289 327.889 278.502L357.749 294.304L359.531 295.096C368.845 299.234 378.644 302.175 388.697 303.85L389.184 303.931C389.305 303.951 389.427 303.958 389.55 303.951L395.472 303.602C401.083 303.272 406.284 300.553 409.758 296.134C412.478 292.674 413.956 288.4 413.956 283.999V278.715C413.956 278.579 414.01 278.448 414.107 278.352C416.852 275.608 418.581 272.011 419.01 268.153L419.741 261.572C419.983 259.402 420.026 257.215 419.87 255.037L418.429 234.863C418.377 234.138 418.036 233.463 417.484 232.991L367.15 189.968C361.019 184.728 356.567 177.797 354.351 170.042C354.276 169.783 354.29 169.506 354.388 169.255L360.12 154.611C361.436 151.249 361.706 147.569 360.894 144.051C359.994 140.155 357.817 136.671 354.708 134.156L345.536 126.733C342.566 124.33 339.925 121.549 337.677 118.461C335.262 115.141 332.392 112.178 329.151 109.658Z" fill="#FCFFE9" stroke="#FFD88B" stroke-width="0.790413"/>
<path d="M379.945 303.058L386.331 303.524C386.389 303.528 386.403 303.444 386.346 303.43L379.273 301.715C367.038 298.749 355.3 294.02 344.427 287.676L342.535 286.572V290.905C342.535 293.681 341.441 296.346 339.49 298.321L336.022 301.833C335.068 302.799 334.029 303.677 332.918 304.456L331.544 305.42C329.458 306.882 327.241 308.148 324.921 309.2L314.817 313.784C314.386 313.979 314.466 314.614 314.932 314.696L318.987 315.407C322.319 315.991 325.694 316.284 329.076 316.284H333.115C333.6 316.284 333.812 316.896 333.431 317.197C329.515 320.286 325.168 322.785 320.527 324.615L314.977 326.804C314.646 326.934 314.739 327.426 315.095 327.426H318.172C329.073 327.426 339.929 326.045 350.481 323.315L351.105 323.154C351.246 323.117 351.395 323.172 351.48 323.291C356.487 330.29 363.958 335.264 372.36 337.124C374.836 337.673 377.364 337.949 379.9 337.949H391.833C392.916 337.949 393.243 336.477 392.262 336.019L391.095 335.473L383.764 331.543C378.703 328.829 374.276 325.071 370.778 320.516C370.529 320.192 370.863 319.745 371.244 319.891L371.467 319.977C376.855 322.037 382.574 323.093 388.342 323.093H395.095C395.457 323.093 395.589 322.616 395.277 322.431L386.849 317.423C385.574 316.666 384.378 315.781 383.281 314.783L377.262 309.308C376.512 308.626 376.085 307.66 376.085 306.646C376.085 304.556 377.861 302.905 379.945 303.058Z" fill="#FCFFE9" stroke="#FFD88B" stroke-width="0.790413"/>
</mask>
<g mask="url(#mask1_405_66696)">
<path d="M185.491 57.4969L206.693 100.552L185.491 119.005L166.94 69.7985L151.305 35.5866C138.488 7.53794 134.69 -23.7974 140.438 -54.0958C140.438 -26.5686 148.413 0.369137 163.4 23.4593L185.491 57.4969Z" fill="#B0896D" stroke="#95694A"/>
<g style="mix-blend-mode:color-burn">
<path d="M185.491 57.4969L206.693 100.552L185.491 119.005L166.94 69.7985L151.305 35.5866C138.488 7.53794 134.69 -23.7974 140.438 -54.0958C140.438 -26.5686 148.413 0.369137 163.4 23.4593L185.491 57.4969Z" fill="url(#paint0_linear_405_66696)"/>
<path d="M185.491 57.4969L206.693 100.552L185.491 119.005L166.94 69.7985L151.305 35.5866C138.488 7.53794 134.69 -23.7974 140.438 -54.0958C140.438 -26.5686 148.413 0.369137 163.4 23.4593L185.491 57.4969Z" stroke="#95694A"/>
</g>
<g style="mix-blend-mode:color-dodge" opacity="0.5">
<path d="M176.743 93.7102L180.857 92.1823C186.892 89.9413 192.646 87.0057 198.002 83.4348V83.4348M173.894 88.1773L179.755 86.3226C184.874 84.3873 190.889 80.8312 195.235 77.5067M172.096 82.2492L174.044 81.5511C179.762 79.5024 185.225 76.8014 190.325 73.5015L192.686 71.9738M169.547 76.7163L172.836 75.5826C177.967 73.8141 182.903 71.5219 187.564 68.7421L190.098 67.2313M167.966 72.369L168.142 72.2995C174.926 69.6174 181.306 66.009 187.1 61.5772L187.331 61.4005M165.595 67.2313L168.361 66.04C172.64 64.1976 176.747 61.9806 180.635 59.4148L184.96 56.5608M163.534 62.0937L165.387 61.2888C169.85 59.3506 174.124 57.0044 178.155 54.2802L181.798 51.8183M161.643 57.7464L162.968 57.1715C167.922 55.0223 172.642 52.3711 177.056 49.2595L179.032 47.8662M158.876 52.2135V52.2135C164.992 50.0171 170.781 47.0018 176.087 43.2501L176.265 43.1237M156.9 47.0758V47.0758C162.543 45.0379 167.921 42.3287 172.917 39.0064L173.104 38.8822M154.526 41.9392V41.9392C159.621 39.9071 164.482 37.3322 169.025 34.2591L169.942 33.6388M152.155 37.1968V37.1968C157.129 35.3073 161.912 32.9456 166.436 30.144L167.173 29.6879M150.179 32.4544L157.078 29.83L164.801 25.7358M147.807 27.3167L147.888 27.2963C152.869 26.035 157.636 24.0443 162.035 21.3886V21.3886M146.227 22.179L146.971 22.018C151.36 21.0691 155.603 19.5407 159.588 17.4729V17.4729M144.646 18.2269L146.194 17.7847C149.997 16.698 153.713 15.328 157.311 13.6861V13.6861M143.46 13.8796V13.8796C147.371 13.091 151.198 11.9297 154.888 10.4114L155.914 9.98948M142.361 9.98948L149.341 8.24959L154.146 6.43259M141.484 5.5803L141.635 5.54806C145.217 4.78031 148.735 3.734 152.155 2.41865V2.41865M140.298 0.83782L140.543 0.820384C144.034 0.570974 147.443 -0.363108 150.574 -1.92863V-1.92863M139.903 -2.71904L144.89 -3.11425L148.993 -4.69508M139.113 -6.2759L139.184 -6.28197C142.231 -6.54089 145.249 -7.06785 148.203 -7.85673V-7.85673M138.718 -9.43755L143.065 -9.83276L147.248 -10.6232M138.718 -12.204V-12.204C141.243 -12.204 143.761 -12.4514 146.238 -12.9426L146.5 -12.9944M138.322 -15.1883V-15.1883C140.683 -15.1883 143.033 -15.5023 145.311 -16.1221L145.436 -16.1561M138.322 -18.5273L138.373 -18.5273C140.438 -18.5273 142.495 -18.793 144.493 -19.3177V-19.3177M137.927 -21.689L138.212 -21.689C140.12 -21.689 142.02 -21.955 143.855 -22.4794V-22.4794M178.367 99.6383L183.478 97.9663C189.592 95.9659 195.432 93.2059 200.859 89.7511V89.7511M143.065 -25.2458V-25.2458C141.494 -24.7223 139.85 -24.4554 138.194 -24.4554L137.927 -24.4554M142.67 -28.0123L142.548 -27.9717C141.058 -27.475 139.498 -27.2219 137.927 -27.2218V-27.2218M142.274 -30.7787L141.852 -30.7083C140.555 -30.4922 139.242 -30.3835 137.927 -30.3835V-30.3835M141.879 -33.5451L141.067 -33.4098C140.029 -33.2369 138.979 -33.1499 137.927 -33.1499V-33.1499M141.484 -35.9164L140.734 -35.7663C139.931 -35.6057 139.099 -35.6574 138.322 -35.9164V-35.9164M141.089 -38.6828L138.718 -38.6828M140.694 -41.8445L138.718 -41.8445" stroke="#B18D74" stroke-width="0.474248"/>
</g>
<path d="M185.491 57.4969L206.693 100.552L185.491 119.005L166.94 69.7985L151.305 35.5866C138.488 7.53794 134.69 -23.7974 140.438 -54.0958C140.438 -26.5686 148.413 0.369137 163.4 23.4593L185.491 57.4969Z" stroke="#95694A"/>
<path d="M304.746 30.6085L301.251 82.6456H279.411L289.021 30.6085L293.205 4.87611C296.803 -17.2464 297.159 -39.7749 294.262 -62C306.182 -40.2256 310.843 -15.2165 307.569 9.38979L304.746 30.6085Z" fill="#B0896D" stroke="#95694A"/>
<g style="mix-blend-mode:color-burn">
<path d="M304.746 30.6085L301.251 82.6456H279.411L289.021 30.6085L293.205 4.87611C296.803 -17.2464 297.159 -39.7749 294.262 -62C306.182 -40.2256 310.843 -15.2165 307.569 9.38979L304.746 30.6085Z" fill="url(#paint1_linear_405_66696)"/>
<path d="M304.746 30.6085L301.251 82.6456H279.411L289.021 30.6085L293.205 4.87611C296.803 -17.2464 297.159 -39.7749 294.262 -62C306.182 -40.2256 310.843 -15.2165 307.569 9.38979L304.746 30.6085Z" stroke="#95694A"/>
</g>
<g style="mix-blend-mode:color-dodge" opacity="0.5">
<path d="M302.728 63.6757H301.182C295.135 63.6757 289.125 62.7426 283.363 60.9093V60.9093M303.124 57.7476H300.705C295.233 57.7476 289.79 56.9488 284.549 55.3764M303.124 51.4243V51.4243C297.874 51.4243 292.644 50.7805 287.551 49.5073L285.735 49.0531M303.519 45.4962V45.4962C298.005 45.4962 292.51 44.8511 287.146 43.5739L286.92 43.5202M304.309 40.3585H303.867C298.395 40.3585 292.952 39.5597 287.711 37.9873V37.9873M304.704 34.4304V34.4304C299.742 34.4304 294.742 33.963 289.867 33.0345L288.896 32.8496M305.495 29.2928L305.155 29.2749C300.386 29.0238 295.648 28.341 291.002 27.2347L289.687 26.9215M305.495 24.5503V24.5503C300.502 24.2875 295.549 23.5138 290.714 22.2414L290.477 22.179M306.285 18.6222H305.88C300.913 18.6222 295.979 17.8215 291.267 16.2509V16.2509M307.076 13.0893H306.459C301.615 13.0893 296.786 12.5592 292.058 11.5085V11.5085M307.866 7.55639L307.634 7.54419C302.791 7.28929 297.978 6.63242 293.243 5.58035V5.58035M308.261 2.02349H307.97C303.43 2.02349 298.9 1.62678 294.429 0.837872V0.837872M308.261 -3.5094V-3.5094C304.054 -3.24642 299.831 -3.34829 295.641 -3.81385L294.824 -3.90461M308.261 -8.64709V-8.64709C304.069 -8.1231 299.823 -8.22997 295.662 -8.96412L295.22 -9.0423M308.261 -13.7848V-13.7848C304.061 -13.2598 299.813 -13.2444 295.609 -13.7389L295.22 -13.7848M307.866 -18.5273V-18.5273C303.95 -18.0051 299.952 -17.8692 296.01 -18.132V-18.132M307.076 -22.8745L306.967 -22.8512C303.369 -22.0802 299.68 -21.822 296.01 -22.0841V-22.0841M306.681 -26.8266L306.621 -26.8174C303.24 -26.2973 299.825 -26.0362 296.405 -26.0362V-26.0362M305.495 -31.1739V-31.1739C302.867 -30.6482 300.193 -30.3835 297.513 -30.3835H296.405M304.704 -35.5211V-35.5211C302.347 -34.9972 299.923 -34.8327 297.517 -35.0333L296.405 -35.1259M303.519 -39.078L300.752 -38.2876H296.405M302.728 -42.6349V-42.6349C300.887 -42.1088 299.005 -41.7382 297.102 -41.5267L296.405 -41.4492M301.543 -45.4013V-45.4013C299.966 -44.8757 298.341 -44.5071 296.691 -44.3009L296.01 -44.2157M300.752 -47.7726L300.662 -47.7423C299.144 -47.2363 297.588 -46.85 296.01 -46.5869V-46.5869M299.567 -50.539V-50.539C298.527 -50.0192 297.381 -49.7486 296.219 -49.7486H295.615M298.381 -53.7007V-53.7007C297.596 -53.4389 296.774 -53.3054 295.946 -53.3054H295.615M296.8 -56.8623L295.22 -56.4671M301.938 70.7895L301.344 70.7666C294.901 70.5188 288.49 69.7333 282.178 68.4182V68.4182" stroke="#B18D74" stroke-width="0.474248"/>
</g>
<path d="M304.746 30.6085L301.251 82.6456H279.411L289.021 30.6085L293.205 4.87611C296.803 -17.2464 297.159 -39.7749 294.262 -62C306.182 -40.2256 310.843 -15.2165 307.569 9.38979L304.746 30.6085Z" stroke="#95694A"/>
<path d="M273.869 303.482L275.975 297.803C279.84 287.38 286.839 278.411 296.01 272.128L213.207 186.98H162.997L173.417 212.716C179.836 228.567 181.463 245.953 178.098 262.719C176.843 268.973 174.907 275.071 172.325 280.903L149.783 331.82L130.813 368.775L226.849 401.182L276.645 375.889L270.482 341.772C268.164 328.935 269.333 315.712 273.869 303.482Z" fill="#FCFFE9" stroke="#FFD88B" stroke-width="0.790413"/>
<path d="M273.869 303.482L275.975 297.803C279.84 287.38 286.839 278.411 296.01 272.128L213.207 186.98H162.997L173.475 212.859C179.856 228.617 181.474 245.9 178.128 262.569C176.853 268.922 174.872 275.112 172.22 281.025L138.717 355.733L213.207 396.44L253.327 391.302L276.645 375.889L270.482 341.772C268.164 328.935 269.333 315.712 273.869 303.482Z" fill="url(#paint2_linear_405_66696)" stroke="#FFD88B"/>
<path d="M386.947 140.359L383.878 139.102C373.133 134.704 361.634 132.442 350.024 132.442L347.386 154.433L354.419 186.98H365.197C372.059 186.98 378.902 186.262 385.615 184.837L394.965 182.853C401.281 181.512 407.276 178.954 412.614 175.322C421.627 169.19 428.374 160.267 431.82 149.925L433.541 144.757L430.17 145.106C415.589 146.615 400.853 144.997 386.947 140.359Z" fill="#FCFFE9" stroke="#FFD88B" stroke-width="0.790413"/>
<path d="M386.947 140.359L383.878 139.102C373.133 134.704 361.634 132.442 350.024 132.442L347.386 154.433L354.419 186.98H365.197C372.059 186.98 378.902 186.262 385.615 184.837L394.965 182.853C401.281 181.512 407.276 178.954 412.614 175.322C421.627 169.19 428.374 160.267 431.82 149.925L433.541 144.757L430.17 145.106C415.589 146.615 400.853 144.997 386.947 140.359Z" fill="url(#paint3_linear_405_66696)" stroke="#FFD88B" stroke-width="0.790413"/>
<path d="M380.774 157.368L359.012 152.992L352.919 175.745L365.789 176.669C373.418 177.217 381.085 176.661 388.555 175.018C399.492 172.613 409.798 167.924 418.797 161.258L421.685 159.118H407.758L380.774 157.368Z" fill="#FFC896" stroke="#D98F4B" stroke-width="0.790413"/>
<path d="M329.151 109.658L314.047 97.9147C311.698 96.0888 310.324 93.2806 310.324 90.3057C310.324 86.7268 308.341 83.4425 305.174 81.7761L296.696 77.3157C294.677 76.2534 292.469 75.5956 290.198 75.3794L280.54 74.4599C277.467 74.1673 274.641 76.1649 273.892 79.1596C273.131 82.2052 270.225 84.2113 267.107 83.8446L260.071 83.0171C258.456 82.8271 256.82 82.9142 255.234 83.2745L241.847 86.3157C239.496 86.8499 237.212 87.6461 235.038 88.6892L219.417 96.1841C217.55 97.0799 215.333 96.8044 213.742 95.479C212.127 94.1339 209.869 93.8719 207.989 94.8115L191.762 102.922L190.584 103.338C182.632 106.143 177.844 114.255 179.231 122.573C179.388 123.517 179.467 124.472 179.467 125.429V142.394C179.467 145.447 177.246 148.045 174.231 148.521L168.346 149.45C164.644 150.034 161.004 150.963 157.474 152.223C152.832 153.88 148.411 156.1 144.31 158.833L130.286 168.179C124.455 172.065 118.149 175.185 111.523 177.461L107.558 178.824C98.2455 182.024 88.319 183.026 78.5547 181.753L74.9918 181.289C73.7997 181.133 72.6227 180.877 71.4736 180.524L64.6276 178.418C62.8276 177.865 60.8741 178.149 59.307 179.194C57.562 180.357 56.5139 182.315 56.5139 184.412V188.628C56.5139 191.69 57.5073 194.67 59.345 197.119L63.5626 202.74C65.8737 205.821 68.6743 208.501 71.8528 210.675L77.6102 214.613C81.6869 217.401 86.0208 219.793 90.5529 221.756L97.8772 224.929C105.931 228.418 114.615 230.218 123.392 230.218H123.791C128.109 230.218 132.413 229.755 136.632 228.838C145.744 226.858 154.275 222.798 161.557 216.974L176.832 204.758L192.196 191.495C194.083 189.866 197.019 190.673 197.807 193.038C197.876 193.243 197.925 193.453 197.954 193.667L199.843 207.352C200.886 214.915 203.391 222.203 207.217 228.809C209.784 233.241 212.918 237.319 216.54 240.939L228.251 252.646C234.877 259.269 242.865 264.37 251.661 267.594C260.227 270.734 269.361 272.021 278.461 271.371L289.247 270.601C302.485 270.601 315.721 273.289 327.889 278.502L357.749 294.304L359.531 295.096C368.845 299.234 378.644 302.175 388.697 303.85L389.184 303.931C389.305 303.951 389.427 303.958 389.55 303.951L395.472 303.602C401.083 303.272 406.284 300.553 409.758 296.134C412.478 292.674 413.956 288.4 413.956 283.999V278.715C413.956 278.579 414.01 278.448 414.107 278.352C416.852 275.608 418.581 272.011 419.01 268.153L419.741 261.572C419.983 259.402 420.026 257.215 419.87 255.037L418.429 234.863C418.377 234.138 418.036 233.463 417.484 232.991L367.15 189.968C361.019 184.728 356.567 177.797 354.351 170.042C354.276 169.783 354.29 169.506 354.388 169.255L360.12 154.611C361.436 151.249 361.706 147.569 360.894 144.051C359.994 140.155 357.817 136.671 354.708 134.156L345.536 126.733C342.566 124.33 339.925 121.549 337.677 118.461C335.262 115.141 332.392 112.178 329.151 109.658Z" fill="#FCFFE9" stroke="#FFD88B"/>
<path d="M329.151 109.658L314.047 97.9147C311.698 96.0888 310.324 93.2806 310.324 90.3057C310.324 86.7268 308.341 83.4425 305.174 81.7761L296.696 77.3157C294.677 76.2534 292.469 75.5956 290.198 75.3794L280.54 74.4599C277.467 74.1673 274.641 76.1649 273.892 79.1596C273.131 82.2052 270.225 84.2113 267.107 83.8446L260.071 83.0171C258.456 82.8271 256.82 82.9142 255.234 83.2745L241.847 86.3157C239.496 86.8499 237.212 87.6461 235.038 88.6892L219.417 96.1841C217.55 97.0799 215.333 96.8044 213.742 95.479C212.127 94.1339 209.869 93.8719 207.989 94.8115L191.762 102.922L190.584 103.338C182.632 106.143 177.844 114.255 179.231 122.573C179.388 123.517 179.467 124.472 179.467 125.429V142.394C179.467 145.447 177.246 148.045 174.231 148.521L168.346 149.45C164.644 150.034 161.004 150.963 157.474 152.223C152.832 153.88 148.411 156.1 144.31 158.833L130.286 168.179C124.455 172.065 118.149 175.185 111.523 177.461L107.558 178.824C98.2455 182.024 88.319 183.026 78.5547 181.753L74.9918 181.289C73.7997 181.133 72.6227 180.877 71.4736 180.524L64.6276 178.418C62.8276 177.865 60.8741 178.149 59.307 179.194C57.562 180.357 56.5139 182.315 56.5139 184.412V188.628C56.5139 191.69 57.5073 194.67 59.345 197.119L63.5626 202.74C65.8737 205.821 68.6743 208.501 71.8528 210.675L77.6102 214.613C81.6869 217.401 86.0208 219.793 90.5529 221.756L97.8772 224.929C105.931 228.418 114.615 230.218 123.392 230.218H123.791C128.109 230.218 132.413 229.755 136.632 228.838C145.744 226.858 154.275 222.798 161.557 216.974L176.832 204.758L192.196 191.495C194.083 189.866 197.019 190.673 197.807 193.038C197.876 193.243 197.925 193.453 197.954 193.667L199.843 207.352C200.886 214.915 203.391 222.203 207.217 228.809C209.784 233.241 212.918 237.319 216.54 240.939L228.251 252.646C234.877 259.269 242.865 264.37 251.661 267.594C260.227 270.734 269.361 272.021 278.461 271.371L289.247 270.601C302.485 270.601 315.721 273.289 327.889 278.502L357.749 294.304L359.531 295.096C368.845 299.234 378.644 302.175 388.697 303.85L389.184 303.931C389.305 303.951 389.427 303.958 389.55 303.951L395.472 303.602C401.083 303.272 406.284 300.553 409.758 296.134C412.478 292.674 413.956 288.4 413.956 283.999V278.715C413.956 278.579 414.01 278.448 414.107 278.352C416.852 275.608 418.581 272.011 419.01 268.153L419.741 261.572C419.983 259.402 420.026 257.215 419.87 255.037L418.429 234.863C418.377 234.138 418.036 233.463 417.484 232.991L367.15 189.968C361.019 184.728 356.567 177.797 354.351 170.042C354.276 169.783 354.29 169.506 354.388 169.255L360.12 154.611C361.436 151.249 361.706 147.569 360.894 144.051C359.994 140.155 357.817 136.671 354.708 134.156L345.536 126.733C342.566 124.33 339.925 121.549 337.677 118.461C335.262 115.141 332.392 112.178 329.151 109.658Z" fill="url(#paint4_linear_405_66696)" stroke="#FFD88B"/>
<mask id="mask2_405_66696" style="mask-type:alpha" maskUnits="userSpaceOnUse" x="56" y="74" width="364" height="231">
<path d="M328.985 109.987L313.869 98.2307C311.518 96.4022 310.143 93.5906 310.143 90.6122C310.143 87.0288 308.158 83.7403 304.987 82.0713L296.504 77.6066C294.483 76.5429 292.273 75.8843 290 75.6678L280.336 74.7474C277.26 74.4544 274.431 76.4543 273.681 79.4525C272.919 82.5017 270.011 84.5102 266.889 84.143L259.849 83.3148C258.232 83.1245 256.595 83.2117 255.007 83.5725L241.61 86.6173C239.257 87.1521 236.971 87.9492 234.795 88.9935L219.162 96.4973C217.294 97.3942 215.074 97.1184 213.482 95.7915C211.866 94.4449 209.606 94.1826 207.724 95.1233L191.485 103.243L190.31 103.658C182.348 106.468 177.555 114.59 178.943 122.918C179.1 123.863 179.179 124.82 179.179 125.778V142.766C179.179 145.82 176.957 148.421 173.941 148.897L168.05 149.827C164.344 150.412 160.701 151.342 157.168 152.603C152.523 154.263 148.098 156.485 143.994 159.221L129.956 168.58C124.122 172.469 117.811 175.592 111.18 177.872L107.211 179.236C97.8915 182.44 87.9568 183.444 78.1844 182.169L74.6189 181.704C73.4257 181.548 72.2479 181.292 71.0978 180.938L64.2473 178.83C62.4452 178.276 60.4893 178.561 58.9205 179.607C57.1746 180.771 56.1259 182.73 56.1259 184.829V189.053C56.1259 192.118 57.1201 195.101 58.9595 197.554L63.1796 203.18C65.4931 206.265 68.2967 208.949 71.4789 211.127L77.2386 215.068C81.3191 217.859 85.6573 220.255 90.1938 222.22L97.5237 225.397C105.583 228.889 114.274 230.691 123.058 230.691H123.458C127.779 230.691 132.087 230.228 136.31 229.31C145.429 227.328 153.966 223.263 161.253 217.434L176.542 205.202L191.918 191.923C193.806 190.292 196.746 191.1 197.535 193.467C197.603 193.672 197.652 193.883 197.682 194.097L199.572 207.801C200.616 215.371 203.122 222.667 206.951 229.28C209.52 233.718 212.658 237.801 216.283 241.427L228.006 253.149C234.635 259.779 242.629 264.884 251.431 268.112C260.005 271.256 269.147 272.545 278.256 271.894L289.048 271.123C302.298 271.123 315.544 273.814 327.722 279.034L357.607 294.855L359.391 295.648C368.711 299.79 378.519 302.735 388.579 304.412L389.067 304.493C389.188 304.513 389.311 304.52 389.433 304.513L395.356 304.164C400.974 303.834 406.182 301.111 409.659 296.685C412.38 293.222 413.86 288.945 413.86 284.54V279.246C413.86 279.11 413.914 278.98 414.01 278.883C416.757 276.136 418.488 272.535 418.917 268.673L419.649 262.083C419.891 259.911 419.934 257.721 419.778 255.541L418.335 235.342C418.284 234.616 417.943 233.941 417.389 233.468L367.017 190.395C360.879 185.148 356.424 178.208 354.205 170.444C354.131 170.184 354.144 169.907 354.243 169.656L359.98 154.993C361.297 151.628 361.567 147.944 360.754 144.423C359.854 140.521 357.674 137.033 354.561 134.513L345.384 127.083C342.412 124.678 339.767 121.893 337.518 118.801C335.101 115.477 332.229 112.51 328.985 109.987Z" fill="#D9D9D9"/>
</mask>
<g mask="url(#mask2_405_66696)">
<rect opacity="0.5" width="140.545" height="54.819" transform="matrix(-0.977972 0.208736 0.208736 0.977972 188.774 163.533)" fill="url(#paint5_linear_405_66696)"/>
<path d="M270.476 150.029L266.309 148.63C265.232 148.268 264.104 148.086 262.968 148.089L256.971 148.107C250.612 148.126 244.336 149.546 238.588 152.266L245.823 153.395C248.466 153.808 251.023 154.651 253.393 155.892C255.957 157.235 258.739 158.112 261.609 158.482L264.714 158.882L264.716 158.882L269.609 158.314C271.766 158.064 273.391 156.233 273.385 154.062C273.379 152.233 272.209 150.611 270.476 150.029Z" fill="url(#paint6_linear_405_66696)" stroke="#A0763E" stroke-width="0.790413"/>
<path d="M350.714 144.154L351.139 143.858C352.172 143.14 353.399 142.753 354.657 142.749L356.451 142.744C359.528 142.735 362.49 143.914 364.719 146.035L365.545 146.821L362.466 147.83C360.879 148.35 359.451 149.267 358.317 150.493C357.068 151.844 355.465 152.817 353.689 153.3L352.759 153.553C352.758 153.553 352.757 153.553 352.756 153.553L352.533 153.502C350.169 152.965 348.489 150.866 348.482 148.442C348.477 146.733 349.311 145.13 350.714 144.154Z" fill="url(#paint7_linear_405_66696)" stroke="#A0763E" stroke-width="0.790413"/>
<path d="M331.599 129.644L325.964 125.217L324.535 124.338C318.045 120.344 310.436 118.558 302.847 119.248L301.269 119.392C297.27 119.755 293.396 120.974 289.91 122.967L289.439 123.235C285.164 125.679 281.666 129.28 279.349 133.625C277.07 137.897 276.024 142.718 276.326 147.55L276.376 148.348C276.618 152.224 277.638 156.013 279.375 159.487L282.671 166.079C285.154 171.046 288.262 175.674 291.918 179.853L298.717 187.623C313.337 201.658 329.172 214.372 346.035 225.614L347.059 226.296L375.185 243.876L375.826 244.076C384.723 246.856 393.99 248.27 403.312 248.27C408.5 243.082 412.28 236.658 414.296 229.603L414.738 228.054L363.749 182.238C357.496 176.619 353.338 169.043 351.956 160.751C351.047 155.296 348.929 150.113 345.757 145.582L343.134 141.835C339.909 137.227 336.022 133.119 331.599 129.644Z" fill="#FFFDFB"/>
<path d="M331.599 129.644L325.964 125.217L324.535 124.338C318.045 120.344 310.436 118.558 302.847 119.248L301.269 119.392C297.27 119.755 293.396 120.974 289.91 122.967L289.439 123.235C285.164 125.679 281.666 129.28 279.349 133.625C277.07 137.897 276.024 142.718 276.326 147.55L276.376 148.348C276.618 152.224 277.638 156.013 279.375 159.487L282.671 166.079C285.154 171.046 288.262 175.674 291.918 179.853L298.717 187.623C313.337 201.658 329.172 214.372 346.035 225.614L347.059 226.296L375.185 243.876L375.826 244.076C384.723 246.856 393.99 248.27 403.312 248.27C408.5 243.082 412.28 236.658 414.296 229.603L414.738 228.054L363.749 182.238C357.496 176.619 353.338 169.043 351.956 160.751C351.047 155.296 348.929 150.113 345.757 145.582L343.134 141.835C339.909 137.227 336.022 133.119 331.599 129.644Z" fill="url(#paint8_linear_405_66696)"/>
</g>
<path d="M329.151 109.658L314.047 97.9147C311.698 96.0888 310.324 93.2806 310.324 90.3057C310.324 86.7268 308.341 83.4425 305.174 81.7761L296.696 77.3157C294.677 76.2534 292.469 75.5956 290.198 75.3794L280.54 74.4599C277.467 74.1673 274.641 76.1649 273.892 79.1596C273.131 82.2052 270.225 84.2113 267.107 83.8446L260.071 83.0171C258.456 82.8271 256.82 82.9142 255.234 83.2745L241.847 86.3157C239.496 86.8499 237.212 87.6461 235.038 88.6892L219.417 96.1841C217.55 97.0799 215.333 96.8044 213.742 95.479C212.127 94.1339 209.869 93.8719 207.989 94.8115L191.762 102.922L190.584 103.338C182.632 106.143 177.844 114.255 179.231 122.573C179.388 123.517 179.467 124.472 179.467 125.429V142.394C179.467 145.447 177.246 148.045 174.231 148.521L168.346 149.45C164.644 150.034 161.004 150.963 157.474 152.223C152.832 153.88 148.411 156.1 144.31 158.833L130.286 168.179C124.455 172.065 118.149 175.185 111.523 177.461L107.558 178.824C98.2455 182.024 88.319 183.026 78.5547 181.753L74.9918 181.289C73.7997 181.133 72.6227 180.877 71.4736 180.524L64.6276 178.418C62.8276 177.865 60.8741 178.149 59.307 179.194C57.562 180.357 56.5139 182.315 56.5139 184.412V188.628C56.5139 191.69 57.5073 194.67 59.345 197.119L63.5626 202.74C65.8737 205.821 68.6743 208.501 71.8528 210.675L77.6102 214.613C81.6869 217.401 86.0208 219.793 90.5529 221.756L97.8772 224.929C105.931 228.418 114.615 230.218 123.392 230.218H123.791C128.109 230.218 132.413 229.755 136.632 228.838C145.744 226.858 154.275 222.798 161.557 216.974L176.832 204.758L192.196 191.495C194.083 189.866 197.019 190.673 197.807 193.038C197.876 193.243 197.925 193.453 197.954 193.667L199.843 207.352C200.886 214.915 203.391 222.203 207.217 228.809C209.784 233.241 212.918 237.319 216.54 240.939L228.251 252.646C234.877 259.269 242.865 264.37 251.661 267.594C260.227 270.734 269.361 272.021 278.461 271.371L289.247 270.601C302.485 270.601 315.721 273.289 327.889 278.502L357.749 294.304L359.531 295.096C368.845 299.234 378.644 302.175 388.697 303.85L389.184 303.931C389.305 303.951 389.427 303.958 389.55 303.951L395.472 303.602C401.083 303.272 406.284 300.553 409.758 296.134C412.478 292.674 413.956 288.4 413.956 283.999V278.715C413.956 278.579 414.01 278.448 414.107 278.352C416.852 275.608 418.581 272.011 419.01 268.153L419.741 261.572C419.983 259.402 420.026 257.215 419.87 255.037L418.429 234.863C418.377 234.138 418.036 233.463 417.484 232.991L367.15 189.968C361.019 184.728 356.567 177.797 354.351 170.042C354.276 169.783 354.29 169.506 354.388 169.255L360.12 154.611C361.436 151.249 361.706 147.569 360.894 144.051C359.994 140.155 357.817 136.671 354.708 134.156L345.536 126.733C342.566 124.33 339.925 121.549 337.677 118.461C335.262 115.141 332.392 112.178 329.151 109.658Z" stroke="#FFD88B" stroke-width="0.790413"/>
<path d="M158.854 192.002L167.831 188.074C176.428 184.313 185.524 181.814 194.836 180.657L189.571 185.02L180.794 192.002L164.997 206.839L156.265 213.352C152.743 215.979 148.865 218.092 144.748 219.627C139.566 221.559 134.081 222.549 128.551 222.549H123.442C117.825 222.549 112.238 221.733 106.855 220.127C100.609 218.264 94.722 215.361 89.4405 211.542L78.1114 203.348L67.5799 195.493L77.568 199.75C83.181 202.142 89.0263 203.948 95.0107 205.138L95.82 205.299C100.969 206.323 106.207 206.839 111.457 206.839H112.653C120.007 206.839 127.318 205.718 134.334 203.515C138.386 202.243 142.317 200.616 146.084 198.654L158.854 192.002Z" fill="#FFC896" stroke="#D98F4B" stroke-width="0.790413"/>
<path d="M384.637 289.858L384.65 289.859L384.662 289.862C392.361 291.504 400.386 289.508 406.419 284.452L412.339 279.49C408.316 279.864 404.564 277.105 403.8 273.05C400.304 279.017 393.888 282.727 386.91 282.727H382.973C379.309 282.727 375.685 281.951 372.342 280.45L334.205 263.333L342.37 271.459C354.479 281.21 368.973 287.548 384.354 289.816L384.637 289.858Z" fill="url(#paint9_radial_405_66696)" stroke="#E9ABCC" stroke-width="0.80049"/>
<g style="mix-blend-mode:color-burn">
<path d="M384.637 289.858L384.65 289.859L384.662 289.862C392.361 291.504 400.386 289.508 406.419 284.452L412.339 279.49C408.316 279.864 404.564 277.105 403.8 273.05C400.304 279.017 393.888 282.727 386.91 282.727H382.973C379.309 282.727 375.685 281.951 372.342 280.45L334.205 263.333L342.37 271.459C354.479 281.21 368.973 287.548 384.354 289.816L384.637 289.858Z" fill="url(#paint10_linear_405_66696)"/>
<path d="M384.637 289.858L384.65 289.859L384.662 289.862C392.361 291.504 400.386 289.508 406.419 284.452L412.339 279.49C408.316 279.864 404.564 277.105 403.8 273.05C400.304 279.017 393.888 282.727 386.91 282.727H382.973C379.309 282.727 375.685 281.951 372.342 280.45L334.205 263.333L342.37 271.459C354.479 281.21 368.973 287.548 384.354 289.816L384.637 289.858Z" stroke="#E9ABCC" stroke-width="0.80049"/>
</g>
<path d="M273.264 182.499L282.572 191.951L270.594 198.034C263.51 201.63 255.441 202.797 247.628 201.355C236.865 199.368 227.578 192.618 222.366 182.993L220.92 180.324L224.814 177.688C232.519 172.471 241.868 170.259 251.093 171.467C259.507 172.57 267.31 176.453 273.264 182.499Z" fill="white" stroke="#FFC896" stroke-width="0.790413"/>
<path d="M254.383 173.338L256.093 172.357L265.776 176.137L273.779 183.053L282.572 191.723L269.53 198.836L261.527 201.43L253.524 202.294L251.128 199.63C248.512 196.723 246.887 193.059 246.486 189.169L246.449 188.806C246.293 187.284 246.356 185.747 246.637 184.243C247.496 179.648 250.328 175.662 254.383 173.338Z" fill="url(#paint11_linear_405_66696)"/>
<mask id="mask3_405_66696" style="mask-type:alpha" maskUnits="userSpaceOnUse" x="220" y="170" width="64" height="33">
<path d="M273.264 182.499L282.572 191.951L270.594 198.034C263.51 201.63 255.441 202.797 247.628 201.355C236.865 199.368 227.578 192.618 222.366 182.993L220.92 180.324L224.814 177.688C232.519 172.471 241.868 170.259 251.093 171.467C259.507 172.57 267.31 176.453 273.264 182.499Z" fill="white" stroke="#FFC896" stroke-width="0.790413"/>
</mask>
<g mask="url(#mask3_405_66696)">
<circle cx="4.34727" cy="4.34727" r="4.34727" transform="matrix(-1 0 0 1 252.694 178)" fill="white"/>
</g>
<path d="M273.264 182.499L282.572 191.951L270.594 198.034C263.51 201.63 255.441 202.797 247.628 201.355C236.865 199.368 227.578 192.618 222.366 182.993L220.92 180.324L224.814 177.688C232.519 172.471 241.868 170.259 251.093 171.467C259.507 172.57 267.31 176.453 273.264 182.499Z" stroke="#FFC896" stroke-width="0.790413"/>
<path d="M402.426 246.68L393.974 241.066C388.581 237.485 381.289 240.664 380.243 247.053C379.531 251.408 382.111 255.63 386.312 256.981L392.573 258.994C402.574 262.21 413.002 255.416 414.101 244.969L414.491 241.264C414.545 240.754 414.528 240.24 414.441 239.735C413.366 233.477 404.341 233.59 403.422 239.872L402.426 246.68Z" fill="#B0896D" stroke="#95694A" stroke-width="0.790413"/>
<path d="M402.426 246.68L393.974 241.066C388.581 237.485 381.289 240.664 380.243 247.053C379.531 251.408 382.111 255.63 386.312 256.981L392.573 258.994C402.574 262.21 413.002 255.416 414.101 244.969L414.491 241.264C414.545 240.754 414.528 240.24 414.441 239.735C413.366 233.477 404.341 233.59 403.422 239.872L402.426 246.68Z" fill="url(#paint12_linear_405_66696)" stroke="#95694A" stroke-width="0.790413"/>
<path d="M379.945 303.058L386.331 303.524C386.389 303.528 386.403 303.444 386.346 303.43L379.273 301.715C367.038 298.749 355.3 294.02 344.427 287.676L342.535 286.572V290.905C342.535 293.681 341.441 296.346 339.49 298.321L336.022 301.833C335.068 302.799 334.029 303.677 332.918 304.456L331.544 305.42C329.458 306.882 327.241 308.148 324.921 309.2L314.817 313.784C314.386 313.979 314.466 314.614 314.932 314.696L318.987 315.407C322.319 315.991 325.694 316.284 329.076 316.284H333.115C333.6 316.284 333.812 316.896 333.431 317.197C329.515 320.286 325.168 322.785 320.527 324.615L314.977 326.804C314.646 326.934 314.739 327.426 315.095 327.426H318.172C329.073 327.426 339.929 326.045 350.481 323.315L351.105 323.154C351.246 323.117 351.395 323.172 351.48 323.291C356.487 330.29 363.958 335.264 372.36 337.124C374.836 337.673 377.364 337.949 379.9 337.949H391.833C392.916 337.949 393.243 336.477 392.262 336.019L391.095 335.473L383.764 331.543C378.703 328.829 374.276 325.071 370.778 320.516C370.529 320.192 370.863 319.745 371.244 319.891L371.467 319.977C376.855 322.037 382.574 323.093 388.342 323.093H395.095C395.457 323.093 395.589 322.616 395.277 322.431L386.849 317.423C385.574 316.666 384.378 315.781 383.281 314.783L377.262 309.308C376.512 308.626 376.085 307.66 376.085 306.646C376.085 304.556 377.861 302.905 379.945 303.058Z" fill="#FCFFE9" stroke="#FFD88B" stroke-width="0.790413"/>
<path d="M379.945 303.058L386.331 303.524C386.389 303.528 386.403 303.444 386.346 303.43L379.273 301.715C367.038 298.749 355.3 294.02 344.427 287.676L342.535 286.572V290.905C342.535 293.681 341.441 296.346 339.49 298.321L336.022 301.833C335.068 302.799 334.029 303.677 332.918 304.456L331.544 305.42C329.458 306.882 327.241 308.148 324.921 309.2L314.817 313.784C314.386 313.979 314.466 314.614 314.932 314.696L318.987 315.407C322.319 315.991 325.694 316.284 329.076 316.284H333.115C333.6 316.284 333.812 316.896 333.431 317.197C329.515 320.286 325.168 322.785 320.527 324.615L314.977 326.804C314.646 326.934 314.739 327.426 315.095 327.426H318.172C329.073 327.426 339.929 326.045 350.481 323.315L351.105 323.154C351.246 323.117 351.395 323.172 351.48 323.291C356.487 330.29 363.958 335.264 372.36 337.124C374.836 337.673 377.364 337.949 379.9 337.949H391.833C392.916 337.949 393.243 336.477 392.262 336.019L391.095 335.473L383.764 331.543C378.703 328.829 374.276 325.071 370.778 320.516C370.529 320.192 370.863 319.745 371.244 319.891L371.467 319.977C376.855 322.037 382.574 323.093 388.342 323.093H395.095C395.457 323.093 395.589 322.616 395.277 322.431L386.849 317.423C385.574 316.666 384.378 315.781 383.281 314.783L377.262 309.308C376.512 308.626 376.085 307.66 376.085 306.646C376.085 304.556 377.861 302.905 379.945 303.058Z" fill="url(#paint13_linear_405_66696)" stroke="#FFD88B" stroke-width="0.790413"/>
<path d="M211.662 369.732L227.131 370.963C246.953 372.539 266.066 363.226 277.04 346.644H339.087H357.342C373.523 346.644 388.07 356.508 394.057 371.541L402.716 393.278L431.17 506.703C409.326 526.748 381.747 539.439 352.313 542.992L351.734 543.062V618.546V719.324H113.424C119.715 680.792 120.463 641.558 115.645 602.814L113.424 584.953L106.103 512.235L103.149 547.804H97.2913C64.2529 547.804 31.4205 542.603 -9.15527e-05 532.391L4.77829 430.077C6.05045 402.838 14.2865 376.381 28.6994 353.233C31.2892 349.073 35.6476 346.336 40.5189 345.808L142.274 334.788L171.65 355.35C183.468 363.623 197.281 368.588 211.662 369.732Z" fill="#DCFFE6"/>
<path d="M113.424 424.104L106.103 512.235M106.103 512.235L103.149 547.804H97.2913C64.2529 547.804 31.4205 542.603 -8.84533e-05 532.391V532.391L4.7783 430.077C6.05044 402.838 14.2865 376.381 28.6994 353.233V353.233C31.2893 349.073 35.6476 346.336 40.5189 345.808L142.274 334.788L171.65 355.35C183.468 363.623 197.281 368.588 211.662 369.732L227.131 370.963C246.953 372.539 266.066 363.226 277.04 346.644V346.644H339.087H357.342C373.523 346.644 388.07 356.508 394.057 371.541L402.716 393.278L431.17 506.703V506.703C409.326 526.748 381.747 539.439 352.313 542.992L351.734 543.062M106.103 512.235L113.424 584.953L115.645 602.814C120.463 641.558 119.715 680.792 113.424 719.324V719.324H351.734V618.546V543.062M333.554 415.015V415.015C345.516 439.457 351.734 466.31 351.734 493.523V520.14V543.062" stroke="#B18D74" stroke-width="0.474248"/>
<path d="M211.662 369.732L227.131 370.963C246.953 372.539 266.066 363.226 277.04 346.644H339.087H357.342C373.523 346.644 388.07 356.508 394.057 371.541L402.716 393.278L431.17 506.703C409.326 526.748 381.747 539.439 352.313 542.992L351.734 543.062V618.546V719.324H113.424C119.715 680.792 120.463 641.558 115.645 602.814L113.424 584.953L106.103 512.235L103.149 547.804H97.2913C64.2529 547.804 31.4205 542.603 -9.15527e-05 532.391L4.77829 430.077C6.05045 402.838 14.2865 376.381 28.6994 353.233C31.2892 349.073 35.6476 346.336 40.5189 345.808L142.274 334.788L171.65 355.35C183.468 363.623 197.281 368.588 211.662 369.732Z" fill="url(#paint14_linear_405_66696)"/>
<g style="mix-blend-mode:color-burn">
<path d="M211.662 369.732L227.131 370.963C246.953 372.539 266.066 363.226 277.04 346.644H339.087H357.342C373.523 346.644 388.07 356.508 394.057 371.541L402.716 393.278L431.17 506.703C409.326 526.748 381.747 539.439 352.313 542.992L351.734 543.062V618.546V719.324H113.424C119.715 680.792 120.463 641.558 115.645 602.814L113.424 584.953L106.103 512.235L103.149 547.804H97.2913C64.2529 547.804 31.4205 542.603 -9.15527e-05 532.391L4.77829 430.077C6.05045 402.838 14.2865 376.381 28.6994 353.233C31.2892 349.073 35.6476 346.336 40.5189 345.808L142.274 334.788L171.65 355.35C183.468 363.623 197.281 368.588 211.662 369.732Z" fill="url(#paint15_linear_405_66696)"/>
<path d="M113.424 424.104L106.103 512.235M106.103 512.235L103.149 547.804H97.2913C64.2529 547.804 31.4205 542.603 -8.84533e-05 532.391V532.391L4.7783 430.077C6.05044 402.838 14.2865 376.381 28.6994 353.233V353.233C31.2893 349.073 35.6476 346.336 40.5189 345.808L142.274 334.788L171.65 355.35C183.468 363.623 197.281 368.588 211.662 369.732L227.131 370.963C246.953 372.539 266.066 363.226 277.04 346.644V346.644H339.087H357.342C373.523 346.644 388.07 356.508 394.057 371.541L402.716 393.278L431.17 506.703V506.703C409.326 526.748 381.747 539.439 352.313 542.992L351.734 543.062M106.103 512.235L113.424 584.953L115.645 602.814C120.463 641.558 119.715 680.792 113.424 719.324V719.324H351.734V618.546V543.062M333.554 415.015V415.015C345.516 439.457 351.734 466.31 351.734 493.523V520.14V543.062" stroke="#C7FFDF"/>
</g>
<path d="M376.237 351.386L370.994 354.881C367.381 357.29 363.961 359.977 360.765 362.917L355.447 367.81C342.924 379.331 335.359 395.262 334.345 412.248V412.248" stroke="#7CB998" stroke-width="0.553289"/>
<path d="M34.7779 347.829V347.829C56.8599 345.1 78.9053 353.169 94.0085 369.508L94.6062 370.154C106.705 383.243 113.424 400.411 113.424 418.234V424.895" stroke="#7CB998" stroke-width="0.553289"/>
<g style="mix-blend-mode:color-dodge" opacity="0.5">
<ellipse cx="339.5" cy="91" rx="89.5" ry="69" fill="#FF6636"/>
</g>
<g style="mix-blend-mode:screen" opacity="0.5">
<ellipse cx="388.5" cy="383" rx="130.5" ry="69" fill="#E3FF36"/>
</g>
<g style="mix-blend-mode:soft-light">
<rect x="-31.9321" y="-36.1571" width="625.879" height="680.567" fill="#003EDC"/>
</g>
<g style="mix-blend-mode:soft-light">
<rect x="-31.9321" y="-31.0936" width="626.892" height="675.503" fill="#FF7E36"/>
</g>
<g style="mix-blend-mode:color-burn" opacity="0.5">
<rect x="-31.9321" y="-31.0936" width="626.892" height="675.503" fill="#A2B0FF"/>
</g>
</g>
</g>
<defs>
<linearGradient id="paint0_linear_405_66696" x1="193.284" y1="-48.4204" x2="175.619" y2="136.916" gradientUnits="userSpaceOnUse">
<stop stop-color="#572908"/>
<stop offset="1" stop-color="#956645" stop-opacity="0"/>
</linearGradient>
<linearGradient id="paint1_linear_405_66696" x1="306.68" y1="-57.2575" x2="279.411" y2="94.1066" gradientUnits="userSpaceOnUse">
<stop stop-color="#572908"/>
<stop offset="1" stop-color="#956645" stop-opacity="0"/>
</linearGradient>
<linearGradient id="paint2_linear_405_66696" x1="270.42" y1="201.725" x2="117.698" y2="246.644" gradientUnits="userSpaceOnUse">
<stop stop-color="#F0C380"/>
<stop offset="1" stop-color="#F8C99E" stop-opacity="0"/>
</linearGradient>
<linearGradient id="paint3_linear_405_66696" x1="418.464" y1="136.846" x2="264.726" y2="258.829" gradientUnits="userSpaceOnUse">
<stop stop-color="#D9A557"/>
<stop offset="1" stop-color="#F8C99E" stop-opacity="0"/>
</linearGradient>
<linearGradient id="paint4_linear_405_66696" x1="356.476" y1="92.5258" x2="279.41" y2="256.141" gradientUnits="userSpaceOnUse">
<stop stop-color="#F0C380"/>
<stop offset="1" stop-color="#F8C99E" stop-opacity="0"/>
</linearGradient>
<linearGradient id="paint5_linear_405_66696" x1="67.8347" y1="57.1816" x2="57.5791" y2="14.0879" gradientUnits="userSpaceOnUse">
<stop offset="0.229641" stop-color="#D9A557"/>
<stop offset="1" stop-color="#D9A557" stop-opacity="0"/>
</linearGradient>
<linearGradient id="paint6_linear_405_66696" x1="272.764" y1="153.007" x2="229.376" y2="161.69" gradientUnits="userSpaceOnUse">
<stop stop-color="#80571A"/>
<stop offset="1" stop-color="#F8C99E"/>
</linearGradient>
<linearGradient id="paint7_linear_405_66696" x1="348.783" y1="147.714" x2="370.709" y2="149.767" gradientUnits="userSpaceOnUse">
<stop stop-color="#80571A"/>
<stop offset="1" stop-color="#F8C99E"/>
</linearGradient>
<linearGradient id="paint8_linear_405_66696" x1="309.446" y1="118.214" x2="414.571" y2="263.65" gradientUnits="userSpaceOnUse">
<stop stop-color="#FFE9D5"/>
<stop offset="0.723573" stop-color="#FFFDFB" stop-opacity="0"/>
</linearGradient>
<radialGradient id="paint9_radial_405_66696" cx="0" cy="0" r="1" gradientUnits="userSpaceOnUse" gradientTransform="translate(402.715 282.62) rotate(-96.009) scale(7.55041 22.2387)">
<stop offset="0.302083" stop-color="#E9ABCC"/>
<stop offset="1" stop-color="#D13982"/>
</radialGradient>
<linearGradient id="paint10_linear_405_66696" x1="399.159" y1="283.806" x2="340.861" y2="275.211" gradientUnits="userSpaceOnUse">
<stop offset="0.302083" stop-color="#E9ABCC"/>
<stop offset="1" stop-color="#9A054D"/>
</linearGradient>
<linearGradient id="paint11_linear_405_66696" x1="271.111" y1="177.1" x2="254.512" y2="201.998" gradientUnits="userSpaceOnUse">
<stop stop-color="#2A0944"/>
<stop offset="1" stop-color="#D7ADF9"/>
</linearGradient>
<linearGradient id="paint12_linear_405_66696" x1="407.853" y1="235.195" x2="384.536" y2="271.159" gradientUnits="userSpaceOnUse">
<stop stop-color="#530F00"/>
<stop offset="1" stop-color="#B0896D" stop-opacity="0"/>
</linearGradient>
<linearGradient id="paint13_linear_405_66696" x1="354.895" y1="286.572" x2="354.895" y2="337.949" gradientUnits="userSpaceOnUse">
<stop stop-color="#F8D29C"/>
<stop offset="1" stop-color="#FFF2DF"/>
</linearGradient>
<linearGradient id="paint14_linear_405_66696" x1="344.225" y1="334.788" x2="47.8199" y2="735.527" gradientUnits="userSpaceOnUse">
<stop stop-color="#3AC4BB"/>
<stop offset="1" stop-color="#DCFFE6" stop-opacity="0"/>
</linearGradient>
<linearGradient id="paint15_linear_405_66696" x1="344.225" y1="334.788" x2="47.8199" y2="735.527" gradientUnits="userSpaceOnUse">
<stop stop-color="#3AC4BB"/>
<stop offset="1" stop-color="#DCFFE6" stop-opacity="0"/>
</linearGradient>
</defs>
</svg>
