<svg width="532" height="506" viewBox="0 0 532 506" fill="none" xmlns="http://www.w3.org/2000/svg">
<g clip-path="url(#clip0_518_15657)">
<mask id="mask0_518_15657" style="mask-type:alpha" maskUnits="userSpaceOnUse" x="-8" y="0" width="548" height="506">
<rect x="-8" width="548" height="506" fill="#EDE7FF"/>
</mask>
<g mask="url(#mask0_518_15657)">
<path d="M126.393 201.461V173.124L188.521 252.023V327.065C188.521 342.897 187.332 358.707 184.963 374.361L177.585 423.11C172.212 458.616 158.299 492.286 137.042 521.229L115.153 551.031C109.447 558.799 102.034 565.154 93.4846 569.604L88.1193 572.397C64.543 584.67 35.5776 578.539 18.9956 557.766C6.38061 541.963 3.34027 520.557 11.0561 501.866L18.7223 483.295C20.407 479.214 22.3907 475.263 24.6572 471.475L71.0955 393.849C82.1773 375.324 91.3325 355.714 98.4175 335.324L108.882 305.209C120.474 271.847 126.393 236.779 126.393 201.461Z" fill="#3D3AA9"/>
<path d="M293.817 201.377V173.124L356.049 175.515V327.026C356.049 342.884 354.855 358.72 352.478 374.399L345.105 423.043C339.716 458.592 325.768 492.298 304.461 521.259L282.573 551.011C276.848 558.792 269.413 565.156 260.841 569.611L255.4 572.439C231.822 584.692 202.872 578.566 186.278 557.813C173.622 541.985 170.572 520.527 178.316 501.799L185.968 483.292C187.655 479.213 189.641 475.265 191.909 471.479L238.417 393.866C249.524 375.33 258.701 355.704 265.804 335.296L276.252 305.279C287.879 271.872 293.817 236.75 293.817 201.377Z" fill="#3D3AA9"/>
<path d="M213.011 293.327L199.141 268.669L303.377 265.127V290.973C303.377 297.572 305.151 304.049 308.511 309.728C314.506 319.857 324.981 326.51 336.697 327.63L376.056 331.392C383.245 332.079 390.486 332.033 397.666 331.256L430.46 327.703C441.306 326.528 452.11 330.259 459.919 337.878C465.391 343.216 469.051 350.136 470.384 357.663L484.02 434.638L506.021 545.013C511.57 572.85 520.693 599.854 533.164 625.353C543.215 645.906 551.099 667.45 556.686 689.636L565.486 724.576L495.658 736.72L468.334 676L438.986 596.558L414.192 495.358L399.012 404.784L404.578 453.36V474.443C404.578 535.488 399.054 596.407 388.075 656.456L379.784 701.806L141.963 687.132L144.724 676.412C159.945 617.319 163.646 555.849 155.625 495.358L145.505 444.252L140.445 418.699L139.294 413.416C138.725 410.803 134.879 411.217 134.879 413.892C133.196 426.685 130.377 439.303 126.458 451.597L121.217 468.034C105.396 511.12 85.6209 552.649 62.1443 592.09L59.4848 596.558L-0.223389 572.27L43.2978 465.837C48.3466 453.49 52.4156 440.765 55.4673 427.779L70.5358 363.657C73.2173 352.247 79.495 342 88.4429 334.429C100.578 324.161 116.582 319.683 132.284 322.162L150.583 325.051C153.939 325.581 157.332 325.847 160.73 325.847H193.992C203.889 325.847 212.546 319.187 215.084 309.621C216.542 304.127 215.798 298.281 213.011 293.327Z" fill="#3D3AA9"/>
<path d="M307.095 263.613L277.162 281.547C274.775 282.977 271.976 283.563 269.216 283.21L239.134 279.365C228.13 277.958 217.32 275.312 206.91 271.478L182.63 262.533C163.883 255.627 148.382 241.98 139.157 224.258C135.803 217.816 133.339 210.948 131.832 203.843L129.118 191.049C126.796 180.106 125.952 168.901 126.609 157.733L126.879 153.154C127.648 140.08 130.937 127.278 136.565 115.453L136.918 114.71C143.047 101.833 151.916 90.4494 162.903 81.3571C175.035 71.3185 189.409 64.3542 204.805 61.0552L215.304 58.8059L236.581 55.9692C246.59 54.6348 256.733 54.646 266.739 56.0025L274.464 57.0498C299.885 60.496 322.823 74.1016 338.035 94.7576L340.042 97.4819C345.124 104.383 348.988 112.103 351.467 120.308C353.596 127.354 354.677 134.675 354.677 142.036V160.018L357.136 179.069C358.702 191.208 357.116 203.545 352.528 214.892C349.144 223.264 344.199 230.916 337.958 237.44L331.741 243.939C324.442 251.569 316.153 258.186 307.095 263.613Z" fill="#3D3AA9"/>
<path d="M167.46 124.53L82.4067 149.287C81.5434 149.538 80.8477 148.559 81.3691 147.827L119.24 94.6253L134.621 45.3062C136.008 40.8609 138.983 37.0823 142.98 34.6923L154.062 28.0647C207.419 -3.84486 274.041 -3.65984 327.221 28.5456C330.105 30.2922 332.396 32.8665 333.796 35.9334L352.768 77.4796L401.613 122.533C402.29 123.158 401.769 124.284 400.854 124.172L319.293 114.163L307.023 112.481C263.348 106.491 218.903 109.704 176.544 121.912L167.46 124.53Z" fill="#3D3AA9"/>
<path d="M193.542 349.505L173.335 322.812L126.686 318.888C121.717 318.47 116.714 318.782 111.836 319.814C94.1588 323.553 79.773 336.355 74.0059 353.478L62.5207 387.58L55.4367 414.398C47.4776 436.285 33.9649 455.728 16.2244 470.817L-0.729431 485.238C27.5636 508.978 63.5372 522.176 100.471 522.176L122.735 485.238L133.093 470.995C133.656 470.222 134.879 470.62 134.879 471.576V529.149C134.879 565.359 128.354 601.272 115.616 635.168C108.573 653.91 99.6796 671.903 89.0682 688.881L87.3148 691.687L387.88 703.325L403.06 604.654L410.399 482.825C410.443 482.092 411.484 481.996 411.662 482.708C414.985 494.006 415.495 505.945 413.147 517.485L410.65 529.766L424.879 526.267C456.158 518.575 485.343 504.044 510.332 483.72L503.741 468.756C495.684 450.466 489.919 431.251 486.575 411.546L479.597 370.428C478.178 362.064 474.918 354.121 470.054 347.171L469.455 346.316C465.377 340.491 460.152 335.56 454.1 331.825C444.611 325.97 433.497 323.307 422.384 324.226L372.194 328.378L350.826 350.199C333.786 367.602 311.748 379.266 287.774 383.569L282.92 384.44C271.365 386.514 259.521 386.352 248.027 383.962C226.296 379.444 206.939 367.202 193.542 349.505Z" fill="#3D3AA9"/>
<mask id="mask1_518_15657" style="mask-type:alpha" maskUnits="userSpaceOnUse" x="-47" y="-12" width="627" height="530">
<rect x="-46.3604" y="-11.1436" width="625.418" height="528.265" fill="#D9D9D9"/>
</mask>
<g mask="url(#mask1_518_15657)">
<mask id="mask2_518_15657" style="mask-type:alpha" maskUnits="userSpaceOnUse" x="12" y="9" width="568" height="734">
<path fill-rule="evenodd" clip-rule="evenodd" d="M119.421 148.035L95.9777 154.859C95.1144 155.11 94.4187 154.131 94.9401 153.399L132.811 100.197L148.192 50.8783C149.579 46.433 152.554 42.6544 156.551 40.2644L167.633 33.6369C220.99 1.72725 287.612 1.91227 340.792 34.1178C343.676 35.8643 345.967 38.4386 347.367 41.5055L366.339 83.0517L415.184 128.106C415.861 128.73 415.34 129.856 414.425 129.744L399.193 127.875L401.292 128.477L366.414 131.105C367.632 136.516 368.249 142.05 368.249 147.607V165.59L370.707 184.641C371.764 192.83 371.386 201.109 369.62 209.113V332.598C369.62 333.415 369.616 334.233 369.61 335.051L383.396 336.368L385.764 333.949L435.955 329.798C447.068 328.879 458.182 331.542 467.671 337.397C473.723 341.131 478.948 346.062 483.026 351.888L483.625 352.743C488.489 359.692 491.749 367.636 493.168 375.999L500.146 417.118C503.49 436.822 509.255 456.038 517.312 474.328L523.903 489.292C519.248 493.077 514.449 496.662 509.517 500.039L519.592 550.585C525.141 578.422 534.264 605.426 546.735 630.925C556.786 651.478 564.67 673.022 570.257 695.208L579.057 730.149L509.229 742.292L481.905 681.572L452.557 602.13L435.512 532.561L424.221 535.338L426.718 523.057C428.215 515.698 428.55 508.177 427.735 500.763L426.386 492.718C426.049 491.229 425.665 489.749 425.233 488.28C425.055 487.568 424.014 487.664 423.97 488.397L416.631 610.226L401.451 708.896L100.886 697.258L102.639 694.453C113.251 677.475 122.144 659.481 129.187 640.74C141.925 606.844 148.45 570.93 148.45 534.72V529.746L128.724 556.603C123.018 564.371 115.605 570.726 107.056 575.176L101.69 577.969C95.9657 580.949 89.9233 582.844 83.8176 583.708C81.168 588.387 78.4671 593.039 75.7153 597.662L73.0557 602.13L13.3476 577.842L24.7066 550.063C19.0981 536.619 18.9115 521.284 24.6271 507.438L27.0957 501.458C22.1635 498.19 17.4027 494.637 12.8416 490.81L29.7954 476.389C47.5358 461.3 61.0486 441.857 69.0077 419.97L76.0917 393.151L84.0107 369.639L84.1068 369.23C84.927 365.739 86.0837 362.358 87.5503 359.129L87.5769 359.05C92.3289 344.94 102.933 333.765 116.408 328.176L122.453 310.781C134.045 277.42 139.964 242.351 139.964 207.033V178.696L140.247 179.056C139.895 173.818 139.872 168.557 140.181 163.305L140.45 158.725C140.661 155.137 141.062 151.568 141.649 148.035H119.421ZM202.092 270.275L212.847 274.237L212.712 274.241L226.582 298.899C229.369 303.854 230.113 309.7 228.655 315.194C226.117 324.759 217.46 331.42 207.563 331.42H202.092V270.275Z" fill="#D9D9D9"/>
</mask>
<g mask="url(#mask2_518_15657)">
<path d="M140.74 148.035H108.846L113.231 138.855L277.885 93.3521L400.28 128.477L140.74 148.035Z" fill="#BBCCDB"/>
<path d="M139.964 207.033V178.696L202.092 257.595V332.637C202.092 348.469 200.903 364.279 198.534 379.933L191.156 428.682C185.783 464.188 171.87 497.858 150.613 526.801L128.724 556.603C123.018 564.371 115.605 570.726 107.055 575.176L101.69 577.969C78.1138 590.242 49.1484 584.111 32.5664 563.338C19.9514 547.535 16.9111 526.129 24.6269 507.438L32.2931 488.867C33.9778 484.786 35.9615 480.835 38.228 477.047L84.6663 399.421C95.7481 380.896 104.903 361.286 111.988 340.895L122.452 310.781C134.045 277.419 139.964 242.351 139.964 207.033Z" fill="white" stroke="#F4EBF0" stroke-width="0.632178"/>
<path d="M307.388 206.949V178.696L369.619 181.087V332.597C369.619 348.456 368.426 364.292 366.049 379.971L358.675 428.615C353.287 464.163 339.338 497.87 318.031 526.831L296.144 556.583C290.419 564.364 282.984 570.728 274.412 575.183L268.97 578.01C245.393 590.263 216.442 584.138 199.849 563.385C187.192 547.556 184.142 526.099 191.887 507.371L199.539 488.864C201.226 484.785 203.211 480.837 205.48 477.051L251.988 399.438C263.095 380.902 272.272 361.276 279.375 340.868L289.823 310.851C301.45 277.444 307.388 242.322 307.388 206.949Z" fill="white" stroke="#F4EBF0" stroke-width="0.632178"/>
<path d="M139.964 207.033V178.696L202.092 257.595V332.637C202.092 348.469 200.903 364.279 198.534 379.933L191.156 428.682C185.783 464.188 171.87 497.858 150.613 526.801L128.724 556.603C123.018 564.371 115.605 570.726 107.055 575.176L101.69 577.969C78.1138 590.242 49.1484 584.111 32.5664 563.338C19.9514 547.535 16.9111 526.129 24.6269 507.438L32.2931 488.867C33.9778 484.786 35.9615 480.835 38.228 477.047L84.6663 399.421C95.7481 380.896 104.903 361.286 111.988 340.895L122.452 310.781C134.045 277.419 139.964 242.351 139.964 207.033Z" fill="url(#paint0_linear_518_15657)" stroke="#F4EBF0" stroke-width="0.632178"/>
<path d="M307.388 206.949V178.696L369.619 181.087V332.597C369.619 348.456 368.426 364.292 366.049 379.971L358.675 428.615C353.287 464.163 339.338 497.87 318.031 526.831L296.144 556.583C290.419 564.364 282.984 570.728 274.412 575.183L268.97 578.01C245.393 590.263 216.442 584.138 199.849 563.385C187.192 547.556 184.142 526.099 191.887 507.371L199.539 488.864C201.226 484.785 203.211 480.837 205.48 477.051L251.988 399.438C263.095 380.902 272.272 361.276 279.375 340.868L289.823 310.851C301.45 277.444 307.388 242.322 307.388 206.949Z" fill="url(#paint1_linear_518_15657)" stroke="#F4EBF0" stroke-width="0.632178"/>
<path d="M150.874 220.028V174.903L190.713 256.608L187.924 350.668L174.624 438.543C170.793 463.855 161.24 487.961 146.692 509.026L129.887 533.358C125.615 539.545 119.919 544.616 113.279 548.145L100.285 555.051C79.7154 565.983 54.3629 554.54 48.9545 531.883C47.6006 526.211 47.6608 520.293 49.1297 514.65L53.2199 498.938C55.6293 489.682 59.3454 480.816 64.2561 472.609L98.1296 415.994C114.865 388.023 127.174 357.631 134.619 325.897L142.519 292.221C148.07 268.558 150.874 244.333 150.874 220.028Z" fill="#FFF7FD" stroke="#F4EBF0" stroke-width="1.012"/>
<path d="M316.428 220.054V174.903L359.821 214.759L353.451 350.668L340.157 438.564C336.331 463.863 326.789 487.957 312.256 509.016L295.453 533.364C291.186 539.547 285.497 544.615 278.864 548.143L265.906 555.035C245.341 565.973 219.986 554.531 214.582 531.874C213.23 526.208 213.29 520.297 214.757 514.659L218.845 498.94C221.253 489.682 224.968 480.815 229.876 472.605L263.731 415.98C280.449 388.018 292.744 357.639 300.179 325.92L308.085 292.197C313.628 268.55 316.428 244.342 316.428 220.054Z" fill="#FFF7FD" stroke="#F4EBF0" stroke-width="1.012"/>
<path d="M226.582 298.899L212.712 274.241L316.948 270.699V296.545C316.948 303.144 318.721 309.621 322.082 315.3C328.077 325.429 338.552 332.082 350.268 333.201L389.626 336.964C396.816 337.651 404.056 337.605 411.236 336.827L444.031 333.275C454.877 332.1 465.681 335.831 473.49 343.45C478.962 348.788 482.622 355.708 483.955 363.235L497.591 440.209L519.592 550.584C525.141 578.422 534.264 605.426 546.735 630.925C556.786 651.478 564.669 673.022 570.257 695.208L579.057 730.148L509.229 742.292L481.904 681.572L452.556 602.13L427.762 500.93L412.582 410.355L418.148 458.931V480.015C418.148 541.06 412.625 601.979 401.646 662.028L393.354 707.378L155.534 692.704L158.295 681.983C173.516 622.891 177.217 561.421 169.196 500.93L159.076 449.823L154.016 424.27L152.865 418.988C152.296 416.375 148.45 416.789 148.45 419.463C146.766 432.257 143.948 444.875 140.028 457.169L134.788 473.605C118.967 516.692 99.1917 558.221 75.715 597.662L73.0555 602.13L13.3474 577.842L64.4535 452.859L86.3199 367.966C88.8928 357.977 94.2631 348.93 101.8 341.888C113.996 330.491 130.764 325.351 147.252 327.954L164.154 330.623C167.51 331.153 170.902 331.419 174.3 331.419H207.563C217.459 331.419 226.117 324.759 228.655 315.193C230.112 309.699 229.369 303.853 226.582 298.899Z" fill="white" stroke="#F4EBF0" stroke-width="1.012"/>
<path d="M226.582 298.899L212.712 274.241L316.948 270.699V296.545C316.948 303.144 318.721 309.621 322.082 315.3C328.077 325.429 338.552 332.082 350.268 333.201L389.626 336.964C396.816 337.651 404.056 337.605 411.236 336.827L444.031 333.275C454.877 332.1 465.681 335.831 473.49 343.45C478.962 348.788 482.622 355.708 483.955 363.235L497.591 440.209L519.592 550.584C525.141 578.422 534.264 605.426 546.735 630.925C556.786 651.478 564.669 673.022 570.257 695.208L579.057 730.148L509.229 742.292L481.904 681.572L452.556 602.13L427.762 500.93L412.582 410.355L418.148 458.931V480.015C418.148 541.06 412.625 601.979 401.646 662.028L393.354 707.378L155.534 692.704L158.295 681.983C173.516 622.891 177.217 561.421 169.196 500.93L159.076 449.823L154.016 424.27L152.865 418.988C152.296 416.375 148.45 416.789 148.45 419.463C146.766 432.257 143.948 444.875 140.028 457.169L134.788 473.605C118.967 516.692 99.1917 558.221 75.715 597.662L73.0555 602.13L13.3474 577.842L56.8686 471.409C61.9173 459.062 65.9864 446.336 69.038 433.351L84.1066 369.229C86.788 357.819 93.0657 347.572 102.014 340.001C114.149 329.732 130.153 325.254 145.855 327.734L164.154 330.623C167.51 331.153 170.902 331.419 174.3 331.419H207.563C217.459 331.419 226.117 324.759 228.655 315.193C230.112 309.699 229.369 303.853 226.582 298.899Z" fill="url(#paint2_linear_518_15657)"/>
<path d="M226.582 298.899L212.712 274.241L316.948 270.699V296.545C316.948 303.144 318.721 309.621 322.082 315.3C328.077 325.429 338.552 332.082 350.268 333.201L389.626 336.964C396.816 337.651 404.056 337.605 411.236 336.827L444.031 333.275C454.877 332.1 465.681 335.831 473.49 343.45C478.962 348.788 482.622 355.708 483.955 363.235L497.591 440.209L519.592 550.584C525.141 578.422 534.264 605.426 546.735 630.925C556.786 651.478 564.669 673.022 570.257 695.208L579.057 730.148L509.229 742.292L481.904 681.572L452.556 602.13L427.762 500.93L412.582 410.355L418.148 458.931V480.015C418.148 541.06 412.625 601.979 401.646 662.028L393.354 707.378L155.534 692.704L158.295 681.983C173.516 622.891 177.217 561.421 169.196 500.93L159.076 449.823L154.016 424.27L152.865 418.988C152.296 416.375 148.45 416.789 148.45 419.463C146.766 432.257 143.948 444.875 140.028 457.169L134.788 473.605C118.967 516.692 99.1917 558.221 75.715 597.662L73.0555 602.13L13.3474 577.842L56.9022 471.326C61.9298 459.031 66.0629 446.389 69.2692 433.498L85.2428 369.278C87.8551 358.775 93.4916 349.27 101.454 341.94C113.88 330.499 130.853 325.365 147.537 327.999L164.154 330.623C167.51 331.153 170.902 331.419 174.3 331.419H207.563C217.459 331.419 226.117 324.759 228.655 315.193C230.112 309.699 229.369 303.853 226.582 298.899Z" fill="url(#paint3_linear_518_15657)"/>
<g style="mix-blend-mode:color-burn">
<path d="M226.582 298.899L212.712 274.241L316.948 270.699V296.545C316.948 303.144 318.721 309.621 322.082 315.3C328.077 325.429 338.552 332.082 350.268 333.201L389.626 336.964C396.816 337.651 404.056 337.605 411.236 336.827L444.031 333.275C454.877 332.1 465.681 335.831 473.49 343.45C478.962 348.788 482.622 355.708 483.955 363.235L497.591 440.209L519.592 550.584C525.141 578.422 534.264 605.426 546.735 630.925C556.786 651.478 564.669 673.022 570.257 695.208L579.057 730.148L509.229 742.292L481.904 681.572L452.556 602.13L427.762 500.93L412.582 410.355L418.148 458.931V480.015C418.148 541.06 412.625 601.979 401.646 662.028L393.354 707.378L155.534 692.704L158.295 681.983C173.516 622.891 177.217 561.421 169.196 500.93L159.076 449.823L154.016 424.27L152.865 418.988C152.296 416.375 148.45 416.789 148.45 419.463C146.766 432.257 143.948 444.875 140.028 457.169L134.788 473.605C118.967 516.692 99.1917 558.221 75.715 597.662L73.0555 602.13L13.3474 577.842L56.8686 471.409C61.9173 459.062 65.9864 446.336 69.038 433.351L84.1066 369.229C86.788 357.819 93.0657 347.572 102.014 340.001C114.149 329.732 130.153 325.254 145.855 327.734L164.154 330.623C167.51 331.153 170.902 331.419 174.3 331.419H207.563C217.459 331.419 226.117 324.759 228.655 315.193C230.112 309.699 229.369 303.853 226.582 298.899Z" fill="url(#paint4_linear_518_15657)"/>
</g>
<path d="M320.666 269.185L290.734 287.119C288.346 288.549 285.547 289.135 282.787 288.782L252.706 284.937C241.701 283.53 230.891 280.884 220.482 277.049L196.201 268.105C177.454 261.199 161.954 247.552 152.728 229.83C149.374 223.387 146.91 216.52 145.403 209.415L142.689 196.62C140.367 185.677 139.524 174.472 140.181 163.305L140.45 158.725C141.219 145.652 144.508 132.85 150.136 121.025L150.49 120.282C156.618 107.404 165.487 96.0212 176.474 86.9289C188.606 76.8902 202.98 69.926 218.377 66.627L228.875 64.3776L250.152 61.541C260.161 60.2066 270.304 60.2178 280.31 61.5742L288.036 62.6216C313.456 66.0677 336.394 79.6733 351.606 100.329L353.613 103.054C358.695 109.955 362.56 117.675 365.038 125.88C367.167 132.926 368.249 140.247 368.249 147.607V165.59L370.707 184.641C372.274 196.78 370.687 209.117 366.1 220.464C362.715 228.835 357.771 236.487 351.529 243.012L345.312 249.51C338.013 257.141 329.724 263.758 320.666 269.185Z" fill="white" stroke="#F4EBF0" stroke-width="1.012"/>
<path d="M320.666 269.185L290.734 287.119C288.346 288.549 285.547 289.135 282.787 288.782L252.706 284.937C241.701 283.53 230.891 280.884 220.482 277.049L196.201 268.105C177.454 261.199 161.954 247.552 152.728 229.83C149.374 223.387 146.91 216.52 145.403 209.415L142.689 196.62C140.367 185.677 139.524 174.472 140.181 163.305L140.45 158.725C141.219 145.652 144.508 132.85 150.136 121.025L150.49 120.282C156.618 107.404 165.487 96.0212 176.474 86.9289C188.606 76.8902 202.98 69.926 218.377 66.627L228.875 64.3776L250.152 61.541C260.161 60.2066 270.304 60.2178 280.31 61.5742L288.036 62.6216C313.456 66.0677 336.394 79.6733 351.606 100.329L353.613 103.054C358.695 109.955 362.56 117.675 365.038 125.88C367.167 132.926 368.249 140.247 368.249 147.607V165.59L370.707 184.641C372.274 196.78 370.687 209.117 366.1 220.464C362.715 228.835 357.771 236.487 351.529 243.012L345.312 249.51C338.013 257.141 329.724 263.758 320.666 269.185Z" fill="url(#paint5_linear_518_15657)"/>
<path d="M320.666 269.185L290.734 287.119C288.346 288.549 285.547 289.135 282.787 288.782L252.706 284.937C241.701 283.53 230.891 280.884 220.482 277.049L196.201 268.105C177.454 261.199 161.954 247.552 152.728 229.83C149.374 223.387 146.91 216.52 145.403 209.415L142.689 196.62C140.367 185.677 139.524 174.472 140.181 163.305L140.45 158.725C141.219 145.652 144.508 132.85 150.136 121.025L150.49 120.282C156.618 107.404 165.487 96.0212 176.474 86.9289C188.606 76.8902 202.98 69.926 218.377 66.627L228.875 64.3776L250.152 61.541C260.161 60.2066 270.304 60.2178 280.31 61.5742L288.036 62.6216C313.456 66.0677 336.394 79.6733 351.606 100.329L353.613 103.054C358.695 109.955 362.56 117.675 365.038 125.88C367.167 132.926 368.249 140.247 368.249 147.607V165.59L370.707 184.641C372.274 196.78 370.687 209.117 366.1 220.464C362.715 228.835 357.771 236.487 351.529 243.012L345.312 249.51C338.013 257.141 329.724 263.758 320.666 269.185Z" fill="url(#paint6_linear_518_15657)"/>
<g style="mix-blend-mode:soft-light">
<path d="M320.666 269.185L290.734 287.119C288.346 288.549 285.547 289.135 282.787 288.782L252.706 284.937C241.701 283.53 230.891 280.884 220.482 277.049L196.201 268.105C177.454 261.199 161.954 247.552 152.728 229.83C149.374 223.387 146.91 216.52 145.403 209.415L142.689 196.62C140.367 185.677 139.524 174.472 140.181 163.305L140.45 158.725C141.219 145.652 144.508 132.85 150.136 121.025L150.49 120.282C156.618 107.404 165.487 96.0212 176.474 86.9289C188.606 76.8902 202.98 69.926 218.377 66.627L228.875 64.3776L250.152 61.541C260.161 60.2066 270.304 60.2178 280.31 61.5742L288.036 62.6216C313.456 66.0677 336.394 79.6733 351.606 100.329L353.613 103.054C358.695 109.955 362.56 117.675 365.038 125.88C367.167 132.926 368.249 140.247 368.249 147.607V165.59L370.707 184.641C372.274 196.78 370.687 209.117 366.1 220.464C362.715 228.835 357.771 236.487 351.529 243.012L345.312 249.51C338.013 257.141 329.724 263.758 320.666 269.185Z" fill="#40B1F0"/>
</g>
<path d="M369.572 177.595C371.596 187.715 373.511 206.358 360.936 213.694C331.819 230.68 312.407 203.464 312.407 183.362C312.407 163.26 328.159 146.965 347.59 146.965C367.021 146.965 367.548 157.355 369.572 177.595Z" fill="url(#paint7_radial_518_15657)"/>
<ellipse cx="175.774" cy="191.257" rx="34.9141" ry="44.5281" fill="url(#paint8_radial_518_15657)"/>
<path d="M219.771 162.38L211.702 160.53C210.093 160.161 208.452 159.952 206.801 159.905L185.169 159.3L203.28 147.581C206.55 145.465 210.386 144.39 214.28 144.499L219.013 144.632C222.092 144.718 224.951 146.249 226.73 148.764L227.841 150.336C230.226 153.709 229.551 158.359 226.304 160.914C224.46 162.365 222.058 162.904 219.771 162.38Z" fill="url(#paint9_linear_518_15657)"/>
<path d="M298.416 141.08L302.137 139.751C303.731 139.182 305.424 138.942 307.113 139.047L314.302 139.492C320.948 139.903 327.433 141.705 333.339 144.78L336.777 146.57L326.011 147.847C322.72 148.237 319.544 149.297 316.679 150.961C313.709 152.686 310.408 153.761 306.992 154.115L303.59 154.467C303.589 154.468 303.588 154.468 303.586 154.467L299.288 153.579C296.117 152.924 293.91 150.037 294.11 146.805C294.271 144.208 295.965 141.956 298.416 141.08Z" fill="url(#paint10_linear_518_15657)"/>
<path d="M266.158 231.931L268.312 231.211C272.845 229.696 276.038 225.706 276.593 221.046L279.757 225.458C281.165 227.421 283.157 228.89 285.449 229.656C288.085 230.537 290.952 230.432 293.517 229.361L295.811 228.402C300.259 226.544 305.377 228.582 307.331 232.989C308.032 234.572 308.255 236.326 307.971 238.034L307.572 240.434C306.623 246.14 302.836 250.972 297.521 253.255L293.006 255.196C290.608 256.226 288.07 256.889 285.475 257.163L278.667 257.882C270.635 258.729 262.515 258.052 254.735 255.885L246.894 253.701C245.536 253.323 244.246 252.731 243.073 251.947L240.68 250.347C234.179 246.001 233.966 236.518 240.267 231.886C243.081 229.817 246.695 229.168 250.053 230.13L257.033 232.13C260.025 232.987 263.206 232.917 266.158 231.931Z" fill="url(#paint11_radial_518_15657)" stroke="#E9ABCC" stroke-width="1.012"/>
<path d="M278.787 206.827L278.787 206.827L278.791 206.833L281.076 210.262C282.946 213.069 282.405 216.833 279.819 218.998C278.257 220.306 276.18 220.821 274.188 220.394L272.093 219.945C271.1 219.733 270.154 219.342 269.3 218.794C265.937 216.634 264.549 212.412 265.974 208.678L271.177 195.045L278.787 206.827Z" fill="url(#paint12_radial_518_15657)" stroke="#E9ABCC" stroke-width="1.012"/>
<path d="M297.613 197.523L297.013 199.241L315.096 195.506L329.47 191.465C331.886 190.786 334.352 190.298 336.845 190.006L352.059 188.224C354.667 187.918 357.052 186.608 358.709 184.571C360.667 182.164 361.408 178.988 360.717 175.963L359.827 172.068C358.973 168.328 356.964 164.952 354.084 162.418L353.377 161.795C347.778 156.868 340.002 155.246 332.9 157.524L330.508 158.292C326.24 159.661 322.405 162.127 319.387 165.442L311.658 173.934C305.435 180.77 300.658 188.794 297.613 197.523Z" fill="white" stroke="black" stroke-width="0.316089"/>
<path d="M321.49 167.213L319.132 165.486L314.418 171.016L309.358 176.582L304.804 182.654L300.524 190.255L297.013 199.241L315.43 195.305L334.152 190.244L332.292 182.161C330.354 176.166 326.574 170.935 321.49 167.213Z" fill="url(#paint13_linear_518_15657)"/>
<path d="M297.613 197.523L297.013 199.241L315.096 195.506L329.47 191.465C331.886 190.786 334.352 190.298 336.845 190.006L352.059 188.224C354.667 187.918 357.052 186.608 358.709 184.571C360.667 182.164 361.408 178.988 360.717 175.963L359.827 172.068C358.973 168.328 356.964 164.952 354.084 162.418L353.377 161.795C347.778 156.868 340.002 155.246 332.9 157.524L330.508 158.292C326.24 159.661 322.405 162.127 319.387 165.442L311.658 173.934C305.435 180.77 300.658 188.794 297.613 197.523Z" stroke="#F4EBF0" stroke-width="0.316089"/>
<path d="M232.022 195.967L237.198 205.354C222.783 202.985 208.133 202.366 193.569 203.513L192.587 203.59L182.452 204.388C174.903 204.983 167.897 200.432 165.371 193.294C163.537 188.111 164.367 182.357 167.592 177.904L169.29 175.558C174.615 168.204 183.876 164.826 192.686 167.022L204.937 170.077C206.367 170.434 207.729 171.021 208.969 171.816L210.092 172.536C219.238 178.4 226.775 186.454 232.022 195.967Z" fill="white" stroke="#E9ABCC" stroke-width="0.316089"/>
<path d="M202.644 175.333L208.133 171.425L213.218 174.558L218.278 178.606L223.338 183.666L227.386 188.726L232.446 196.823L237 205.425L226.374 203.907L215.336 202.936L204.616 202.895L193.99 203.401L193.326 195.401C193.062 192.218 193.483 189.015 194.56 186.009C196.101 181.708 198.922 177.983 202.644 175.333Z" fill="url(#paint14_linear_518_15657)"/>
<path d="M232.022 195.967L237.198 205.354C222.783 202.985 208.133 202.366 193.569 203.513L192.587 203.59L182.452 204.388C174.903 204.983 167.897 200.432 165.371 193.294C163.537 188.111 164.367 182.357 167.592 177.904L169.29 175.558C174.615 168.204 183.876 164.826 192.686 167.022L204.937 170.077C206.367 170.434 207.729 171.021 208.969 171.816L210.092 172.536C219.238 178.4 226.775 186.454 232.022 195.967Z" stroke="#F4EBF0" stroke-width="0.316089"/>
<g style="mix-blend-mode:multiply">
<path d="M366.459 82.9208L254.447 94.0353L132.869 99.9896" stroke="#C2DBEA" stroke-width="0.316089"/>
</g>
<path d="M181.03 130.102L95.9775 154.859C95.1142 155.11 94.4185 154.131 94.9399 153.398L132.81 100.197L148.192 50.878C149.578 46.4327 152.554 42.6541 156.55 40.2641L167.633 33.6365C220.99 1.72692 287.612 1.91194 340.791 34.1174C343.675 35.864 345.967 38.4382 347.367 41.5052L366.339 83.0514L415.184 128.105C415.861 128.73 415.34 129.856 414.425 129.743L332.864 119.735L320.594 118.052C276.919 112.063 232.474 115.276 190.115 127.484L181.03 130.102Z" fill="#D6FDFF"/>
<path d="M366.339 83.0514L415.184 128.105C415.861 128.73 415.34 129.856 414.425 129.743L332.864 119.735L320.594 118.052C276.919 112.063 232.474 115.276 190.115 127.484L181.03 130.102L95.9775 154.859C95.1142 155.11 94.4185 154.131 94.9399 153.398L132.81 100.197M366.339 83.0514L347.367 41.5052C345.967 38.4382 343.675 35.864 340.791 34.1174V34.1174C287.612 1.91194 220.99 1.72692 167.633 33.6365L156.55 40.2641C152.554 42.6541 149.578 46.4327 148.192 50.878L132.81 100.197M366.339 83.0514L254.357 94.216L132.81 100.197" stroke="#C2DBEA" stroke-width="0.316089"/>
<g style="mix-blend-mode:multiply">
<path d="M181.03 130.102L95.9775 154.859C95.1142 155.11 94.4185 154.131 94.9399 153.398L132.81 100.197L148.192 50.878C149.578 46.4327 152.554 42.6541 156.55 40.2641L167.633 33.6365C220.99 1.72692 287.612 1.91194 340.791 34.1174C343.675 35.864 345.967 38.4382 347.367 41.5052L366.339 83.0514L415.184 128.105C415.861 128.73 415.34 129.856 414.425 129.743L332.864 119.735L320.594 118.052C276.919 112.063 232.474 115.276 190.115 127.484L181.03 130.102Z" fill="url(#paint15_linear_518_15657)"/>
</g>
<ellipse cx="199.88" cy="178.538" rx="4.42524" ry="3.95111" fill="white"/>
<ellipse cx="311.176" cy="175.82" rx="4.2672" ry="3.95111" fill="white"/>
<mask id="mask3_518_15657" style="mask-type:alpha" maskUnits="userSpaceOnUse" x="94" y="9" width="322" height="146">
<g style="mix-blend-mode:multiply">
<path d="M181.03 130.102L95.9775 154.859C95.1142 155.11 94.4185 154.131 94.9399 153.398L132.81 100.197L148.192 50.8781C149.578 46.4328 152.554 42.6542 156.55 40.2642L167.633 33.6366C220.99 1.72704 287.612 1.91206 340.791 34.1175C343.675 35.8641 345.967 38.4384 347.367 41.5053L366.339 83.0515L415.184 128.105C415.861 128.73 415.34 129.856 414.425 129.744L332.864 119.735L320.594 118.053C276.919 112.063 232.474 115.276 190.115 127.484L181.03 130.102Z" fill="url(#paint16_linear_518_15657)"/>
</g>
</mask>
<g mask="url(#mask3_518_15657)">
<g style="mix-blend-mode:lighten">
<path d="M430.292 66.7804C430.292 88.8329 404.254 108.093 365.524 118.433C346.339 123.555 318.981 115.863 295.19 115.863C260.229 115.863 233.551 120.154 210.181 109.849C185.543 98.9837 170.207 83.7044 170.207 66.7804C170.207 33.8045 228.429 7.07227 300.25 7.07227C372.07 7.07227 430.292 33.8045 430.292 66.7804Z" fill="#96CDF5"/>
</g>
<g style="mix-blend-mode:soft-light" filter="url(#filter0_f_518_15657)">
<ellipse cx="298.732" cy="47.0465" rx="113.344" ry="65.2742" fill="#FFC1C1"/>
</g>
</g>
<mask id="mask4_518_15657" style="mask-type:alpha" maskUnits="userSpaceOnUse" x="9" y="323" width="516" height="387">
<path d="M207.113 355.077L186.906 328.383L140.257 324.46C135.288 324.042 130.285 324.354 125.407 325.386C107.729 329.125 93.3437 341.927 87.5766 359.05L76.0914 393.152L56.2027 433.592C49.2555 447.718 40.3803 460.811 29.8316 472.496L14.8184 489.126C13.5076 490.578 11.9887 491.827 10.3113 492.834C29.8694 536.979 81.5234 556.896 125.656 537.308L140.354 530.784L136.994 493.352C136.876 492.035 137.216 490.718 137.957 489.623L146.749 476.627C147.263 475.867 148.45 476.231 148.45 477.148V534.72C148.45 570.93 141.924 606.844 129.186 640.74C122.143 659.482 113.25 677.475 102.639 694.453L100.885 697.258L401.45 708.896L416.63 610.226L423.975 488.311C424.018 487.593 425.037 487.499 425.211 488.196C425.225 488.252 425.231 488.309 425.23 488.366L424.853 501.745C424.457 515.796 431.041 529.132 442.436 537.362L486.458 521.17L517.325 494.352L523.397 488.786L516.975 473.981C509.141 455.918 503.515 436.976 500.221 417.565L493.168 375.999C491.749 367.636 488.489 359.693 483.624 352.743L483.026 351.888C478.948 346.062 473.723 341.131 467.671 337.397C458.182 331.542 447.067 328.879 435.955 329.798L385.764 333.949L364.397 355.771C347.357 373.174 325.318 384.838 301.345 389.141L296.49 390.012C284.936 392.086 273.091 391.924 261.598 389.534C239.867 385.015 220.51 372.774 207.113 355.077Z" fill="#96CDF5" stroke="#81ABCA" stroke-width="1.012"/>
</mask>
<g mask="url(#mask4_518_15657)">
<path d="M207.113 355.077L186.906 328.383L140.257 324.46C135.288 324.042 130.285 324.354 125.407 325.386C107.73 329.125 93.3438 341.927 87.5767 359.05L76.0915 393.152L69.0075 419.97C61.0484 441.857 47.5357 461.3 29.7952 476.389L12.8414 490.81C41.1344 514.55 77.108 527.748 114.042 527.748L136.306 490.81L146.664 476.567C147.226 475.794 148.45 476.192 148.45 477.148V534.72C148.45 570.93 141.924 606.844 129.187 640.74C122.143 659.482 113.25 677.475 102.639 694.453L100.886 697.258L401.45 708.896L416.63 610.226L423.97 488.397C424.014 487.664 425.054 487.568 425.232 488.28C428.555 499.578 429.065 511.517 426.718 523.057L424.22 535.338L438.45 531.839C469.729 524.147 498.914 509.616 523.903 489.292L517.312 474.328C509.255 456.038 503.49 436.822 500.146 417.118L493.168 375.999C491.749 367.636 488.489 359.693 483.624 352.743L483.026 351.888C478.948 346.062 473.723 341.131 467.671 337.397C458.182 331.542 447.067 328.879 435.955 329.798L385.764 333.949L364.397 355.771C347.357 373.174 325.318 384.838 301.345 389.141L296.491 390.012C284.936 392.086 273.091 391.924 261.598 389.534C239.867 385.015 220.51 372.774 207.113 355.077Z" fill="#FFFBED" stroke="#F9E8C3" stroke-width="0.316089"/>
<g style="mix-blend-mode:multiply" opacity="0.7">
<path d="M207.113 355.077L186.906 328.383L140.257 324.46C135.288 324.042 130.285 324.354 125.407 325.386C107.73 329.125 93.3438 341.927 87.5767 359.05L76.0915 393.152L69.0075 419.97C61.0484 441.857 47.5357 461.3 29.7952 476.389L12.8414 490.81C41.1344 514.55 77.108 527.748 114.042 527.748L136.306 490.81L146.664 476.567C147.226 475.794 148.45 476.192 148.45 477.148V534.72C148.45 570.93 141.924 606.844 129.187 640.74C122.143 659.482 113.25 677.475 102.639 694.453L100.886 697.258L401.45 708.896L416.63 610.226L423.97 488.397C424.014 487.664 425.054 487.568 425.232 488.28C428.555 499.578 429.065 511.517 426.718 523.057L424.22 535.338L438.45 531.839C469.729 524.147 498.914 509.616 523.903 489.292L517.312 474.328C509.255 456.038 503.49 436.822 500.146 417.118L493.168 375.999C491.749 367.636 488.489 359.693 483.624 352.743L483.026 351.888C478.948 346.062 473.723 341.131 467.671 337.397C458.182 331.542 447.067 328.879 435.955 329.798L385.764 333.949L364.397 355.771C347.357 373.174 325.318 384.838 301.345 389.141L296.491 390.012C284.936 392.086 273.091 391.924 261.598 389.534C239.867 385.015 220.51 372.774 207.113 355.077Z" fill="url(#paint17_linear_518_15657)"/>
</g>
<path d="M123.149 325.854L126.608 331.434C139.009 351.445 147.101 373.82 150.37 397.134V397.134C152.12 409.62 152.471 422.263 151.415 434.827L147.943 476.136" stroke="#F9E8C3" stroke-width="0.313721"/>
<path d="M465.713 336.985L461.915 344.225C453.667 359.947 446.791 376.35 441.364 393.254V393.254C435.011 413.038 430.672 433.413 428.413 454.068L424.726 487.774" stroke="#F9E8C3" stroke-width="0.313721"/>
<g style="mix-blend-mode:color-burn" filter="url(#filter1_f_518_15657)">
<path d="M186.906 320.287L207.113 346.98C220.51 364.678 239.867 376.919 261.598 381.438V381.438C273.091 383.827 284.936 383.99 296.49 381.916L301.345 381.045C325.318 376.742 347.357 365.078 364.397 347.675L385.764 325.853" stroke="url(#paint18_linear_518_15657)" stroke-width="7.08402"/>
</g>
<g style="mix-blend-mode:soft-light">
<path d="M497.085 397.323C497.085 437.175 471.047 471.98 432.316 490.667C413.132 499.923 385.773 486.021 361.982 486.021C327.022 486.021 300.343 493.777 276.974 475.154C252.335 455.519 237 427.907 237 397.323C237 337.73 295.222 289.421 367.042 289.421C438.863 289.421 497.085 337.73 497.085 397.323Z" fill="url(#paint19_radial_518_15657)"/>
</g>
<g style="mix-blend-mode:overlay" opacity="0.8" filter="url(#filter2_f_518_15657)">
<path d="M597.273 431.851C597.273 500.901 571.235 561.209 532.505 593.586C513.32 609.624 485.961 585.536 462.171 585.536C427.21 585.536 400.532 598.975 377.162 566.707C352.524 532.686 337.188 484.843 337.188 431.851C337.188 328.597 395.41 244.893 467.231 244.893C539.051 244.893 597.273 328.597 597.273 431.851Z" fill="#EE96F5"/>
</g>
<g style="mix-blend-mode:color-burn" filter="url(#filter3_f_518_15657)">
<path d="M273.432 393.104C273.432 424.669 247.394 452.239 208.664 467.04C189.479 474.371 162.121 463.36 138.33 463.36C103.369 463.36 76.6907 469.503 53.3215 454.752C28.6829 439.199 13.3474 417.329 13.3474 393.104C13.3474 345.902 71.5693 307.637 143.39 307.637C215.21 307.637 273.432 345.902 273.432 393.104Z" fill="url(#paint20_linear_518_15657)"/>
</g>
<g style="mix-blend-mode:lighten">
<path d="M560.841 386.608C560.841 411.664 534.803 433.547 496.072 445.295C476.888 451.114 449.529 442.374 425.738 442.374C390.778 442.374 364.099 447.25 340.73 435.542C316.091 423.197 300.756 405.837 300.756 386.608C300.756 349.142 358.978 318.769 430.798 318.769C502.619 318.769 560.841 349.142 560.841 386.608Z" fill="#96CDF5"/>
</g>
</g>
<g style="mix-blend-mode:soft-light" opacity="0.8">
<rect x="-46.3606" y="-39.4796" width="898" height="976.466" fill="#003EDC"/>
</g>
<g style="mix-blend-mode:color-burn" opacity="0.5">
<rect x="-46.3606" y="-32.2142" width="899.453" height="969.201" fill="url(#paint21_linear_518_15657)"/>
</g>
<g style="mix-blend-mode:saturation">
<rect x="-46.3606" y="-32.2142" width="899.453" height="969.201" fill="#3656FF"/>
</g>
<g style="mix-blend-mode:color-burn" opacity="0.5">
<rect x="-46.3606" y="-32.2142" width="899.453" height="969.201" fill="#A2B0FF"/>
</g>
</g>
</g>
</g>
</g>
<defs>
<filter id="filter0_f_518_15657" x="84.1873" y="-119.428" width="429.089" height="332.949" filterUnits="userSpaceOnUse" color-interpolation-filters="sRGB">
<feFlood flood-opacity="0" result="BackgroundImageFix"/>
<feBlend mode="normal" in="SourceGraphic" in2="BackgroundImageFix" result="shape"/>
<feGaussianBlur stdDeviation="50.6001" result="effect1_foregroundBlur_518_15657"/>
</filter>
<filter id="filter1_f_518_15657" x="153.722" y="287.789" width="264.934" height="129.472" filterUnits="userSpaceOnUse" color-interpolation-filters="sRGB">
<feFlood flood-opacity="0" result="BackgroundImageFix"/>
<feBlend mode="normal" in="SourceGraphic" in2="BackgroundImageFix" result="shape"/>
<feGaussianBlur stdDeviation="15.18" result="effect1_foregroundBlur_518_15657"/>
</filter>
<filter id="filter2_f_518_15657" x="235.988" y="143.693" width="462.485" height="556.601" filterUnits="userSpaceOnUse" color-interpolation-filters="sRGB">
<feFlood flood-opacity="0" result="BackgroundImageFix"/>
<feBlend mode="normal" in="SourceGraphic" in2="BackgroundImageFix" result="shape"/>
<feGaussianBlur stdDeviation="50.6001" result="effect1_foregroundBlur_518_15657"/>
</filter>
<filter id="filter3_f_518_15657" x="-87.8528" y="206.437" width="462.485" height="364.321" filterUnits="userSpaceOnUse" color-interpolation-filters="sRGB">
<feFlood flood-opacity="0" result="BackgroundImageFix"/>
<feBlend mode="normal" in="SourceGraphic" in2="BackgroundImageFix" result="shape"/>
<feGaussianBlur stdDeviation="50.6001" result="effect1_foregroundBlur_518_15657"/>
</filter>
<linearGradient id="paint0_linear_518_15657" x1="107.108" y1="178.696" x2="107.108" y2="599.094" gradientUnits="userSpaceOnUse">
<stop stop-color="#FDDBF0"/>
<stop offset="1" stop-color="white" stop-opacity="0"/>
</linearGradient>
<linearGradient id="paint1_linear_518_15657" x1="274.477" y1="178.696" x2="274.477" y2="599.094" gradientUnits="userSpaceOnUse">
<stop stop-color="#FDDBF0"/>
<stop offset="1" stop-color="white" stop-opacity="0"/>
</linearGradient>
<linearGradient id="paint2_linear_518_15657" x1="279.504" y1="270.193" x2="279.504" y2="547.988" gradientUnits="userSpaceOnUse">
<stop stop-color="#FEECF6"/>
<stop offset="1" stop-color="white" stop-opacity="0"/>
</linearGradient>
<linearGradient id="paint3_linear_518_15657" x1="122.644" y1="306.119" x2="306.828" y2="542.928" gradientUnits="userSpaceOnUse">
<stop stop-color="#FEECF6"/>
<stop offset="1" stop-color="white" stop-opacity="0"/>
</linearGradient>
<linearGradient id="paint4_linear_518_15657" x1="272.591" y1="271.313" x2="307.633" y2="484.434" gradientUnits="userSpaceOnUse">
<stop stop-color="#F3766F"/>
<stop offset="1" stop-color="#FFD6DB" stop-opacity="0"/>
</linearGradient>
<linearGradient id="paint5_linear_518_15657" x1="138.792" y1="164.618" x2="320.093" y2="238.74" gradientUnits="userSpaceOnUse">
<stop stop-color="#FFD9D9"/>
<stop offset="1" stop-color="#FEF5F5" stop-opacity="0"/>
</linearGradient>
<linearGradient id="paint6_linear_518_15657" x1="246.381" y1="59.8297" x2="266.3" y2="162.626" gradientUnits="userSpaceOnUse">
<stop stop-color="#F3766F"/>
<stop offset="1" stop-color="#FFD6DB" stop-opacity="0"/>
</linearGradient>
<radialGradient id="paint7_radial_518_15657" cx="0" cy="0" r="1" gradientUnits="userSpaceOnUse" gradientTransform="translate(347.59 183.362) rotate(90) scale(36.3978 35.1829)">
<stop stop-color="#FFC1C1"/>
<stop offset="1" stop-color="#FFEEEE" stop-opacity="0"/>
</radialGradient>
<radialGradient id="paint8_radial_518_15657" cx="0" cy="0" r="1" gradientUnits="userSpaceOnUse" gradientTransform="translate(175.774 191.257) rotate(90) scale(44.5281 34.9141)">
<stop stop-color="#FFC1C1"/>
<stop offset="1" stop-color="#FFEEEE" stop-opacity="0"/>
</radialGradient>
<linearGradient id="paint9_linear_518_15657" x1="228.482" y1="153.884" x2="181.863" y2="159.463" gradientUnits="userSpaceOnUse">
<stop stop-color="#0A0033" stop-opacity="0.72"/>
<stop offset="1"/>
</linearGradient>
<linearGradient id="paint10_linear_518_15657" x1="333.317" y1="148.285" x2="290.9" y2="152.37" gradientUnits="userSpaceOnUse">
<stop/>
<stop offset="1" stop-color="#0A0033" stop-opacity="0.72"/>
</linearGradient>
<radialGradient id="paint11_radial_518_15657" cx="0" cy="0" r="1" gradientUnits="userSpaceOnUse" gradientTransform="translate(275.701 241.944) rotate(84.6711) scale(27.918 57.3774)">
<stop offset="0.302083" stop-color="#E9ABCC"/>
<stop offset="1" stop-color="#D13982"/>
</radialGradient>
<radialGradient id="paint12_radial_518_15657" cx="0" cy="0" r="1" gradientUnits="userSpaceOnUse" gradientTransform="translate(276.123 209.107) rotate(87.8843) scale(18.8362 15.4448)">
<stop offset="0.302083" stop-color="#E9ABCC"/>
<stop offset="1" stop-color="#D13982"/>
</radialGradient>
<linearGradient id="paint13_linear_518_15657" x1="319.467" y1="165.587" x2="296.345" y2="194.052" gradientUnits="userSpaceOnUse">
<stop/>
<stop offset="1" stop-color="#C3C2F7"/>
</linearGradient>
<linearGradient id="paint14_linear_518_15657" x1="208.533" y1="173.021" x2="233.646" y2="203.416" gradientUnits="userSpaceOnUse">
<stop/>
<stop offset="1" stop-color="#C3C2F7"/>
</linearGradient>
<linearGradient id="paint15_linear_518_15657" x1="247.184" y1="15.665" x2="379.565" y2="149.168" gradientUnits="userSpaceOnUse">
<stop stop-color="#8983CF"/>
<stop offset="1" stop-color="#D6FDFF" stop-opacity="0"/>
</linearGradient>
<linearGradient id="paint16_linear_518_15657" x1="247.184" y1="15.6651" x2="379.565" y2="149.168" gradientUnits="userSpaceOnUse">
<stop stop-color="#8983CF"/>
<stop offset="1" stop-color="#D6FDFF" stop-opacity="0"/>
</linearGradient>
<linearGradient id="paint17_linear_518_15657" x1="153.678" y1="323.83" x2="523.114" y2="500.6" gradientUnits="userSpaceOnUse">
<stop stop-color="#FFF5D0"/>
<stop offset="1" stop-color="#F4FFD6" stop-opacity="0"/>
</linearGradient>
<linearGradient id="paint18_linear_518_15657" x1="217.266" y1="327.371" x2="359.452" y2="423.512" gradientUnits="userSpaceOnUse">
<stop stop-color="#B04B4B"/>
<stop offset="0.462669" stop-color="#E22C2C"/>
<stop offset="1" stop-color="#DE1F1F" stop-opacity="0"/>
</linearGradient>
<radialGradient id="paint19_radial_518_15657" cx="0" cy="0" r="1" gradientUnits="userSpaceOnUse" gradientTransform="translate(367.042 391.634) rotate(90) scale(102.212 130.042)">
<stop stop-color="#EE96F5"/>
<stop offset="1" stop-color="#F7FBFF" stop-opacity="0"/>
</radialGradient>
<linearGradient id="paint20_linear_518_15657" x1="226.374" y1="407.696" x2="144.633" y2="317.177" gradientUnits="userSpaceOnUse">
<stop stop-color="#559DD0"/>
<stop offset="1" stop-color="#C7E7FE" stop-opacity="0"/>
</linearGradient>
<linearGradient id="paint21_linear_518_15657" x1="403.366" y1="-32.2142" x2="377.806" y2="937.099" gradientUnits="userSpaceOnUse">
<stop stop-color="#DB3A3A" stop-opacity="0.43"/>
<stop offset="0.995878" stop-color="#712121"/>
</linearGradient>
<clipPath id="clip0_518_15657">
<rect width="532" height="506" rx="15" fill="white"/>
</clipPath>
</defs>
</svg>
