<svg width="608" height="506" viewBox="0 0 608 506" fill="none" xmlns="http://www.w3.org/2000/svg">
<g clip-path="url(#clip0_405_57937)">
<path d="M237.608 315.794L241.083 298.945C247.477 267.944 250.699 236.373 250.699 204.72L378.831 254.307C363.519 276.367 354.516 302.188 352.793 328.987L351.856 343.563L294.732 377.282L237.608 315.794Z" fill="#3D3AA9"/>
<path d="M91.2278 700.984L2.2027 569.691C-1.22389 564.637 -2.32113 558.358 -0.811299 552.442C10.538 507.971 26.1655 464.704 45.8528 423.245L49.9716 414.571L128.914 455.034L84.1922 560.561C83.8914 561.27 84.0699 562.092 84.6377 562.614L90.4007 567.902C108.146 584.186 121.713 604.5 129.955 627.13C136.087 643.966 145.184 659.567 156.815 673.197L164.616 682.339L117.41 736.686L91.2278 700.984Z" fill="#3D3AA9"/>
<path d="M504.979 711.298L594.004 580.004C597.43 574.951 598.528 568.671 597.018 562.755C585.669 518.285 570.041 475.017 550.354 433.558L546.235 424.885L478.797 459.397L512.188 570.962C512.389 571.632 512.188 572.359 511.673 572.832L505.806 578.216C488.061 594.499 474.494 614.814 466.251 637.444C460.119 654.279 451.023 669.881 439.392 683.51L431.59 692.653L478.797 747L504.979 711.298Z" fill="#3D3AA9"/>
<path d="M391.922 313.413H359.379C357.899 313.413 356.514 314.145 355.68 315.367C341.335 336.39 323.511 354.813 302.974 369.845L295.526 375.298L285.829 365.068C268.286 346.561 252.938 326.091 240.089 304.065L239.149 302.454C237.949 300.397 235.747 299.132 233.366 299.132H226.896C214.244 299.132 201.633 297.691 189.308 294.836L162.173 288.55C146.213 284.853 129.5 286.204 114.341 292.415C92.8824 301.207 76.3639 318.973 69.1556 341.014L59.8895 369.347L19.03 467.331C45.9189 480.383 75.419 487.165 105.309 487.165H119.394L143.592 432.025L163.427 386.802C158.948 425.532 159.228 464.665 164.262 503.327L175.327 588.322V646.636L412.947 654.967C412.947 627.054 416.608 599.263 423.838 572.302L429.807 550.041C440.998 508.304 446.666 465.28 446.666 422.068V403.066C458.547 431.052 468.115 459.964 475.273 489.513L483.162 522.074L499.11 515.999C527.251 505.278 553.996 491.202 578.765 474.074L541.476 386.802L532.451 359.139C526.531 340.991 513.856 325.815 497.052 316.755C484.364 309.915 469.96 306.91 455.595 308.107L391.922 313.413Z" fill="#3D3AA9"/>
<path d="M373.445 37.9778L375.382 38.4221C381.374 39.7974 387.245 41.6539 392.939 43.9735C401.486 47.4555 409.579 51.9597 417.043 57.3877L423.718 62.2427C429.198 66.2278 434.022 71.0439 438.015 76.517C441.126 80.7796 443.707 85.4047 445.701 90.2903L446.426 92.0667C449.217 98.9051 451.058 106.094 451.896 113.432L455.393 144.026V172.588L453.997 212.591C453.41 229.43 442.066 243.984 425.879 248.665C422.041 249.775 418.054 250.288 414.06 250.185L359.68 248.796C318.514 247.743 279.054 232.126 248.319 204.72L219.232 176.912C214.657 172.537 211.457 166.923 210.025 160.757C208.124 152.567 209.468 143.959 213.775 136.739L220.55 125.381L256.649 79.7611L273.102 63.0659C280.073 55.9924 288.117 50.0636 296.937 45.4982C310.345 38.5573 325.223 34.9347 340.322 34.9347H346.582C355.623 34.9347 364.634 35.9555 373.445 37.9778Z" fill="#3D3AA9"/>
<path d="M367.411 79.5835L370.556 91.6174C370.917 92.999 372.532 93.6133 373.72 92.8212L386.12 84.5543C393.524 79.6183 402.224 76.9843 411.122 76.9843H413.395C417.036 76.9843 420.65 77.6077 424.081 78.8275C432.18 81.7075 438.775 87.7349 442.369 95.5439L445.296 101.901C447.256 106.16 448.589 110.681 449.252 115.322L451.766 132.925C452.068 135.033 452.219 137.161 452.219 139.291V148.907C452.219 157.303 448.193 165.189 441.393 170.113C441.026 170.379 440.959 170.9 441.248 171.25L441.33 171.349C445.804 176.765 448.252 183.571 448.252 190.596V198.373V217.823C448.252 226.763 444.994 235.397 439.088 242.109C433.713 248.216 426.464 252.368 418.477 253.914L381.607 261.05L350.939 265.988C340.314 267.699 329.441 266.997 319.124 263.935C312.679 262.021 306.536 259.211 300.873 255.587L295.275 252.005C284.926 245.381 275.667 237.191 267.829 227.728L235.507 188.702C229.347 181.265 225.259 172.333 223.655 162.81L222.747 157.42C220.837 146.078 223.65 134.449 230.532 125.233L235.77 118.22C240.422 111.991 247.739 108.323 255.513 108.323C255.921 108.323 256.252 107.992 256.252 107.584V105.794C256.252 97.3119 258.458 88.9758 262.652 81.6038C267.03 73.9083 273.415 67.5455 281.126 63.1939L297.233 54.1042C305.215 49.5994 314.225 47.2323 323.391 47.2323H325.517C331.635 47.2323 337.683 48.5285 343.263 51.0354C355.218 56.4065 364.097 66.9033 367.411 79.5835Z" fill="#3D3AA9"/>
<mask id="mask0_405_57937" style="mask-type:alpha" maskUnits="userSpaceOnUse" x="15" y="16" width="601" height="715">
<path d="M254.828 298.103L258.304 281.254C264.698 250.253 267.919 218.682 267.919 187.029L396.052 236.616C380.739 258.676 371.736 284.497 370.013 311.296L369.076 325.872L311.952 359.591L254.828 298.103Z" fill="#D9D9D9" stroke="#C2DEFF" stroke-width="1.10569"/>
<path d="M108.448 683.293L19.423 552C15.9964 546.946 14.8992 540.667 16.409 534.751C27.7583 490.28 43.3859 447.013 63.0731 405.554L67.1919 396.88L146.134 437.343L101.413 542.87C101.112 543.579 101.29 544.401 101.858 544.923L107.621 550.211C125.366 566.495 138.933 586.809 147.176 609.439C153.308 626.275 162.404 641.876 174.035 655.506L181.836 664.648L134.63 718.995L108.448 683.293Z" fill="#D9D9D9" stroke="#C2DEFF" stroke-width="1.10569"/>
<path d="M522.196 693.607L611.221 562.313C614.648 557.26 615.745 550.98 614.235 545.064C602.886 500.594 587.259 457.326 567.571 415.867L563.453 407.194L496.015 441.706L529.405 553.271C529.606 553.941 529.406 554.668 528.89 555.141L523.023 560.525C505.278 576.808 491.712 597.123 483.469 619.753C477.337 636.588 468.24 652.19 456.61 665.82L448.808 674.962L496.015 729.309L522.196 693.607Z" fill="#D9D9D9" stroke="#C2DEFF" stroke-width="1.10569"/>
<path d="M409.143 295.722H376.599C375.119 295.722 373.734 296.454 372.9 297.676C358.555 318.699 340.731 337.122 320.195 352.154L312.746 357.606L303.049 347.377C285.506 328.87 270.158 308.4 257.309 286.374L256.37 284.763C255.17 282.706 252.968 281.441 250.586 281.441H244.117C231.464 281.441 218.854 280 206.528 277.145L179.393 270.859C163.434 267.162 146.72 268.513 131.561 274.724C110.103 283.516 93.5842 301.282 86.3759 323.323L77.1097 351.656L36.2502 449.639C63.1392 462.692 92.6393 469.474 122.529 469.474H136.614L160.812 414.334L180.647 369.111C176.168 407.841 176.448 446.974 181.482 485.636L192.548 570.631V628.945L430.167 637.276C430.167 609.363 433.829 581.571 441.058 554.611L447.027 532.35C458.218 490.613 463.886 447.588 463.886 404.377V385.375C475.767 413.361 485.335 442.273 492.494 471.822L500.382 504.383L516.33 498.308C544.471 487.587 571.216 473.511 595.986 456.383L558.696 369.111L549.672 341.448C543.751 323.3 531.076 308.124 514.272 299.064C501.584 292.224 487.181 289.219 472.815 290.416L409.143 295.722Z" fill="#D9D9D9" stroke="#EA4050" stroke-width="1.10569"/>
<path d="M390.665 20.2867L392.601 20.731C398.594 22.1063 404.465 23.9628 410.159 26.2824C418.705 29.7644 426.799 34.2686 434.262 39.6966L440.938 44.5516C446.418 48.5367 451.241 53.3528 455.235 58.8259C458.346 63.0885 460.927 67.7136 462.921 72.5992L463.646 74.3756C466.437 81.214 468.278 88.4027 469.116 95.741L472.613 126.334V154.896L471.217 194.9C470.63 211.739 459.285 226.293 443.099 230.974C439.26 232.084 435.274 232.596 431.279 232.494L376.9 231.104C335.733 230.052 296.274 214.435 265.538 187.029L236.452 159.221C231.876 154.846 228.677 149.232 227.245 143.065C225.344 134.876 226.688 126.268 230.995 119.048L237.77 107.69L273.869 62.07L290.322 45.3748C297.293 38.3013 305.337 32.3725 314.156 27.8071C327.565 20.8662 342.443 17.2436 357.542 17.2436H363.802C372.843 17.2436 381.854 18.2644 390.665 20.2867Z" fill="#D9D9D9" stroke="#071457" stroke-width="1.10569"/>
<path d="M384.631 61.8925L387.776 73.9264C388.137 75.308 389.752 75.9223 390.94 75.1302L403.341 66.8633C410.745 61.9273 419.444 59.2934 428.342 59.2934H430.615C434.256 59.2934 437.87 59.9168 441.301 61.1366C449.401 64.0165 455.995 70.0439 459.59 77.8529L462.516 84.2099C464.477 88.4689 465.809 92.9897 466.472 97.6312L468.987 115.234C469.288 117.342 469.439 119.47 469.439 121.6V131.216C469.439 139.612 465.413 147.498 458.613 152.422C458.246 152.688 458.179 153.209 458.468 153.559L458.551 153.658C463.025 159.074 465.472 165.88 465.472 172.905V180.682V200.132C465.472 209.072 462.214 217.706 456.308 224.418C450.934 230.525 443.684 234.677 435.697 236.223L398.828 243.359L368.159 248.298C357.535 250.008 346.661 249.306 336.344 246.244C329.9 244.33 323.756 241.52 318.094 237.897L312.496 234.314C302.146 227.69 292.887 219.5 285.049 210.037L252.727 171.011C246.567 163.574 242.479 154.642 240.875 145.119L239.967 139.729C238.057 128.387 240.87 116.758 247.752 107.542L252.991 100.529C257.642 94.3003 264.96 90.6322 272.733 90.6322C273.141 90.6322 273.472 90.3012 273.472 89.893V88.1027C273.472 79.6209 275.678 71.2849 279.872 63.9128C284.251 56.2173 290.636 49.8545 298.346 45.503L314.453 36.4132C322.435 31.9084 331.445 29.5413 340.611 29.5413H342.738C348.855 29.5413 354.903 30.8375 360.483 33.3445C372.438 38.7156 381.317 49.2123 384.631 61.8925Z" fill="#D9D9D9"/>
</mask>
<g mask="url(#mask0_405_57937)">
<path d="M254.829 298.102L258.304 281.253C264.698 250.252 267.92 218.681 267.92 187.028L396.052 236.614C380.739 258.675 371.737 284.496 370.014 311.295L369.077 325.871L311.953 359.59L254.829 298.102Z" fill="#FFE4D5" stroke="#C2DEFF" stroke-width="1.10569"/>
<path d="M254.829 298.102L258.304 281.253C264.698 250.252 267.92 218.681 267.92 187.028L396.052 236.614C380.739 258.675 371.737 284.496 370.014 311.295L369.077 325.871L311.953 359.59L254.829 298.102Z" fill="url(#paint0_linear_405_57937)" stroke="#C2DEFF" stroke-width="1.10569"/>
<path d="M108.448 683.292L19.4233 551.999C15.9967 546.946 14.8995 540.666 16.4093 534.75C27.7586 490.28 43.3862 447.012 63.0734 405.553L67.1922 396.879L146.134 437.342L101.413 542.869C101.112 543.579 101.291 544.401 101.858 544.922L107.621 550.21C125.367 566.494 138.933 586.809 147.176 609.439C153.308 626.274 162.405 641.876 174.035 655.505L181.837 664.648L134.63 718.995L108.448 683.292Z" fill="#FFE4D4" stroke="#C2DEFF" stroke-width="1.10569"/>
<path d="M522.2 693.606L611.225 562.313C614.651 557.259 615.749 550.98 614.239 545.064C602.89 500.593 587.262 457.326 567.575 415.867L563.456 407.193L496.018 441.705L529.409 553.27C529.609 553.941 529.409 554.667 528.894 555.14L523.027 560.524C505.282 576.808 491.715 597.122 483.472 619.752C477.34 636.588 468.244 652.189 456.613 665.819L448.811 674.962L496.018 729.309L522.2 693.606Z" fill="#FFE4D4" stroke="#C2DEFF" stroke-width="1.10569"/>
<path d="M108.448 683.292L19.4233 551.999C15.9967 546.946 14.8995 540.666 16.4093 534.75C27.7586 490.28 43.3862 447.012 63.0734 405.553L67.1922 396.879L146.134 437.342L101.413 542.869C101.112 543.579 101.291 544.401 101.858 544.922L107.621 550.21C125.367 566.494 138.933 586.809 147.176 609.439C153.308 626.274 162.405 641.876 174.035 655.505L181.837 664.648L134.63 718.995L108.448 683.292Z" fill="url(#paint1_linear_405_57937)" stroke="#C2DEFF" stroke-width="1.10569"/>
<path d="M522.2 693.606L611.225 562.313C614.651 557.259 615.749 550.98 614.239 545.064C602.89 500.593 587.262 457.326 567.575 415.867L563.456 407.193L496.018 441.705L529.409 553.27C529.609 553.941 529.409 554.667 528.894 555.14L523.027 560.524C505.282 576.808 491.715 597.122 483.472 619.752C477.34 636.588 468.244 652.189 456.613 665.819L448.811 674.962L496.018 729.309L522.2 693.606Z" fill="url(#paint2_linear_405_57937)" stroke="#C2DEFF" stroke-width="1.10569"/>
<path d="M108.448 683.292L19.4233 551.999C15.9967 546.946 14.8995 540.666 16.4093 534.75C27.7586 490.28 43.3862 447.012 63.0734 405.553L67.1922 396.879L146.134 437.342L101.413 542.869C101.112 543.579 101.291 544.401 101.858 544.922L107.621 550.21C125.367 566.494 138.933 586.809 147.176 609.439C153.308 626.274 162.405 641.876 174.035 655.505L181.837 664.648L134.63 718.995L108.448 683.292Z" fill="url(#paint3_linear_405_57937)" stroke="#C2DEFF" stroke-width="1.10569"/>
<path d="M522.199 693.606L611.224 562.313C614.651 557.259 615.748 550.98 614.238 545.064C602.889 500.593 587.261 457.326 567.574 415.867L563.455 407.193L496.017 441.705L529.408 553.27C529.609 553.941 529.409 554.667 528.893 555.14L523.026 560.524C505.281 576.808 491.714 597.122 483.472 619.752C477.34 636.588 468.243 652.189 456.612 665.819L448.811 674.961L496.017 729.308L522.199 693.606Z" fill="url(#paint4_linear_405_57937)" stroke="#C2DEFF" stroke-width="1.10569"/>
<path d="M409.142 295.723H376.599C375.119 295.723 373.734 296.454 372.9 297.677C358.555 318.7 340.731 337.123 320.194 352.155L312.746 357.607L303.049 347.377C285.506 328.871 270.158 308.401 257.309 286.374L256.369 284.763C255.17 282.706 252.967 281.442 250.586 281.442H244.116C231.464 281.442 218.853 280 206.528 277.145L179.393 270.86C163.433 267.163 146.72 268.513 131.561 274.724C110.102 283.516 93.584 301.283 86.3756 323.323L77.1095 351.657L36.25 449.64C63.139 462.693 92.6391 469.475 122.529 469.475H136.614L160.812 414.334L180.647 369.111C176.168 407.841 176.448 446.974 181.482 485.636L192.547 570.632V628.946L430.167 637.276C430.167 609.364 433.829 581.572 441.058 554.612L447.027 532.351C458.218 490.614 463.886 447.589 463.886 404.378V385.376C475.767 413.362 485.335 442.274 492.493 471.823L500.382 504.384L516.33 498.308C544.471 487.588 571.216 473.511 595.985 456.384L558.696 369.111L549.671 341.449C543.751 323.3 531.076 308.124 514.272 299.065C501.584 292.224 487.18 289.22 472.815 290.417L409.142 295.723Z" fill="#FFCB9A" stroke="#EA4050" stroke-width="1.10569"/>
<path d="M409.142 295.723H376.599C375.119 295.723 373.734 296.454 372.9 297.677C358.555 318.7 340.731 337.123 320.194 352.155L312.746 357.607L303.049 347.377C285.506 328.871 270.158 308.401 257.309 286.374L256.369 284.763C255.17 282.706 252.967 281.442 250.586 281.442H244.116C231.464 281.442 218.853 280 206.528 277.145L179.393 270.86C163.433 267.163 146.72 268.513 131.561 274.724C110.102 283.516 93.584 301.283 86.3756 323.323L77.1095 351.657L36.25 449.64C63.139 462.693 92.6391 469.475 122.529 469.475H136.614L160.812 414.334L180.647 369.111C176.168 407.841 176.448 446.974 181.482 485.636L192.547 570.632V628.946L430.167 637.276C430.167 609.364 433.829 581.572 441.058 554.612L447.027 532.351C458.218 490.614 463.886 447.589 463.886 404.378V385.376C475.767 413.362 485.335 442.274 492.493 471.823L500.382 504.384L516.33 498.308C544.471 487.588 571.216 473.511 595.985 456.384L558.696 369.111L549.671 341.449C543.751 323.3 531.076 308.124 514.272 299.065C501.584 292.224 487.18 289.22 472.815 290.417L409.142 295.723Z" fill="url(#paint5_linear_405_57937)" stroke="#EA4050" stroke-width="1.10569"/>
<path d="M390.667 20.2859L392.603 20.7302C398.595 22.1055 404.467 23.962 410.16 26.2816C418.707 29.7636 426.8 34.2678 434.264 39.6958L440.939 44.5508C446.419 48.5359 451.243 53.352 455.237 58.8251C458.347 63.0877 460.928 67.7128 462.922 72.5984L463.647 74.3748C466.438 81.2132 468.279 88.4019 469.118 95.7402L472.614 126.334V154.896L471.219 194.899C470.631 211.738 459.287 226.292 443.1 230.973C439.262 232.083 435.275 232.596 431.281 232.494L376.901 231.104C335.735 230.052 296.276 214.434 265.54 187.028L236.453 159.22C231.878 154.846 228.678 149.231 227.247 143.065C225.346 134.875 226.689 126.267 230.996 119.047L237.771 107.689L273.87 62.0692L290.324 45.374C297.295 38.3005 305.338 32.3717 314.158 27.8063C327.566 20.8654 342.445 17.2428 357.543 17.2428H363.804C372.844 17.2428 381.855 18.2636 390.667 20.2859Z" fill="#BED8FF" stroke="black" stroke-width="1.10569"/>
<path d="M390.667 20.2859L392.603 20.7302C398.595 22.1055 404.467 23.962 410.16 26.2816C418.707 29.7636 426.8 34.2678 434.264 39.6958L440.939 44.5508C446.419 48.5359 451.243 53.352 455.237 58.8251C458.347 63.0877 460.928 67.7128 462.922 72.5984L463.647 74.3748C466.438 81.2132 468.279 88.4019 469.118 95.7402L472.614 126.334V154.896L471.219 194.899C470.631 211.738 459.287 226.292 443.1 230.973C439.262 232.083 435.275 232.596 431.281 232.494L376.901 231.104C335.735 230.052 296.276 214.434 265.54 187.028L236.453 159.22C231.878 154.846 228.678 149.231 227.247 143.065C225.346 134.875 226.689 126.267 230.996 119.047L237.771 107.689L273.87 62.0692L290.324 45.374C297.295 38.3005 305.338 32.3717 314.158 27.8063C327.566 20.8654 342.445 17.2428 357.543 17.2428H363.804C372.844 17.2428 381.855 18.2636 390.667 20.2859Z" fill="url(#paint6_linear_405_57937)" stroke="#071457" stroke-width="1.10569"/>
<path d="M384.632 61.8916L387.778 73.9254C388.139 75.307 389.753 75.9214 390.942 75.1293L403.342 66.8624C410.746 61.9264 419.445 59.2924 428.344 59.2924H430.617C434.258 59.2924 437.872 59.9158 441.302 61.1356C449.402 64.0155 455.997 70.0429 459.591 77.8519L462.517 84.2089C464.478 88.468 465.811 92.9887 466.474 97.6302L468.988 115.233C469.29 117.341 469.441 119.469 469.441 121.599V131.215C469.441 139.611 465.415 147.497 458.615 152.421C458.247 152.687 458.181 153.208 458.47 153.558L458.552 153.657C463.026 159.073 465.474 165.879 465.474 172.904V180.681V200.131C465.474 209.072 462.216 217.705 456.31 224.417C450.935 230.524 443.686 234.676 435.698 236.222L398.829 243.358L368.161 248.297C357.536 250.007 346.663 249.305 336.346 246.243C329.901 244.329 323.758 241.519 318.095 237.896L312.497 234.313C302.148 227.689 292.889 219.499 285.051 210.036L252.729 171.01C246.569 163.573 242.481 154.641 240.877 145.118L239.969 139.728C238.059 128.386 240.872 116.757 247.754 107.541L252.992 100.528C257.643 94.2993 264.961 90.6312 272.735 90.6312C273.143 90.6312 273.474 90.3003 273.474 89.892V88.1017C273.474 79.6199 275.679 71.2839 279.874 63.9118C284.252 56.2164 290.637 49.8536 298.348 45.502L314.454 36.4122C322.437 31.9074 331.447 29.5403 340.613 29.5403H342.739C348.856 29.5403 354.904 30.8365 360.484 33.3435C372.439 38.7146 381.318 49.2114 384.632 61.8916Z" fill="#F9FFED" stroke="#C2DEFF" stroke-width="1.10569"/>
<path d="M384.632 61.8916L387.778 73.9254C388.139 75.307 389.753 75.9214 390.942 75.1293L403.342 66.8624C410.746 61.9264 419.445 59.2924 428.344 59.2924H430.617C434.258 59.2924 437.872 59.9158 441.302 61.1356C449.402 64.0155 455.997 70.0429 459.591 77.8519L462.517 84.2089C464.478 88.468 465.811 92.9887 466.474 97.6302L468.988 115.233C469.29 117.341 469.441 119.469 469.441 121.599V131.215C469.441 139.611 465.415 147.497 458.615 152.421C458.247 152.687 458.181 153.208 458.47 153.558L458.552 153.657C463.026 159.073 465.474 165.879 465.474 172.904V180.681V200.131C465.474 209.072 462.216 217.705 456.31 224.417C450.935 230.524 443.686 234.676 435.698 236.222L398.829 243.358L368.161 248.297C357.536 250.007 346.663 249.305 336.346 246.243C329.901 244.329 323.758 241.519 318.095 237.896L312.497 234.313C302.148 227.689 292.889 219.499 285.051 210.036L252.729 171.01C246.569 163.573 242.481 154.641 240.877 145.118L239.969 139.728C238.059 128.386 240.872 116.757 247.754 107.541L252.992 100.528C257.643 94.2993 264.961 90.6312 272.735 90.6312C273.143 90.6312 273.474 90.3003 273.474 89.892V88.1017C273.474 79.6199 275.679 71.2839 279.874 63.9118C284.252 56.2164 290.637 49.8536 298.348 45.502L314.454 36.4122C322.437 31.9074 331.447 29.5403 340.613 29.5403H342.739C348.856 29.5403 354.904 30.8365 360.484 33.3435C372.439 38.7146 381.318 49.2114 384.632 61.8916Z" fill="url(#paint7_linear_405_57937)"/>
<path d="M358.569 73.7379L352.896 69.6481C351.589 68.7063 350.18 67.9148 348.697 67.2888L324.682 57.1573L351.666 57.1578C353.399 57.1579 355.124 57.3932 356.794 57.8575L363.253 59.6532C366.108 60.4469 368.29 62.7527 368.926 65.6466L369.173 66.7713C369.949 70.3026 367.823 73.8228 364.336 74.7786C362.355 75.3215 360.235 74.9389 358.569 73.7379Z" fill="url(#paint8_linear_405_57937)"/>
<path d="M420.41 84.8534L423.855 85.153C425.331 85.2813 426.765 85.708 428.071 86.4073L432.651 88.8597C438.391 91.9331 443.197 96.4956 446.564 102.068L446.682 102.263L439.819 100.191C437.107 99.3726 434.262 99.0918 431.443 99.3643C428.382 99.6603 425.292 99.3033 422.379 98.3168L419.645 97.3912C419.644 97.3909 419.643 97.3904 419.642 97.3898L416.546 95.1157C414.262 93.4381 413.559 90.3365 414.897 87.8383C415.972 85.8302 418.141 84.6561 420.41 84.8534Z" fill="url(#paint9_linear_405_57937)"/>
<ellipse opacity="0.5" cx="303.226" cy="116.019" rx="40.0661" ry="39.6694" fill="url(#paint10_radial_405_57937)"/>
<ellipse opacity="0.5" cx="429.374" cy="163.622" rx="40.0661" ry="39.6694" fill="url(#paint11_radial_405_57937)"/>
<path d="M308.276 93.092L294.895 114.236C310.564 117.901 325.535 124.086 339.221 132.55L339.432 132.681L347.86 109.452C349.031 106.227 349.464 102.78 349.129 99.3657L348.844 96.4593C348.191 89.8036 343.924 84.0491 337.745 81.4903C333.466 79.718 328.67 79.6521 324.344 81.306L321.218 82.5011C315.875 84.5436 311.335 88.2586 308.276 93.092Z" fill="white" stroke="#CEE1EC" stroke-width="1.10569"/>
<path d="M402.689 128.001L389.307 149.145C404.977 152.81 419.947 158.995 433.634 167.46L433.845 167.59L442.273 144.361C443.444 141.136 443.877 137.69 443.542 134.275L443.257 131.368C442.603 124.713 438.337 118.958 432.158 116.399C427.879 114.627 423.083 114.561 418.756 116.215L415.63 117.41C410.287 119.453 405.748 123.168 402.689 128.001Z" fill="white" stroke="#CEE1EC" stroke-width="1.10569"/>
<path d="M313.312 98.7044L301.242 115.49L315.148 120.05L322.102 122.786L333.227 128.714L339.712 110.427C340.024 109.548 340.267 108.647 340.439 107.73L341.145 103.981C341.975 99.575 340.252 95.0771 336.691 92.3527C335.029 91.0815 333.061 90.2718 330.986 90.0056L330.178 89.9019C325.928 89.3566 321.649 90.6664 318.433 93.4971L316.45 95.2423C315.277 96.2746 314.224 97.4359 313.312 98.7044Z" fill="url(#paint12_linear_405_57937)"/>
<path d="M407.725 133.614L395.654 150.4L409.561 154.959L416.514 157.695L427.639 163.623L434.124 145.336C434.436 144.457 434.679 143.556 434.852 142.639L435.558 138.891C436.387 134.484 434.664 129.986 431.103 127.262C429.441 125.991 427.474 125.181 425.399 124.915L424.59 124.811C420.34 124.266 416.061 125.576 412.845 128.406L410.862 130.152C409.689 131.184 408.637 132.345 407.725 133.614Z" fill="url(#paint13_linear_405_57937)"/>
<path d="M362.221 130.136L373.548 119.323C374.937 117.997 377.243 118.875 377.399 120.788L377.927 127.252C378.369 132.672 379.846 137.957 382.278 142.821C384.046 146.357 386.299 149.63 388.971 152.545L389.726 153.368C395.185 159.324 401.993 163.884 409.579 166.665L421.836 171.16L441.981 178.566C446.502 180.228 450.71 182.641 454.429 185.703C455.026 186.195 455.056 187.1 454.493 187.631L446.357 195.288C443.504 197.972 440.39 200.364 437.059 202.425C429.395 207.17 420.736 210.078 411.762 210.923L402.816 211.765C395.423 212.461 388.139 214.032 381.117 216.446L373.762 218.974C368.821 220.673 363.632 221.54 358.408 221.54H358.207C351.007 221.54 343.905 219.863 337.464 216.643C332.4 214.111 327.842 210.673 324.015 206.499L307.985 189.011L281.376 162.401C274.62 155.645 269.59 147.362 266.713 138.251C264.883 132.456 263.952 126.414 263.952 120.337V119.166C263.952 117.804 265.275 116.836 266.573 117.248L305.208 129.507L322.489 135.917C327.326 137.712 332.445 138.631 337.604 138.631H341.019C346.405 138.631 351.697 137.214 356.363 134.522C358.484 133.298 360.45 131.826 362.221 130.136Z" fill="#FFC179"/>
<g style="mix-blend-mode:color-burn">
<path d="M362.221 130.136L373.548 119.323C374.937 117.997 377.243 118.875 377.399 120.788L377.927 127.252C378.369 132.672 379.846 137.957 382.278 142.821C384.046 146.357 386.299 149.63 388.971 152.545L389.726 153.368C395.185 159.324 401.993 163.884 409.579 166.665L421.836 171.16L441.981 178.566C446.502 180.228 450.71 182.641 454.429 185.703C455.026 186.195 455.056 187.1 454.493 187.631L446.357 195.288C443.504 197.972 440.39 200.364 437.059 202.425C429.395 207.17 420.736 210.078 411.762 210.923L402.816 211.765C395.423 212.461 388.139 214.032 381.117 216.446L373.762 218.974C368.821 220.673 363.632 221.54 358.408 221.54H358.207C351.007 221.54 343.905 219.863 337.464 216.643C332.4 214.111 327.842 210.673 324.015 206.499L307.985 189.011L281.376 162.401C274.62 155.645 269.59 147.362 266.713 138.251C264.883 132.456 263.952 126.414 263.952 120.337V119.166C263.952 117.804 265.275 116.836 266.573 117.248L305.208 129.507L322.489 135.917C327.326 137.712 332.445 138.631 337.604 138.631H341.019C346.405 138.631 351.697 137.214 356.363 134.522C358.484 133.298 360.45 131.826 362.221 130.136Z" fill="url(#paint14_linear_405_57937)"/>
</g>
<g style="mix-blend-mode:darken">
<path d="M362.221 130.136L373.548 119.323C374.937 117.997 377.243 118.875 377.399 120.788L377.927 127.252C378.369 132.672 379.846 137.957 382.278 142.821C384.046 146.357 386.299 149.63 388.971 152.545L389.726 153.368C395.185 159.324 401.993 163.884 409.579 166.665L421.836 171.16L441.981 178.566C446.502 180.228 450.71 182.641 454.429 185.703C455.026 186.195 455.056 187.1 454.493 187.631L446.357 195.288C443.504 197.972 440.39 200.364 437.059 202.425C429.395 207.17 420.736 210.078 411.762 210.923L402.816 211.765C395.423 212.461 388.139 214.032 381.117 216.446L373.762 218.974C368.821 220.673 363.632 221.54 358.408 221.54H358.207C351.007 221.54 343.905 219.863 337.464 216.643C332.4 214.111 327.842 210.673 324.015 206.499L307.985 189.011L281.376 162.401C274.62 155.645 269.59 147.362 266.713 138.251C264.883 132.456 263.952 126.414 263.952 120.337V119.166C263.952 117.804 265.275 116.836 266.573 117.248L305.208 129.507L322.489 135.917C327.326 137.712 332.445 138.631 337.604 138.631H341.019C346.405 138.631 351.697 137.214 356.363 134.522C358.484 133.298 360.45 131.826 362.221 130.136Z" fill="url(#paint15_radial_405_57937)"/>
</g>
<g style="mix-blend-mode:darken">
<path d="M362.221 130.136L373.548 119.323C374.937 117.997 377.243 118.875 377.399 120.788L377.927 127.252C378.369 132.672 379.846 137.957 382.278 142.821C384.046 146.357 386.299 149.63 388.971 152.545L389.726 153.368C395.185 159.324 401.993 163.884 409.579 166.665L421.836 171.16L441.981 178.566C446.502 180.228 450.71 182.641 454.429 185.703C455.026 186.195 455.056 187.1 454.493 187.631L446.357 195.288C443.504 197.972 440.39 200.364 437.059 202.425C429.395 207.17 420.736 210.078 411.762 210.923L402.816 211.765C395.423 212.461 388.139 214.032 381.117 216.446L373.762 218.974C368.821 220.673 363.632 221.54 358.408 221.54H358.207C351.007 221.54 343.905 219.863 337.464 216.643C332.4 214.111 327.842 210.673 324.015 206.499L307.985 189.011L281.376 162.401C274.62 155.645 269.59 147.362 266.713 138.251C264.883 132.456 263.952 126.414 263.952 120.337V119.166C263.952 117.804 265.275 116.836 266.573 117.248L305.208 129.507L322.489 135.917C327.326 137.712 332.445 138.631 337.604 138.631H341.019C346.405 138.631 351.697 137.214 356.363 134.522C358.484 133.298 360.45 131.826 362.221 130.136Z" fill="url(#paint16_radial_405_57937)"/>
</g>
<g style="mix-blend-mode:darken">
<path d="M362.221 130.136L373.548 119.323C374.937 117.997 377.243 118.875 377.399 120.788L377.927 127.252C378.369 132.672 379.846 137.957 382.278 142.821C384.046 146.357 386.299 149.63 388.971 152.545L389.726 153.368C395.185 159.324 401.993 163.884 409.579 166.665L421.836 171.16L441.981 178.566C446.502 180.228 450.71 182.641 454.429 185.703C455.026 186.195 455.056 187.1 454.493 187.631L446.357 195.288C443.504 197.972 440.39 200.364 437.059 202.425C429.395 207.17 420.736 210.078 411.762 210.923L402.816 211.765C395.423 212.461 388.139 214.032 381.117 216.446L373.762 218.974C368.821 220.673 363.632 221.54 358.408 221.54H358.207C351.007 221.54 343.905 219.863 337.464 216.643C332.4 214.111 327.842 210.673 324.015 206.499L307.985 189.011L281.376 162.401C274.62 155.645 269.59 147.362 266.713 138.251C264.883 132.456 263.952 126.414 263.952 120.337V119.166C263.952 117.804 265.275 116.836 266.573 117.248L305.208 129.507L322.489 135.917C327.326 137.712 332.445 138.631 337.604 138.631H341.019C346.405 138.631 351.697 137.214 356.363 134.522C358.484 133.298 360.45 131.826 362.221 130.136Z" fill="url(#paint17_radial_405_57937)"/>
</g>
<g style="mix-blend-mode:overlay" opacity="0.5">
<path d="M362.221 130.136L373.548 119.323C374.937 117.997 377.243 118.875 377.399 120.788L377.927 127.252C378.369 132.672 379.846 137.957 382.278 142.821C384.046 146.357 386.299 149.63 388.971 152.545L389.726 153.368C395.185 159.324 401.993 163.884 409.579 166.665L421.836 171.16L441.981 178.566C446.502 180.228 450.71 182.641 454.429 185.703C455.026 186.195 455.056 187.1 454.493 187.631L446.357 195.288C443.504 197.972 440.39 200.364 437.059 202.425C429.395 207.17 420.736 210.078 411.762 210.923L402.816 211.765C395.423 212.461 388.139 214.032 381.117 216.446L373.762 218.974C368.821 220.673 363.632 221.54 358.408 221.54H358.207C351.007 221.54 343.905 219.863 337.464 216.643C332.4 214.111 327.842 210.673 324.015 206.499L307.985 189.011L281.376 162.401C274.62 155.645 269.59 147.362 266.713 138.251C264.883 132.456 263.952 126.414 263.952 120.337V119.166C263.952 117.804 265.275 116.836 266.573 117.248L305.208 129.507L322.489 135.917C327.326 137.712 332.445 138.631 337.604 138.631H341.019C346.405 138.631 351.697 137.214 356.363 134.522C358.484 133.298 360.45 131.826 362.221 130.136Z" fill="#FFC179"/>
</g>
<path d="M277.097 130.521L292.731 137.825C313.604 147.577 336.569 151.999 359.571 150.695C364.728 150.699 369.656 152.827 373.195 156.579L380.061 163.856C384.886 168.971 390.89 172.827 397.549 175.086L409.755 179.227L409.789 179.239L409.824 179.246L436.508 184.66C435.237 187.267 433.035 189.315 430.323 190.389L420.46 194.292C417.593 195.427 414.594 196.197 411.535 196.584L378.526 200.753L378.508 200.755L378.49 200.759L357.551 204.8C356.474 205.008 355.379 205.112 354.282 205.112C351.09 205.112 347.96 204.226 345.241 202.553L342.043 200.585C340.2 199.451 338.484 198.125 336.922 196.628L320.273 180.673L320.267 180.667L320.261 180.662L299.651 162.034L287.222 148.629C282.449 143.482 278.979 137.272 277.097 130.521Z" fill="url(#paint18_radial_405_57937)" stroke="#592441" stroke-width="1.11979"/>
<path d="M331.446 181.647L324.23 174.636C323.693 174.115 323.278 173.481 323.015 172.78C322.317 170.918 322.772 168.82 324.178 167.414L326.588 165.004C327.217 164.374 327.925 163.829 328.694 163.38L329.31 163.021C332.177 161.349 335.495 160.617 338.799 160.929L356.203 162.571C359.405 162.873 362.557 163.564 365.591 164.63L374.166 167.643C377.973 168.981 381.141 171.696 383.045 175.254L384.098 177.222C385.158 179.203 385.507 181.488 385.087 183.695C384.498 186.786 382.465 189.407 379.618 190.746L375.026 192.906L368.175 196.495C365.549 197.87 362.707 198.786 359.772 199.201L358.121 199.435C354.954 199.884 351.724 199.54 348.722 198.434C345.314 197.178 342.329 194.989 340.107 192.116L335.656 186.36C334.366 184.692 332.959 183.117 331.446 181.647Z" fill="url(#paint19_linear_405_57937)"/>
<path d="M331.446 181.647L324.23 174.636C323.693 174.115 323.278 173.481 323.015 172.78C322.317 170.918 322.772 168.82 324.178 167.414L326.588 165.004C327.217 164.374 327.925 163.829 328.694 163.38L329.31 163.021C332.177 161.349 335.495 160.617 338.799 160.929L356.203 162.571C359.405 162.873 362.557 163.564 365.591 164.63L374.166 167.643C377.973 168.981 381.141 171.696 383.045 175.254L384.098 177.222C385.158 179.203 385.507 181.488 385.087 183.695C384.498 186.786 382.465 189.407 379.618 190.746L375.026 192.906L368.175 196.495C365.549 197.87 362.707 198.786 359.772 199.201L358.121 199.435C354.954 199.884 351.724 199.54 348.722 198.434C345.314 197.178 342.329 194.989 340.107 192.116L335.656 186.36C334.366 184.692 332.959 183.117 331.446 181.647Z" fill="url(#paint20_radial_405_57937)"/>
<circle cx="316.315" cy="97.7718" r="3.17355" fill="white"/>
<circle cx="410.729" cy="132.681" r="3.17355" fill="white"/>
<g style="mix-blend-mode:color-burn">
<path d="M234.597 281.044L241.173 291.378C260.785 322.196 284.014 350.556 310.366 375.854V375.854V375.854C338.784 356.382 364.298 332.98 386.147 306.345L394.861 295.722" stroke="#ED9CA4" stroke-width="1.10569"/>
</g>
<g style="mix-blend-mode:color-burn">
<path d="M501.572 293.739L490.128 303.522C481.474 310.919 474.62 320.192 470.085 330.635V330.635C465.996 340.053 463.886 350.211 463.886 360.479V385.772" stroke="#ED9CA4" stroke-width="1.10569"/>
</g>
<g style="mix-blend-mode:color-burn">
<path d="M132.647 274.301L147.193 283.069C156.675 288.784 164.721 296.596 170.713 305.905V305.905C179.22 319.121 183.198 334.745 182.048 350.419L180.647 369.507" stroke="#ED9CA4" stroke-width="1.10569"/>
</g>
<g style="mix-blend-mode:screen">
<ellipse cx="466.171" cy="58.6796" rx="111.699" ry="68.015" fill="#3656FF"/>
</g>
<g style="mix-blend-mode:color-dodge" opacity="0.5">
<ellipse cx="519.423" cy="357.607" rx="176.926" ry="92.4297" fill="#FF6636"/>
</g>
<g style="mix-blend-mode:soft-light">
<rect y="-77" width="701" height="762" fill="#003EDC"/>
</g>
<g style="mix-blend-mode:soft-light">
<rect y="-71" width="702" height="756" fill="#FF7E36"/>
</g>
<g style="mix-blend-mode:color-burn" opacity="0.5">
<rect y="-71" width="702" height="756" fill="#A2B0FF"/>
</g>
</g>
</g>
<defs>
<linearGradient id="paint0_linear_405_57937" x1="275.854" y1="201.309" x2="378.814" y2="340.42" gradientUnits="userSpaceOnUse">
<stop offset="0.161995" stop-color="#9FB7DB"/>
<stop offset="1" stop-color="#BDD2F0" stop-opacity="0"/>
</linearGradient>
<linearGradient id="paint1_linear_405_57937" x1="66.7955" y1="462.334" x2="277.49" y2="614.275" gradientUnits="userSpaceOnUse">
<stop offset="0.161995" stop-color="#B5D2FF"/>
<stop offset="1" stop-color="#BDD2F0" stop-opacity="0"/>
</linearGradient>
<linearGradient id="paint2_linear_405_57937" x1="549.175" y1="475.028" x2="476.883" y2="683.986" gradientUnits="userSpaceOnUse">
<stop offset="0.161995" stop-color="#B5D2FF"/>
<stop offset="1" stop-color="#BDD2F0" stop-opacity="0"/>
</linearGradient>
<linearGradient id="paint3_linear_405_57937" x1="110.701" y1="465.048" x2="118.842" y2="499.197" gradientUnits="userSpaceOnUse">
<stop offset="0.161995" stop-color="#8FB4EC"/>
<stop offset="1" stop-color="#BDD2F0" stop-opacity="0"/>
</linearGradient>
<linearGradient id="paint4_linear_405_57937" x1="516.49" y1="496.008" x2="539.222" y2="537.349" gradientUnits="userSpaceOnUse">
<stop offset="0.161995" stop-color="#8FB4EC"/>
<stop offset="1" stop-color="#BDD2F0" stop-opacity="0"/>
</linearGradient>
<linearGradient id="paint5_linear_405_57937" x1="164.382" y1="265.177" x2="499.985" y2="657.904" gradientUnits="userSpaceOnUse">
<stop stop-color="#EA4050"/>
<stop offset="1" stop-color="#FFC1C7" stop-opacity="0"/>
</linearGradient>
<linearGradient id="paint6_linear_405_57937" x1="334.961" y1="8.51553" x2="449.209" y2="232.648" gradientUnits="userSpaceOnUse">
<stop stop-color="#5B69E3"/>
<stop offset="1" stop-color="#6076EB" stop-opacity="0"/>
</linearGradient>
<linearGradient id="paint7_linear_405_57937" x1="339.722" y1="35.0941" x2="398.432" y2="250.896" gradientUnits="userSpaceOnUse">
<stop stop-color="#BCD1F1"/>
<stop offset="0.692708" stop-color="white" stop-opacity="0"/>
</linearGradient>
<linearGradient id="paint8_linear_405_57937" x1="368.484" y1="69.8513" x2="328.994" y2="58.4903" gradientUnits="userSpaceOnUse">
<stop stop-color="#000833" stop-opacity="0.72"/>
<stop offset="1"/>
</linearGradient>
<linearGradient id="paint9_linear_405_57937" x1="445.55" y1="103.313" x2="410.314" y2="91.0949" gradientUnits="userSpaceOnUse">
<stop/>
<stop offset="1" stop-color="#000833" stop-opacity="0.72"/>
</linearGradient>
<radialGradient id="paint10_radial_405_57937" cx="0" cy="0" r="1" gradientUnits="userSpaceOnUse" gradientTransform="translate(303.226 116.019) rotate(90) scale(39.6694 40.0661)">
<stop stop-color="#FFB6DD"/>
<stop offset="1" stop-color="white" stop-opacity="0"/>
</radialGradient>
<radialGradient id="paint11_radial_405_57937" cx="0" cy="0" r="1" gradientUnits="userSpaceOnUse" gradientTransform="translate(429.374 163.622) rotate(90) scale(39.6694 40.0661)">
<stop stop-color="#FFB6DD"/>
<stop offset="1" stop-color="white" stop-opacity="0"/>
</radialGradient>
<linearGradient id="paint12_linear_405_57937" x1="322.26" y1="89.2507" x2="338.047" y2="127.162" gradientUnits="userSpaceOnUse">
<stop offset="0.291667" stop-color="#130701"/>
<stop offset="1" stop-color="#DA7F63"/>
</linearGradient>
<linearGradient id="paint13_linear_405_57937" x1="416.673" y1="124.16" x2="432.46" y2="162.071" gradientUnits="userSpaceOnUse">
<stop offset="0.291667" stop-color="#130701"/>
<stop offset="1" stop-color="#DA7F63"/>
</linearGradient>
<linearGradient id="paint14_linear_405_57937" x1="375.82" y1="116.019" x2="359.754" y2="221.54" gradientUnits="userSpaceOnUse">
<stop stop-color="#E67C01"/>
<stop offset="1" stop-color="#FFC179" stop-opacity="0"/>
</linearGradient>
<radialGradient id="paint15_radial_405_57937" cx="0" cy="0" r="1" gradientUnits="userSpaceOnUse" gradientTransform="translate(270.696 134.664) rotate(21.1398) scale(95.6962 173.764)">
<stop stop-color="#E67C01"/>
<stop offset="1" stop-color="#FFC179"/>
</radialGradient>
<radialGradient id="paint16_radial_405_57937" cx="0" cy="0" r="1" gradientUnits="userSpaceOnUse" gradientTransform="translate(340.911 229.87) rotate(-72.582) scale(63.611 115.504)">
<stop stop-color="#E67C01"/>
<stop offset="1" stop-color="#FFDAAE"/>
</radialGradient>
<radialGradient id="paint17_radial_405_57937" cx="0" cy="0" r="1" gradientUnits="userSpaceOnUse" gradientTransform="translate(374.233 116.019) rotate(107.868) scale(63.3532 115.036)">
<stop stop-color="#AD1F00"/>
<stop offset="1" stop-color="#FFDAAE"/>
</radialGradient>
<radialGradient id="paint18_radial_405_57937" cx="0" cy="0" r="1" gradientUnits="userSpaceOnUse" gradientTransform="translate(372.436 167.179) rotate(83.8338) scale(47.1244 111.85)">
<stop offset="0.302083" stop-color="#520B31"/>
<stop offset="1" stop-color="#220312"/>
</radialGradient>
<linearGradient id="paint19_linear_405_57937" x1="361.538" y1="160.449" x2="354.801" y2="210.594" gradientUnits="userSpaceOnUse">
<stop offset="0.302083" stop-color="#510B31"/>
<stop offset="1" stop-color="#DDA0BD"/>
</linearGradient>
<radialGradient id="paint20_radial_405_57937" cx="0" cy="0" r="1" gradientUnits="userSpaceOnUse" gradientTransform="translate(359.158 160.449) rotate(96.3402) scale(50.291 91.3252)">
<stop offset="0.078125" stop-color="#510B31"/>
<stop offset="1" stop-color="#FF8CC3"/>
</radialGradient>
<clipPath id="clip0_405_57937">
<rect width="666" height="506" rx="15" fill="white"/>
</clipPath>
</defs>
</svg>
