<svg width="686" height="684" viewBox="0 0 686 684" fill="none" xmlns="http://www.w3.org/2000/svg">
<path fill-rule="evenodd" clip-rule="evenodd" d="M539.831 40.149L557.685 45.6243L557.683 45.633L555.944 45.1113L552.465 50.8515C544.255 64.3987 534.271 76.7881 522.779 87.6909C513.743 96.2636 503.831 103.863 493.207 110.365L456.09 133.078L414.807 165.951C413.806 166.749 412.934 167.697 412.224 168.763L411.703 169.543C408.206 174.789 409.624 181.877 414.87 185.375C415.527 185.813 416.218 186.176 416.929 186.463C419.005 190.687 423.72 193.545 429.088 192.406C431.194 191.96 433.121 190.904 434.631 189.371L464.124 159.424C469.328 154.14 474.904 149.258 480.803 144.812L480.682 144.926L480.549 145.052L480.386 145.207L480.246 145.34L480.151 145.431L463.223 161.607L357.029 268.593L357.436 268.978L316.609 309.805C315.512 310.902 314.475 312.044 313.5 313.228L217.221 408.449C214.764 410.879 214.706 414.83 217.091 417.332L239.488 440.815L229.239 451.064C228.026 452.278 226.067 452.305 224.82 451.126L183.473 412.034L167.392 427.713L181.985 413.468C183.242 412.24 183.261 410.224 182.027 408.973L126.413 352.597L93.1287 385.09L148.766 441.489C149.924 442.663 151.775 442.744 153.028 441.718L151.773 442.941L208.605 498.386C213.832 503.486 220.845 506.34 228.148 506.34C235.57 506.34 242.688 503.392 247.936 498.144L270.647 475.433L246.21 447.864L289.905 493.68C292.376 496.27 296.5 496.303 299.011 493.751L360.03 431.748L419.05 491.439C421.547 493.964 425.63 493.946 428.105 491.399L500.833 416.553C503.262 414.053 503.217 410.06 500.732 407.615L466.278 373.72C468.323 370.815 469.605 367.332 469.834 363.558C470.166 358.084 468.206 352.719 464.424 348.748L459.903 344.001C457.915 341.914 455.683 340.089 453.259 338.561L529.522 260.687L536.89 296.296C537.438 298.948 538.357 301.509 539.617 303.904L539.899 304.439C543.553 311.382 549.992 316.438 557.603 318.341C560.182 318.985 562.84 319.253 565.495 319.137L642.757 315.748C648.777 315.484 654.727 314.345 660.418 312.365L666.134 310.377C668.736 309.472 671.172 308.148 673.346 306.457L676.32 304.143C689.808 293.653 687.508 272.628 672.071 265.302C664.068 261.504 654.593 262.652 647.729 268.252L640.138 274.444C632.867 280.376 623.677 283.444 614.301 283.068L569.416 281.273L561.527 246.562L576.349 243.052C577.841 242.698 578.866 241.327 578.783 239.796L576.078 189.751L577.341 183.797L575.413 180.766L577.341 182.212L579.718 152.89C579.718 140.578 586.105 129.147 596.591 122.694L600.323 120.398L583.048 105.283C580.174 102.768 577.431 100.113 574.831 97.331L620.392 137.462C621.831 138.73 623.96 138.82 625.501 137.677L661.374 111.091C663.385 109.601 664.133 106.939 663.195 104.619L656.793 88.797C656.118 87.1296 656.049 85.2786 656.596 83.5653L658.437 77.8037C659.533 74.3722 660.296 70.8611 660.724 67.3181L679.908 69.2364C681.39 69.3846 682.239 67.5918 681.186 66.5385L671.95 57.3027C671.751 57.1034 671.608 56.8546 671.537 56.582L662.241 20.9467C662.173 20.6871 662.013 20.4611 661.791 20.311C640.021 5.62881 613.725 -0.800139 587.636 2.18142L573.221 3.82884C572.815 3.87528 572.445 4.08609 572.198 4.41221L550.675 32.8534C550.492 33.0952 550.244 33.2794 549.959 33.3842L539.748 37.1464C538.324 37.671 538.38 39.7041 539.831 40.149ZM537.965 109.022C543.817 103.807 549.224 98.0954 554.123 91.9449C550.518 99.3177 545.315 105.809 538.894 110.935L537.965 109.022ZM1.37397 416.62L100.888 319.476C100.981 319.385 101.129 319.385 101.223 319.475L118.788 336.474C123.156 340.701 125.622 346.519 125.622 352.597L92.3373 385.089L89.3831 382.874C89.259 382.781 89.0856 382.792 88.975 382.901L53.5976 417.668C46.9358 424.215 37.9691 427.884 28.6288 427.884C21.5961 427.884 14.7207 425.802 8.86911 421.901L1.40214 416.923C1.29853 416.854 1.28487 416.707 1.37397 416.62ZM232.324 623.887L215.098 618.314C214.622 618.16 214.124 618.081 213.623 618.081H213.297C210.831 618.081 208.832 620.081 208.832 622.547C208.832 624.189 209.734 625.7 211.18 626.478L225.001 633.92C227.938 635.502 231.114 636.595 234.403 637.157L250.852 639.965C258.223 641.224 265.688 641.856 273.165 641.856H556.568C564.059 641.856 571.534 641.155 578.895 639.763L593.58 636.984C595.947 636.537 598.231 635.727 600.353 634.585L614.8 626.806C616.509 625.886 617.308 623.869 616.695 622.028C616.36 621.023 615.64 620.193 614.692 619.719L613.956 619.351C612.349 618.548 610.466 618.509 608.828 619.247L598.732 623.789C596.629 624.736 594.422 625.43 592.156 625.859L579.198 628.311C570.581 629.941 561.831 630.761 553.062 630.761H279.398C270.934 630.761 262.484 630.105 254.122 628.799L250.67 628.259C244.449 627.287 238.314 625.825 232.324 623.887ZM448.959 470.678L457.242 479.599C458.378 480.822 458.371 482.717 457.225 483.931L419.637 523.775L420.257 524.443C419.235 524.208 418.117 524.483 417.314 525.278L351.409 590.425L349.105 590.344C344.538 594.911 341.972 601.105 341.972 607.564V629.969H482.044C482.148 629.969 482.228 629.875 482.212 629.772L480.893 621.531C479.715 614.168 476.068 607.424 470.55 602.408C464.796 597.177 457.374 594.157 449.602 593.883L416.488 592.717L449.916 560.016C450.78 559.171 451.059 557.952 450.744 556.864L509.201 499.833C513.28 495.854 515.778 490.53 516.233 484.849C516.79 477.879 514.222 471.021 509.224 466.131L480.658 438.186L448.959 470.678ZM553.566 665.631C553.566 659.242 550.279 653.621 545.304 650.366L548.812 642.649H521.867L524.813 650.748C520.153 654.05 517.111 659.485 517.111 665.631C517.111 675.698 525.272 683.858 535.339 683.858C545.405 683.858 553.566 675.698 553.566 665.631ZM302.802 650.366C307.777 653.621 311.064 659.242 311.064 665.631C311.064 675.698 302.903 683.858 292.837 683.858C282.77 683.858 274.609 675.698 274.609 665.631C274.609 659.485 277.651 654.05 282.311 650.748L279.365 642.649H306.31L302.802 650.366Z" fill="#3656FF"/>
<path d="M557.685 45.6243L558.457 45.8032L558.624 45.0833L557.917 44.8666L557.685 45.6243ZM539.831 40.149L539.598 40.9067L539.598 40.9067L539.831 40.149ZM557.683 45.633L557.455 46.3921L558.264 46.6348L558.455 45.8119L557.683 45.633ZM555.944 45.1113L556.172 44.3522L555.584 44.1759L555.266 44.7005L555.944 45.1113ZM552.465 50.8515L553.143 51.2622L553.143 51.2622L552.465 50.8515ZM522.779 87.6909L522.233 87.116L522.233 87.116L522.779 87.6909ZM493.207 110.365L493.62 111.041L493.62 111.041L493.207 110.365ZM456.09 133.078L455.677 132.402L455.635 132.427L455.597 132.458L456.09 133.078ZM414.807 165.951L415.301 166.571L415.301 166.571L414.807 165.951ZM412.224 168.763L412.883 169.202L412.883 169.202L412.224 168.763ZM411.703 169.543L411.044 169.104L411.044 169.104L411.703 169.543ZM414.87 185.375L415.309 184.715L415.309 184.715L414.87 185.375ZM416.929 186.463L417.641 186.114L417.507 185.842L417.226 185.728L416.929 186.463ZM429.088 192.406L429.253 193.182L429.253 193.182L429.088 192.406ZM434.631 189.371L434.067 188.815L434.067 188.815L434.631 189.371ZM464.124 159.424L464.689 159.98L464.689 159.98L464.124 159.424ZM480.803 144.812L481.347 145.389L480.326 144.18L480.803 144.812ZM480.682 144.926L480.138 144.35L480.137 144.351L480.682 144.926ZM480.549 145.052L480.004 144.477L480.004 144.477L480.549 145.052ZM480.386 145.207L479.84 144.633L479.839 144.633L480.386 145.207ZM480.246 145.34L479.7 144.767L479.699 144.767L480.246 145.34ZM480.151 145.431L479.604 144.858L479.604 144.858L480.151 145.431ZM463.223 161.607L462.675 161.034L462.668 161.041L462.66 161.049L463.223 161.607ZM357.029 268.593L356.467 268.035L355.894 268.612L356.485 269.169L357.029 268.593ZM357.436 268.978L357.997 269.538L358.573 268.962L357.98 268.402L357.436 268.978ZM313.5 313.228L314.058 313.791L314.086 313.763L314.112 313.732L313.5 313.228ZM217.221 408.449L217.779 409.012L217.779 409.012L217.221 408.449ZM217.091 417.332L216.518 417.879L216.518 417.879L217.091 417.332ZM239.488 440.815L240.048 441.376L240.596 440.829L240.061 440.269L239.488 440.815ZM229.239 451.064L228.679 450.504L228.679 450.504L229.239 451.064ZM224.82 451.126L224.276 451.702L224.276 451.702L224.82 451.126ZM183.473 412.034L184.017 411.458L183.464 410.936L182.92 411.467L183.473 412.034ZM167.392 427.713L166.838 427.146L167.945 428.28L167.392 427.713ZM181.985 413.468L182.538 414.035L182.538 414.035L181.985 413.468ZM182.027 408.973L181.463 409.53L181.463 409.53L182.027 408.973ZM126.413 352.597L126.977 352.041L126.424 351.48L125.86 352.03L126.413 352.597ZM93.1287 385.09L92.5751 384.522L92.005 385.079L92.5645 385.646L93.1287 385.09ZM148.766 441.489L149.33 440.932L149.33 440.932L148.766 441.489ZM153.028 441.718L153.581 442.286L152.526 441.105L153.028 441.718ZM151.773 442.941L151.22 442.374L150.638 442.941L151.22 443.509L151.773 442.941ZM208.605 498.386L209.158 497.819L209.158 497.819L208.605 498.386ZM270.647 475.433L271.207 475.994L271.735 475.466L271.24 474.908L270.647 475.433ZM246.21 447.864L246.784 447.317L245.617 448.39L246.21 447.864ZM289.905 493.68L289.331 494.227L289.331 494.227L289.905 493.68ZM299.011 493.751L299.576 494.307L299.576 494.307L299.011 493.751ZM360.03 431.748L360.594 431.191L360.029 430.62L359.465 431.192L360.03 431.748ZM419.05 491.439L419.613 490.881L419.613 490.881L419.05 491.439ZM428.105 491.399L428.673 491.951L428.673 491.951L428.105 491.399ZM500.833 416.553L501.401 417.105L501.401 417.105L500.833 416.553ZM500.732 407.615L500.177 408.18L500.177 408.18L500.732 407.615ZM466.278 373.72L465.63 373.264L465.243 373.813L465.723 374.285L466.278 373.72ZM469.834 363.558L469.043 363.51L469.043 363.51L469.834 363.558ZM464.424 348.748L464.998 348.201L464.998 348.201L464.424 348.748ZM459.903 344.001L459.329 344.548L459.329 344.548L459.903 344.001ZM453.259 338.561L452.693 338.007L452.006 338.708L452.837 339.232L453.259 338.561ZM529.522 260.687L530.298 260.526L529.997 259.069L528.956 260.132L529.522 260.687ZM536.89 296.296L536.114 296.457L536.114 296.457L536.89 296.296ZM539.617 303.904L540.319 303.535L540.319 303.535L539.617 303.904ZM539.899 304.439L539.198 304.808L539.198 304.808L539.899 304.439ZM557.603 318.341L557.796 317.572L557.796 317.572L557.603 318.341ZM565.495 319.137L565.53 319.929L565.53 319.929L565.495 319.137ZM642.757 315.748L642.792 316.54L642.792 316.54L642.757 315.748ZM660.418 312.365L660.678 313.113L660.678 313.113L660.418 312.365ZM666.134 310.377L665.874 309.628L665.874 309.628L666.134 310.377ZM673.346 306.457L673.832 307.082L673.832 307.082L673.346 306.457ZM676.32 304.143L675.834 303.518L675.834 303.518L676.32 304.143ZM672.071 265.302L671.731 266.018L671.731 266.018L672.071 265.302ZM647.729 268.252L647.228 267.638L647.228 267.638L647.729 268.252ZM640.138 274.444L639.637 273.83L639.637 273.83L640.138 274.444ZM614.301 283.068L614.332 282.277L614.332 282.277L614.301 283.068ZM569.416 281.273L568.644 281.449L568.778 282.041L569.385 282.065L569.416 281.273ZM561.527 246.562L561.345 245.791L560.581 245.972L560.755 246.737L561.527 246.562ZM576.349 243.052L576.531 243.823L576.531 243.823L576.349 243.052ZM578.783 239.796L579.575 239.753L579.575 239.753L578.783 239.796ZM576.078 189.751L575.303 189.587L575.281 189.689L575.287 189.794L576.078 189.751ZM577.341 183.797L578.117 183.961L578.184 183.644L578.01 183.371L577.341 183.797ZM575.413 180.766L575.888 180.132L574.744 181.192L575.413 180.766ZM577.341 182.212L576.865 182.846L578.014 183.708L578.13 182.276L577.341 182.212ZM579.718 152.89L580.508 152.954L580.51 152.922V152.89H579.718ZM596.591 122.694L596.176 122.019L596.176 122.019L596.591 122.694ZM600.323 120.398L600.738 121.073L601.654 120.509L600.845 119.801L600.323 120.398ZM583.048 105.283L582.526 105.879L582.526 105.879L583.048 105.283ZM574.831 97.331L575.354 96.7363L574.252 97.8721L574.831 97.331ZM620.392 137.462L619.868 138.057L619.868 138.057L620.392 137.462ZM625.501 137.677L625.973 138.314L625.973 138.314L625.501 137.677ZM661.374 111.091L660.902 110.454L660.902 110.454L661.374 111.091ZM663.195 104.619L662.46 104.916L662.46 104.916L663.195 104.619ZM656.793 88.797L657.528 88.4997L657.528 88.4997L656.793 88.797ZM656.596 83.5653L657.351 83.8065L657.351 83.8065L656.596 83.5653ZM658.437 77.8037L659.192 78.0449L659.192 78.0449L658.437 77.8037ZM660.724 67.3181L660.803 66.5295L660.031 66.4523L659.938 67.2229L660.724 67.3181ZM679.908 69.2364L679.829 70.025L679.829 70.025L679.908 69.2364ZM681.186 66.5385L681.747 65.9782L681.747 65.9782L681.186 66.5385ZM671.95 57.3027L672.511 56.7423L672.511 56.7422L671.95 57.3027ZM671.537 56.582L672.304 56.382L672.304 56.382L671.537 56.582ZM662.241 20.9467L663.008 20.7467L663.008 20.7466L662.241 20.9467ZM661.791 20.311L661.348 20.9681L661.348 20.9681L661.791 20.311ZM587.636 2.18142L587.546 1.39406L587.546 1.39406L587.636 2.18142ZM573.221 3.82884L573.311 4.61621L573.311 4.6162L573.221 3.82884ZM572.198 4.41221L572.83 4.89043L572.83 4.8904L572.198 4.41221ZM550.675 32.8534L551.307 33.3317L551.307 33.3316L550.675 32.8534ZM549.959 33.3842L550.233 34.1278L550.233 34.1278L549.959 33.3842ZM539.748 37.1464L539.474 36.4028L539.474 36.4028L539.748 37.1464ZM554.123 91.9449L554.835 92.293L553.504 91.4511L554.123 91.9449ZM537.965 109.022L537.438 108.43L536.991 108.829L537.253 109.368L537.965 109.022ZM538.894 110.935L538.182 111.281L538.614 112.172L539.389 111.554L538.894 110.935ZM100.888 319.476L100.334 318.909L100.334 318.909L100.888 319.476ZM1.37397 416.62L1.92755 417.187L1.92755 417.187L1.37397 416.62ZM101.223 319.475L100.671 320.045L100.671 320.045L101.223 319.475ZM118.788 336.474L119.339 335.904L119.339 335.904L118.788 336.474ZM125.622 352.597L126.175 353.164L126.414 352.931V352.597H125.622ZM92.3373 385.089L91.8618 385.723L92.405 386.131L92.8909 385.656L92.3373 385.089ZM89.3831 382.874L88.9075 383.508L88.9076 383.508L89.3831 382.874ZM88.975 382.901L89.5305 383.466L89.5305 383.466L88.975 382.901ZM53.5976 417.668L53.0421 417.103L53.0421 417.103L53.5976 417.668ZM8.86911 421.901L8.42952 422.56L8.42952 422.56L8.86911 421.901ZM1.40214 416.923L1.84173 416.264L1.8417 416.264L1.40214 416.923ZM215.098 618.314L214.854 619.068L214.854 619.068L215.098 618.314ZM232.324 623.887L232.568 623.133L232.568 623.133L232.324 623.887ZM211.18 626.478L211.556 625.781L211.556 625.781L211.18 626.478ZM225.001 633.92L224.625 634.618L224.625 634.618L225.001 633.92ZM234.403 637.157L234.536 636.375L234.536 636.375L234.403 637.157ZM250.852 639.965L250.719 640.746L250.719 640.746L250.852 639.965ZM578.895 639.763L578.748 638.984L578.748 638.984L578.895 639.763ZM593.58 636.984L593.727 637.763L593.727 637.763L593.58 636.984ZM600.353 634.585L599.977 633.887L599.977 633.887L600.353 634.585ZM614.8 626.806L614.424 626.108L614.424 626.108L614.8 626.806ZM616.695 622.028L615.943 622.278L615.943 622.279L616.695 622.028ZM614.692 619.719L615.047 619.01L615.047 619.01L614.692 619.719ZM613.956 619.351L613.602 620.06L613.602 620.06L613.956 619.351ZM608.828 619.247L609.153 619.969L609.153 619.969L608.828 619.247ZM598.732 623.789L599.058 624.512L599.058 624.512L598.732 623.789ZM592.156 625.859L592.303 626.638L592.303 626.638L592.156 625.859ZM579.198 628.311L579.345 629.089L579.345 629.089L579.198 628.311ZM254.122 628.799L254 629.582L254 629.582L254.122 628.799ZM250.67 628.259L250.548 629.042L250.548 629.042L250.67 628.259ZM457.242 479.599L456.661 480.138L456.661 480.138L457.242 479.599ZM448.959 470.678L448.391 470.125L447.865 470.665L448.378 471.218L448.959 470.678ZM457.225 483.931L457.801 484.475L457.801 484.475L457.225 483.931ZM419.637 523.775L419.06 523.231L418.551 523.771L419.056 524.314L419.637 523.775ZM420.257 524.443L420.079 525.216L422.593 525.795L420.838 523.904L420.257 524.443ZM417.314 525.278L417.871 525.841L417.871 525.841L417.314 525.278ZM351.409 590.425L351.381 591.217L351.723 591.23L351.966 590.989L351.409 590.425ZM349.105 590.344L349.133 589.552L348.788 589.54L348.544 589.784L349.105 590.344ZM341.972 629.969H341.18V630.761H341.972V629.969ZM482.212 629.772L482.994 629.647L482.994 629.647L482.212 629.772ZM480.893 621.531L481.676 621.406L481.676 621.406L480.893 621.531ZM470.55 602.408L470.017 602.995L470.017 602.995L470.55 602.408ZM449.602 593.883L449.575 594.675L449.575 594.675L449.602 593.883ZM416.488 592.717L415.934 592.15L414.612 593.444L416.46 593.509L416.488 592.717ZM449.916 560.016L449.362 559.449L449.362 559.449L449.916 560.016ZM450.744 556.864L450.191 556.297L449.851 556.629L449.983 557.085L450.744 556.864ZM509.201 499.833L509.754 500.401L509.754 500.4L509.201 499.833ZM516.233 484.849L515.443 484.786L515.443 484.786L516.233 484.849ZM509.224 466.131L508.669 466.697L508.669 466.697L509.224 466.131ZM480.658 438.186L481.212 437.62L480.645 437.065L480.091 437.633L480.658 438.186ZM545.304 650.366L544.582 650.039L544.301 650.657L544.87 651.03L545.304 650.366ZM548.812 642.649L549.533 642.977L550.043 641.856H548.812V642.649ZM521.867 642.649V641.856H520.736L521.122 642.92L521.867 642.649ZM524.813 650.748L525.271 651.395L525.764 651.046L525.557 650.478L524.813 650.748ZM302.802 650.366L302.08 650.039L301.799 650.657L302.368 651.03L302.802 650.366ZM282.311 650.748L282.769 651.395L283.262 651.046L283.055 650.478L282.311 650.748ZM279.365 642.649V641.856H278.234L278.62 642.92L279.365 642.649ZM306.31 642.649L307.031 642.977L307.541 641.856H306.31V642.649ZM557.917 44.8666L540.063 39.3913L539.598 40.9067L557.453 46.382L557.917 44.8666ZM558.455 45.8119L558.457 45.8032L556.913 45.4454L556.911 45.454L558.455 45.8119ZM555.716 45.8703L557.455 46.3921L557.911 44.8739L556.172 44.3522L555.716 45.8703ZM553.143 51.2622L556.622 45.522L555.266 44.7005L551.787 50.4407L553.143 51.2622ZM523.324 88.2658C534.868 77.3145 544.896 64.8698 553.143 51.2622L551.787 50.4407C543.613 63.9276 533.674 76.2618 522.233 87.116L523.324 88.2658ZM493.62 111.041C504.292 104.51 514.248 96.8767 523.324 88.2658L522.233 87.116C513.237 95.6505 503.37 103.216 492.793 109.689L493.62 111.041ZM456.504 133.754L493.62 111.041L492.793 109.689L455.677 132.402L456.504 133.754ZM415.301 166.571L456.584 133.698L455.597 132.458L414.314 165.331L415.301 166.571ZM412.883 169.202C413.548 168.205 414.364 167.317 415.301 166.571L414.314 165.331C413.248 166.18 412.32 167.189 411.564 168.323L412.883 169.202ZM412.363 169.983L412.883 169.202L411.564 168.323L411.044 169.104L412.363 169.983ZM415.309 184.715C410.427 181.461 409.108 174.865 412.363 169.983L411.044 169.104C407.304 174.714 408.82 182.294 414.43 186.034L415.309 184.715ZM417.226 185.728C416.564 185.461 415.922 185.123 415.309 184.715L414.43 186.034C415.133 186.503 415.871 186.89 416.633 187.198L417.226 185.728ZM428.924 191.631C423.947 192.687 419.573 190.047 417.641 186.114L416.218 186.812C418.436 191.328 423.493 194.403 429.253 193.182L428.924 191.631ZM434.067 188.815C432.666 190.237 430.877 191.217 428.924 191.631L429.253 193.182C431.51 192.703 433.577 191.571 435.196 189.927L434.067 188.815ZM463.559 158.868L434.067 188.815L435.196 189.927L464.689 159.98L463.559 158.868ZM480.326 144.18C474.396 148.649 468.791 153.556 463.559 158.868L464.689 159.98C469.865 154.724 475.412 149.868 481.28 145.445L480.326 144.18ZM481.226 145.503L481.347 145.389L480.258 144.236L480.138 144.35L481.226 145.503ZM481.094 145.627L481.227 145.502L480.137 144.351L480.004 144.477L481.094 145.627ZM480.932 145.782L481.095 145.627L480.004 144.477L479.84 144.633L480.932 145.782ZM480.793 145.914L480.933 145.781L479.839 144.633L479.7 144.767L480.793 145.914ZM480.699 146.004L480.793 145.914L479.699 144.767L479.604 144.858L480.699 146.004ZM463.77 162.18L480.699 146.004L479.604 144.858L462.675 161.034L463.77 162.18ZM357.592 269.151L463.785 162.165L462.66 161.049L356.467 268.035L357.592 269.151ZM357.98 268.402L357.573 268.017L356.485 269.169L356.892 269.554L357.98 268.402ZM317.169 310.366L357.997 269.538L356.876 268.417L316.048 309.245L317.169 310.366ZM314.112 313.732C315.071 312.568 316.09 311.444 317.169 310.366L316.048 309.245C314.934 310.36 313.88 311.521 312.889 312.724L314.112 313.732ZM217.779 409.012L314.058 313.791L312.943 312.664L216.664 407.885L217.779 409.012ZM217.665 416.785C215.578 414.596 215.628 411.139 217.779 409.012L216.664 407.885C213.899 410.619 213.834 415.065 216.518 417.879L217.665 416.785ZM240.061 440.269L217.665 416.785L216.518 417.879L238.914 441.362L240.061 440.269ZM229.8 451.624L240.048 441.376L238.928 440.255L228.679 450.504L229.8 451.624ZM224.276 451.702C225.834 453.176 228.283 453.141 229.8 451.624L228.679 450.504C227.769 451.414 226.3 451.434 225.364 450.55L224.276 451.702ZM182.928 412.61L224.276 451.702L225.364 450.55L184.017 411.458L182.928 412.61ZM167.945 428.28L184.026 412.602L182.92 411.467L166.839 427.146L167.945 428.28ZM181.431 412.901L166.838 427.146L167.945 428.28L182.538 414.035L181.431 412.901ZM181.463 409.53C182.389 410.468 182.374 411.98 181.431 412.901L182.538 414.035C184.11 412.5 184.134 409.98 182.591 408.417L181.463 409.53ZM125.849 353.154L181.463 409.53L182.591 408.417L126.977 352.041L125.849 353.154ZM93.6823 385.657L126.967 353.164L125.86 352.03L92.5751 384.522L93.6823 385.657ZM149.33 440.932L93.6929 384.533L92.5645 385.646L148.202 442.045L149.33 440.932ZM152.526 441.105C151.587 441.874 150.199 441.813 149.33 440.932L148.202 442.045C149.65 443.514 151.963 443.614 153.53 442.331L152.526 441.105ZM152.326 443.509L153.581 442.286L152.475 441.151L151.22 442.374L152.326 443.509ZM209.158 497.819L152.327 442.374L151.22 443.509L208.051 498.954L209.158 497.819ZM228.148 505.548C221.052 505.548 214.237 502.774 209.158 497.819L208.051 498.954C213.426 504.198 220.638 507.133 228.148 507.133V505.548ZM247.376 497.583C242.276 502.683 235.36 505.548 228.148 505.548V507.133C235.78 507.133 243.1 504.101 248.497 498.704L247.376 497.583ZM270.086 474.873L247.376 497.583L248.497 498.704L271.207 475.994L270.086 474.873ZM245.617 448.39L270.054 475.959L271.24 474.908L246.804 447.339L245.617 448.39ZM290.478 493.133L246.784 447.317L245.637 448.411L289.331 494.227L290.478 493.133ZM298.447 493.195C296.249 495.428 292.64 495.4 290.478 493.133L289.331 494.227C292.111 497.141 296.751 497.178 299.576 494.307L298.447 493.195ZM359.465 431.192L298.447 493.195L299.576 494.307L360.595 432.304L359.465 431.192ZM419.613 490.881L360.594 431.191L359.467 432.305L418.486 491.996L419.613 490.881ZM427.537 490.847C425.371 493.075 421.798 493.091 419.613 490.881L418.486 491.996C421.295 494.837 425.889 494.817 428.673 491.951L427.537 490.847ZM500.265 416.001L427.537 490.847L428.673 491.951L501.401 417.105L500.265 416.001ZM500.177 408.18C502.351 410.319 502.39 413.813 500.265 416.001L501.401 417.105C504.134 414.292 504.084 409.801 501.288 407.05L500.177 408.18ZM465.723 374.285L500.177 408.18L501.288 407.05L466.834 373.155L465.723 374.285ZM469.043 363.51C468.823 367.133 467.593 370.476 465.63 373.264L466.926 374.176C469.054 371.155 470.387 367.531 470.625 363.606L469.043 363.51ZM463.85 349.295C467.48 353.106 469.361 358.256 469.043 363.51L470.625 363.606C470.97 357.912 468.932 352.332 464.998 348.201L463.85 349.295ZM459.329 344.548L463.85 349.295L464.998 348.201L460.477 343.454L459.329 344.548ZM452.837 339.232C455.205 340.724 457.387 342.508 459.329 344.548L460.477 343.454C458.444 341.32 456.16 339.453 453.682 337.891L452.837 339.232ZM528.956 260.132L452.693 338.007L453.825 339.116L530.089 261.241L528.956 260.132ZM537.666 296.136L530.298 260.526L528.746 260.847L536.114 296.457L537.666 296.136ZM540.319 303.535C539.092 301.205 538.199 298.714 537.666 296.136L536.114 296.457C536.677 299.181 537.621 301.812 538.916 304.273L540.319 303.535ZM540.6 304.07L540.319 303.535L538.916 304.273L539.198 304.808L540.6 304.07ZM557.796 317.572C550.403 315.724 544.149 310.813 540.6 304.07L539.198 304.808C542.957 311.95 549.581 317.152 557.411 319.109L557.796 317.572ZM565.461 318.345C562.882 318.458 560.3 318.198 557.796 317.572L557.411 319.109C560.064 319.773 562.798 320.049 565.53 319.929L565.461 318.345ZM642.722 314.957L565.461 318.345L565.53 319.929L642.792 316.54L642.722 314.957ZM660.157 311.616C654.539 313.571 648.665 314.696 642.722 314.957L642.792 316.54C648.889 316.273 654.914 315.118 660.678 313.113L660.157 311.616ZM665.874 309.628L660.157 311.616L660.678 313.113L666.394 311.125L665.874 309.628ZM672.859 305.831C670.753 307.469 668.394 308.752 665.874 309.628L666.394 311.125C669.077 310.192 671.59 308.826 673.832 307.082L672.859 305.831ZM675.834 303.518L672.859 305.831L673.832 307.082L676.807 304.769L675.834 303.518ZM671.731 266.018C686.635 273.091 688.856 293.389 675.834 303.518L676.807 304.769C690.761 293.916 688.381 272.165 672.411 264.586L671.731 266.018ZM648.23 268.866C654.857 263.459 664.005 262.351 671.731 266.018L672.411 264.586C664.131 260.657 654.329 261.844 647.228 267.638L648.23 268.866ZM640.639 275.058L648.23 268.866L647.228 267.638L639.637 273.83L640.639 275.058ZM614.269 283.86C623.839 284.243 633.218 281.112 640.639 275.058L639.637 273.83C632.516 279.64 623.516 282.644 614.332 282.277L614.269 283.86ZM569.385 282.065L614.269 283.86L614.332 282.277L569.448 280.481L569.385 282.065ZM560.755 246.737L568.644 281.449L570.189 281.097L562.3 246.386L560.755 246.737ZM576.166 242.28L561.345 245.791L561.71 247.333L576.531 243.823L576.166 242.28ZM577.992 239.839C578.054 240.987 577.285 242.015 576.166 242.28L576.531 243.823C578.397 243.381 579.678 241.667 579.575 239.753L577.992 239.839ZM575.287 189.794L577.992 239.839L579.575 239.753L576.87 189.709L575.287 189.794ZM576.566 183.632L575.303 189.587L576.853 189.916L578.117 183.961L576.566 183.632ZM574.744 181.192L576.673 184.222L578.01 183.371L576.081 180.341L574.744 181.192ZM577.816 181.578L575.888 180.132L574.937 181.4L576.865 182.846L577.816 181.578ZM578.928 152.826L576.551 182.148L578.13 182.276L580.508 152.954L578.928 152.826ZM596.176 122.019C585.456 128.616 578.925 140.303 578.925 152.89H580.51C580.51 140.853 586.755 129.678 597.007 123.369L596.176 122.019ZM599.907 119.723L596.176 122.019L597.007 123.369L600.738 121.073L599.907 119.723ZM582.526 105.879L599.801 120.994L600.845 119.801L583.57 104.686L582.526 105.879ZM574.252 97.8721C576.871 100.674 579.632 103.346 582.526 105.879L583.57 104.686C580.716 102.189 577.992 99.5527 575.409 96.7898L574.252 97.8721ZM620.915 136.867L575.354 96.7363L574.307 97.9256L619.868 138.057L620.915 136.867ZM625.029 137.041C623.789 137.96 622.074 137.888 620.915 136.867L619.868 138.057C621.588 139.571 624.132 139.679 625.973 138.314L625.029 137.041ZM660.902 110.454L625.029 137.041L625.973 138.314L661.846 111.728L660.902 110.454ZM662.46 104.916C663.263 106.902 662.623 109.179 660.902 110.454L661.846 111.728C664.147 110.022 665.003 106.977 663.929 104.322L662.46 104.916ZM656.058 89.0942L662.46 104.916L663.929 104.322L657.528 88.4997L656.058 89.0942ZM655.841 83.3241C655.237 85.2138 655.314 87.2552 656.058 89.0942L657.528 88.4997C656.922 87.0039 656.86 85.3435 657.351 83.8065L655.841 83.3241ZM657.682 77.5625L655.841 83.3241L657.351 83.8065L659.192 78.0449L657.682 77.5625ZM659.938 67.2229C659.515 70.7166 658.763 74.1788 657.682 77.5625L659.192 78.0449C660.303 74.5656 661.077 71.0056 661.511 67.4132L659.938 67.2229ZM679.987 68.4478L660.803 66.5295L660.646 68.1066L679.829 70.025L679.987 68.4478ZM680.626 67.0989C681.152 67.6255 680.728 68.522 679.987 68.4478L679.829 70.025C682.052 70.2473 683.326 67.5581 681.747 65.9782L680.626 67.0989ZM671.39 57.863L680.626 67.0989L681.747 65.9782L672.511 56.7423L671.39 57.863ZM670.771 56.782C670.877 57.191 671.091 57.5642 671.39 57.8631L672.511 56.7422C672.411 56.6426 672.34 56.5183 672.304 56.382L670.771 56.782ZM661.474 21.1468L670.771 56.782L672.304 56.382L663.008 20.7467L661.474 21.1468ZM661.348 20.9681C661.41 21.0102 661.455 21.0738 661.474 21.1468L663.008 20.7466C662.892 20.3004 662.616 19.9119 662.234 19.654L661.348 20.9681ZM587.726 2.96879C613.627 0.00865958 639.734 6.3914 661.348 20.9681L662.234 19.654C640.307 4.86623 613.822 -1.60894 587.546 1.39406L587.726 2.96879ZM573.311 4.6162L587.726 2.96879L587.546 1.39406L573.131 3.04148L573.311 4.6162ZM572.83 4.8904C572.946 4.73714 573.12 4.63804 573.311 4.61621L573.131 3.04147C572.509 3.11252 571.944 3.43505 571.566 3.93402L572.83 4.8904ZM551.307 33.3316L572.83 4.89043L571.566 3.93399L550.043 32.3752L551.307 33.3316ZM550.233 34.1278C550.66 33.9706 551.033 33.6943 551.307 33.3317L550.043 32.3751C549.952 32.4961 549.828 32.5882 549.685 32.6406L550.233 34.1278ZM540.022 37.89L550.233 34.1278L549.685 32.6406L539.474 36.4028L540.022 37.89ZM540.063 39.3913C539.338 39.1689 539.31 38.1523 540.022 37.89L539.474 36.4028C537.338 37.1897 537.422 40.2393 539.598 40.9067L540.063 39.3913ZM553.504 91.4511C548.633 97.5664 543.256 103.245 537.438 108.43L538.493 109.614C544.378 104.369 549.816 98.6244 554.743 92.4386L553.504 91.4511ZM539.389 111.554C545.901 106.355 551.179 99.7711 554.835 92.293L553.411 91.5967C549.858 98.8642 544.729 105.263 538.4 110.315L539.389 111.554ZM537.253 109.368L538.182 111.281L539.607 110.589L538.678 108.676L537.253 109.368ZM100.334 318.909L0.820388 416.053L1.92755 417.187L101.441 320.043L100.334 318.909ZM101.774 318.906C101.372 318.517 100.734 318.518 100.334 318.909L101.441 320.043C101.227 320.252 100.886 320.252 100.671 320.045L101.774 318.906ZM119.339 335.904L101.774 318.906L100.671 320.045L118.237 337.043L119.339 335.904ZM126.414 352.597C126.414 346.304 123.861 340.281 119.339 335.904L118.237 337.043C122.45 341.121 124.829 346.734 124.829 352.597H126.414ZM92.8909 385.656L126.175 353.164L125.068 352.03L91.7837 384.522L92.8909 385.656ZM88.9076 383.508L91.8618 385.723L92.8128 384.455L89.8586 382.24L88.9076 383.508ZM89.5305 383.466C89.3617 383.632 89.0969 383.65 88.9075 383.508L89.8587 382.24C89.4212 381.912 88.8095 381.952 88.4194 382.336L89.5305 383.466ZM54.1531 418.234L89.5305 383.466L88.4195 382.336L53.0421 417.103L54.1531 418.234ZM28.6288 428.676C38.1769 428.676 47.3431 424.926 54.1531 418.234L53.0421 417.103C46.5285 423.504 37.7613 427.091 28.6288 427.091V428.676ZM8.42952 422.56C14.4113 426.548 21.4396 428.676 28.6288 428.676V427.091C21.7525 427.091 15.0301 425.056 9.30871 421.242L8.42952 422.56ZM0.962541 417.582L8.42952 422.56L9.30871 421.242L1.84173 416.264L0.962541 417.582ZM0.820395 416.053C0.370633 416.492 0.439584 417.234 0.96257 417.582L1.8417 416.264C2.15748 416.474 2.19911 416.922 1.92755 417.187L0.820395 416.053ZM214.854 619.068L232.08 624.641L232.568 623.133L215.342 617.56L214.854 619.068ZM213.623 618.874C214.041 618.874 214.457 618.939 214.854 619.068L215.342 617.56C214.787 617.38 214.207 617.289 213.623 617.289V618.874ZM213.297 618.874H213.623V617.289H213.297V618.874ZM209.624 622.547C209.624 620.518 211.269 618.874 213.297 618.874V617.289C210.393 617.289 208.039 619.643 208.039 622.547H209.624ZM211.556 625.781C210.366 625.14 209.624 623.898 209.624 622.547H208.039C208.039 624.481 209.101 626.259 210.804 627.176L211.556 625.781ZM225.376 633.222L211.556 625.781L210.804 627.176L224.625 634.618L225.376 633.222ZM234.536 636.375C231.332 635.828 228.238 634.763 225.376 633.222L224.625 634.618C227.638 636.24 230.896 637.362 234.269 637.938L234.536 636.375ZM250.986 639.184L234.536 636.375L234.269 637.938L250.719 640.746L250.986 639.184ZM273.165 641.064C265.732 641.064 258.313 640.435 250.986 639.184L250.719 640.746C258.134 642.012 265.643 642.649 273.165 642.649V641.064ZM556.568 641.064H273.165V642.649H556.568V641.064ZM578.748 638.984C571.436 640.367 564.01 641.064 556.568 641.064V642.649C564.109 642.649 571.633 641.943 579.042 640.541L578.748 638.984ZM593.432 636.206L578.748 638.984L579.042 640.541L593.727 637.763L593.432 636.206ZM599.977 633.887C597.927 634.991 595.72 635.773 593.432 636.206L593.727 637.763C596.174 637.3 598.536 636.464 600.729 635.283L599.977 633.887ZM614.424 626.108L599.977 633.887L600.729 635.283L615.175 627.504L614.424 626.108ZM615.943 622.279C616.435 623.755 615.794 625.371 614.424 626.108L615.175 627.504C617.224 626.401 618.182 623.984 617.446 621.777L615.943 622.279ZM614.338 620.428C615.097 620.808 615.674 621.473 615.943 622.278L617.446 621.777C617.045 620.573 616.182 619.578 615.047 619.01L614.338 620.428ZM613.602 620.06L614.338 620.428L615.047 619.01L614.31 618.642L613.602 620.06ZM609.153 619.969C610.574 619.33 612.208 619.363 613.602 620.06L614.31 618.642C612.491 617.732 610.358 617.689 608.502 618.524L609.153 619.969ZM599.058 624.512L609.153 619.969L608.502 618.524L598.407 623.067L599.058 624.512ZM592.303 626.638C594.631 626.197 596.898 625.484 599.058 624.512L598.407 623.067C596.361 623.987 594.213 624.663 592.009 625.08L592.303 626.638ZM579.345 629.089L592.303 626.638L592.009 625.08L579.051 627.532L579.345 629.089ZM553.062 631.554C561.881 631.554 570.68 630.729 579.345 629.089L579.051 627.532C570.483 629.153 561.782 629.969 553.062 629.969V631.554ZM279.398 631.554H553.062V629.969H279.398V631.554ZM254 629.582C262.402 630.894 270.893 631.554 279.398 631.554V629.969C270.975 629.969 262.566 629.316 254.244 628.016L254 629.582ZM250.548 629.042L254 629.582L254.244 628.016L250.792 627.476L250.548 629.042ZM232.08 624.641C238.11 626.592 244.285 628.064 250.548 629.042L250.792 627.476C244.613 626.511 238.519 625.058 232.568 623.133L232.08 624.641ZM457.823 479.06L449.539 470.139L448.378 471.218L456.661 480.138L457.823 479.06ZM457.801 484.475C459.233 482.957 459.243 480.589 457.823 479.06L456.661 480.138C457.513 481.056 457.508 482.477 456.649 483.388L457.801 484.475ZM420.213 524.319L457.801 484.475L456.649 483.388L419.06 523.231L420.213 524.319ZM420.838 523.904L420.217 523.236L419.056 524.314L419.676 524.983L420.838 523.904ZM417.871 525.841C418.473 525.246 419.31 525.039 420.079 525.216L420.435 523.671C419.16 523.378 417.762 523.721 416.757 524.714L417.871 525.841ZM351.966 590.989L417.871 525.841L416.757 524.714L350.852 589.862L351.966 590.989ZM349.077 591.136L351.381 591.217L351.437 589.633L349.133 589.552L349.077 591.136ZM342.765 607.564C342.765 601.315 345.247 595.323 349.665 590.905L348.544 589.784C343.829 594.499 341.18 600.895 341.18 607.564H342.765ZM342.765 629.969V607.564H341.18V629.969H342.765ZM482.044 629.176H341.972V630.761H482.044V629.176ZM481.429 629.897C481.369 629.519 481.661 629.176 482.044 629.176V630.761C482.636 630.761 483.088 630.231 482.994 629.647L481.429 629.897ZM480.111 621.656L481.429 629.897L482.994 629.647L481.676 621.406L480.111 621.656ZM470.017 602.995C475.401 607.89 478.961 614.47 480.111 621.656L481.676 621.406C480.469 613.865 476.734 606.959 471.083 601.822L470.017 602.995ZM449.575 594.675C457.158 594.942 464.402 597.89 470.017 602.995L471.083 601.822C465.19 596.465 457.589 593.371 449.63 593.091L449.575 594.675ZM416.46 593.509L449.575 594.675L449.63 593.091L416.516 591.925L416.46 593.509ZM449.362 559.449L415.934 592.15L417.042 593.283L450.471 560.582L449.362 559.449ZM449.983 557.085C450.22 557.902 450.009 558.816 449.362 559.449L450.471 560.582C451.55 559.526 451.899 558.001 451.505 556.644L449.983 557.085ZM508.647 499.266L450.191 556.297L451.297 557.432L509.754 500.401L508.647 499.266ZM515.443 484.786C515.004 490.276 512.589 495.42 508.647 499.266L509.754 500.4C513.971 496.287 516.553 490.784 517.023 484.913L515.443 484.786ZM508.669 466.697C513.5 471.423 515.982 478.05 515.443 484.786L517.023 484.913C517.599 477.708 514.945 470.619 509.778 465.564L508.669 466.697ZM480.104 438.753L508.669 466.697L509.778 465.564L481.212 437.62L480.104 438.753ZM449.526 471.232L481.225 438.74L480.091 437.633L448.391 470.125L449.526 471.232ZM544.87 651.03C549.631 654.144 552.773 659.521 552.773 665.631H554.358C554.358 658.964 550.927 653.098 545.738 649.703L544.87 651.03ZM548.09 642.321L544.582 650.039L546.025 650.694L549.533 642.977L548.09 642.321ZM521.867 643.441H548.812V641.856H521.867V643.441ZM525.557 650.478L522.612 642.378L521.122 642.92L524.068 651.019L525.557 650.478ZM517.904 665.631C517.904 659.753 520.812 654.555 525.271 651.395L524.354 650.102C519.494 653.546 516.319 659.218 516.319 665.631H517.904ZM535.339 683.066C525.71 683.066 517.904 675.26 517.904 665.631H516.319C516.319 676.135 524.834 684.651 535.339 684.651V683.066ZM552.773 665.631C552.773 675.26 544.968 683.066 535.339 683.066V684.651C545.843 684.651 554.358 676.135 554.358 665.631H552.773ZM302.368 651.03C307.129 654.144 310.271 659.521 310.271 665.631H311.856C311.856 658.964 308.425 653.098 303.236 649.703L302.368 651.03ZM310.271 665.631C310.271 675.26 302.466 683.066 292.837 683.066V684.651C303.341 684.651 311.856 676.135 311.856 665.631H310.271ZM292.837 683.066C283.208 683.066 275.402 675.26 275.402 665.631H273.817C273.817 676.135 282.332 684.651 292.837 684.651V683.066ZM275.402 665.631C275.402 659.753 278.31 654.555 282.769 651.395L281.852 650.102C276.992 653.546 273.817 659.218 273.817 665.631H275.402ZM283.055 650.478L280.11 642.378L278.62 642.92L281.566 651.019L283.055 650.478ZM279.365 643.441H306.31V641.856H279.365V643.441ZM305.588 642.321L302.08 650.039L303.523 650.694L307.031 642.977L305.588 642.321Z" fill="#3656FF"/>
</svg>
