<svg width="1339" height="796" viewBox="0 0 1339 796" fill="none" xmlns="http://www.w3.org/2000/svg">
<mask id="mask0_405_45765" style="mask-type:alpha" maskUnits="userSpaceOnUse" x="0" y="0" width="1339" height="796">
<path d="M0 30C0 13.4315 13.4315 0 30 0H1308.46C1325.03 0 1338.46 13.4315 1338.46 30V199V440C1338.46 456.569 1325.03 470 1308.46 470H884C867.431 470 854 483.431 854 500V657.5V766C854 782.569 840.569 796 824 796H669.23H29.9999C13.4314 796 0 782.569 0 766V30Z" fill="#EDE7FF"/>
</mask>
<g mask="url(#mask0_405_45765)">
<path d="M358.074 656.999H376.8C380.39 656.999 383.97 657.375 387.481 658.119L390.811 658.826C397.056 660.15 402.915 663.061 407.763 667.216C415.275 673.656 420.033 682.85 420.881 692.708C422.603 712.724 408.349 730.582 388.449 733.341L379.673 734.557C372.306 735.578 364.801 734.84 357.774 732.402L341.545 726.771L321.153 718.135C303.793 710.782 285.132 706.993 266.279 706.993C229.991 706.993 194.041 700.022 160.383 686.458L137.722 677.326L163.543 642.166H204.747L305.834 651.505L320.867 653.969C333.167 655.986 345.61 656.999 358.074 656.999Z" fill="#3D3AA9"/>
<path d="M195.712 672.716L200.5 679L209.5 666.5L206 618.5L192.5 601L184.5 603L171 608L176.934 612.997C179.283 614.975 182.035 616.418 184.997 617.226C185.633 617.4 186.161 617.844 186.44 618.442L187.964 621.71C188.914 623.744 188.698 626.131 187.399 627.961L178.5 640.5C182.474 652.091 188.286 662.969 195.712 672.716Z" fill="#3D3AA9"/>
<path d="M789.844 686.666L792.979 668.409C797.109 644.362 803.227 620.7 811.271 597.665L676.671 574.591L634.917 609.202C683.865 656.324 727.945 708.542 766.221 764.679C776.049 746.114 782.907 726.124 786.544 705.436L789.844 686.666Z" fill="#3D3AA9"/>
<path d="M118.434 570.023L143.765 565.801L178.926 622.937L166.282 626.341C155.711 629.187 145.556 633.399 136.074 638.869L90.4748 576.788C99.6193 573.862 108.963 571.601 118.434 570.023Z" fill="#3D3AA9"/>
<path d="M30.5821 642.443L31.6904 642.166L36.6349 654.801H32.9855C31.4359 654.801 29.9324 654.274 28.7223 653.306L28.2872 652.958C26.3624 651.418 25.574 648.858 26.2989 646.502C26.9174 644.493 28.5421 642.953 30.5821 642.443Z" fill="#3D3AA9"/>
<path d="M28.5481 666.927L36.6349 661.394L55.5984 662.853C57.1971 662.976 58.713 663.613 59.9197 664.669L60.4582 665.14C61.7278 666.251 62.4561 667.856 62.4561 669.543C62.4561 671.923 61.0134 674.067 58.8077 674.963L44.8757 680.623H35.0119C32.8657 680.623 30.7875 679.87 29.1387 678.496L28.0433 677.583C26.2189 676.063 25.3377 673.689 25.7281 671.347C26.0274 669.551 27.0457 667.955 28.5481 666.927Z" fill="#3D3AA9"/>
<path d="M38.6139 697.104H46.1046C48.2032 697.104 50.2897 696.786 52.2928 696.16L62.485 692.975C65.0825 692.163 66.8512 689.757 66.8512 687.036C66.8512 686.07 66.6263 685.117 66.1943 684.253L65.8518 683.568C63.8677 679.6 59.3937 677.542 55.0896 678.619L47.0732 680.623L32.4993 681.664C31.9628 681.702 31.4347 681.817 30.9311 682.006C28.7441 682.826 27.2953 684.917 27.2953 687.253V688.099C27.2953 690.302 28.3596 692.371 30.1529 693.652L32.0351 694.996C33.9548 696.367 36.2549 697.104 38.6139 697.104Z" fill="#3D3AA9"/>
<path d="M46.05 714.981L52.7546 713.384C53.727 713.153 54.6803 712.848 55.6064 712.471L65.9923 708.252C69.3037 706.907 71.0879 703.299 70.1475 699.851C69.2211 696.454 65.813 694.364 62.3653 695.077L52.5671 697.104L37.2538 698.125C36.4826 698.177 35.7295 698.381 35.0382 698.727C33.603 699.444 32.5277 700.723 32.0666 702.26L31.7472 703.324C30.4784 707.554 32.7042 712.043 36.8388 713.594L39.4327 714.566C41.5481 715.36 43.8521 715.504 46.05 714.981Z" fill="#3D3AA9"/>
<path d="M56.1111 740.89L62.4561 736.66L77.2895 749.296L69.9529 756.283C67.2564 758.851 63.6754 760.284 59.9517 760.284H56.1515C53.8995 760.284 51.7834 759.206 50.4588 757.385C49.0356 755.428 48.7173 752.877 49.616 750.631L50.9852 747.207C52.0155 744.632 53.8028 742.429 56.1111 740.89Z" fill="#3D3AA9"/>
<path d="M818.157 597.651L751.863 594.237C711.203 592.143 670.415 597.18 631.478 609.078C631.213 609.159 630.93 609.164 630.662 609.091L609.248 603.326C585.935 597.049 561.613 595.426 537.673 598.549C528.167 599.789 518.772 601.77 509.575 604.475L467.354 616.893L465.138 617.504C441.424 624.033 417.032 627.787 392.452 628.689L339.246 630.642C319.859 631.353 300.979 637.023 284.408 647.109L233.564 681.383C218.154 691.77 200.921 699.154 182.772 703.147C186.752 690.482 187.911 677.098 186.167 663.937L185.449 658.524C183.678 645.157 179.581 632.204 173.344 620.25L144.575 565.109C143.879 563.775 144.604 562.141 146.059 561.761L191.562 549.868L350.884 514.158L429.447 492.732L560.201 441.089L624.557 418.141C628.893 416.594 633.099 414.706 637.136 412.492C655.209 402.581 669.163 386.561 676.501 367.299L676.853 366.375C680.728 356.203 682.714 345.411 682.714 334.527V286.58C682.714 281.93 683.376 277.304 684.681 272.841C689.875 255.073 684.605 235.895 671.062 223.275L668.979 221.335L609.645 162.001L608.076 146.934C607.306 139.54 608.577 132.076 611.752 125.353C614.694 119.121 619.172 113.74 624.765 109.713L629.973 105.963H655.794L687.109 109.809L718.163 111.774C726.08 112.276 733.489 115.848 738.811 121.73C740.232 123.301 741.814 124.719 743.53 125.962L748.193 129.339C753.925 133.49 760.442 136.431 767.346 137.985C774.924 139.69 782.026 143.065 788.134 147.864L799.597 156.87C806.171 162.036 811.317 168.796 814.546 176.509C817.801 184.286 818.998 192.77 818.021 201.145L817.257 207.697C816.209 216.675 817.182 225.774 820.103 234.328C822.257 240.639 823.357 247.262 823.357 253.931V372.704C823.357 376.865 824.187 380.985 825.798 384.821L832.066 399.744C833.742 403.734 832.581 408.351 829.217 411.074C825.768 413.866 824.645 418.639 826.488 422.676L833.459 437.946C834.413 440.035 835.135 442.223 835.611 444.469L836.223 447.352C837.883 455.179 841.14 462.58 845.791 469.091L857.216 485.086C859.524 488.318 861.145 491.988 861.977 495.871C863.297 502.034 862.575 508.46 859.919 514.176L841.626 553.545C839.768 557.545 836.498 560.718 832.444 562.455C826.789 564.879 822.775 570.038 821.815 576.115L818.453 597.412C818.43 597.555 818.302 597.659 818.157 597.651Z" fill="#3D3AA9"/>
<path d="M614.041 157.606H596.46H580.528L578.33 117.5L591.516 73.0001L611.294 92.2286L636.016 108.71L614.041 157.606Z" fill="#3D3AA9"/>
<path d="M571.324 183.513L580.984 180.663C594.233 176.753 605.842 168.619 614.041 157.5L599.596 153.236C594.773 151.812 590.713 148.534 588.305 144.12C586.461 140.738 585.688 136.875 586.092 133.043L587.038 124.056C587.457 120.07 588.413 116.159 589.878 112.428C592.401 106.008 593.398 99.0907 592.791 92.2199L592.065 83.9878L604.154 82.128C605.613 81.9036 607.041 81.5135 608.411 80.9654C610.679 80.0584 612.755 78.7317 614.53 77.0549L617.81 73.9569C620.314 71.5928 621.732 68.302 621.732 64.859V61.7154C621.732 57.9889 619.262 54.7139 615.679 53.6901C614.598 53.3813 613.466 53.294 612.35 53.4334L599.241 55.072C597.453 55.2956 595.814 56.1834 594.65 57.5594C592.252 60.3931 588.09 60.9326 585.049 58.8039L578.318 54.0921C575.472 52.1001 573.342 49.2454 572.244 45.95L569.144 36.6493C568.311 34.151 567.264 31.729 566.016 29.4102L564.046 25.7528L545.367 -5.01289L533.513 -20.059C531.943 -22.0513 529.724 -23.4289 527.242 -23.9514C523.203 -24.8015 519.033 -23.2811 516.49 -20.0313L512.355 -14.7478C511.293 -13.3904 510.397 -11.9106 509.686 -10.3401L507.021 -4.44742C502.603 5.31855 500.318 15.9142 500.318 26.633V31.7782C500.318 47.2861 504.247 62.5413 511.738 76.1197C515.825 83.5271 518.868 91.4639 520.781 99.7048L525.04 118.05L529.566 142.736C530.571 148.217 532.467 153.496 535.18 158.364L542.678 171.815C547.051 179.662 555.331 184.526 564.314 184.526C566.687 184.526 569.048 184.185 571.324 183.513Z" fill="#3D3AA9"/>
<path d="M597.559 600.412L574.121 602.666C571.212 602.945 568.991 605.39 568.991 608.313C568.991 610.238 568.015 612.031 566.399 613.077L554.005 621.096C551.554 622.682 549.325 624.589 547.378 626.765L535.571 639.961C533.001 642.833 531.325 646.393 530.748 650.203C529.609 657.718 524.272 663.919 517.01 666.163L505.663 669.671C501.165 671.061 496.309 670.714 492.054 668.699C489.537 667.506 486.786 666.888 484.001 666.888H481.234C479.31 666.888 477.39 667.066 475.5 667.421L469.402 668.564C457.942 670.713 446.138 670.139 434.94 666.888L409.119 657.548L389.351 651.652C382.201 649.52 374.457 651.347 369.014 656.449H373.409C376.997 656.449 380.511 657.473 383.538 659.399L398.35 668.825C401.439 670.79 403.913 673.583 405.493 676.886C407.808 681.727 408.032 687.306 406.113 692.317L400.273 707.567C399.584 709.367 399.23 711.278 399.23 713.205C399.23 721.911 392.173 728.969 383.466 728.969H377.804L349.785 730.067L353.426 735.892C365.099 754.568 384.138 767.424 405.823 771.271C426.522 777.808 445.837 788.108 462.799 801.653L667.038 964.761C671.675 968.464 677.871 969.566 683.5 967.69C687.259 966.437 690.483 963.945 692.642 960.622L699.501 950.07C702.214 945.896 704.331 941.364 705.792 936.605L714.879 906.988C716.986 900.121 723.328 895.433 730.511 895.433H764.993C771.932 895.433 778.767 893.735 784.9 890.488L805.149 879.543C805.197 879.517 805.227 879.466 805.227 879.411V877.819C805.227 864.722 803.37 851.691 799.712 839.116C797.533 831.624 794.724 824.33 791.317 817.311L768.968 771.271L735.455 720.178L699.196 668.536L648.652 614.147C638.002 605.272 624.579 600.412 610.716 600.412H597.559Z" fill="#3D3AA9"/>
<path d="M65.203 564.153L71.9392 562.709C82.0915 560.534 92.6453 563.784 99.8144 571.295L128.382 607.005L149.259 627.882L160.732 637.92C161.849 638.898 163.227 639.53 164.698 639.741C170.538 640.575 173.289 647.415 169.653 652.061L167.938 654.252L157.15 666.309C151.96 672.11 145.499 676.633 138.271 679.524C138.271 690.132 139.035 700.726 140.557 711.224L143.765 733.364L148.311 762.911C148.927 766.916 148.258 771.014 146.399 774.615C142.816 781.559 135.375 785.631 127.594 784.907L121.864 784.374C118.545 784.066 115.31 783.16 112.313 781.703L104.791 778.043C99.2969 775.37 94.157 772.025 89.4893 768.083L87.3106 766.243C77.0793 757.604 68.7582 746.929 62.8767 734.898L59.7091 728.419L36.0855 660.295L26.1965 614.147C25.2277 591.866 39.541 571.782 60.9186 565.426L65.203 564.153Z" fill="#3D3AA9"/>
<mask id="mask1_405_45765" style="mask-type:alpha" maskUnits="userSpaceOnUse" x="42" y="-48" width="839" height="995">
<path d="M375.514 634.339H394.24C397.829 634.339 401.41 634.715 404.921 635.46L408.251 636.166C414.496 637.491 420.355 640.402 425.203 644.557C432.715 650.996 437.473 660.19 438.321 670.048C440.042 690.064 425.788 707.922 405.889 710.681L397.113 711.897C389.746 712.918 382.241 712.18 375.214 709.742L358.985 704.111L338.593 695.475C321.232 688.122 302.572 684.333 283.719 684.333C247.431 684.333 211.481 677.362 177.823 663.799L155.162 654.667L180.983 619.506H222.187L323.274 628.845L338.307 631.31C350.607 633.326 363.05 634.339 375.514 634.339Z" fill="#AF562D" stroke="#A8A8A8" stroke-width="1.09877"/>
<path d="M807.284 664.006L810.419 645.749C814.549 621.702 820.667 598.04 828.71 575.005L694.111 551.931L652.357 586.543C701.305 633.664 745.385 685.882 783.661 742.019C793.489 723.455 800.347 703.464 803.984 682.776L807.284 664.006Z" fill="#AF562D" stroke="#A8A8A8" stroke-width="1.09877"/>
<path d="M135.874 547.363L161.205 543.141L196.366 600.277L183.722 603.681C173.151 606.527 162.996 610.739 153.514 616.209L107.915 554.129C117.059 551.202 126.403 548.941 135.874 547.363Z" fill="#AF562D" stroke="#A8A8A8" stroke-width="1.09877"/>
<path d="M48.0221 619.783L49.1303 619.506L54.0748 632.142H50.4255C48.8758 632.142 47.3723 631.614 46.1622 630.646L45.7271 630.298C43.8023 628.758 43.014 626.199 43.7389 623.843C44.3573 621.833 45.982 620.293 48.0221 619.783Z" fill="#AF562D"/>
<path d="M45.9881 644.267L54.0748 638.734L73.0384 640.193C74.637 640.316 76.153 640.953 77.3596 642.009L77.8981 642.48C79.1678 643.591 79.896 645.196 79.896 646.883C79.896 649.264 78.4533 651.407 76.2476 652.303L62.3156 657.963H52.4519C50.3057 657.963 48.2274 657.21 46.5787 655.836L45.4832 654.924C43.6588 653.403 42.7776 651.029 43.168 648.687C43.4673 646.891 44.4857 645.295 45.9881 644.267Z" fill="#AF562D"/>
<path d="M56.0539 674.444H63.5446C65.6432 674.444 67.7297 674.126 69.7327 673.5L79.9249 670.315C82.5225 669.503 84.2911 667.098 84.2911 664.376C84.2911 663.41 84.0662 662.458 83.6342 661.594L83.2918 660.909C81.3077 656.94 76.8337 654.883 72.5295 655.959L64.5132 657.963L49.9392 659.004C49.4028 659.042 48.8746 659.157 48.371 659.346C46.1841 660.166 44.7352 662.257 44.7352 664.593V665.439C44.7352 667.643 45.7996 669.711 47.5929 670.992L49.4751 672.336C51.3947 673.707 53.6948 674.444 56.0539 674.444Z" fill="#AF562D"/>
<path d="M63.49 692.321L70.1945 690.724C71.1669 690.493 72.1202 690.188 73.0463 689.812L83.4322 685.592C86.7437 684.247 88.5279 680.64 87.5874 677.191C86.661 673.795 83.253 671.704 79.8052 672.417L70.007 674.444L54.6937 675.465C53.9226 675.517 53.1694 675.721 52.4782 676.067C51.0429 676.784 49.9677 678.063 49.5066 679.6L49.1872 680.664C47.9183 684.894 50.1441 689.383 54.2788 690.934L56.8726 691.907C58.9881 692.7 61.2921 692.844 63.49 692.321Z" fill="#AF562D"/>
<path d="M73.551 718.23L79.896 714L94.7295 726.636L87.3928 733.623C84.6963 736.192 81.1153 737.624 77.3917 737.624H73.5915C71.3394 737.624 69.2234 736.546 67.8988 734.725C66.4756 732.768 66.1573 730.217 67.0559 727.971L68.4252 724.548C69.4555 721.972 71.2427 719.769 73.551 718.23Z" fill="#AF562D"/>
<path d="M48.0221 619.783L49.1303 619.506L54.0748 632.142H50.4255C48.8758 632.142 47.3723 631.614 46.1622 630.646L45.7271 630.298C43.8023 628.758 43.014 626.199 43.7389 623.843C44.3573 621.833 45.982 620.293 48.0221 619.783Z" stroke="#A8A8A8" stroke-width="1.09877"/>
<path d="M45.9881 644.267L54.0748 638.734L73.0384 640.193C74.637 640.316 76.153 640.953 77.3596 642.009L77.8981 642.48C79.1678 643.591 79.896 645.196 79.896 646.883C79.896 649.264 78.4533 651.407 76.2476 652.303L62.3156 657.963H52.4519C50.3057 657.963 48.2274 657.21 46.5787 655.836L45.4832 654.924C43.6588 653.403 42.7776 651.029 43.168 648.687C43.4673 646.891 44.4857 645.295 45.9881 644.267Z" stroke="#A8A8A8" stroke-width="1.09877"/>
<path d="M56.0539 674.444H63.5446C65.6432 674.444 67.7297 674.126 69.7327 673.5L79.9249 670.315C82.5225 669.503 84.2911 667.098 84.2911 664.376C84.2911 663.41 84.0662 662.458 83.6342 661.594L83.2918 660.909C81.3077 656.94 76.8337 654.883 72.5295 655.959L64.5132 657.963L49.9392 659.004C49.4028 659.042 48.8746 659.157 48.371 659.346C46.1841 660.166 44.7352 662.257 44.7352 664.593V665.439C44.7352 667.643 45.7996 669.711 47.5929 670.992L49.4751 672.336C51.3947 673.707 53.6948 674.444 56.0539 674.444Z" stroke="#A8A8A8" stroke-width="1.09877"/>
<path d="M63.49 692.321L70.1945 690.724C71.1669 690.493 72.1202 690.188 73.0463 689.812L83.4322 685.592C86.7437 684.247 88.5279 680.64 87.5874 677.191C86.661 673.795 83.253 671.704 79.8052 672.417L70.007 674.444L54.6937 675.465C53.9226 675.517 53.1694 675.721 52.4782 676.067C51.0429 676.784 49.9677 678.063 49.5066 679.6L49.1872 680.664C47.9183 684.894 50.1441 689.383 54.2788 690.934L56.8726 691.907C58.9881 692.7 61.2921 692.844 63.49 692.321Z" stroke="#A8A8A8" stroke-width="1.09877"/>
<path d="M73.551 718.23L79.896 714L94.7295 726.636L87.3928 733.623C84.6963 736.192 81.1153 737.624 77.3917 737.624H73.5915C71.3394 737.624 69.2234 736.546 67.8988 734.725C66.4756 732.768 66.1573 730.217 67.0559 727.971L68.4252 724.548C69.4555 721.972 71.2427 719.769 73.551 718.23Z" stroke="#A8A8A8" stroke-width="1.09877"/>
<path d="M835.597 574.992L769.303 571.577C728.643 569.483 687.855 574.521 648.918 586.418C648.653 586.499 648.37 586.504 648.102 586.432L626.688 580.666C603.375 574.39 579.053 572.766 555.112 575.889C545.606 577.129 536.212 579.111 527.015 581.815L484.794 594.233L482.578 594.844C458.864 601.374 434.472 605.127 409.892 606.029L356.686 607.982C337.299 608.693 318.419 614.363 301.848 624.45L251.004 658.723C235.594 669.11 218.361 676.494 200.212 680.487C204.192 667.822 205.351 654.439 203.607 641.278L202.889 635.864C201.118 622.497 197.021 609.544 190.784 597.59L162.015 542.449C161.319 541.116 162.043 539.481 163.499 539.101L209.002 527.208L368.324 491.498L446.886 470.072L577.641 418.43L641.997 395.481C646.333 393.935 650.539 392.046 654.576 389.832C672.648 379.921 686.603 363.901 693.941 344.639L694.293 343.715C698.168 333.544 700.154 322.751 700.154 311.867V263.92C700.154 259.27 700.816 254.644 702.121 250.181C707.314 232.413 702.045 213.235 688.502 200.616L686.419 198.675L627.085 139.341L625.516 124.275C624.746 116.88 626.017 109.416 629.192 102.693C632.134 96.4616 636.612 91.08 642.205 87.0533L647.413 83.3035H673.234L704.549 87.1492L735.603 89.1146C743.52 89.6157 750.929 93.1879 756.251 99.0704C757.672 100.641 759.254 102.06 760.97 103.302L765.633 106.679C771.365 110.83 777.882 113.771 784.786 115.325C792.364 117.03 799.466 120.405 805.574 125.204L817.037 134.211C823.611 139.376 828.757 146.136 831.986 153.849C835.241 161.626 836.438 170.111 835.461 178.485L834.697 185.037C833.649 194.015 834.621 203.114 837.542 211.669C839.697 217.979 840.797 224.602 840.797 231.271V350.045C840.797 354.206 841.627 358.325 843.238 362.161L849.506 377.084C851.182 381.074 850.021 385.691 846.657 388.414C843.208 391.206 842.085 395.979 843.928 400.017L850.899 415.287C851.853 417.376 852.575 419.563 853.051 421.809L853.663 424.692C855.323 432.519 858.58 439.92 863.231 446.431L874.656 462.427C876.964 465.658 878.585 469.328 879.417 473.211C880.737 479.374 880.015 485.8 877.359 491.516L859.066 530.886C857.208 534.885 853.938 538.058 849.884 539.795C844.229 542.219 840.215 547.378 839.255 553.456L835.892 574.752C835.87 574.896 835.742 574.999 835.597 574.992Z" fill="#AF562D"/>
<path d="M631.481 134.946H613.9H597.968L595.77 94.8406L608.956 50.3403L628.734 69.5688L653.456 86.0504L631.481 134.946Z" fill="#AF562D" stroke="#A8A8A8" stroke-width="1.09877"/>
<path d="M588.764 160.853L604.814 156.117C613.888 153.44 621.756 147.707 627.085 139.89L614.633 131.718C611.266 129.509 608.496 126.504 606.568 122.969C604.187 118.604 603.191 113.619 603.712 108.675L604.478 101.396C604.897 97.4104 605.853 93.4991 607.318 89.7686C609.84 83.3487 610.838 76.4309 610.231 69.5601L609.505 61.328L621.594 59.4682C623.053 59.2438 624.481 58.8537 625.851 58.3056C628.119 57.3986 630.195 56.0719 631.97 54.3951L635.25 51.2971C637.753 48.933 639.172 45.6422 639.172 42.1992V39.0556C639.172 35.3291 636.702 32.0541 633.118 31.0303C632.038 30.7215 630.906 30.6342 629.79 30.7736L616.681 32.4122C614.893 32.6358 613.254 33.5237 612.09 34.8996C609.692 37.7333 605.53 38.2728 602.489 36.1441L595.757 31.4323C592.912 29.4403 590.782 26.5856 589.684 23.2902L586.584 13.9895C585.751 11.4912 584.704 9.06919 583.456 6.75045L581.486 3.09299L562.807 -27.6727L550.953 -42.7188C549.383 -44.7111 547.163 -46.0887 544.682 -46.6112C540.643 -47.4613 536.473 -45.9409 533.93 -42.6911L529.795 -37.4076C528.733 -36.0502 527.837 -34.5704 527.126 -32.9999L524.461 -27.1072C520.043 -17.3412 517.757 -6.74561 517.757 3.97319V9.11838C517.757 24.6263 521.687 39.8815 529.178 53.4599C533.265 60.8673 536.308 68.8041 538.221 77.045L542.48 95.39L547.006 120.076C548.01 125.557 549.907 130.836 552.62 135.704L560.118 149.155C564.491 157.002 572.77 161.866 581.754 161.866C584.127 161.866 586.488 161.525 588.764 160.853Z" fill="#AF562D" stroke="#B17136" stroke-width="1.09877"/>
<path d="M614.999 577.752L591.561 580.006C588.652 580.286 586.431 582.73 586.431 585.653C586.431 587.578 585.455 589.371 583.839 590.417L571.445 598.437C568.994 600.023 566.765 601.929 564.818 604.105L553.011 617.301C550.441 620.173 548.765 623.733 548.188 627.543C547.049 635.058 541.712 641.259 534.45 643.504L523.103 647.011C518.605 648.401 513.749 648.054 509.494 646.039C506.977 644.847 504.226 644.228 501.441 644.228H498.674C496.75 644.228 494.83 644.406 492.94 644.761L486.842 645.904C475.382 648.053 463.578 647.479 452.38 644.228L426.559 634.889L406.791 628.993C399.641 626.86 391.897 628.687 386.454 633.79H390.849C394.437 633.79 397.951 634.813 400.978 636.739L415.79 646.165C418.879 648.131 421.353 650.923 422.933 654.226C425.248 659.067 425.472 664.646 423.553 669.657L417.713 684.907C417.024 686.707 416.67 688.618 416.67 690.545C416.67 699.251 409.613 706.309 400.906 706.309H395.244L367.225 707.408L370.866 713.233C382.539 731.909 401.578 744.764 423.263 748.612C443.962 755.148 463.277 765.448 480.239 778.993L684.478 942.101C689.115 945.804 695.311 946.907 700.94 945.03C704.699 943.777 707.923 941.285 710.082 937.963L716.941 927.411C719.654 923.237 721.771 918.705 723.232 913.945L732.319 884.328C734.426 877.461 740.768 872.773 747.951 872.773H782.433C789.372 872.773 796.207 871.076 802.34 867.829L822.589 856.883C822.637 856.857 822.667 856.807 822.667 856.752V856.226C822.667 842.422 820.71 828.687 816.854 815.432C814.872 808.619 812.396 801.959 809.446 795.506L801.966 779.144C792.341 758.089 780.872 737.927 767.694 718.894L752.895 697.519L716.636 645.876L666.092 591.487C655.442 582.612 642.019 577.752 628.156 577.752H614.999Z" fill="#AF562D" stroke="#A8A8A8" stroke-width="1.09877"/>
<path d="M82.6429 541.493L89.3791 540.049C99.5314 537.874 110.085 541.124 117.254 548.635L145.822 584.345L166.699 605.222L178.172 615.26C179.289 616.238 180.667 616.871 182.138 617.081C187.978 617.915 190.729 624.755 187.093 629.401L185.378 631.592L174.59 643.65C169.4 649.451 162.939 653.973 155.711 656.864C155.711 667.472 156.475 678.066 157.997 688.564L161.205 710.704L165.751 740.251C166.367 744.256 165.698 748.354 163.839 751.955C160.255 758.899 152.815 762.971 145.034 762.247L139.304 761.714C135.985 761.406 132.75 760.501 129.753 759.043L122.231 755.383C116.737 752.71 111.597 749.365 106.929 745.423L104.751 743.583C94.5193 734.944 86.1982 724.269 80.3166 712.239L77.1491 705.759L53.5254 637.635L43.6364 591.487C42.6677 569.206 56.9809 549.122 78.3585 542.766L82.6429 541.493Z" fill="#AF562D" stroke="#B17136" stroke-width="1.09877"/>
<path d="M195.712 672.716L200.5 679L209.5 666.5L206 618.5L192.5 601L184.5 603L171 608L176.934 612.997C179.283 614.975 182.035 616.419 184.997 617.226C185.633 617.4 186.161 617.844 186.44 618.442L187.964 621.71C188.914 623.744 188.698 626.131 187.399 627.961L178.5 640.5C182.474 652.091 188.286 662.969 195.712 672.716Z" fill="#8A0060" stroke="black"/>
</mask>
<g mask="url(#mask1_405_45765)">
<path d="M375.514 634.339H394.24C397.829 634.339 401.41 634.714 404.921 635.459L408.251 636.165C414.496 637.49 420.355 640.401 425.203 644.556C432.715 650.996 437.473 660.19 438.321 670.048C440.042 690.064 425.788 707.922 405.889 710.68L397.113 711.897C389.746 712.918 382.241 712.179 375.214 709.741L358.985 704.111L338.593 695.474C321.232 688.122 302.572 684.333 283.719 684.333C247.431 684.333 211.481 677.362 177.823 663.798L155.162 654.666L180.983 619.505H222.187L323.274 628.845L338.307 631.309C350.607 633.326 363.05 634.339 375.514 634.339Z" fill="#FFBFA1" stroke="#FFBFA1" stroke-width="1.09877"/>
<g style="mix-blend-mode:color-burn">
<path d="M375.514 634.339H394.24C397.829 634.339 401.41 634.714 404.921 635.459L408.251 636.165C414.496 637.49 420.355 640.401 425.203 644.556C432.715 650.996 437.473 660.19 438.321 670.048C440.042 690.064 425.788 707.922 405.889 710.68L397.113 711.897C389.746 712.918 382.241 712.179 375.214 709.741L358.985 704.111L338.593 695.474C321.232 688.122 302.572 684.333 283.719 684.333C247.431 684.333 211.481 677.362 177.823 663.798L155.162 654.666L180.983 619.505H222.187L323.274 628.845L338.307 631.309C350.607 633.326 363.05 634.339 375.514 634.339Z" fill="url(#paint0_linear_405_45765)"/>
<path d="M375.514 634.339H394.24C397.829 634.339 401.41 634.714 404.921 635.459L408.251 636.165C414.496 637.49 420.355 640.401 425.203 644.556C432.715 650.996 437.473 660.19 438.321 670.048C440.042 690.064 425.788 707.922 405.889 710.68L397.113 711.897C389.746 712.918 382.241 712.179 375.214 709.741L358.985 704.111L338.593 695.474C321.232 688.122 302.572 684.333 283.719 684.333C247.431 684.333 211.481 677.362 177.823 663.798L155.162 654.666L180.983 619.505H222.187L323.274 628.845L338.307 631.309C350.607 633.326 363.05 634.339 375.514 634.339Z" stroke="#A8A8A8" stroke-width="1.09877"/>
</g>
<path d="M807.284 664.006L810.419 645.749C814.549 621.702 820.667 598.039 828.71 575.005L694.111 551.931L652.357 586.542C701.288 633.647 744.899 685.981 782.407 742.605L783 743.5C793.267 723.952 800.441 702.929 804.264 681.182L807.284 664.006Z" fill="#FFBFA1" stroke="#A8A8A8" stroke-width="1.09877"/>
<g style="mix-blend-mode:color-burn">
<path d="M807.284 664.006L810.419 645.749C814.549 621.702 820.667 598.039 828.71 575.005L694.111 551.931L652.357 586.542C701.282 633.642 745.226 686.731 782.5 743.5C793.093 723.962 800.456 702.839 804.305 680.95L807.284 664.006Z" fill="url(#paint1_linear_405_45765)"/>
<path d="M807.284 664.006L810.419 645.749C814.549 621.702 820.667 598.039 828.71 575.005L694.111 551.931L652.357 586.542C701.282 633.642 745.226 686.731 782.5 743.5C793.093 723.962 800.456 702.839 804.305 680.95L807.284 664.006Z" stroke="#A8A8A8" stroke-width="1.09877"/>
</g>
<g filter="url(#filter0_f_405_45765)">
<path d="M701.905 614.622L698.531 620.62C696.688 623.897 695.191 627.356 694.063 630.943L672.608 699.21C665.452 721.978 678.658 746.131 701.687 752.395C717.782 756.773 734.942 751.224 745.427 738.253L762.737 716.839C774.854 701.849 781.463 683.158 781.463 663.884V634.188C781.463 631.73 781.229 629.278 780.763 626.865C777.58 610.369 764.103 597.82 747.423 595.818L740.586 594.998C736.368 594.492 732.095 594.677 727.936 595.548C716.914 597.855 707.426 604.808 701.905 614.622Z" fill="url(#paint2_linear_405_45765)"/>
</g>
<path d="M371.332 712.941L368.193 707.919L395.255 706.858H400.906C409.916 706.858 417.22 699.554 417.22 690.545C417.22 688.684 417.561 686.84 418.226 685.103L424.066 669.853C426.039 664.702 425.809 658.965 423.428 653.989C421.805 650.593 419.26 647.722 416.085 645.701L401.273 636.275C398.158 634.293 394.542 633.24 390.849 633.24H387.918C393.132 629.001 400.135 627.58 406.634 629.519L426.387 635.41L452.194 644.744L452.21 644.75L452.227 644.755C463.507 648.03 475.399 648.608 486.943 646.444L493.041 645.301C494.898 644.952 496.784 644.777 498.674 644.777H501.441C504.145 644.777 506.815 645.377 509.259 646.535C513.638 648.609 518.636 648.966 523.265 647.535L534.612 644.028C542.075 641.721 547.561 635.348 548.731 627.625C549.292 623.92 550.922 620.46 553.421 617.667L565.228 604.471C567.142 602.331 569.333 600.457 571.744 598.897L584.138 590.878C585.91 589.731 586.98 587.764 586.98 585.653C586.98 583.013 588.986 580.805 591.614 580.552L615.025 578.301H628.156C641.878 578.301 655.167 583.108 665.713 591.886L716.208 646.222L752.444 697.832L752.445 697.834L767.353 719.272C780.77 738.565 792.394 759.045 802.08 780.455L809.063 795.89C811.924 802.215 814.334 808.734 816.273 815.4C820.15 828.728 822.118 842.538 822.118 856.418V856.513L802.083 867.343C802.082 867.343 802.081 867.344 802.08 867.344C796.027 870.548 789.282 872.223 782.433 872.223H747.951C740.526 872.223 733.971 877.069 731.794 884.166L722.706 913.784C721.261 918.494 719.166 922.98 716.481 927.111L709.622 937.663C707.53 940.881 704.408 943.295 700.766 944.508C695.314 946.326 689.312 945.258 684.821 941.672L480.581 778.564C463.567 764.976 444.192 754.644 423.428 748.087L423.394 748.076L423.359 748.07C401.827 744.25 382.922 731.485 371.332 712.941Z" fill="#E0E5FF" stroke="#A8A8A8" stroke-width="1.09877"/>
<mask id="mask2_405_45765" style="mask-type:alpha" maskUnits="userSpaceOnUse" x="366" y="577" width="458" height="370">
<path d="M614.999 577.751L591.561 580.005C588.652 580.285 586.431 582.729 586.431 585.653C586.431 587.577 585.455 589.37 583.839 590.416L571.445 598.436C568.994 600.022 566.765 601.928 564.818 604.104L553.011 617.3C550.441 620.173 548.765 623.732 548.188 627.543C547.049 635.057 541.712 641.258 534.45 643.503L523.103 647.01C518.605 648.4 513.749 648.054 509.494 646.038C506.977 644.846 504.226 644.227 501.441 644.227H498.674C496.75 644.227 494.83 644.406 492.94 644.76L486.842 645.903C475.382 648.052 463.578 647.478 452.38 644.227L426.559 634.888L406.791 628.992C399.641 626.859 391.897 628.686 386.454 633.789H390.849C394.437 633.789 397.951 634.812 400.978 636.738L415.79 646.164C418.879 648.13 421.353 650.923 422.933 654.225C425.248 659.066 425.472 664.646 423.553 669.657L417.713 684.906C417.024 686.706 416.67 688.617 416.67 690.544C416.67 699.25 409.613 706.308 400.907 706.308H395.244L367.225 707.407L370.866 713.232C382.539 731.908 401.578 744.763 423.263 748.611C443.962 755.147 463.277 765.447 480.239 778.993L684.478 942.101C689.115 945.803 695.311 946.906 700.94 945.029C704.699 943.776 707.923 941.284 710.082 937.962L716.941 927.41C719.654 923.236 721.772 918.704 723.232 913.945L732.319 884.327C734.426 877.46 740.768 872.772 747.951 872.772H782.433C789.372 872.772 796.207 871.075 802.34 867.828L822.589 856.882C822.637 856.856 822.667 856.806 822.667 856.751V855.158C822.667 842.062 820.81 829.031 817.152 816.455C814.973 808.964 812.164 801.669 808.757 794.65L786.408 748.611L752.895 697.518L716.636 645.875L666.092 591.486C655.443 582.611 642.019 577.751 628.156 577.751H614.999Z" fill="#0316BC" stroke="#A8A8A8" stroke-width="1.09877"/>
</mask>
<g mask="url(#mask2_405_45765)">
<g style="mix-blend-mode:color-burn">
<path d="M614.999 577.751L591.561 580.005C588.652 580.285 586.431 582.729 586.431 585.653C586.431 587.577 585.455 589.37 583.839 590.416L571.445 598.436C568.994 600.022 566.765 601.928 564.818 604.104L553.011 617.3C550.441 620.173 548.765 623.732 548.188 627.543C547.049 635.057 541.712 641.258 534.45 643.503L523.103 647.01C518.605 648.4 513.749 648.054 509.494 646.038C506.977 644.846 504.226 644.227 501.441 644.227H498.674C496.75 644.227 494.83 644.406 492.94 644.76L486.842 645.903C475.382 648.052 463.578 647.478 452.38 644.227L426.559 634.888L406.791 628.992C399.641 626.859 391.897 628.686 386.454 633.789H390.849C394.437 633.789 397.951 634.812 400.978 636.738L415.79 646.164C418.879 648.13 421.353 650.923 422.933 654.225C425.248 659.066 425.472 664.646 423.553 669.657L417.713 684.906C417.024 686.706 416.67 688.617 416.67 690.544C416.67 699.25 409.613 706.308 400.907 706.308H395.244L367.225 707.407L370.866 713.232C382.539 731.908 401.578 744.763 423.263 748.611C443.962 755.147 463.277 765.447 480.239 778.993L684.478 942.101C689.115 945.803 695.311 946.906 700.94 945.029C704.699 943.776 707.923 941.284 710.082 937.962L716.941 927.41C719.654 923.236 721.772 918.704 723.232 913.945L732.319 884.327C734.426 877.46 740.768 872.772 747.951 872.772H782.433C789.372 872.772 796.207 871.075 802.34 867.828L822.589 856.882C822.637 856.856 822.667 856.806 822.667 856.751V856.418C822.667 842.486 820.692 828.624 816.8 815.246C814.854 808.556 812.436 802.011 809.563 795.663L802.58 780.228C792.88 758.787 781.24 738.279 767.805 718.959L752.895 697.518L716.636 645.875L666.092 591.486C655.443 582.612 642.019 577.751 628.156 577.751H614.999Z" fill="url(#paint3_linear_405_45765)"/>
</g>
<path d="M614.999 577.751L591.561 580.005C588.652 580.285 586.431 582.729 586.431 585.653C586.431 587.577 585.455 589.37 583.839 590.416L571.445 598.436C568.994 600.022 566.765 601.928 564.818 604.104L553.011 617.3C550.441 620.173 548.765 623.732 548.188 627.543C547.049 635.057 541.712 641.258 534.45 643.503L523.103 647.01C518.605 648.4 513.749 648.054 509.494 646.038C506.977 644.846 504.226 644.227 501.441 644.227H498.674C496.75 644.227 494.83 644.406 492.94 644.76L486.842 645.903C475.382 648.052 463.578 647.478 452.38 644.227L426.559 634.888L406.791 628.992C399.641 626.859 391.897 628.686 386.454 633.789H390.849C394.437 633.789 397.951 634.812 400.978 636.738L415.79 646.164C418.879 648.13 421.353 650.923 422.933 654.225C425.248 659.066 425.472 664.646 423.553 669.657L417.713 684.906C417.024 686.706 416.67 688.617 416.67 690.544C416.67 699.25 409.613 706.308 400.907 706.308H395.244L367.225 707.407L370.866 713.232C382.539 731.908 401.578 744.763 423.263 748.611C443.962 755.147 463.277 765.447 480.239 778.993L684.478 942.101C689.115 945.803 695.311 946.906 700.94 945.029C704.699 943.776 707.923 941.284 710.082 937.962L716.941 927.41C719.654 923.236 721.772 918.704 723.232 913.945L732.319 884.327C734.426 877.46 740.768 872.772 747.951 872.772H782.433C789.372 872.772 796.207 871.075 802.34 867.828L822.589 856.882C822.637 856.856 822.667 856.806 822.667 856.751V855.728C822.667 842.253 820.757 828.847 816.993 815.908C814.919 808.779 812.291 801.822 809.133 795.102L800.382 776.478C791.474 757.521 781.111 739.283 769.386 721.927L752.895 697.518L716.636 645.875L666.092 591.486C655.443 582.612 642.019 577.751 628.156 577.751H614.999Z" fill="url(#paint4_linear_405_45765)"/>
<g style="mix-blend-mode:soft-light">
<path d="M674.113 625.979L680.794 612.274L686.371 601.375L765.012 671.44L836.402 816.761L818.497 831.217C805.542 841.677 789.394 847.382 772.744 847.382H771.229C767.096 847.382 762.974 847.82 758.934 848.687L750.387 850.523C741.158 852.504 733.047 857.963 727.736 865.767C726.192 868.035 724.907 870.47 723.905 873.024L721.113 880.144C714.077 898.09 702.225 913.747 686.862 925.39L656.253 948.587L469.411 802.229L517.935 780.431C538.53 771.178 554.246 753.639 561.189 732.155C568.421 709.78 585.147 691.731 606.908 682.821L618.533 678.061C642.827 668.115 662.61 649.576 674.113 625.979Z" fill="#101700"/>
</g>
</g>
<path d="M135.874 547.362L161.205 543.14L196.366 600.277L183.722 603.681C173.151 606.527 162.996 610.738 153.514 616.209L107.915 554.128C117.059 551.202 126.403 548.941 135.874 547.362Z" fill="#FFBFA1" stroke="#FFBFA1" stroke-width="1.09877"/>
<g style="mix-blend-mode:color-burn">
<path d="M135.874 547.362L161.205 543.14L196.366 600.277L183.722 603.681C173.151 606.527 162.996 610.738 153.514 616.209L107.915 554.128C117.059 551.202 126.403 548.941 135.874 547.362Z" fill="url(#paint5_linear_405_45765)"/>
<path d="M135.874 547.362L161.205 543.14L196.366 600.277L183.722 603.681C173.151 606.527 162.996 610.738 153.514 616.209L107.915 554.128C117.059 551.202 126.403 548.941 135.874 547.362Z" stroke="#A8A8A8" stroke-width="1.09877"/>
</g>
<path d="M82.6429 541.492L89.3791 540.049C99.5314 537.873 110.085 541.124 117.254 548.634L145.822 584.345L166.699 605.221L178.172 615.26C179.289 616.238 180.667 616.87 182.138 617.08C187.978 617.915 190.729 624.755 187.093 629.401L185.378 631.592L174.59 643.649C169.4 649.45 162.939 653.973 155.711 656.864C155.711 667.471 156.475 678.065 157.997 688.563L161.205 710.704L165.751 740.251C166.367 744.256 165.698 748.354 163.839 751.955C160.255 758.898 152.815 762.971 145.034 762.247L139.304 761.714C135.985 761.405 132.75 760.5 129.753 759.042L122.231 755.383C116.737 752.71 111.597 749.365 106.929 745.423L104.751 743.583C94.5193 734.943 86.1982 724.269 80.3166 712.238L77.1491 705.759L53.5254 637.635L43.6364 591.487C42.6677 569.205 56.9809 549.122 78.3585 542.766L82.6429 541.492Z" fill="#E8FF5B" stroke="#B17136" stroke-width="1.09877"/>
<mask id="mask3_405_45765" style="mask-type:alpha" maskUnits="userSpaceOnUse" x="43" y="539" width="146" height="224">
<path d="M160.662 710.782L160.662 710.787L165.208 740.334C165.807 744.225 165.156 748.205 163.351 751.703C159.87 758.447 152.643 762.403 145.085 761.7L139.354 761.167C136.102 760.864 132.931 759.977 129.994 758.548L122.471 754.889C117.018 752.236 111.917 748.915 107.284 745.003L105.105 743.163C94.932 734.573 86.6583 723.959 80.8102 711.997L77.6572 705.548L54.0555 637.487L44.1833 591.417C43.2472 569.406 57.3937 549.572 78.5151 543.293L82.779 542.025L89.4942 540.586C99.4521 538.452 109.803 541.636 116.84 548.997L145.393 584.688L145.412 584.712L145.434 584.733L166.311 605.61L166.324 605.623L166.337 605.635L177.81 615.673C179.008 616.721 180.484 617.399 182.06 617.624C187.482 618.399 190.036 624.749 186.661 629.062L184.957 631.239L174.181 643.283C169.047 649.021 162.656 653.494 155.507 656.354L155.162 656.492V656.864C155.162 667.498 155.928 678.118 157.453 688.642L160.662 710.782Z" fill="#FFDB5B" stroke="#A8A8A8" stroke-width="1.09877"/>
</mask>
<g mask="url(#mask3_405_45765)">
<path d="M135.384 613.462L102.421 601.375V615.659L117.324 620.379C129.331 624.181 140.908 629.228 151.866 635.437V620.055L135.384 613.462Z" fill="#EC4A4A"/>
<path d="M130.989 632.141L107.365 624.45L110.662 638.184C122.651 640.364 134.154 644.673 144.626 650.906L151.866 655.215L150.218 641.481L130.989 632.141Z" fill="#EC4A4A"/>
<path d="M118.011 648.355L113.409 646.975L118.353 659.061C129.676 662.348 140.628 666.802 151.032 672.351L151.866 672.796L150.218 664.006C140.393 657.092 129.518 651.807 118.011 648.355Z" fill="#EC4A4A"/>
<path d="M62.865 550.283L54.0748 557.974L62.0056 561.256C67.1659 563.391 71.3822 567.317 73.8797 572.312C74.5923 573.737 75.4501 575.085 76.4392 576.335L77.6814 577.904C82.7154 584.263 85.8273 591.927 86.6506 599.996L87.4192 607.528C87.8963 612.204 88.8536 616.819 90.2759 621.299L93.0951 630.179C97.099 642.792 102.664 654.854 109.661 666.086L120.001 682.685L137.032 706.858L155.711 740.37L163.403 751.908C167.933 744.465 166.866 734.903 160.807 728.642L157.71 725.441C155.661 723.324 154.005 720.861 152.816 718.165L140.329 689.827L123.847 658.512L103.52 605.221L98.6097 586.337C97.1333 580.658 94.6647 575.285 91.3179 570.466C85.6636 562.324 77.7074 556.055 68.4684 552.462L62.865 550.283Z" fill="#A21818"/>
<path d="M99.7835 580.119L98.0258 582.147L91.9825 570.61L89.294 565.569C85.2772 558.037 79.6257 551.5 72.754 546.437L79.5098 542.924C84.1414 540.515 89.0756 538.74 94.1801 537.646L101.149 544.615C102.36 545.826 103.438 547.162 104.367 548.601L107.229 553.038C111.235 559.248 118.803 562.146 125.933 560.202C126 560.183 126.072 560.208 126.114 560.264L127.117 561.617C134.815 571.993 143.267 581.789 152.403 590.925L154.613 593.135L156.479 594.832C159.139 597.25 160.656 600.678 160.656 604.273V606.147C160.656 608.029 159.973 609.848 158.733 611.264L158.531 611.495C157.422 612.763 156.81 614.39 156.81 616.075C156.81 617.92 157.543 619.688 158.847 620.993L159.456 621.602C161.58 623.726 164.621 624.655 167.569 624.082L180.517 621.564C181.876 621.3 183.284 621.561 184.458 622.295C186.056 623.293 187.026 625.045 187.026 626.93V627.159C187.026 628.599 186.498 629.989 185.541 631.065L173.841 644.228L181.712 630.946C182.293 629.965 182.398 628.773 181.998 627.705C181.399 626.109 179.803 625.114 178.107 625.28L163.362 626.718C160.273 627.02 157.503 628.749 155.876 631.392C154.702 633.3 154.209 635.549 154.475 637.773L155.711 648.073C154.981 656.476 155.097 664.931 156.059 673.31L158.458 694.222L163.952 729.383L154.063 717.845L134.835 677.191L137.518 674.843C138.648 673.854 139.963 673.101 141.388 672.626C146.005 671.087 149.119 666.766 149.119 661.9V638.531C149.119 635.743 149.386 632.96 149.916 630.222L151.193 623.622C152.001 619.448 152.036 615.161 151.297 610.974C149.889 602.995 145.739 595.759 139.562 590.515L125.042 578.186C121.788 575.423 117.658 573.906 113.389 573.906C108.168 573.906 103.203 576.173 99.7835 580.119Z" fill="#FFB400"/>
<path d="M79.8559 577.533L75.2006 570.384C71.2126 564.26 64.7154 560.218 57.4591 559.347C55.9387 559.164 54.4047 559.124 52.8768 559.226L30.4512 560.721L45.2846 624.45L74.9515 706.308C78.5144 721.985 87.1484 736.048 99.5157 746.319L112.859 757.401L143.076 769.488L166.15 765.093L161.755 749.161L152.964 734.876L131.538 698.068L121.883 683.804C112.238 669.555 104.289 654.228 98.2001 638.135L95.9752 632.255C93.3176 625.231 91.2218 618.008 89.7074 610.652L85.9301 592.305C84.8471 587.045 82.7867 582.034 79.8559 577.533Z" fill="#0D0D0D" stroke="#271507" stroke-width="1.09877"/>
<path d="M79.8559 577.533L75.2006 570.384C71.2126 564.26 64.7154 560.218 57.4591 559.347C55.9387 559.164 54.4047 559.124 52.8768 559.226L30.4512 560.721L45.2846 624.45L74.9515 706.308C78.5143 721.985 87.1484 736.048 99.5157 746.319L112.859 757.401L143.076 769.488L166.15 765.093L161.755 749.161L152.964 734.876L131.538 698.068L121.883 683.804C112.238 669.555 104.289 654.228 98.2001 638.135L95.9752 632.255C93.3176 625.231 91.2218 618.008 89.7074 610.652L85.9301 592.305C84.8471 587.045 82.7867 582.034 79.8559 577.533Z" fill="url(#paint6_linear_405_45765)" stroke="#271507" stroke-width="1.09877"/>
</g>
<path d="M48.0221 619.782L49.1303 619.505L54.0748 632.141H50.4255C48.8758 632.141 47.3723 631.614 46.1622 630.646L45.7271 630.298C43.8023 628.758 43.014 626.198 43.7389 623.842C44.3573 621.832 45.982 620.292 48.0221 619.782Z" fill="#FFBFA1"/>
<path d="M45.9881 644.267L54.0748 638.734L73.0384 640.192C74.637 640.315 76.153 640.952 77.3596 642.008L77.8981 642.479C79.1677 643.59 79.896 645.195 79.896 646.882C79.896 649.263 78.4533 651.406 76.2476 652.302L62.3156 657.962H52.4518C50.3057 657.962 48.2274 657.21 46.5786 655.836L45.4832 654.923C43.6588 653.403 42.7776 651.029 43.168 648.686C43.4673 646.891 44.4857 645.295 45.9881 644.267Z" fill="#FFBFA1"/>
<path d="M56.0539 674.444H63.5446C65.6432 674.444 67.7296 674.125 69.7327 673.499L79.9249 670.314C82.5225 669.503 84.2911 667.097 84.2911 664.376C84.2911 663.41 84.0662 662.457 83.6342 661.593L83.2918 660.908C81.3077 656.94 76.8337 654.882 72.5295 655.958L64.5132 657.962L49.9392 659.003C49.4027 659.042 48.8746 659.157 48.371 659.346C46.1841 660.166 44.7352 662.257 44.7352 664.592V665.438C44.7352 667.642 45.7995 669.71 47.5929 670.991L49.475 672.336C51.3947 673.707 53.6948 674.444 56.0539 674.444Z" fill="#FFBFA1"/>
<path d="M63.4899 692.32L70.1945 690.724C71.1669 690.492 72.1202 690.187 73.0463 689.811L83.4322 685.592C86.7436 684.246 88.5279 680.639 87.5874 677.191C86.661 673.794 83.253 671.703 79.8052 672.417L70.007 674.444L54.6937 675.465C53.9226 675.516 53.1694 675.721 52.4782 676.066C51.0429 676.784 49.9676 678.062 49.5065 679.599L49.1872 680.664C47.9183 684.893 50.1441 689.383 54.2787 690.933L56.8726 691.906C58.9881 692.699 61.2921 692.843 63.4899 692.32Z" fill="#FFBFA1"/>
<path d="M73.551 718.23L79.896 714L94.7294 726.636L87.3928 733.623C84.6963 736.191 81.1153 737.623 77.3916 737.623H73.5915C71.3394 737.623 69.2233 736.546 67.8988 734.725C66.4755 732.768 66.1572 730.217 67.0559 727.97L68.4252 724.547C69.4555 721.971 71.2427 719.769 73.551 718.23Z" fill="#FFBFA1"/>
<path d="M48.0221 619.782L49.1303 619.505L54.0748 632.141H50.4255C48.8758 632.141 47.3723 631.614 46.1622 630.646L45.7271 630.298C43.8023 628.758 43.014 626.198 43.7389 623.842C44.3573 621.832 45.982 620.292 48.0221 619.782Z" stroke="#A8A8A8" stroke-width="1.09877"/>
<path d="M45.9881 644.267L54.0748 638.734L73.0384 640.192C74.637 640.315 76.153 640.952 77.3596 642.008L77.8981 642.479C79.1677 643.59 79.896 645.195 79.896 646.882C79.896 649.263 78.4533 651.406 76.2476 652.302L62.3156 657.962H52.4518C50.3057 657.962 48.2274 657.21 46.5786 655.836L45.4832 654.923C43.6588 653.403 42.7776 651.029 43.168 648.686C43.4673 646.891 44.4857 645.295 45.9881 644.267Z" stroke="#A8A8A8" stroke-width="1.09877"/>
<path d="M56.0539 674.444H63.5446C65.6432 674.444 67.7296 674.125 69.7327 673.499L79.9249 670.314C82.5225 669.503 84.2911 667.097 84.2911 664.376C84.2911 663.41 84.0662 662.457 83.6342 661.593L83.2918 660.908C81.3077 656.94 76.8337 654.882 72.5295 655.958L64.5132 657.962L49.9392 659.003C49.4027 659.042 48.8746 659.157 48.371 659.346C46.1841 660.166 44.7352 662.257 44.7352 664.592V665.438C44.7352 667.642 45.7995 669.71 47.5929 670.991L49.475 672.336C51.3947 673.707 53.6948 674.444 56.0539 674.444Z" stroke="#A8A8A8" stroke-width="1.09877"/>
<path d="M63.4899 692.32L70.1945 690.724C71.1669 690.492 72.1202 690.187 73.0463 689.811L83.4322 685.592C86.7436 684.246 88.5279 680.639 87.5874 677.191C86.661 673.794 83.253 671.703 79.8052 672.417L70.007 674.444L54.6937 675.465C53.9226 675.516 53.1694 675.721 52.4782 676.066C51.0429 676.784 49.9676 678.062 49.5065 679.599L49.1872 680.664C47.9183 684.893 50.1441 689.383 54.2787 690.933L56.8726 691.906C58.9881 692.699 61.2921 692.843 63.4899 692.32Z" stroke="#A8A8A8" stroke-width="1.09877"/>
<path d="M73.551 718.23L79.896 714L94.7294 726.636L87.3928 733.623C84.6963 736.191 81.1153 737.623 77.3916 737.623H73.5915C71.3394 737.623 69.2233 736.546 67.8988 734.725C66.4755 732.768 66.1572 730.217 67.0559 727.97L68.4252 724.547C69.4555 721.971 71.2427 719.769 73.551 718.23Z" stroke="#A8A8A8" stroke-width="1.09877"/>
<g style="mix-blend-mode:color-burn">
<path d="M48.0221 619.782L49.1303 619.505L54.0748 632.141H50.4255C48.8758 632.141 47.3723 631.614 46.1622 630.646L45.7271 630.298C43.8023 628.758 43.014 626.198 43.7389 623.842C44.3573 621.832 45.982 620.292 48.0221 619.782Z" fill="url(#paint7_linear_405_45765)"/>
<path d="M45.9881 644.267L54.0748 638.734L73.0384 640.192C74.637 640.315 76.153 640.952 77.3596 642.008L77.8981 642.479C79.1677 643.59 79.896 645.195 79.896 646.882C79.896 649.263 78.4533 651.406 76.2476 652.302L62.3156 657.962H52.4518C50.3057 657.962 48.2274 657.21 46.5786 655.836L45.4832 654.923C43.6588 653.403 42.7776 651.029 43.168 648.686C43.4673 646.891 44.4857 645.295 45.9881 644.267Z" fill="url(#paint8_linear_405_45765)"/>
<path d="M56.0539 674.444H63.5446C65.6432 674.444 67.7296 674.125 69.7327 673.499L79.9249 670.314C82.5225 669.503 84.2911 667.097 84.2911 664.376C84.2911 663.41 84.0662 662.457 83.6342 661.593L83.2918 660.908C81.3077 656.94 76.8337 654.882 72.5295 655.958L64.5132 657.962L49.9392 659.003C49.4027 659.042 48.8746 659.157 48.371 659.346C46.1841 660.166 44.7352 662.257 44.7352 664.592V665.438C44.7352 667.642 45.7995 669.71 47.5929 670.991L49.475 672.336C51.3947 673.707 53.6948 674.444 56.0539 674.444Z" fill="url(#paint9_linear_405_45765)"/>
<path d="M63.4899 692.32L70.1945 690.724C71.1669 690.492 72.1202 690.187 73.0463 689.811L83.4322 685.592C86.7436 684.246 88.5279 680.639 87.5874 677.191C86.661 673.794 83.253 671.703 79.8052 672.417L70.007 674.444L54.6937 675.465C53.9226 675.516 53.1694 675.721 52.4782 676.066C51.0429 676.784 49.9676 678.062 49.5065 679.599L49.1872 680.664C47.9183 684.893 50.1441 689.383 54.2787 690.933L56.8726 691.906C58.9881 692.699 61.2921 692.843 63.4899 692.32Z" fill="url(#paint10_linear_405_45765)"/>
<path d="M73.551 718.23L79.896 714L94.7294 726.636L87.3928 733.623C84.6963 736.191 81.1153 737.623 77.3916 737.623H73.5915C71.3394 737.623 69.2233 736.546 67.8988 734.725C66.4755 732.768 66.1572 730.217 67.0559 727.97L68.4252 724.547C69.4555 721.971 71.2427 719.769 73.551 718.23Z" fill="url(#paint11_linear_405_45765)"/>
<path d="M48.0221 619.782L49.1303 619.505L54.0748 632.141H50.4255C48.8758 632.141 47.3723 631.614 46.1622 630.646L45.7271 630.298C43.8023 628.758 43.014 626.198 43.7389 623.842C44.3573 621.832 45.982 620.292 48.0221 619.782Z" stroke="#A8A8A8" stroke-width="1.09877"/>
<path d="M45.9881 644.267L54.0748 638.734L73.0384 640.192C74.637 640.315 76.153 640.952 77.3596 642.008L77.8981 642.479C79.1677 643.59 79.896 645.195 79.896 646.882C79.896 649.263 78.4533 651.406 76.2476 652.302L62.3156 657.962H52.4518C50.3057 657.962 48.2274 657.21 46.5786 655.836L45.4832 654.923C43.6588 653.403 42.7776 651.029 43.168 648.686C43.4673 646.891 44.4857 645.295 45.9881 644.267Z" stroke="#A8A8A8" stroke-width="1.09877"/>
<path d="M56.0539 674.444H63.5446C65.6432 674.444 67.7296 674.125 69.7327 673.499L79.9249 670.314C82.5225 669.503 84.2911 667.097 84.2911 664.376C84.2911 663.41 84.0662 662.457 83.6342 661.593L83.2918 660.908C81.3077 656.94 76.8337 654.882 72.5295 655.958L64.5132 657.962L49.9392 659.003C49.4027 659.042 48.8746 659.157 48.371 659.346C46.1841 660.166 44.7352 662.257 44.7352 664.592V665.438C44.7352 667.642 45.7995 669.71 47.5929 670.991L49.475 672.336C51.3947 673.707 53.6948 674.444 56.0539 674.444Z" stroke="#A8A8A8" stroke-width="1.09877"/>
<path d="M63.4899 692.32L70.1945 690.724C71.1669 690.492 72.1202 690.187 73.0463 689.811L83.4322 685.592C86.7436 684.246 88.5279 680.639 87.5874 677.191C86.661 673.794 83.253 671.703 79.8052 672.417L70.007 674.444L54.6937 675.465C53.9226 675.516 53.1694 675.721 52.4782 676.066C51.0429 676.784 49.9676 678.062 49.5065 679.599L49.1872 680.664C47.9183 684.893 50.1441 689.383 54.2787 690.933L56.8726 691.906C58.9881 692.699 61.2921 692.843 63.4899 692.32Z" stroke="#A8A8A8" stroke-width="1.09877"/>
<path d="M73.551 718.23L79.896 714L94.7294 726.636L87.3928 733.623C84.6963 736.191 81.1153 737.623 77.3916 737.623H73.5915C71.3394 737.623 69.2233 736.546 67.8988 734.725C66.4755 732.768 66.1572 730.217 67.0559 727.97L68.4252 724.547C69.4555 721.971 71.2427 719.769 73.551 718.23Z" stroke="#A8A8A8" stroke-width="1.09877"/>
</g>
<mask id="mask4_405_45765" style="mask-type:alpha" maskUnits="userSpaceOnUse" x="517" y="-48" width="123" height="211">
<path d="M588.764 160.853L604.814 156.117C613.888 153.44 621.756 147.707 627.086 139.891L614.633 131.719C611.266 129.509 608.496 126.504 606.568 122.969C604.188 118.604 603.191 113.619 603.712 108.675L604.478 101.397C604.897 97.4106 605.853 93.4994 607.319 89.7688C609.841 83.3489 610.838 76.4312 610.232 69.5603L609.505 61.3283L621.594 59.4684C623.053 59.244 624.481 58.854 625.851 58.3058C628.119 57.3989 630.195 56.0722 631.97 54.3953L635.25 51.2973C637.754 48.9333 639.172 45.6424 639.172 42.1995V39.0559C639.172 35.3293 636.702 32.0543 633.119 31.0306C632.038 30.7218 630.906 30.6344 629.79 30.7739L616.682 32.4125C614.893 32.636 613.254 33.5239 612.09 34.8998C609.692 37.7336 605.53 38.2731 602.489 36.1443L595.758 31.4325C592.912 29.4405 590.782 26.5859 589.684 23.2904L586.584 13.9898C585.751 11.4914 584.704 9.06943 583.456 6.7507L581.486 3.09323L562.807 -27.6724L550.953 -42.7186C549.383 -44.7108 547.164 -46.0884 544.682 -46.6109C540.644 -47.4611 536.473 -45.9406 533.93 -42.6908L529.795 -37.4074C528.733 -36.0499 527.837 -34.5701 527.126 -32.9996L524.461 -27.107C520.043 -17.341 517.758 -6.74536 517.758 3.97343V9.11862C517.758 24.6266 521.687 39.8817 529.178 53.4601C533.265 60.8675 536.308 68.8044 538.221 77.0452L542.48 95.3902L547.006 120.076C548.011 125.557 549.907 130.837 552.62 135.704L560.118 149.156C564.491 157.002 572.771 161.866 581.754 161.866C584.127 161.866 586.488 161.525 588.764 160.853Z" fill="#FFDB5B" stroke="#A8A8A8" stroke-width="1.09877"/>
</mask>
<g mask="url(#mask4_405_45765)">
<path d="M588.764 160.853L594.074 159.287C609.785 154.65 622.662 143.337 629.283 128.353H618.533C612.968 128.353 607.847 125.314 605.182 120.428C603.704 117.718 603.086 114.623 603.409 111.553L604.478 101.397C604.897 97.4106 605.853 93.4994 607.319 89.7688C609.841 83.349 610.838 76.4312 610.232 69.5603L609.505 61.3283L621.594 59.4684C623.053 59.244 624.481 58.854 625.851 58.3058C628.119 57.3989 630.195 56.0722 631.97 54.3953L635.25 51.2973C637.754 48.9333 639.172 45.6424 639.172 42.1995V39.0559C639.172 35.3293 636.702 32.0543 633.119 31.0306C632.038 30.7218 630.906 30.6345 629.79 30.7739L616.682 32.4125C614.893 32.636 613.254 33.5239 612.09 34.8998C609.692 37.7336 605.53 38.2731 602.489 36.1443L595.758 31.4325C592.912 29.4405 590.782 26.5859 589.684 23.2904L586.584 13.9898C585.751 11.4914 584.704 9.06943 583.456 6.7507L581.486 3.09323L562.807 -27.6724L550.953 -42.7186C549.383 -44.7108 547.164 -46.0884 544.682 -46.6109C540.644 -47.4611 536.473 -45.9406 533.93 -42.6908L529.795 -37.4074C528.733 -36.0499 527.837 -34.5701 527.126 -32.9996L524.461 -27.107C520.043 -17.341 517.758 -6.74536 517.758 3.97343V9.11862C517.758 24.6266 521.687 39.8817 529.178 53.4601C533.265 60.8675 536.308 68.8044 538.221 77.0452L542.48 95.3902L547.006 120.076C548.011 125.557 549.907 130.837 552.62 135.704L560.118 149.156C564.491 157.002 572.771 161.866 581.754 161.866C584.127 161.866 586.488 161.525 588.764 160.853Z" fill="#E8FF5B" stroke="#B17136" stroke-width="1.09877"/>
<path d="M573.682 46.7609L577.641 43.1983L573.245 36.6057C566.661 42.4581 560.508 48.7781 554.834 55.5164L545.776 66.2725L550.721 78.9084C552.543 73.8071 555.085 68.9928 558.271 64.6119L561.091 60.7354C564.789 55.6506 569.009 50.9669 573.682 46.7609Z" fill="#EC4A4A"/>
<path d="M557.313 95.3901L571.594 76.8637C575.598 71.6691 580.424 67.1637 585.881 63.5256L579.289 55.2848C573.823 59.2928 568.962 64.0656 564.855 69.4567L553.468 84.4023L557.313 95.3901Z" fill="#EC4A4A"/>
<path d="M560.61 122.859L568.228 110.535C575.59 98.6258 583.881 87.3158 593.023 76.7109C593.023 73.1286 591.963 69.6265 589.976 66.6459L589.727 66.2725L577.641 80.5566L557.313 109.125L560.61 122.859Z" fill="#EC4A4A"/>
<path d="M636.665 50.6495L628.734 58.5811L608.956 61.3281V58.5811L616.975 52.3846C619.373 50.5317 620.223 47.297 619.047 44.504C617.693 41.2868 619.043 37.5691 622.146 35.9705L624.932 34.5354C630.211 31.8159 636.69 34.2464 638.895 39.76C640.394 43.5073 639.519 47.7956 636.665 50.6495Z" fill="#A11818"/>
<path d="M548.523 -44.7037L557.313 -34.2654L553.841 -30.7929C551.767 -28.719 549.926 -26.4244 548.352 -23.95C544.856 -18.4564 542.747 -12.1959 542.206 -5.70684L541.061 8.02903C540.912 9.82362 541.31 11.6214 542.203 13.1849L542.786 14.2036C544.257 16.7789 547.159 18.1859 550.093 17.7459C553.611 17.2181 556.215 14.1954 556.215 10.6374V6.87105C556.215 4.12254 557.408 1.50941 559.485 -0.290668C562.474 -2.88115 566.757 -3.34286 570.23 -1.44883L570.499 -1.30216L577.431 2.57999C581.632 4.93236 584.233 9.37101 584.233 14.1855C584.233 16.9749 585.11 19.6938 586.74 21.9575L593.208 30.94C593.815 31.7844 594.515 32.5592 595.292 33.2505L597.294 35.0295C601.196 38.4979 602.095 44.2439 599.439 48.7384C597.809 51.497 597.473 54.8325 598.521 57.8605L600.052 62.2827C601.208 65.6212 601.504 69.197 600.912 72.6799L596.869 96.4887L593.777 110.096C592.234 116.883 593.34 124.002 596.869 130.001H596.535C593.441 130.001 590.681 131.946 589.64 134.86C588.992 136.675 589.085 138.672 589.9 140.418L590.617 141.953C591.812 144.516 593.914 146.545 596.517 147.649L610.604 153.625L596.869 159.119L589.205 161.035C584.394 162.238 579.3 160.915 575.682 157.523L575.327 157.19C573.606 155.577 572.362 153.522 571.731 151.249L568.375 139.169C567.786 137.046 569.382 134.946 571.586 134.946C572.306 134.946 573.008 134.712 573.585 134.279L576.718 131.929C579.782 129.632 581.857 126.255 582.522 122.484L586.431 100.334L589.326 89.0155C591.303 81.288 589.449 73.0812 584.343 66.9536C582.454 64.6863 580.983 62.1005 580.001 59.3175L568.301 26.1672C566.63 20.6754 559.565 19.1745 555.805 23.5125L535.887 46.4945L533.025 39.1348C527.345 24.5298 525.678 8.67087 528.196 -6.79604L529.857 -14.7697C532.331 -26.646 538.947 -37.2558 548.523 -44.7037Z" fill="#FFB400"/>
<path d="M591.472 26.0952L574.441 31.3355C573.028 31.7703 571.597 30.7137 571.597 29.2351V28.85C571.597 27.9041 572.203 27.0643 573.1 26.7652L590.131 21.0882C591.554 20.6139 593.023 21.673 593.023 23.173V23.9948C593.023 24.9596 592.394 25.8115 591.472 26.0952Z" fill="#A11818"/>
<path d="M576.077 42.0996L574.047 38.8003C573.338 37.6488 573.828 36.1365 575.077 35.6186L593.713 27.8915C594.608 27.5202 595.641 27.7796 596.255 28.5299L598.354 31.0948C599.268 32.2125 598.874 33.8934 597.559 34.4886L578.854 42.9501C577.846 43.406 576.657 43.0417 576.077 42.0996Z" fill="#A11818"/>
<path d="M581.814 55.2822L579.244 50.9979C578.65 50.0085 578.923 48.7286 579.868 48.0669L589.014 41.6645C589.123 41.5884 589.238 41.5223 589.359 41.467L601.326 35.9823C601.976 35.6842 602.731 35.7214 603.349 36.0818L605.802 37.5128C607.232 38.3474 607.261 40.4046 605.853 41.2781L593.023 49.2415L585.106 55.8397C584.07 56.7029 582.508 56.4383 581.814 55.2822Z" fill="#A11818"/>
<path d="M591.472 26.0952L574.441 31.3355C573.028 31.7703 571.597 30.7137 571.597 29.2351V28.85C571.597 27.9041 572.203 27.0643 573.1 26.7652L590.131 21.0882C591.554 20.6139 593.023 21.673 593.023 23.173V23.9948C593.023 24.9596 592.394 25.8115 591.472 26.0952Z" stroke="#B17136" stroke-width="1.09877"/>
<path d="M576.077 42.0996L574.047 38.8003C573.338 37.6488 573.828 36.1365 575.077 35.6186L593.713 27.8915C594.608 27.5202 595.641 27.7796 596.255 28.5299L598.354 31.0948C599.268 32.2125 598.874 33.8934 597.559 34.4886L578.854 42.9501C577.846 43.406 576.657 43.0417 576.077 42.0996Z" stroke="#B17136" stroke-width="1.09877"/>
<path d="M581.814 55.2822L579.244 50.9979C578.65 50.0085 578.923 48.7286 579.868 48.0669L589.014 41.6645C589.123 41.5884 589.238 41.5223 589.359 41.467L601.326 35.9823C601.976 35.6842 602.731 35.7214 603.349 36.0818L605.802 37.5128C607.232 38.3474 607.261 40.4046 605.853 41.2781L593.023 49.2415L585.106 55.8397C584.07 56.7029 582.508 56.4383 581.814 55.2822Z" stroke="#B17136" stroke-width="1.09877"/>
<path d="M528.546 -8.11648L529.49 -13.148C531.824 -25.5976 539.083 -36.5788 549.622 -43.6049C547.881 -45.6936 545.303 -46.9012 542.584 -46.9012H541.233C537.829 -46.9012 534.584 -45.4612 532.301 -42.9371L528.341 -38.5605C526.427 -36.4448 524.883 -34.021 523.776 -31.3914L521.43 -25.82C518.281 -18.3404 516.659 -10.3068 516.659 -2.19122V7.27819C516.659 22.9613 520.228 38.4388 527.097 52.5378C532.209 64.5867 535.961 77.1682 538.283 90.0488L540.832 104.18L542.201 110.069C544.93 121.804 549.662 132.981 556.189 143.109L560.877 150.383C561.795 151.808 562.862 153.131 564.061 154.329C568.535 158.803 574.602 161.316 580.93 161.316H583.134L581.709 158.859C572.084 142.264 564.799 124.418 560.06 105.828L552.668 79.5859C550.28 71.1101 546.8 62.9029 542.382 55.2858C536.302 44.804 532.048 33.2513 529.911 21.3239L528.46 13.2195C527.196 6.16102 527.225 -1.06849 528.546 -8.11648Z" fill="#A11818"/>
</g>
<path d="M631.481 134.946H613.9H597.968L595.77 94.8406L608.956 50.3403L628.734 69.5688L653.456 86.0504L631.481 134.946Z" fill="#FFBFA1" stroke="#FFBFA1" stroke-width="1.09877"/>
<g style="mix-blend-mode:color-burn">
<path d="M631.481 134.946H613.9H597.968L595.77 94.8406L608.956 50.3403L628.734 69.5688L653.456 86.0504L631.481 134.946Z" fill="url(#paint12_linear_405_45765)"/>
<path d="M631.481 134.946H613.9H597.968L595.77 94.8406L608.956 50.3403L628.734 69.5688L653.456 86.0504L631.481 134.946Z" stroke="#A8A8A8" stroke-width="1.09877"/>
</g>
<path d="M195.712 672.716L200.5 679L209.5 666.5L206 618.5L192.5 601L184.5 603L171 608L176.934 612.997C179.283 614.975 182.035 616.419 184.997 617.226C185.633 617.4 186.161 617.844 186.44 618.442L187.964 621.71C188.914 623.744 188.698 626.131 187.399 627.961L178.5 640.5C182.474 652.091 188.286 662.969 195.712 672.716Z" fill="#8A0060" stroke="black"/>
<path d="M195.712 672.716L200.5 679L209.5 666.5L206 618.5L192.5 601L184.5 603L171 608L176.934 612.997C179.283 614.975 182.035 616.419 184.997 617.226C185.633 617.4 186.161 617.844 186.44 618.442L187.964 621.71C188.914 623.744 188.698 626.131 187.399 627.961L178.5 640.5C182.474 652.091 188.286 662.969 195.712 672.716Z" fill="url(#paint13_linear_405_45765)" stroke="black"/>
<mask id="mask5_405_45765" style="mask-type:alpha" maskUnits="userSpaceOnUse" x="161" y="82" width="720" height="600">
<path d="M835.597 574.992L769.303 571.577C728.643 569.483 687.855 574.521 648.918 586.418C648.653 586.499 648.37 586.504 648.102 586.432L626.688 580.666C603.375 574.39 579.053 572.766 555.112 575.889C545.606 577.129 536.212 579.111 527.015 581.815L484.794 594.233L482.578 594.844C458.864 601.374 434.472 605.127 409.892 606.029L356.686 607.982C337.299 608.693 318.419 614.363 301.848 624.45L251.004 658.723C235.594 669.11 218.361 676.494 200.212 680.487C204.192 667.822 205.351 654.439 203.607 641.278L202.889 635.864C201.118 622.497 197.021 609.544 190.784 597.59L162.015 542.449C161.319 541.116 162.043 539.481 163.499 539.101L209.002 527.208L368.324 491.498L446.886 470.072L577.641 418.43L641.997 395.481C646.333 393.935 650.539 392.046 654.576 389.832C672.648 379.921 686.603 363.901 693.941 344.639L694.293 343.715C698.168 333.544 700.154 322.751 700.154 311.867V263.92C700.154 259.27 700.816 254.644 702.121 250.181C707.314 232.413 702.045 213.235 688.502 200.616L686.419 198.675L627.085 139.341L625.516 124.275C624.746 116.88 626.017 109.416 629.192 102.693C632.134 96.4616 636.612 91.08 642.205 87.0533L647.413 83.3035H673.234L704.549 87.1492L735.603 89.1146C743.52 89.6157 750.929 93.1879 756.251 99.0704C757.672 100.641 759.254 102.06 760.97 103.302L765.633 106.679C771.365 110.83 777.882 113.771 784.786 115.325C792.364 117.03 799.466 120.405 805.574 125.204L817.037 134.211C823.611 139.376 828.757 146.136 831.986 153.849C835.241 161.626 836.438 170.111 835.461 178.485L834.697 185.037C833.649 194.015 834.621 203.114 837.542 211.669C839.697 217.979 840.797 224.602 840.797 231.271V350.045C840.797 354.206 841.627 358.325 843.238 362.161L849.506 377.084C851.182 381.074 850.021 385.691 846.657 388.414C843.208 391.206 842.085 395.979 843.928 400.017L850.899 415.287C851.853 417.376 852.575 419.563 853.051 421.809L853.663 424.692C855.323 432.519 858.58 439.92 863.231 446.431L874.656 462.427C876.964 465.658 878.585 469.328 879.417 473.211C880.737 479.374 880.015 485.8 877.359 491.516L859.066 530.886C857.208 534.885 853.938 538.058 849.884 539.795C844.229 542.219 840.215 547.378 839.255 553.456L835.892 574.752C835.87 574.896 835.742 574.999 835.597 574.992Z" fill="#7FC0E5" stroke="#A8A8A8" stroke-width="1.09877"/>
</mask>
<g mask="url(#mask5_405_45765)">
<path d="M835.597 574.992L769.303 571.577C728.643 569.483 687.855 574.521 648.918 586.418C648.653 586.499 648.37 586.504 648.102 586.432L626.688 580.666C603.375 574.39 579.053 572.766 555.112 575.889C545.606 577.129 536.212 579.111 527.015 581.815L484.794 594.233L482.578 594.844C458.864 601.374 434.472 605.127 409.892 606.029L356.686 607.982C337.299 608.693 318.419 614.363 301.848 624.45L251.004 658.723C235.594 669.11 218.361 676.494 200.212 680.487C204.192 667.822 205.351 654.439 203.607 641.278L202.889 635.864C201.118 622.497 197.021 609.544 190.784 597.59L162.015 542.449C161.319 541.116 162.043 539.481 163.499 539.101L209.002 527.208L368.324 491.498L446.886 470.072L577.641 418.43L641.997 395.481C646.333 393.935 650.539 392.046 654.576 389.832C672.648 379.921 686.603 363.901 693.941 344.639L694.293 343.715C698.168 333.544 700.154 322.751 700.154 311.867V263.92C700.154 259.27 700.816 254.644 702.121 250.181C707.314 232.413 702.045 213.235 688.502 200.616L686.419 198.675L627.085 139.341L625.516 124.275C624.746 116.88 626.017 109.416 629.192 102.693C632.134 96.4616 636.612 91.08 642.205 87.0533L647.413 83.3035H673.234L704.549 87.1492L735.603 89.1146C743.52 89.6157 750.929 93.1879 756.251 99.0704C757.672 100.641 759.254 102.06 760.97 103.302L765.633 106.679C771.365 110.83 777.882 113.771 784.786 115.325C792.364 117.03 799.466 120.405 805.574 125.204L817.037 134.211C823.611 139.376 828.757 146.136 831.986 153.849C835.241 161.626 836.438 170.111 835.461 178.485L834.697 185.037C833.649 194.015 834.621 203.114 837.542 211.669C839.697 217.979 840.797 224.602 840.797 231.271V350.045C840.797 354.206 841.627 358.325 843.238 362.161L849.506 377.084C851.182 381.074 850.021 385.691 846.657 388.414C843.208 391.206 842.085 395.979 843.928 400.017L850.899 415.287C851.853 417.376 852.575 419.563 853.051 421.809L853.663 424.692C855.323 432.519 858.58 439.92 863.231 446.431L874.656 462.427C876.964 465.658 878.585 469.328 879.417 473.211C880.737 479.374 880.015 485.8 877.359 491.516L859.066 530.886C857.208 534.885 853.938 538.058 849.884 539.795C844.229 542.219 840.215 547.378 839.255 553.456L835.892 574.752C835.87 574.896 835.742 574.999 835.597 574.992Z" fill="#F98966" stroke="#778EDE" stroke-width="1.09877"/>
<ellipse cx="18.2583" cy="12.7841" rx="18.2583" ry="12.7841" transform="matrix(0.83205 -0.5547 0.830139 0.557556 766.379 344.796)" fill="#DF3333"/>
<ellipse cx="18.2583" cy="12.7841" rx="18.2583" ry="12.7841" transform="matrix(0.83205 -0.5547 0.830139 0.557556 761.653 362.608)" fill="#DF3333"/>
<ellipse cx="18.2583" cy="12.7841" rx="18.2583" ry="12.7841" transform="matrix(0.83205 -0.5547 0.830139 0.557556 779.468 365.392)" fill="#DF3333"/>
<ellipse cx="18.2583" cy="12.7841" rx="18.2583" ry="12.7841" transform="matrix(0.83205 -0.5547 0.830139 0.557556 799.366 351.21)" fill="#DF3333"/>
<ellipse cx="18.2583" cy="12.7841" rx="18.2583" ry="12.7841" transform="matrix(0.83205 -0.5547 0.830139 0.557556 788.411 343.852)" fill="#DF3333"/>
<ellipse cx="7.65671" cy="5.36106" rx="7.65671" ry="5.36106" transform="matrix(0.83205 -0.5547 0.830139 0.557556 793.687 351.331)" fill="#F9F9F9"/>
<ellipse cx="11.4802" cy="13.2299" rx="11.4802" ry="13.2299" transform="matrix(0.83205 -0.5547 0.830139 0.557556 651.779 154.261)" fill="#DF3333"/>
<ellipse cx="11.4802" cy="13.2299" rx="11.4802" ry="13.2299" transform="matrix(0.83205 -0.5547 0.830139 0.557556 653.256 168.448)" fill="#DF3333"/>
<ellipse cx="11.4802" cy="13.2299" rx="11.4802" ry="13.2299" transform="matrix(0.83205 -0.5547 0.830139 0.557556 668.906 173.186)" fill="#DF3333"/>
<ellipse cx="11.4802" cy="13.2299" rx="11.4802" ry="13.2299" transform="matrix(0.83205 -0.5547 0.830139 0.557556 681.139 164.083)" fill="#DF3333"/>
<ellipse cx="11.4802" cy="13.2299" rx="11.4802" ry="13.2299" transform="matrix(0.83205 -0.5547 0.830139 0.557556 669.803 156.469)" fill="#DF3333"/>
<ellipse cx="4.81426" cy="5.54801" rx="4.81426" ry="5.54801" transform="matrix(0.83205 -0.5547 0.830139 0.557556 676.456 163.412)" fill="#F9F9F9"/>
<ellipse cx="11.4802" cy="13.2299" rx="11.4802" ry="13.2299" transform="matrix(0.83205 -0.5547 0.830139 0.557556 710.792 230.753)" fill="#DF3333"/>
<ellipse cx="11.4802" cy="13.2299" rx="11.4802" ry="13.2299" transform="matrix(0.83205 -0.5547 0.830139 0.557556 712.268 244.94)" fill="#DF3333"/>
<ellipse cx="11.4802" cy="13.2299" rx="11.4802" ry="13.2299" transform="matrix(0.83205 -0.5547 0.830139 0.557556 727.919 249.679)" fill="#DF3333"/>
<ellipse cx="11.4802" cy="13.2299" rx="11.4802" ry="13.2299" transform="matrix(0.83205 -0.5547 0.830139 0.557556 740.152 240.575)" fill="#DF3333"/>
<ellipse cx="11.4802" cy="13.2299" rx="11.4802" ry="13.2299" transform="matrix(0.83205 -0.5547 0.830139 0.557556 728.815 232.961)" fill="#DF3333"/>
<ellipse cx="4.81426" cy="5.54801" rx="4.81426" ry="5.54801" transform="matrix(0.83205 -0.5547 0.830139 0.557556 735.469 239.904)" fill="#F9F9F9"/>
<ellipse cx="7.43342" cy="8.56637" rx="7.43342" ry="8.56637" transform="matrix(0.83205 -0.5547 0.830139 0.557556 662.566 97.1932)" fill="#DF3333"/>
<ellipse cx="7.43342" cy="8.56637" rx="7.43342" ry="8.56637" transform="matrix(0.83205 -0.5547 0.830139 0.557556 663.521 106.38)" fill="#DF3333"/>
<ellipse cx="7.43342" cy="8.56637" rx="7.43342" ry="8.56637" transform="matrix(0.83205 -0.5547 0.830139 0.557556 673.656 109.448)" fill="#DF3333"/>
<ellipse cx="7.43342" cy="8.56637" rx="7.43342" ry="8.56637" transform="matrix(0.83205 -0.5547 0.830139 0.557556 681.576 103.554)" fill="#DF3333"/>
<ellipse cx="7.43342" cy="8.56637" rx="7.43342" ry="8.56637" transform="matrix(0.83205 -0.5547 0.830139 0.557556 674.236 98.623)" fill="#DF3333"/>
<ellipse cx="3.11724" cy="3.59235" rx="3.11724" ry="3.59235" transform="matrix(0.83205 -0.5547 0.830139 0.557556 678.545 103.119)" fill="#F9F9F9"/>
<ellipse cx="11.4802" cy="13.2299" rx="11.4802" ry="13.2299" transform="matrix(0.83205 -0.5547 0.830139 0.557556 806.967 414.992)" fill="#DF3333"/>
<ellipse cx="11.4802" cy="13.2299" rx="11.4802" ry="13.2299" transform="matrix(0.83205 -0.5547 0.830139 0.557556 808.443 429.179)" fill="#DF3333"/>
<ellipse cx="11.4802" cy="13.2299" rx="11.4802" ry="13.2299" transform="matrix(0.83205 -0.5547 0.830139 0.557556 824.094 433.918)" fill="#DF3333"/>
<ellipse cx="11.4802" cy="13.2299" rx="11.4802" ry="13.2299" transform="matrix(0.83205 -0.5547 0.830139 0.557556 836.327 424.814)" fill="#DF3333"/>
<ellipse cx="11.4802" cy="13.2299" rx="11.4802" ry="13.2299" transform="matrix(0.83205 -0.5547 0.830139 0.557556 824.99 417.2)" fill="#DF3333"/>
<ellipse cx="4.81426" cy="5.54801" rx="4.81426" ry="5.54801" transform="matrix(0.83205 -0.5547 0.830139 0.557556 831.644 424.144)" fill="#F9F9F9"/>
<ellipse cx="11.4802" cy="13.2299" rx="11.4802" ry="13.2299" transform="matrix(0.83205 -0.5547 0.830139 0.557556 634.459 540.252)" fill="#DF3333"/>
<ellipse cx="11.4802" cy="13.2299" rx="11.4802" ry="13.2299" transform="matrix(0.83205 -0.5547 0.830139 0.557556 635.935 554.44)" fill="#DF3333"/>
<ellipse cx="11.4802" cy="13.2299" rx="11.4802" ry="13.2299" transform="matrix(0.83205 -0.5547 0.830139 0.557556 651.586 559.178)" fill="#DF3333"/>
<ellipse cx="11.4802" cy="13.2299" rx="11.4802" ry="13.2299" transform="matrix(0.83205 -0.5547 0.830139 0.557556 663.819 550.075)" fill="#DF3333"/>
<ellipse cx="11.4802" cy="13.2299" rx="11.4802" ry="13.2299" transform="matrix(0.83205 -0.5547 0.830139 0.557556 652.482 542.461)" fill="#DF3333"/>
<ellipse cx="4.81426" cy="5.54801" rx="4.81426" ry="5.54801" transform="matrix(0.83205 -0.5547 0.830139 0.557556 659.136 549.404)" fill="#F9F9F9"/>
<ellipse cx="16.6761" cy="19.2177" rx="16.6761" ry="19.2177" transform="matrix(0.83205 -0.5547 0.830139 0.557556 818.86 467.665)" fill="#DF3333"/>
<ellipse cx="16.6761" cy="19.2177" rx="16.6761" ry="19.2177" transform="matrix(0.83205 -0.5547 0.830139 0.557556 821.005 488.275)" fill="#DF3333"/>
<ellipse cx="16.6761" cy="19.2177" rx="16.6761" ry="19.2177" transform="matrix(0.83205 -0.5547 0.830139 0.557556 843.739 495.157)" fill="#DF3333"/>
<ellipse cx="16.6761" cy="19.2177" rx="16.6761" ry="19.2177" transform="matrix(0.83205 -0.5547 0.830139 0.557556 861.509 481.934)" fill="#DF3333"/>
<ellipse cx="16.6761" cy="19.2177" rx="16.6761" ry="19.2177" transform="matrix(0.83205 -0.5547 0.830139 0.557556 845.041 470.874)" fill="#DF3333"/>
<ellipse cx="6.99319" cy="8.05903" rx="6.99319" ry="8.05903" transform="matrix(0.83205 -0.5547 0.830139 0.557556 854.706 480.959)" fill="#F9F9F9"/>
<ellipse cx="14.3302" cy="16.5143" rx="14.3302" ry="16.5143" transform="matrix(0.83205 -0.5547 0.830139 0.557556 754.738 507.386)" fill="#DF3333"/>
<ellipse cx="14.3302" cy="16.5143" rx="14.3302" ry="16.5143" transform="matrix(0.83205 -0.5547 0.830139 0.557556 756.581 525.097)" fill="#DF3333"/>
<ellipse cx="14.3302" cy="16.5143" rx="14.3302" ry="16.5143" transform="matrix(0.83205 -0.5547 0.830139 0.557556 776.116 531.011)" fill="#DF3333"/>
<ellipse cx="14.3302" cy="16.5143" rx="14.3302" ry="16.5143" transform="matrix(0.83205 -0.5547 0.830139 0.557556 791.388 519.648)" fill="#DF3333"/>
<ellipse cx="14.3302" cy="16.5143" rx="14.3302" ry="16.5143" transform="matrix(0.83205 -0.5547 0.830139 0.557556 777.236 510.143)" fill="#DF3333"/>
<ellipse cx="6.00945" cy="6.92536" rx="6.00945" ry="6.92536" transform="matrix(0.83205 -0.5547 0.830139 0.557556 785.542 518.81)" fill="#F9F9F9"/>
<ellipse cx="6.98998" cy="8.05534" rx="6.98998" ry="8.05534" transform="matrix(0.83205 -0.5547 0.830139 0.557556 442.215 568.504)" fill="#DF3333"/>
<ellipse cx="6.98998" cy="8.05534" rx="6.98998" ry="8.05534" transform="matrix(0.83205 -0.5547 0.830139 0.557556 443.114 577.143)" fill="#DF3333"/>
<ellipse cx="6.98998" cy="8.05534" rx="6.98998" ry="8.05534" transform="matrix(0.83205 -0.5547 0.830139 0.557556 452.643 580.028)" fill="#DF3333"/>
<ellipse cx="6.98998" cy="8.05534" rx="6.98998" ry="8.05534" transform="matrix(0.83205 -0.5547 0.830139 0.557556 460.092 574.485)" fill="#DF3333"/>
<ellipse cx="6.98998" cy="8.05534" rx="6.98998" ry="8.05534" transform="matrix(0.83205 -0.5547 0.830139 0.557556 453.189 569.849)" fill="#DF3333"/>
<ellipse cx="2.93128" cy="3.37805" rx="2.93128" ry="3.37805" transform="matrix(0.83205 -0.5547 0.830139 0.557556 457.24 574.076)" fill="#F9F9F9"/>
<circle cx="17.031" cy="17.031" r="17.031" transform="matrix(0.83205 -0.5547 0.830139 0.557556 587.324 429.006)" fill="#DF3333"/>
<circle cx="17.031" cy="17.031" r="17.031" transform="matrix(0.83205 -0.5547 0.830139 0.557556 587.29 448.56)" fill="#DF3333"/>
<circle cx="17.031" cy="17.031" r="17.031" transform="matrix(0.83205 -0.5547 0.830139 0.557556 608.284 454.095)" fill="#DF3333"/>
<circle cx="17.031" cy="17.031" r="17.031" transform="matrix(0.83205 -0.5547 0.830139 0.557556 626.571 440.684)" fill="#DF3333"/>
<circle cx="17.031" cy="17.031" r="17.031" transform="matrix(0.83205 -0.5547 0.830139 0.557556 611.977 430.882)" fill="#DF3333"/>
<circle cx="7.14203" cy="7.14203" r="7.14203" transform="matrix(0.83205 -0.5547 0.830139 0.557556 620.18 440.061)" fill="#F9F9F9"/>
<circle cx="20.8801" cy="20.8801" r="20.8801" transform="matrix(0.83205 -0.5547 0.830139 0.557556 427.184 474.798)" fill="#DF3333"/>
<circle cx="20.8801" cy="20.8801" r="20.8801" transform="matrix(0.83205 -0.5547 0.830139 0.557556 427.143 498.773)" fill="#DF3333"/>
<circle cx="20.8801" cy="20.8801" r="20.8801" transform="matrix(0.83205 -0.5547 0.830139 0.557556 452.881 505.561)" fill="#DF3333"/>
<circle cx="20.8801" cy="20.8801" r="20.8801" transform="matrix(0.83205 -0.5547 0.830139 0.557556 475.301 489.117)" fill="#DF3333"/>
<circle cx="20.8801" cy="20.8801" r="20.8801" transform="matrix(0.83205 -0.5547 0.830139 0.557556 457.409 477.1)" fill="#DF3333"/>
<circle cx="8.75619" cy="8.75619" r="8.75619" transform="matrix(0.83205 -0.5547 0.830139 0.557556 467.466 488.355)" fill="#F9F9F9"/>
<circle cx="8.65003" cy="8.65003" r="8.65003" transform="matrix(0.83205 -0.5547 0.830139 0.557556 333.564 541.005)" fill="#DF3333"/>
<circle cx="8.65003" cy="8.65003" r="8.65003" transform="matrix(0.83205 -0.5547 0.830139 0.557556 333.547 550.937)" fill="#DF3333"/>
<circle cx="8.65003" cy="8.65003" r="8.65003" transform="matrix(0.83205 -0.5547 0.830139 0.557556 344.21 553.749)" fill="#DF3333"/>
<circle cx="8.65003" cy="8.65003" r="8.65003" transform="matrix(0.83205 -0.5547 0.830139 0.557556 353.498 546.937)" fill="#DF3333"/>
<circle cx="8.65003" cy="8.65003" r="8.65003" transform="matrix(0.83205 -0.5547 0.830139 0.557556 346.085 541.958)" fill="#DF3333"/>
<circle cx="3.62743" cy="3.62743" r="3.62743" transform="matrix(0.83205 -0.5547 0.830139 0.557556 350.252 546.621)" fill="#F9F9F9"/>
<circle cx="8.65003" cy="8.65003" r="8.65003" transform="matrix(0.83205 -0.5547 0.830139 0.557556 644.953 372.956)" fill="#DF3333"/>
<circle cx="8.65003" cy="8.65003" r="8.65003" transform="matrix(0.83205 -0.5547 0.830139 0.557556 644.936 382.888)" fill="#DF3333"/>
<circle cx="8.65003" cy="8.65003" r="8.65003" transform="matrix(0.83205 -0.5547 0.830139 0.557556 655.599 385.699)" fill="#DF3333"/>
<circle cx="8.65003" cy="8.65003" r="8.65003" transform="matrix(0.83205 -0.5547 0.830139 0.557556 664.887 378.887)" fill="#DF3333"/>
<circle cx="8.65003" cy="8.65003" r="8.65003" transform="matrix(0.83205 -0.5547 0.830139 0.557556 657.474 373.909)" fill="#DF3333"/>
<circle cx="3.62743" cy="3.62743" r="3.62743" transform="matrix(0.83205 -0.5547 0.830139 0.557556 661.641 378.571)" fill="#F9F9F9"/>
<circle cx="11.3695" cy="11.3695" r="11.3695" transform="matrix(0.83205 0.5547 -0.830139 0.557556 225.264 543.058)" fill="#DF3333"/>
<circle cx="11.3695" cy="11.3695" r="11.3695" transform="matrix(0.83205 0.5547 -0.830139 0.557556 205.756 543.091)" fill="#DF3333"/>
<circle cx="11.3695" cy="11.3695" r="11.3695" transform="matrix(0.83205 0.5547 -0.830139 0.557556 200.286 552.483)" fill="#DF3333"/>
<circle cx="11.3695" cy="11.3695" r="11.3695" transform="matrix(0.83205 0.5547 -0.830139 0.557556 213.712 560.619)" fill="#DF3333"/>
<circle cx="11.3695" cy="11.3695" r="11.3695" transform="matrix(0.83205 0.5547 -0.830139 0.557556 223.454 554.074)" fill="#DF3333"/>
<circle cx="4.76785" cy="4.76785" r="4.76785" transform="matrix(0.83205 0.5547 -0.830139 0.557556 214.316 557.763)" fill="#F9F9F9"/>
<ellipse cx="12.3006" cy="6.58703" rx="12.3006" ry="6.58703" transform="matrix(0.981599 -0.190954 -0.197906 0.980221 232.642 623.274)" fill="#DF3333"/>
<ellipse cx="12.3006" cy="6.58703" rx="12.3006" ry="6.58703" transform="matrix(0.981599 -0.190954 -0.197906 0.980221 218.832 632.365)" fill="#DF3333"/>
<ellipse cx="12.3006" cy="6.58703" rx="12.3006" ry="6.58703" transform="matrix(0.981599 -0.190954 -0.197906 0.980221 222.94 637.969)" fill="#DF3333"/>
<ellipse cx="12.3006" cy="6.58703" rx="12.3006" ry="6.58703" transform="matrix(0.981599 -0.190954 -0.197906 0.980221 239.382 634.369)" fill="#DF3333"/>
<ellipse cx="12.3006" cy="6.58703" rx="12.3006" ry="6.58703" transform="matrix(0.981599 -0.190954 -0.197906 0.980221 240.728 627.705)" fill="#DF3333"/>
<ellipse cx="5.1583" cy="2.7623" rx="5.1583" ry="2.7623" transform="matrix(0.981599 -0.190954 -0.197906 0.980221 237.382 633.159)" fill="#F9F9F9"/>
<ellipse cx="13.4376" cy="11.6115" rx="13.4376" ry="11.6115" transform="matrix(0.83205 -0.5547 0.830139 0.557556 805.091 255.259)" fill="#DF3333"/>
<ellipse cx="13.4376" cy="11.6115" rx="13.4376" ry="11.6115" transform="matrix(0.83205 -0.5547 0.830139 0.557556 803.5 269.636)" fill="#DF3333"/>
<ellipse cx="13.4376" cy="11.6115" rx="13.4376" ry="11.6115" transform="matrix(0.83205 -0.5547 0.830139 0.557556 818.499 272.953)" fill="#DF3333"/>
<ellipse cx="13.4376" cy="11.6115" rx="13.4376" ry="11.6115" transform="matrix(0.83205 -0.5547 0.830139 0.557556 833.026 262.437)" fill="#DF3333"/>
<ellipse cx="13.4376" cy="11.6115" rx="13.4376" ry="11.6115" transform="matrix(0.83205 -0.5547 0.830139 0.557556 823.075 255.754)" fill="#DF3333"/>
<ellipse cx="5.63513" cy="4.86933" rx="5.63513" ry="4.86933" transform="matrix(0.83205 -0.5547 0.830139 0.557556 828.374 262.209)" fill="#F9F9F9"/>
<ellipse cx="9.44787" cy="8.16394" rx="9.44787" ry="8.16394" transform="matrix(0.94785 0.318717 0.0669291 0.997758 790.707 147.394)" fill="#DF3333"/>
<ellipse cx="9.44787" cy="8.16394" rx="9.44787" ry="8.16394" transform="matrix(0.94785 0.318717 0.0669291 0.997758 782.027 152.694)" fill="#DF3333"/>
<ellipse cx="9.44787" cy="8.16394" rx="9.44787" ry="8.16394" transform="matrix(0.94785 0.318717 0.0669291 0.997758 786.636 162.462)" fill="#DF3333"/>
<ellipse cx="9.44787" cy="8.16394" rx="9.44787" ry="8.16394" transform="matrix(0.94785 0.318717 0.0669291 0.997758 798.733 166.017)" fill="#DF3333"/>
<ellipse cx="9.44787" cy="8.16394" rx="9.44787" ry="8.16394" transform="matrix(0.94785 0.318717 0.0669291 0.997758 798.169 157.609)" fill="#DF3333"/>
<ellipse cx="3.96201" cy="3.42359" rx="3.96201" ry="3.42359" transform="matrix(0.94785 0.318717 0.0669291 0.997758 796.859 163.332)" fill="#F9F9F9"/>
<g style="mix-blend-mode:color-burn">
<path d="M835.597 574.992L769.303 571.577C728.643 569.483 687.855 574.521 648.918 586.418C648.653 586.499 648.37 586.504 648.102 586.432L626.688 580.666C603.375 574.39 579.053 572.766 555.112 575.889C545.606 577.129 536.212 579.111 527.015 581.815L484.794 594.233L482.578 594.844C458.864 601.374 434.472 605.127 409.892 606.029L356.686 607.982C337.299 608.693 318.419 614.363 301.848 624.45L251.004 658.723C235.594 669.11 218.361 676.494 200.212 680.487C204.192 667.822 205.351 654.439 203.607 641.278L202.889 635.864C201.118 622.497 197.021 609.544 190.784 597.59L162.015 542.449C161.319 541.116 162.043 539.481 163.499 539.101L209.002 527.208L368.324 491.498L446.886 470.072L577.641 418.43L641.997 395.481C646.333 393.935 650.539 392.046 654.576 389.832C672.648 379.921 686.603 363.901 693.941 344.639L694.293 343.715C698.168 333.544 700.154 322.751 700.154 311.867V263.92C700.154 259.27 700.816 254.644 702.121 250.181C707.314 232.413 702.045 213.235 688.502 200.616L686.419 198.675L627.085 139.341L625.516 124.275C624.746 116.88 626.017 109.416 629.192 102.693C632.134 96.4616 636.612 91.08 642.205 87.0533L647.413 83.3035H673.234L704.549 87.1492L735.603 89.1146C743.52 89.6157 750.929 93.1879 756.251 99.0704C757.672 100.641 759.254 102.06 760.97 103.302L765.633 106.679C771.365 110.83 777.882 113.771 784.786 115.325C792.364 117.03 799.466 120.405 805.574 125.204L817.037 134.211C823.611 139.376 828.757 146.136 831.986 153.849C835.241 161.626 836.438 170.111 835.461 178.485L834.697 185.037C833.649 194.015 834.621 203.114 837.542 211.669C839.697 217.979 840.797 224.602 840.797 231.271V350.045C840.797 354.206 841.627 358.325 843.238 362.161L849.506 377.084C851.182 381.074 850.021 385.691 846.657 388.414C843.208 391.206 842.085 395.979 843.928 400.017L850.899 415.287C851.853 417.376 852.575 419.563 853.051 421.809L853.663 424.692C855.323 432.519 858.58 439.92 863.231 446.431L874.656 462.427C876.964 465.658 878.585 469.328 879.417 473.211C880.737 479.374 880.015 485.8 877.359 491.516L859.066 530.886C857.208 534.885 853.938 538.058 849.884 539.795C844.229 542.219 840.215 547.378 839.255 553.456L835.892 574.752C835.87 574.896 835.742 574.999 835.597 574.992Z" fill="url(#paint14_linear_405_45765)"/>
</g>
<g style="mix-blend-mode:color-burn">
<path d="M835.597 574.992L769.303 571.577C728.643 569.483 687.855 574.521 648.918 586.418C648.653 586.499 648.37 586.504 648.102 586.432L626.688 580.666C603.375 574.39 579.053 572.766 555.112 575.889C545.606 577.129 536.212 579.111 527.015 581.815L484.794 594.233L482.578 594.844C458.864 601.374 434.472 605.127 409.892 606.029L356.686 607.982C337.299 608.693 318.419 614.363 301.848 624.45L251.004 658.723C235.594 669.11 218.361 676.494 200.212 680.487C204.192 667.822 205.351 654.439 203.607 641.278L202.889 635.864C201.118 622.497 197.021 609.544 190.784 597.59L162.015 542.449C161.319 541.116 162.043 539.481 163.499 539.101L209.002 527.208L368.324 491.498L446.886 470.072L577.641 418.43L641.997 395.481C646.333 393.935 650.539 392.046 654.576 389.832C672.648 379.921 686.603 363.901 693.941 344.639L694.293 343.715C698.168 333.544 700.154 322.751 700.154 311.867V263.92C700.154 259.27 700.816 254.644 702.121 250.181C707.314 232.413 702.045 213.235 688.502 200.616L686.419 198.675L627.085 139.341L625.516 124.275C624.746 116.88 626.017 109.416 629.192 102.693C632.134 96.4616 636.612 91.08 642.205 87.0533L647.413 83.3035H673.234L704.549 87.1492L735.603 89.1146C743.52 89.6157 750.929 93.1879 756.251 99.0704C757.672 100.641 759.254 102.06 760.97 103.302L765.633 106.679C771.365 110.83 777.882 113.771 784.786 115.325C792.364 117.03 799.466 120.405 805.574 125.204L817.037 134.211C823.611 139.376 828.757 146.136 831.986 153.849C835.241 161.626 836.438 170.111 835.461 178.485L834.697 185.037C833.649 194.015 834.621 203.114 837.542 211.669C839.697 217.979 840.797 224.602 840.797 231.271V350.045C840.797 354.206 841.627 358.325 843.238 362.161L849.506 377.084C851.182 381.074 850.021 385.691 846.657 388.414C843.208 391.206 842.085 395.979 843.928 400.017L850.899 415.287C851.853 417.376 852.575 419.563 853.051 421.809L853.663 424.692C855.323 432.519 858.58 439.92 863.231 446.431L874.656 462.427C876.964 465.658 878.585 469.328 879.417 473.211C880.737 479.374 880.015 485.8 877.359 491.516L859.066 530.886C857.208 534.885 853.938 538.058 849.884 539.795C844.229 542.219 840.215 547.378 839.255 553.456L835.892 574.752C835.87 574.896 835.742 574.999 835.597 574.992Z" fill="url(#paint15_linear_405_45765)"/>
</g>
<g style="mix-blend-mode:color-dodge">
<path d="M835.597 574.992L769.303 571.577C728.643 569.483 687.855 574.521 648.918 586.418C648.653 586.499 648.37 586.504 648.102 586.432L626.688 580.666C603.375 574.39 579.053 572.766 555.112 575.889C545.606 577.129 536.212 579.111 527.015 581.815L484.794 594.233L482.578 594.844C458.864 601.374 434.472 605.127 409.892 606.029L356.686 607.982C337.299 608.693 318.419 614.363 301.848 624.45L251.004 658.723C235.594 669.11 218.361 676.494 200.212 680.487C204.192 667.822 205.351 654.439 203.607 641.278L202.889 635.864C201.118 622.497 197.021 609.544 190.784 597.59L162.015 542.449C161.319 541.116 162.043 539.481 163.499 539.101L209.002 527.208L368.324 491.498L446.886 470.072L577.641 418.43L641.997 395.481C646.333 393.935 650.539 392.046 654.576 389.832C672.648 379.921 686.603 363.901 693.941 344.639L694.293 343.715C698.168 333.544 700.154 322.751 700.154 311.867V263.92C700.154 259.27 700.816 254.644 702.121 250.181C707.314 232.413 702.045 213.235 688.502 200.616L686.419 198.675L627.085 139.341L625.516 124.275C624.746 116.88 626.017 109.416 629.192 102.693C632.134 96.4616 636.612 91.08 642.205 87.0533L647.413 83.3035H673.234L704.549 87.1492L735.603 89.1146C743.52 89.6157 750.929 93.1879 756.251 99.0704C757.672 100.641 759.254 102.06 760.97 103.302L765.633 106.679C771.365 110.83 777.882 113.771 784.786 115.325C792.364 117.03 799.466 120.405 805.574 125.204L817.037 134.211C823.611 139.376 828.757 146.136 831.986 153.849C835.241 161.626 836.438 170.111 835.461 178.485L834.697 185.037C833.649 194.015 834.621 203.114 837.542 211.669C839.697 217.979 840.797 224.602 840.797 231.271V350.045C840.797 354.206 841.627 358.325 843.238 362.161L849.506 377.084C851.182 381.074 850.021 385.691 846.657 388.414C843.208 391.206 842.085 395.979 843.928 400.017L850.899 415.287C851.853 417.376 852.575 419.563 853.051 421.809L853.663 424.692C855.323 432.519 858.58 439.92 863.231 446.431L874.656 462.427C876.964 465.658 878.585 469.328 879.417 473.211C880.737 479.374 880.015 485.8 877.359 491.516L859.066 530.886C857.208 534.885 853.938 538.058 849.884 539.795C844.229 542.219 840.215 547.378 839.255 553.456L835.892 574.752C835.87 574.896 835.742 574.999 835.597 574.992Z" fill="url(#paint16_linear_405_45765)"/>
</g>
<g style="mix-blend-mode:color-dodge" opacity="0.8">
<path d="M835.597 574.992L769.303 571.577C728.643 569.483 687.855 574.521 648.918 586.418C648.653 586.499 648.37 586.504 648.102 586.432L626.688 580.666C603.375 574.39 579.053 572.766 555.112 575.889C545.606 577.129 536.212 579.111 527.015 581.815L484.794 594.233L482.578 594.844C458.864 601.374 434.472 605.127 409.892 606.029L356.686 607.982C337.299 608.693 318.419 614.363 301.848 624.45L251.004 658.723C235.594 669.11 218.361 676.494 200.212 680.487C204.192 667.822 205.351 654.439 203.607 641.278L202.889 635.864C201.118 622.497 197.021 609.544 190.784 597.59L162.015 542.449C161.319 541.116 162.043 539.481 163.499 539.101L209.002 527.208L368.324 491.498L446.886 470.072L577.641 418.43L641.997 395.481C646.333 393.935 650.539 392.046 654.576 389.832C672.648 379.921 686.603 363.901 693.941 344.639L694.293 343.715C698.168 333.544 700.154 322.751 700.154 311.867V263.92C700.154 259.27 700.816 254.644 702.121 250.181C707.314 232.413 702.045 213.235 688.502 200.616L686.419 198.675L627.085 139.341L625.516 124.275C624.746 116.88 626.017 109.416 629.192 102.693C632.134 96.4616 636.612 91.08 642.205 87.0533L647.413 83.3035H673.234L704.549 87.1492L735.603 89.1146C743.52 89.6157 750.929 93.1879 756.251 99.0704C757.672 100.641 759.254 102.06 760.97 103.302L765.633 106.679C771.365 110.83 777.882 113.771 784.786 115.325C792.364 117.03 799.466 120.405 805.574 125.204L817.037 134.211C823.611 139.376 828.757 146.136 831.986 153.849C835.241 161.626 836.438 170.111 835.461 178.485L834.697 185.037C833.649 194.015 834.621 203.114 837.542 211.669C839.697 217.979 840.797 224.602 840.797 231.271V350.045C840.797 354.206 841.627 358.325 843.238 362.161L849.506 377.084C851.182 381.074 850.021 385.691 846.657 388.414C843.208 391.206 842.085 395.979 843.928 400.017L850.899 415.287C851.853 417.376 852.575 419.563 853.051 421.809L853.663 424.692C855.323 432.519 858.58 439.92 863.231 446.431L874.656 462.427C876.964 465.658 878.585 469.328 879.417 473.211C880.737 479.374 880.015 485.8 877.359 491.516L859.066 530.886C857.208 534.885 853.938 538.058 849.884 539.795C844.229 542.219 840.215 547.378 839.255 553.456L835.892 574.752C835.87 574.896 835.742 574.999 835.597 574.992Z" fill="#DD32B7"/>
</g>
</g>
<g style="mix-blend-mode:soft-light">
<rect x="22.2104" y="-210.619" width="1091.08" height="1018.56" fill="#FFDAAF"/>
</g>
<g style="mix-blend-mode:color-burn" opacity="0.6">
<rect x="22.2104" y="-210.619" width="1091.08" height="1018.56" fill="url(#paint17_linear_405_45765)"/>
</g>
<g style="mix-blend-mode:hard-light" opacity="0.6">
<path d="M22.2104 -210.619H1113.29V807.945H22.2104V-210.619Z" fill="url(#paint18_linear_405_45765)"/>
</g>
<g style="mix-blend-mode:overlay">
<path d="M525.523 -20.692C514.627 -36.6703 517.324 -61.2053 530.381 -84.4343C536.849 -95.9406 553.482 -101.483 564.641 -111.15C581.039 -125.355 591.432 -139.305 607.485 -141.333C624.41 -143.472 639.152 -138.632 647.514 -126.37C659.743 -108.438 650.641 -77.726 633.197 -52.1801C627.399 -43.689 618.23 -56.9419 609.826 -49.6618C613.273 -39.3521 623.111 -7.98958 608.327 1.8634C597.922 8.79697 585.067 2.08331 569.965 -1.83541C550.908 -6.78028 531.254 -12.2874 525.523 -20.692Z" fill="#96CDF5"/>
</g>
<g style="mix-blend-mode:soft-light" filter="url(#filter1_f_405_45765)">
<ellipse cx="521.548" cy="48.3808" rx="171.63" ry="107.912" transform="rotate(155.315 521.548 48.3808)" fill="#41CBEA"/>
</g>
<g style="mix-blend-mode:color-burn" filter="url(#filter2_f_405_45765)">
<path d="M488.509 454.14C463.334 422.172 538.152 371.528 612.621 312.883C687.089 254.237 693.334 205.672 718.509 237.64C743.684 269.607 778.256 370.002 703.788 428.647C629.319 487.293 513.684 486.107 488.509 454.14Z" fill="#D13636"/>
</g>
<g style="mix-blend-mode:overlay">
<path d="M719.243 210.9C698.293 181.358 714.207 127.511 755.271 71.9423C775.612 44.4172 818.866 25.2548 850.125 -0.370266C896.059 -38.0261 927.035 -72.5107 967.529 -83.876C1010.22 -95.8587 1044.89 -91.9074 1060.97 -69.2353C1084.48 -36.0798 1050.38 33.8241 997.59 96.2817C980.042 117.042 962.341 92.5958 938.801 111.894C943.448 132.521 955.987 195.551 915.684 223.159C887.323 242.587 858.034 233.789 822.133 231.972C776.831 229.679 730.263 226.44 719.243 210.9Z" fill="#70B7EB"/>
</g>
<g style="mix-blend-mode:color-burn">
<path d="M208.467 743.169C173.18 735.016 149.286 684.204 143.042 615.392C139.949 581.307 159.535 538.243 165.863 498.321C175.161 439.657 175.39 393.304 198.095 357.901C222.035 320.574 250.563 300.489 277.644 306.746C317.246 315.896 338.226 390.787 340.284 472.542C340.969 499.717 311.496 493.213 306.731 523.278C323.911 535.602 375.168 574.367 363.4 621.78C355.119 655.145 327.387 668.035 299.353 690.536C263.978 718.929 227.028 747.457 208.467 743.169Z" fill="#70B7EB"/>
</g>
<g style="mix-blend-mode:soft-light" filter="url(#filter3_f_405_45765)">
<ellipse cx="862.31" cy="119.363" rx="190.828" ry="107.912" transform="rotate(155.315 862.31 119.363)" fill="#FFC1C1"/>
</g>
</g>
</g>
<defs>
<filter id="filter0_f_405_45765" x="663.002" y="587.062" width="126.119" height="174.467" filterUnits="userSpaceOnUse" color-interpolation-filters="sRGB">
<feFlood flood-opacity="0" result="BackgroundImageFix"/>
<feBlend mode="normal" in="SourceGraphic" in2="BackgroundImageFix" result="shape"/>
<feGaussianBlur stdDeviation="3.82906" result="effect1_foregroundBlur_405_45765"/>
</filter>
<filter id="filter1_f_405_45765" x="51.2902" y="-380.972" width="940.516" height="858.706" filterUnits="userSpaceOnUse" color-interpolation-filters="sRGB">
<feFlood flood-opacity="0" result="BackgroundImageFix"/>
<feBlend mode="normal" in="SourceGraphic" in2="BackgroundImageFix" result="shape"/>
<feGaussianBlur stdDeviation="153.944" result="effect1_foregroundBlur_405_45765"/>
</filter>
<filter id="filter2_f_405_45765" x="383.534" y="127.484" width="465.339" height="448.51" filterUnits="userSpaceOnUse" color-interpolation-filters="sRGB">
<feFlood flood-opacity="0" result="BackgroundImageFix"/>
<feBlend mode="normal" in="SourceGraphic" in2="BackgroundImageFix" result="shape"/>
<feGaussianBlur stdDeviation="50" result="effect1_foregroundBlur_405_45765"/>
</filter>
<filter id="filter3_f_405_45765" x="375.227" y="-314.883" width="974.166" height="868.493" filterUnits="userSpaceOnUse" color-interpolation-filters="sRGB">
<feFlood flood-opacity="0" result="BackgroundImageFix"/>
<feBlend mode="normal" in="SourceGraphic" in2="BackgroundImageFix" result="shape"/>
<feGaussianBlur stdDeviation="153.944" result="effect1_foregroundBlur_405_45765"/>
</filter>
<linearGradient id="paint0_linear_405_45765" x1="298.277" y1="619.505" x2="295.217" y2="730.909" gradientUnits="userSpaceOnUse">
<stop stop-color="#AF562D"/>
<stop offset="1" stop-color="#FFBFA1" stop-opacity="0"/>
</linearGradient>
<linearGradient id="paint1_linear_405_45765" x1="740.534" y1="551.931" x2="814.926" y2="688.516" gradientUnits="userSpaceOnUse">
<stop stop-color="#AF562D"/>
<stop offset="1" stop-color="#FFBFA1" stop-opacity="0"/>
</linearGradient>
<linearGradient id="paint2_linear_405_45765" x1="730.816" y1="594.965" x2="730.816" y2="760.331" gradientUnits="userSpaceOnUse">
<stop stop-color="#FFCA99"/>
<stop offset="0.453125" stop-color="#FFE2C7"/>
<stop offset="1" stop-color="#FFE2C7"/>
</linearGradient>
<linearGradient id="paint3_linear_405_45765" x1="505.902" y1="642.873" x2="840.907" y2="1083.57" gradientUnits="userSpaceOnUse">
<stop stop-color="#495CC9"/>
<stop offset="1" stop-color="#E0E5FF" stop-opacity="0.18"/>
</linearGradient>
<linearGradient id="paint4_linear_405_45765" x1="505.902" y1="642.873" x2="771.885" y2="921.885" gradientUnits="userSpaceOnUse">
<stop stop-color="#1839EA"/>
<stop offset="1" stop-color="#E0E5FF" stop-opacity="0.18"/>
</linearGradient>
<linearGradient id="paint5_linear_405_45765" x1="152.14" y1="543.14" x2="176.341" y2="601.116" gradientUnits="userSpaceOnUse">
<stop stop-color="#AF562D"/>
<stop offset="1" stop-color="#FFBFA1" stop-opacity="0"/>
</linearGradient>
<linearGradient id="paint6_linear_405_45765" x1="63" y1="629" x2="166" y2="754" gradientUnits="userSpaceOnUse">
<stop/>
<stop offset="1" stop-color="#220F95"/>
</linearGradient>
<linearGradient id="paint7_linear_405_45765" x1="43.0871" y1="620.055" x2="113.134" y2="654.987" gradientUnits="userSpaceOnUse">
<stop stop-color="#AF562D"/>
<stop offset="1" stop-color="#FFBFA1" stop-opacity="0"/>
</linearGradient>
<linearGradient id="paint8_linear_405_45765" x1="43.0871" y1="620.055" x2="113.134" y2="654.987" gradientUnits="userSpaceOnUse">
<stop stop-color="#AF562D"/>
<stop offset="1" stop-color="#FFBFA1" stop-opacity="0"/>
</linearGradient>
<linearGradient id="paint9_linear_405_45765" x1="43.0871" y1="620.055" x2="113.134" y2="654.987" gradientUnits="userSpaceOnUse">
<stop stop-color="#AF562D"/>
<stop offset="1" stop-color="#FFBFA1" stop-opacity="0"/>
</linearGradient>
<linearGradient id="paint10_linear_405_45765" x1="43.0871" y1="620.055" x2="113.134" y2="654.987" gradientUnits="userSpaceOnUse">
<stop stop-color="#AF562D"/>
<stop offset="1" stop-color="#FFBFA1" stop-opacity="0"/>
</linearGradient>
<linearGradient id="paint11_linear_405_45765" x1="43.0871" y1="620.055" x2="113.134" y2="654.987" gradientUnits="userSpaceOnUse">
<stop stop-color="#AF562D"/>
<stop offset="1" stop-color="#FFBFA1" stop-opacity="0"/>
</linearGradient>
<linearGradient id="paint12_linear_405_45765" x1="624.613" y1="50.3403" x2="662.321" y2="101.221" gradientUnits="userSpaceOnUse">
<stop stop-color="#AF562D"/>
<stop offset="1" stop-color="#FFBFA1" stop-opacity="0"/>
</linearGradient>
<linearGradient id="paint13_linear_405_45765" x1="204.5" y1="597" x2="190.25" y2="679" gradientUnits="userSpaceOnUse">
<stop offset="0.143029" stop-color="#4E0637"/>
<stop offset="1" stop-color="#8A0060" stop-opacity="0"/>
</linearGradient>
<linearGradient id="paint14_linear_405_45765" x1="122.748" y1="505.782" x2="778.167" y2="527.208" gradientUnits="userSpaceOnUse">
<stop stop-color="#0316BC"/>
<stop offset="1" stop-color="#7FC0E5" stop-opacity="0"/>
</linearGradient>
<linearGradient id="paint15_linear_405_45765" x1="350.194" y1="199.774" x2="834.204" y2="520.615" gradientUnits="userSpaceOnUse">
<stop stop-color="#0316BC"/>
<stop offset="1" stop-color="#000C77" stop-opacity="0"/>
</linearGradient>
<linearGradient id="paint16_linear_405_45765" x1="350.194" y1="199.774" x2="834.204" y2="520.615" gradientUnits="userSpaceOnUse">
<stop stop-color="#0316BC"/>
<stop offset="1" stop-color="#000C77" stop-opacity="0"/>
</linearGradient>
<linearGradient id="paint17_linear_405_45765" x1="405.682" y1="0.346064" x2="848.654" y2="840.012" gradientUnits="userSpaceOnUse">
<stop stop-color="#FFA800"/>
<stop offset="0.707405" stop-color="#FF70F1"/>
</linearGradient>
<linearGradient id="paint18_linear_405_45765" x1="567.752" y1="-210.619" x2="530.679" y2="740.137" gradientUnits="userSpaceOnUse">
<stop offset="0.176291" stop-color="#92B0FF"/>
<stop offset="1" stop-color="#799EE8" stop-opacity="0.66"/>
</linearGradient>
</defs>
</svg>
