<svg width="1339" height="796" viewBox="0 0 1339 796" fill="none" xmlns="http://www.w3.org/2000/svg">
<mask id="mask0_405_63585" style="mask-type:alpha" maskUnits="userSpaceOnUse" x="0" y="0" width="1339" height="796">
<path d="M0 30C0 13.4315 13.4315 0 30 0H1308.46C1325.03 0 1338.46 13.4315 1338.46 30V199V440C1338.46 456.569 1325.03 470 1308.46 470H884C867.431 470 854 483.431 854 500V657.5V766C854 782.569 840.569 796 824 796H669.23H29.9999C13.4314 796 0 782.569 0 766V30Z" fill="#EDE7FF"/>
</mask>
<g mask="url(#mask0_405_63585)">
<path d="M131.97 610.895L85.5983 673.273L131.426 647.9L201.282 602.501L336.608 511.258L366.357 485.773C352.365 483.065 338.015 482.754 323.919 484.854L310.648 486.831C285.171 490.626 260.642 499.207 238.355 512.121L235.092 514.013C221.403 521.945 208.594 531.305 196.878 541.937L183.457 554.116C164.493 571.326 147.249 590.342 131.97 610.895Z" fill="#3D3AA9"/>
<path d="M279.765 359.206L295.881 360.803L287.882 341.776L307.335 341.214L347.218 338.156L342.32 326.506L309.128 247.55L296.949 218.577C295.318 214.7 300.569 211.69 303.092 215.055L369.015 284.822L412.68 319.775L457.096 350.412C460.393 352.687 464.021 354.439 467.852 355.608C488.016 361.763 499.635 382.833 494.08 403.171L482.435 445.809L461.334 555.206L448.008 661.334L428.825 760.786L416.041 834.446C415.06 840.095 414.564 845.818 414.559 851.552L414.547 864.058C414.542 869.225 415.571 874.34 417.573 879.103C421.873 889.33 430.351 897.222 440.858 900.778L472.511 911.492C481.833 914.647 491.528 916.57 501.349 917.212L514.776 918.09L542.019 801.542L557.6 689.896L558.468 673.288C559.447 654.553 565.127 636.366 574.982 620.402C581.847 609.283 586.709 597.045 589.347 584.246L597.316 545.585C601.708 524.274 608.165 503.441 616.596 483.382L642.798 421.043C655.018 394.635 664.576 367.075 671.33 338.771L677.737 311.921L684.478 248.162L684.792 205.383L492.533 150.648L378.846 126.854L308.851 109.062L268.878 102.271C259.594 100.694 250.053 101.794 241.372 105.444L239.262 106.331C230.755 109.907 223.636 116.144 218.972 124.107C214.411 131.893 212.435 140.925 213.328 149.905L215.735 174.1L217.548 203.8L215.002 299.304L218.098 340.021C218.461 344.791 221.837 348.793 226.478 349.954C243.991 354.333 261.801 357.425 279.765 359.206Z" fill="#3D3AA9"/>
<path d="M439.054 70.7444L448.745 72.4713L463.274 116.751C464.424 120.257 464.559 124.017 463.662 127.597C463.437 128.494 463.149 129.374 462.799 130.231L461.702 132.919C460.301 136.352 459.831 140.094 460.339 143.767L460.803 147.124C461.836 154.602 457.714 161.841 450.755 164.766C449.973 165.095 449.217 165.483 448.494 165.927L436.634 173.208C434.765 174.355 432.686 175.119 430.519 175.453C425.367 176.247 420.143 174.559 416.43 170.9L412.003 166.538C410.217 164.778 408.102 163.384 405.78 162.436C402.074 160.924 398.934 158.292 396.797 154.907L388.144 141.2C383.945 134.549 380.901 127.236 379.14 119.569L374.444 99.1255C380.019 88.8748 388.917 80.8266 399.673 76.3046L403.486 74.7017C414.713 69.9821 427.065 68.6079 439.054 70.7444Z" fill="#3D3AA9"/>
<path d="M300.353 371.444L287.834 341.664L339.655 330.545L351.546 369.729L348.742 373.955L347.928 378.151C346.239 386.848 338.524 393.06 329.666 392.852C325.148 392.746 320.831 390.959 317.558 387.841L300.353 371.444Z" fill="#3D3AA9"/>
<path d="M105.155 544.968L45.505 617.132C44.2925 618.599 43.9949 620.617 44.7323 622.372C49.3505 633.357 55.1079 643.828 61.91 653.613L73.0758 669.674C76.2394 674.225 82.3552 675.604 87.1662 672.853L138.867 643.286L317.98 524.672C336.808 512.204 354.355 497.9 370.362 481.97L372.287 480.054C376.375 475.986 375.199 469.096 369.994 466.614L348.077 456.164C329.333 447.226 309.002 442.098 288.261 441.076C256.045 439.49 224.122 447.871 196.84 465.078L178.173 476.852C160.825 487.793 145.041 501.038 131.253 516.224L105.155 544.968Z" fill="#3D3AA9"/>
<path d="M755.519 471.763L749.183 444.611C747.745 438.45 742.019 434.265 735.713 434.766L648.347 441.705L578.473 448.19L566.31 447.852C558.04 447.622 551.638 455.034 553.068 463.183L558.105 491.88C559.326 498.835 561.178 505.665 563.636 512.284L569.241 527.373C573.994 540.169 582.606 551.172 593.885 558.86C603.581 565.468 614.866 569.367 626.574 570.151L632.951 570.579C638.001 570.917 643.07 570.826 648.104 570.306L673.22 567.712C682.693 566.734 692.019 564.648 701.006 561.496L721.664 554.252C732.784 550.353 742.364 542.996 749.001 533.258C755.922 523.105 759.256 510.932 758.474 498.668L757.703 486.569C757.385 481.582 756.655 476.63 755.519 471.763Z" fill="#3D3AA9"/>
<path d="M371.2 358.367L350.225 370.218L345.456 379.15C342.616 384.47 337.034 387.75 331.004 387.643C328.364 387.596 325.776 386.899 323.47 385.614L313.024 379.791L299.82 370.176C287.2 371.459 274.84 374.611 263.146 379.527L253.536 383.567L236.272 390.824C226.231 395.045 217 400.979 208.99 408.359L194.658 418.251C189.43 421.859 185.821 427.368 184.602 433.602L183.99 436.731C183.729 438.062 183.756 439.434 184.067 440.754C184.962 444.545 188.071 447.412 191.922 447.997L200.516 449.302C204.593 449.921 208.762 449.403 212.563 447.805L225.019 442.569C229.266 440.783 233.677 439.419 238.19 438.495L238.678 438.396C247.809 436.527 257.207 436.365 266.397 437.919L311.667 445.574L348.224 450.9C354.103 451.757 360.104 450.993 365.581 448.691L367.001 448.094C375.544 444.502 381.907 437.111 384.189 428.129C385.213 424.099 385.375 419.899 384.664 415.802L379.789 387.696C378.042 377.627 375.161 367.788 371.2 358.367Z" fill="#28269B"/>
<path d="M273.063 34.0627L286.949 42.8215C296.63 48.928 305.739 55.8976 314.164 63.645L345 92L388.5 141L430 92L380.5 60.5L350.841 36.6502C338.672 26.8652 330.348 13.0993 327.334 -2.22181L326.512 -6.39687C326.172 -8.12761 325.652 -9.81828 324.962 -11.4417C320.539 -21.8487 309.783 -28.0921 298.552 -26.7709L275 -24L259 -24L253.5 -16.5L247.772 -16.5C245.326 -16.5 242.949 -15.6915 241.011 -14.2004C235.705 -10.119 235.197 -2.30289 239.931 2.43043L265.604 28.1034C267.861 30.3608 270.363 32.3595 273.063 34.0627Z" fill="#3D3AA9"/>
<path d="M230.105 7L262.5 7L315.222 7C318.959 7 322.581 8.29011 325.477 10.6523C333.137 16.9011 333.475 28.4894 326.192 35.1741L307.587 52.2522C286.643 71.477 256.193 76.2224 230.392 64.2826L218.686 58.8652C200.401 50.4035 197.349 25.6883 213.026 13.0329C217.862 9.12917 223.89 7 230.105 7Z" fill="#3D3AA9"/>
<mask id="mask1_405_63585" style="mask-type:alpha" maskUnits="userSpaceOnUse" x="23" y="-106" width="715" height="1199">
<path d="M111.02 602.346L64.648 664.724L110.476 639.351L180.332 593.952L315.657 502.709L345.406 477.224C331.415 474.516 317.065 474.205 302.969 476.305L289.697 478.282C264.22 482.077 239.692 490.658 217.405 503.572L214.142 505.463C200.453 513.396 187.644 522.756 175.928 533.388L162.507 545.567C143.542 562.777 126.299 581.793 111.02 602.346Z" fill="#3D3AA9"/>
<path d="M258.815 350.657L274.931 352.254L266.932 333.227L286.384 332.665L326.267 329.607L321.37 317.957L288.178 239L275.998 210.028C274.368 206.151 279.619 203.14 282.142 206.506L348.065 276.273L391.729 311.226L436.146 341.863C439.443 344.137 443.071 345.89 446.901 347.059C467.066 353.214 478.685 374.283 473.13 394.621L461.485 437.26L440.384 546.657L427.058 652.785L407.875 752.236L395.09 825.897C394.11 831.546 393.614 837.269 393.609 843.003L393.597 855.509C393.592 860.676 394.621 865.791 396.623 870.554C400.922 880.781 409.4 888.672 419.908 892.229L451.561 902.943C460.883 906.098 470.578 908.021 480.398 908.663L493.825 909.541L521.068 792.993L536.65 681.347L537.518 664.739C538.497 646.004 544.176 627.817 554.032 611.853C560.897 600.733 565.759 588.496 568.397 575.696L576.365 537.036C580.758 515.725 587.215 494.892 595.646 474.833L621.847 412.493C634.067 386.086 643.625 358.525 650.379 330.222L656.787 303.372L663.528 239.613L663.842 196.834L471.583 142.099L357.896 118.305L287.901 100.513L247.928 93.7218C238.644 92.1446 229.103 93.2451 220.422 96.8945L218.311 97.7817C209.804 101.358 202.685 107.595 198.021 115.557C193.46 123.344 191.485 132.376 192.378 141.356L194.785 165.55L196.597 195.251L194.052 290.755L197.148 331.472C197.51 336.242 200.887 340.244 205.528 341.404C223.041 345.784 240.851 348.876 258.815 350.657Z" fill="#3D3AA9"/>
<path d="M418.104 62.1953L427.795 63.9222L442.324 108.202C443.474 111.708 443.609 115.468 442.712 119.048C442.487 119.945 442.198 120.825 441.849 121.682L440.752 124.37C439.351 127.803 438.881 131.545 439.388 135.218L439.853 138.575C440.886 146.053 436.763 153.292 429.804 156.217C429.022 156.546 428.267 156.934 427.544 157.378L415.684 164.659C413.815 165.806 411.736 166.57 409.568 166.904C404.417 167.698 399.193 166.01 395.48 162.351L391.053 157.989C389.266 156.229 387.152 154.835 384.83 153.887C381.124 152.375 377.983 149.743 375.847 146.358L367.194 132.651C362.995 126 359.951 118.687 358.19 111.02L353.494 90.5764C359.069 80.3257 367.966 72.2775 378.723 67.7555L382.536 66.1526C393.763 61.433 406.114 60.0588 418.104 62.1953Z" fill="#3D3AA9"/>
<path d="M359.428 -83.7298L382.267 -105.509L473.729 -80.0264L635.834 -56.8417L644.664 -28.588L673.589 76.4605L693.27 159.518L707.426 231.664C708.599 237.64 707.109 243.831 703.345 248.619C701.368 251.135 698.839 253.164 695.954 254.55L656.92 273.293L654.919 235.005L619.287 240.852C592.67 242.011 566.117 237.406 541.446 227.352L536.603 225.378L487.169 202.016L475.631 195.461C456.664 184.684 436.865 175.443 416.423 167.825L430.932 156.188C431.892 155.418 432.778 154.561 433.58 153.628C436.757 149.928 438.466 145.191 438.382 140.315L438.324 136.908C438.277 134.164 438.621 131.428 439.347 128.781L439.996 126.413C442.517 117.215 442.117 107.461 438.852 98.5001L426.218 63.83L423.274 63.2729C416.307 61.9543 409.19 61.617 402.129 62.2708L398.116 62.6424C389.422 63.4475 381.02 66.1949 373.53 70.6819C364.26 76.2355 356.715 84.2564 351.738 93.8492L349.251 98.6439L341.923 66.7144L332.268 0.161249C331.215 -7.09643 330.973 -14.4487 331.545 -21.76L332.219 -30.376C333.839 -51.0694 343.629 -70.267 359.428 -83.7298Z" fill="#3D3AA9"/>
<path d="M279.403 362.895L266.884 333.115L318.704 321.996L330.596 361.18L327.792 365.406L326.978 369.602C325.289 378.299 317.573 384.511 308.716 384.303C304.197 384.197 299.88 382.41 296.608 379.292L279.403 362.895Z" fill="#3D3AA9"/>
<path d="M84.205 536.419L24.5547 608.583C23.3423 610.049 23.0446 612.068 23.7821 613.823C28.4002 624.808 34.1576 635.279 40.9598 645.064L52.1256 661.125C55.2891 665.676 61.4049 667.055 66.2159 664.304L117.916 634.737L297.029 516.123C315.858 503.655 333.404 489.351 349.412 473.421L351.337 471.505C355.425 467.437 354.249 460.547 349.044 458.065L327.127 447.614C308.383 438.677 288.051 433.549 267.311 432.527C235.095 430.941 203.172 439.322 175.89 456.529L157.223 468.303C139.874 479.244 124.09 492.489 110.303 507.675L84.205 536.419Z" fill="#2D299E"/>
<path d="M734.569 463.214L728.233 436.062C726.795 429.901 721.069 425.717 714.762 426.217L627.397 433.156L557.523 439.641L545.36 439.303C537.089 439.073 530.688 446.485 532.118 454.634L537.155 483.331C538.376 490.286 540.227 497.116 542.686 503.735L548.291 518.824C553.044 531.62 561.656 542.623 572.935 550.311C582.631 556.92 593.916 560.818 605.624 561.602L612.001 562.03C617.05 562.368 622.12 562.277 627.154 561.757L652.27 559.163C661.743 558.185 671.069 556.099 680.056 552.947L700.714 545.703C711.834 541.804 721.414 534.447 728.051 524.709C734.972 514.556 738.306 502.383 737.524 490.12L736.753 478.02C736.435 473.033 735.705 468.081 734.569 463.214Z" fill="#3D3AA9"/>
<path d="M350.25 349.818L329.275 361.669L324.506 370.601C321.665 375.921 316.084 379.201 310.054 379.094C307.414 379.047 304.826 378.35 302.52 377.065L292.073 371.242L278.87 361.627C266.25 362.91 253.89 366.062 242.196 370.978L232.586 375.018L215.322 382.275C205.281 386.496 196.05 392.429 188.04 399.81L173.707 409.702C168.48 413.31 164.871 418.819 163.652 425.053L163.039 428.182C162.779 429.513 162.805 430.885 163.117 432.205C164.011 435.996 167.121 438.863 170.972 439.448L179.566 440.753C183.643 441.372 187.812 440.854 191.613 439.256L204.069 434.02C208.315 432.234 212.727 430.87 217.24 429.946L217.728 429.847C226.859 427.978 236.257 427.816 245.447 429.37L290.717 437.025L327.273 442.351C333.152 443.208 339.154 442.444 344.631 440.142L346.05 439.545C354.594 435.953 360.957 428.562 363.239 419.58C364.263 415.55 364.425 411.349 363.714 407.253L358.838 379.147C357.092 369.078 354.211 359.239 350.25 349.818Z" fill="#28269B" stroke="#C2DBEA" stroke-width="0.222458"/>
<path d="M282.552 -26.7709L259 -24L243 -24L237.5 -16.5L232.65 -16.5C229.635 -16.5 226.704 -15.5032 224.314 -13.6647C218.958 -9.54461 217.415 -2.12946 220.684 3.78501L223.247 8.42256C224.729 11.1044 226.812 13.4064 229.333 15.1481L253 31.5L269.25 41.75C280.061 48.5694 290.233 56.3526 299.642 65.0045L329 92L372.5 141L414 92L364.5 60.5L318.302 23.3508C316.815 22.1554 315.798 20.4737 315.43 18.602L310.512 -6.39687C310.172 -8.12761 309.652 -9.81828 308.962 -11.4417C304.539 -21.8487 293.783 -28.0921 282.552 -26.7709Z" fill="#FCFFE9" stroke="#FFD88B" stroke-width="0.556279"/>
<path d="M225.105 -4L257.5 -4L310.222 -4C313.959 -4 317.581 -2.70989 320.477 -0.347678C328.137 5.90111 328.475 17.4894 321.192 24.1741L302.587 41.2522C281.643 60.477 251.193 65.2224 225.392 53.2826L213.686 47.8652C195.401 39.4035 192.349 14.6883 208.026 2.03291C212.862 -1.87083 218.89 -4 225.105 -4Z" fill="#9DC4FF"/>
</mask>
<g mask="url(#mask1_405_63585)">
<path d="M358.348 72.6754L317.219 41.1418C316.304 40.4398 315.102 40.2312 314.004 40.5836L306.458 43.0041C298.514 45.5522 291.99 51.293 288.452 58.8482L284.538 67.2058C284.14 68.0559 284.098 69.0298 284.422 69.9109L287.76 79.005C291.792 89.9862 299.546 99.2062 309.674 105.061L324.582 113.679C325.411 114.158 326.399 114.279 327.319 114.014L333.813 112.141C343.204 109.433 350.687 102.32 353.868 93.0785L359.535 76.6132C360.027 75.182 359.549 73.5963 358.348 72.6754Z" fill="#C6F8FF"/>
<path d="M358.348 72.6754L317.182 41.1134C316.288 40.4272 315.118 40.2116 314.037 40.5334L307.051 42.6138C298.757 45.0834 291.934 51.0137 288.334 58.8822L284.519 67.2169C284.133 68.0607 284.096 69.0229 284.416 69.894L293.561 94.804C293.845 95.5768 294.39 96.2257 295.103 96.6377L324.583 113.679C325.411 114.158 326.399 114.279 327.319 114.014L347.037 108.328C348.138 108.01 349.016 107.176 349.389 106.092L359.535 76.6132C360.027 75.1821 359.55 73.5963 358.348 72.6754Z" fill="url(#paint0_linear_405_63585)"/>
<rect x="287.316" y="49" width="34.2964" height="34.2964" rx="17.1482" transform="rotate(34.2788 287.316 49)" fill="#FFD8CC"/>
<rect x="348.316" y="47" width="34.2964" height="34.2964" rx="17.1482" transform="rotate(34.2788 348.316 47)" fill="#FFD8CC"/>
<rect x="314.135" y="51" width="12.6681" height="12.6681" rx="6.33404" transform="rotate(34.2788 314.135 51)" fill="url(#paint1_radial_405_63585)"/>
<path d="M84.205 536.419L24.5547 608.583C23.3422 610.049 23.0446 612.068 23.7821 613.823C28.4002 624.808 34.1576 635.279 40.9598 645.064L52.1255 661.125C55.2891 665.676 61.4049 667.055 66.2159 664.304L117.916 634.737L297.029 516.123C315.858 503.655 333.404 489.351 349.412 473.421L351.337 471.505C355.425 467.437 354.249 460.547 349.044 458.065L327.127 447.614C308.383 438.677 288.051 433.549 267.311 432.527C235.095 430.941 203.172 439.322 175.89 456.529L157.223 468.303C139.874 479.244 124.09 492.489 110.303 507.675L84.205 536.419Z" fill="#D8F2D5"/>
<path d="M84.205 536.419L24.5547 608.583C23.3422 610.049 23.0446 612.068 23.7821 613.823C28.4002 624.808 34.1576 635.279 40.9598 645.064L52.1255 661.125C55.2891 665.676 61.4049 667.055 66.2159 664.304L117.916 634.737L297.029 516.123C315.858 503.655 333.404 489.351 349.412 473.421L351.337 471.505C355.425 467.437 354.249 460.547 349.044 458.065L327.127 447.614C308.383 438.677 288.051 433.549 267.311 432.527C235.095 430.941 203.172 439.322 175.89 456.529L157.223 468.303C139.874 479.244 124.09 492.489 110.303 507.675L84.205 536.419Z" fill="url(#paint2_linear_405_63585)"/>
<mask id="mask2_405_63585" style="mask-type:alpha" maskUnits="userSpaceOnUse" x="23" y="432" width="331" height="234">
<path d="M84.205 536.419L24.5547 608.583C23.3422 610.049 23.0446 612.068 23.7821 613.823C28.4002 624.808 34.1576 635.279 40.9598 645.064L52.1255 661.125C55.2891 665.676 61.4049 667.055 66.2159 664.304L117.916 634.737L297.029 516.123C315.858 503.655 333.404 489.351 349.412 473.421L351.337 471.505C355.425 467.437 354.249 460.547 349.044 458.065L327.127 447.614C308.383 438.677 288.051 433.549 267.311 432.527C235.095 430.941 203.172 439.322 175.89 456.529L157.223 468.303C139.874 479.244 124.09 492.489 110.303 507.675L84.205 536.419Z" fill="#D9D9D9"/>
</mask>
<g mask="url(#mask2_405_63585)">
<rect x="145.17" y="401.644" width="109.79" height="109.79" rx="54.895" transform="rotate(-22.8012 145.17 401.644)" fill="#FFD8CC"/>
<rect x="-37.6561" y="578.301" width="109.79" height="109.79" rx="54.895" transform="rotate(-22.8012 -37.6561 578.301)" fill="#FFD8CC"/>
</g>
<path d="M734.569 463.214L728.233 436.062C726.795 429.901 721.069 425.716 714.762 426.217L627.396 433.155L557.523 439.641L545.359 439.303C537.089 439.073 530.688 446.485 532.118 454.634L537.155 483.331C538.376 490.286 540.227 497.116 542.686 503.735L548.291 518.824C553.044 531.62 561.656 542.623 572.935 550.311C582.631 556.919 593.916 560.818 605.624 561.602L612.001 562.03C617.05 562.368 622.12 562.277 627.154 561.757L652.27 559.163C661.743 558.185 671.069 556.098 680.056 552.947L700.714 545.703C711.834 541.804 721.414 534.447 728.051 524.709C734.972 514.556 738.306 502.382 737.524 490.119L736.753 478.02C736.435 473.033 735.705 468.081 734.569 463.214Z" fill="#0A78F9"/>
<path d="M734.569 463.214L728.233 436.062C726.795 429.901 721.069 425.716 714.762 426.217L627.396 433.155L557.523 439.641L545.359 439.303C537.089 439.073 530.688 446.485 532.118 454.634L537.155 483.331C538.376 490.286 540.227 497.116 542.686 503.735L548.291 518.824C553.044 531.62 561.656 542.623 572.935 550.311C582.631 556.919 593.916 560.818 605.624 561.602L612.001 562.03C617.05 562.368 622.12 562.277 627.154 561.757L652.27 559.163C661.743 558.185 671.069 556.098 680.056 552.947L700.714 545.703C711.834 541.804 721.414 534.447 728.051 524.709C734.972 514.556 738.306 502.382 737.524 490.119L736.753 478.02C736.435 473.033 735.705 468.081 734.569 463.214Z" fill="url(#paint3_linear_405_63585)"/>
<mask id="mask3_405_63585" style="mask-type:alpha" maskUnits="userSpaceOnUse" x="531" y="426" width="207" height="137">
<path d="M734.569 463.214L728.233 436.062C726.795 429.901 721.069 425.716 714.762 426.217L627.396 433.155L557.523 439.641L545.359 439.303C537.089 439.073 530.688 446.485 532.118 454.634L537.155 483.331C538.376 490.286 540.227 497.116 542.686 503.735L548.291 518.824C553.044 531.62 561.656 542.623 572.935 550.311C582.631 556.919 593.916 560.818 605.624 561.602L612.001 562.03C617.05 562.368 622.12 562.277 627.154 561.757L652.27 559.163C661.743 558.185 671.069 556.098 680.056 552.947L700.714 545.703C711.834 541.804 721.414 534.447 728.051 524.709C734.972 514.556 738.306 502.382 737.524 490.119L736.753 478.02C736.435 473.033 735.705 468.081 734.569 463.214Z" fill="#0A78F9"/>
</mask>
<g mask="url(#mask3_405_63585)">
<g style="mix-blend-mode:screen">
<ellipse cx="734.257" cy="415.972" rx="155.5" ry="63.5" transform="rotate(-22.8012 734.257 415.972)" fill="#3656FF"/>
</g>
<rect x="641.56" y="442.924" width="12.6681" height="12.6681" rx="6.33404" transform="rotate(34.2788 641.56 442.924)" fill="url(#paint4_radial_405_63585)"/>
<rect x="496.33" y="328.604" width="184.391" height="184.391" rx="92.1955" transform="rotate(34.2788 496.33 328.604)" fill="#FFD8CC"/>
<rect x="741.36" y="418.964" width="131.607" height="131.607" rx="65.8036" transform="rotate(34.2788 741.36 418.964)" fill="#FFD8CC"/>
</g>
<path d="M111.02 602.346L64.6482 664.724L110.476 639.351L180.332 593.952L287.353 523.861C308.167 510.229 327.609 494.61 345.407 477.224C331.415 474.516 317.065 474.205 302.969 476.305L289.698 478.282C264.221 482.077 239.692 490.658 217.405 503.572L214.142 505.463C200.453 513.396 187.644 522.756 175.928 533.388L162.507 545.567C143.542 562.777 126.299 581.793 111.02 602.346Z" fill="url(#paint5_linear_405_63585)"/>
<mask id="mask4_405_63585" style="mask-type:alpha" maskUnits="userSpaceOnUse" x="197" y="-4" width="130" height="64">
<path d="M225.104 -4L257.5 -4L310.222 -4C313.959 -4 317.581 -2.70988 320.477 -0.347674C328.136 5.90111 328.475 17.4894 321.192 24.1741L302.587 41.2522C281.643 60.477 251.193 65.2224 225.392 53.2826L213.685 47.8652C195.4 39.4035 192.348 14.6883 208.026 2.03291C212.862 -1.87083 218.889 -4 225.104 -4Z" fill="#9DC4FF"/>
</mask>
<g mask="url(#mask4_405_63585)">
<path d="M225.104 -4L257.5 -4L310.222 -4C313.959 -4 317.581 -2.70988 320.477 -0.347674C328.136 5.90111 328.475 17.4894 321.192 24.1741L302.587 41.2522C281.643 60.477 251.193 65.2224 225.392 53.2826L213.685 47.8652C195.4 39.4035 192.348 14.6883 208.026 2.03291C212.862 -1.87083 218.889 -4 225.104 -4Z" fill="#DCEAFF"/>
<g style="mix-blend-mode:hard-light">
<path d="M225.104 -4L257.5 -4L310.222 -4C313.959 -4 317.581 -2.70988 320.477 -0.347674C328.136 5.90111 328.475 17.4894 321.192 24.1741L302.587 41.2522C281.643 60.477 251.193 65.2224 225.392 53.2826L213.685 47.8652C195.4 39.4035 192.348 14.6883 208.026 2.03291C212.862 -1.87083 218.889 -4 225.104 -4Z" fill="url(#paint6_linear_405_63585)"/>
</g>
<rect x="258.634" y="-4.5" width="12.6681" height="12.6681" rx="6.33404" transform="rotate(34.2788 258.634 -4.5)" fill="url(#paint7_radial_405_63585)"/>
<rect x="167.317" y="13.4093" width="66.6121" height="66.6121" rx="33.3061" transform="rotate(-22.8012 167.317 13.4093)" fill="#FFF5F2"/>
<rect x="270.5" y="-27.6854" width="66.6121" height="66.6121" rx="33.3061" transform="rotate(-22.8012 270.5 -27.6854)" fill="#FFD8CC"/>
</g>
<path d="M279.403 362.895L266.884 333.115L318.704 321.996L330.596 361.18L327.792 365.406L326.978 369.602C325.289 378.299 317.574 384.51 308.716 384.303C304.197 384.197 299.88 382.41 296.608 379.292L279.403 362.895Z" fill="#FCFFE9" stroke="#FFD88B" stroke-width="0.556279"/>
<path d="M279.403 362.895L266.884 333.115L318.704 321.996L330.596 361.18L327.792 365.406L326.978 369.602C325.289 378.299 317.574 384.51 308.716 384.303C304.197 384.197 299.88 382.41 296.608 379.292L279.403 362.895Z" fill="url(#paint8_linear_405_63585)" stroke="#FFD88B" stroke-width="0.703782"/>
<path d="M258.815 350.657L274.931 352.254L266.932 333.227L286.384 332.665L326.267 329.607L321.37 317.957L288.178 239.001L275.998 210.028C274.368 206.151 279.619 203.14 282.142 206.506L348.065 276.273L391.729 311.226L436.146 341.863C439.443 344.138 443.071 345.89 446.901 347.059C467.066 353.214 478.685 374.284 473.13 394.621L461.485 437.26L440.384 546.657L427.058 652.785L407.875 752.237L395.09 825.897C394.11 831.546 393.614 837.269 393.609 843.003L393.597 855.509C393.592 860.676 394.621 865.791 396.623 870.554C400.922 880.781 409.4 888.673 419.908 892.229L451.561 902.943C460.883 906.098 470.578 908.021 480.398 908.663L493.825 909.541L521.068 792.993L536.65 681.347L537.518 664.739C538.497 646.004 544.176 627.817 554.032 611.853C560.897 600.734 565.759 588.496 568.397 575.697L576.365 537.036C580.758 515.725 587.215 494.892 595.646 474.833L621.847 412.494C634.067 386.086 643.625 358.526 650.379 330.222L656.787 303.372L663.528 239.613L663.842 196.834L471.583 142.099L357.896 118.305L287.901 100.513L247.928 93.7219C238.644 92.1447 229.103 93.2452 220.422 96.8946L218.311 97.7818C209.804 101.358 202.685 107.595 198.021 115.558C193.46 123.344 191.485 132.376 192.378 141.356L194.785 165.551L196.597 195.251L194.052 290.755L197.148 331.472C197.51 336.242 200.887 340.244 205.528 341.405C223.041 345.784 240.851 348.876 258.815 350.657Z" fill="#FFB59D" stroke="#778EDE" stroke-width="1.09877"/>
<g style="mix-blend-mode:color-dodge" opacity="0.5">
<path d="M258.815 350.657L274.931 352.254L266.932 333.227L286.384 332.665L326.267 329.607L321.37 317.957L288.178 239.001L275.998 210.028C274.368 206.151 279.619 203.14 282.142 206.506L348.065 276.273L391.729 311.226L436.146 341.863C439.443 344.138 443.071 345.89 446.901 347.059C467.066 353.214 478.685 374.284 473.13 394.621L461.485 437.26L440.384 546.657L427.058 652.785L407.875 752.237L395.09 825.897C394.11 831.546 393.614 837.269 393.609 843.003L393.597 855.509C393.592 860.676 394.621 865.791 396.623 870.554C400.922 880.781 409.4 888.673 419.908 892.229L451.561 902.943C460.883 906.098 470.578 908.021 480.398 908.663L493.825 909.541L521.068 792.993L536.65 681.347L537.518 664.739C538.497 646.004 544.176 627.817 554.032 611.853C560.897 600.734 565.759 588.496 568.397 575.697L576.365 537.036C580.758 515.725 587.215 494.892 595.646 474.833L621.847 412.494C634.067 386.086 643.625 358.526 650.379 330.222L656.787 303.372L663.528 239.613L663.842 196.834L471.583 142.099L357.896 118.305L287.901 100.513L247.928 93.7219C238.644 92.1447 229.103 93.2452 220.422 96.8946L218.311 97.7818C209.804 101.358 202.685 107.595 198.021 115.558C193.46 123.344 191.485 132.376 192.378 141.356L194.785 165.551L196.597 195.251L194.052 290.755L197.148 331.472C197.51 336.242 200.887 340.244 205.528 341.405C223.041 345.784 240.851 348.876 258.815 350.657Z" fill="#DD32B7"/>
</g>
<mask id="mask5_405_63585" style="mask-type:alpha" maskUnits="userSpaceOnUse" x="191" y="92" width="474" height="818">
<path d="M258.815 350.657L274.931 352.254L266.932 333.227L286.384 332.665L326.267 329.607L321.37 317.957L288.178 239.001L275.998 210.028C274.368 206.151 279.619 203.14 282.142 206.506L348.065 276.273L391.729 311.226L436.146 341.863C439.443 344.138 443.071 345.89 446.901 347.059C467.066 353.214 478.685 374.284 473.13 394.621L461.485 437.26L440.384 546.657L427.058 652.785L407.875 752.237L395.09 825.897C394.11 831.546 393.614 837.269 393.609 843.003L393.597 855.509C393.592 860.676 394.621 865.791 396.623 870.554C400.922 880.781 409.4 888.673 419.908 892.229L451.561 902.943C460.883 906.098 470.578 908.021 480.398 908.663L493.825 909.541L521.068 792.993L536.65 681.347L537.518 664.739C538.497 646.004 544.176 627.817 554.032 611.853C560.897 600.734 565.759 588.496 568.397 575.697L576.365 537.036C580.758 515.725 587.215 494.892 595.646 474.833L621.847 412.494C634.067 386.086 643.625 358.526 650.379 330.222L656.787 303.372L663.528 239.613L663.842 196.834L471.583 142.099L357.896 118.305L287.901 100.513L247.928 93.7219C238.644 92.1447 229.103 93.2452 220.422 96.8946L218.311 97.7818C209.804 101.358 202.685 107.595 198.021 115.558C193.46 123.344 191.485 132.376 192.378 141.356L194.785 165.551L196.597 195.251L194.052 290.755L197.148 331.472C197.51 336.242 200.887 340.244 205.528 341.405C223.041 345.784 240.851 348.876 258.815 350.657Z" fill="#FFCB9A" stroke="#EA4050" stroke-width="0.778166"/>
</mask>
<g mask="url(#mask5_405_63585)">
<path d="M437.976 780.361L437.009 806.952L462.342 818.948L436.044 813.148L428.881 838.775L429.915 810.822L402.063 802.681L431.113 804.592L437.976 780.361Z" fill="#D3FDE3"/>
<path d="M283.077 288.641L291.998 303.53L310.119 301.088L293.673 307.262L298.862 323.826L289.493 308.168L271.365 313.614L287.935 304.334L283.077 288.641Z" fill="#D3FDE3"/>
<path d="M235.902 283.289L240.277 300.086L258.353 302.837L240.834 304.138L241.157 321.492L236.569 303.832L217.64 303.961L236.151 299.715L235.902 283.289Z" fill="#D3FDE3"/>
<path d="M190.974 285.38L195.349 302.177L213.425 304.929L195.906 306.229L196.229 323.584L191.641 305.923L172.713 306.052L191.223 301.806L190.974 285.38Z" fill="#D3FDE3"/>
</g>
<g style="mix-blend-mode:color-burn">
<path d="M258.815 350.657L274.931 352.254L266.932 333.227L286.384 332.665L326.267 329.607L321.37 317.957L288.178 239.001L275.998 210.028C274.368 206.151 279.619 203.14 282.142 206.506L348.065 276.273L391.729 311.226L436.146 341.863C439.443 344.138 443.071 345.89 446.901 347.059C467.066 353.214 478.685 374.284 473.13 394.621L461.485 437.26L440.384 546.657L427.058 652.785L407.875 752.237L395.09 825.897C394.11 831.546 393.614 837.269 393.609 843.003L393.597 855.509C393.592 860.676 394.621 865.791 396.623 870.554C400.922 880.781 409.4 888.673 419.908 892.229L451.561 902.943C460.883 906.098 470.578 908.021 480.398 908.663L493.825 909.541L521.068 792.993L536.65 681.347L537.518 664.739C538.497 646.004 544.176 627.817 554.032 611.853C560.897 600.734 565.759 588.496 568.397 575.697L576.365 537.036C580.758 515.725 587.215 494.892 595.646 474.833L621.847 412.494C634.067 386.086 643.625 358.526 650.379 330.222L656.787 303.372L663.528 239.613L663.842 196.834L471.583 142.099L357.896 118.305L287.901 100.513L247.928 93.7219C238.644 92.1447 229.103 93.2452 220.422 96.8946L218.311 97.7818C209.804 101.358 202.685 107.595 198.021 115.558C193.46 123.344 191.485 132.376 192.378 141.356L194.785 165.551L196.597 195.251L194.052 290.755L197.148 331.472C197.51 336.242 200.887 340.244 205.528 341.405C223.041 345.784 240.851 348.876 258.815 350.657Z" fill="url(#paint9_linear_405_63585)"/>
<path d="M258.815 350.657L274.931 352.254L266.932 333.227L286.384 332.665L326.267 329.607L321.37 317.957L288.178 239.001L275.998 210.028C274.368 206.151 279.619 203.14 282.142 206.506L348.065 276.273L391.729 311.226L436.146 341.863C439.443 344.138 443.071 345.89 446.901 347.059C467.066 353.214 478.685 374.284 473.13 394.621L461.485 437.26L440.384 546.657L427.058 652.785L407.875 752.237L395.09 825.897C394.11 831.546 393.614 837.269 393.609 843.003L393.597 855.509C393.592 860.676 394.621 865.791 396.623 870.554C400.922 880.781 409.4 888.673 419.908 892.229L451.561 902.943C460.883 906.098 470.578 908.021 480.398 908.663L493.825 909.541L521.068 792.993L536.65 681.347L537.518 664.739C538.497 646.004 544.176 627.817 554.032 611.853C560.897 600.734 565.759 588.496 568.397 575.697L576.365 537.036C580.758 515.725 587.215 494.892 595.646 474.833L621.847 412.494C634.067 386.086 643.625 358.526 650.379 330.222L656.787 303.372L663.528 239.613L663.842 196.834L471.583 142.099L357.896 118.305L287.901 100.513L247.928 93.7219C238.644 92.1447 229.103 93.2452 220.422 96.8946L218.311 97.7818C209.804 101.358 202.685 107.595 198.021 115.558C193.46 123.344 191.485 132.376 192.378 141.356L194.785 165.551L196.597 195.251L194.052 290.755L197.148 331.472C197.51 336.242 200.887 340.244 205.528 341.405C223.041 345.784 240.851 348.876 258.815 350.657Z" stroke="#EA4050" stroke-width="0.778166"/>
</g>
<g filter="url(#filter0_f_405_63585)">
<path d="M402.634 79.7108L716.008 203.154L671.874 315.194L394.873 209.891L375.654 140.952L402.634 79.7108Z" fill="url(#paint10_linear_405_63585)"/>
</g>
<g style="mix-blend-mode:screen">
<ellipse cx="274.615" cy="481.197" rx="155.5" ry="84.5" transform="rotate(-22.8012 274.615 481.197)" fill="#3656FF"/>
</g>
<path d="M350.25 349.818L329.275 361.669L324.506 370.601C321.665 375.921 316.084 379.201 310.054 379.094C307.414 379.047 304.826 378.35 302.52 377.065L292.073 371.242L278.87 361.627C266.25 362.91 253.89 366.062 242.196 370.978L232.585 375.018L215.322 382.275C205.281 386.496 196.05 392.429 188.04 399.81L173.707 409.702C168.48 413.31 164.871 418.819 163.651 425.053L163.039 428.182C162.779 429.513 162.805 430.885 163.117 432.205C164.011 435.996 167.12 438.863 170.972 439.448L179.566 440.753C183.643 441.372 187.812 440.854 191.613 439.256L204.068 434.02C208.315 432.234 212.727 430.87 217.24 429.946L217.728 429.847C226.859 427.978 236.257 427.816 245.447 429.37L290.717 437.025L327.273 442.351C333.152 443.208 339.154 442.444 344.63 440.142L346.05 439.545C354.593 435.953 360.957 428.562 363.239 419.58C364.263 415.55 364.425 411.349 363.714 407.253L358.838 379.147C357.092 369.078 354.21 359.239 350.25 349.818Z" fill="#D6FDFF" stroke="#C2DBEA" stroke-width="0.222458"/>
<path d="M350.25 349.818L329.275 361.669L324.506 370.601C321.665 375.921 316.084 379.201 310.054 379.094C307.414 379.047 304.826 378.35 302.52 377.065L292.073 371.242L278.87 361.627C266.25 362.91 253.89 366.062 242.196 370.978L232.585 375.018L215.322 382.275C205.281 386.496 196.05 392.429 188.04 399.81L173.707 409.702C168.48 413.31 164.871 418.819 163.651 425.053L163.039 428.182C162.779 429.513 162.805 430.885 163.117 432.205C164.011 435.996 167.12 438.863 170.972 439.448L179.566 440.753C183.643 441.372 187.812 440.854 191.613 439.256L204.068 434.02C208.315 432.234 212.727 430.87 217.24 429.946L217.728 429.847C226.859 427.978 236.257 427.816 245.447 429.37L290.717 437.025L327.273 442.351C333.152 443.208 339.154 442.444 344.63 440.142L346.05 439.545C354.593 435.953 360.957 428.562 363.239 419.58C364.263 415.55 364.425 411.349 363.714 407.253L358.838 379.147C357.092 369.078 354.21 359.239 350.25 349.818Z" fill="url(#paint11_linear_405_63585)" stroke="#C2DBEA" stroke-width="0.222458"/>
<mask id="mask6_405_63585" style="mask-type:alpha" maskUnits="userSpaceOnUse" x="162" y="349" width="203" height="94">
<path d="M350.25 349.818L329.275 361.669L324.506 370.601C321.665 375.921 316.084 379.201 310.054 379.094C307.414 379.047 304.826 378.35 302.52 377.065L292.073 371.242L278.87 361.627C266.25 362.91 253.89 366.062 242.196 370.978L232.585 375.018L215.322 382.275C205.281 386.496 196.05 392.429 188.04 399.81L173.707 409.702C168.48 413.31 164.871 418.819 163.651 425.053L163.039 428.182C162.779 429.513 162.805 430.885 163.117 432.205C164.011 435.996 167.12 438.863 170.972 439.448L179.566 440.753C183.643 441.372 187.812 440.854 191.613 439.256L204.068 434.02C208.315 432.234 212.727 430.87 217.24 429.946L217.728 429.847C226.859 427.978 236.257 427.816 245.447 429.37L290.717 437.025L327.273 442.351C333.152 443.208 339.154 442.444 344.63 440.142L346.05 439.545C354.593 435.953 360.957 428.562 363.239 419.58C364.263 415.55 364.425 411.349 363.714 407.253L358.838 379.147C357.092 369.078 354.21 359.239 350.25 349.818Z" fill="#D6FDFF" stroke="#C2DBEA" stroke-width="0.222458"/>
</mask>
<g mask="url(#mask6_405_63585)">
<path d="M222.787 383.491L221.232 379.791L251.607 363.968L278.612 361.013L289.976 368.069L274.405 374.615L254.584 381.039L235.962 388.867C232.633 390.267 228.81 389.775 225.944 387.579C224.554 386.514 223.466 385.105 222.787 383.491Z" fill="#D9D9D9"/>
<path d="M230.639 375.836L233.894 383.58L237.127 373.109L241.344 371.336L249.942 377.173L249.778 367.79L253.995 366.017L265.722 373.607L267.55 363.755L271.118 362.255L269.728 376.2L264.862 378.245L254.414 371.003L255.233 380.766L250.043 382.948L239.989 375.289L235.685 387.839L232.117 389.339L227.071 377.336L230.639 375.836Z" fill="#FFED46"/>
<path d="M175.307 419.44L170.475 416.892C168.909 416.066 167.019 416.154 165.537 417.121C164.948 417.505 164.449 418.012 164.074 418.607L162.637 420.889C160.963 423.546 160.152 426.656 160.317 429.792C160.472 432.74 161.48 435.579 163.221 437.963L163.41 438.222C166.679 442.701 172.002 445.209 177.537 444.879L183.974 444.495C187.144 444.305 190.259 443.58 193.187 442.349L200.884 439.113C213.345 433.875 226.966 432.01 240.376 433.706L295.295 440.65L338.903 442.522C346.241 442.837 353.334 439.846 358.231 434.372C363.041 428.994 365.239 421.769 364.238 414.623L364.099 413.635C342.779 424.335 318.512 428.079 294.946 424.383L290.654 423.725C264.717 419.749 238.523 417.677 212.283 417.526L183.607 420.974C180.749 421.317 177.854 420.782 175.307 419.44Z" fill="#D9D9D9"/>
<path d="M175.307 419.44L170.475 416.892C168.909 416.067 167.019 416.154 165.537 417.121C164.948 417.505 164.449 418.012 164.074 418.607L162.636 420.889C160.963 423.546 160.152 426.656 160.317 429.792C160.471 432.74 161.48 435.579 163.221 437.963L163.41 438.222C166.679 442.701 172.002 445.21 177.537 444.879L183.974 444.495C187.144 444.305 190.259 443.58 193.187 442.349L200.884 439.113C213.345 433.875 226.965 432.01 240.376 433.706L295.295 440.65L338.903 442.523C346.241 442.838 353.334 439.846 358.231 434.372C363.041 428.994 365.239 421.769 364.237 414.623L364.099 413.635C342.779 424.335 318.512 428.08 294.945 424.383L290.654 423.725C264.717 419.749 238.523 417.677 212.283 417.526L183.607 420.974C180.749 421.317 177.854 420.782 175.307 419.44Z" fill="url(#paint12_linear_405_63585)"/>
<path d="M255.932 413.3L248.668 410.181C245.145 408.668 241.865 406.643 238.934 404.17C232.585 398.815 224.688 395.632 216.4 395.086L208.685 394.579C205.625 394.377 202.651 393.483 199.987 391.962L198.59 391.164C194.689 388.937 190.047 388.402 185.742 389.682L178.911 391.713C174.346 393.07 171.644 397.764 172.763 402.393C173.454 405.25 175.504 407.586 178.247 408.641L189.832 413.101C194.605 414.938 199.744 415.627 204.833 415.112L222.423 413.331C229.317 412.633 236.268 413.894 242.478 416.969C246.395 418.909 250.626 420.136 254.973 420.593L295.161 424.816C319.85 427.41 344.807 424.436 368.194 416.112L361.686 395.181L347.574 403.359C339.415 408.086 330.699 411.779 321.628 414.353C301.35 420.105 279.872 420.101 259.597 414.341L255.932 413.3Z" fill="#FFF84E"/>
<path d="M180.75 407.307L176.974 405.267L167.284 396.744L163.722 417.327C176.448 423.224 190.519 425.613 204.478 424.245L255.382 419.257C253.108 413.845 247.597 410.524 241.749 411.04L211.667 413.694C200.959 414.639 190.208 412.419 180.75 407.307Z" fill="#176F65"/>
</g>
<path d="M282.553 -26.7709L259 -24L243 -24L237.5 -16.5L232.791 -16.5C229.685 -16.5 226.665 -15.473 224.203 -13.579C218.859 -9.46793 217.177 -2.14609 220.192 3.88474L224.409 12.3181C224.468 12.4373 224.558 12.5389 224.669 12.6128L253 31.5C274.623 45.1387 294.967 60.7051 313.785 78.009L329 92L372.5 141L414 92L364.5 60.5L334.841 36.6502C322.672 26.8652 314.348 13.0993 311.334 -2.22181L310.512 -6.39687C310.172 -8.12761 309.652 -9.81828 308.963 -11.4417C304.54 -21.8487 293.783 -28.0921 282.553 -26.7709Z" fill="#FCFFE9" stroke="#FFD88B" stroke-width="0.556279"/>
<path d="M282.553 -26.7709L259 -24L243 -24L237.5 -16.5L232.687 -16.5C229.648 -16.5 226.694 -15.4953 224.285 -13.6422C218.932 -9.5241 217.352 -2.1329 220.554 3.81401L225.203 12.4489C225.398 12.8109 225.678 13.1199 226.019 13.3493L253 31.5C274.623 45.1387 294.967 60.7051 313.785 78.009L329 92L372.5 141L414 92L364.5 60.5L334.841 36.6502C322.672 26.8652 314.348 13.0993 311.334 -2.22181L310.512 -6.39687C310.172 -8.12761 309.652 -9.81828 308.963 -11.4417C304.54 -21.8487 293.783 -28.0921 282.553 -26.7709Z" fill="url(#paint13_linear_405_63585)" stroke="#FFD88B" stroke-width="0.703782"/>
<path d="M418.104 62.1953L427.794 63.9222L442.323 108.202C443.474 111.708 443.608 115.468 442.711 119.048C442.487 119.945 442.198 120.825 441.849 121.682L440.963 123.854C439.424 127.625 438.907 131.735 439.465 135.77L439.693 137.422C440.848 145.781 436.809 154.004 429.487 158.199C428.357 158.846 427.291 159.598 426.303 160.446L422.447 163.754C418.705 166.963 413.89 168.642 408.965 168.454C404.086 168.269 399.452 166.266 395.974 162.839L391.053 157.989C389.266 156.229 387.152 154.835 384.83 153.887C381.124 152.375 377.983 149.743 375.847 146.358L367.193 132.651C362.995 126 359.95 118.687 358.19 111.02L353.494 90.5764C359.069 80.3257 367.966 72.2775 378.723 67.7555L382.536 66.1526C393.763 61.433 406.114 60.0588 418.104 62.1953Z" fill="#FCFFE9" stroke="#FFD88B" stroke-width="0.556279"/>
<path d="M417.035 60.8751L427 62L436 88L442.389 108.205C443.497 111.712 443.611 115.458 442.717 119.026C442.488 119.938 442.195 120.832 441.84 121.703L440.963 123.854C439.424 127.625 438.907 131.735 439.465 135.77L439.693 137.422C440.848 145.781 436.809 154.004 429.487 158.199C428.357 158.846 427.291 159.598 426.303 160.446L422.447 163.754C418.705 166.963 413.89 168.642 408.965 168.454C404.086 168.269 399.452 166.266 395.974 162.839L391.053 157.989C389.266 156.229 387.152 154.835 384.83 153.887C381.124 152.375 377.983 149.743 375.847 146.358L367.193 132.651C362.995 126 359.95 118.687 358.19 111.02L353.494 90.5764C359.069 80.3257 367.966 72.2775 378.723 67.7555L383.686 65.669C394.21 61.2451 405.692 59.5945 417.035 60.8751Z" fill="url(#paint14_linear_405_63585)" stroke="#FFD88B" stroke-width="0.703782"/>
<rect x="348" y="69.858" width="79" height="51.5979" transform="rotate(-15.3091 348 69.858)" fill="url(#paint15_linear_405_63585)"/>
<g style="mix-blend-mode:color-burn" opacity="0.5" filter="url(#filter1_f_405_63585)">
<rect x="196" y="-86" width="247" height="177" fill="#A7B094"/>
</g>
<path d="M359.428 -83.7301L382.268 -105.509L512.491 -160.253L601.911 -197.844L627.925 -196.602C632.465 -166.915 634.39 -136.887 633.678 -106.864L633.402 -95.2579C633.372 -93.9996 633.465 -92.7415 633.68 -91.5012L644.486 -29.0118L673.59 76.4602L693.27 159.518L707.399 231.525C708.589 237.59 707.077 243.871 703.259 248.73C701.336 251.176 698.9 253.169 696.121 254.569L663.879 270.815L654.919 235.005L619.288 240.851C592.671 242.011 566.118 237.406 541.446 227.352L536.604 225.378L487.17 202.016L475.632 195.46C456.665 184.684 436.866 175.442 416.424 167.825L430.933 156.188C431.893 155.418 432.779 154.561 433.58 153.628C436.758 149.928 438.467 145.191 438.383 140.314L438.325 136.949C438.278 134.178 438.631 131.415 439.374 128.746L440.108 126.106C442.732 116.678 442.386 106.67 439.12 97.4446L426.753 62.5203L420.704 61.9859C415.427 61.5196 410.119 61.5307 404.844 62.0192L398.117 62.6421C389.423 63.4472 381.021 66.1947 373.531 70.6816C364.26 76.2353 356.715 84.2562 351.739 93.849L349.252 98.6436L341.923 66.7141L332.269 0.161005C331.216 -7.09667 330.973 -14.4489 331.546 -21.7602L332.22 -30.3762C333.84 -51.0696 343.63 -70.2672 359.428 -83.7301Z" fill="#DCFFE6" stroke="#B18D74" stroke-width="0.333767"/>
<path d="M359.428 -83.7301L382.268 -105.509L473.73 -80.0266L635.834 -56.842L644.664 -28.5882L673.59 76.4602L693.27 159.518L707.399 231.525C708.589 237.59 707.077 243.871 703.259 248.73C701.336 251.176 698.9 253.169 696.121 254.569L663.879 270.815L654.919 235.005L619.288 240.851C592.671 242.011 566.118 237.406 541.446 227.352L536.604 225.378L487.17 202.016L475.632 195.46C456.665 184.684 436.866 175.442 416.424 167.825L430.933 156.188C431.893 155.418 432.779 154.561 433.58 153.628C436.758 149.928 438.467 145.191 438.383 140.314L438.33 137.217C438.279 134.272 438.693 131.336 439.556 128.519L440.295 126.106C443.136 116.833 442.832 106.881 439.431 97.7987L426.292 62.7141L421.22 62.1779C415.602 61.5841 409.94 61.5473 404.315 62.0682L398.117 62.6421C389.423 63.4472 381.021 66.1947 373.531 70.6816C364.26 76.2353 356.715 84.2562 351.739 93.849L349.252 98.6436L341.923 66.7141L332.269 0.161005C331.216 -7.09667 330.973 -14.4489 331.546 -21.7602L332.22 -30.3762C333.84 -51.0696 343.63 -70.2672 359.428 -83.7301Z" fill="url(#paint16_linear_405_63585)"/>
<g style="mix-blend-mode:color-burn">
<path d="M359.428 -83.7301L382.268 -105.509L473.73 -80.0266L635.834 -56.842L644.664 -28.5882L673.59 76.4602L693.27 159.518L707.399 231.525C708.589 237.59 707.077 243.871 703.259 248.73C701.336 251.176 698.9 253.169 696.121 254.569L663.879 270.815L654.919 235.005L619.288 240.851C592.671 242.011 566.118 237.406 541.446 227.352L536.604 225.378L487.17 202.016L475.632 195.46C456.665 184.684 436.866 175.442 416.424 167.825L430.933 156.188C431.893 155.418 432.779 154.561 433.58 153.628C436.758 149.928 438.467 145.191 438.383 140.314L438.33 137.217C438.279 134.272 438.693 131.336 439.556 128.519L440.295 126.108C443.135 116.834 442.829 106.88 439.424 97.7979L426.098 62.2532L420.208 61.8252C415.26 61.4657 410.29 61.5149 405.349 61.9724L398.117 62.6421C389.423 63.4472 381.021 66.1947 373.531 70.6816C364.26 76.2353 356.715 84.2562 351.739 93.849L349.252 98.6436L341.923 66.7141L332.269 0.161005C331.216 -7.09667 330.973 -14.4489 331.546 -21.7602L332.22 -30.3762C333.84 -51.0696 343.63 -70.2672 359.428 -83.7301Z" fill="url(#paint17_linear_405_63585)"/>
<path d="M359.428 -83.7301L382.268 -105.509L473.73 -80.0266L635.834 -56.842L644.664 -28.5882L673.59 76.4602L693.27 159.518L707.399 231.525C708.589 237.59 707.077 243.871 703.259 248.73C701.336 251.176 698.9 253.169 696.121 254.569L663.879 270.815L654.919 235.005L619.288 240.851C592.671 242.011 566.118 237.406 541.446 227.352L536.604 225.378L487.17 202.016L475.632 195.46C456.665 184.684 436.866 175.442 416.424 167.825L430.933 156.188C431.893 155.418 432.779 154.561 433.58 153.628C436.758 149.928 438.467 145.191 438.383 140.314L438.33 137.217C438.279 134.272 438.693 131.336 439.556 128.519L440.295 126.108C443.135 116.834 442.829 106.88 439.424 97.7979L426.098 62.2532L420.208 61.8252C415.26 61.4657 410.29 61.5149 405.349 61.9724L398.117 62.6421C389.423 63.4472 381.021 66.1947 373.531 70.6816C364.26 76.2353 356.715 84.2562 351.739 93.849L349.252 98.6436L341.923 66.7141L332.269 0.161005C331.216 -7.09667 330.973 -14.4489 331.546 -21.7602L332.22 -30.3762C333.84 -51.0696 343.63 -70.2672 359.428 -83.7301Z" stroke="#C7FFDF" stroke-width="0.703782"/>
</g>
<g style="mix-blend-mode:screen">
<ellipse cx="645.965" cy="-38.8053" rx="224" ry="187" transform="rotate(-22.8012 645.965 -38.8053)" fill="#3656FF"/>
</g>
<g opacity="0.3" filter="url(#filter2_f_405_63585)">
<ellipse cx="441.721" cy="348.417" rx="87.4721" ry="106.179" transform="rotate(22.5192 441.721 348.417)" fill="url(#paint18_linear_405_63585)"/>
</g>
<path d="M343.956 -66.5002L344.772 -66.1675C368.313 -56.561 388.627 -40.4405 403.331 -19.6969V-19.6969M428.82 62.7277L428.442 61.3834C422.585 40.5123 414.097 20.471 403.182 1.74192V1.74192" stroke="#2C8E59" stroke-width="0.389395"/>
<path d="M217.365 323.941L202.78 327.434C199.738 328.162 197.706 331.03 198.026 334.141C198.22 336.025 199.259 337.719 200.851 338.746L205.065 341.463C205.115 341.496 205.17 341.519 205.229 341.532L223.641 345.568L247.553 348.876L275.067 352.579L266.885 333.115L228.205 323.931C224.641 323.085 220.927 323.088 217.365 323.941Z" fill="url(#paint19_linear_405_63585)"/>
<path d="M673.296 233.533L655.145 235.17L659.92 272.862L698.879 253.275C700.2 252.61 701.357 251.661 702.267 250.495L703.033 249.513C705.755 246.022 705.386 241.035 702.179 237.983C700.888 236.755 699.249 235.958 697.486 235.701L684.768 233.848C680.97 233.294 677.119 233.189 673.296 233.533Z" fill="url(#paint20_linear_405_63585)" stroke="#198F81" stroke-width="0.703782"/>
<g style="mix-blend-mode:soft-light">
<rect x="-469.469" y="-188.259" width="1180" height="1593" transform="rotate(-22.8012 -469.469 -188.259)" fill="#10BDF3"/>
</g>
<g style="mix-blend-mode:color-burn" opacity="0.6">
<rect x="-469.469" y="-188.259" width="1180" height="1593" transform="rotate(-22.8012 -469.469 -188.259)" fill="url(#paint21_linear_405_63585)"/>
</g>
<g style="mix-blend-mode:color-burn" opacity="0.3">
<path d="M-469.469 -188.259L618.32 -645.551L1235.66 822.964L147.874 1280.26L-469.469 -188.259Z" fill="#FF6565"/>
</g>
<g style="mix-blend-mode:color-burn" opacity="0.5">
<path d="M-469.469 -188.259L618.32 -645.551L1235.66 822.964L147.874 1280.26L-469.469 -188.259Z" fill="url(#paint22_linear_405_63585)"/>
</g>
<g style="mix-blend-mode:overlay" opacity="0.3">
<path d="M-469.469 -188.259L618.32 -645.551L1235.66 822.964L147.874 1280.26L-469.469 -188.259Z" fill="#C750FF"/>
</g>
</g>
</g>
<defs>
<filter id="filter0_f_405_63585" x="335.654" y="39.7108" width="420.354" height="315.483" filterUnits="userSpaceOnUse" color-interpolation-filters="sRGB">
<feFlood flood-opacity="0" result="BackgroundImageFix"/>
<feBlend mode="normal" in="SourceGraphic" in2="BackgroundImageFix" result="shape"/>
<feGaussianBlur stdDeviation="20" result="effect1_foregroundBlur_405_63585"/>
</filter>
<filter id="filter1_f_405_63585" x="156" y="-126" width="327" height="257" filterUnits="userSpaceOnUse" color-interpolation-filters="sRGB">
<feFlood flood-opacity="0" result="BackgroundImageFix"/>
<feBlend mode="normal" in="SourceGraphic" in2="BackgroundImageFix" result="shape"/>
<feGaussianBlur stdDeviation="20" result="effect1_foregroundBlur_405_63585"/>
</filter>
<filter id="filter2_f_405_63585" x="291.243" y="184.742" width="300.956" height="327.349" filterUnits="userSpaceOnUse" color-interpolation-filters="sRGB">
<feFlood flood-opacity="0" result="BackgroundImageFix"/>
<feBlend mode="normal" in="SourceGraphic" in2="BackgroundImageFix" result="shape"/>
<feGaussianBlur stdDeviation="30" result="effect1_foregroundBlur_405_63585"/>
</filter>
<linearGradient id="paint0_linear_405_63585" x1="309.357" y1="42.7119" x2="362" y2="106.5" gradientUnits="userSpaceOnUse">
<stop stop-color="#70D5CE"/>
<stop offset="1" stop-color="#C9F2FF" stop-opacity="0"/>
</linearGradient>
<radialGradient id="paint1_radial_405_63585" cx="0" cy="0" r="1" gradientUnits="userSpaceOnUse" gradientTransform="translate(320.469 57.334) rotate(90) scale(6.33404)">
<stop offset="0.634949" stop-color="#000638"/>
<stop offset="1" stop-color="#000638" stop-opacity="0"/>
</radialGradient>
<linearGradient id="paint2_linear_405_63585" x1="33.6489" y1="637.293" x2="186.56" y2="688.673" gradientUnits="userSpaceOnUse">
<stop stop-color="#4D9845"/>
<stop offset="1" stop-color="#4D9845" stop-opacity="0"/>
</linearGradient>
<linearGradient id="paint3_linear_405_63585" x1="636.44" y1="409.199" x2="636.464" y2="577.856" gradientUnits="userSpaceOnUse">
<stop stop-color="#0A78F9"/>
<stop offset="1" stop-color="#023673"/>
</linearGradient>
<radialGradient id="paint4_radial_405_63585" cx="0" cy="0" r="1" gradientUnits="userSpaceOnUse" gradientTransform="translate(647.894 449.258) rotate(90) scale(6.33404)">
<stop offset="0.634949" stop-color="#000638"/>
<stop offset="1" stop-color="#000638" stop-opacity="0"/>
</radialGradient>
<linearGradient id="paint5_linear_405_63585" x1="180.89" y1="513.557" x2="217.437" y2="600.494" gradientUnits="userSpaceOnUse">
<stop stop-color="#1E5E17"/>
<stop offset="1" stop-color="#589F50"/>
</linearGradient>
<linearGradient id="paint6_linear_405_63585" x1="254.5" y1="-4" x2="254.5" y2="55.5" gradientUnits="userSpaceOnUse">
<stop stop-color="#CEFFF9"/>
<stop offset="1" stop-color="#44A3E9"/>
</linearGradient>
<radialGradient id="paint7_radial_405_63585" cx="0" cy="0" r="1" gradientUnits="userSpaceOnUse" gradientTransform="translate(264.968 1.83404) rotate(90) scale(6.33404)">
<stop offset="0.634949" stop-color="#000638"/>
<stop offset="1" stop-color="#000638" stop-opacity="0"/>
</radialGradient>
<linearGradient id="paint8_linear_405_63585" x1="319.82" y1="324.65" x2="332.165" y2="380.891" gradientUnits="userSpaceOnUse">
<stop stop-color="#F0C380"/>
<stop offset="1" stop-color="#F8C99E" stop-opacity="0"/>
</linearGradient>
<linearGradient id="paint9_linear_405_63585" x1="355.542" y1="61.8498" x2="930.011" y2="277.869" gradientUnits="userSpaceOnUse">
<stop stop-color="#EA4050"/>
<stop offset="1" stop-color="#FFC1C7" stop-opacity="0"/>
</linearGradient>
<linearGradient id="paint10_linear_405_63585" x1="559.321" y1="141.432" x2="515.187" y2="253.472" gradientUnits="userSpaceOnUse">
<stop stop-color="#C20000"/>
<stop offset="1" stop-color="#A00909" stop-opacity="0"/>
</linearGradient>
<linearGradient id="paint11_linear_405_63585" x1="286.475" y1="352.004" x2="286.951" y2="464.389" gradientUnits="userSpaceOnUse">
<stop stop-color="#54D4DC"/>
<stop offset="1" stop-color="#D6FDFF" stop-opacity="0"/>
</linearGradient>
<linearGradient id="paint12_linear_405_63585" x1="245.144" y1="383.099" x2="282.373" y2="471.658" gradientUnits="userSpaceOnUse">
<stop stop-color="#9F6EEE"/>
<stop offset="1" stop-color="#D9D9D9" stop-opacity="0"/>
</linearGradient>
<linearGradient id="paint13_linear_405_63585" x1="387.5" y1="110.5" x2="229.556" y2="174.315" gradientUnits="userSpaceOnUse">
<stop stop-color="#FFEBA3"/>
<stop offset="1" stop-color="#F8D99E" stop-opacity="0"/>
</linearGradient>
<linearGradient id="paint14_linear_405_63585" x1="424" y1="71.5" x2="468.959" y2="160.138" gradientUnits="userSpaceOnUse">
<stop stop-color="#FFEBA3"/>
<stop offset="1" stop-color="#F8D99E" stop-opacity="0"/>
</linearGradient>
<linearGradient id="paint15_linear_405_63585" x1="387.5" y1="69.858" x2="387.5" y2="121.456" gradientUnits="userSpaceOnUse">
<stop stop-color="#F7EAC9"/>
<stop offset="1" stop-color="#FFDF8D" stop-opacity="0"/>
</linearGradient>
<linearGradient id="paint16_linear_405_63585" x1="341.588" y1="-88.4077" x2="797.339" y2="58.1119" gradientUnits="userSpaceOnUse">
<stop stop-color="#3AC4BB"/>
<stop offset="1" stop-color="#DCFFE6" stop-opacity="0"/>
</linearGradient>
<linearGradient id="paint17_linear_405_63585" x1="341.588" y1="-88.4077" x2="797.339" y2="58.1119" gradientUnits="userSpaceOnUse">
<stop stop-color="#3AC4BB"/>
<stop offset="1" stop-color="#DCFFE6" stop-opacity="0"/>
</linearGradient>
<linearGradient id="paint18_linear_405_63585" x1="442.406" y1="242.238" x2="442.406" y2="448.518" gradientUnits="userSpaceOnUse">
<stop stop-color="#C20000"/>
<stop offset="1" stop-color="#A00909" stop-opacity="0"/>
</linearGradient>
<linearGradient id="paint19_linear_405_63585" x1="236.02" y1="336.165" x2="240.468" y2="416.744" gradientUnits="userSpaceOnUse">
<stop stop-color="#301316"/>
<stop offset="1" stop-color="#EB4151" stop-opacity="0"/>
</linearGradient>
<linearGradient id="paint20_linear_405_63585" x1="671.365" y1="228.352" x2="685.547" y2="262.088" gradientUnits="userSpaceOnUse">
<stop stop-color="#088B7C"/>
<stop offset="1" stop-color="#58CEC1"/>
</linearGradient>
<linearGradient id="paint21_linear_405_63585" x1="82.4064" y1="-66.0836" x2="729.798" y2="1311.18" gradientUnits="userSpaceOnUse">
<stop stop-color="#707EFF"/>
<stop offset="0.996153" stop-color="#FC98D4"/>
</linearGradient>
<linearGradient id="paint22_linear_405_63585" x1="-107.18" y1="-340.561" x2="712.451" y2="179.591" gradientUnits="userSpaceOnUse">
<stop offset="0.436355" stop-color="#630909"/>
<stop offset="1" stop-color="#FF6565" stop-opacity="0"/>
</linearGradient>
</defs>
</svg>
