<svg width="1339" height="796" viewBox="0 0 1339 796" fill="none" xmlns="http://www.w3.org/2000/svg">
<mask id="mask0_518_12240" style="mask-type:alpha" maskUnits="userSpaceOnUse" x="0" y="0" width="1339" height="796">
<path d="M0 30C0 13.4315 13.4315 0 30 0H1308.46C1325.03 0 1338.46 13.4315 1338.46 30V199V440C1338.46 456.569 1325.03 470 1308.46 470H884C867.431 470 854 483.431 854 500V657.5V766C854 782.569 840.569 796 824 796H669.23H29.9999C13.4314 796 0 782.569 0 766V30Z" fill="#EDE7FF"/>
</mask>
<g mask="url(#mask0_518_12240)">
<path d="M266.228 543.361L281.371 531.24L292.283 520.54L359.045 531.24L369.903 572.001C373.902 587.011 374.555 602.716 371.816 618.006L371.162 621.652C368.314 637.551 361.34 652.422 350.938 664.777L191.097 644.796L70.7307 622.536C69.3543 622.281 68.2187 621.31 67.7527 619.99L66.4801 616.385C60.6349 599.825 68.0439 581.505 83.7573 573.665C89.434 570.832 95.7771 569.605 102.101 570.117L146.95 573.745C164.705 575.181 182.574 574.194 200.064 570.809L211.759 568.546C221.831 566.597 231.626 563.417 240.922 559.079C249.953 554.865 258.448 549.589 266.228 543.361Z" fill="#3D3AA9"/>
<path d="M317.628 736.283L319.258 729.084C323.155 711.875 323.667 694.073 320.766 676.669H266.172C262.458 691.527 262.24 707.043 265.535 722L268.682 736.283H317.628Z" fill="#3D3AA9"/>
<path d="M167.025 669.139L130.629 667.256C121.795 685.729 120.712 706.966 127.622 726.242L128.747 729.38H163.26C171.367 712.356 173.217 693.02 168.484 674.767L167.025 669.139Z" fill="#3D3AA9"/>
<path d="M85.3628 713.01L86.0765 701.769H138.16L139.05 712.98C140.545 731.819 140.247 750.758 138.16 769.541H114.315H86.0765C84.4056 750.743 84.167 731.845 85.3628 713.01Z" fill="#3D3AA9"/>
<path d="M233.029 709.87L233.542 704.907H286.881L287.477 709.849C289.997 730.73 289.797 751.849 286.881 772.678H233.542C231.04 751.826 230.868 730.76 233.029 709.87Z" fill="#3D3AA9"/>
<path d="M178.32 706.789H200.911L234.169 708.044C235.836 695.122 235.952 682.046 234.513 669.097L234.169 666H174.555V670.008C174.555 682.364 175.817 694.689 178.32 706.789Z" fill="#3D3AA9"/>
<path d="M271.192 704.906L264.29 723.104C243.315 711.177 219.6 704.906 195.471 704.906H184.596L163.888 710.554V684.198C174.72 686.282 185.774 686.965 196.78 686.231L221.352 684.593C225.285 684.331 229.235 684.457 233.143 684.972C244.86 686.513 255.858 691.489 264.752 699.271L271.192 704.906Z" fill="#3D3AA9"/>
<path d="M528.512 511.837L563.879 527.945C571.217 531.287 578.95 534.003 586.761 536.003C612.344 542.555 639.671 541.564 664.642 532.967L620.716 292.002L418.41 161.368C387.439 141.369 351.356 130.731 314.489 130.731H249.615C245.618 130.731 241.647 131.376 237.855 132.64C231.737 134.679 226.254 138.275 221.945 143.073L216.388 149.262C206.347 160.444 200.255 174.613 199.047 189.593L198.372 197.959C197.973 202.915 197.178 207.832 195.996 212.662L190.393 235.564C185.701 254.736 182.907 274.323 182.05 294.042C180.824 322.244 175.637 350.134 166.643 376.892L155.101 411.23L128.745 487.159L118.705 525.437C121.571 534.037 126.876 541.617 133.973 547.256L151.357 561.068C162.806 570.164 176.665 575.716 191.227 577.04C199.302 577.774 207.442 577.194 215.331 575.323L309.871 552.897C327.433 548.731 341.346 535.354 346.198 517.969L350.67 501.942C352.371 495.849 350.889 489.309 346.728 484.544C335.402 471.574 346.05 451.471 363.143 453.554L449.141 464.033C458.747 465.203 467.836 469.033 475.384 475.091L496.974 492.42C506.639 500.178 517.234 506.7 528.512 511.837Z" fill="#3D3AA9"/>
<path d="M244.413 530.276L260.443 513.367L270.874 500.076L332.062 530.458L335.85 565.485C337.813 583.632 337.09 601.97 333.706 619.907L332.002 628.938C328.567 647.141 321.553 664.482 311.366 679.953L172.208 654.52L66.7486 626.05C64.5954 625.469 62.9654 623.706 62.555 621.513L60.3081 609.514C57.1882 592.852 64.7696 576.009 79.311 567.296C87.0096 562.683 96.0217 560.757 104.933 561.819L136.718 565.608C153.567 567.616 170.643 566.411 187.043 562.057L193.993 560.212C204.51 557.419 214.543 553.046 223.747 547.241C231.315 542.468 238.257 536.769 244.413 530.276Z" fill="#3D3AA9"/>
<path d="M777.167 549.828L815.246 524.183C800.367 520.049 786.573 512.707 774.834 502.673L771.596 499.905C759.802 489.823 749.988 477.632 742.658 463.957L732.77 445.513C725.063 431.138 719.957 415.514 717.686 399.363C716.215 388.902 715.945 378.307 716.883 367.784L720.173 330.865C720.802 323.799 720.734 316.689 719.969 309.637C717.075 282.945 704.343 258.288 684.255 240.475L648.955 209.171L574.281 142.027L490.765 79.3896C482.915 73.5028 474.083 69.039 464.689 66.2079C444.399 60.0932 422.522 61.9045 403.521 71.2875C389.623 78.1511 377.906 88.7434 369.679 101.881L340.219 148.93L300.058 224.859L228.521 350.361L171.911 432.749C162.911 445.848 156.954 460.793 154.475 476.492C161.152 481.917 168.344 486.677 175.948 490.702L228.612 518.583C242.724 526.054 255.889 535.192 267.823 545.801L290.158 565.653C304.401 578.314 322.007 586.577 340.846 589.444L389.792 490.297L479.527 303.926L511.236 397.101C517.274 414.843 525.064 431.94 534.491 448.138C554.516 482.548 581.594 512.332 613.947 535.535L626.992 544.891L634.901 552.348C644.157 561.074 655.222 567.655 667.308 571.621C681.6 576.31 696.867 577.196 711.605 574.191L726.087 571.239C744.351 567.515 761.706 560.24 777.167 549.828Z" fill="#3D3AA9"/>
<path d="M731.713 446.714L734.714 452.901C753.466 491.563 788.942 519.464 830.934 528.575L849.367 500.779C863.388 479.636 874.953 456.964 883.838 433.201C892.882 409.014 899.089 383.858 902.334 358.24L909.373 302.67C917.224 232.838 909.509 162.134 886.783 95.6376L883.411 85.7729C874.794 60.5612 864.261 36.0459 851.904 12.4415L814.618 -58.7773L360.001 -1.5C366.881 31.3778 371.051 64.7649 372.467 98.3251L376.614 196.621L719.864 325.888L716.703 367.935C714.663 395.059 719.842 422.24 731.713 446.714Z" fill="#3D3AA9"/>
<mask id="mask1_518_12240" style="mask-type:alpha" maskUnits="userSpaceOnUse" x="83" y="-83" width="853" height="833">
<g style="mix-blend-mode:color-burn">
<path d="M289.814 519.776L304.956 507.655L315.868 496.955L382.63 507.655L393.489 548.416C397.487 563.426 398.14 579.131 395.401 594.421L394.748 598.067C391.9 613.965 384.925 628.837 374.523 641.192L214.683 621.211L94.316 598.95C92.9396 598.696 91.804 597.725 91.3381 596.405L90.0654 592.8C84.2202 576.24 91.6292 557.92 107.343 550.079C113.019 547.247 119.362 546.02 125.686 546.532L170.535 550.16C188.291 551.596 206.16 550.609 223.649 547.224L235.344 544.961C245.416 543.011 255.211 539.832 264.508 535.494C273.538 531.28 282.034 526.003 289.814 519.776Z" fill="#1F1F1F"/>
</g>
<path d="M341.214 712.696L342.844 705.498C346.74 688.289 347.252 670.487 344.351 653.083H289.758C286.043 667.94 285.825 683.457 289.12 698.413L292.268 712.696H341.214Z" fill="#1F1F1F"/>
<path d="M190.61 645.552L154.215 643.67C145.38 662.142 144.297 683.38 151.207 702.656L152.332 705.794H186.845C194.952 688.77 196.802 669.434 192.07 651.181L190.61 645.552Z" fill="#1F1F1F"/>
<path d="M108.948 689.424L109.662 678.183H161.745L162.635 689.394C164.13 708.233 163.832 727.172 161.745 745.955H137.9H109.662C107.991 727.156 107.752 708.258 108.948 689.424Z" fill="#1F1F1F"/>
<path d="M256.614 686.284L257.127 681.321H310.466L311.063 686.263C313.583 707.144 313.382 728.263 310.466 749.092H257.127C254.625 728.24 254.453 707.174 256.614 686.284Z" fill="#1F1F1F"/>
<path d="M201.906 683.204H224.497L257.755 684.459C259.422 671.536 259.538 658.461 258.099 645.512L257.755 642.415H198.141V646.422C198.141 658.779 199.403 671.103 201.906 683.204Z" fill="#1F1F1F"/>
<path d="M294.778 681.321L287.875 699.519C266.9 687.592 243.185 681.321 219.057 681.321H208.181L187.473 686.969V660.613C198.305 662.696 209.36 663.38 220.366 662.646L244.938 661.008C248.871 660.745 252.82 660.872 256.728 661.387C268.445 662.928 279.443 667.904 288.337 675.686L294.778 681.321Z" fill="#1F1F1F"/>
<path d="M552.098 488.251L587.466 504.359C594.803 507.701 602.537 510.417 610.347 512.417C635.93 518.969 663.257 517.978 688.228 509.382L644.302 268.417L441.996 137.782C411.025 117.783 374.942 107.146 338.075 107.146H273.201C269.204 107.146 265.233 107.79 261.441 109.054C255.323 111.094 249.84 114.689 245.532 119.487L239.975 125.676C229.934 136.858 223.841 151.027 222.633 166.007L221.959 174.373C221.559 179.33 220.764 184.246 219.582 189.076L213.979 211.978C209.288 231.15 206.493 250.737 205.636 270.457C204.41 298.659 199.224 326.548 190.229 353.306L178.687 387.644L152.332 463.573L142.291 501.852C145.158 510.451 150.463 518.032 157.56 523.67L174.944 537.482C186.393 546.579 200.251 552.13 214.814 553.454C222.888 554.188 231.028 553.608 238.917 551.737L333.457 529.311C351.02 525.145 364.933 511.768 369.784 494.383L374.257 478.357C375.957 472.263 374.475 465.723 370.314 460.958C358.988 447.988 369.636 427.886 386.729 429.968L472.727 440.447C482.334 441.618 491.423 445.447 498.97 451.505L520.56 468.834C530.226 476.592 540.82 483.115 552.098 488.251Z" fill="#1F1F1F"/>
<g style="mix-blend-mode:color-burn">
<path d="M267.998 506.691L284.028 489.782L294.46 476.491L355.647 506.873L359.435 541.9C361.398 560.047 360.676 578.385 357.291 596.322L355.587 605.353C352.153 623.556 345.139 640.896 334.951 656.368L195.793 630.935L90.3339 602.465C88.1807 601.884 86.5508 600.121 86.1403 597.928L83.8934 585.929C80.7735 569.267 88.3549 552.424 102.896 543.711C110.595 539.098 119.607 537.172 128.519 538.234L160.303 542.023C177.152 544.031 194.229 542.826 210.628 538.472L217.578 536.627C228.096 533.834 238.128 529.461 247.333 523.656C254.9 518.883 261.843 513.184 267.998 506.691Z" fill="#1F1F1F"/>
</g>
<path d="M800.752 526.243L838.832 500.597C823.952 496.464 810.158 489.122 798.42 479.088L795.181 476.319C783.387 466.237 773.574 454.047 766.243 440.372L756.355 421.927C748.649 407.552 743.542 391.929 741.271 375.778C739.8 365.317 739.531 354.721 740.468 344.199L743.758 307.28C744.388 300.214 744.32 293.104 743.555 286.051C740.661 259.36 727.928 234.703 707.841 216.89L672.541 185.586L597.867 118.442L514.35 55.8044C506.501 49.9176 497.668 45.4538 488.274 42.6227C467.984 36.508 446.107 38.3193 427.107 47.7023C413.208 54.5659 401.491 65.1581 393.264 78.2961L363.804 125.345L323.643 201.274L252.107 326.776L195.497 409.164C186.496 422.263 180.539 437.208 178.06 452.906C184.738 458.332 191.93 463.091 199.534 467.117L252.197 494.998C266.31 502.469 279.474 511.607 291.409 522.215L313.743 542.068C327.986 554.729 345.592 562.992 364.432 565.859L413.378 466.712L503.112 280.34L534.821 373.515C540.859 391.258 548.649 408.355 558.076 424.553C578.101 458.963 605.179 488.747 637.532 511.949L650.578 521.305L658.487 528.762C667.742 537.489 678.807 544.069 690.894 548.035C705.186 552.725 720.452 553.611 735.191 550.606L749.672 547.653C767.936 543.93 785.292 536.655 800.752 526.243Z" fill="#1F1F1F"/>
<path d="M755.299 423.129L758.3 429.316C777.052 467.977 812.528 495.878 854.52 504.99L872.954 477.193C886.974 456.051 898.539 433.379 907.424 409.616C916.469 385.429 922.675 360.273 925.92 334.654L932.959 279.085C940.81 209.253 933.095 138.548 910.369 72.0525L906.997 62.1876C898.381 36.9759 887.847 12.4607 875.49 -11.1436L838.205 -82.3625L387.023 -9.57101C391.617 12.9838 394.413 35.868 395.383 58.8656L400.2 173.035L743.45 302.303L740.289 344.349C738.249 371.474 743.428 398.655 755.299 423.129Z" fill="black"/>
<path d="M220.104 647.436L198.083 642.827C176.949 638.403 156.753 630.315 138.408 618.929C133.765 616.047 132.618 609.789 135.938 605.448L137.9 602.882L189.356 569.624L351.882 594.097L328.183 626.474C315.235 644.164 293.992 653.814 272.15 651.929L220.104 647.436Z" fill="#FFE08F"/>
<path d="M220.104 647.436L198.083 642.827C176.949 638.403 156.753 630.315 138.408 618.929C133.765 616.047 132.618 609.789 135.938 605.448L137.9 602.882L189.356 569.624L351.882 594.097L328.183 626.474C315.235 644.164 293.992 653.814 272.15 651.929L220.104 647.436Z" fill="url(#paint0_linear_518_12240)"/>
</mask>
<g mask="url(#mask1_518_12240)">
<path d="M755.299 423.129L758.3 429.316C777.052 467.977 812.528 495.878 854.52 504.99L872.954 477.193C886.975 456.051 898.54 433.379 907.425 409.616C916.469 385.429 922.676 360.273 925.921 334.654L932.959 279.085C940.81 209.253 933.095 138.548 910.369 72.0525L906.997 62.1876C898.381 36.9759 887.848 12.4607 875.49 -11.1436L838.205 -82.3625L387.023 -9.57101C391.617 12.9838 394.413 35.868 395.383 58.8656L400.201 173.035L743.45 302.303L740.289 344.349C738.25 371.474 743.428 398.655 755.299 423.129Z" fill="#F2BE37"/>
<path d="M755.299 423.129L758.3 429.316C777.052 467.977 812.528 495.878 854.52 504.99L872.954 477.193C886.975 456.051 898.54 433.379 907.425 409.616C916.469 385.429 922.676 360.273 925.921 334.654L932.959 279.085C940.81 209.253 933.095 138.548 910.369 72.0525L906.997 62.1876C898.381 36.9759 887.848 12.4607 875.49 -11.1436L838.205 -82.3625L387.023 -9.57101C391.617 12.9838 394.413 35.868 395.383 58.8656L400.201 173.035L743.45 302.303L740.289 344.349C738.25 371.474 743.428 398.655 755.299 423.129Z" fill="url(#paint1_linear_518_12240)"/>
<circle cx="30.9374" cy="30.9374" r="30.9374" transform="matrix(0.76416 -0.645027 0.768823 0.639462 726.11 158.985)" fill="#EA4050"/>
<circle cx="30.9374" cy="30.9374" r="30.9374" transform="matrix(0.76416 -0.645027 0.768823 0.639462 770.147 121.812)" fill="#EA4050"/>
<circle cx="30.9374" cy="30.9374" r="30.9374" transform="matrix(0.76416 -0.645027 0.768823 0.639462 819.515 144.23)" fill="#EA4050"/>
<circle cx="30.9374" cy="30.9374" r="30.9374" transform="matrix(0.76416 -0.645027 0.768823 0.639462 754.154 199.401)" fill="#EA4050"/>
<circle cx="30.9374" cy="30.9374" r="30.9374" transform="matrix(0.76416 -0.645027 0.768823 0.639462 803.862 187.143)" fill="#EA4050"/>
<circle cx="23.658" cy="23.658" r="23.658" transform="matrix(0.76416 -0.645027 0.768823 0.639462 781.45 161.511)" fill="#F9F9F9"/>
<circle cx="17.5414" cy="17.5414" r="17.5414" transform="matrix(1 0 0.175033 0.984563 796.198 326.771)" fill="#408EEA"/>
<circle cx="17.5414" cy="17.5414" r="17.5414" transform="matrix(1 0 0.175033 0.984563 828.872 326.771)" fill="#408EEA"/>
<circle cx="17.5414" cy="17.5414" r="17.5414" transform="matrix(1 0 0.175033 0.984563 842.064 354.538)" fill="#408EEA"/>
<circle cx="17.5414" cy="17.5414" r="17.5414" transform="matrix(1 0 0.175033 0.984563 793.568 354.538)" fill="#408EEA"/>
<circle cx="17.5414" cy="17.5414" r="17.5414" transform="matrix(1 0 0.175033 0.984563 819.587 367.407)" fill="#408EEA"/>
<circle cx="13.414" cy="13.414" r="13.414" transform="matrix(1 0 0.175033 0.984563 819.251 348.104)" fill="#F9F9F9"/>
<circle cx="40.8021" cy="40.8021" r="40.8021" transform="matrix(0.883377 0.468664 -0.0881474 0.996107 540.563 -78.3328)" fill="#4047EA"/>
<circle cx="40.8021" cy="40.8021" r="40.8021" transform="matrix(0.883377 0.468664 -0.0881474 0.996107 607.704 -42.7124)" fill="#4047EA"/>
<circle cx="40.8021" cy="40.8021" r="40.8021" transform="matrix(0.883377 0.468664 -0.0881474 0.996107 618.883 31.634)" fill="#4047EA"/>
<circle cx="40.8021" cy="40.8021" r="40.8021" transform="matrix(0.883377 0.468664 -0.0881474 0.996107 519.233 -21.2339)" fill="#4047EA"/>
<circle cx="40.8021" cy="40.8021" r="40.8021" transform="matrix(0.883377 0.468664 -0.0881474 0.996107 565.318 34.9211)" fill="#4047EA"/>
<circle cx="31.2016" cy="31.2016" r="31.2016" transform="matrix(0.883377 0.468664 -0.0881474 0.996107 575.698 -7.12939)" fill="#F9F9F9"/>
<path d="M289.814 519.776L304.956 507.655L315.868 496.955L382.63 507.655L393.489 548.416C397.487 563.426 398.14 579.131 395.401 594.421L394.748 598.067C391.899 613.965 384.925 628.837 374.523 641.192L214.683 621.211L94.316 598.95C92.9395 598.696 91.8039 597.725 91.338 596.405L90.0654 592.8C84.2202 576.24 91.6292 557.92 107.343 550.079C113.019 547.247 119.362 546.02 125.686 546.532L170.535 550.16C188.291 551.596 206.16 550.609 223.649 547.224L235.344 544.961C245.416 543.011 255.211 539.832 264.508 535.494C273.538 531.28 282.034 526.003 289.814 519.776Z" fill="#3656FF" stroke="white" stroke-width="1.25503"/>
<mask id="mask2_518_12240" style="mask-type:alpha" maskUnits="userSpaceOnUse" x="84" y="497" width="312" height="147">
<path d="M287.303 521.031L302.446 508.909L313.358 498.21L380.12 508.909L391.169 550.387C395.044 564.931 395.732 580.14 393.187 594.975L392.488 599.046C389.733 615.105 382.654 630.109 372.013 642.447L212.172 622.466L91.8057 600.205C90.4293 599.95 89.2937 598.98 88.8278 597.66L87.5551 594.054C81.7099 577.495 89.1189 559.175 104.832 551.334C110.509 548.501 116.852 547.275 123.176 547.786L168.025 551.414C185.781 552.851 203.649 551.863 221.139 548.479L232.834 546.215C242.906 544.266 252.701 541.087 261.997 536.749C271.028 532.535 279.523 527.258 287.303 521.031Z" fill="#3656FF" stroke="white" stroke-width="1.25503"/>
</mask>
<g mask="url(#mask2_518_12240)">
<path d="M272.188 609.157L380.12 632.375L375.728 650.573L269.678 627.982L272.188 609.157Z" fill="#B0BAEC"/>
</g>
<g style="mix-blend-mode:color-burn">
<path d="M289.814 519.776L304.956 507.655L315.868 496.955L382.63 507.655L393.489 548.416C397.487 563.426 398.14 579.131 395.401 594.421L394.748 598.067C391.899 613.965 384.925 628.837 374.523 641.192L214.683 621.211L94.316 598.95C92.9395 598.696 91.8039 597.725 91.338 596.405L90.0654 592.8C84.2202 576.24 91.6292 557.92 107.343 550.079C113.019 547.247 119.362 546.02 125.686 546.532L170.535 550.16C188.291 551.596 206.16 550.609 223.649 547.224L235.344 544.961C245.416 543.011 255.211 539.832 264.508 535.494C273.538 531.28 282.034 526.003 289.814 519.776Z" fill="url(#paint2_linear_518_12240)"/>
<path d="M289.814 519.776L304.956 507.655L315.868 496.955L382.63 507.655L393.489 548.416C397.487 563.426 398.14 579.131 395.401 594.421L394.748 598.067C391.899 613.965 384.925 628.837 374.523 641.192L214.683 621.211L94.316 598.95C92.9395 598.696 91.8039 597.725 91.338 596.405L90.0654 592.8C84.2202 576.24 91.6292 557.92 107.343 550.079C113.019 547.247 119.362 546.02 125.686 546.532L170.535 550.16C188.291 551.596 206.16 550.609 223.649 547.224L235.344 544.961C245.416 543.011 255.211 539.832 264.508 535.494C273.538 531.28 282.034 526.003 289.814 519.776Z" stroke="white" stroke-width="1.25503"/>
</g>
<path d="M341.215 712.696L342.845 705.498C346.741 688.289 347.253 670.487 344.353 653.083H289.759C286.044 667.94 285.826 683.457 289.122 698.413L292.269 712.696H341.215Z" fill="url(#paint3_linear_518_12240)"/>
<path d="M190.612 645.552L154.216 643.67C145.381 662.142 144.298 683.38 151.208 702.656L152.333 705.794H186.847C194.953 688.77 196.803 669.434 192.071 651.181L190.612 645.552Z" fill="url(#paint4_linear_518_12240)"/>
<path d="M294.779 681.321L287.876 699.519C266.901 687.592 243.187 681.321 219.058 681.321H208.182L187.474 686.969V660.613C198.306 662.696 209.361 663.38 220.367 662.646L244.939 661.008C248.872 660.745 252.821 660.872 256.73 661.387C268.446 662.928 279.444 667.904 288.338 675.686L294.779 681.321Z" fill="#1F1F1F"/>
<path d="M108.948 689.425L109.662 678.184H161.746L162.635 689.395C164.131 708.234 163.833 727.173 161.746 745.956H137.9H109.662C107.991 727.157 107.753 708.259 108.948 689.425Z" fill="url(#paint5_linear_518_12240)"/>
<path d="M256.614 686.285L257.128 681.322H310.466L311.063 686.264C313.583 707.145 313.382 728.264 310.466 749.093H257.128C254.625 728.241 254.453 707.175 256.614 686.285Z" fill="url(#paint6_linear_518_12240)"/>
<path d="M201.907 683.204H224.497L257.755 684.459C259.423 671.536 259.538 658.461 258.099 645.512L257.755 642.415H198.142V646.422C198.142 658.779 199.403 671.103 201.907 683.204Z" fill="#1F1F1F"/>
<path d="M220.104 647.436L198.083 642.826C176.95 638.403 156.753 630.315 138.408 618.929C133.765 616.047 132.618 609.789 135.938 605.448L137.9 602.882L189.356 569.624L351.882 594.097L328.184 626.474C315.235 644.164 293.992 653.814 272.15 651.929L220.104 647.436Z" fill="#FF5C00"/>
<path d="M220.104 647.436L198.083 642.826C176.95 638.403 156.753 630.315 138.408 618.929C133.765 616.047 132.618 609.789 135.938 605.448L137.9 602.882L189.356 569.624L351.882 594.097L328.184 626.474C315.235 644.164 293.992 653.814 272.15 651.929L220.104 647.436Z" fill="url(#paint7_linear_518_12240)"/>
<path d="M220.104 647.436L198.083 642.827C176.949 638.403 156.753 630.315 138.408 618.929C133.765 616.047 132.618 609.789 135.938 605.448L137.9 602.882L189.356 569.624L351.882 594.097L328.183 626.474C315.235 644.164 293.992 653.814 272.15 651.929L220.104 647.436Z" fill="url(#paint8_linear_518_12240)"/>
<mask id="mask3_518_12240" style="mask-type:alpha" maskUnits="userSpaceOnUse" x="142" y="107" width="547" height="447">
<path d="M552.099 488.252L587.466 504.36C594.803 507.702 602.537 510.418 610.347 512.418C635.93 518.97 663.258 517.979 688.228 509.382L644.302 268.417L441.996 137.783C411.025 117.784 374.942 107.146 338.076 107.146H273.201C269.204 107.146 265.233 107.791 261.441 109.055C255.323 111.094 249.841 114.689 245.532 119.488L239.975 125.676C229.934 136.858 223.841 151.028 222.633 166.007L221.959 174.374C221.559 179.33 220.764 184.247 219.583 189.077L213.979 211.978C209.288 231.151 206.493 250.738 205.636 270.457C204.41 298.659 199.224 326.549 190.229 353.307L178.687 387.645L152.332 463.574L142.291 501.852C145.158 510.451 150.463 518.032 157.56 523.671L174.944 537.483C186.393 546.579 200.251 552.131 214.814 553.455C222.888 554.189 231.028 553.609 238.917 551.738L333.458 529.312C351.02 525.146 364.933 511.769 369.784 494.383L374.257 478.357C375.957 472.264 374.475 465.724 370.314 460.959C358.988 447.989 369.636 427.886 386.729 429.969L472.727 440.448C482.334 441.618 491.423 445.448 498.97 451.506L520.561 468.835C530.226 476.592 540.82 483.115 552.099 488.252Z" fill="#EA4050"/>
</mask>
<g mask="url(#mask3_518_12240)">
<path d="M552.099 488.252L587.466 504.36C594.803 507.702 602.537 510.418 610.347 512.418C635.93 518.97 663.257 517.979 688.228 509.383L644.302 268.418L441.996 137.783C411.025 117.784 374.942 107.147 338.076 107.147H273.201C269.204 107.147 265.233 107.791 261.441 109.055C255.323 111.094 249.841 114.69 245.532 119.488L239.975 125.677C229.934 136.859 223.841 151.028 222.633 166.008L221.959 174.374C221.559 179.331 220.764 184.247 219.582 189.077L213.979 211.979C209.288 231.151 206.493 250.738 205.636 270.458C204.41 298.66 199.224 326.549 190.229 353.307L178.687 387.645L152.332 463.574L142.291 501.853C145.158 510.452 150.463 518.033 157.56 523.671L174.944 537.483C186.393 546.58 200.251 552.131 214.814 553.455C222.888 554.189 231.028 553.609 238.917 551.738L333.458 529.312C351.02 525.146 364.933 511.769 369.784 494.384L374.257 478.358C375.957 472.264 374.475 465.724 370.314 460.959C358.988 447.989 369.636 427.887 386.729 429.969L472.727 440.448C482.334 441.619 491.423 445.448 498.97 451.506L520.56 468.835C530.226 476.593 540.82 483.116 552.099 488.252Z" fill="#EA4050"/>
<path d="M552.099 488.252L587.466 504.36C594.803 507.702 602.537 510.418 610.347 512.418C635.93 518.97 663.257 517.979 688.228 509.383L644.302 268.418L441.996 137.783C411.025 117.784 374.942 107.147 338.076 107.147H273.201C269.204 107.147 265.233 107.791 261.441 109.055C255.323 111.094 249.841 114.69 245.532 119.488L239.975 125.677C229.934 136.859 223.841 151.028 222.633 166.008L221.959 174.374C221.559 179.331 220.764 184.247 219.582 189.077L213.979 211.979C209.288 231.151 206.493 250.738 205.636 270.458C204.41 298.66 199.224 326.549 190.229 353.307L178.687 387.645L152.332 463.574L142.291 501.853C145.158 510.452 150.463 518.033 157.56 523.671L174.944 537.483C186.393 546.58 200.251 552.131 214.814 553.455C222.888 554.189 231.028 553.609 238.917 551.738L333.458 529.312C351.02 525.146 364.933 511.769 369.784 494.384L374.257 478.358C375.957 472.264 374.475 465.724 370.314 460.959C358.988 447.989 369.636 427.887 386.729 429.969L472.727 440.448C482.334 441.619 491.423 445.448 498.97 451.506L520.56 468.835C530.226 476.593 540.82 483.116 552.099 488.252Z" fill="url(#paint9_linear_518_12240)"/>
<path d="M552.099 488.252L587.466 504.36C594.803 507.702 602.537 510.418 610.347 512.418C635.93 518.97 663.257 517.979 688.228 509.383L644.302 268.418L441.996 137.783C411.025 117.784 374.942 107.147 338.076 107.147H273.201C269.204 107.147 265.233 107.791 261.441 109.055C255.323 111.094 249.841 114.69 245.532 119.488L239.975 125.677C229.934 136.859 223.841 151.028 222.633 166.008L221.959 174.374C221.559 179.331 220.764 184.247 219.582 189.077L213.979 211.979C209.288 231.151 206.493 250.738 205.636 270.458C204.41 298.66 199.224 326.549 190.229 353.307L178.687 387.645L152.332 463.574L142.291 501.853C145.158 510.452 150.463 518.033 157.56 523.671L174.944 537.483C186.393 546.58 200.251 552.131 214.814 553.455C222.888 554.189 231.028 553.609 238.917 551.738L333.458 529.312C351.02 525.146 364.933 511.769 369.784 494.384L374.257 478.358C375.957 472.264 374.475 465.724 370.314 460.959C358.988 447.989 369.636 427.887 386.729 429.969L472.727 440.448C482.334 441.619 491.423 445.448 498.97 451.506L520.56 468.835C530.226 476.593 540.82 483.116 552.099 488.252Z" fill="url(#paint10_linear_518_12240)"/>
<path d="M552.099 488.252L587.466 504.36C594.803 507.702 602.537 510.418 610.347 512.418C635.93 518.97 663.257 517.979 688.228 509.383L644.302 268.418L441.996 137.783C411.025 117.784 374.942 107.147 338.076 107.147H273.201C269.204 107.147 265.233 107.791 261.441 109.055C255.323 111.094 249.841 114.69 245.532 119.488L239.975 125.677C229.934 136.859 223.841 151.028 222.633 166.008L221.959 174.374C221.559 179.331 220.764 184.247 219.582 189.077L213.979 211.979C209.288 231.151 206.493 250.738 205.636 270.458C204.41 298.66 199.224 326.549 190.229 353.307L178.687 387.645L152.332 463.574L142.291 501.853C145.158 510.452 150.463 518.033 157.56 523.671L174.944 537.483C186.393 546.58 200.251 552.131 214.814 553.455C222.888 554.189 231.028 553.609 238.917 551.738L333.458 529.312C351.02 525.146 364.933 511.769 369.784 494.384L374.257 478.358C375.957 472.264 374.475 465.724 370.314 460.959C358.988 447.989 369.636 427.887 386.729 429.969L472.727 440.448C482.334 441.619 491.423 445.448 498.97 451.506L520.56 468.835C530.226 476.593 540.82 483.116 552.099 488.252Z" fill="url(#paint11_linear_518_12240)"/>
<path d="M394.368 85.2097L394.165 97.094L403.645 100.893L393.457 100.178L388.458 110.962L388.661 99.0775L379.181 95.2784L389.369 95.9934L394.368 85.2097Z" fill="#FF8A71" fill-opacity="0.4"/>
<path d="M506.905 111.037L506.701 122.921L516.182 126.72L505.994 126.005L500.995 136.789L501.198 124.905L491.717 121.106L501.906 121.821L506.905 111.037Z" fill="#FF8A71" fill-opacity="0.4"/>
<path d="M619.442 136.864L619.238 148.749L628.719 152.548L618.53 151.833L613.531 162.616L613.735 150.732L604.254 146.933L614.443 147.648L619.442 136.864Z" fill="#FF8A71" fill-opacity="0.4"/>
<path d="M147.944 126.584L147.741 138.469L157.221 142.268L147.033 141.553L142.034 152.337L142.238 140.452L132.757 136.653L142.945 137.368L147.944 126.584Z" fill="#FF8A71" fill-opacity="0.6"/>
<path d="M260.481 152.412L260.277 164.296L269.758 168.095L259.57 167.38L254.571 178.164L254.774 166.28L245.294 162.481L255.482 163.196L260.481 152.412Z" fill="#FF8A71" fill-opacity="0.6"/>
<path d="M373.018 178.239L372.814 190.124L382.295 193.923L372.107 193.208L367.108 203.991L367.311 192.107L357.83 188.308L368.019 189.023L373.018 178.239Z" fill="#FF8A71" fill-opacity="0.6"/>
<path d="M485.555 204.066L485.351 215.951L494.832 219.75L484.643 219.035L479.644 229.819L479.848 217.934L470.367 214.135L480.556 214.85L485.555 204.066Z" fill="#FF8A71" fill-opacity="0.6"/>
<path d="M598.091 229.894L597.888 241.778L607.369 245.577L597.18 244.862L592.181 255.646L592.385 243.762L582.904 239.963L593.092 240.678L598.091 229.894Z" fill="#FF8A71" fill-opacity="0.6"/>
<path d="M239.13 245.441L238.927 257.326L248.408 261.125L238.219 260.41L233.22 271.193L233.424 259.309L223.943 255.51L234.132 256.225L239.13 245.441Z" fill="#FF8A71"/>
<path d="M351.667 271.269L351.464 283.153L360.944 286.952L350.756 286.237L345.757 297.021L345.96 285.136L336.48 281.337L346.668 282.052L351.667 271.269Z" fill="#FF8A71"/>
<path d="M464.204 297.096L464.001 308.98L473.481 312.779L463.293 312.064L458.294 322.848L458.497 310.964L449.017 307.165L459.205 307.88L464.204 297.096Z" fill="#FF8A71"/>
<path d="M576.741 322.923L576.537 334.808L586.018 338.607L575.829 337.892L570.831 348.676L571.034 336.791L561.553 332.992L571.742 333.707L576.741 322.923Z" fill="#FF8A71"/>
<path d="M689.277 348.751L689.074 360.635L698.555 364.434L688.366 363.719L683.367 374.503L683.571 362.619L674.09 358.82L684.279 359.535L689.277 348.751Z" fill="#FF8A71"/>
<path d="M217.78 338.471L217.577 350.355L227.057 354.154L216.869 353.439L211.87 364.223L212.073 352.339L202.593 348.54L212.781 349.255L217.78 338.471Z" fill="#FF8A71"/>
<path d="M330.317 364.298L330.113 376.182L339.594 379.981L329.406 379.266L324.407 390.05L324.61 378.166L315.129 374.367L325.318 375.082L330.317 364.298Z" fill="#FF8A71"/>
<path d="M442.854 390.125L442.65 402.01L452.131 405.809L441.942 405.094L436.943 415.878L437.147 403.993L427.666 400.194L437.855 400.909L442.854 390.125Z" fill="#FF8A71"/>
<path d="M555.39 415.953L555.187 427.837L564.667 431.636L554.479 430.921L549.48 441.705L549.684 429.821L540.203 426.022L550.391 426.737L555.39 415.953Z" fill="#FF8A71"/>
<path d="M667.927 441.78L667.724 453.665L677.204 457.464L667.016 456.749L662.017 467.532L662.22 455.648L652.74 451.849L662.928 452.564L667.927 441.78Z" fill="#FF8A71"/>
<path d="M196.43 431.5L196.226 443.385L205.707 447.184L195.518 446.469L190.52 457.252L190.723 445.368L181.242 441.569L191.431 442.284L196.43 431.5Z" fill="#FF8A71"/>
<path d="M308.966 457.328L308.763 469.212L318.244 473.011L308.055 472.296L303.056 483.08L303.26 471.195L293.779 467.396L303.968 468.111L308.966 457.328Z" fill="#FF8A71"/>
<path d="M421.503 483.155L421.3 495.039L430.78 498.838L420.592 498.123L415.593 508.907L415.797 497.023L406.316 493.224L416.504 493.939L421.503 483.155Z" fill="#FF8A71"/>
<path d="M534.04 508.982L533.837 520.867L543.317 524.666L533.129 523.951L528.13 534.734L528.333 522.85L518.853 519.051L529.041 519.766L534.04 508.982Z" fill="#FF8A71"/>
<path d="M646.577 534.81L646.373 546.694L655.854 550.493L645.666 549.778L640.667 560.562L640.87 548.678L631.389 544.878L641.578 545.593L646.577 534.81Z" fill="#FF8A71"/>
<path d="M175.079 524.53L174.876 536.414L184.356 540.213L174.168 539.498L169.169 550.282L169.372 538.398L159.892 534.598L170.08 535.313L175.079 524.53Z" fill="#FF8A71"/>
<path d="M287.616 550.357L287.412 562.241L296.893 566.04L286.704 565.325L281.706 576.109L281.909 564.225L272.428 560.426L282.617 561.141L287.616 550.357Z" fill="#FF8A71"/>
</g>
<path d="M267.998 506.69L284.028 489.781L294.46 476.489L355.647 506.872L359.435 541.898C361.398 560.046 360.676 578.384 357.291 596.321L355.587 605.352C352.153 623.555 345.139 640.895 334.952 656.367L195.793 630.933L90.334 602.464C88.1808 601.883 86.5508 600.119 86.1403 597.927L83.8935 585.928C80.7735 569.266 88.3549 552.422 102.896 543.71C110.595 539.097 119.607 537.171 128.519 538.233L160.303 542.021C177.152 544.03 194.229 542.825 210.629 538.471L217.578 536.626C228.096 533.833 238.128 529.46 247.333 523.655C254.9 518.882 261.843 513.183 267.998 506.69Z" fill="#3656FF"/>
<mask id="mask4_518_12240" style="mask-type:alpha" maskUnits="userSpaceOnUse" x="83" y="476" width="278" height="181">
<path d="M267.998 506.69L284.028 489.781L294.46 476.489L355.647 506.872L359.435 541.898C361.398 560.046 360.676 578.384 357.291 596.321L355.587 605.352C352.153 623.555 345.139 640.895 334.952 656.367L195.793 630.933L90.334 602.464C88.1808 601.883 86.5508 600.119 86.1404 597.927L83.8935 585.928C80.7736 569.266 88.355 552.422 102.896 543.71C110.595 539.097 119.607 537.171 128.519 538.233L160.303 542.021C177.152 544.03 194.229 542.825 210.629 538.471L217.578 536.626C228.096 533.833 238.128 529.46 247.333 523.655C254.901 518.882 261.843 513.183 267.998 506.69Z" fill="#3656FF"/>
</mask>
<g mask="url(#mask4_518_12240)">
<path d="M174.789 555.117L166.138 543.268L107.151 518.167L86.4435 540.757L80.1684 580.918C106.003 592.586 133.202 600.959 161.126 605.84L208.809 614.177C199.632 593.321 188.226 573.519 174.789 555.117Z" fill="#A25A18"/>
</g>
<path d="M187.474 575.27L192.404 574.619C232.344 569.344 269.429 551.046 297.916 522.559L270.933 503.106C245.864 530.165 210.139 544.793 173.292 543.087L163.628 542.64L187.474 575.27Z" fill="#D5DBFF"/>
<path d="M199.396 572.76L173.668 542.64H183.708L207.741 550.229L211.946 538.875L216.339 537.619L235.22 541.032L237.047 529.462L240.812 527.579L257.913 530.849L257.127 515.657L261.52 512.519L270.017 514.36L268.423 506.244L270.933 503.734L275.572 515.564L299.171 520.677L291.641 527.579L278.504 523.041L283.483 535.737L275.325 541.385L266.759 538.717L268.423 547.032L259.01 552.052L242.278 547.367L243.322 561.465L231.399 565.23L211.717 557.528L208.181 572.76H199.396Z" fill="#B0BAEC"/>
<path d="M173.668 542.64L199.396 572.76M173.668 542.64H183.708M173.668 542.64L231.399 565.23M199.396 572.76H208.181M199.396 572.76L211.946 538.875M208.181 572.76L183.708 542.64M208.181 572.76L216.339 537.619M183.708 542.64L243.322 561.465M231.399 565.23L243.322 561.465M231.399 565.23L237.047 529.462M243.322 561.465L240.812 527.579M237.047 529.462L240.812 527.579M237.047 529.462L275.325 541.385M240.812 527.579L283.483 535.737M275.325 541.385L283.483 535.737M275.325 541.385L268.423 506.244L270.933 503.734L283.483 535.737M211.946 538.875L216.339 537.619M211.946 538.875L259.01 552.052M216.339 537.619L268.423 547.032M259.01 552.052L268.423 547.032M259.01 552.052L257.127 515.657M268.423 547.032L261.52 512.519M257.127 515.657L261.52 512.519M257.127 515.657L291.641 527.579L299.171 520.677L261.52 512.519" stroke="#B0BAEC" stroke-width="1.25503"/>
<path d="M201.906 564.603L189.356 549.543L205.671 555.19L201.906 564.603Z" fill="#D5DBFF"/>
<path d="M213.201 551.425L215.711 540.13L234.537 545.778L232.027 557.7L213.201 551.425Z" fill="#D5DBFF"/>
<path d="M242.067 542.012L241.44 530.717L257.755 535.737L258.382 545.15L242.067 542.012Z" fill="#D5DBFF"/>
<path d="M265.285 531.972L262.775 518.167L271.56 520.677L273.443 533.855L265.285 531.972Z" fill="#D5DBFF"/>
<mask id="mask5_518_12240" style="mask-type:alpha" maskUnits="userSpaceOnUse" x="83" y="476" width="278" height="181">
<path d="M267.998 506.69L284.028 489.781L294.46 476.489L355.647 506.872L359.435 541.898C361.398 560.046 360.676 578.384 357.291 596.321L355.587 605.352C352.153 623.555 345.139 640.895 334.952 656.367L195.793 630.933L90.334 602.464C88.1808 601.883 86.5508 600.119 86.1404 597.927L83.8935 585.928C80.7736 569.266 88.355 552.422 102.896 543.71C110.595 539.097 119.607 537.171 128.519 538.233L160.303 542.021C177.152 544.03 194.229 542.825 210.629 538.471L217.578 536.626C228.096 533.833 238.128 529.46 247.333 523.655C254.901 518.882 261.843 513.183 267.998 506.69Z" fill="#3656FF"/>
</mask>
<g mask="url(#mask5_518_12240)">
<path d="M132.879 599.116L82.678 582.173C80.0079 584.843 79.1648 588.837 80.528 592.359L82.6272 597.782C84.6434 602.99 88.9088 607.006 94.2292 608.705L160.49 629.864L336.193 661.24L344.979 643.669L299.17 634.257L218.221 616.059L132.879 599.116Z" fill="#B0BAEC"/>
</g>
<g style="mix-blend-mode:color-burn">
<path d="M267.998 506.69L284.028 489.781L294.46 476.489L355.647 506.872L359.435 541.898C361.398 560.046 360.676 578.384 357.291 596.321L355.587 605.352C352.153 623.555 345.139 640.895 334.952 656.367L195.793 630.933L90.334 602.464C88.1808 601.883 86.5508 600.119 86.1403 597.927L83.8935 585.928C80.7735 569.266 88.3549 552.422 102.896 543.71C110.595 539.097 119.607 537.171 128.519 538.233L160.303 542.021C177.152 544.03 194.229 542.825 210.629 538.471L217.578 536.626C228.096 533.833 238.128 529.46 247.333 523.655C254.9 518.882 261.843 513.183 267.998 506.69Z" fill="url(#paint12_linear_518_12240)"/>
</g>
<mask id="mask6_518_12240" style="mask-type:alpha" maskUnits="userSpaceOnUse" x="178" y="39" width="661" height="527">
<path d="M800.753 526.243L838.832 500.597C823.952 496.464 810.158 489.122 798.42 479.088L795.181 476.319C783.387 466.237 773.574 454.047 766.243 440.372L756.355 421.927C748.649 407.552 743.542 391.929 741.271 375.778C739.8 365.317 739.531 354.721 740.468 344.199L743.758 307.28C744.388 300.214 744.32 293.104 743.555 286.051C740.661 259.36 727.928 234.703 707.841 216.89L672.541 185.586L597.867 118.442L514.35 55.8044C506.501 49.9176 497.668 45.4538 488.274 42.6227C467.984 36.508 446.107 38.3193 427.107 47.7023C413.208 54.5659 401.491 65.1581 393.264 78.2961L363.804 125.345L323.643 201.274L252.107 326.776L195.497 409.164C186.496 422.263 180.539 437.208 178.06 452.906C184.738 458.332 191.93 463.091 199.534 467.117L252.197 494.998C266.31 502.469 279.474 511.607 291.409 522.215L313.743 542.068C327.986 554.729 345.592 562.992 364.432 565.859L413.378 466.712L503.112 280.34L534.821 373.515C540.859 391.258 548.649 408.355 558.076 424.553C578.101 458.963 605.179 488.747 637.532 511.949L650.578 521.305L658.487 528.762C667.742 537.489 678.807 544.069 690.894 548.035C705.186 552.725 720.452 553.611 735.191 550.606L749.672 547.653C767.936 543.93 785.292 536.655 800.753 526.243Z" fill="#EA4050"/>
</mask>
<g mask="url(#mask6_518_12240)">
<path d="M800.753 526.243L838.832 500.597C823.952 496.464 810.158 489.122 798.42 479.088L795.181 476.319C783.387 466.237 773.574 454.047 766.243 440.372L756.355 421.927C748.649 407.552 743.542 391.929 741.271 375.778C739.8 365.317 739.531 354.721 740.468 344.199L743.758 307.28C744.388 300.214 744.32 293.104 743.555 286.051C740.661 259.36 727.928 234.703 707.841 216.89L672.541 185.586L597.867 118.442L514.35 55.8044C506.501 49.9176 497.668 45.4538 488.274 42.6227C467.984 36.508 446.107 38.3193 427.107 47.7023C413.208 54.5659 401.491 65.1581 393.264 78.2961L363.804 125.345L323.643 201.274L252.107 326.776L195.497 409.164C186.496 422.263 180.539 437.208 178.06 452.906C184.738 458.332 191.93 463.091 199.534 467.117L252.197 494.998C266.31 502.469 279.474 511.607 291.409 522.215L313.743 542.068C327.986 554.729 345.592 562.992 364.432 565.859L413.378 466.712L503.112 280.34L534.821 373.515C540.859 391.258 548.649 408.355 558.076 424.553C578.101 458.963 605.18 488.747 637.532 511.949L650.578 521.305L658.487 528.762C667.742 537.489 678.807 544.069 690.894 548.035C705.186 552.725 720.452 553.611 735.191 550.606L749.672 547.653C767.936 543.93 785.292 536.655 800.753 526.243Z" fill="#EA4050"/>
<path d="M800.753 526.243L838.832 500.598C823.952 496.465 810.158 489.123 798.42 479.088L795.181 476.32C783.387 466.238 773.574 454.048 766.243 440.373L756.355 421.928C748.649 407.553 743.542 391.93 741.271 375.778C739.8 365.317 739.531 354.722 740.468 344.199L743.758 307.28C744.388 300.215 744.32 293.104 743.555 286.052C740.661 259.36 727.928 234.704 707.841 216.89L672.541 185.586L597.867 118.442L514.35 55.8048C506.501 49.9181 497.668 45.4543 488.274 42.6232C467.984 36.5085 446.107 38.3198 427.107 47.7028C413.208 54.5664 401.491 65.1586 393.264 78.2966L363.804 125.345L323.643 201.274L252.107 326.777L195.497 409.165C186.496 422.263 180.539 437.209 178.06 452.907C184.738 458.332 191.93 463.092 199.534 467.117L252.197 494.998C266.31 502.469 279.474 511.607 291.409 522.216L313.743 542.069C327.986 554.729 345.592 562.992 364.432 565.859L413.378 466.712L503.112 280.341L534.821 373.516C540.859 391.258 548.649 408.355 558.076 424.554C578.101 458.963 605.18 488.748 637.532 511.95L650.578 521.306L658.487 528.763C667.742 537.49 678.807 544.07 690.894 548.036C705.186 552.725 720.452 553.611 735.191 550.606L749.672 547.654C767.936 543.93 785.292 536.656 800.753 526.243Z" fill="url(#paint13_linear_518_12240)"/>
<path d="M800.753 526.243L838.832 500.598C823.952 496.465 810.158 489.123 798.42 479.088L795.181 476.32C783.387 466.238 773.574 454.048 766.243 440.373L756.355 421.928C748.649 407.553 743.542 391.93 741.271 375.778C739.8 365.317 739.531 354.722 740.468 344.199L743.758 307.28C744.388 300.215 744.32 293.104 743.555 286.052C740.661 259.36 727.928 234.704 707.841 216.89L672.541 185.586L597.867 118.442L514.35 55.8048C506.501 49.9181 497.668 45.4543 488.274 42.6232C467.984 36.5085 446.107 38.3198 427.107 47.7028C413.208 54.5664 401.491 65.1586 393.264 78.2966L363.804 125.345L323.643 201.274L252.107 326.777L195.497 409.165C186.496 422.263 180.539 437.209 178.06 452.907C184.738 458.332 191.93 463.092 199.534 467.117L252.197 494.998C266.31 502.469 279.474 511.607 291.409 522.216L313.743 542.069C327.986 554.729 345.592 562.992 364.432 565.859L413.378 466.712L503.112 280.341L534.821 373.516C540.859 391.258 548.649 408.355 558.076 424.554C578.101 458.963 605.18 488.748 637.532 511.95L650.578 521.306L658.487 528.763C667.742 537.49 678.807 544.07 690.894 548.036C705.186 552.725 720.452 553.611 735.191 550.606L749.672 547.654C767.936 543.93 785.292 536.656 800.753 526.243Z" fill="url(#paint14_linear_518_12240)"/>
<path d="M585.131 19.9256L582.251 31.4576L590.63 37.2978L580.866 34.3024L573.563 43.6801L576.442 32.1482L568.063 26.3079L577.828 29.3033L585.131 19.9256Z" fill="#FF8A71" fill-opacity="0.2"/>
<path d="M688.938 70.4796L686.058 82.0115L694.437 87.8518L684.673 84.8564L677.369 94.2341L680.249 82.7021L671.87 76.8618L681.635 79.8573L688.938 70.4796Z" fill="#FF8A71" fill-opacity="0.2"/>
<path d="M792.745 121.033L789.865 132.565L798.244 138.406L788.48 135.41L781.177 144.788L784.056 133.256L775.677 127.416L785.442 130.411L792.745 121.033Z" fill="#FF8A71" fill-opacity="0.2"/>
<path d="M439.533 55.1849L436.654 66.7168L445.032 72.5571L435.268 69.5617L427.965 78.9394L430.845 67.4075L422.466 61.5672L432.23 64.5626L439.533 55.1849Z" fill="#FF8A71" fill-opacity="0.4"/>
<path d="M543.34 105.739L540.461 117.271L548.839 123.111L539.075 120.115L531.772 129.493L534.652 117.961L526.273 112.121L536.037 115.116L543.34 105.739Z" fill="#FF8A71" fill-opacity="0.4"/>
<path d="M647.147 156.292L644.268 167.824L652.647 173.665L642.882 170.669L635.579 180.047L638.459 168.515L630.08 162.675L639.844 165.67L647.147 156.292Z" fill="#FF8A71" fill-opacity="0.4"/>
<path d="M750.954 206.846L748.075 218.378L756.453 224.218L746.689 221.223L739.386 230.601L742.266 219.069L733.887 213.228L743.651 216.224L750.954 206.846Z" fill="#FF8A71" fill-opacity="0.4"/>
<path d="M854.761 257.4L851.882 268.932L860.26 274.772L850.496 271.777L843.193 281.154L846.073 269.623L837.694 263.782L847.458 266.778L854.761 257.4Z" fill="#FF8A71" fill-opacity="0.4"/>
<path d="M190.129 39.8902L187.249 51.4222L195.628 57.2624L185.863 54.267L178.56 63.6447L181.44 52.1128L173.061 46.2725L182.825 49.2679L190.129 39.8902Z" fill="#FF8A71" fill-opacity="0.6"/>
<path d="M293.936 90.4442L291.056 101.976L299.435 107.816L289.67 104.821L282.367 114.199L285.247 102.667L276.868 96.8264L286.632 99.8219L293.936 90.4442Z" fill="#FF8A71" fill-opacity="0.6"/>
<path d="M397.743 140.998L394.863 152.53L403.242 158.37L393.477 155.375L386.174 164.752L389.054 153.22L380.675 147.38L390.439 150.376L397.743 140.998Z" fill="#FF8A71" fill-opacity="0.6"/>
<path d="M501.55 191.552L498.67 203.084L507.049 208.924L497.284 205.928L489.981 215.306L492.861 203.774L484.482 197.934L494.246 200.929L501.55 191.552Z" fill="#FF8A71" fill-opacity="0.6"/>
<path d="M605.356 242.105L602.477 253.637L610.856 259.478L601.091 256.482L593.788 265.86L596.668 254.328L588.289 248.488L598.053 251.483L605.356 242.105Z" fill="#FF8A71" fill-opacity="0.6"/>
<path d="M709.163 292.659L706.284 304.191L714.663 310.031L704.898 307.036L697.595 316.414L700.475 304.882L692.096 299.041L701.86 302.037L709.163 292.659Z" fill="#FF8A71" fill-opacity="0.6"/>
<path d="M812.971 343.213L810.091 354.745L818.47 360.585L808.705 357.59L801.402 366.967L804.282 355.436L795.903 349.595L805.667 352.591L812.971 343.213Z" fill="#FF8A71" fill-opacity="0.6"/>
<path d="M252.145 176.257L249.265 187.789L257.644 193.629L247.88 190.634L240.577 200.012L243.457 188.48L235.078 182.639L244.842 185.635L252.145 176.257Z" fill="#FF8A71"/>
<path d="M355.952 226.811L353.072 238.343L361.451 244.183L351.687 241.188L344.384 250.566L347.263 239.034L338.884 233.193L348.649 236.189L355.952 226.811Z" fill="#FF8A71"/>
<path d="M459.759 277.365L456.879 288.897L465.258 294.737L455.494 291.742L448.191 301.119L451.07 289.587L442.691 283.747L452.456 286.743L459.759 277.365Z" fill="#FF8A71"/>
<path d="M563.566 327.919L560.686 339.451L569.065 345.291L559.301 342.295L551.998 351.673L554.877 340.141L546.498 334.301L556.263 337.296L563.566 327.919Z" fill="#FF8A71"/>
<path d="M667.373 378.472L664.493 390.004L672.872 395.845L663.108 392.849L655.805 402.227L658.684 390.695L650.305 384.855L660.07 387.85L667.373 378.472Z" fill="#FF8A71"/>
<path d="M771.18 429.026L768.3 440.558L776.679 446.398L766.915 443.403L759.612 452.781L762.491 441.249L754.112 435.408L763.877 438.404L771.18 429.026Z" fill="#FF8A71"/>
<path d="M210.354 262.07L207.474 273.602L215.853 279.442L206.089 276.447L198.786 285.825L201.665 274.293L193.287 268.452L203.051 271.448L210.354 262.07Z" fill="#FF8A71"/>
<path d="M314.161 312.624L311.281 324.156L319.66 329.996L309.896 327.001L302.593 336.378L305.472 324.846L297.094 319.006L306.858 322.002L314.161 312.624Z" fill="#FF8A71"/>
<path d="M417.968 363.178L415.088 374.71L423.467 380.55L413.703 377.554L406.4 386.932L409.279 375.4L400.9 369.56L410.665 372.555L417.968 363.178Z" fill="#FF8A71"/>
<path d="M521.775 413.731L518.895 425.263L527.274 431.104L517.51 428.108L510.207 437.486L513.086 425.954L504.707 420.114L514.472 423.109L521.775 413.731Z" fill="#FF8A71"/>
<path d="M625.582 464.285L622.702 475.817L631.081 481.657L621.317 478.662L614.014 488.04L616.893 476.508L608.514 470.667L618.279 473.663L625.582 464.285Z" fill="#FF8A71"/>
<path d="M729.389 514.839L726.509 526.371L734.888 532.211L725.124 529.216L717.821 538.593L720.7 527.062L712.321 521.221L722.086 524.217L729.389 514.839Z" fill="#FF8A71"/>
<path d="M833.196 565.393L830.316 576.925L838.695 582.765L828.931 579.77L821.628 589.147L824.508 577.615L816.129 571.775L825.893 574.771L833.196 565.393Z" fill="#FF8A71"/>
<path d="M168.563 347.883L165.684 359.415L174.063 365.255L164.298 362.26L156.995 371.637L159.875 360.106L151.496 354.265L161.26 357.261L168.563 347.883Z" fill="#FF8A71"/>
<path d="M272.37 398.437L269.491 409.969L277.87 415.809L268.105 412.814L260.802 422.191L263.682 410.659L255.303 404.819L265.067 407.815L272.37 398.437Z" fill="#FF8A71"/>
<path d="M376.177 448.991L373.298 460.522L381.677 466.363L371.912 463.367L364.609 472.745L367.489 461.213L359.11 455.373L368.874 458.368L376.177 448.991Z" fill="#FF8A71"/>
<path d="M479.984 499.544L477.105 511.076L485.484 516.917L475.719 513.921L468.416 523.299L471.296 511.767L462.917 505.927L472.681 508.922L479.984 499.544Z" fill="#FF8A71"/>
<path d="M583.791 550.098L580.912 561.63L589.291 567.47L579.526 564.475L572.223 573.853L575.103 562.321L566.724 556.48L576.488 559.476L583.791 550.098Z" fill="#FF8A71"/>
<path d="M230.58 484.25L227.7 495.782L236.079 501.622L226.314 498.627L219.011 508.004L221.891 496.472L213.512 490.632L223.276 493.628L230.58 484.25Z" fill="#FF8A71"/>
<path d="M334.387 534.804L331.507 546.335L339.886 552.176L330.121 549.18L322.818 558.558L325.698 547.026L317.319 541.186L327.083 544.181L334.387 534.804Z" fill="#FF8A71"/>
</g>
<g style="mix-blend-mode:color-dodge">
<rect x="70.7556" y="-106.208" width="922.444" height="855.928" fill="#3656FF"/>
</g>
<g style="mix-blend-mode:hard-light" opacity="0.6">
<path d="M70.7556 -106.208H993.2V749.72H70.7556V-106.208Z" fill="url(#paint15_linear_518_12240)"/>
</g>
<g style="mix-blend-mode:overlay">
<path d="M642.689 170.771C642.689 206.253 592.386 237.242 517.562 253.88C480.499 262.121 427.645 249.743 381.683 249.743C314.142 249.743 262.602 256.649 217.455 240.068C169.855 222.586 140.228 198.002 140.228 170.771C140.228 130.95 218.023 99.085 308.295 84.5184C338.301 79.6766 338.64 109.265 373.254 109.265C382.534 90.7048 412.435 35.0257 468.114 39.1504C507.295 42.0529 528.728 66.9714 560.912 90.7048C601.524 120.653 642.689 152.108 642.689 170.771Z" fill="#96CDF5"/>
</g>
<g style="mix-blend-mode:soft-light" filter="url(#filter0_f_518_12240)">
<ellipse cx="388.526" cy="139.02" rx="218.971" ry="105.025" fill="#FFC1C1"/>
</g>
<g style="mix-blend-mode:overlay">
<path d="M661.959 603.828C661.959 639.31 707.867 670.299 633.044 686.937C595.981 695.178 543.127 682.8 497.165 682.8C429.624 682.8 378.084 689.706 332.936 673.124C285.337 655.643 255.71 631.058 255.71 603.828C255.71 579.718 277.448 560.587 315.513 544.383C325.824 549.539 348.508 563.975 363.974 563.975C372.223 555.725 381.503 526.855 387.689 519.637C417.695 514.796 454.122 542.322 488.736 542.322C498.016 523.762 478.425 513.451 534.104 517.576C573.285 520.478 562.754 547.458 594.938 571.192C635.549 601.14 661.959 585.165 661.959 603.828Z" fill="#96CDF5"/>
</g>
<g style="mix-blend-mode:soft-light" filter="url(#filter1_f_518_12240)">
<ellipse cx="504.008" cy="572.076" rx="218.971" ry="105.025" fill="#FFC1C1"/>
</g>
</g>
</g>
<defs>
<filter id="filter0_f_518_12240" x="-130.095" y="-265.655" width="1037.24" height="809.348" filterUnits="userSpaceOnUse" color-interpolation-filters="sRGB">
<feFlood flood-opacity="0" result="BackgroundImageFix"/>
<feBlend mode="normal" in="SourceGraphic" in2="BackgroundImageFix" result="shape"/>
<feGaussianBlur stdDeviation="149.825" result="effect1_foregroundBlur_518_12240"/>
</filter>
<filter id="filter1_f_518_12240" x="-14.6131" y="167.402" width="1037.24" height="809.348" filterUnits="userSpaceOnUse" color-interpolation-filters="sRGB">
<feFlood flood-opacity="0" result="BackgroundImageFix"/>
<feBlend mode="normal" in="SourceGraphic" in2="BackgroundImageFix" result="shape"/>
<feGaussianBlur stdDeviation="149.825" result="effect1_foregroundBlur_518_12240"/>
</filter>
<linearGradient id="paint0_linear_518_12240" x1="240.812" y1="569.624" x2="222.614" y2="655.593" gradientUnits="userSpaceOnUse">
<stop offset="0.686123" stop-color="#FFCF54" stop-opacity="0"/>
<stop offset="1" stop-color="#E89F13"/>
</linearGradient>
<linearGradient id="paint1_linear_518_12240" x1="665.952" y1="-82.3625" x2="649.323" y2="380.742" gradientUnits="userSpaceOnUse">
<stop stop-color="#F2BE37"/>
<stop offset="1" stop-color="#DA8A2C"/>
</linearGradient>
<linearGradient id="paint2_linear_518_12240" x1="326.154" y1="493.695" x2="322.388" y2="631.12" gradientUnits="userSpaceOnUse">
<stop stop-color="#3D4B96"/>
<stop offset="1" stop-color="#3656FF" stop-opacity="0"/>
</linearGradient>
<linearGradient id="paint3_linear_518_12240" x1="244.578" y1="643.67" x2="244.578" y2="712.696" gradientUnits="userSpaceOnUse">
<stop stop-color="#1F1F1F"/>
<stop offset="0.65625" stop-color="#353535"/>
<stop offset="1" stop-color="#595959"/>
</linearGradient>
<linearGradient id="paint4_linear_518_12240" x1="244.578" y1="643.67" x2="244.578" y2="712.696" gradientUnits="userSpaceOnUse">
<stop stop-color="#1F1F1F"/>
<stop offset="0.65625" stop-color="#353535"/>
<stop offset="1" stop-color="#595959"/>
</linearGradient>
<linearGradient id="paint5_linear_518_12240" x1="211.006" y1="678.184" x2="211.006" y2="749.093" gradientUnits="userSpaceOnUse">
<stop stop-color="#1F1F1F"/>
<stop offset="0.65625" stop-color="#353535"/>
<stop offset="1" stop-color="#595959"/>
</linearGradient>
<linearGradient id="paint6_linear_518_12240" x1="211.006" y1="678.184" x2="211.006" y2="749.093" gradientUnits="userSpaceOnUse">
<stop stop-color="#1F1F1F"/>
<stop offset="0.65625" stop-color="#353535"/>
<stop offset="1" stop-color="#595959"/>
</linearGradient>
<linearGradient id="paint7_linear_518_12240" x1="240.812" y1="569.624" x2="213.004" y2="649.593" gradientUnits="userSpaceOnUse">
<stop stop-color="#FF8A00" stop-opacity="0"/>
<stop offset="1" stop-color="#B1761C"/>
</linearGradient>
<linearGradient id="paint8_linear_518_12240" x1="240.812" y1="569.624" x2="222.614" y2="655.593" gradientUnits="userSpaceOnUse">
<stop offset="0.686123" stop-color="#FFCF54" stop-opacity="0"/>
<stop offset="1" stop-color="#E89F13"/>
</linearGradient>
<linearGradient id="paint9_linear_518_12240" x1="622.902" y1="243.111" x2="211.115" y2="498.434" gradientUnits="userSpaceOnUse">
<stop stop-color="#8A000D" stop-opacity="0"/>
<stop offset="1" stop-color="#8A000D"/>
</linearGradient>
<linearGradient id="paint10_linear_518_12240" x1="609.941" y1="74.4732" x2="508.857" y2="522.773" gradientUnits="userSpaceOnUse">
<stop stop-color="#EA4050" stop-opacity="0"/>
<stop offset="1" stop-color="#8A000D"/>
</linearGradient>
<linearGradient id="paint11_linear_518_12240" x1="280.075" y1="35.6412" x2="288.646" y2="502.245" gradientUnits="userSpaceOnUse">
<stop stop-color="#EA4050" stop-opacity="0"/>
<stop offset="1" stop-color="#5B040C"/>
</linearGradient>
<linearGradient id="paint12_linear_518_12240" x1="324.271" y1="489.301" x2="246.46" y2="633.002" gradientUnits="userSpaceOnUse">
<stop stop-color="#3D4B96"/>
<stop offset="1" stop-color="#3656FF" stop-opacity="0"/>
</linearGradient>
<linearGradient id="paint13_linear_518_12240" x1="759.765" y1="194.999" x2="265.912" y2="506.246" gradientUnits="userSpaceOnUse">
<stop stop-color="#EA4050" stop-opacity="0"/>
<stop offset="1" stop-color="#8A000D"/>
</linearGradient>
<linearGradient id="paint14_linear_518_12240" x1="744.077" y1="-5.80524" x2="625.477" y2="528.836" gradientUnits="userSpaceOnUse">
<stop stop-color="#EA4050" stop-opacity="0"/>
<stop offset="1" stop-color="#8A000D"/>
</linearGradient>
<linearGradient id="paint15_linear_518_12240" x1="531.978" y1="-106.208" x2="501.012" y2="692.754" gradientUnits="userSpaceOnUse">
<stop stop-color="#FF7A00"/>
<stop offset="1" stop-color="#471111" stop-opacity="0"/>
</linearGradient>
</defs>
</svg>
