<svg width="1339" height="796" viewBox="0 0 1339 796" fill="none" xmlns="http://www.w3.org/2000/svg">
<mask id="mask0_405_54834" style="mask-type:alpha" maskUnits="userSpaceOnUse" x="0" y="0" width="1339" height="796">
<path d="M0 30C0 13.4315 13.4315 0 30 0H1308.46C1325.03 0 1338.46 13.4315 1338.46 30V199V440C1338.46 456.569 1325.03 470 1308.46 470H884C867.431 470 854 483.431 854 500V657.5V766C854 782.569 840.569 796 824 796H669.23H29.9999C13.4314 796 0 782.569 0 766V30Z" fill="#EDE7FF"/>
</mask>
<g mask="url(#mask0_405_54834)">
<path d="M578.94 34.1978L591.831 30.4261C605.079 26.55 619.219 27.0123 632.185 31.7452L641.278 36.4586C651.297 41.6523 659.703 49.4902 665.584 59.1223C672.023 69.6694 675.152 81.9046 674.567 94.2481L669.046 210.841C667.211 249.577 660.289 287.904 648.458 324.835L638.229 356.766C621.622 408.604 598.992 458.314 570.801 504.879L537.99 559.076L468.577 662.984L426.114 722.411C398.798 760.638 368.166 796.383 334.573 829.23L327.215 836.426C292.122 870.74 253.526 901.277 212.06 927.537L190.984 940.884C171.519 953.21 151.046 963.865 129.782 972.734L73.1176 996.368C68.3367 998.362 63.254 999.536 58.0829 999.841C34.9021 1001.21 14.3227 985.12 10.052 962.295L7.79436 950.229C7.06077 946.308 6.71976 942.324 6.77637 938.336L7.75974 869.055L8.37164 864.931C17.9004 800.715 32.532 737.36 52.1275 675.469L55.8867 666.019C81.7664 600.962 112.31 537.859 147.279 477.202L212.737 381.61L264.753 309.887L344.77 207.438C394.074 159.694 446.856 115.678 502.681 75.7529L507.523 72.2899L555.331 44.365C562.757 40.0272 570.685 36.6128 578.94 34.1978Z" fill="#3D3AA9"/>
<path d="M728.72 245.806L779.324 276.976C787.206 250.886 790.567 223.641 789.262 196.417L788.387 178.161L767.801 166.621C738.183 150.017 705.713 139.118 672.075 134.488C662.314 133.015 654.556 125.525 652.74 115.822L652.037 112.063L583.487 135.91L582.578 138.829C580.632 145.077 580.244 151.707 581.447 158.14C582.616 164.386 585.251 170.265 589.137 175.294L595.107 183.02C600.48 189.973 606.953 196.002 614.271 200.867L616.719 202.495C627.032 209.351 638.544 214.201 650.653 216.791L665.297 219.923C681.032 223.289 696.235 228.782 710.488 236.251L728.72 245.806Z" fill="#3D3AA9"/>
<path d="M432.556 514.758L448.265 510.39L474.293 531.695L508.804 554.167L507.072 574.267C506.783 577.618 505.683 580.849 503.867 583.681C500.249 589.325 494.126 592.872 487.43 593.203L468.072 594.161L426.605 597.098L395.494 600.164L362.679 601.482L349.918 602.206C345.625 602.449 342.21 598.654 342.905 594.409C343.045 593.553 343.349 592.738 343.792 592.007C341.426 594.19 338.439 595.584 335.244 595.995L327.715 596.963C321.965 597.702 316.962 593.028 317.309 587.241L314.283 586.444C308.761 584.991 305.991 578.81 308.58 573.721L305.118 572.391C301.556 571.023 299.518 567.268 300.313 563.536C300.609 562.144 301.283 560.86 302.261 559.825L303.752 558.247C305.926 555.946 308.751 554.367 311.848 553.72L338.91 548.071L305.854 554.838C302.282 555.569 298.673 553.766 297.112 550.47C295.384 546.823 296.678 542.459 300.114 540.342L300.727 539.964C301.638 539.403 302.645 539.014 303.697 538.817L322.07 535.38L356.676 528.905C382.331 526.396 407.72 521.663 432.556 514.758Z" fill="#3D3AA9"/>
<path d="M411.034 79.3223L363.316 8.64552L408.693 0.549086L414.719 8.24217C426.364 23.1082 439.322 36.8965 453.438 49.4405L479.618 72.7058C482.158 74.9634 484.975 76.8892 488.001 78.4373C495.911 82.4844 504.939 83.7934 513.673 82.1593L545.141 76.2715C550.667 75.2375 556.261 74.6099 561.879 74.3936C583.618 73.5566 604.675 66.5746 622.608 54.257L623.628 53.5563C633.081 47.0632 643.42 41.9664 654.328 38.4231L687.879 27.5231L703.471 24.6059C726.921 20.2183 749.038 10.4672 768.095 -3.88525L798.015 -26.4194C810.213 -35.606 818.454 -49.0934 821.062 -64.1392C822.534 -72.6304 825.816 -80.7054 830.685 -87.816L833.488 -91.9087C837.845 -98.2717 841.148 -105.295 843.27 -112.71C844.739 -117.845 845.63 -123.129 845.927 -128.462L846.176 -132.933C847.07 -149.006 851.427 -164.696 858.949 -178.928L861.267 -183.316L912.004 -173.523L918.23 -140.248L919.845 -124.445C921.511 -108.133 919.677 -91.6542 914.464 -76.1085L910.379 -63.9233C908.373 -57.9418 907.539 -51.6299 907.921 -45.3328C908.615 -33.8891 913.291 -23.0489 921.137 -14.6902L934.06 -0.924961C939.696 5.07888 944.579 11.747 948.603 18.932L957.753 35.2727C966.212 50.3795 973.108 66.3098 978.334 82.8164L989.002 116.517L1004.57 199.704L1015.52 258.267L1013.1 282.139L996.032 330.793L940.161 370.865L839.151 335.35L778.968 230.893L726.9 156.489C719.139 145.398 708.497 136.637 696.122 131.15C684.873 126.163 672.562 124.046 660.293 124.988L659.432 125.055C651.687 125.65 644.075 127.402 636.849 130.253L623.175 135.648C602.125 143.953 579.667 148.105 557.04 147.874L531.953 147.618L493.564 148.602C472.549 148.172 452.826 138.37 439.794 121.878L432.399 112.52L411.034 79.3223Z" fill="#3D3AA9"/>
<path d="M694.514 294.91L727.325 304.613L710.568 402.802L624.636 370.214C609.789 364.583 594.486 360.237 578.896 357.223L576.835 356.824C576.01 356.665 575.268 357.354 575.366 358.189C578.289 382.995 573.663 408.105 562.094 430.242L549.927 453.522L533.32 486.248C517.01 481.999 501.48 475.186 487.308 466.065L480.509 461.689L492.14 391.323L499.151 329.397L501.436 315.061C504.025 298.815 513.104 284.318 526.59 274.896C529.572 272.813 532.736 271.002 536.043 269.486L537.99 268.593C546.772 264.566 556.421 262.798 566.06 263.451C570.669 263.763 575.225 264.625 579.629 266.018L624.98 280.369L694.514 294.91Z" fill="#3D3AA9"/>
<path d="M534.2 487.423L527.941 485.029C510.403 478.319 493.651 469.715 477.98 459.37L475.785 464.061C468.086 480.513 458.636 496.087 447.6 510.515L463.086 523.324C477.169 534.974 492.453 545.09 508.68 553.501C518.247 536.151 525.763 517.746 531.074 498.658L534.2 487.423Z" fill="#3D3AA9"/>
<path d="M1004.23 287.368L1015.27 256.937L1015.84 264.085C1017.14 280.463 1015.59 296.942 1011.26 312.791L996.19 350.05L980.224 385.164C975.612 395.306 969.285 404.575 961.52 412.565C949.902 424.518 935.394 433.269 919.401 437.97L908.888 441.06C897.828 444.311 886.374 446.035 874.846 446.182C865.385 446.303 855.941 445.361 846.69 443.375L798.895 433.114L704.704 404.589C698.56 393.521 695.183 381.133 694.859 368.479L694.631 359.603C694.457 352.794 695.106 345.99 696.564 339.338L700.48 321.48C702.524 312.156 708.013 303.947 715.849 298.496L778.521 309.5L808.141 313.214C811.311 313.611 814.241 311.466 814.82 308.324C815.235 306.072 814.338 303.779 812.505 302.407L780.489 278.421C779.851 277.943 779.535 277.147 779.673 276.361L785.451 243.457L816.957 294.043L830.426 310.809C839.655 323.969 852.211 334.443 866.812 341.163L870.835 343.015C877.391 346.032 884.235 348.38 891.263 350.022L898.61 351.739C910.545 354.527 922.93 354.803 934.978 352.549C945.341 350.61 955.275 346.832 964.308 341.394L987.174 327.63L993.781 322.342C995.31 321.118 996.321 319.362 996.61 317.424C998.141 307.177 1000.69 297.108 1004.23 287.368Z" fill="#3D3AA9"/>
<mask id="mask1_405_54834" style="mask-type:alpha" maskUnits="userSpaceOnUse" x="39" y="-196" width="1012" height="1185">
<path d="M612.706 22.2749L625.597 18.5032C638.845 14.6272 652.986 15.0894 665.952 19.8224L675.045 24.5358C685.064 29.7294 693.47 37.5674 699.35 47.1995C705.789 57.7465 708.919 69.9818 708.334 82.3252L702.812 198.918C700.978 237.655 694.056 275.981 682.225 312.912L671.995 344.843C655.389 396.681 632.758 446.391 604.568 492.956L571.756 547.153L502.344 651.061L459.88 710.488C432.565 748.715 401.933 784.46 368.34 817.307L360.981 824.503C325.888 858.817 287.292 889.355 245.827 915.614L224.75 928.961C205.286 941.288 184.812 951.942 163.548 960.811L106.884 984.445C102.103 986.439 97.0205 987.613 91.8494 987.918C68.6686 989.284 48.0892 973.198 43.8185 950.373L41.5609 938.306C40.8273 934.386 40.4863 930.402 40.5429 926.413L41.5263 857.132L42.1381 853.009C51.6669 788.792 66.2985 725.437 85.894 663.546L89.6532 654.096C115.533 589.039 146.076 525.936 181.045 465.279L246.504 369.687L298.519 297.964L378.537 195.515C427.841 147.771 480.623 103.755 536.448 63.8301L541.29 60.367L589.097 32.4422C596.524 28.1043 604.452 24.69 612.706 22.2749Z" fill="#8FB4EC" stroke="#FFC369" stroke-width="1.35409"/>
<path d="M762.488 233.883L813.092 265.053C820.974 238.964 824.335 211.718 823.03 184.495L822.155 166.238L801.569 154.698C771.95 138.095 739.48 127.195 705.843 122.565C696.082 121.092 688.324 113.602 686.508 103.899L685.805 100.14L617.255 123.987L616.345 126.906C614.399 133.155 614.011 139.784 615.215 146.217C616.384 152.463 619.019 158.343 622.905 163.371L628.874 171.097C634.247 178.05 640.721 184.079 648.039 188.944L650.487 190.572C660.799 197.428 672.312 202.278 684.421 204.868L699.064 208C714.8 211.366 730.003 216.859 744.256 224.328L762.488 233.883Z" fill="#8FB4EC" stroke="#C2DEFF" stroke-width="1.35409"/>
<path d="M466.358 502.867L482.067 498.499L508.095 519.804L542.606 542.276L540.874 562.376C540.585 565.727 539.485 568.958 537.67 571.79C534.051 577.434 527.928 580.981 521.232 581.312L501.874 582.27L460.407 585.207L429.297 588.273L396.481 589.591L383.721 590.315C379.427 590.558 376.012 586.763 376.707 582.518C376.847 581.662 377.151 580.847 377.595 580.116C375.228 582.299 372.241 583.693 369.046 584.104L361.517 585.072C355.767 585.811 350.764 581.137 351.111 575.35L348.085 574.553C342.563 573.1 339.793 566.919 342.383 561.83L338.92 560.5C335.358 559.132 333.32 555.377 334.115 551.645C334.411 550.253 335.085 548.969 336.063 547.934L337.555 546.355C339.728 544.055 342.553 542.476 345.651 541.829L372.712 536.18L339.656 542.947C336.084 543.678 332.475 541.875 330.914 538.579C329.186 534.931 330.48 530.568 333.916 528.451L334.529 528.073C335.44 527.512 336.447 527.123 337.499 526.926L355.873 523.489L390.478 517.014C416.134 514.505 441.522 509.772 466.358 502.867Z" fill="#8FB4EC"/>
<path d="M342.383 561.83L338.92 560.5C335.358 559.132 333.32 555.377 334.115 551.645V551.645C334.411 550.253 335.085 548.969 336.063 547.934L337.555 546.355C339.728 544.055 342.553 542.476 345.651 541.829L372.712 536.18L339.656 542.947C336.084 543.678 332.475 541.875 330.914 538.579V538.579C329.186 534.931 330.48 530.568 333.916 528.451L334.529 528.073C335.44 527.512 336.447 527.123 337.499 526.926L355.873 523.489L390.478 517.014V517.014C416.134 514.505 441.522 509.772 466.358 502.867L482.067 498.499L508.095 519.804L542.606 542.276L540.874 562.376C540.585 565.727 539.485 568.958 537.67 571.79V571.79C534.051 577.434 527.928 580.981 521.232 581.312L501.874 582.27L460.407 585.207L429.297 588.273L396.481 589.591L383.721 590.315C379.427 590.558 376.012 586.763 376.707 582.518V582.518C376.959 580.975 377.742 579.569 378.92 578.54L385.133 573.117M342.383 561.83V561.83C349.177 556.93 356.969 553.59 365.203 552.05L375.327 550.156M342.383 561.83V561.83C339.793 566.919 342.563 573.1 348.085 574.553L351.111 575.35M351.111 575.35V575.35C357.858 569.984 365.462 565.795 373.602 562.958L382.643 559.807M351.111 575.35V575.35C350.764 581.137 355.767 585.811 361.517 585.072L369.046 584.104C372.257 583.691 375.258 582.285 377.631 580.083L385.133 573.117M385.133 573.117L399.817 566.926" stroke="#C2DEFF" stroke-width="1.35409"/>
<path d="M444.8 67.4L403.036 1.53091L442.46 -11.3732L448.486 -3.68011C460.13 11.1859 473.089 24.9742 487.204 37.5181L513.384 60.7834C515.925 63.041 518.741 64.9669 521.767 66.515C529.677 70.5621 538.706 71.8711 547.44 70.237L578.908 64.3491C584.434 63.3152 590.028 62.6876 595.645 62.4713C617.385 61.6343 638.442 54.6522 656.374 42.3347L657.394 41.634C666.848 35.1409 677.187 30.0441 688.094 26.5007L721.646 15.6007L737.237 12.6835C760.687 8.29592 782.805 -1.45514 801.862 -15.8076L831.782 -38.3418C843.98 -47.5283 852.221 -61.0158 854.829 -76.0615C856.301 -84.5527 859.583 -92.6278 864.452 -99.7383L867.255 -103.831C871.612 -110.194 874.915 -117.218 877.036 -124.632C878.505 -129.768 879.397 -135.051 879.693 -140.385L879.942 -144.855C880.836 -160.928 885.193 -176.618 892.715 -190.851L895.034 -195.238L945.77 -185.445L951.996 -152.17L953.611 -136.367C955.278 -120.056 953.444 -103.577 948.231 -88.0308L944.145 -75.8456C942.14 -69.8641 941.305 -63.5523 941.687 -57.2551C942.382 -45.8115 947.057 -34.9712 954.904 -26.6125L967.826 -12.8473C973.462 -6.84344 978.346 -0.17533 982.369 7.00967L991.519 23.3504C999.979 38.4571 1006.87 54.3875 1012.1 70.8941L1022.77 104.594L1038.33 187.781L1049.29 246.345L1046.87 270.217L1029.8 318.871L973.927 358.943L872.918 323.428L812.735 218.971L760.667 144.566C752.905 133.476 742.263 124.714 729.888 119.228C718.639 114.24 706.328 112.123 694.059 113.066L693.198 113.132C685.453 113.727 677.841 115.48 670.615 118.331L656.941 123.726C635.892 132.031 613.434 136.182 590.806 135.952L565.719 135.696L527.331 136.68C506.315 136.25 486.593 126.448 473.56 109.956L466.165 100.597L444.8 67.4Z" fill="#8FB4EC" stroke="#C2DEFF" stroke-width="1.35409"/>
<path d="M728.281 282.989L761.092 292.692L744.335 390.881L658.402 358.292C643.555 352.662 628.253 348.316 612.663 345.301L610.602 344.903C609.777 344.743 609.035 345.433 609.133 346.267C612.056 371.073 607.43 396.184 595.861 418.32L583.694 441.601L567.087 474.327C550.777 470.077 535.246 463.265 521.074 454.144L514.276 449.768L525.907 379.401L532.917 317.476L535.202 303.14C537.792 286.893 546.871 272.397 560.357 262.975C563.339 260.892 566.503 259.081 569.809 257.565L571.757 256.672C580.539 252.645 590.188 250.877 599.827 251.53C604.436 251.842 608.991 252.704 613.396 254.097L658.747 268.447L728.281 282.989Z" fill="#8FB4EC" stroke="#C2DEFF" stroke-width="1.35409"/>
<path d="M568.003 475.532L561.744 473.138C544.206 466.428 527.453 457.824 511.783 447.479L509.588 452.17C501.889 468.622 492.439 484.196 481.403 498.624L496.889 511.433C510.972 523.083 526.256 533.198 542.482 541.61C552.05 524.26 559.565 505.855 564.877 486.767L568.003 475.532Z" fill="#8FB4EC"/>
<g style="mix-blend-mode:screen">
<path d="M1038 275.446L1049.04 245.014L1049.61 252.162C1050.9 268.54 1049.35 285.019 1045.03 300.868L1029.96 338.128L1013.99 373.241C1009.38 383.383 1003.05 392.653 995.288 400.642C983.67 412.595 969.162 421.346 953.169 426.047L942.657 429.137C931.596 432.388 920.142 434.112 908.614 434.259C899.154 434.38 889.709 433.438 880.459 431.452L832.663 421.192L738.472 392.666C732.329 381.598 728.951 369.21 728.627 356.556L728.4 347.68C728.225 340.872 728.874 334.067 730.333 327.415L734.248 309.557C736.292 300.233 741.781 292.024 749.617 286.573L812.29 297.577L841.909 301.291C845.079 301.688 848.009 299.543 848.588 296.401C849.003 294.149 848.106 291.857 846.274 290.484L814.257 266.498C813.619 266.02 813.304 265.224 813.442 264.439L819.219 231.534L850.725 282.12L864.194 298.886C873.423 312.046 885.979 322.52 900.58 329.24L904.603 331.092C911.16 334.109 918.004 336.457 925.032 338.099L932.378 339.816C944.314 342.605 956.698 342.881 968.746 340.626C979.11 338.687 989.043 334.909 998.076 329.472L1020.94 315.707L1027.55 310.419C1029.08 309.195 1030.09 307.439 1030.38 305.502C1031.91 295.254 1034.46 285.185 1038 275.446Z" fill="#8FB4EC"/>
<path d="M1038 275.446L1049.04 245.014L1049.61 252.162C1050.9 268.54 1049.35 285.019 1045.03 300.868L1029.96 338.128L1013.99 373.241C1009.38 383.383 1003.05 392.653 995.288 400.642C983.67 412.595 969.162 421.346 953.169 426.047L942.657 429.137C931.596 432.388 920.142 434.112 908.614 434.259C899.154 434.38 889.709 433.438 880.459 431.452L832.663 421.192L738.472 392.666C732.329 381.598 728.951 369.21 728.627 356.556L728.4 347.68C728.225 340.872 728.874 334.067 730.333 327.415L734.248 309.557C736.292 300.233 741.781 292.024 749.617 286.573L812.29 297.577L841.909 301.291C845.079 301.688 848.009 299.543 848.588 296.401C849.003 294.149 848.106 291.857 846.274 290.484L814.257 266.498C813.619 266.02 813.304 265.224 813.442 264.439L819.219 231.534L850.725 282.12L864.194 298.886C873.423 312.046 885.979 322.52 900.58 329.24L904.603 331.092C911.16 334.109 918.004 336.457 925.032 338.099L932.378 339.816C944.314 342.605 956.698 342.881 968.746 340.626C979.11 338.687 989.043 334.909 998.076 329.472L1020.94 315.707L1027.55 310.419C1029.08 309.195 1030.09 307.439 1030.38 305.502C1031.91 295.254 1034.46 285.185 1038 275.446Z" stroke="#EA4050" stroke-width="1.35409"/>
</g>
</mask>
<g mask="url(#mask1_405_54834)">
<path d="M612.707 22.2757L625.598 18.504C638.846 14.6279 652.986 15.0902 665.952 19.8231L675.045 24.5365C685.064 29.7302 693.47 37.5681 699.351 47.2002C705.79 57.7473 708.919 69.9825 708.334 82.326L702.813 198.919C700.978 237.655 694.056 275.982 682.225 312.913L671.996 344.844C655.389 396.682 632.759 446.392 604.568 492.956L571.757 547.154L502.344 651.062L459.881 710.489C432.565 748.716 401.933 784.461 368.34 817.308L360.982 824.504C325.889 858.818 287.293 889.355 245.827 915.615L224.75 928.962C205.286 941.288 184.812 951.943 163.549 960.812L106.885 984.446C102.104 986.44 97.0209 987.614 91.8498 987.919C68.669 989.285 48.0896 973.198 43.8189 950.373L41.5612 938.307C40.8277 934.386 40.4866 930.402 40.5433 926.414L41.5266 857.133L42.1385 853.009C51.6673 788.793 66.2989 725.438 85.8943 663.547L89.6536 654.097C115.533 589.04 146.077 525.937 181.046 465.28L246.504 369.688L298.519 297.965L378.537 195.516C427.841 147.772 480.623 103.756 536.448 63.8308L541.29 60.3678L589.098 32.4429C596.524 28.1051 604.452 24.6907 612.707 22.2757Z" fill="#FFE99B" stroke="#FFC369" stroke-width="1.35409"/>
<path d="M612.707 22.2757L625.598 18.504C638.846 14.6279 652.986 15.0902 665.952 19.8231L675.045 24.5365C685.064 29.7302 693.47 37.5681 699.351 47.2002C705.79 57.7473 708.919 69.9825 708.334 82.326L702.813 198.919C700.978 237.655 694.056 275.982 682.225 312.913L671.996 344.844C655.389 396.682 632.759 446.392 604.568 492.956L571.757 547.154L502.344 651.062L459.881 710.489C432.565 748.716 401.933 784.461 368.34 817.308L360.982 824.504C325.889 858.818 287.293 889.355 245.827 915.615L224.75 928.962C205.286 941.288 184.812 951.943 163.549 960.812L106.885 984.446C102.104 986.44 97.0209 987.614 91.8498 987.919C68.669 989.285 48.0896 973.198 43.8189 950.373L41.5612 938.307C40.8277 934.386 40.4866 930.402 40.5433 926.414L41.5266 857.133L42.1385 853.009C51.6673 788.793 66.2989 725.438 85.8943 663.547L89.6536 654.097C115.533 589.04 146.077 525.937 181.046 465.28L246.504 369.688L298.519 297.965L378.537 195.516C427.841 147.772 480.623 103.756 536.448 63.8308L541.29 60.3678L589.098 32.4429C596.524 28.1051 604.452 24.6907 612.707 22.2757Z" fill="url(#paint0_linear_405_54834)" stroke="#FFC369" stroke-width="1.35409"/>
<mask id="mask2_405_54834" style="mask-type:alpha" maskUnits="userSpaceOnUse" x="41" y="16" width="669" height="973">
<path d="M613.497 22.8157L626.389 19.0439C639.637 15.1679 653.777 15.6301 666.743 20.3631L675.836 25.0765C685.855 30.2701 694.261 38.1081 700.141 47.7402C706.58 58.2872 709.71 70.5225 709.125 82.8659L703.604 199.459C701.769 238.195 694.847 276.522 683.016 313.453L672.787 345.384C656.18 397.221 633.549 446.932 605.359 493.496L572.547 547.694L503.135 651.602L460.671 711.028C433.356 749.256 402.724 785.001 369.131 817.848L361.772 825.043C326.68 859.358 288.084 889.895 246.618 916.155L225.541 929.502C206.077 941.828 185.603 952.483 164.34 961.352L107.675 984.986C102.894 986.98 97.8117 988.154 92.6406 988.459C69.4598 989.825 48.8804 973.738 44.6097 950.913L42.352 938.847C41.6185 934.926 41.2774 930.942 41.334 926.954L42.3174 857.673L42.9293 853.549C52.4581 789.333 67.0897 725.978 86.6851 664.086L90.4443 654.637C116.324 589.58 146.868 526.477 181.837 465.82L247.295 370.228L299.31 298.504L379.328 196.056C428.632 148.312 481.414 104.296 537.239 64.3708L542.081 60.9078L589.888 32.9829C597.315 28.6451 605.243 25.2307 613.497 22.8157Z" fill="black"/>
</mask>
<g mask="url(#mask2_405_54834)">
<g style="mix-blend-mode:color-dodge">
<circle cx="275.724" cy="379.869" r="6.77043" transform="rotate(-10.5978 275.724 379.869)" fill="white"/>
</g>
<g style="mix-blend-mode:color-dodge">
<circle cx="333.989" cy="499.837" r="6.77043" transform="rotate(-10.5978 333.989 499.837)" fill="white"/>
</g>
<g style="mix-blend-mode:color-dodge">
<circle cx="504.003" cy="410.857" r="6.77043" transform="rotate(-10.5978 504.003 410.857)" fill="white"/>
</g>
<g style="mix-blend-mode:color-dodge">
<circle cx="418.234" cy="217.512" r="6.77043" transform="rotate(-10.5978 418.234 217.512)" fill="white"/>
</g>
<g style="mix-blend-mode:color-dodge">
<circle cx="396.656" cy="308.338" r="10.1556" transform="rotate(-10.5978 396.656 308.338)" fill="white"/>
</g>
<g style="mix-blend-mode:color-dodge">
<circle cx="608.017" cy="418.258" r="6.77043" transform="rotate(-10.5978 608.017 418.258)" fill="white"/>
</g>
<g style="mix-blend-mode:color-dodge">
<circle cx="649.405" cy="186.657" r="6.77043" transform="rotate(-10.5978 649.405 186.657)" fill="white"/>
</g>
<g style="mix-blend-mode:color-dodge">
<circle cx="156.376" cy="666.008" r="6.77043" transform="rotate(-10.5978 156.376 666.008)" fill="white"/>
</g>
<g style="mix-blend-mode:color-dodge">
<circle cx="202.857" cy="601.518" r="3.38522" transform="rotate(-10.5978 202.857 601.518)" fill="white"/>
</g>
<g style="mix-blend-mode:color-dodge">
<circle cx="109.577" cy="798.744" r="3.38522" transform="rotate(-10.5978 109.577 798.744)" fill="white"/>
</g>
<g style="mix-blend-mode:color-dodge">
<circle cx="291.825" cy="366.525" r="3.38522" transform="rotate(-10.5978 291.825 366.525)" fill="white"/>
</g>
<g style="mix-blend-mode:color-dodge">
<circle cx="359.027" cy="387.011" r="3.38522" transform="rotate(-10.5978 359.027 387.011)" fill="white"/>
</g>
<g style="mix-blend-mode:color-dodge">
<circle cx="493.662" cy="259.879" r="3.38522" transform="rotate(-10.5978 493.662 259.879)" fill="white"/>
</g>
<g style="mix-blend-mode:color-dodge">
<circle cx="363.655" cy="249.765" r="3.38522" transform="rotate(-10.5978 363.655 249.765)" fill="white"/>
</g>
<g style="mix-blend-mode:color-dodge">
<circle cx="289.207" cy="470.333" r="3.38522" transform="rotate(-10.5978 289.207 470.333)" fill="white"/>
</g>
<g style="mix-blend-mode:color-dodge">
<circle cx="304.477" cy="780.188" r="3.38522" transform="rotate(-10.5978 304.477 780.188)" fill="white"/>
</g>
<g style="mix-blend-mode:color-dodge">
<circle cx="681.761" cy="190.246" r="3.38522" transform="rotate(-10.5978 681.761 190.246)" fill="white"/>
</g>
<g style="mix-blend-mode:color-dodge">
<circle cx="501.187" cy="381.078" r="3.38522" transform="rotate(-10.5978 501.187 381.078)" fill="white"/>
</g>
<g style="mix-blend-mode:color-dodge">
<circle cx="440.783" cy="198.14" r="3.38522" transform="rotate(-10.5978 440.783 198.14)" fill="white"/>
</g>
<g style="mix-blend-mode:color-dodge">
<circle cx="680.439" cy="168.453" r="3.38522" transform="rotate(-10.5978 680.439 168.453)" fill="white"/>
</g>
<g style="mix-blend-mode:color-dodge">
<circle cx="608.575" cy="373.384" r="3.38522" transform="rotate(-10.5978 608.575 373.384)" fill="white"/>
</g>
<path d="M393.055 547.543L452.545 570.059L463.238 541.255C479.963 496.201 532.114 475.659 575.072 497.206C597.615 508.512 613.575 529.708 618.213 554.497L621.019 569.491C625.307 592.409 622.3 616.093 612.421 637.212L552.353 765.621L339.583 698.526C320.858 692.621 304.975 680.005 294.986 663.102C275.403 629.963 282.635 587.298 311.75 562.119C334.088 542.8 365.434 537.089 393.055 547.543Z" fill="#A77DFE"/>
<path d="M419.486 573.044L465.747 590.56L474.061 568.152C487.067 533.103 527.638 517.123 561.052 533.889C578.581 542.684 590.991 559.167 594.598 578.444L596.783 590.127C600.119 607.956 597.781 626.383 590.098 642.815L543.385 742.714L377.9 690.507C363.33 685.91 350.973 676.092 343.202 662.939C327.969 637.155 333.586 603.971 356.234 584.379C373.613 569.345 397.997 564.907 419.486 573.044Z" fill="#F2FFCC"/>
<path d="M439.955 594.156L473.278 606.734L479.269 590.641C488.637 565.474 517.769 553.998 541.785 566.014C554.418 572.335 563.364 584.204 565.962 598.089L567.513 606.377C569.907 619.173 568.222 632.397 562.694 644.183L529.065 715.892L410.031 678.467C399.581 675.181 390.715 668.15 385.136 658.724C374.189 640.226 378.271 616.364 394.541 602.318C407.017 591.548 424.535 588.336 439.955 594.156Z" fill="#FFBAAB"/>
<path d="M593.677 148.602L571.689 123.263L559.517 133.962C540.478 150.696 511.124 147.185 496.569 126.432C488.931 115.542 486.823 101.707 490.872 89.0361L493.321 81.3723C497.064 69.6585 504.387 59.4136 514.258 52.0796L574.278 7.4864L656.283 91.8772C663.5 99.3043 667.718 109.136 668.127 119.484C668.928 139.771 654.895 157.772 635.076 162.178C619.87 165.559 603.886 160.368 593.677 148.602Z" fill="#A77DFE"/>
<path d="M587.786 130.149L570.689 110.442L561.222 118.765C546.414 131.785 523.578 129.054 512.258 112.908C506.32 104.439 504.682 93.6803 507.83 83.8273L509.738 77.8557C512.651 68.7424 518.347 60.7715 526.026 55.0646L572.711 20.3674L636.486 86.0146C642.101 91.7943 645.382 99.4449 645.699 107.497C646.321 123.28 635.41 137.282 619.991 140.713C608.161 143.345 595.728 139.305 587.786 130.149Z" fill="#F2FFCC"/>
<path d="M583.564 115.224L571.238 101.046L564.43 107.02C553.783 116.361 537.385 114.4 529.241 102.812C524.957 96.7164 523.772 88.967 526.04 81.87L527.394 77.6334C529.484 71.0931 533.576 65.3745 539.091 61.285L572.648 36.4036L618.554 83.5647C622.583 87.7047 624.941 93.188 625.173 98.9606C625.627 110.289 617.762 120.347 606.693 122.798C598.205 124.677 589.267 121.785 583.564 115.224Z" fill="#FFBAAB"/>
<path d="M340.611 289.249L367.037 268.579L356.972 255.878C341.228 236.012 346.229 206.874 367.696 193.395C378.961 186.321 392.886 184.921 405.334 189.61L412.863 192.446C424.371 196.78 434.23 204.615 441.052 214.847L482.532 277.059L394.075 354.661C386.29 361.491 376.256 365.203 365.901 365.084C345.599 364.851 328.337 349.92 324.945 329.903C322.343 314.544 328.341 298.846 340.611 289.249Z" fill="#A77DFE"/>
<path d="M359.341 284.303L379.894 268.232L372.063 258.354C359.814 242.901 363.704 220.234 380.405 209.751C389.166 204.251 399.994 203.163 409.674 206.809L415.54 209.019C424.494 212.392 432.164 218.486 437.473 226.446L469.748 274.838L400.939 335.187C394.881 340.5 387.073 343.388 379.016 343.295C363.221 343.112 349.793 331.502 347.152 315.929C345.125 303.98 349.793 291.769 359.341 284.303Z" fill="#F2FFCC"/>
<path d="M374.461 280.847L389.248 269.26L383.629 262.156C374.842 251.047 377.635 234.771 389.623 227.227C395.929 223.258 403.728 222.47 410.701 225.096L414.863 226.664C421.288 229.084 426.791 233.462 430.594 239.178L453.735 273.958L404.298 317.404C399.958 321.217 394.362 323.292 388.585 323.23C377.249 323.108 367.604 314.74 365.72 303.56C364.275 294.988 367.619 286.209 374.461 280.847Z" fill="#FFBAAB"/>
<path d="M145.341 769.156L157.394 843.011L193.03 836.962C248.771 827.5 300.376 868.551 303.692 924.991C305.433 954.61 293.227 983.339 270.699 1002.65L257.073 1014.32C236.246 1032.17 210.346 1043.04 183.019 1045.4L16.8577 1059.73L-39.9399 803.489C-44.9385 780.938 -41.4275 757.335 -30.0815 737.214C-7.83778 697.769 39.8841 680.041 82.6643 694.893C115.487 706.288 139.744 734.865 145.341 769.156Z" fill="#A77DFE"/>
<path d="M134.906 811.086L144.272 868.521L171.992 863.811C215.352 856.445 255.498 888.38 258.071 932.286C259.421 955.319 249.927 977.658 232.409 992.672L221.792 1001.77C205.589 1015.66 185.44 1024.11 164.179 1025.95L34.9198 1037.12L-9.23104 837.811C-13.1182 820.263 -10.3842 801.898 -1.55429 786.243C15.7542 755.557 52.8674 741.76 86.1514 753.31C111.691 762.173 130.556 784.405 134.906 811.086Z" fill="#F2FFCC"/>
<path d="M125.437 844.359L132.224 885.708L152.144 882.345C183.295 877.086 212.123 900.016 214.008 931.552C214.999 948.141 208.169 964.238 195.551 975.052L188.019 981.508C176.39 991.474 161.925 997.535 146.666 998.837L53.8252 1006.76L21.9362 863.464C19.1369 850.885 21.0856 837.716 27.4079 826.487C39.8142 804.453 66.5272 794.575 90.4081 802.89C108.72 809.265 122.296 825.225 125.437 844.359Z" fill="#FFBAAB"/>
</g>
<mask id="mask3_405_54834" style="mask-type:alpha" maskUnits="userSpaceOnUse" x="39" y="15" width="671" height="974">
<path d="M612.707 22.2749L625.599 18.5032C638.846 14.6272 652.987 15.0894 665.953 19.8223L675.046 24.5357C685.065 29.7294 693.471 37.5674 699.351 47.1994C705.79 57.7465 708.92 69.9818 708.335 82.3252L702.813 198.918C700.979 237.655 694.057 275.981 682.226 312.912L671.997 344.843C655.39 396.681 632.759 446.391 604.569 492.956L571.757 547.153L502.345 651.061L459.881 710.488C432.566 748.715 401.934 784.46 368.341 817.307L360.982 824.503C325.89 858.817 287.294 889.354 245.828 915.614L224.751 928.961C205.287 941.287 184.813 951.942 163.55 960.811L106.885 984.445C102.104 986.439 97.0217 987.613 91.8506 987.918C68.6697 989.284 48.0903 973.197 43.8197 950.373L41.562 938.306C40.8284 934.386 40.4874 930.401 40.544 926.413L41.5274 857.132L42.1393 853.008C51.668 788.792 66.2996 725.437 85.8951 663.546L89.6543 654.096C115.534 589.039 146.078 525.936 181.047 465.279L246.505 369.687L298.52 297.964L378.538 195.515C427.842 147.771 480.624 103.755 536.449 63.8301L541.291 60.367L589.098 32.4421C596.525 28.1043 604.453 24.69 612.707 22.2749Z" fill="#FF9D9D" stroke="#FFC369" stroke-width="1.35409"/>
</mask>
<g mask="url(#mask3_405_54834)">
<g opacity="0.8" filter="url(#filter0_f_405_54834)">
<path d="M458.681 602.126L530.905 624.424L563.136 604.545L606.523 584.424L602.401 564.655C601.349 559.61 599.019 554.82 595.662 550.797C590.721 544.878 583.895 541.024 576.697 540.088L547.821 536.336L492.317 528.179L451.806 521.337C450.994 521.199 450.178 521.211 449.398 521.371C448.689 521.516 447.95 521.539 447.21 521.439L429.241 519C424.774 518.394 421.513 522.525 422.876 527.062C423.125 527.89 423.517 528.67 424.025 529.365L423.36 528.845C420.552 526.648 417.329 525.161 413.981 524.516L399.089 521.647C393.223 520.517 388.486 525.427 389.566 531.517L384.17 532.198C378.345 532.933 375.836 539.811 379.475 545.069L374.16 546.285C370.303 547.168 368.279 551.325 369.731 555.381C370.21 556.719 371.034 557.924 372.105 558.858L375.373 561.705C378.17 564.142 381.438 565.878 384.887 566.758L422.718 576.416L375.405 564.487C372.025 563.635 368.712 565.089 367.192 568.094L364.775 572.873C364.09 574.227 364.693 576.016 366.1 576.806L370.43 579.235C371.673 579.933 371.416 581.802 370.069 581.858C368.509 581.923 368.518 584.255 370.079 584.628L406.957 593.42L458.681 602.126Z" fill="#BF6551"/>
</g>
</g>
<path d="M762.488 233.883L813.092 265.053C820.974 238.964 824.335 211.718 823.03 184.495L822.155 166.238L801.569 154.698C771.951 138.095 739.48 127.195 705.843 122.565C696.082 121.092 688.324 113.602 686.508 103.899L685.805 100.14L617.255 123.987L616.346 126.906C614.4 133.155 614.011 139.784 615.215 146.217C616.384 152.463 619.019 158.343 622.905 163.371L628.874 171.097C634.248 178.05 640.721 184.079 648.039 188.944L650.487 190.572C660.799 197.428 672.312 202.278 684.421 204.868L699.065 208C714.8 211.366 730.003 216.859 744.256 224.328L762.488 233.883Z" fill="#F9FFED" stroke="black" stroke-width="1.35409"/>
<path d="M762.488 233.883L813.092 265.053C820.974 238.964 824.335 211.718 823.03 184.495L822.155 166.238L801.569 154.698C771.951 138.095 739.48 127.195 705.843 122.565C696.082 121.092 688.324 113.602 686.508 103.899L685.805 100.14L617.255 123.987L616.346 126.906C614.4 133.155 614.011 139.784 615.215 146.217C616.384 152.463 619.019 158.343 622.905 163.371L628.874 171.097C634.248 178.05 640.721 184.079 648.039 188.944L650.487 190.572C660.799 197.428 672.312 202.278 684.421 204.868L699.065 208C714.8 211.366 730.003 216.859 744.256 224.328L762.488 233.883Z" fill="url(#paint1_linear_405_54834)" stroke="#C2DEFF" stroke-width="1.35409"/>
<g style="mix-blend-mode:screen">
<ellipse cx="162.432" cy="626.618" rx="224.104" ry="259.619" transform="rotate(25.3114 162.432 626.618)" fill="#3656FF"/>
</g>
<path d="M466.359 502.868L482.068 498.5L508.096 519.805L542.607 542.277L540.875 562.377C540.586 565.728 539.486 568.959 537.67 571.791C534.052 577.435 527.929 580.982 521.233 581.313L501.875 582.271L460.408 585.208L429.297 588.274L396.482 589.592L383.721 590.316C379.428 590.559 376.013 586.763 376.708 582.519C376.848 581.663 377.152 580.848 377.595 580.117C375.229 582.3 372.242 583.694 369.047 584.105L361.517 585.073C355.768 585.812 350.765 581.138 351.112 575.351L348.086 574.554C342.564 573.101 339.794 566.92 342.383 561.831L338.921 560.501C335.359 559.133 333.321 555.378 334.116 551.646C334.412 550.254 335.086 548.97 336.064 547.935L337.555 546.356C339.729 544.056 342.554 542.477 345.651 541.83L372.713 536.181L339.657 542.948C336.085 543.679 332.476 541.876 330.915 538.58C329.187 534.932 330.481 530.569 333.917 528.452L334.53 528.074C335.441 527.513 336.448 527.124 337.5 526.927L355.873 523.49L390.479 517.015C416.134 514.506 441.523 509.773 466.359 502.868Z" fill="#D7FBF2"/>
<path d="M342.383 561.831L338.921 560.501C335.359 559.133 333.321 555.378 334.116 551.646V551.646C334.412 550.254 335.086 548.97 336.064 547.935L337.555 546.356C339.729 544.056 342.554 542.477 345.651 541.83L372.713 536.181L339.657 542.948C336.085 543.679 332.476 541.876 330.915 538.58V538.58C329.187 534.932 330.481 530.569 333.917 528.452L334.53 528.074C335.441 527.513 336.448 527.124 337.5 526.927L355.873 523.49L390.479 517.015V517.015C416.134 514.506 441.523 509.773 466.359 502.868L482.068 498.5L508.096 519.805L542.607 542.277L540.875 562.377C540.586 565.728 539.486 568.959 537.67 571.791V571.791C534.052 577.435 527.929 580.982 521.233 581.313L501.875 582.271L460.408 585.208L429.297 588.274L396.482 589.592L383.721 590.316C379.428 590.559 376.013 586.763 376.708 582.519V582.519C376.96 580.976 377.743 579.57 378.921 578.541L385.134 573.118M342.383 561.831V561.831C349.178 556.931 356.97 553.591 365.204 552.051L375.328 550.157M342.383 561.831V561.831C339.794 566.92 342.564 573.101 348.086 574.554L351.112 575.351M351.112 575.351V575.351C357.859 569.985 365.463 565.796 373.603 562.959L382.644 559.808M351.112 575.351V575.351C350.765 581.138 355.768 585.812 361.517 585.073L369.047 584.105C372.258 583.692 375.259 582.286 377.632 580.084L385.134 573.118M385.134 573.118L399.818 566.927" stroke="black" stroke-width="1.35409"/>
<path d="M466.359 502.868L482.068 498.5L508.096 519.805L542.607 542.277L540.875 562.377C540.586 565.728 539.486 568.959 537.67 571.791C534.052 577.435 527.929 580.982 521.233 581.313L501.875 582.271L460.408 585.208L429.297 588.274L396.482 589.592L383.721 590.316C379.428 590.559 376.013 586.763 376.708 582.519C376.848 581.663 377.152 580.848 377.595 580.117C375.229 582.3 372.242 583.694 369.047 584.105L361.517 585.073C355.768 585.812 350.765 581.138 351.112 575.351L348.086 574.554C342.564 573.101 339.794 566.92 342.383 561.831L338.921 560.501C335.359 559.133 333.321 555.378 334.116 551.646C334.412 550.254 335.086 548.97 336.064 547.935L337.555 546.356C339.729 544.056 342.554 542.477 345.651 541.83L372.713 536.181L339.657 542.948C336.085 543.679 332.476 541.876 330.915 538.58C329.187 534.932 330.481 530.569 333.917 528.452L334.53 528.074C335.441 527.513 336.448 527.124 337.5 526.927L355.873 523.49L390.479 517.015C416.134 514.506 441.523 509.773 466.359 502.868Z" fill="url(#paint2_linear_405_54834)"/>
<path d="M342.383 561.831L338.921 560.501C335.359 559.133 333.321 555.378 334.116 551.646V551.646C334.412 550.254 335.086 548.97 336.064 547.935L337.555 546.356C339.729 544.056 342.554 542.477 345.651 541.83L372.713 536.181L339.657 542.948C336.085 543.679 332.476 541.876 330.915 538.58V538.58C329.187 534.932 330.481 530.569 333.917 528.452L334.53 528.074C335.441 527.513 336.448 527.124 337.5 526.927L355.873 523.49L390.479 517.015V517.015C416.134 514.506 441.523 509.773 466.359 502.868L482.068 498.5L508.096 519.805L542.607 542.277L540.875 562.377C540.586 565.728 539.486 568.959 537.67 571.791V571.791C534.052 577.435 527.929 580.982 521.233 581.313L501.875 582.271L460.408 585.208L429.297 588.274L396.482 589.592L383.721 590.316C379.428 590.559 376.013 586.763 376.708 582.519V582.519C376.96 580.976 377.743 579.57 378.921 578.541L385.134 573.118M342.383 561.831V561.831C349.178 556.931 356.97 553.591 365.204 552.051L375.328 550.157M342.383 561.831V561.831C339.794 566.92 342.564 573.101 348.086 574.554L351.112 575.351M351.112 575.351V575.351C357.859 569.985 365.463 565.796 373.603 562.959L382.644 559.808M351.112 575.351V575.351C350.765 581.138 355.768 585.812 361.517 585.073L369.047 584.105C372.258 583.692 375.259 582.286 377.632 580.084L385.134 573.118M385.134 573.118L399.818 566.927" stroke="#C2DEFF" stroke-width="1.35409"/>
<path d="M444.8 67.4L401.257 0.938507L442.46 -11.3732L448.486 -3.68008C460.131 11.1859 473.089 24.9742 487.205 37.5181L513.384 60.7835C515.925 63.041 518.742 64.9669 521.767 66.515C529.677 70.5621 538.706 71.8711 547.44 70.237L578.908 64.3491C584.434 63.3152 590.028 62.6876 595.645 62.4713C617.385 61.6343 638.442 54.6522 656.375 42.3347L657.395 41.634C666.848 35.1409 677.187 30.0441 688.094 26.5007L721.646 15.6007L737.238 12.6835C760.687 8.29592 782.805 -1.45515 801.862 -15.8076L831.782 -38.3418C843.98 -47.5283 852.221 -61.0158 854.829 -76.0614C856.301 -84.5527 859.583 -92.6278 864.452 -99.7383L867.255 -103.831C871.612 -110.194 874.915 -117.218 877.036 -124.632C878.506 -129.768 879.397 -135.051 879.694 -140.385L879.942 -144.855C880.836 -160.928 885.194 -176.618 892.715 -190.851L895.034 -195.238L945.771 -185.445L951.997 -152.17L953.611 -136.367C955.278 -120.056 953.444 -103.577 948.231 -88.0309L944.145 -75.8456C942.14 -69.8641 941.305 -63.5523 941.687 -57.2551C942.382 -45.8115 947.057 -34.9712 954.904 -26.6125L967.826 -12.8473C973.462 -6.84344 978.346 -0.17533 982.369 7.00966L991.52 23.3503C999.979 38.4571 1006.87 54.3876 1012.1 70.8942L1022.77 104.594L1038.33 187.781L1049.29 246.345L1046.87 270.217C1035.76 301.884 1015.17 329.363 987.899 348.922L973.928 358.943L872.918 323.428L812.735 218.971L760.667 144.567C752.905 133.476 742.263 124.714 729.888 119.228C718.639 114.24 706.328 112.123 694.059 113.066L693.199 113.132C685.454 113.727 677.841 115.48 670.615 118.331L656.941 123.726C635.892 132.031 613.434 136.182 590.807 135.952L565.719 135.696L527.331 136.68C506.316 136.25 486.593 126.448 473.56 109.956L466.165 100.597L444.8 67.4Z" fill="#F9FFED" stroke="black" stroke-width="1.35409"/>
<path d="M444.802 67.3997L400.072 -3.21173L442.461 -11.3735L448.487 -3.68034C460.132 11.1856 473.091 24.9739 487.206 37.5179L513.386 60.7832C515.926 63.0408 518.743 64.9667 521.769 66.5147C529.679 70.5618 538.708 71.8709 547.441 70.2368L578.909 64.3489C584.435 63.315 590.029 62.6874 595.647 62.4711C617.386 61.6341 638.443 54.652 656.376 42.3344L657.396 41.6338C666.849 35.1407 677.189 30.0439 688.096 26.5005L721.648 15.6005L737.239 12.6833C760.689 8.29569 782.807 -1.45537 801.863 -15.8078L831.784 -38.342C843.981 -47.5286 852.222 -61.016 854.831 -76.0617C856.303 -84.5529 859.585 -92.628 864.454 -99.7385L867.256 -103.831C871.613 -110.194 874.916 -117.218 877.038 -124.632C878.507 -129.768 879.398 -135.051 879.695 -140.385L879.944 -144.855C880.838 -160.928 885.195 -176.618 892.717 -190.851L895.036 -195.238L945.772 -185.445L951.998 -152.171L953.613 -136.367C955.279 -120.056 953.445 -103.577 948.233 -88.0311L944.147 -75.8459C942.141 -69.8644 941.307 -63.5525 941.689 -57.2553C942.383 -45.8117 947.059 -34.9715 954.906 -26.6128L967.828 -12.8475C973.464 -6.84367 978.348 -0.175562 982.371 7.00943L991.521 23.35C999.98 38.4568 1006.88 54.3873 1012.1 70.894L1022.77 104.594L1038.33 187.781L1049.29 246.345L1046.87 270.217C1035.76 301.884 1015.17 329.363 987.901 348.922L973.929 358.943L872.919 323.428L812.736 218.971L760.668 144.566C752.907 133.475 742.265 124.714 729.89 119.228C718.641 114.24 706.33 112.123 694.061 113.066L693.2 113.132C685.455 113.727 677.843 115.479 670.617 118.33L656.943 123.725C635.893 132.03 613.435 136.182 590.808 135.952L565.721 135.696L527.332 136.679C506.317 136.25 486.594 126.448 473.562 109.956L466.167 100.597L444.802 67.3997Z" fill="url(#paint3_linear_405_54834)" stroke="#C2DEFF" stroke-width="1.35409"/>
<g style="mix-blend-mode:screen">
<ellipse cx="1020.81" cy="42.4386" rx="224.104" ry="134.581" fill="#3656FF"/>
</g>
<path d="M728.281 282.989L761.092 292.692L744.336 390.881L658.403 358.292C643.556 352.662 628.253 348.315 612.663 345.301L610.603 344.903C609.777 344.743 609.035 345.432 609.134 346.267C612.056 371.073 607.431 396.184 595.861 418.32L583.694 441.601L567.087 474.326C550.778 470.077 535.247 463.265 521.075 454.143L514.276 449.768L525.907 379.401L532.918 317.476L535.203 303.139C537.792 286.893 546.871 272.397 560.357 262.975C563.34 260.892 566.503 259.081 569.81 257.565L571.758 256.671C580.539 252.645 590.188 250.877 599.827 251.529C604.436 251.841 608.992 252.703 613.396 254.097L658.748 268.447L728.281 282.989Z" fill="#D7FBF2" stroke="black" stroke-width="1.35409"/>
<path d="M728.281 282.989L761.092 292.692L744.336 390.881L658.403 358.292C643.556 352.662 628.253 348.315 612.663 345.301L610.603 344.903C609.777 344.743 609.035 345.432 609.134 346.267C612.056 371.073 607.431 396.184 595.861 418.32L583.694 441.601L567.087 474.326C550.778 470.077 535.247 463.265 521.075 454.143L514.276 449.768L525.907 379.401L532.918 317.476L535.203 303.139C537.792 286.893 546.871 272.397 560.357 262.975C563.34 260.892 566.503 259.081 569.81 257.565L571.758 256.671C580.539 252.645 590.188 250.877 599.827 251.529C604.436 251.841 608.992 252.703 613.396 254.097L658.748 268.447L728.281 282.989Z" fill="url(#paint4_linear_405_54834)" stroke="#C2DEFF" stroke-width="1.35409"/>
<mask id="mask4_405_54834" style="mask-type:alpha" maskUnits="userSpaceOnUse" x="513" y="250" width="249" height="226">
<path d="M728.281 282.989L761.092 292.692L744.335 390.881L658.403 358.292C643.556 352.662 628.253 348.316 612.663 345.301L610.602 344.903C609.777 344.743 609.035 345.433 609.133 346.267C612.056 371.073 607.43 396.184 595.861 418.32L583.694 441.601L567.087 474.326C550.777 470.077 535.247 463.265 521.075 454.143L514.276 449.768L525.907 379.401L532.918 317.476L535.203 303.139C537.792 286.893 546.871 272.397 560.357 262.975C563.339 260.892 566.503 259.081 569.81 257.565L571.757 256.671C580.539 252.645 590.188 250.877 599.827 251.529C604.436 251.841 608.992 252.703 613.396 254.097L658.747 268.447L728.281 282.989Z" fill="#D7FBF2" stroke="black" stroke-width="1.35409"/>
</mask>
<g mask="url(#mask4_405_54834)">
<g style="mix-blend-mode:screen">
<ellipse cx="574.375" cy="261.207" rx="110.866" ry="49.801" fill="#3656FF"/>
</g>
</g>
<path d="M562.925 473.59L556.735 471.221C542.527 465.785 528.954 458.814 516.258 450.433C513.899 448.876 510.708 449.776 509.51 452.335L507.679 456.249C501.248 469.989 493.356 482.997 484.139 495.046C482.611 497.044 482.935 499.891 484.873 501.494L500.45 514.38C512.166 524.07 524.88 532.485 538.378 539.482C540.662 540.666 543.475 539.81 544.717 537.558C552.792 522.915 559.147 507.359 563.629 491.249L566.545 480.77C567.371 477.801 565.803 474.691 562.925 473.59Z" fill="#E8FF5B" stroke="#FFC28A" stroke-width="1.48783"/>
<path d="M562.925 473.59L556.735 471.221C542.527 465.785 528.954 458.814 516.258 450.433C513.899 448.876 510.708 449.776 509.51 452.335L507.679 456.249C501.248 469.989 493.356 482.997 484.139 495.046C482.611 497.044 482.935 499.891 484.873 501.494L500.45 514.38C512.166 524.07 524.88 532.485 538.378 539.482C540.662 540.666 543.475 539.81 544.717 537.558C552.792 522.915 559.147 507.359 563.629 491.249L566.545 480.77C567.371 477.801 565.803 474.691 562.925 473.59Z" fill="url(#paint5_linear_405_54834)"/>
<path d="M1034.31 285.588L1049.04 245.014L1049.61 252.162C1050.9 268.54 1049.35 285.019 1045.03 300.868L1029.96 338.128L1013.99 373.241C1009.38 383.383 1003.05 392.653 995.288 400.642C983.67 412.595 969.162 421.346 953.169 426.047L942.656 429.137C931.595 432.388 920.142 434.112 908.614 434.259C899.153 434.38 889.709 433.438 880.458 431.452L832.663 421.192L738.472 392.666C732.328 381.598 728.951 369.21 728.627 356.556L728.399 347.68C728.225 340.872 728.874 334.067 730.332 327.415L734.248 309.557C736.292 300.233 741.781 292.024 749.617 286.573L812.289 297.577L841.909 301.291C845.079 301.688 848.009 299.544 848.588 296.401C849.003 294.149 848.106 291.857 846.273 290.484L814.257 266.498C813.619 266.02 813.303 265.224 813.441 264.439L819.218 231.534L850.725 282.12L864.194 298.886C873.422 312.046 885.978 322.52 900.58 329.24L904.603 331.092C911.159 334.109 918.003 336.457 925.031 338.099L932.378 339.816C944.313 342.605 956.698 342.881 968.745 340.626C979.109 338.687 989.043 334.909 998.076 329.472L1020.94 315.707C1026.72 311.084 1030.54 304.449 1031.63 297.132L1031.97 294.83C1032.44 291.679 1033.23 288.583 1034.31 285.588Z" fill="#FFDFC1" stroke="black" stroke-width="1.35409"/>
<path d="M1034.31 285.588L1049.04 245.014L1049.61 252.162C1050.9 268.54 1049.35 285.019 1045.03 300.868L1029.96 338.128L1013.99 373.241C1009.38 383.383 1003.05 392.653 995.288 400.642C983.67 412.595 969.162 421.346 953.169 426.047L942.656 429.137C931.595 432.388 920.142 434.112 908.614 434.259C899.153 434.38 889.709 433.438 880.458 431.452L832.663 421.192L738.472 392.666C732.328 381.598 728.951 369.21 728.627 356.556L728.399 347.68C728.225 340.872 728.874 334.067 730.332 327.415L734.248 309.557C736.292 300.233 741.781 292.024 749.617 286.573L812.289 297.577L841.909 301.291C845.079 301.688 848.009 299.544 848.588 296.401C849.003 294.149 848.106 291.857 846.273 290.484L814.257 266.498C813.619 266.02 813.303 265.224 813.441 264.439L819.218 231.534L850.725 282.12L864.194 298.886C873.422 312.046 885.978 322.52 900.58 329.24L904.603 331.092C911.159 334.109 918.003 336.457 925.031 338.099L932.378 339.816C944.313 342.605 956.698 342.881 968.745 340.626C979.109 338.687 989.043 334.909 998.076 329.472L1020.94 315.707C1026.72 311.084 1030.54 304.449 1031.63 297.132L1031.97 294.83C1032.44 291.679 1033.23 288.583 1034.31 285.588Z" fill="url(#paint6_linear_405_54834)" stroke="#EA4050" stroke-width="1.35409"/>
<path d="M910.84 338.374L933.111 420.891L991.529 353.134L944.062 427.779L1035.75 416.944L946.347 439.991L1017.59 492.425L938.628 450.373L947.697 535.36L925.425 452.843L867.007 520.6L914.474 445.955L822.789 456.79L912.189 433.743L840.945 381.309L919.909 423.361L910.84 338.374Z" fill="#EEFFC9"/>
<path d="M835.958 315.054L839.735 300.707L813.888 296.934L786.461 292.078L780.015 307.979C776.469 316.731 773.883 325.841 772.304 335.151C770.834 343.813 770.244 352.601 770.543 361.382L770.706 366.203C771.011 375.163 771.991 384.086 773.64 392.897L776.02 405.616L805.005 413.279L837.026 422.441L832.871 400.234C830.996 390.209 829.912 380.053 829.631 369.858C829.122 351.382 831.252 332.928 835.958 315.054Z" fill="#DBFFBE" stroke="#DBFFBE" stroke-width="1.35409"/>
<g style="mix-blend-mode:screen">
<path d="M1034.31 285.588L1049.04 245.014L1049.61 252.162C1050.9 268.54 1049.35 285.019 1045.03 300.868L1029.96 338.128L1013.99 373.241C1009.38 383.383 1003.05 392.653 995.288 400.642C983.67 412.595 969.162 421.346 953.169 426.047L942.656 429.137C931.595 432.388 920.142 434.112 908.614 434.259C899.153 434.38 889.709 433.438 880.458 431.452L832.663 421.192L738.472 392.666C732.328 381.598 728.951 369.21 728.627 356.556L728.399 347.68C728.225 340.872 728.874 334.067 730.332 327.415L734.248 309.557C736.292 300.233 741.781 292.024 749.617 286.573L812.289 297.577L841.909 301.291C845.079 301.688 848.009 299.543 848.588 296.401C849.003 294.149 848.106 291.857 846.273 290.484L814.257 266.498C813.619 266.02 813.303 265.224 813.441 264.439L819.218 231.534L850.725 282.12L864.194 298.886C873.422 312.046 885.978 322.52 900.58 329.24L904.603 331.092C911.159 334.109 918.003 336.457 925.031 338.099L932.378 339.816C944.313 342.605 956.698 342.881 968.745 340.626C979.109 338.687 989.043 334.909 998.076 329.472L1020.94 315.707C1026.72 311.084 1030.54 304.449 1031.63 297.132L1031.97 294.83C1032.44 291.679 1033.23 288.583 1034.31 285.588Z" fill="url(#paint7_linear_405_54834)"/>
<path d="M1034.31 285.588L1049.04 245.014L1049.61 252.162C1050.9 268.54 1049.35 285.019 1045.03 300.868L1029.96 338.128L1013.99 373.241C1009.38 383.383 1003.05 392.653 995.288 400.642C983.67 412.595 969.162 421.346 953.169 426.047L942.656 429.137C931.595 432.388 920.142 434.112 908.614 434.259C899.153 434.38 889.709 433.438 880.458 431.452L832.663 421.192L738.472 392.666C732.328 381.598 728.951 369.21 728.627 356.556L728.399 347.68C728.225 340.872 728.874 334.067 730.332 327.415L734.248 309.557C736.292 300.233 741.781 292.024 749.617 286.573L812.289 297.577L841.909 301.291C845.079 301.688 848.009 299.543 848.588 296.401C849.003 294.149 848.106 291.857 846.273 290.484L814.257 266.498C813.619 266.02 813.303 265.224 813.441 264.439L819.218 231.534L850.725 282.12L864.194 298.886C873.422 312.046 885.978 322.52 900.58 329.24L904.603 331.092C911.159 334.109 918.003 336.457 925.031 338.099L932.378 339.816C944.313 342.605 956.698 342.881 968.745 340.626C979.109 338.687 989.043 334.909 998.076 329.472L1020.94 315.707C1026.72 311.084 1030.54 304.449 1031.63 297.132L1031.97 294.83C1032.44 291.679 1033.23 288.583 1034.31 285.588Z" stroke="#EA4050" stroke-width="1.35409"/>
</g>
<path d="M819.798 311.872L823.575 297.525L818.631 296.933L805.001 294.408L798.556 310.309C795.009 319.061 792.423 328.171 790.844 337.481C789.375 346.143 788.785 354.931 789.083 363.712L789.704 381.991L793.22 411.203L807.965 415.353L820.867 419.259L816.712 397.052C814.836 387.027 813.753 376.87 813.472 366.676C812.963 348.2 815.093 329.746 819.798 311.872Z" fill="#FFDFC1" stroke="#FFDFC1" stroke-width="1.35409"/>
<g filter="url(#filter1_f_405_54834)">
<ellipse cx="795.608" cy="-27.1668" rx="101.556" ry="105.619" transform="rotate(-10.5978 795.608 -27.1668)" fill="#F9FFED"/>
</g>
<g style="mix-blend-mode:soft-light">
<rect x="23.0001" y="-139" width="1180" height="1019" fill="#7410F3"/>
</g>
<g style="mix-blend-mode:color-burn" opacity="0.6">
<rect x="23.0001" y="-139" width="1180" height="1019" fill="url(#paint8_linear_405_54834)"/>
</g>
<g style="mix-blend-mode:hard-light" opacity="0.6">
<path d="M23.0001 -139L1203 -139L1203 880L23.0001 880L23.0001 -139Z" fill="url(#paint9_linear_405_54834)"/>
</g>
<g style="mix-blend-mode:color-burn" opacity="0.3">
<path d="M23.0001 -139L1203 -139L1203 880L23.0001 880L23.0001 -139Z" fill="#FF6565"/>
</g>
<g style="mix-blend-mode:color-burn" opacity="0.3">
<path d="M23.0001 -139L1203 -139L1203 880L23.0001 880L23.0001 -139Z" fill="url(#paint10_linear_405_54834)"/>
</g>
</g>
</g>
<defs>
<filter id="filter0_f_405_54834" x="337.41" y="491.859" width="296.194" height="159.647" filterUnits="userSpaceOnUse" color-interpolation-filters="sRGB">
<feFlood flood-opacity="0" result="BackgroundImageFix"/>
<feBlend mode="normal" in="SourceGraphic" in2="BackgroundImageFix" result="shape"/>
<feGaussianBlur stdDeviation="13.5409" result="effect1_foregroundBlur_405_54834"/>
</filter>
<filter id="filter1_f_405_54834" x="558.483" y="-268.077" width="474.248" height="481.821" filterUnits="userSpaceOnUse" color-interpolation-filters="sRGB">
<feFlood flood-opacity="0" result="BackgroundImageFix"/>
<feBlend mode="normal" in="SourceGraphic" in2="BackgroundImageFix" result="shape"/>
<feGaussianBlur stdDeviation="67.7043" result="effect1_foregroundBlur_405_54834"/>
</filter>
<linearGradient id="paint0_linear_405_54834" x1="590.88" y1="23.5376" x2="374.578" y2="499.541" gradientUnits="userSpaceOnUse">
<stop stop-color="#FF9D9D"/>
<stop offset="1" stop-color="#FFE6BF" stop-opacity="0"/>
</linearGradient>
<linearGradient id="paint1_linear_405_54834" x1="775.334" y1="140.559" x2="743.4" y2="286.396" gradientUnits="userSpaceOnUse">
<stop offset="0.161995" stop-color="#8FB4EC"/>
<stop offset="1" stop-color="#BDD2F0" stop-opacity="0"/>
</linearGradient>
<linearGradient id="paint2_linear_405_54834" x1="511.357" y1="489.693" x2="548.702" y2="546.95" gradientUnits="userSpaceOnUse">
<stop offset="0.161995" stop-color="#95BFFF"/>
<stop offset="1" stop-color="#95BFFF" stop-opacity="0.21"/>
</linearGradient>
<linearGradient id="paint3_linear_405_54834" x1="901.946" y1="-217.193" x2="1173.06" y2="-12.0213" gradientUnits="userSpaceOnUse">
<stop offset="0.161995" stop-color="#95BFFF"/>
<stop offset="1" stop-color="#95BFFF" stop-opacity="0.21"/>
</linearGradient>
<linearGradient id="paint4_linear_405_54834" x1="719.226" y1="217.442" x2="824.369" y2="311.639" gradientUnits="userSpaceOnUse">
<stop offset="0.161995" stop-color="#95BFFF"/>
<stop offset="1" stop-color="#95BFFF" stop-opacity="0.21"/>
</linearGradient>
<linearGradient id="paint5_linear_405_54834" x1="517.107" y1="446.483" x2="559.553" y2="616.928" gradientUnits="userSpaceOnUse">
<stop stop-color="#FFE600"/>
<stop offset="1" stop-color="#E8FF5B" stop-opacity="0"/>
</linearGradient>
<linearGradient id="paint6_linear_405_54834" x1="805.48" y1="268.544" x2="1062.18" y2="332.139" gradientUnits="userSpaceOnUse">
<stop stop-color="#EA4050"/>
<stop offset="1" stop-color="#FFC1C7" stop-opacity="0"/>
</linearGradient>
<linearGradient id="paint7_linear_405_54834" x1="805.48" y1="268.544" x2="942.53" y2="455.185" gradientUnits="userSpaceOnUse">
<stop stop-color="#FF0018"/>
<stop offset="1" stop-color="#FFC1C7" stop-opacity="0"/>
</linearGradient>
<linearGradient id="paint8_linear_405_54834" x1="574.876" y1="-60.8474" x2="871.491" y2="925.625" gradientUnits="userSpaceOnUse">
<stop stop-color="#707EFF"/>
<stop offset="0.692708" stop-color="#FFA800"/>
</linearGradient>
<linearGradient id="paint9_linear_405_54834" x1="96.3141" y1="-49.3419" x2="516.409" y2="836.876" gradientUnits="userSpaceOnUse">
<stop offset="0.296875" stop-color="#4282FF"/>
<stop offset="0.770833" stop-color="#FF92C6"/>
</linearGradient>
<linearGradient id="paint10_linear_405_54834" x1="416" y1="-139" x2="646.5" y2="456" gradientUnits="userSpaceOnUse">
<stop stop-color="#630909"/>
<stop offset="1" stop-color="#FF6565" stop-opacity="0"/>
</linearGradient>
</defs>
</svg>
