<svg width="48" height="23" viewBox="0 0 48 23" fill="none" xmlns="http://www.w3.org/2000/svg">
<path d="M46 13C46.8284 13 47.5 12.3284 47.5 11.5C47.5 10.6716 46.8284 10 46 10V13ZM0.93934 10.4393C0.353553 11.0251 0.353553 11.9749 0.93934 12.5607L10.4853 22.1066C11.0711 22.6924 12.0208 22.6924 12.6066 22.1066C13.1924 21.5208 13.1924 20.5711 12.6066 19.9853L4.12132 11.5L12.6066 3.01472C13.1924 2.42893 13.1924 1.47918 12.6066 0.893398C12.0208 0.307612 11.0711 0.307612 10.4853 0.893398L0.93934 10.4393ZM46 10L2 10V13L46 13V10Z" fill="black"/>
</svg>
