<svg width="51" height="51" viewBox="0 0 51 51" fill="none" xmlns="http://www.w3.org/2000/svg">
<path d="M46.5176 16.5315C46.0272 16.5155 45.5405 16.6208 45.1005 16.838C44.6606 17.0552 44.281 17.3776 43.9955 17.7766C43.9712 17.8113 43.9366 17.8374 43.8965 17.8511C43.8564 17.8648 43.813 17.8653 43.7726 17.8527C43.7322 17.84 43.6968 17.8148 43.6717 17.7807C43.6466 17.7466 43.633 17.7054 43.6329 17.663V14.0123C43.6329 11.9454 42.0053 10.2063 39.9394 10.1575C39.4344 10.1447 38.932 10.2331 38.4617 10.4176C37.9914 10.602 37.5629 10.8787 37.2012 11.2314C36.8395 11.584 36.5521 12.0055 36.3559 12.471C36.1596 12.9364 36.0586 13.4365 36.0586 13.9416V22.1096C36.0586 22.1624 36.0376 22.2131 36.0002 22.2505C35.9629 22.2878 35.9122 22.3088 35.8594 22.3088H15.1406C15.0878 22.3088 15.0371 22.2878 14.9998 22.2505C14.9624 22.2131 14.9414 22.1624 14.9414 22.1096V14.0123C14.9414 11.9454 13.3138 10.2063 11.2479 10.1575C10.7432 10.1452 10.2412 10.2341 9.77145 10.4188C9.30165 10.6034 8.87353 10.8802 8.5123 11.2328C8.15106 11.5854 7.86401 12.0067 7.66802 12.4719C7.47203 12.9371 7.37108 13.4368 7.37109 13.9416V17.665C7.37099 17.7074 7.3574 17.7486 7.33228 17.7827C7.30717 17.8168 7.27183 17.842 7.23142 17.8547C7.191 17.8673 7.1476 17.8668 7.10752 17.8531C7.06744 17.8394 7.03276 17.8133 7.00852 17.7786C6.72282 17.3786 6.34272 17.0555 5.90201 16.8379C5.46129 16.6204 4.97364 16.5151 4.48242 16.5315C2.85879 16.5823 1.59375 17.9569 1.59375 19.5815V29.4149C1.59375 31.0396 2.86277 32.4142 4.48242 32.465C4.9728 32.4809 5.45954 32.3756 5.89948 32.1584C6.33943 31.9412 6.71899 31.6189 7.00453 31.2199C7.02818 31.1831 7.06325 31.1552 7.10434 31.1404C7.14543 31.1255 7.19025 31.1246 7.23192 31.1377C7.27358 31.1509 7.30977 31.1773 7.33492 31.213C7.36007 31.2488 7.37278 31.2918 7.37109 31.3354V34.9881C7.37109 37.051 8.99871 38.7942 11.0646 38.844C11.5693 38.8562 12.0714 38.7673 12.5413 38.5826C13.0112 38.3978 13.4393 38.121 13.8006 37.7682C14.1618 37.4155 14.4488 36.9941 14.6448 36.5288C14.8407 36.0635 14.9416 35.5637 14.9414 35.0588V26.8908C14.9414 26.838 14.9624 26.7873 14.9998 26.75C15.0371 26.7126 15.0878 26.6916 15.1406 26.6916H35.8594C35.9122 26.6916 35.9629 26.7126 36.0002 26.75C36.0376 26.7873 36.0586 26.838 36.0586 26.8908V34.9881C36.0586 37.055 37.6862 38.7942 39.7521 38.843C40.2568 38.8552 40.7588 38.7663 41.2286 38.5817C41.6984 38.397 42.1265 38.1202 42.4877 37.7676C42.8489 37.415 43.136 36.9937 43.332 36.5285C43.528 36.0633 43.6289 35.5636 43.6289 35.0588V31.3354C43.629 31.2931 43.6426 31.2518 43.6677 31.2177C43.6928 31.1836 43.7282 31.1584 43.7686 31.1458C43.809 31.1331 43.8524 31.1337 43.8925 31.1473C43.9326 31.161 43.9672 31.1871 43.9915 31.2219C44.2772 31.6218 44.6573 31.9449 45.098 32.1625C45.5387 32.3801 46.0264 32.4853 46.5176 32.469C48.1412 32.4182 49.4062 31.0436 49.4062 29.4189V19.5835C49.4062 17.9589 48.1372 16.5843 46.5176 16.5315Z" fill="black"/>
</svg>
