<svg xmlns="http://www.w3.org/2000/svg" width="23" height="24" fill="none"><mask id="a" width="23" height="24" x="0" y="0" maskUnits="userSpaceOnUse" style="mask-type:alpha"><path fill="#D9D9D9" d="M0 24V0h22.551v24z"/></mask><g mask="url(#a)"><path fill="#F9F9F9" d="m20.674 14-8.457.5-1.715 3.175 1.222.35L15.036 16l.94 1.725-3.994 2.475-4.04-1.2-3.101-5.75L2.257 16 .94 14.6l4.3-4.6 1.949 3.6.986-1.2-6.295-8.2L3.196 3l8.081 8.5 9.397.5v2ZM6.579 19c0 .55-.184 1.021-.552 1.413-.368.391-.81.587-1.327.587-.517 0-.96-.196-1.327-.587A1.99 1.99 0 0 1 2.82 19c0-.55.184-1.02.552-1.412.368-.392.81-.588 1.327-.588.517 0 .96.196 1.327.588.368.391.552.862.552 1.412Z"/></g></svg>