<svg xmlns="http://www.w3.org/2000/svg" width="24" height="23" fill="none"><mask id="a" width="24" height="23" x="0" y="0" maskUnits="userSpaceOnUse" style="mask-type:alpha"><path fill="#D9D9D9" d="M0 0h24v22.551H0z"/></mask><g mask="url(#a)"><path fill="#F9F9F9" d="m13.97 21.333-.036-11.99c-.94.271-2.269.454-2.88.363-.61-.09-1.238-.212-1.883-.363l-.953 3.1 2.838.666 2.878 4.984-1.732 1-2.467-4.272-1-.182.786 1.011-.963 5.683-1.939-.21.825-4.87-2.55-1.566c-.248-.164-.48-.415-.693-.752a1.273 1.273 0 0 1-.143-1.098l1.35-4.36a2.045 2.045 0 0 1 .931-1.188c.347-.2.656-.298.929-.292.272.005.464.02.575.047l2.66.607a4.856 4.856 0 0 0 1.928.04c.685-.115.89-.198 1.539-.573V.62h3.39v20.713h-3.39ZM9.757 5.858a1.99 1.99 0 0 1-1.5.228c-.523-.123-.914-.408-1.172-.856-.258-.447-.31-.928-.155-1.443.155-.514.471-.91.947-1.184a1.99 1.99 0 0 1 1.5-.228c.523.123.914.408 1.172.855.258.448.31.929.155 1.444a1.99 1.99 0 0 1-.947 1.184Z"/></g></svg>