<svg width="23" height="23" viewBox="0 0 23 23" fill="none" xmlns="http://www.w3.org/2000/svg">
<path fill-rule="evenodd" clip-rule="evenodd" d="M22.54 11.7614C22.54 10.946 22.4668 10.1619 22.3309 9.40913H11.5V13.8575H17.6891C17.4225 15.295 16.6123 16.513 15.3943 17.3285V20.2139H19.1109C21.2855 18.2119 22.54 15.2637 22.54 11.7614Z" fill="#4285F4"/>
<path fill-rule="evenodd" clip-rule="evenodd" d="M11.5034 22.9996C14.6084 22.9996 17.2116 21.9698 19.1143 20.2134L15.3977 17.328C14.3679 18.018 13.0507 18.4257 11.5034 18.4257C8.50815 18.4257 5.97293 16.4028 5.06861 13.6846H1.22656V16.6641C3.11884 20.4225 7.00793 22.9996 11.5034 22.9996Z" fill="#34A853"/>
<path fill-rule="evenodd" clip-rule="evenodd" d="M5.06523 13.6853C4.83523 12.9953 4.70455 12.2583 4.70455 11.5003C4.70455 10.7423 4.83523 10.0053 5.06523 9.3153V6.33575H1.22318C0.444318 7.88825 0 9.64462 0 11.5003C0 13.356 0.444318 15.1123 1.22318 16.6648L5.06523 13.6853Z" fill="#FBBC05"/>
<path fill-rule="evenodd" clip-rule="evenodd" d="M11.5034 4.57386C13.1918 4.57386 14.7077 5.15409 15.8995 6.29364L19.1979 2.99523C17.2063 1.13955 14.6032 0 11.5034 0C7.00793 0 3.11884 2.57705 1.22656 6.33545L5.06861 9.315C5.97293 6.59682 8.50815 4.57386 11.5034 4.57386Z" fill="#EA4335"/>
</svg>
