<svg width="175" height="153" viewBox="0 0 175 153" fill="none" xmlns="http://www.w3.org/2000/svg">
<path d="M112.28 0.35408C119.388 -0.631377 126.61 4.29522 128.416 11.2155C130.248 17.2372 127.457 24.054 122.323 27.5227C118.458 30.0033 113.444 30.7646 109.114 29.0909C104.361 27.5131 100.722 23.3223 99.6405 18.4557C98.444 14.8449 99.5487 10.9465 101.256 7.695C103.44 3.61388 107.788 1.05611 112.28 0.35408Z" fill="#F9F9F9"/>
<path d="M165.374 31.7637C168.349 24.6007 171.749 17.599 173.819 10.1016C174.765 15.8019 173.979 21.5746 174.099 27.3102C174.217 34.2518 175.042 41.8706 171.264 48.0792C169.966 50.5011 167.382 51.9569 164.727 52.3748C157.845 53.1051 150.907 51.9548 144.309 50.0032C139.973 48.7302 135.546 47.1731 132.056 44.2036C129.741 42.3147 128.535 38.9598 129.755 36.1165C130.718 33.3718 133.839 32.0857 136.575 32.2298C141.815 31.9133 146.666 34.1028 151.488 35.8096C154.605 37.0371 157.506 38.7377 160.544 40.1397C162.151 37.3475 164.104 34.7407 165.374 31.7637Z" fill="#F9F9F9"/>
<path d="M31.1055 27.1766C43.9736 27.7104 56.8735 29.1448 69.7458 27.8959C77.5943 27.5655 85.5042 26.0215 93.3313 27.409C97.3296 28.4724 99.3612 34.2782 96.3807 37.3498C94.9725 39.0855 92.8065 40.1151 90.5956 40.2944C84.8849 41.122 79.2142 39.6848 73.547 39.1655C65.1482 37.7077 56.9259 35.4016 48.6754 33.2859C42.5213 32.2142 36.8892 29.4041 31.1055 27.1766Z" fill="#F9F9F9"/>
<path d="M65.7267 50.913C72.0208 46.7298 78.5445 42.0253 86.3268 41.4053C90.2672 40.9412 93.947 43.2445 96.2434 46.2899C100.436 52.4571 103.497 59.3401 105.61 66.4803C108.836 63.3012 112.376 59.4242 117.275 59.4421C119.943 59.727 122.911 60.76 124.244 63.284C125.681 65.6011 125.304 68.4437 124.935 71.0021C123.94 75.8597 121.34 80.2526 118.033 83.8965C111.732 90.8374 104.071 96.3426 96.3152 101.531C90.1576 105.764 83.5208 109.235 76.8481 112.571C80.9823 104.597 86.4682 97.3494 90.3976 89.2644C89.7542 86.4812 87.8819 84.0979 87.2812 81.2663C85.0386 74.2661 84.0069 66.981 82.8346 59.747C70.6829 62.8764 58.974 67.5258 46.812 70.6283C43.5632 71.4648 40.3565 72.4731 37.0664 73.1427C40.3007 69.9863 43.4839 66.7576 46.9361 63.837C53.164 59.4787 59.514 55.2941 65.7267 50.913Z" fill="#F9F9F9"/>
<path d="M65.8172 145.839C62.3089 145.347 60.4292 141.447 62.2241 138.385C62.6382 137.678 63.629 136.803 64.4606 136.409C65.1649 136.075 65.2616 136.059 66.5175 136.059C67.8179 136.059 67.8462 136.064 68.6579 136.465C70.8196 137.534 71.9162 139.887 71.3195 142.178C71.0799 143.098 70.6687 143.79 69.9604 144.465C68.7976 145.575 67.351 146.054 65.8172 145.839Z" fill="#F9F9F9"/>
<path d="M78.8141 133.618C77.5229 133.186 76.609 132.51 75.9453 131.494C73.8794 128.334 75.5256 124.233 79.2081 123.366C82.185 122.666 85.1451 124.714 85.6237 127.807C85.967 130.025 84.7695 132.256 82.6804 133.291C81.8 133.728 81.7107 133.749 80.5881 133.783C79.6677 133.812 79.2861 133.776 78.8141 133.618Z" fill="#F9F9F9"/>
<path d="M7.21392 90.2036C5.89644 89.72 4.67873 88.4664 4.22075 87.1223C3.87697 86.1134 3.9926 84.2581 4.45534 83.3584C4.97296 82.352 5.75196 81.578 6.74681 81.0817C7.93954 80.4866 9.69907 80.4444 10.8918 80.9822C11.9001 81.4368 13.0269 82.5564 13.4706 83.5445C13.9745 84.6668 13.9599 86.4944 13.4384 87.5793C12.9032 88.6924 11.8258 89.7103 10.7609 90.1087C9.72895 90.4948 8.12423 90.5377 7.21392 90.2036Z" fill="#F9F9F9"/>
<path d="M20.7604 78.062C19.7433 77.6597 18.5533 76.535 17.9853 75.4394C17.5967 74.6897 17.5442 74.4238 17.543 73.1971C17.5418 72.0192 17.6034 71.6736 17.9438 70.9478C18.4979 69.7664 19.1393 69.0854 20.281 68.4664C21.1928 67.9719 21.3437 67.9393 22.722 67.9395C24.4543 67.9396 25.2132 68.2183 26.3678 69.2787C27.7792 70.5747 28.3773 72.5484 27.9113 74.3722C27.5101 75.9428 26.5664 77.1277 25.1189 77.8785C24.0386 78.4388 21.9365 78.5273 20.7604 78.062Z" fill="#F9F9F9"/>
<path d="M55.09 129.462C41.6117 116.578 31.6995 107.275 20.7108 97.1942C17.0961 93.8783 13.9369 90.973 13.6904 90.738L13.2422 90.3108L13.7976 89.6619C14.4928 88.8498 14.9698 87.8464 15.2021 86.7078L15.3819 85.8262L17.9304 88.1571C28.2401 97.5866 39.8246 108.365 48.5459 116.643C55.033 122.8 66.5161 133.799 66.856 134.181L67.1505 134.512H66.4632C65.1108 134.512 63.4407 135.118 62.5161 135.943L62.1822 136.241L55.09 129.462Z" fill="#F9F9F9"/>
<path d="M81.4124 152.279C79.3159 151.973 77.4503 151.166 75.4574 149.701C74.2762 148.833 71.5251 146.254 71.2611 145.767C71.1523 145.567 71.2471 145.32 71.6473 144.762C72.3113 143.837 72.6236 143.062 72.8699 141.727L73.063 140.681L74.5113 142.275C76.1672 144.097 77.7644 145.561 78.9712 146.362C81.3665 147.952 84.5988 148.056 87.3304 146.633C90.8724 144.786 96.1394 139.402 96.8052 136.946C97.15 135.674 96.7997 133.981 95.9164 132.645C95.1527 131.491 91.7724 128.877 85.427 124.534C77.692 119.24 67.8913 111.824 61.5732 106.486C52.737 99.0197 45.1492 91.192 36.7257 80.8528C32.1531 75.2403 29.6921 72.0065 27.3399 68.5197C24.5559 64.393 23.2891 62.8243 21.75 61.5981C19.8043 60.0479 18.2789 59.4801 16.0884 59.4905C13.3845 59.5033 11.0732 60.7817 8.02943 63.9478C6.7011 65.3295 6.21994 65.9522 5.80545 66.8257C4.0112 70.607 4.66138 75.7979 7.25396 78.3905L8.00156 79.1381L7.12659 79.3895C6.1047 79.683 5.07698 80.3022 4.32695 81.0761C4.03385 81.3786 3.75296 81.626 3.70274 81.626C3.52943 81.626 2.43058 80.0434 1.82712 78.9246C-0.539731 74.5366 -0.611354 69.0982 1.63725 64.5079C2.71137 62.3152 5.77484 59.0834 8.5147 57.2526C11.1832 55.4695 13.4269 54.7188 16.0879 54.7188C19.6901 54.7188 22.8514 56.0583 25.8038 58.8357C27.4887 60.4207 28.5666 61.7933 31.0715 65.5435C33.2427 68.7942 36.2186 72.714 40.3461 77.76C51.9442 91.9389 61.1432 100.709 76.4579 112.188C81.755 116.158 84.0792 117.84 87.4373 120.131C95.0872 125.351 98.5377 128.069 99.758 129.837C102.096 133.225 102.308 137.362 100.313 140.661C98.188 144.174 94.1028 148.154 90.2358 150.478C87.6808 152.014 84.3118 152.701 81.4124 152.279Z" fill="#F9F9F9"/>
</svg>
