<svg width="21" height="29" viewBox="0 0 21 29" fill="none" xmlns="http://www.w3.org/2000/svg">
<path opacity="0.3" d="M10.5 15C11.325 15 12 14.325 12 13.5V4.5C12 3.675 11.325 3 10.5 3C9.675 3 9 3.675 9 4.5V13.5C9 14.325 9.675 15 10.5 15Z" fill="#F9F9F9"/>
<path d="M10.5 18C12.99 18 15 15.99 15 13.5V4.5C15 2.01 12.99 0 10.5 0C8.01 0 6 2.01 6 4.5V13.5C6 15.99 8.01 18 10.5 18ZM9 4.5C9 3.675 9.675 3 10.5 3C11.325 3 12 3.675 12 4.5V13.5C12 14.325 11.325 15 10.5 15C9.675 15 9 14.325 9 13.5V4.5Z" fill="#F9F9F9"/>
<path d="M18 13.5C18 17.64 14.64 21 10.5 21C6.36 21 3 17.64 3 13.5H0C0 18.795 3.915 23.145 9 23.88V28.5H12V23.88C17.085 23.145 21 18.795 21 13.5H18Z" fill="#F9F9F9"/>
</svg>
