<svg width="10" height="13" viewBox="0 0 10 13" fill="none" xmlns="http://www.w3.org/2000/svg">
<path opacity="0.3" d="M5.00016 7.00008C5.36683 7.00008 5.66683 6.70008 5.66683 6.33342V2.33341C5.66683 1.96675 5.36683 1.66675 5.00016 1.66675C4.6335 1.66675 4.3335 1.96675 4.3335 2.33341V6.33342C4.3335 6.70008 4.6335 7.00008 5.00016 7.00008Z" fill="#484D66"/>
<path d="M5 8.33337C6.10667 8.33337 7 7.44004 7 6.33337V2.33337C7 1.22671 6.10667 0.333374 5 0.333374C3.89333 0.333374 3 1.22671 3 2.33337V6.33337C3 7.44004 3.89333 8.33337 5 8.33337ZM4.33333 2.33337C4.33333 1.96671 4.63333 1.66671 5 1.66671C5.36667 1.66671 5.66667 1.96671 5.66667 2.33337V6.33337C5.66667 6.70004 5.36667 7.00004 5 7.00004C4.63333 7.00004 4.33333 6.70004 4.33333 6.33337V2.33337Z" fill="#484D66"/>
<path d="M8.3335 6.33337C8.3335 8.17337 6.84016 9.66671 5.00016 9.66671C3.16016 9.66671 1.66683 8.17337 1.66683 6.33337H0.333496C0.333496 8.68671 2.0735 10.62 4.3335 10.9467V13H5.66683V10.9467C7.92683 10.62 9.66683 8.68671 9.66683 6.33337H8.3335Z" fill="#484D66"/>
</svg>
