<svg width="45" height="21" viewBox="0 0 45 21" fill="none" xmlns="http://www.w3.org/2000/svg">
<path d="M37.2902 0.233163C33.6694 0.233163 30.6729 2.92577 30.1784 6.41236C30.0079 6.4005 29.8374 6.38642 29.6639 6.38642C29.5579 6.38642 29.4556 6.39754 29.351 6.40199C28.8513 2.92058 25.8578 0.233163 22.2407 0.233163C18.6214 0.233163 15.6263 2.92354 15.1296 6.40792C14.9858 6.39902 14.8434 6.38568 14.6974 6.38568C14.5639 6.38568 14.4335 6.39828 14.3015 6.40569C13.804 2.92206 10.8097 0.232422 7.19115 0.232422C3.22564 0.232422 0 3.4588 0 7.42357C0 11.3883 3.22638 14.6147 7.19115 14.6147C7.3246 14.6147 7.45508 14.6021 7.58704 14.5947C8.08449 18.0783 11.0788 20.768 14.6974 20.768C18.3167 20.768 21.3118 18.0776 21.8085 14.5932C21.9523 14.6021 22.0946 14.6155 22.2407 14.6155C22.3467 14.6155 22.449 14.6043 22.5535 14.5999C23.0525 18.0813 26.0461 20.7687 29.6639 20.7687C33.2847 20.7687 36.2812 18.0761 36.7757 14.5895C36.9462 14.6014 37.1167 14.6155 37.2902 14.6155C41.2557 14.6155 44.4814 11.3891 44.4814 7.42431C44.4814 3.45954 41.255 0.233163 37.2902 0.233163ZM1.48271 7.42431C1.48271 4.27652 4.04335 1.71587 7.19115 1.71587C10.0721 1.71587 12.454 3.8621 12.8388 6.63848C9.91638 7.42209 7.72864 9.99904 7.52921 13.1157C7.41727 13.1224 7.30532 13.1328 7.19115 13.1328C4.04335 13.1328 1.48271 10.5721 1.48271 7.42431ZM12.8432 8.1842C12.5541 10.346 11.0529 12.1253 9.04528 12.8177C9.33515 10.6559 10.8357 8.87663 12.8432 8.1842ZM14.6974 19.286C11.8165 19.286 9.43449 17.1398 9.04973 14.3634C11.9722 13.5798 14.1599 11.0028 14.3593 7.88618C14.472 7.87951 14.5832 7.86913 14.6974 7.86913C14.8242 7.86913 14.948 7.88025 15.0725 7.8884C15.2719 10.9917 17.4426 13.5598 20.3465 14.3545C19.9662 17.1353 17.5813 19.286 14.6974 19.286ZM16.5908 8.19829C18.5739 8.89887 20.0552 10.6618 20.3473 12.8036C18.3641 12.103 16.8829 10.3401 16.5908 8.19829ZM21.8656 13.1142C21.6661 10.0109 19.4954 7.44285 16.5915 6.64812C16.9726 3.86729 19.3568 1.71662 22.2407 1.71662C25.1142 1.71662 27.4917 3.85246 27.8854 6.61846C24.9222 7.37613 22.6951 9.97384 22.4957 13.1209C22.4104 13.1239 22.3267 13.1328 22.2407 13.1328C22.1139 13.1328 21.9901 13.1224 21.8656 13.1142ZM27.8972 8.15159C27.6148 10.3601 26.069 12.1771 24.0066 12.8503C24.2898 10.6418 25.8355 8.82474 27.8972 8.15159ZM29.6639 19.286C26.7904 19.286 24.4128 17.1502 24.0192 14.3842C26.9824 13.6265 29.2094 11.0288 29.4088 7.88173C29.4941 7.87802 29.5779 7.86913 29.6639 7.86913C29.8188 7.86913 29.9708 7.88025 30.1228 7.89211C30.3222 10.965 32.4536 13.5146 35.3167 14.3338C34.9446 17.1242 32.5544 19.286 29.6639 19.286ZM31.6455 8.23091C33.5745 8.94854 35.0105 10.6766 35.3086 12.771C33.3795 12.0533 31.9435 10.3252 31.6455 8.23091ZM37.2902 13.1328C37.1353 13.1328 36.9833 13.1216 36.8313 13.1098C36.6319 10.0369 34.5005 7.48733 31.6374 6.66813C32.0095 3.87767 34.3989 1.71587 37.2902 1.71587C40.438 1.71587 42.9986 4.27652 42.9986 7.42431C42.9986 10.5721 40.438 13.1328 37.2902 13.1328Z" fill="black"/>
</svg>
