<svg width="38" height="32" viewBox="0 0 38 32" fill="none" xmlns="http://www.w3.org/2000/svg">
<path d="M3.51445 26.9234C6.14507 29.8387 10.1257 31.3164 15.3438 31.3164L17.2188 31.3164L17.2188 25.9133L15.7113 25.6047C13.1426 25.0796 11.3557 24.0465 10.3994 22.5304C9.90049 21.7137 9.61752 20.7785 9.5782 19.8164L15.3438 19.8164C15.8411 19.8164 16.318 19.6145 16.6696 19.255C17.0213 18.8956 17.2188 18.4081 17.2188 17.8997L17.2188 4.48307C17.2188 2.36899 15.5369 0.649741 13.4688 0.649741L2.21882 0.649742C1.72154 0.649742 1.24462 0.851675 0.892993 1.21112C0.541362 1.57056 0.343818 2.05808 0.343818 2.56641L0.343819 12.1497L0.349445 17.7445C0.33257 17.9572 -0.0236798 22.9981 3.51445 26.9234ZM34.0938 0.649739L22.8438 0.64974C22.3465 0.64974 21.8696 0.851673 21.518 1.21112C21.1664 1.57056 20.9688 2.05807 20.9688 2.56641L20.9688 12.1497L20.9744 17.7445C20.9576 17.9572 20.6013 22.9981 24.1394 26.9234C26.7701 29.8387 30.7507 31.3164 35.9688 31.3164L37.8438 31.3164L37.8438 25.9133L36.3363 25.6047C33.7676 25.0796 31.9807 24.0465 31.0244 22.5304C30.5255 21.7137 30.2425 20.7785 30.2032 19.8164L35.9688 19.8164C36.4661 19.8164 36.943 19.6145 37.2947 19.255C37.6463 18.8956 37.8438 18.4081 37.8438 17.8997L37.8438 4.48307C37.8438 2.36899 36.1619 0.649739 34.0938 0.649739Z" fill="#3656FF"/>
</svg>
