<svg width="38" height="32" viewBox="0 0 38 32" fill="none" xmlns="http://www.w3.org/2000/svg">
<path d="M34.6731 26.9234C32.0424 29.8387 28.0618 31.3164 22.8437 31.3164L20.9687 31.3164L20.9687 25.9133L22.4762 25.6047C25.0449 25.0796 26.8318 24.0465 27.7881 22.5304C28.287 21.7137 28.57 20.7785 28.6093 19.8164L22.8437 19.8164C22.3464 19.8164 21.8695 19.6145 21.5179 19.255C21.1662 18.8956 20.9687 18.4081 20.9687 17.8997L20.9687 4.48307C20.9687 2.36899 22.6506 0.649743 24.7187 0.649743L35.9687 0.649744C36.466 0.649744 36.9429 0.851677 37.2945 1.21112C37.6461 1.57057 37.8437 2.05808 37.8437 2.56641L37.8437 12.1497L37.8381 17.7445C37.8549 17.9572 38.2112 22.9981 34.6731 26.9234ZM4.09368 0.649741L15.3437 0.649742C15.841 0.649742 16.3179 0.851675 16.6695 1.21112C17.0211 1.57056 17.2187 2.05808 17.2187 2.56641L17.2187 12.1497L17.2131 17.7445C17.2299 17.9572 17.5862 22.9981 14.0481 26.9234C11.4174 29.8387 7.4368 31.3164 2.21868 31.3164L0.343676 31.3164L0.343676 25.9133L1.85118 25.6047C4.41993 25.0796 6.2068 24.0465 7.16305 22.5304C7.662 21.7137 7.94499 20.7785 7.98431 19.8164L2.21868 19.8164C1.7214 19.8164 1.24448 19.6145 0.892848 19.255C0.541217 18.8956 0.343677 18.4081 0.343677 17.8997L0.343678 4.48307C0.343678 2.36899 2.02555 0.649741 4.09368 0.649741Z" fill="#3656FF"/>
</svg>
