<svg width="35" height="35" viewBox="0 0 35 35" fill="none" xmlns="http://www.w3.org/2000/svg">
<g clip-path="url(#clip0_796_77282)">
<path opacity="0.3" d="M26.2474 8.75004C27.0528 8.75004 27.7057 8.09712 27.7057 7.29171C27.7057 6.48629 27.0528 5.83337 26.2474 5.83337C25.442 5.83337 24.7891 6.48629 24.7891 7.29171C24.7891 8.09712 25.442 8.75004 26.2474 8.75004Z" fill="#0F0F0F"/>
<path opacity="0.3" d="M8.7474 18.9583C9.55281 18.9583 10.2057 18.3054 10.2057 17.5C10.2057 16.6945 9.55281 16.0416 8.7474 16.0416C7.94198 16.0416 7.28906 16.6945 7.28906 17.5C7.28906 18.3054 7.94198 18.9583 8.7474 18.9583Z" fill="#0F0F0F"/>
<path opacity="0.3" d="M26.2474 29.1958C27.0528 29.1958 27.7057 28.5429 27.7057 27.7375C27.7057 26.9321 27.0528 26.2792 26.2474 26.2792C25.442 26.2792 24.7891 26.9321 24.7891 27.7375C24.7891 28.5429 25.442 29.1958 26.2474 29.1958Z" fill="#0F0F0F"/>
<path d="M26.25 23.45C25.1417 23.45 24.15 23.8875 23.3917 24.5729L12.9937 18.5208C13.0667 18.1854 13.125 17.85 13.125 17.5C13.125 17.15 13.0667 16.8145 12.9937 16.4791L23.275 10.4854C24.0625 11.2145 25.0979 11.6666 26.25 11.6666C28.6708 11.6666 30.625 9.71246 30.625 7.29163C30.625 4.87079 28.6708 2.91663 26.25 2.91663C23.8292 2.91663 21.875 4.87079 21.875 7.29163C21.875 7.64163 21.9333 7.97704 22.0063 8.31246L11.725 14.3062C10.9375 13.577 9.90208 13.125 8.75 13.125C6.32917 13.125 4.375 15.0791 4.375 17.5C4.375 19.9208 6.32917 21.875 8.75 21.875C9.90208 21.875 10.9375 21.4229 11.725 20.6937L22.1083 26.7604C22.0354 27.0666 21.9917 27.3875 21.9917 27.7083C21.9917 30.0562 23.9021 31.9666 26.25 31.9666C28.5979 31.9666 30.5083 30.0562 30.5083 27.7083C30.5083 25.3604 28.5979 23.45 26.25 23.45ZM26.25 5.83329C27.0521 5.83329 27.7083 6.48954 27.7083 7.29163C27.7083 8.09371 27.0521 8.74996 26.25 8.74996C25.4479 8.74996 24.7917 8.09371 24.7917 7.29163C24.7917 6.48954 25.4479 5.83329 26.25 5.83329ZM8.75 18.9583C7.94792 18.9583 7.29167 18.302 7.29167 17.5C7.29167 16.6979 7.94792 16.0416 8.75 16.0416C9.55208 16.0416 10.2083 16.6979 10.2083 17.5C10.2083 18.302 9.55208 18.9583 8.75 18.9583ZM26.25 29.1958C25.4479 29.1958 24.7917 28.5395 24.7917 27.7375C24.7917 26.9354 25.4479 26.2791 26.25 26.2791C27.0521 26.2791 27.7083 26.9354 27.7083 27.7375C27.7083 28.5395 27.0521 29.1958 26.25 29.1958Z" fill="#0F0F0F"/>
</g>
<defs>
<clipPath id="clip0_796_77282">
<rect width="35" height="35" fill="white"/>
</clipPath>
</defs>
</svg>
