<!-- <svg width="35" height="35" viewBox="0 0 35 35" fill="none" xmlns="http://www.w3.org/2000/svg">
<g clip-path="url(#clip0_796_77282)">
<path opacity="0.3" d="M26.2474 8.75004C27.0528 8.75004 27.7057 8.09712 27.7057 7.29171C27.7057 6.48629 27.0528 5.83337 26.2474 5.83337C25.442 5.83337 24.7891 6.48629 24.7891 7.29171C24.7891 8.09712 25.442 8.75004 26.2474 8.75004Z" fill="#0F0F0F"/>
<path opacity="0.3" d="M8.7474 18.9583C9.55281 18.9583 10.2057 18.3054 10.2057 17.5C10.2057 16.6945 9.55281 16.0416 8.7474 16.0416C7.94198 16.0416 7.28906 16.6945 7.28906 17.5C7.28906 18.3054 7.94198 18.9583 8.7474 18.9583Z" fill="#0F0F0F"/>
<path opacity="0.3" d="M26.2474 29.1958C27.0528 29.1958 27.7057 28.5429 27.7057 27.7375C27.7057 26.9321 27.0528 26.2792 26.2474 26.2792C25.442 26.2792 24.7891 26.9321 24.7891 27.7375C24.7891 28.5429 25.442 29.1958 26.2474 29.1958Z" fill="#0F0F0F"/>
<path d="M26.25 23.45C25.1417 23.45 24.15 23.8875 23.3917 24.5729L12.9937 18.5208C13.0667 18.1854 13.125 17.85 13.125 17.5C13.125 17.15 13.0667 16.8145 12.9937 16.4791L23.275 10.4854C24.0625 11.2145 25.0979 11.6666 26.25 11.6666C28.6708 11.6666 30.625 9.71246 30.625 7.29163C30.625 4.87079 28.6708 2.91663 26.25 2.91663C23.8292 2.91663 21.875 4.87079 21.875 7.29163C21.875 7.64163 21.9333 7.97704 22.0063 8.31246L11.725 14.3062C10.9375 13.577 9.90208 13.125 8.75 13.125C6.32917 13.125 4.375 15.0791 4.375 17.5C4.375 19.9208 6.32917 21.875 8.75 21.875C9.90208 21.875 10.9375 21.4229 11.725 20.6937L22.1083 26.7604C22.0354 27.0666 21.9917 27.3875 21.9917 27.7083C21.9917 30.0562 23.9021 31.9666 26.25 31.9666C28.5979 31.9666 30.5083 30.0562 30.5083 27.7083C30.5083 25.3604 28.5979 23.45 26.25 23.45ZM26.25 5.83329C27.0521 5.83329 27.7083 6.48954 27.7083 7.29163C27.7083 8.09371 27.0521 8.74996 26.25 8.74996C25.4479 8.74996 24.7917 8.09371 24.7917 7.29163C24.7917 6.48954 25.4479 5.83329 26.25 5.83329ZM8.75 18.9583C7.94792 18.9583 7.29167 18.302 7.29167 17.5C7.29167 16.6979 7.94792 16.0416 8.75 16.0416C9.55208 16.0416 10.2083 16.6979 10.2083 17.5C10.2083 18.302 9.55208 18.9583 8.75 18.9583ZM26.25 29.1958C25.4479 29.1958 24.7917 28.5395 24.7917 27.7375C24.7917 26.9354 25.4479 26.2791 26.25 26.2791C27.0521 26.2791 27.7083 26.9354 27.7083 27.7375C27.7083 28.5395 27.0521 29.1958 26.25 29.1958Z" fill="#0F0F0F"/>
</g>
<defs>
<clipPath id="clip0_796_77282">
<rect width="35" height="35" fill="white"/> -->
<svg width="27" height="29" viewBox="0 0 27 29" fill="none" xmlns="http://www.w3.org/2000/svg">
<g clip-path="url(#clip0_1013_55060)">
<path opacity="0.3" d="M22.2474 5.75004C23.0528 5.75004 23.7057 5.09712 23.7057 4.29171C23.7057 3.48629 23.0528 2.83337 22.2474 2.83337C21.442 2.83337 20.7891 3.48629 20.7891 4.29171C20.7891 5.09712 21.442 5.75004 22.2474 5.75004Z" fill="#0F0F0F"/>
<path opacity="0.3" d="M4.7474 15.9583C5.55281 15.9583 6.20573 15.3054 6.20573 14.5C6.20573 13.6945 5.55281 13.0416 4.7474 13.0416C3.94198 13.0416 3.28906 13.6945 3.28906 14.5C3.28906 15.3054 3.94198 15.9583 4.7474 15.9583Z" fill="#0F0F0F"/>
<path opacity="0.3" d="M22.2474 26.1958C23.0528 26.1958 23.7057 25.5429 23.7057 24.7375C23.7057 23.9321 23.0528 23.2792 22.2474 23.2792C21.442 23.2792 20.7891 23.9321 20.7891 24.7375C20.7891 25.5429 21.442 26.1958 22.2474 26.1958Z" fill="#0F0F0F"/>
<path d="M22.25 20.45C21.1417 20.45 20.15 20.8875 19.3917 21.5729L8.99375 15.5208C9.06667 15.1854 9.125 14.85 9.125 14.5C9.125 14.15 9.06667 13.8145 8.99375 13.4791L19.275 7.48538C20.0625 8.21454 21.0979 8.66663 22.25 8.66663C24.6708 8.66663 26.625 6.71246 26.625 4.29163C26.625 1.87079 24.6708 -0.083374 22.25 -0.083374C19.8292 -0.083374 17.875 1.87079 17.875 4.29163C17.875 4.64163 17.9333 4.97704 18.0063 5.31246L7.725 11.3062C6.9375 10.577 5.90208 10.125 4.75 10.125C2.32917 10.125 0.375 12.0791 0.375 14.5C0.375 16.9208 2.32917 18.875 4.75 18.875C5.90208 18.875 6.9375 18.4229 7.725 17.6937L18.1083 23.7604C18.0354 24.0666 17.9917 24.3875 17.9917 24.7083C17.9917 27.0562 19.9021 28.9666 22.25 28.9666C24.5979 28.9666 26.5083 27.0562 26.5083 24.7083C26.5083 22.3604 24.5979 20.45 22.25 20.45ZM22.25 2.83329C23.0521 2.83329 23.7083 3.48954 23.7083 4.29163C23.7083 5.09371 23.0521 5.74996 22.25 5.74996C21.4479 5.74996 20.7917 5.09371 20.7917 4.29163C20.7917 3.48954 21.4479 2.83329 22.25 2.83329ZM4.75 15.9583C3.94792 15.9583 3.29167 15.302 3.29167 14.5C3.29167 13.6979 3.94792 13.0416 4.75 13.0416C5.55208 13.0416 6.20833 13.6979 6.20833 14.5C6.20833 15.302 5.55208 15.9583 4.75 15.9583ZM22.25 26.1958C21.4479 26.1958 20.7917 25.5395 20.7917 24.7375C20.7917 23.9354 21.4479 23.2791 22.25 23.2791C23.0521 23.2791 23.7083 23.9354 23.7083 24.7375C23.7083 25.5395 23.0521 26.1958 22.25 26.1958Z" fill="#0F0F0F"/>
</g>
<defs>
<clipPath id="clip0_1013_55060">
<rect width="27" height="29" fill="white"/>
</clipPath>
</defs>
</svg>
