<svg xmlns="http://www.w3.org/2000/svg" width="24" height="23" fill="none"><mask id="a" width="24" height="23" x="0" y="0" maskUnits="userSpaceOnUse" style="mask-type:alpha"><path fill="#D9D9D9" d="M0 0h24v22.551H0z"/></mask><g mask="url(#a)"><path fill="#F9F9F9" d="M7.25 22.552c-.2 0-.376-.07-.526-.212a.657.657 0 0 1-.225-.493c0-.188.075-.353.225-.493a.742.742 0 0 1 .525-.212c.2 0 .375.07.525.212.15.14.225.305.225.493a.657.657 0 0 1-.225.493.743.743 0 0 1-.525.212Zm8.5 0c-.2 0-.376-.07-.526-.212a.657.657 0 0 1-.225-.493c0-.188.075-.353.225-.493a.742.742 0 0 1 .525-.212c.2 0 .375.07.525.212.15.14.225.305.225.493a.657.657 0 0 1-.225.493.743.743 0 0 1-.525.212Zm-9-1.88c-.75 0-1.442-.152-2.076-.458A4.501 4.501 0 0 1 3.1 18.981a1.291 1.291 0 0 1-.112-.211.566.566 0 0 1-.038-.212c0-.188.067-.352.2-.493.134-.141.317-.212.55-.212.134 0 .246.024.338.071a.91.91 0 0 1 .262.211c.2.267.454.49.763.67.308.18.637.31.987.387l3.125-3.547-1.325-3.899a1.869 1.869 0 0 1-.075-.799c.034-.266.125-.516.275-.751l2.4-3.618H8.1L6.2 9.444l-1.7-.987L7 4.7h5.7c.45 0 .813.117 1.088.352.275.235.462.454.562.658l.525 1.127c.334.752.871 1.367 1.613 1.844.741.478 1.579.717 2.512.717v1.88c-1.166 0-2.233-.263-3.2-.788-.966-.524-1.741-1.217-2.325-2.079l-1.8 2.702L16 13.625v5.638h.3a3.105 3.105 0 0 0 2.4-1.127.912.912 0 0 1 .263-.212.734.734 0 0 1 .337-.07.73.73 0 0 1 .538.21.674.674 0 0 1 .212.494.566.566 0 0 1-.037.212 1.291 1.291 0 0 1-.113.211 4.555 4.555 0 0 1-3.6 1.691H6.75Zm1.85-1.41H14v-4.321l-3.5-2.068 1 3.101-2.9 3.289ZM15 4.7a1.99 1.99 0 0 1-1.413-.552c-.392-.368-.588-.81-.588-1.327 0-.517.196-.96.588-1.328A1.99 1.99 0 0 1 14.999.94c.55 0 1.021.184 1.413.552.391.368.587.81.587 1.328 0 .516-.196.959-.587 1.327a1.99 1.99 0 0 1-1.413.552Z"/></g></svg>