<svg width="73" height="92" viewBox="0 0 73 92" fill="none" xmlns="http://www.w3.org/2000/svg">
<path d="M18.4451 91.1431C17.6052 91.1431 16.8702 90.8471 16.2403 90.2552C15.6104 89.6633 15.2954 88.9727 15.2954 88.1835C15.2954 87.3943 15.6104 86.7038 16.2403 86.1119C16.8702 85.52 17.6052 85.224 18.4451 85.224C19.285 85.224 20.02 85.52 20.6499 86.1119C21.2798 86.7038 21.5948 87.3943 21.5948 88.1835C21.5948 88.9727 21.2798 89.6633 20.6499 90.2552C20.02 90.8471 19.285 91.1431 18.4451 91.1431ZM54.1419 91.1431C53.302 91.1431 52.567 90.8471 51.9371 90.2552C51.3071 89.6633 50.9922 88.9727 50.9922 88.1835C50.9922 87.3943 51.3071 86.7038 51.9371 86.1119C52.567 85.52 53.302 85.224 54.1419 85.224C54.9818 85.224 55.7167 85.52 56.3467 86.1119C56.9766 86.7038 57.2916 87.3943 57.2916 88.1835C57.2916 88.9727 56.9766 89.6633 56.3467 90.2552C55.7167 90.8471 54.9818 91.1431 54.1419 91.1431ZM16.3453 83.251C13.1956 83.251 10.2908 82.6097 7.63107 81.3273C4.97131 80.0448 2.76651 78.3184 1.01666 76.1481C0.806681 75.8192 0.649195 75.5233 0.544205 75.2602C0.439214 74.9971 0.386719 74.7012 0.386719 74.3723C0.386719 73.5831 0.666694 72.8926 1.22664 72.3007C1.78659 71.7088 2.55652 71.4128 3.53644 71.4128C4.09639 71.4128 4.56884 71.5115 4.95381 71.7088C5.33877 71.9061 5.70624 72.202 6.05621 72.5966C6.89613 73.7147 7.96354 74.6519 9.25842 75.4082C10.5533 76.1645 11.9357 76.7071 13.4055 77.0359L26.5294 62.1396L20.9649 45.7634C20.6149 44.6454 20.5099 43.5273 20.6499 42.4093C20.7899 41.2912 21.1749 40.239 21.8048 39.2524L31.8839 24.0601H22.0148L14.0355 36.0956L6.89613 31.9522L17.3952 16.168H41.333C43.2229 16.168 44.7452 16.6613 45.9001 17.6478C47.055 18.6343 47.8425 19.555 48.2624 20.41L50.4672 25.1453C51.8671 28.3021 54.1244 30.8835 57.2391 32.8894C60.3538 34.8953 63.871 35.8983 67.7907 35.8983V43.7904C62.8911 43.7904 58.4115 42.6888 54.3519 40.4856C50.2922 38.2824 47.0375 35.3722 44.5877 31.7549L37.0284 43.0998L55.1918 53.6555V77.3319H56.4517C58.4815 77.3319 60.3713 76.9044 62.1212 76.0494C63.871 75.1944 65.3409 74.0435 66.5308 72.5966C66.8807 72.202 67.2482 71.9061 67.6332 71.7088C68.0181 71.5115 68.4906 71.4128 69.0506 71.4128C69.9605 71.4128 70.7129 71.7088 71.3078 72.3007C71.9028 72.8926 72.2003 73.5831 72.2003 74.3723C72.2003 74.7012 72.1478 74.9971 72.0428 75.2602C71.9378 75.5233 71.7803 75.8192 71.5703 76.1481C69.8205 78.3184 67.6507 80.0448 65.0609 81.3273C62.4711 82.6097 59.6014 83.251 56.4517 83.251H16.3453ZM24.1146 77.3319H46.7925V59.18L32.0939 50.4987L36.2935 63.5207L24.1146 77.3319ZM50.9922 16.168C48.6824 16.168 46.7051 15.3952 45.0602 13.8497C43.4154 12.3042 42.5929 10.4462 42.5929 8.2759C42.5929 6.10557 43.4154 4.24764 45.0602 2.7021C46.7051 1.15656 48.6824 0.383789 50.9922 0.383789C53.302 0.383789 55.2793 1.15656 56.9241 2.7021C58.569 4.24764 59.3914 6.10557 59.3914 8.2759C59.3914 10.4462 58.569 12.3042 56.9241 13.8497C55.2793 15.3952 53.302 16.168 50.9922 16.168Z" fill="#F9F9F9"/>
</svg>
