<svg width="36" height="36" viewBox="0 0 36 36" fill="none" xmlns="http://www.w3.org/2000/svg">
<path d="M17.2594 34.3488C16.8655 34.7004 16.3889 34.8602 15.8298 34.8285C15.2706 34.7967 14.8153 34.5838 14.4637 34.1898C14.1121 33.7959 13.9522 33.3193 13.984 32.7602C14.0158 32.201 14.2287 31.7457 14.6226 31.3941C15.0166 31.0425 15.4932 30.8826 16.0523 30.9144C16.6115 30.9462 17.0668 31.1591 17.4184 31.553C17.77 31.947 17.9299 32.4236 17.8981 32.9827C17.8663 33.5419 17.6534 33.9972 17.2594 34.3488ZM34.0027 19.407C33.6088 19.7585 33.1322 19.9184 32.5731 19.8866C32.0139 19.8549 31.5585 19.642 31.207 19.248C30.8554 18.8541 30.6955 18.3775 30.7273 17.8184C30.7591 17.2592 30.972 16.8038 31.3659 16.4523C31.7599 16.1007 32.2364 15.9408 32.7956 15.9726C33.3547 16.0044 33.8101 16.2173 34.1617 16.6112C34.5132 17.0052 34.6731 17.4817 34.6413 18.0409C34.6095 18.6 34.3967 19.0554 34.0027 19.407Z" fill="#F9F9F9"/>
<path d="M12.7588 31.2881C11.2815 32.6065 9.63337 33.5023 7.81453 33.9754C5.99568 34.4485 4.19247 34.5096 2.4049 34.1587C2.15992 34.0824 1.95422 34.0006 1.78778 33.9132C1.62135 33.8259 1.46488 33.7001 1.3184 33.5359C0.966823 33.142 0.790518 32.6801 0.789478 32.1502C0.788439 31.6204 1.01773 31.1504 1.47735 30.7402C1.73999 30.5058 2.00554 30.3573 2.27399 30.2947C2.54245 30.232 2.84665 30.2259 3.18659 30.2764C4.07861 30.483 4.99676 30.504 5.94103 30.3395C6.88531 30.1751 7.77541 29.8673 8.61133 29.4162L13.7661 25.0814L24.4031 15.5889L28.3427 12.0732L28.9336 11.5459C29.8857 10.6962 30.5816 9.69179 31.0215 8.53256C31.4614 7.37333 31.6381 6.18356 31.5517 4.96324C31.54 4.61977 31.5806 4.31821 31.6732 4.05859C31.7659 3.79896 31.9436 3.55196 32.2062 3.31758C32.633 2.93671 33.1177 2.76949 33.6605 2.81593C34.2032 2.86237 34.6504 3.08257 35.0019 3.47653C35.1484 3.64068 35.2556 3.81039 35.3236 3.98566C35.3915 4.16092 35.4495 4.37458 35.4975 4.62662C35.6436 6.44245 35.3949 8.21246 34.7515 9.93666C34.1081 11.6609 33.0477 13.1822 31.5704 14.5006L12.7588 31.2881Z" fill="#F9F9F9"/>
</svg>
