<svg width="35" height="35" viewBox="0 0 35 35" fill="none" xmlns="http://www.w3.org/2000/svg">
<g clip-path="url(#clip0_257_82458)">
<path d="M24.0625 17.5C24.0625 14.9188 22.575 12.7021 20.4167 11.6229V14.8458L23.9896 18.4188C24.0333 18.1271 24.0625 17.8208 24.0625 17.5ZM27.7083 17.5C27.7083 18.8708 27.4167 20.1542 26.9208 21.35L29.1229 23.5521C30.0854 21.7437 30.625 19.6875 30.625 17.5C30.625 11.2583 26.2646 6.0375 20.4167 4.71042V7.71458C24.6313 8.96875 27.7083 12.8771 27.7083 17.5ZM6.22708 4.375L4.375 6.22708L11.2729 13.125H4.375V21.875H10.2083L17.5 29.1667V19.3521L23.6979 25.55C22.7208 26.3083 21.6271 26.9063 20.4167 27.2708V30.275C22.4292 29.8229 24.2521 28.8896 25.7979 27.6354L28.7729 30.625L30.625 28.7729L17.5 15.6479L6.22708 4.375ZM17.5 5.83333L14.4521 8.88125L17.5 11.9292V5.83333Z" fill="#0F0F0F"/>
</g>
<defs>
<clipPath id="clip0_257_82458">
<rect width="35" height="35" fill="white"/>
</clipPath>
</defs>
</svg>
