<svg width="24" height="24" viewBox="0 0 24 24" fill="none" xmlns="http://www.w3.org/2000/svg">
<g clip-path="url(#clip0_1567_631)">
<mask id="mask0_1567_631" style="mask-type:luminance" maskUnits="userSpaceOnUse" x="0" y="0" width="24" height="24">
<path d="M0 0H24V24H0V0Z" fill="white"/>
</mask>
<g mask="url(#mask0_1567_631)">
<path d="M19 14L21 12M21 12L23 10M21 12L19 10M21 12L23 14" stroke="black" stroke-width="1.5" stroke-linecap="round" stroke-linejoin="round"/>
<path d="M2 13.8573V10.1433C2 9.61282 2.21071 9.10412 2.58579 8.72904C2.96086 8.35397 3.46957 8.14326 4 8.14326H6.9C7.09552 8.14321 7.28674 8.08584 7.45 7.97826L13.45 4.02226C13.6008 3.92298 13.7756 3.86636 13.9559 3.85839C14.1362 3.85043 14.3154 3.89143 14.4743 3.97704C14.6332 4.06265 14.766 4.18968 14.8585 4.34465C14.9511 4.49962 15 4.67675 15 4.85726V19.1433C15 19.3238 14.9511 19.5009 14.8585 19.6559C14.766 19.8108 14.6332 19.9379 14.4743 20.0235C14.3154 20.1091 14.1362 20.1501 13.9559 20.1421C13.7756 20.1342 13.6008 20.0775 13.45 19.9783L7.45 16.0223C7.28674 15.9147 7.09552 15.8573 6.9 15.8573H4C3.46957 15.8573 2.96086 15.6465 2.58579 15.2715C2.21071 14.8964 2 14.3877 2 13.8573Z" stroke="black" stroke-width="1.5"/>
</g>
</g>
<defs>
<clipPath id="clip0_1567_631">
<rect width="24" height="24" fill="white"/>
</clipPath>
</defs>
</svg>
