<svg width="1920" height="353" viewBox="0 0 1920 353" fill="none" xmlns="http://www.w3.org/2000/svg">
<path d="M-6 0L-4.03983 9.26568L4 10.5263L-4.03983 11.787L-6 21.0526L-7.96017 11.787L-16 10.5263L-7.96017 9.26568L-6 0Z" fill="#CAD1F4" fill-opacity="0.2"/>
<path d="M86 0L87.9602 9.26568L96 10.5263L87.9602 11.787L86 21.0526L84.0398 11.787L76 10.5263L84.0398 9.26568L86 0Z" fill="#CAD1F4" fill-opacity="0.2"/>
<path d="M178 0L179.96 9.26568L188 10.5263L179.96 11.787L178 21.0526L176.04 11.787L168 10.5263L176.04 9.26568L178 0Z" fill="#CAD1F4" fill-opacity="0.2"/>
<path d="M270 0L271.96 9.26568L280 10.5263L271.96 11.787L270 21.0526L268.04 11.787L260 10.5263L268.04 9.26568L270 0Z" fill="#CAD1F4" fill-opacity="0.2"/>
<path d="M362 0L363.96 9.26568L372 10.5263L363.96 11.787L362 21.0526L360.04 11.787L352 10.5263L360.04 9.26568L362 0Z" fill="#CAD1F4" fill-opacity="0.2"/>
<path d="M454 0L455.96 9.26568L464 10.5263L455.96 11.787L454 21.0526L452.04 11.787L444 10.5263L452.04 9.26568L454 0Z" fill="#CAD1F4" fill-opacity="0.2"/>
<path d="M546 0L547.96 9.26568L556 10.5263L547.96 11.787L546 21.0526L544.04 11.787L536 10.5263L544.04 9.26568L546 0Z" fill="#CAD1F4" fill-opacity="0.2"/>
<path d="M638 0L639.96 9.26568L648 10.5263L639.96 11.787L638 21.0526L636.04 11.787L628 10.5263L636.04 9.26568L638 0Z" fill="#CAD1F4" fill-opacity="0.2"/>
<path d="M730 0L731.96 9.26568L740 10.5263L731.96 11.787L730 21.0526L728.04 11.787L720 10.5263L728.04 9.26568L730 0Z" fill="#CAD1F4" fill-opacity="0.2"/>
<path d="M822 0L823.96 9.26568L832 10.5263L823.96 11.787L822 21.0526L820.04 11.787L812 10.5263L820.04 9.26568L822 0Z" fill="#CAD1F4" fill-opacity="0.2"/>
<path d="M914 0L915.96 9.26568L924 10.5263L915.96 11.787L914 21.0526L912.04 11.787L904 10.5263L912.04 9.26568L914 0Z" fill="#CAD1F4" fill-opacity="0.2"/>
<path d="M1006 0L1007.96 9.26568L1016 10.5263L1007.96 11.787L1006 21.0526L1004.04 11.787L996 10.5263L1004.04 9.26568L1006 0Z" fill="#CAD1F4" fill-opacity="0.2"/>
<path d="M1098 0L1099.96 9.26568L1108 10.5263L1099.96 11.787L1098 21.0526L1096.04 11.787L1088 10.5263L1096.04 9.26568L1098 0Z" fill="#CAD1F4" fill-opacity="0.2"/>
<path d="M1190 0L1191.96 9.26568L1200 10.5263L1191.96 11.787L1190 21.0526L1188.04 11.787L1180 10.5263L1188.04 9.26568L1190 0Z" fill="#CAD1F4" fill-opacity="0.2"/>
<path d="M1282 0L1283.96 9.26568L1292 10.5263L1283.96 11.787L1282 21.0526L1280.04 11.787L1272 10.5263L1280.04 9.26568L1282 0Z" fill="#CAD1F4" fill-opacity="0.2"/>
<path d="M1374 0L1375.96 9.26568L1384 10.5263L1375.96 11.787L1374 21.0526L1372.04 11.787L1364 10.5263L1372.04 9.26568L1374 0Z" fill="#CAD1F4" fill-opacity="0.2"/>
<path d="M1466 0L1467.96 9.26568L1476 10.5263L1467.96 11.787L1466 21.0526L1464.04 11.787L1456 10.5263L1464.04 9.26568L1466 0Z" fill="#CAD1F4" fill-opacity="0.2"/>
<path d="M1558 0L1559.96 9.26568L1568 10.5263L1559.96 11.787L1558 21.0526L1556.04 11.787L1548 10.5263L1556.04 9.26568L1558 0Z" fill="#CAD1F4" fill-opacity="0.2"/>
<path d="M1650 0L1651.96 9.26568L1660 10.5263L1651.96 11.787L1650 21.0526L1648.04 11.787L1640 10.5263L1648.04 9.26568L1650 0Z" fill="#CAD1F4" fill-opacity="0.2"/>
<path d="M1742 0L1743.96 9.26568L1752 10.5263L1743.96 11.787L1742 21.0526L1740.04 11.787L1732 10.5263L1740.04 9.26568L1742 0Z" fill="#CAD1F4" fill-opacity="0.2"/>
<path d="M1834 0L1835.96 9.26568L1844 10.5263L1835.96 11.787L1834 21.0526L1832.04 11.787L1824 10.5263L1832.04 9.26568L1834 0Z" fill="#CAD1F4" fill-opacity="0.2"/>
<path d="M1926 0L1927.96 9.26568L1936 10.5263L1927.96 11.787L1926 21.0526L1924.04 11.787L1916 10.5263L1924.04 9.26568L1926 0Z" fill="#CAD1F4" fill-opacity="0.2"/>
<path d="M-6 76.0508L-4.03983 85.3165L4 86.5771L-4.03983 87.8377L-6 97.1034L-7.96017 87.8377L-16 86.5771L-7.96017 85.3165L-6 76.0508Z" fill="#CAD1F4" fill-opacity="0.4"/>
<path d="M86 76.0508L87.9602 85.3165L96 86.5771L87.9602 87.8377L86 97.1034L84.0398 87.8377L76 86.5771L84.0398 85.3165L86 76.0508Z" fill="#CAD1F4" fill-opacity="0.4"/>
<path d="M178 76.0508L179.96 85.3165L188 86.5771L179.96 87.8377L178 97.1034L176.04 87.8377L168 86.5771L176.04 85.3165L178 76.0508Z" fill="#CAD1F4" fill-opacity="0.4"/>
<path d="M270 76.0508L271.96 85.3165L280 86.5771L271.96 87.8377L270 97.1034L268.04 87.8377L260 86.5771L268.04 85.3165L270 76.0508Z" fill="#CAD1F4" fill-opacity="0.4"/>
<path d="M362 76.0508L363.96 85.3165L372 86.5771L363.96 87.8377L362 97.1034L360.04 87.8377L352 86.5771L360.04 85.3165L362 76.0508Z" fill="#CAD1F4" fill-opacity="0.4"/>
<path d="M454 76.0508L455.96 85.3165L464 86.5771L455.96 87.8377L454 97.1034L452.04 87.8377L444 86.5771L452.04 85.3165L454 76.0508Z" fill="#CAD1F4" fill-opacity="0.4"/>
<path d="M546 76.0508L547.96 85.3165L556 86.5771L547.96 87.8377L546 97.1034L544.04 87.8377L536 86.5771L544.04 85.3165L546 76.0508Z" fill="#CAD1F4" fill-opacity="0.4"/>
<path d="M638 76.0508L639.96 85.3165L648 86.5771L639.96 87.8377L638 97.1034L636.04 87.8377L628 86.5771L636.04 85.3165L638 76.0508Z" fill="#CAD1F4" fill-opacity="0.4"/>
<path d="M730 76.0508L731.96 85.3165L740 86.5771L731.96 87.8377L730 97.1034L728.04 87.8377L720 86.5771L728.04 85.3165L730 76.0508Z" fill="#CAD1F4" fill-opacity="0.4"/>
<path d="M822 76.0508L823.96 85.3165L832 86.5771L823.96 87.8377L822 97.1034L820.04 87.8377L812 86.5771L820.04 85.3165L822 76.0508Z" fill="#CAD1F4" fill-opacity="0.4"/>
<path d="M914 76.0508L915.96 85.3165L924 86.5771L915.96 87.8377L914 97.1034L912.04 87.8377L904 86.5771L912.04 85.3165L914 76.0508Z" fill="#CAD1F4" fill-opacity="0.4"/>
<path d="M1006 76.0508L1007.96 85.3165L1016 86.5771L1007.96 87.8377L1006 97.1034L1004.04 87.8377L996 86.5771L1004.04 85.3165L1006 76.0508Z" fill="#CAD1F4" fill-opacity="0.4"/>
<path d="M1098 76.0508L1099.96 85.3165L1108 86.5771L1099.96 87.8377L1098 97.1034L1096.04 87.8377L1088 86.5771L1096.04 85.3165L1098 76.0508Z" fill="#CAD1F4" fill-opacity="0.4"/>
<path d="M1190 76.0508L1191.96 85.3165L1200 86.5771L1191.96 87.8377L1190 97.1034L1188.04 87.8377L1180 86.5771L1188.04 85.3165L1190 76.0508Z" fill="#CAD1F4" fill-opacity="0.4"/>
<path d="M1282 76.0508L1283.96 85.3165L1292 86.5771L1283.96 87.8377L1282 97.1034L1280.04 87.8377L1272 86.5771L1280.04 85.3165L1282 76.0508Z" fill="#CAD1F4" fill-opacity="0.4"/>
<path d="M1374 76.0508L1375.96 85.3165L1384 86.5771L1375.96 87.8377L1374 97.1034L1372.04 87.8377L1364 86.5771L1372.04 85.3165L1374 76.0508Z" fill="#CAD1F4" fill-opacity="0.4"/>
<path d="M1466 76.0508L1467.96 85.3165L1476 86.5771L1467.96 87.8377L1466 97.1034L1464.04 87.8377L1456 86.5771L1464.04 85.3165L1466 76.0508Z" fill="#CAD1F4" fill-opacity="0.4"/>
<path d="M1558 76.0508L1559.96 85.3165L1568 86.5771L1559.96 87.8377L1558 97.1034L1556.04 87.8377L1548 86.5771L1556.04 85.3165L1558 76.0508Z" fill="#CAD1F4" fill-opacity="0.4"/>
<path d="M1650 76.0508L1651.96 85.3165L1660 86.5771L1651.96 87.8377L1650 97.1034L1648.04 87.8377L1640 86.5771L1648.04 85.3165L1650 76.0508Z" fill="#CAD1F4" fill-opacity="0.4"/>
<path d="M1742 76.0508L1743.96 85.3165L1752 86.5771L1743.96 87.8377L1742 97.1034L1740.04 87.8377L1732 86.5771L1740.04 85.3165L1742 76.0508Z" fill="#CAD1F4" fill-opacity="0.4"/>
<path d="M1834 76.0508L1835.96 85.3165L1844 86.5771L1835.96 87.8377L1834 97.1034L1832.04 87.8377L1824 86.5771L1832.04 85.3165L1834 76.0508Z" fill="#CAD1F4" fill-opacity="0.4"/>
<path d="M1926 76.0508L1927.96 85.3165L1936 86.5771L1927.96 87.8377L1926 97.1034L1924.04 87.8377L1916 86.5771L1924.04 85.3165L1926 76.0508Z" fill="#CAD1F4" fill-opacity="0.4"/>
<path d="M-6 152.105L-4.03983 161.371L4 162.632L-4.03983 163.892L-6 173.158L-7.96017 163.892L-16 162.632L-7.96017 161.371L-6 152.105Z" fill="#CAD1F4" fill-opacity="0.6"/>
<path d="M86 152.105L87.9602 161.371L96 162.632L87.9602 163.892L86 173.158L84.0398 163.892L76 162.632L84.0398 161.371L86 152.105Z" fill="#CAD1F4" fill-opacity="0.6"/>
<path d="M178 152.105L179.96 161.371L188 162.632L179.96 163.892L178 173.158L176.04 163.892L168 162.632L176.04 161.371L178 152.105Z" fill="#CAD1F4" fill-opacity="0.6"/>
<path d="M270 152.105L271.96 161.371L280 162.632L271.96 163.892L270 173.158L268.04 163.892L260 162.632L268.04 161.371L270 152.105Z" fill="#CAD1F4" fill-opacity="0.6"/>
<path d="M362 152.105L363.96 161.371L372 162.632L363.96 163.892L362 173.158L360.04 163.892L352 162.632L360.04 161.371L362 152.105Z" fill="#CAD1F4" fill-opacity="0.6"/>
<path d="M454 152.105L455.96 161.371L464 162.632L455.96 163.892L454 173.158L452.04 163.892L444 162.632L452.04 161.371L454 152.105Z" fill="#CAD1F4" fill-opacity="0.6"/>
<path d="M546 152.105L547.96 161.371L556 162.632L547.96 163.892L546 173.158L544.04 163.892L536 162.632L544.04 161.371L546 152.105Z" fill="#CAD1F4" fill-opacity="0.6"/>
<path d="M638 152.105L639.96 161.371L648 162.632L639.96 163.892L638 173.158L636.04 163.892L628 162.632L636.04 161.371L638 152.105Z" fill="#CAD1F4" fill-opacity="0.6"/>
<path d="M730 152.105L731.96 161.371L740 162.632L731.96 163.892L730 173.158L728.04 163.892L720 162.632L728.04 161.371L730 152.105Z" fill="#CAD1F4" fill-opacity="0.6"/>
<path d="M822 152.105L823.96 161.371L832 162.632L823.96 163.892L822 173.158L820.04 163.892L812 162.632L820.04 161.371L822 152.105Z" fill="#CAD1F4" fill-opacity="0.6"/>
<path d="M914 152.105L915.96 161.371L924 162.632L915.96 163.892L914 173.158L912.04 163.892L904 162.632L912.04 161.371L914 152.105Z" fill="#CAD1F4" fill-opacity="0.6"/>
<path d="M1006 152.105L1007.96 161.371L1016 162.632L1007.96 163.892L1006 173.158L1004.04 163.892L996 162.632L1004.04 161.371L1006 152.105Z" fill="#CAD1F4" fill-opacity="0.6"/>
<path d="M1098 152.105L1099.96 161.371L1108 162.632L1099.96 163.892L1098 173.158L1096.04 163.892L1088 162.632L1096.04 161.371L1098 152.105Z" fill="#CAD1F4" fill-opacity="0.6"/>
<path d="M1190 152.105L1191.96 161.371L1200 162.632L1191.96 163.892L1190 173.158L1188.04 163.892L1180 162.632L1188.04 161.371L1190 152.105Z" fill="#CAD1F4" fill-opacity="0.6"/>
<path d="M1282 152.105L1283.96 161.371L1292 162.632L1283.96 163.892L1282 173.158L1280.04 163.892L1272 162.632L1280.04 161.371L1282 152.105Z" fill="#CAD1F4" fill-opacity="0.6"/>
<path d="M1374 152.105L1375.96 161.371L1384 162.632L1375.96 163.892L1374 173.158L1372.04 163.892L1364 162.632L1372.04 161.371L1374 152.105Z" fill="#CAD1F4" fill-opacity="0.6"/>
<path d="M1466 152.105L1467.96 161.371L1476 162.632L1467.96 163.892L1466 173.158L1464.04 163.892L1456 162.632L1464.04 161.371L1466 152.105Z" fill="#CAD1F4" fill-opacity="0.6"/>
<path d="M1558 152.105L1559.96 161.371L1568 162.632L1559.96 163.892L1558 173.158L1556.04 163.892L1548 162.632L1556.04 161.371L1558 152.105Z" fill="#CAD1F4" fill-opacity="0.6"/>
<path d="M1650 152.105L1651.96 161.371L1660 162.632L1651.96 163.892L1650 173.158L1648.04 163.892L1640 162.632L1648.04 161.371L1650 152.105Z" fill="#CAD1F4" fill-opacity="0.6"/>
<path d="M1742 152.105L1743.96 161.371L1752 162.632L1743.96 163.892L1742 173.158L1740.04 163.892L1732 162.632L1740.04 161.371L1742 152.105Z" fill="#CAD1F4" fill-opacity="0.6"/>
<path d="M1834 152.105L1835.96 161.371L1844 162.632L1835.96 163.892L1834 173.158L1832.04 163.892L1824 162.632L1832.04 161.371L1834 152.105Z" fill="#CAD1F4" fill-opacity="0.6"/>
<path d="M1926 152.105L1927.96 161.371L1936 162.632L1927.96 163.892L1926 173.158L1924.04 163.892L1916 162.632L1924.04 161.371L1926 152.105Z" fill="#CAD1F4" fill-opacity="0.6"/>
<path d="M-6 228.156L-4.03983 237.422L4 238.683L-4.03983 239.943L-6 249.209L-7.96017 239.943L-16 238.683L-7.96017 237.422L-6 228.156Z" fill="#CAD1F4"/>
<path d="M86 228.156L87.9602 237.422L96 238.683L87.9602 239.943L86 249.209L84.0398 239.943L76 238.683L84.0398 237.422L86 228.156Z" fill="#CAD1F4"/>
<path d="M178 228.156L179.96 237.422L188 238.683L179.96 239.943L178 249.209L176.04 239.943L168 238.683L176.04 237.422L178 228.156Z" fill="#CAD1F4"/>
<path d="M270 228.156L271.96 237.422L280 238.683L271.96 239.943L270 249.209L268.04 239.943L260 238.683L268.04 237.422L270 228.156Z" fill="#CAD1F4"/>
<path d="M362 228.156L363.96 237.422L372 238.683L363.96 239.943L362 249.209L360.04 239.943L352 238.683L360.04 237.422L362 228.156Z" fill="#CAD1F4"/>
<path d="M454 228.156L455.96 237.422L464 238.683L455.96 239.943L454 249.209L452.04 239.943L444 238.683L452.04 237.422L454 228.156Z" fill="#CAD1F4"/>
<path d="M546 228.156L547.96 237.422L556 238.683L547.96 239.943L546 249.209L544.04 239.943L536 238.683L544.04 237.422L546 228.156Z" fill="#CAD1F4"/>
<path d="M638 228.156L639.96 237.422L648 238.683L639.96 239.943L638 249.209L636.04 239.943L628 238.683L636.04 237.422L638 228.156Z" fill="#CAD1F4"/>
<path d="M730 228.156L731.96 237.422L740 238.683L731.96 239.943L730 249.209L728.04 239.943L720 238.683L728.04 237.422L730 228.156Z" fill="#CAD1F4"/>
<path d="M822 228.156L823.96 237.422L832 238.683L823.96 239.943L822 249.209L820.04 239.943L812 238.683L820.04 237.422L822 228.156Z" fill="#CAD1F4"/>
<path d="M914 228.156L915.96 237.422L924 238.683L915.96 239.943L914 249.209L912.04 239.943L904 238.683L912.04 237.422L914 228.156Z" fill="#CAD1F4"/>
<path d="M1006 228.156L1007.96 237.422L1016 238.683L1007.96 239.943L1006 249.209L1004.04 239.943L996 238.683L1004.04 237.422L1006 228.156Z" fill="#CAD1F4"/>
<path d="M1098 228.156L1099.96 237.422L1108 238.683L1099.96 239.943L1098 249.209L1096.04 239.943L1088 238.683L1096.04 237.422L1098 228.156Z" fill="#CAD1F4"/>
<path d="M1190 228.156L1191.96 237.422L1200 238.683L1191.96 239.943L1190 249.209L1188.04 239.943L1180 238.683L1188.04 237.422L1190 228.156Z" fill="#CAD1F4"/>
<path d="M1282 228.156L1283.96 237.422L1292 238.683L1283.96 239.943L1282 249.209L1280.04 239.943L1272 238.683L1280.04 237.422L1282 228.156Z" fill="#CAD1F4"/>
<path d="M1374 228.156L1375.96 237.422L1384 238.683L1375.96 239.943L1374 249.209L1372.04 239.943L1364 238.683L1372.04 237.422L1374 228.156Z" fill="#CAD1F4"/>
<path d="M1466 228.156L1467.96 237.422L1476 238.683L1467.96 239.943L1466 249.209L1464.04 239.943L1456 238.683L1464.04 237.422L1466 228.156Z" fill="#CAD1F4"/>
<path d="M1558 228.156L1559.96 237.422L1568 238.683L1559.96 239.943L1558 249.209L1556.04 239.943L1548 238.683L1556.04 237.422L1558 228.156Z" fill="#CAD1F4"/>
<path d="M1650 228.156L1651.96 237.422L1660 238.683L1651.96 239.943L1650 249.209L1648.04 239.943L1640 238.683L1648.04 237.422L1650 228.156Z" fill="#CAD1F4"/>
<path d="M1742 228.156L1743.96 237.422L1752 238.683L1743.96 239.943L1742 249.209L1740.04 239.943L1732 238.683L1740.04 237.422L1742 228.156Z" fill="#CAD1F4"/>
<path d="M1834 228.156L1835.96 237.422L1844 238.683L1835.96 239.943L1834 249.209L1832.04 239.943L1824 238.683L1832.04 237.422L1834 228.156Z" fill="#CAD1F4"/>
<path d="M1926 228.156L1927.96 237.422L1936 238.683L1927.96 239.943L1926 249.209L1924.04 239.943L1916 238.683L1924.04 237.422L1926 228.156Z" fill="#CAD1F4"/>
<path d="M-6 304.211L-4.03983 313.477L4 314.737L-4.03983 315.998L-6 325.264L-7.96017 315.998L-16 314.737L-7.96017 313.477L-6 304.211Z" fill="#CAD1F4"/>
<path d="M86 304.211L87.9602 313.477L96 314.737L87.9602 315.998L86 325.264L84.0398 315.998L76 314.737L84.0398 313.477L86 304.211Z" fill="#CAD1F4"/>
<path d="M178 304.211L179.96 313.477L188 314.737L179.96 315.998L178 325.264L176.04 315.998L168 314.737L176.04 313.477L178 304.211Z" fill="#CAD1F4"/>
<path d="M270 304.211L271.96 313.477L280 314.737L271.96 315.998L270 325.264L268.04 315.998L260 314.737L268.04 313.477L270 304.211Z" fill="#CAD1F4"/>
<path d="M362 304.211L363.96 313.477L372 314.737L363.96 315.998L362 325.264L360.04 315.998L352 314.737L360.04 313.477L362 304.211Z" fill="#CAD1F4"/>
<path d="M454 304.211L455.96 313.477L464 314.737L455.96 315.998L454 325.264L452.04 315.998L444 314.737L452.04 313.477L454 304.211Z" fill="#CAD1F4"/>
<path d="M546 304.211L547.96 313.477L556 314.737L547.96 315.998L546 325.264L544.04 315.998L536 314.737L544.04 313.477L546 304.211Z" fill="#CAD1F4"/>
<path d="M638 304.211L639.96 313.477L648 314.737L639.96 315.998L638 325.264L636.04 315.998L628 314.737L636.04 313.477L638 304.211Z" fill="#CAD1F4"/>
<path d="M730 304.211L731.96 313.477L740 314.737L731.96 315.998L730 325.264L728.04 315.998L720 314.737L728.04 313.477L730 304.211Z" fill="#CAD1F4"/>
<path d="M822 304.211L823.96 313.477L832 314.737L823.96 315.998L822 325.264L820.04 315.998L812 314.737L820.04 313.477L822 304.211Z" fill="#CAD1F4"/>
<path d="M914 304.211L915.96 313.477L924 314.737L915.96 315.998L914 325.264L912.04 315.998L904 314.737L912.04 313.477L914 304.211Z" fill="#CAD1F4"/>
<path d="M1006 304.211L1007.96 313.477L1016 314.737L1007.96 315.998L1006 325.264L1004.04 315.998L996 314.737L1004.04 313.477L1006 304.211Z" fill="#CAD1F4"/>
<path d="M1098 304.211L1099.96 313.477L1108 314.737L1099.96 315.998L1098 325.264L1096.04 315.998L1088 314.737L1096.04 313.477L1098 304.211Z" fill="#CAD1F4"/>
<path d="M1190 304.211L1191.96 313.477L1200 314.737L1191.96 315.998L1190 325.264L1188.04 315.998L1180 314.737L1188.04 313.477L1190 304.211Z" fill="#CAD1F4"/>
<path d="M1282 304.211L1283.96 313.477L1292 314.737L1283.96 315.998L1282 325.264L1280.04 315.998L1272 314.737L1280.04 313.477L1282 304.211Z" fill="#CAD1F4"/>
<path d="M1374 304.211L1375.96 313.477L1384 314.737L1375.96 315.998L1374 325.264L1372.04 315.998L1364 314.737L1372.04 313.477L1374 304.211Z" fill="#CAD1F4"/>
<path d="M1466 304.211L1467.96 313.477L1476 314.737L1467.96 315.998L1466 325.264L1464.04 315.998L1456 314.737L1464.04 313.477L1466 304.211Z" fill="#CAD1F4"/>
<path d="M1558 304.211L1559.96 313.477L1568 314.737L1559.96 315.998L1558 325.264L1556.04 315.998L1548 314.737L1556.04 313.477L1558 304.211Z" fill="#CAD1F4"/>
<path d="M1650 304.211L1651.96 313.477L1660 314.737L1651.96 315.998L1650 325.264L1648.04 315.998L1640 314.737L1648.04 313.477L1650 304.211Z" fill="#CAD1F4"/>
<path d="M1742 304.211L1743.96 313.477L1752 314.737L1743.96 315.998L1742 325.264L1740.04 315.998L1732 314.737L1740.04 313.477L1742 304.211Z" fill="#CAD1F4"/>
<path d="M1834 304.211L1835.96 313.477L1844 314.737L1835.96 315.998L1834 325.264L1832.04 315.998L1824 314.737L1832.04 313.477L1834 304.211Z" fill="#CAD1F4"/>
<path d="M1926 304.211L1927.96 313.477L1936 314.737L1927.96 315.998L1926 325.264L1924.04 315.998L1916 314.737L1924.04 313.477L1926 304.211Z" fill="#CAD1F4"/>
</svg>
