<svg xmlns="http://www.w3.org/2000/svg" width="24" height="23" fill="none"><mask id="a" width="24" height="23" x="0" y="0" maskUnits="userSpaceOnUse" style="mask-type:alpha"><path fill="#D9D9D9" d="M0 0h24v22.551H0z"/></mask><g mask="url(#a)"><path fill="#F9F9F9" d="M2 21.612v-1.879h1c.533 0 1.05-.078 1.55-.235.5-.157.983-.391 1.45-.705.467.314.95.545 1.45.693a5.537 5.537 0 0 0 3.112 0c.509-.148.988-.38 1.438-.693.467.314.95.545 1.45.693a5.537 5.537 0 0 0 3.113 0c.508-.148.987-.38 1.437-.693.45.314.93.549 1.438.705.508.157 1.029.235 1.562.235h1v1.88h-1a6.65 6.65 0 0 1-1.525-.177A7.06 7.06 0 0 1 18 20.907a7.06 7.06 0 0 1-1.475.53 6.65 6.65 0 0 1-3.05 0 7.06 7.06 0 0 1-1.475-.53 7.06 7.06 0 0 1-1.475.53 6.65 6.65 0 0 1-3.05 0A7.061 7.061 0 0 1 6 20.906a7.061 7.061 0 0 1-1.475.53A6.65 6.65 0 0 1 3 21.611H2ZM8.5 3.76l5.55.964c.233.03.458.117.675.258.217.14.4.337.55.587l.875 1.457c.433.704 1.033 1.276 1.8 1.714a5.045 5.045 0 0 0 2.55.658v1.88c-1.3 0-2.483-.306-3.55-.917-1.067-.61-1.908-1.41-2.525-2.396a5.58 5.58 0 0 1-.35.223c-.217.134-.454.282-.712.447-.259.164-.505.32-.738.47-.233.148-.383.246-.45.293l.688.517c.375.282.783.583 1.225.904A556.076 556.076 0 0 1 16 12.216v3.618c.267.172.525.352.775.54.25.188.492.368.725.54-.35.282-.733.51-1.15.681a3.5 3.5 0 0 1-1.35.259c-.6 0-1.158-.133-1.675-.4A4.594 4.594 0 0 1 12 16.444a4.594 4.594 0 0 1-1.325 1.01 3.603 3.603 0 0 1-2.163.364 3.022 3.022 0 0 1-.462-.105c-1.433-.924-2.633-1.856-3.6-2.796-.967-.94-1.45-1.753-1.45-2.443 0-.485.2-.806.6-.963.4-.156.817-.235 1.25-.235.483 0 1.042.067 1.675.2s1.308.325 2.025.576l-.525-2.913a1.44 1.44 0 0 1 .112-.928c.142-.305.363-.552.663-.74l2.15-1.362c-.05 0-.17-.02-.362-.06-.192-.038-.405-.078-.638-.117-.233-.039-.446-.078-.637-.117a2.565 2.565 0 0 0-.363-.059L6.125 7.565 5 6.015l3.5-2.256Zm1.8 6.672.45 2.49c.45.203 1.008.474 1.675.81a36.2 36.2 0 0 1 1.575.834v-1.41c-.05-.03-.258-.183-.625-.457a93.46 93.46 0 0 0-1.2-.881c-.433-.313-.838-.611-1.213-.893a45.676 45.676 0 0 0-.662-.493ZM17 5.169a1.99 1.99 0 0 1-1.412-.552C15.196 4.249 15 3.807 15 3.29c0-.517.196-.96.588-1.328A1.99 1.99 0 0 1 17 1.41c.55 0 1.02.184 1.413.552.391.368.587.81.587 1.328 0 .516-.196.959-.587 1.327A1.99 1.99 0 0 1 17 5.169Z"/></g></svg>