<svg width="29" height="23" viewBox="0 0 29 23" fill="none" xmlns="http://www.w3.org/2000/svg">
<path d="M8.89692 23C19.5729 23 25.4112 14.1521 25.4112 6.47956C25.4112 6.22829 25.4061 5.97816 25.3948 5.72907C26.5308 4.90677 27.5112 3.88864 28.29 2.7224C27.25 3.18493 26.1309 3.49623 24.9568 3.63659C26.1552 2.91778 27.0751 1.7806 27.5092 0.425098C26.3698 1.10124 25.1234 1.57788 23.8236 1.83448C22.7644 0.70587 21.2565 0 19.5869 0C16.3816 0 13.7823 2.60026 13.7823 5.80549C13.7823 6.26117 13.8333 6.70427 13.9329 7.12943C9.10898 6.8866 4.83144 4.57614 1.96868 1.06295C1.45308 1.94904 1.18187 2.95611 1.18277 3.9813C1.18277 5.99576 2.20742 7.77406 3.76567 8.81446C2.84395 8.7863 1.94246 8.53725 1.137 8.08824C1.13614 8.11262 1.13614 8.13636 1.13614 8.16241C1.13614 10.9743 3.1368 13.3221 5.79261 13.8541C5.29381 13.99 4.77911 14.0587 4.26213 14.0584C3.88878 14.0584 3.52492 14.0217 3.1713 13.9538C3.91023 16.2608 6.05291 17.9396 8.59332 17.9865C6.60675 19.5441 4.10429 20.4719 1.38448 20.4719C0.921811 20.4723 0.459515 20.4454 0 20.3915C2.56875 22.0385 5.6189 22.9996 8.8972 22.9996" fill="#1D9BF0"/>
</svg>
