<svg width="85" height="51" viewBox="0 0 85 51" fill="none" xmlns="http://www.w3.org/2000/svg">
<path d="M39.1611 0.19751C32.1898 0.19751 25.6384 2.96923 20.8509 7.46279C19.465 3.26321 15.5594 0.19751 10.8979 0.19751C5.10246 0.19751 0.398926 4.90104 0.398926 10.6965C0.398926 16.4919 5.10246 21.1954 10.8979 21.1954C11.7798 21.1954 12.6197 21.0694 13.4596 20.8595C13.2497 21.9094 13.0817 23.0012 13.0397 24.1351C12.2837 39.5896 25.4284 52.1884 41.0929 50.4665C51.8018 49.2906 60.7469 40.9755 62.8887 30.4345C63.5187 27.4528 63.5187 24.5551 63.1407 21.7834C62.7627 19.2636 64.7365 17.0378 67.2983 17.0378H84.3906V0.19751H39.1611ZM10.8979 12.7963C9.722 12.7963 8.79809 11.8724 8.79809 10.6965C8.79809 9.52059 9.722 8.59668 10.8979 8.59668C12.0738 8.59668 12.9977 9.52059 12.9977 10.6965C12.9977 11.8724 12.0738 12.7963 10.8979 12.7963ZM38.1952 37.9938C31.2239 37.9938 25.5964 32.3663 25.5964 25.395C25.5964 18.4237 31.2239 12.7963 38.1952 12.7963C45.1665 12.7963 50.7939 18.4237 50.7939 25.395C50.7939 32.3663 45.1665 37.9938 38.1952 37.9938Z" fill="white"/>
<path d="M38.1951 33.7942C42.8338 33.7942 46.5942 30.0337 46.5942 25.395C46.5942 20.7563 42.8338 16.9958 38.1951 16.9958C33.5563 16.9958 29.7959 20.7563 29.7959 25.395C29.7959 30.0337 33.5563 33.7942 38.1951 33.7942Z" fill="white"/>
</svg>
