<svg width="1590" height="1403" viewBox="0 0 1590 1403" fill="none" xmlns="http://www.w3.org/2000/svg">
<path d="M724.898 218.244L758.387 191.587L731.629 349.007L630.879 429.201C607.494 447.814 582.461 464.94 555.988 480.435L481.503 524.032C425.942 556.553 361.66 577.365 294.12 584.699L223.776 592.338C205.742 594.296 187.374 592.773 170.093 587.888L159.853 584.993C111.592 571.348 81.553 531.128 88.3334 489.234C93.4285 457.753 118.552 431.144 154.054 419.627L190.263 407.881C198.111 405.335 206.177 403.275 214.396 401.716L377.382 370.8C420.612 362.6 462.69 350.748 502.964 335.427L546.773 318.762C612.513 293.754 672.71 259.784 724.898 218.244Z" fill="#3D3AA9"/>
<path d="M900.298 267.415L848.356 253.185L834.085 345.287L1127.71 425.73L1261.37 444.167C1316.38 451.754 1371.59 446.966 1423.16 430.136L1487.92 409C1500.37 404.936 1511.56 397.876 1520.59 388.377C1551.46 355.919 1550.89 302.643 1519.29 266.912L1518.21 265.696C1498.74 243.681 1470.79 231.986 1443.02 234.241L1388.45 238.673L1235.53 273.169C1200.39 281.097 1164.41 285.603 1128.05 286.63L1071.42 288.228C1014.22 289.844 956.572 282.833 900.298 267.415Z" fill="#3D3AA9"/>
<path d="M743.219 626.321L715.295 563.86L918.896 569.569L918.896 623.998C918.896 637.455 923.261 650.549 931.335 661.315C939.906 672.743 952.149 680.872 966.007 684.336L972.968 686.076C989.181 690.13 1006.24 689.158 1021.89 683.29L1066.36 666.612C1116.62 644.207 1174.04 644.207 1224.3 666.612L1297.56 702.766L1392.7 742.725C1351.81 720.708 1315.25 691.455 1284.81 656.387L1255.69 622.847L1177.68 520.096L1129.97 447.434C1120.82 433.495 1107.21 423.069 1091.37 417.856L1071.75 411.395C1053.21 405.293 1040.68 387.98 1040.68 368.462C1040.68 364.909 1040.26 361.368 1039.43 357.913L1030.11 319.092C1025.74 300.894 1022.72 282.4 1021.06 263.759L1015.68 203.452C1015.22 198.294 1013.96 193.239 1011.93 188.472L992.002 141.58C987.564 131.138 995.227 119.554 1006.57 119.554C1011.83 119.554 1016.75 122.168 1019.7 126.529L1052.48 175.095C1061.65 188.679 1068.08 203.92 1071.42 219.966L1076.23 243.118C1082.91 275.221 1095.93 305.668 1114.53 332.67L1120.48 341.307C1136.96 365.23 1156.85 386.617 1179.51 404.789L1255.69 465.866L1483.63 677.712C1493.38 686.77 1502 696.964 1509.32 708.076L1531.77 742.15C1544.34 761.23 1547.92 784.858 1541.57 806.805C1534.7 830.535 1517 849.613 1493.86 858.245L1457.46 871.816C1431.86 881.361 1404.2 883.984 1377.27 879.422L1257.83 859.19C1248.82 857.663 1239.99 855.191 1231.5 851.815L1129.74 811.374C1111.69 804.198 1091.41 814.353 1086.34 833.108L1061 970.958C1036.49 1104.27 1048.54 1241.73 1095.86 1368.75L510.743 1393.49L521.379 1340.66C552.801 1184.58 560.592 1024.66 544.493 866.271C542.102 842.745 515.776 829.974 495.819 842.659L427.02 886.387L409.26 895.455C334.18 933.794 247.818 943.861 165.933 923.819C160.738 922.548 157.318 917.587 157.978 912.279L165.466 852.094C176.005 767.376 208.804 686.963 260.524 619.042L427.02 425.906L468.856 368.381C496.662 330.148 519.366 288.453 536.393 244.35L566.935 165.242C568.156 162.078 569.888 159.137 572.063 156.535L609.512 111.718C615.379 104.697 626.815 108.846 626.815 117.996C626.815 119.028 626.652 120.054 626.331 121.035L611.592 166.173L604.079 193.852C597.12 219.49 595.832 246.337 600.303 272.524L601.723 280.841C605.093 300.585 604.282 320.816 599.341 340.226L599.179 340.863C595.429 355.597 589.288 369.617 581.002 382.365C572.906 394.821 562.866 405.9 551.265 415.181L536.12 427.297C504.422 452.655 479.117 485.098 462.241 522.016L427.02 599.062L346.266 738.196C331.474 763.682 312.928 786.732 291.293 806.59C333.434 772.038 377.752 740.217 423.979 711.326L427.02 709.425C466.645 681.564 513.904 666.612 562.344 666.612L580.244 666.612C597.886 666.612 615.443 669.059 632.413 673.882L677.558 686.712C690.28 690.328 703.857 689.479 716.03 684.305L721.329 682.053C730.341 678.223 737.73 671.361 742.214 662.656C748.051 651.325 748.421 637.956 743.219 626.321Z" fill="#3D3AA9"/>
<path d="M939.782 563.577L882.826 597.702C878.284 600.424 872.958 601.539 867.705 600.867L810.466 593.55C789.527 590.874 768.958 585.839 749.15 578.542L702.95 561.523C667.276 548.381 637.782 522.414 620.228 488.693C613.847 476.434 609.158 463.365 606.289 449.846L601.125 425.501C596.707 404.678 595.102 383.357 596.352 362.108L596.865 353.394C598.329 328.517 604.587 304.158 615.296 281.657L615.968 280.243C627.63 255.74 644.505 234.08 665.413 216.779C688.496 197.677 715.847 184.425 745.145 178.148L765.121 173.868L805.607 168.47C824.653 165.931 843.952 165.952 862.992 168.534L877.692 170.526C926.064 177.084 969.709 202.973 998.656 242.277L1002.47 247.461C1012.14 260.593 1019.5 275.283 1024.21 290.895C1028.26 304.302 1030.32 318.232 1030.32 332.239L1030.32 366.456L1035 402.707C1037.98 425.804 1034.96 449.279 1026.23 470.87C1019.79 486.8 1010.39 501.36 998.508 513.776L986.679 526.141C972.79 540.659 957.017 553.25 939.782 563.577Z" fill="#3D3AA9"/>
<path d="M675.665 306.657L513.825 353.764C512.182 354.242 510.859 352.379 511.851 350.985L583.911 249.753L613.18 155.908C615.818 147.45 621.48 140.26 629.084 135.712L650.172 123.101C751.701 62.3829 878.47 62.735 979.66 124.016C985.147 127.339 989.508 132.238 992.172 138.073L1028.27 217.128L1121.21 302.857C1122.5 304.045 1121.51 306.188 1119.77 305.974L964.575 286.93L941.228 283.729C858.123 272.332 773.552 278.445 692.95 301.675L675.665 306.657Z" fill="#3D3AA9"/>
<path d="M664.66 699.281L650.897 671.029C650.71 670.645 650.351 670.373 649.93 670.298L616.355 664.285C596.727 660.769 576.826 659.001 556.886 659.001L546.277 659.001C533.395 659.001 520.539 660.143 507.859 662.414C478.384 667.693 450.314 678.99 425.399 695.6L397.525 714.183L344.325 760.045C343.067 761.129 342.344 762.708 342.344 764.369L342.344 781.732L342.344 829.303L342.344 843.023C342.344 874.273 337.402 905.326 327.702 935.032C327.47 935.744 328.168 936.407 328.868 936.138L441.896 892.528C445.925 890.974 449.813 889.08 453.521 886.868L489.689 865.283C499.729 859.292 512.597 861.19 520.479 869.823C524.62 874.358 526.916 880.278 526.916 886.419L526.916 991.042L506.937 1227.94L482.2 1403L1149.14 1381.12L1131.51 1325.65C1109.08 1255.01 1094.35 1182.15 1087.59 1108.35L1076.71 989.517C1074.9 969.707 1075.96 949.738 1079.86 930.231L1095.56 851.719C1096.96 844.713 1101.25 838.624 1107.38 834.948C1113.38 831.346 1120.61 830.387 1127.34 832.298L1250.94 867.359L1341.47 889.758C1342.21 889.942 1342.85 889.216 1342.58 888.501L1328.94 852.578C1319.58 827.922 1316.39 801.349 1319.66 775.179C1320.78 766.244 1322.64 757.418 1325.23 748.793L1335.2 715.54C1335.44 714.751 1335.09 713.904 1334.36 713.518L1274.72 681.835L1241.17 666.071C1211.26 652.017 1178.62 644.73 1145.57 644.73C1114.05 644.73 1082.88 651.36 1054.09 664.189L1002.18 687.315C1001.84 687.464 1001.56 687.704 1001.35 688.007L969.494 734.893C957.421 752.661 942.314 768.164 924.864 780.692L915.204 787.627C890.384 805.447 860.599 815.032 830.045 815.032C798.772 815.032 768.325 804.991 743.187 786.389L727.3 774.633C700.662 754.921 679.174 729.072 664.66 699.281Z" fill="#3D3AA9"/>
<mask id="mask0_685_1130" style="mask-type:alpha" maskUnits="userSpaceOnUse" x="75" y="53" width="1458" height="1326">
<path d="M712.691 193.831L746.18 167.174L719.422 324.594L618.672 404.788C595.287 423.401 570.254 440.526 543.781 456.022L469.296 499.619C413.735 532.14 349.453 552.952 281.913 560.286L211.569 567.924C193.535 569.883 175.167 568.36 157.886 563.474L147.646 560.579C99.3854 546.935 69.3459 506.715 76.1264 464.821C81.2215 433.34 106.345 406.73 141.847 395.214L178.056 383.468C185.904 380.922 193.97 378.861 202.189 377.302L365.175 346.387C408.405 338.187 450.483 326.335 490.757 311.014L534.566 294.349C600.306 269.34 660.503 235.371 712.691 193.831Z" fill="#8983CF"/>
<path d="M888.091 243.002L836.149 228.772L821.878 320.873L1115.5 401.317L1249.17 419.754C1304.17 427.341 1359.38 422.553 1410.95 405.723L1475.71 384.587C1488.17 380.523 1499.35 373.462 1508.39 363.964C1539.25 331.506 1538.68 278.23 1507.08 242.499L1506.01 241.282C1486.54 219.268 1458.58 207.572 1430.82 209.827L1376.24 214.26L1223.33 248.756C1188.18 256.684 1152.2 261.19 1115.84 262.216L1059.22 263.815C1002.01 265.43 944.365 258.419 888.091 243.002Z" fill="#8983CF"/>
<g style="mix-blend-mode:soft-light">
<path d="M731.012 601.908L703.088 539.447L906.689 545.155L906.689 599.585C906.689 613.042 911.054 626.136 919.128 636.902C927.699 648.329 939.942 656.458 953.8 659.923L960.761 661.663C976.974 665.716 994.035 664.744 1009.68 658.877L1054.16 642.199C1104.42 619.794 1161.83 619.794 1212.09 642.199L1285.35 678.352L1380.49 718.311C1339.6 696.295 1303.05 667.041 1272.6 631.973L1243.49 598.434L1165.47 495.682L1117.76 423.021C1108.61 409.082 1095.01 398.655 1079.17 393.442L1059.54 386.982C1041 380.88 1028.47 363.567 1028.47 344.048C1028.47 340.495 1028.05 336.955 1027.22 333.5L1017.9 294.679C1013.54 276.481 1010.51 257.987 1008.85 239.346L1003.48 179.039C1003.02 173.88 1001.75 168.825 999.724 164.059L979.794 117.167C975.357 106.724 983.02 95.1406 994.366 95.1406C999.628 95.1406 1004.55 97.7544 1007.49 102.115L1040.27 150.681C1049.44 164.265 1055.87 179.507 1059.21 195.553L1064.02 218.705C1070.7 250.808 1083.72 281.254 1102.32 308.257L1108.27 316.893C1124.75 340.817 1144.64 362.204 1167.31 380.376L1243.49 441.452L1471.42 653.299C1481.17 662.357 1489.8 672.551 1497.12 683.662L1519.56 717.737C1532.13 736.816 1535.72 760.445 1529.36 782.392C1522.49 806.122 1504.8 825.2 1481.65 833.831L1445.25 847.403C1419.66 856.948 1391.99 859.571 1365.06 855.008L1245.63 834.776C1236.61 833.25 1227.79 830.778 1219.29 827.402L1117.54 786.961C1099.48 779.785 1079.21 789.939 1074.14 808.695L1048.79 946.545C1024.29 1079.86 1036.33 1217.32 1083.65 1344.34L498.536 1369.07L509.172 1316.24C540.594 1160.17 548.385 1000.25 532.286 841.858C529.895 818.332 503.569 805.561 483.612 818.245L414.812 861.974L397.053 871.042C321.973 909.381 235.611 919.448 153.726 899.406C148.531 898.134 145.111 893.173 145.771 887.866L153.259 827.681C163.798 742.963 196.597 662.55 248.317 594.629L414.812 401.493L456.649 343.968C484.455 305.734 507.159 264.04 524.186 219.937L554.728 140.828C555.949 137.665 557.681 134.723 559.856 132.121L597.305 87.305C603.172 80.2835 614.608 84.4325 614.608 93.5826C614.608 94.6148 614.444 95.6404 614.124 96.6215L599.385 141.759L591.872 169.438C584.913 195.077 583.625 221.923 588.096 248.11L589.516 256.428C592.886 276.171 592.075 296.403 587.134 315.813L586.972 316.45C583.222 331.184 577.081 345.204 568.795 357.951C560.699 370.408 550.659 381.487 539.058 390.768L523.913 402.884C492.215 428.242 466.91 460.685 450.034 497.603L414.812 574.649L334.059 713.783C319.267 739.269 300.72 762.319 279.086 782.177C321.227 747.625 365.545 715.804 411.772 686.912L414.812 685.012C454.438 657.15 501.697 642.199 550.137 642.199L568.037 642.199C585.679 642.199 603.236 644.645 620.206 649.468L665.351 662.299C678.073 665.915 691.65 665.065 703.823 659.892L709.122 657.64C718.134 653.81 725.523 646.947 730.007 638.242C735.844 626.912 736.214 613.543 731.012 601.908Z" fill="#8983CF"/>
</g>
<g style="mix-blend-mode:soft-light">
<path d="M927.571 539.163L870.615 573.289C866.073 576.011 860.747 577.125 855.494 576.454L798.255 569.137C777.316 566.46 756.747 561.425 736.939 554.128L690.739 537.109C655.065 523.968 625.571 498 608.017 464.279C601.636 452.02 596.947 438.952 594.078 425.432L588.914 401.087C584.496 380.265 582.891 358.944 584.141 337.694L584.654 328.98C586.118 304.104 592.376 279.744 603.085 257.243L603.757 255.83C615.419 231.326 632.294 209.666 653.202 192.365C676.285 173.263 703.636 160.012 732.934 153.734L752.91 149.454L793.397 144.057C812.442 141.518 831.741 141.539 850.781 144.12L865.482 146.113C913.853 152.67 957.498 178.559 986.445 217.864L990.263 223.048C999.934 236.179 1007.29 250.869 1012 266.481C1016.05 279.889 1018.11 293.819 1018.11 307.825L1018.11 342.042L1022.79 378.293C1025.77 401.39 1022.75 424.866 1014.02 446.457C1007.58 462.386 998.174 476.946 986.297 489.362L974.468 501.727C960.579 516.246 944.807 528.837 927.571 539.163Z" fill="#8983CF"/>
</g>
<g style="mix-blend-mode:multiply">
<path d="M663.458 282.244L501.618 329.35C499.975 329.829 498.652 327.965 499.644 326.572L571.704 225.34L600.973 131.495C603.611 123.036 609.273 115.846 616.877 111.299L637.965 98.6875C739.494 37.9695 866.263 38.3216 967.453 99.6026C972.94 102.926 977.301 107.824 979.965 113.66L1016.06 192.715L1109.01 278.444C1110.3 279.632 1109.3 281.774 1107.56 281.561L952.368 262.517L929.021 259.315C845.916 247.919 761.345 254.032 680.743 277.262L663.458 282.244Z" fill="#8983CF"/>
</g>
<path d="M652.453 674.867L638.69 646.615C638.503 646.231 638.143 645.96 637.723 645.885L604.148 639.871C584.52 636.356 564.619 634.587 544.679 634.587L534.07 634.587C521.188 634.587 508.332 635.73 495.652 638.001C466.177 643.28 438.107 654.577 413.192 671.186L385.318 689.769L332.118 735.631C330.86 736.716 330.137 738.294 330.137 739.955L330.137 757.319L330.137 804.889L330.137 818.61C330.137 849.859 325.195 880.912 315.495 910.618C315.263 911.331 315.961 911.994 316.661 911.724L429.689 868.115C433.718 866.56 437.606 864.667 441.314 862.454L477.482 840.87C487.521 834.879 500.39 836.776 508.272 845.41C512.413 849.945 514.709 855.864 514.709 862.006L514.709 966.628L494.73 1203.53L469.993 1378.59L1136.93 1356.7L1119.31 1301.23C1096.87 1230.59 1082.14 1157.74 1075.38 1083.93L1064.5 965.104C1062.69 945.293 1063.75 925.324 1067.65 905.817L1083.35 827.305C1084.75 820.3 1089.05 814.21 1095.17 810.535C1101.18 806.932 1108.4 805.973 1115.14 807.884L1238.73 842.945L1329.26 865.344C1330 865.528 1330.64 864.802 1330.37 864.087L1316.73 828.165C1307.37 803.509 1304.18 776.936 1307.45 750.766C1308.57 741.83 1310.43 733.004 1313.02 724.379L1323 691.127C1323.23 690.337 1322.88 689.491 1322.15 689.104L1262.51 657.421L1228.97 641.657C1199.05 627.603 1166.41 620.316 1133.37 620.316C1101.84 620.316 1070.67 626.946 1041.88 639.775L989.972 662.902C989.638 663.051 989.352 663.29 989.146 663.593L957.287 710.479C945.214 728.247 930.107 743.75 912.657 756.278L902.997 763.214C878.177 781.033 848.392 790.618 817.838 790.618C786.565 790.618 756.118 780.578 730.98 761.975L715.093 750.219C688.455 730.507 666.967 704.658 652.453 674.867Z" fill="#8983CF"/>
</mask>
<g mask="url(#mask0_685_1130)">
<path d="M712.691 193.831L746.18 167.174L719.422 324.594L618.672 404.788C595.287 423.401 570.254 440.526 543.781 456.022L469.296 499.619C413.735 532.14 349.453 552.952 281.913 560.286L211.569 567.924C193.535 569.883 175.167 568.36 157.886 563.474L147.646 560.579C99.3854 546.935 69.3459 506.715 76.1264 464.821C81.2215 433.34 106.345 406.73 141.847 395.214L178.056 383.468C185.904 380.922 193.97 378.861 202.189 377.302L365.175 346.387C408.405 338.187 450.483 326.335 490.757 311.014L534.566 294.349C600.306 269.34 660.503 235.371 712.691 193.831Z" fill="white" stroke="#F4EBF0" stroke-width="1.20291"/>
<path d="M712.691 193.831L746.18 167.174L719.422 324.594L618.672 404.788C595.287 423.401 570.254 440.526 543.781 456.022L469.296 499.619C413.735 532.14 349.453 552.952 281.913 560.286L211.569 567.924C193.535 569.883 175.167 568.36 157.886 563.474L147.646 560.579C99.3854 546.935 69.3459 506.715 76.1264 464.821C81.2215 433.34 106.345 406.73 141.847 395.214L178.056 383.468C185.904 380.922 193.97 378.861 202.189 377.302L365.175 346.387C408.405 338.187 450.483 326.335 490.757 311.014L534.566 294.349C600.306 269.34 660.503 235.371 712.691 193.831Z" fill="url(#paint0_linear_685_1130)" stroke="#F4EBF0" stroke-width="1.20291"/>
<path d="M712.691 193.831L746.18 167.174L719.422 324.594L618.672 404.788C595.287 423.401 570.254 440.526 543.781 456.022L469.296 499.619C413.735 532.14 349.453 552.952 281.913 560.286L211.569 567.924C193.535 569.883 175.167 568.36 157.886 563.474L147.646 560.579C99.3854 546.935 69.3459 506.715 76.1264 464.821C81.2215 433.34 106.345 406.73 141.847 395.214L178.056 383.468C185.904 380.922 193.97 378.861 202.189 377.302L365.175 346.387C408.405 338.187 450.483 326.335 490.757 311.014L534.566 294.349C600.306 269.34 660.503 235.371 712.691 193.831Z" fill="url(#paint1_linear_685_1130)" stroke="#F4EBF0" stroke-width="1.20291"/>
<path d="M653.406 264.922L765.744 175.503L705.81 310.496L572.815 410.246L447.218 483.756C398.998 511.979 343.63 530.682 285.277 538.461L229.553 545.889C225.733 546.398 221.835 546.4 218.005 545.895L193.538 542.668C168.411 539.353 161.454 511.889 182.908 500.7C226.071 480.678 273.112 465.575 321.372 456.423C430.281 435.771 528.13 386.636 600.638 316.189L653.406 264.922Z" fill="#FFF7FD" stroke="#F4EBF0" stroke-width="1.92565"/>
<path d="M653.406 264.922L765.744 175.503L705.81 310.496L572.815 410.246L447.218 483.756C398.998 511.979 343.63 530.682 285.277 538.461L229.553 545.889C225.733 546.398 221.835 546.4 218.005 545.895L193.538 542.668C168.411 539.353 161.454 511.889 182.908 500.7C226.071 480.678 273.112 465.575 321.372 456.423C430.281 435.771 528.13 386.636 600.638 316.189L653.406 264.922Z" fill="url(#paint2_linear_685_1130)" stroke="#F4EBF0" stroke-width="1.20291"/>
<path d="M888.091 243.002L836.149 228.772L821.878 320.874L1115.5 401.317L1249.17 419.754C1304.17 427.341 1359.38 422.553 1410.95 405.723L1475.71 384.587C1488.17 380.523 1499.35 373.463 1508.39 363.964C1539.25 331.506 1538.68 278.23 1507.08 242.499L1506.01 241.282C1486.54 219.268 1458.58 207.573 1430.82 209.828L1376.24 214.26L1223.33 248.756C1188.18 256.684 1152.2 261.19 1115.84 262.216L1059.22 263.815C1002.01 265.431 944.365 258.419 888.091 243.002Z" fill="white" stroke="#F4EBF0" stroke-width="1.20291"/>
<path d="M888.091 243.002L836.149 228.772L821.878 320.873L1115.5 401.317L1249.17 419.754C1304.17 427.341 1359.38 422.553 1410.95 405.723L1475.71 384.587C1488.17 380.523 1499.35 373.462 1508.39 363.964C1539.25 331.506 1538.68 278.23 1507.08 242.499L1506.01 241.282C1486.54 219.268 1458.58 207.572 1430.82 209.827L1376.24 214.26L1223.33 248.756C1188.18 256.684 1152.2 261.19 1115.84 262.216L1059.22 263.815C1002.01 265.43 944.365 258.419 888.091 243.002Z" fill="url(#paint3_linear_685_1130)" stroke="#F4EBF0" stroke-width="1.20291"/>
<path d="M888.091 243.002L836.149 228.772L821.878 320.874L1115.5 401.317L1249.17 419.754C1304.17 427.341 1359.38 422.553 1410.95 405.723L1475.71 384.587C1488.17 380.523 1499.35 373.463 1508.39 363.964C1539.25 331.506 1538.68 278.23 1507.08 242.499L1506.01 241.282C1486.54 219.268 1458.58 207.573 1430.82 209.828L1376.24 214.26L1223.33 248.756C1188.18 256.684 1152.2 261.19 1115.84 262.216L1059.22 263.815C1002.01 265.431 944.365 258.419 888.091 243.002Z" fill="url(#paint4_linear_685_1130)" stroke="#F4EBF0" stroke-width="1.20291"/>
<path d="M881.487 270.036L827.144 240.251L881.147 321.993L1110.62 375.034L1258.03 395.41C1304.07 401.775 1350.31 398.463 1393.93 385.676L1445.84 370.455C1449.43 369.402 1452.78 367.688 1455.72 365.393L1466.34 357.096C1484.02 343.292 1475.94 313.327 1453.28 308.684C1451.94 308.409 1450.59 308.241 1449.24 308.18L1426 307.139C1398.3 305.899 1370.77 308.303 1344.09 314.295L1277.25 329.305C1211.96 343.966 1143.93 346.291 1076.37 336.17C1008.82 326.052 942.824 303.655 881.487 270.036Z" fill="url(#paint5_linear_685_1130)" stroke="#F4EBF0" stroke-width="1.20291"/>
<path d="M731.012 601.908L703.088 539.447L906.689 545.155L906.689 599.585C906.689 613.042 911.054 626.136 919.128 636.902C927.699 648.329 939.942 656.458 953.8 659.923L960.761 661.663C976.974 665.716 994.035 664.745 1009.68 658.877L1054.16 642.199C1104.42 619.794 1161.83 619.794 1212.09 642.199L1285.35 678.352L1380.49 718.311C1339.6 696.295 1303.05 667.042 1272.6 631.973L1243.49 598.434L1165.47 495.682L1118.89 424.729C1109.15 409.906 1093.71 399.778 1076.24 396.756L1046.78 391.661C1026.8 388.206 1013.76 368.766 1018.14 348.972C1019.3 343.708 1019.25 338.248 1017.99 333.005L1008.59 293.816C1004.73 277.739 1002.78 261.264 1002.78 244.73L1002.78 181.074C1002.78 174.593 1001.47 168.179 998.94 162.215L979.794 117.167C975.357 106.724 983.02 95.1406 994.366 95.1406C999.628 95.1406 1004.55 97.7544 1007.49 102.115L1040.27 150.681C1049.44 164.265 1055.87 179.507 1059.21 195.553L1064.02 218.705C1070.7 250.808 1083.72 281.254 1102.32 308.257L1108.27 316.893C1124.75 340.817 1144.64 362.204 1167.31 380.376L1243.49 441.452L1471.42 653.299C1481.17 662.357 1489.8 672.551 1497.12 683.662L1519.56 717.737C1532.13 736.816 1535.72 760.445 1529.36 782.392C1522.49 806.122 1504.8 825.2 1481.65 833.831L1445.25 847.403C1419.66 856.948 1391.99 859.571 1365.06 855.008L1245.63 834.776C1236.61 833.25 1227.79 830.778 1219.29 827.402L1117.54 786.961C1099.48 779.785 1079.21 789.939 1074.14 808.695L1048.79 946.545C1024.29 1079.86 1036.33 1217.32 1083.65 1344.34L498.536 1369.07L509.172 1316.24C540.594 1160.16 548.385 1000.25 532.286 841.858C529.895 818.332 503.569 805.561 483.612 818.245L414.812 861.974L397.053 871.042C321.973 909.381 235.611 919.448 153.726 899.406C148.531 898.134 145.111 893.174 145.771 887.866L153.259 827.681C163.798 742.963 196.597 662.55 248.317 594.629L414.812 401.493L456.649 343.968C484.455 305.734 507.159 264.039 524.186 219.937L554.728 140.828C555.949 137.665 557.681 134.723 559.856 132.121L597.305 87.305C603.172 80.2835 614.608 84.4325 614.608 93.5826C614.608 94.6148 614.444 95.6404 614.124 96.6215L599.385 141.759L591.872 169.438C584.913 195.077 583.625 221.923 588.096 248.11L590.196 260.414C593.118 277.529 592.415 295.068 588.132 311.894L582.952 332.243C581.87 336.496 581.737 340.935 582.564 345.245C584.785 356.824 579.99 368.628 570.323 375.378L508.414 418.609C486.997 433.565 469.975 453.981 459.114 477.739L414.812 574.649L334.059 713.783C319.267 739.269 300.72 762.319 279.086 782.177C321.226 747.625 365.545 715.804 411.772 686.912L414.812 685.012C454.438 657.151 501.697 642.199 550.137 642.199L568.037 642.199C585.679 642.199 603.236 644.645 620.206 649.468L665.351 662.299C678.073 665.915 691.65 665.065 703.823 659.892L709.122 657.64C718.134 653.81 725.523 646.947 730.007 638.242C735.844 626.912 736.214 613.543 731.012 601.908Z" fill="white"/>
<path d="M703.088 539.447L731.012 601.908C736.214 613.543 735.844 626.912 730.007 638.242V638.242C725.523 646.947 718.134 653.81 709.122 657.64L703.823 659.892C691.65 665.065 678.073 665.915 665.351 662.299L620.206 649.468C603.236 644.645 585.679 642.199 568.037 642.199L550.137 642.199C501.697 642.199 454.438 657.15 414.812 685.012V685.012L411.772 686.912C358.058 720.484 306.92 758.01 258.782 799.181V799.181V799.181C289.245 775.941 314.825 746.921 334.059 713.783L414.812 574.649L459.114 477.739C469.975 453.981 486.997 433.565 508.414 418.609L570.323 375.378C579.99 368.628 584.785 356.824 582.564 345.245V345.245C581.737 340.935 581.87 336.496 582.952 332.243L588.132 311.894C592.415 295.068 593.118 277.529 590.196 260.414L588.096 248.11C583.625 221.923 584.913 195.077 591.872 169.438L599.385 141.759L614.124 96.6215C614.444 95.6404 614.608 94.6148 614.608 93.5826V93.5826C614.608 84.4325 603.172 80.2835 597.305 87.305L559.856 132.121C557.681 134.723 555.949 137.665 554.728 140.828L524.186 219.937C507.159 264.039 484.455 305.734 456.649 343.968L414.812 401.493L248.317 594.629V594.629C196.597 662.55 163.798 742.963 153.259 827.681L145.771 887.866C145.111 893.173 148.531 898.134 153.726 899.406V899.406C235.611 919.448 321.973 909.381 397.053 871.042L414.812 861.974L483.612 818.245C503.569 805.561 529.895 818.332 532.286 841.858V841.858C548.385 1000.25 540.594 1160.16 509.172 1316.24L498.536 1369.07L1083.65 1344.34V1344.34C1036.33 1217.32 1024.29 1079.86 1048.79 946.545L1074.14 808.695V808.695C1079.21 789.939 1099.48 779.785 1117.54 786.961L1219.29 827.402C1227.79 830.778 1236.61 833.25 1245.63 834.776L1365.06 855.008C1391.99 859.571 1419.66 856.948 1445.25 847.403L1481.65 833.831C1504.8 825.2 1522.49 806.122 1529.36 782.392V782.392C1535.72 760.445 1532.13 736.816 1519.56 717.737L1497.12 683.662C1489.8 672.551 1481.17 662.357 1471.42 653.299L1243.49 441.452L1167.31 380.376C1144.64 362.204 1124.75 340.817 1108.27 316.893L1102.32 308.257C1083.72 281.254 1070.7 250.808 1064.02 218.705L1059.21 195.553C1055.87 179.507 1049.44 164.265 1040.27 150.681L1007.49 102.115C1004.55 97.7544 999.628 95.1406 994.366 95.1406V95.1406C983.02 95.1406 975.357 106.724 979.795 117.167L998.94 162.215C1001.47 168.179 1002.78 174.593 1002.78 181.074L1002.78 244.73C1002.78 261.264 1004.73 277.739 1008.59 293.816L1017.99 333.005C1019.25 338.248 1019.3 343.708 1018.14 348.972V348.972C1013.76 368.766 1026.8 388.206 1046.78 391.661L1076.24 396.756C1093.71 399.778 1109.15 409.906 1118.89 424.729L1165.47 495.682L1243.49 598.434L1272.6 631.973C1303.05 667.041 1339.6 696.295 1380.49 718.311V718.311L1285.35 678.352L1212.09 642.199V642.199C1161.83 619.794 1104.42 619.794 1054.16 642.199V642.199L1009.68 658.877C994.035 664.744 976.974 665.716 960.761 661.663L953.8 659.923C939.942 656.458 927.699 648.329 919.128 636.902V636.902C911.054 626.136 906.689 613.042 906.689 599.585L906.689 545.155L703.088 539.447Z" stroke="#F4EBF0" stroke-width="1.92565"/>
<path d="M731.012 601.908L703.088 539.447L906.689 545.155L906.689 599.585C906.689 613.042 911.054 626.136 919.128 636.902C927.699 648.329 939.942 656.458 953.8 659.923L960.761 661.663C976.974 665.716 994.035 664.745 1009.68 658.877L1054.16 642.199C1104.42 619.794 1161.83 619.794 1212.09 642.199L1285.35 678.352L1380.49 718.311C1339.6 696.295 1303.05 667.042 1272.6 631.973L1243.49 598.434L1165.47 495.682L1118.89 424.729C1109.15 409.906 1093.71 399.778 1076.24 396.756L1046.78 391.661C1026.8 388.206 1013.76 368.766 1018.14 348.972C1019.3 343.708 1019.25 338.248 1017.99 333.005L1008.59 293.816C1004.73 277.739 1002.78 261.264 1002.78 244.73L1002.78 181.074C1002.78 174.593 1001.47 168.179 998.94 162.215L979.794 117.167C975.357 106.724 983.02 95.1406 994.366 95.1406C999.628 95.1406 1004.55 97.7544 1007.49 102.115L1040.27 150.681C1049.44 164.265 1055.87 179.507 1059.21 195.553L1064.02 218.705C1070.7 250.808 1083.72 281.254 1102.32 308.257L1108.27 316.893C1124.75 340.817 1144.64 362.204 1167.31 380.376L1243.49 441.452L1471.42 653.299C1481.17 662.357 1489.8 672.551 1497.12 683.662L1519.56 717.737C1532.13 736.816 1535.72 760.445 1529.36 782.392C1522.49 806.122 1504.8 825.2 1481.65 833.831L1445.25 847.403C1419.66 856.948 1391.99 859.571 1365.06 855.008L1245.63 834.776C1236.61 833.25 1227.79 830.778 1219.29 827.402L1117.54 786.961C1099.48 779.785 1079.21 789.939 1074.14 808.695L1048.79 946.545C1024.29 1079.86 1036.33 1217.32 1083.65 1344.34L498.536 1369.07L509.172 1316.24C540.594 1160.16 548.385 1000.25 532.286 841.858C529.895 818.332 503.569 805.561 483.612 818.245L414.812 861.974L397.053 871.042C321.973 909.381 235.611 919.448 153.726 899.406C148.531 898.134 145.111 893.174 145.771 887.866L153.259 827.681C163.798 742.963 196.597 662.55 248.317 594.629L414.812 401.493L456.649 343.968C484.455 305.734 507.159 264.039 524.186 219.937L554.728 140.828C555.949 137.665 557.681 134.723 559.856 132.121L597.305 87.305C603.172 80.2835 614.608 84.4325 614.608 93.5826C614.608 94.6148 614.444 95.6404 614.124 96.6215L599.385 141.759L591.872 169.438C584.913 195.077 583.625 221.923 588.096 248.11L590.196 260.414C593.118 277.529 592.415 295.068 588.132 311.894L582.952 332.243C581.87 336.496 581.737 340.935 582.564 345.245C584.785 356.824 579.99 368.628 570.323 375.378L508.414 418.609C486.997 433.565 469.975 453.981 459.114 477.739L414.812 574.649L334.059 713.783C319.267 739.269 300.72 762.319 279.086 782.177C321.226 747.625 365.545 715.804 411.772 686.912L414.812 685.012C454.438 657.151 501.697 642.199 550.137 642.199L568.037 642.199C585.679 642.199 603.236 644.645 620.206 649.468L665.351 662.299C678.073 665.915 691.65 665.065 703.823 659.892L709.122 657.64C718.134 653.81 725.523 646.947 730.007 638.242C735.844 626.912 736.214 613.543 731.012 601.908Z" fill="url(#paint6_linear_685_1130)"/>
<path opacity="0.5" d="M731.012 601.908L703.088 539.447L906.689 545.155L906.689 599.585C906.689 613.042 911.054 626.136 919.128 636.902C927.699 648.329 939.942 656.458 953.8 659.923L960.761 661.663C976.974 665.716 994.035 664.745 1009.68 658.877L1054.16 642.199C1104.42 619.794 1161.83 619.794 1212.09 642.199L1285.35 678.352L1380.49 718.311C1339.6 696.295 1303.05 667.042 1272.6 631.973L1243.49 598.434L1165.47 495.682L1118.89 424.729C1109.15 409.906 1093.71 399.778 1076.24 396.756L1046.78 391.661C1026.8 388.206 1013.76 368.766 1018.14 348.972C1019.3 343.708 1019.25 338.248 1017.99 333.005L1008.59 293.816C1004.73 277.739 1002.78 261.264 1002.78 244.73L1002.78 181.074C1002.78 174.593 1001.47 168.179 998.94 162.215L979.794 117.167C975.357 106.724 983.02 95.1406 994.366 95.1406C999.628 95.1406 1004.55 97.7544 1007.49 102.115L1040.27 150.681C1049.44 164.265 1055.87 179.507 1059.21 195.553L1064.02 218.705C1070.7 250.808 1083.72 281.254 1102.32 308.257L1108.27 316.893C1124.75 340.817 1144.64 362.204 1167.31 380.376L1243.49 441.452L1471.42 653.299C1481.17 662.357 1489.8 672.551 1497.12 683.662L1519.56 717.737C1532.13 736.816 1535.72 760.445 1529.36 782.392C1522.49 806.122 1504.8 825.2 1481.65 833.831L1445.25 847.403C1419.66 856.948 1391.99 859.571 1365.06 855.008L1245.63 834.776C1236.61 833.25 1227.79 830.778 1219.29 827.402L1117.54 786.961C1099.48 779.785 1079.21 789.939 1074.14 808.695L1048.79 946.545C1024.29 1079.86 1036.33 1217.32 1083.65 1344.34L498.536 1369.07L509.172 1316.24C540.594 1160.16 548.385 1000.25 532.286 841.858C529.895 818.332 503.569 805.561 483.612 818.245L414.812 861.974L397.053 871.042C321.973 909.381 235.611 919.448 153.726 899.406C148.531 898.134 145.111 893.174 145.771 887.866L153.259 827.681C163.798 742.963 196.597 662.55 248.317 594.629L414.812 401.493L456.649 343.968C484.455 305.734 507.159 264.039 524.186 219.937L554.728 140.828C555.949 137.665 557.681 134.723 559.856 132.121L597.305 87.305C603.172 80.2835 614.608 84.4325 614.608 93.5826C614.608 94.6148 614.444 95.6404 614.124 96.6215L599.385 141.759L591.872 169.438C584.913 195.077 583.625 221.923 588.096 248.11L590.196 260.414C593.118 277.529 592.415 295.068 588.132 311.894L582.952 332.243C581.87 336.496 581.737 340.935 582.564 345.245C584.785 356.824 579.99 368.628 570.323 375.378L508.414 418.609C486.997 433.565 469.975 453.981 459.114 477.739L414.812 574.649L334.059 713.783C319.267 739.269 300.72 762.319 279.086 782.177C321.226 747.625 365.545 715.804 411.772 686.912L414.812 685.012C454.438 657.151 501.697 642.199 550.137 642.199L568.037 642.199C585.679 642.199 603.236 644.645 620.206 649.468L665.351 662.299C678.073 665.915 691.65 665.065 703.823 659.892L709.122 657.64C718.134 653.81 725.523 646.947 730.007 638.242C735.844 626.912 736.214 613.543 731.012 601.908Z" fill="url(#paint7_linear_685_1130)"/>
<g style="mix-blend-mode:soft-light">
<path d="M731.012 601.908L703.088 539.447L906.689 545.155L906.689 599.585C906.689 613.042 911.054 626.136 919.128 636.902C927.699 648.329 939.942 656.458 953.8 659.923L960.761 661.663C976.974 665.716 994.035 664.745 1009.68 658.877L1054.16 642.199C1104.42 619.794 1161.83 619.794 1212.09 642.199L1285.35 678.352L1380.49 718.311C1339.6 696.295 1303.05 667.042 1272.6 631.973L1243.49 598.434L1165.47 495.682L1118.89 424.729C1109.15 409.906 1093.71 399.778 1076.24 396.756L1046.78 391.661C1026.8 388.206 1013.76 368.766 1018.14 348.972C1019.3 343.708 1019.25 338.248 1017.99 333.005L1008.59 293.816C1004.73 277.739 1002.78 261.264 1002.78 244.73L1002.78 181.074C1002.78 174.593 1001.47 168.179 998.94 162.215L979.794 117.167C975.357 106.724 983.02 95.1406 994.366 95.1406C999.628 95.1406 1004.55 97.7544 1007.49 102.115L1040.27 150.681C1049.44 164.265 1055.87 179.507 1059.21 195.553L1064.02 218.705C1070.7 250.808 1083.72 281.254 1102.32 308.257L1108.27 316.893C1124.75 340.817 1144.64 362.204 1167.31 380.376L1243.49 441.452L1471.42 653.299C1481.17 662.357 1489.8 672.551 1497.12 683.662L1519.56 717.737C1532.13 736.816 1535.72 760.445 1529.36 782.392C1522.49 806.122 1504.8 825.2 1481.65 833.831L1445.25 847.403C1419.66 856.948 1391.99 859.571 1365.06 855.008L1245.63 834.776C1236.61 833.25 1227.79 830.778 1219.29 827.402L1117.54 786.961C1099.48 779.785 1079.21 789.939 1074.14 808.695L1048.79 946.545C1024.29 1079.86 1036.33 1217.32 1083.65 1344.34L498.536 1369.07L509.172 1316.24C540.594 1160.16 548.385 1000.25 532.286 841.858C529.895 818.332 503.569 805.561 483.612 818.245L414.812 861.974L397.053 871.042C321.973 909.381 235.611 919.448 153.726 899.406C148.531 898.134 145.111 893.174 145.771 887.866L153.259 827.681C163.798 742.963 196.597 662.55 248.317 594.629L414.812 401.493L456.649 343.968C484.455 305.734 507.159 264.039 524.186 219.937L554.728 140.828C555.949 137.665 557.681 134.723 559.856 132.121L597.305 87.305C603.172 80.2835 614.608 84.4325 614.608 93.5826C614.608 94.6148 614.444 95.6404 614.124 96.6215L599.385 141.759L591.872 169.438C584.913 195.077 583.625 221.923 588.096 248.11L590.196 260.414C593.118 277.529 592.415 295.068 588.132 311.894L582.952 332.243C581.87 336.496 581.737 340.935 582.564 345.245C584.785 356.824 579.99 368.628 570.323 375.378L508.414 418.609C486.997 433.565 469.975 453.981 459.114 477.739L414.812 574.649L334.059 713.783C319.267 739.269 300.72 762.319 279.086 782.177C321.226 747.625 365.545 715.804 411.772 686.912L414.812 685.012C454.438 657.151 501.697 642.199 550.137 642.199L568.037 642.199C585.679 642.199 603.236 644.645 620.206 649.468L665.351 662.299C678.073 665.915 691.65 665.065 703.823 659.892L709.122 657.64C718.134 653.81 725.523 646.947 730.007 638.242C735.844 626.912 736.214 613.543 731.012 601.908Z" fill="#40B1F0"/>
</g>
<rect x="637.441" y="509.954" width="365.34" height="199.795" fill="url(#paint8_linear_685_1130)"/>
<path d="M927.571 539.163L870.615 573.289C866.073 576.011 860.747 577.125 855.494 576.454L798.255 569.137C777.316 566.46 756.747 561.425 736.939 554.128L690.739 537.109C655.065 523.968 625.571 498 608.017 464.279C601.636 452.02 596.947 438.952 594.078 425.432L588.914 401.087C584.496 380.265 582.891 358.944 584.141 337.694L584.654 328.98C586.118 304.104 592.376 279.744 603.085 257.243L603.757 255.83C615.419 231.326 632.294 209.666 653.202 192.365C676.285 173.263 703.636 160.012 732.934 153.734L752.91 149.454L793.397 144.057C812.442 141.518 831.741 141.539 850.781 144.12L865.482 146.113C913.853 152.67 957.498 178.559 986.445 217.864L990.263 223.048C999.934 236.179 1007.29 250.869 1012 266.481C1016.05 279.889 1018.11 293.819 1018.11 307.825L1018.11 342.042L1022.79 378.293C1025.77 401.39 1022.75 424.866 1014.02 446.457C1007.58 462.386 998.174 476.946 986.297 489.362L974.468 501.727C960.579 516.246 944.807 528.837 927.571 539.163Z" fill="white" stroke="#F4EBF0" stroke-width="1.92565"/>
<path d="M927.571 539.163L870.615 573.289C866.073 576.011 860.747 577.125 855.494 576.454L798.255 569.137C777.316 566.46 756.747 561.425 736.939 554.128L690.739 537.109C655.065 523.968 625.571 498 608.017 464.279C601.636 452.02 596.947 438.952 594.078 425.432L588.914 401.087C584.496 380.265 582.891 358.944 584.141 337.694L584.654 328.98C586.118 304.104 592.376 279.744 603.085 257.243L603.757 255.83C615.419 231.326 632.294 209.666 653.202 192.365C676.285 173.263 703.636 160.012 732.934 153.734L752.91 149.454L793.397 144.057C812.442 141.518 831.741 141.539 850.781 144.12L865.482 146.113C913.853 152.67 957.498 178.559 986.445 217.864L990.263 223.048C999.934 236.179 1007.29 250.869 1012 266.481C1016.05 279.889 1018.11 293.819 1018.11 307.825L1018.11 342.042L1022.79 378.293C1025.77 401.39 1022.75 424.866 1014.02 446.457C1007.58 462.386 998.174 476.946 986.297 489.362L974.468 501.727C960.579 516.246 944.807 528.837 927.571 539.163Z" fill="url(#paint9_linear_685_1130)"/>
<path d="M927.571 539.163L870.615 573.289C866.073 576.011 860.747 577.125 855.494 576.454L798.255 569.137C777.316 566.46 756.747 561.425 736.939 554.128L690.739 537.109C655.065 523.968 625.571 498 608.017 464.279C601.636 452.02 596.947 438.952 594.078 425.432L588.914 401.087C584.496 380.265 582.891 358.944 584.141 337.694L584.654 328.98C586.118 304.104 592.376 279.744 603.085 257.243L603.757 255.83C615.419 231.326 632.294 209.666 653.202 192.365C676.285 173.263 703.636 160.012 732.934 153.734L752.91 149.454L793.397 144.057C812.442 141.518 831.741 141.539 850.781 144.12L865.482 146.113C913.853 152.67 957.498 178.559 986.445 217.864L990.263 223.048C999.934 236.179 1007.29 250.869 1012 266.481C1016.05 279.889 1018.11 293.819 1018.11 307.825L1018.11 342.042L1022.79 378.293C1025.77 401.39 1022.75 424.866 1014.02 446.457C1007.58 462.386 998.174 476.946 986.297 489.362L974.468 501.727C960.579 516.246 944.807 528.837 927.571 539.163Z" fill="url(#paint10_linear_685_1130)"/>
<g style="mix-blend-mode:soft-light">
<path d="M927.571 539.163L870.615 573.289C866.073 576.011 860.747 577.125 855.494 576.454L798.255 569.137C777.316 566.46 756.747 561.425 736.939 554.128L690.739 537.109C655.065 523.968 625.571 498 608.017 464.279C601.636 452.02 596.947 438.952 594.078 425.432L588.914 401.087C584.496 380.265 582.891 358.944 584.141 337.694L584.654 328.98C586.118 304.104 592.376 279.744 603.085 257.243L603.757 255.83C615.419 231.326 632.294 209.666 653.202 192.365C676.285 173.263 703.636 160.012 732.934 153.734L752.91 149.454L793.397 144.057C812.442 141.518 831.741 141.539 850.781 144.12L865.482 146.113C913.853 152.67 957.498 178.559 986.445 217.864L990.263 223.048C999.934 236.179 1007.29 250.869 1012 266.481C1016.05 279.889 1018.11 293.819 1018.11 307.825L1018.11 342.042L1022.79 378.293C1025.77 401.39 1022.75 424.866 1014.02 446.457C1007.58 462.386 998.174 476.946 986.297 489.362L974.468 501.727C960.579 516.246 944.807 528.837 927.571 539.163Z" fill="#40B1F0"/>
</g>
<mask id="mask1_685_1130" style="mask-type:alpha" maskUnits="userSpaceOnUse" x="583" y="142" width="441" height="435">
<g style="mix-blend-mode:soft-light">
<path d="M927.571 539.163L870.615 573.289C866.073 576.011 860.747 577.125 855.494 576.454L798.255 569.137C777.316 566.46 756.747 561.425 736.939 554.128L690.739 537.109C655.065 523.968 625.571 498 608.017 464.279C601.636 452.02 596.947 438.952 594.078 425.432L588.914 401.087C584.496 380.265 582.891 358.944 584.141 337.694L584.654 328.98C586.118 304.104 592.376 279.744 603.085 257.243L603.757 255.83C615.419 231.326 632.294 209.666 653.202 192.365C676.285 173.263 703.636 160.012 732.934 153.734L752.91 149.454L793.397 144.057C812.442 141.518 831.741 141.539 850.781 144.12L865.482 146.113C913.853 152.67 957.498 178.559 986.445 217.864L990.263 223.048C999.934 236.179 1007.29 250.869 1012 266.481C1016.05 279.889 1018.11 293.819 1018.11 307.825L1018.11 342.042L1022.79 378.293C1025.77 401.39 1022.75 424.866 1014.02 446.457C1007.58 462.386 998.174 476.946 986.297 489.362L974.468 501.727C960.579 516.246 944.807 528.837 927.571 539.163Z" fill="#40B1F0"/>
</g>
</mask>
<g mask="url(#mask1_685_1130)">
<g filter="url(#filter0_f_685_1130)">
<path d="M1020.63 364.886C1024.48 384.142 1028.12 419.616 1004.2 433.575C948.791 465.896 911.855 414.11 911.855 375.86C911.855 337.61 941.828 306.602 978.802 306.602C1015.78 306.602 1016.78 326.373 1020.63 364.886Z" fill="url(#paint11_linear_685_1130)"/>
</g>
<g style="mix-blend-mode:multiply" filter="url(#filter1_f_685_1130)">
<ellipse cx="651.869" cy="390.882" rx="66.4349" ry="84.7286" fill="url(#paint12_radial_685_1130)"/>
</g>
</g>
<path d="M754.32 329.627L741.444 320.554C738.876 318.744 736.135 317.193 733.262 315.922L695.603 299.265L735.943 291.681C743.227 290.311 750.756 291.183 757.535 294.181L765.776 297.826C771.136 300.197 775.067 304.953 776.387 310.664L777.211 314.233C778.981 321.892 774.44 329.595 766.881 331.754C762.588 332.981 757.97 332.199 754.32 329.627Z" fill="url(#paint13_linear_685_1130)"/>
<path d="M868.227 305.809L873.228 300.195C875.37 297.79 877.979 295.845 880.895 294.479L893.305 288.664C904.777 283.288 917.25 280.38 929.917 280.127L937.293 279.979L920.479 291.934C915.34 295.587 911.004 300.254 907.737 305.647C904.352 311.236 899.82 316.043 894.439 319.751L889.08 323.443C889.078 323.445 889.076 323.446 889.074 323.446L881.086 325.885C875.193 327.684 868.874 324.876 866.26 319.297C864.159 314.812 864.932 309.507 868.227 305.809Z" fill="url(#paint14_linear_685_1130)"/>
<path d="M685.306 414.468L782.803 388.553C786.231 387.642 786.468 383.023 783.163 381.535L767.64 374.549L681.461 338.527C676.013 336.25 670.264 340.381 670.99 346.052L671.074 346.704C671.457 349.697 673.632 352.248 676.601 353.187L766.405 381.579C768.345 382.192 768.236 384.895 766.258 385.213L681.255 398.877C677.023 399.558 674.323 403.508 675.265 407.639L675.479 408.579C676.463 412.895 680.999 415.613 685.306 414.468Z" fill="url(#paint15_linear_685_1130)"/>
<path d="M957 391.767L868.391 383.698C864.955 383.385 863.717 379.037 866.46 376.917L879.006 367.226L947.133 317.601C951.953 314.09 958.706 317.25 959.02 323.163C959.169 325.962 957.736 328.625 955.308 330.062L881.242 373.917C879.552 374.917 880.268 377.49 882.225 377.448L957.705 375.828C962.048 375.735 965.555 379.274 965.41 383.605L965.384 384.375C965.237 388.774 961.389 392.167 957 391.767Z" fill="url(#paint16_linear_685_1130)"/>
<path d="M819.009 469.896L827.953 466.907C836.577 464.024 842.653 456.433 843.709 447.566L848.006 453.556C851.806 458.855 857.181 462.82 863.365 464.886C866.532 465.945 869.85 466.485 873.189 466.485L883.283 466.485C890.769 466.485 897.552 470.897 900.585 477.741L901.379 479.531C903.272 483.802 903.063 488.712 900.814 492.807C897.754 498.377 891.511 501.409 885.241 500.369L872.945 498.33C869.884 497.823 866.769 497.731 863.683 498.056L838.062 500.76C828.902 501.727 820.143 505.031 812.625 510.355L799.93 519.347C792.905 524.322 783.782 525.237 775.909 521.755C761.708 515.473 756.985 497.551 766.081 484.941C770.135 479.322 776.403 475.615 783.28 474.818L811.657 471.532C814.158 471.242 816.621 470.694 819.009 469.896Z" fill="url(#paint17_radial_685_1130)" stroke="#E9ABCC" stroke-width="1.92565"/>
<path d="M847.886 420.509L847.886 420.509L847.893 420.521L852.241 427.045C855.8 432.386 854.769 439.548 849.849 443.668C846.877 446.157 842.925 447.137 839.135 446.325L835.149 445.471C833.259 445.066 831.459 444.323 829.833 443.279C823.434 439.169 820.793 431.136 823.504 424.031L833.405 398.09L847.886 420.509Z" fill="url(#paint18_radial_685_1130)" stroke="#E9ABCC" stroke-width="1.92565"/>
<path d="M663.458 282.244L501.618 329.35C499.975 329.829 498.652 327.965 499.644 326.572L571.704 225.34L600.973 131.495C603.611 123.036 609.273 115.846 616.877 111.299L637.965 98.6875C739.494 37.9695 866.263 38.3216 967.453 99.6026C972.94 102.926 977.301 107.824 979.965 113.66L1016.06 192.715L1109.01 278.444C1110.3 279.632 1109.3 281.774 1107.56 281.561L952.368 262.517L929.021 259.315C845.916 247.919 761.345 254.032 680.743 277.262L663.458 282.244Z" fill="#D6FDFF"/>
<path d="M1016.06 192.715L1109.01 278.444C1110.3 279.632 1109.3 281.774 1107.56 281.561L952.368 262.517L929.021 259.315C845.916 247.919 761.345 254.032 680.743 277.262L663.458 282.244L501.618 329.351C499.975 329.829 498.652 327.965 499.644 326.572L571.704 225.34M1016.06 192.715L979.965 113.66C977.3 107.824 972.94 102.926 967.453 99.6026V99.6026C866.263 38.3216 739.494 37.9695 637.965 98.6875L616.877 111.299C609.273 115.846 603.611 123.036 600.973 131.495L571.704 225.34M1016.06 192.715L802.984 213.959L571.704 225.34" stroke="#C2DBEA" stroke-width="0.601457"/>
<g style="mix-blend-mode:multiply">
<path d="M663.458 282.244L501.618 329.35C499.975 329.829 498.652 327.965 499.644 326.572L571.704 225.34L600.973 131.495C603.611 123.036 609.273 115.846 616.877 111.299L637.965 98.6875C739.494 37.9695 866.263 38.3216 967.453 99.6026C972.94 102.926 977.301 107.824 979.965 113.66L1016.06 192.715L1109.01 278.444C1110.3 279.632 1109.3 281.774 1107.56 281.561L952.368 262.517L929.021 259.315C845.916 247.919 761.345 254.032 680.743 277.262L663.458 282.244Z" fill="url(#paint19_linear_685_1130)"/>
</g>
<g style="mix-blend-mode:lighten">
<path d="M1136.83 161.638C1136.83 203.6 1087.29 240.248 1013.59 259.924C977.087 269.67 925.029 255.032 879.759 255.032C813.236 255.032 762.472 263.198 718.005 243.589C671.122 222.915 641.941 193.841 641.941 161.638C641.941 98.8911 752.727 48.0247 889.387 48.0247C1026.05 48.0247 1136.83 98.8911 1136.83 161.638Z" fill="#96CDF5"/>
</g>
<g style="mix-blend-mode:soft-light" filter="url(#filter2_f_685_1130)">
<ellipse cx="886.501" cy="124.088" rx="215.673" ry="124.204" fill="#FFC1C1"/>
</g>
<g style="mix-blend-mode:soft-light" filter="url(#filter3_f_685_1130)">
<ellipse cx="955.864" cy="386.793" rx="215.673" ry="124.204" fill="#FFC1C1"/>
</g>
<path d="M652.453 674.867L638.69 646.615C638.503 646.231 638.143 645.96 637.723 645.884L604.148 639.871C584.52 636.355 564.619 634.587 544.679 634.587L534.07 634.587C521.188 634.587 508.332 635.729 495.652 638.001C466.177 643.28 438.107 654.576 413.192 671.186L385.318 689.769L332.118 735.631C330.86 736.716 330.137 738.294 330.137 739.955L330.137 757.319L330.137 804.889L330.137 818.61C330.137 849.859 325.195 880.912 315.495 910.618C315.263 911.331 315.961 911.994 316.661 911.724L429.689 868.114C433.718 866.56 437.606 864.667 441.314 862.454L477.482 840.87C487.521 834.879 500.39 836.776 508.272 845.409C512.413 849.945 514.709 855.864 514.709 862.005L514.709 966.628L494.73 1203.53L469.993 1378.59L1136.93 1356.7L1119.31 1301.23C1096.87 1230.59 1082.14 1157.74 1075.38 1083.93L1064.5 965.104C1062.69 945.293 1063.75 925.324 1067.65 905.817L1083.35 827.305C1084.75 820.3 1089.05 814.21 1095.17 810.535C1101.18 806.932 1108.4 805.973 1115.14 807.884L1238.73 842.945L1329.26 865.344C1330 865.528 1330.64 864.802 1330.37 864.087L1316.73 828.164C1307.37 803.508 1304.18 776.935 1307.45 750.765C1308.57 741.83 1310.43 733.004 1313.02 724.379L1323 691.127C1323.23 690.337 1322.88 689.49 1322.15 689.104L1262.51 657.421L1228.97 641.657C1199.05 627.603 1166.41 620.316 1133.37 620.316C1101.84 620.316 1070.67 626.946 1041.88 639.775L989.972 662.901C989.638 663.05 989.352 663.29 989.146 663.593L957.287 710.479C945.214 728.247 930.107 743.75 912.657 756.278L902.997 763.214C878.177 781.033 848.392 790.618 817.838 790.618C786.565 790.618 756.118 780.578 730.98 761.975L715.093 750.219C688.455 730.507 666.967 704.658 652.453 674.867Z" fill="#FFFBED" stroke="#F9E8C3" stroke-width="0.601457"/>
<g style="mix-blend-mode:multiply" opacity="0.7">
<path d="M652.453 674.867L638.69 646.615C638.503 646.231 638.143 645.96 637.723 645.884L604.148 639.871C584.52 636.355 564.619 634.587 544.679 634.587L534.07 634.587C521.188 634.587 508.332 635.729 495.652 638.001C466.177 643.28 438.107 654.576 413.192 671.186L385.318 689.769L332.118 735.631C330.86 736.716 330.137 738.294 330.137 739.955L330.137 757.319L330.137 804.889L330.137 818.61C330.137 849.859 325.195 880.912 315.495 910.618C315.263 911.331 315.961 911.994 316.661 911.724L429.689 868.114C433.718 866.56 437.606 864.667 441.314 862.454L477.482 840.87C487.521 834.879 500.39 836.776 508.272 845.409C512.413 849.945 514.709 855.864 514.709 862.005L514.709 966.628L494.73 1203.53L469.993 1378.59L1136.93 1356.7L1119.31 1301.23C1096.87 1230.59 1082.14 1157.74 1075.38 1083.93L1064.5 965.104C1062.69 945.293 1063.75 925.324 1067.65 905.817L1083.35 827.305C1084.75 820.3 1089.05 814.21 1095.17 810.535C1101.18 806.932 1108.4 805.973 1115.14 807.884L1238.73 842.945L1329.26 865.344C1330 865.528 1330.64 864.802 1330.37 864.087L1316.73 828.164C1307.37 803.508 1304.18 776.935 1307.45 750.765C1308.57 741.83 1310.43 733.004 1313.02 724.379L1323 691.127C1323.23 690.337 1322.88 689.49 1322.15 689.104L1262.51 657.421L1228.97 641.657C1199.05 627.603 1166.41 620.316 1133.37 620.316C1101.84 620.316 1070.67 626.946 1041.88 639.775L989.972 662.901C989.638 663.05 989.352 663.29 989.146 663.593L957.287 710.479C945.214 728.247 930.107 743.75 912.657 756.278L902.997 763.214C878.177 781.033 848.392 790.618 817.838 790.618C786.565 790.618 756.118 780.578 730.98 761.975L715.093 750.219C688.455 730.507 666.967 704.658 652.453 674.867Z" fill="url(#paint20_linear_685_1130)"/>
</g>
<g style="mix-blend-mode:overlay" opacity="0.8" filter="url(#filter4_f_685_1130)">
<path d="M1431.73 825.853C1431.73 957.243 1382.19 1072 1308.49 1133.6C1271.99 1164.12 1219.93 1118.29 1174.66 1118.29C1108.13 1118.29 1057.37 1143.86 1012.9 1082.46C966.02 1017.72 936.84 926.687 936.84 825.853C936.84 629.38 1047.63 470.108 1184.29 470.108C1320.95 470.108 1431.73 629.38 1431.73 825.853Z" fill="#EE96F5"/>
</g>
<g style="mix-blend-mode:overlay" opacity="0.8" filter="url(#filter5_f_685_1130)">
<path d="M1360.27 681.513C1360.27 812.903 1310.73 927.656 1237.03 989.264C1200.53 1019.78 1148.47 973.947 1103.2 973.947C1036.68 973.947 985.913 999.518 941.446 938.118C894.563 873.382 865.383 782.347 865.383 681.513C865.383 485.04 976.168 325.768 1112.83 325.768C1249.49 325.768 1360.27 485.04 1360.27 681.513Z" fill="#EE96F5"/>
</g>
<g style="mix-blend-mode:color-burn" filter="url(#filter6_f_685_1130)">
<path d="M616.508 637.442L654.958 688.234C680.45 721.908 717.283 745.202 758.633 753.799V753.799C780.503 758.346 803.041 758.655 825.027 754.709L834.263 753.051C879.881 744.863 921.815 722.67 954.241 689.555L994.898 648.033" stroke="url(#paint21_linear_685_1130)" stroke-width="13.4795"/>
</g>
<path d="M496.633 633.636V633.636C511.764 680.92 519.467 730.265 519.467 779.911L519.467 785.861L511.855 852.459" stroke="#F9E8C3" stroke-width="0.596951"/>
<path d="M1166.42 621.268L1165.73 622.159C1131.12 666.661 1106.97 718.384 1095.07 773.493V773.493L1082.7 833.431" stroke="#F9E8C3" stroke-width="0.596951"/>
<g style="mix-blend-mode:soft-light" opacity="0.8">
<rect x="-0.546875" y="-0.849854" width="2436.81" height="2649.73" fill="#003EDC"/>
</g>
<g style="mix-blend-mode:color-burn" opacity="0.5">
<rect x="-0.546875" y="18.8652" width="2440.75" height="2630.02" fill="url(#paint22_linear_685_1130)"/>
</g>
<g style="mix-blend-mode:saturation">
<rect x="-0.546875" y="18.8652" width="2440.75" height="2630.02" fill="#3656FF"/>
</g>
<g style="mix-blend-mode:color-burn" opacity="0.5">
<rect x="-0.546875" y="18.8652" width="2440.75" height="2630.02" fill="#A2B0FF"/>
</g>
</g>
<defs>
<filter id="filter0_f_685_1130" x="835.743" y="230.49" width="263.803" height="289.357" filterUnits="userSpaceOnUse" color-interpolation-filters="sRGB">
<feFlood flood-opacity="0" result="BackgroundImageFix"/>
<feBlend mode="normal" in="SourceGraphic" in2="BackgroundImageFix" result="shape"/>
<feGaussianBlur stdDeviation="38.0562" result="effect1_foregroundBlur_685_1130"/>
</filter>
<filter id="filter1_f_685_1130" x="509.321" y="230.041" width="285.096" height="321.682" filterUnits="userSpaceOnUse" color-interpolation-filters="sRGB">
<feFlood flood-opacity="0" result="BackgroundImageFix"/>
<feBlend mode="normal" in="SourceGraphic" in2="BackgroundImageFix" result="shape"/>
<feGaussianBlur stdDeviation="38.0562" result="effect1_foregroundBlur_685_1130"/>
</filter>
<filter id="filter2_f_685_1130" x="478.263" y="-192.681" width="816.474" height="633.539" filterUnits="userSpaceOnUse" color-interpolation-filters="sRGB">
<feFlood flood-opacity="0" result="BackgroundImageFix"/>
<feBlend mode="normal" in="SourceGraphic" in2="BackgroundImageFix" result="shape"/>
<feGaussianBlur stdDeviation="96.2825" result="effect1_foregroundBlur_685_1130"/>
</filter>
<filter id="filter3_f_685_1130" x="547.626" y="70.0232" width="816.474" height="633.539" filterUnits="userSpaceOnUse" color-interpolation-filters="sRGB">
<feFlood flood-opacity="0" result="BackgroundImageFix"/>
<feBlend mode="normal" in="SourceGraphic" in2="BackgroundImageFix" result="shape"/>
<feGaussianBlur stdDeviation="96.2825" result="effect1_foregroundBlur_685_1130"/>
</filter>
<filter id="filter4_f_685_1130" x="744.275" y="277.543" width="880.021" height="1059.11" filterUnits="userSpaceOnUse" color-interpolation-filters="sRGB">
<feFlood flood-opacity="0" result="BackgroundImageFix"/>
<feBlend mode="normal" in="SourceGraphic" in2="BackgroundImageFix" result="shape"/>
<feGaussianBlur stdDeviation="96.2825" result="effect1_foregroundBlur_685_1130"/>
</filter>
<filter id="filter5_f_685_1130" x="672.818" y="133.203" width="880.021" height="1059.11" filterUnits="userSpaceOnUse" color-interpolation-filters="sRGB">
<feFlood flood-opacity="0" result="BackgroundImageFix"/>
<feBlend mode="normal" in="SourceGraphic" in2="BackgroundImageFix" result="shape"/>
<feGaussianBlur stdDeviation="96.2825" result="effect1_foregroundBlur_685_1130"/>
</filter>
<filter id="filter6_f_685_1130" x="553.363" y="575.604" width="504.121" height="246.36" filterUnits="userSpaceOnUse" color-interpolation-filters="sRGB">
<feFlood flood-opacity="0" result="BackgroundImageFix"/>
<feBlend mode="normal" in="SourceGraphic" in2="BackgroundImageFix" result="shape"/>
<feGaussianBlur stdDeviation="28.8847" result="effect1_foregroundBlur_685_1130"/>
</filter>
<linearGradient id="paint0_linear_685_1130" x1="702.961" y1="129.588" x2="59.0618" y2="747.858" gradientUnits="userSpaceOnUse">
<stop stop-color="#FDDBF0"/>
<stop offset="1" stop-color="white" stop-opacity="0"/>
</linearGradient>
<linearGradient id="paint1_linear_685_1130" x1="714.505" y1="253.074" x2="146.409" y2="576.87" gradientUnits="userSpaceOnUse">
<stop stop-color="#FD5A9E"/>
<stop offset="0.828125" stop-color="white" stop-opacity="0"/>
</linearGradient>
<linearGradient id="paint2_linear_685_1130" x1="726.729" y1="249.796" x2="164.366" y2="434.263" gradientUnits="userSpaceOnUse">
<stop stop-color="#F1408B" stop-opacity="0.92"/>
<stop offset="0.625" stop-color="white" stop-opacity="0"/>
</linearGradient>
<linearGradient id="paint3_linear_685_1130" x1="845.814" y1="180.644" x2="1714.63" y2="263.934" gradientUnits="userSpaceOnUse">
<stop stop-color="#FDDBF0"/>
<stop offset="1" stop-color="white" stop-opacity="0"/>
</linearGradient>
<linearGradient id="paint4_linear_685_1130" x1="910.96" y1="292.073" x2="1498.25" y2="197.036" gradientUnits="userSpaceOnUse">
<stop stop-color="#FD5A9E"/>
<stop offset="0.828125" stop-color="white" stop-opacity="0"/>
</linearGradient>
<linearGradient id="paint5_linear_685_1130" x1="898.79" y1="295.263" x2="1380.38" y2="128.528" gradientUnits="userSpaceOnUse">
<stop stop-color="#F1408B" stop-opacity="0.92"/>
<stop offset="0.625" stop-color="white" stop-opacity="0"/>
</linearGradient>
<linearGradient id="paint6_linear_685_1130" x1="525.176" y1="85.6265" x2="344.297" y2="889.779" gradientUnits="userSpaceOnUse">
<stop stop-color="#FFD9D9"/>
<stop offset="1" stop-color="#FEF5F5" stop-opacity="0"/>
</linearGradient>
<linearGradient id="paint7_linear_685_1130" x1="626.976" y1="11.4169" x2="998.747" y2="724.424" gradientUnits="userSpaceOnUse">
<stop stop-color="#F3766F"/>
<stop offset="1" stop-color="#FFD6DB" stop-opacity="0"/>
</linearGradient>
<linearGradient id="paint8_linear_685_1130" x1="820.111" y1="509.954" x2="820.111" y2="709.749" gradientUnits="userSpaceOnUse">
<stop stop-color="#FFC7EC"/>
<stop offset="1" stop-color="#D9D9D9" stop-opacity="0"/>
</linearGradient>
<linearGradient id="paint9_linear_685_1130" x1="581.5" y1="340.192" x2="959.949" y2="552.796" gradientUnits="userSpaceOnUse">
<stop stop-color="#FFD9D9"/>
<stop offset="1" stop-color="#FEF5F5" stop-opacity="0"/>
</linearGradient>
<linearGradient id="paint10_linear_685_1130" x1="664.079" y1="160.787" x2="773.478" y2="469.999" gradientUnits="userSpaceOnUse">
<stop stop-color="#F05349"/>
<stop offset="1" stop-color="#F10000" stop-opacity="0"/>
</linearGradient>
<linearGradient id="paint11_linear_685_1130" x1="961.867" y1="354.874" x2="943.791" y2="431.938" gradientUnits="userSpaceOnUse">
<stop offset="0.087546" stop-color="#FF6CA1"/>
<stop offset="1" stop-color="#FFEEEE" stop-opacity="0"/>
</linearGradient>
<radialGradient id="paint12_radial_685_1130" cx="0" cy="0" r="1" gradientUnits="userSpaceOnUse" gradientTransform="translate(651.869 390.882) rotate(90) scale(84.7286 66.4349)">
<stop stop-color="#FF6CA1"/>
<stop offset="1" stop-color="#FFEEEE" stop-opacity="0"/>
</radialGradient>
<linearGradient id="paint13_linear_685_1130" x1="775.783" y1="320.944" x2="689.665" y2="297.17" gradientUnits="userSpaceOnUse">
<stop stop-color="#0A0033" stop-opacity="0.72"/>
<stop offset="1"/>
</linearGradient>
<linearGradient id="paint14_linear_685_1130" x1="933.079" y1="286.001" x2="865.977" y2="331.518" gradientUnits="userSpaceOnUse">
<stop/>
<stop offset="1" stop-color="#0A0033" stop-opacity="0.72"/>
</linearGradient>
<linearGradient id="paint15_linear_685_1130" x1="766.51" y1="349.311" x2="662.347" y2="395.976" gradientUnits="userSpaceOnUse">
<stop stop-color="#0A0033" stop-opacity="0.72"/>
<stop offset="1"/>
</linearGradient>
<linearGradient id="paint16_linear_685_1130" x1="875.816" y1="342.239" x2="976.074" y2="363.668" gradientUnits="userSpaceOnUse">
<stop stop-color="#0A0033" stop-opacity="0.72"/>
<stop offset="1"/>
</linearGradient>
<radialGradient id="paint17_radial_685_1130" cx="0" cy="0" r="1" gradientUnits="userSpaceOnUse" gradientTransform="translate(842.011 487.33) rotate(84.6711) scale(53.1227 109.178)">
<stop offset="0.302083" stop-color="#E9ABCC"/>
<stop offset="1" stop-color="#D13982"/>
</radialGradient>
<radialGradient id="paint18_radial_685_1130" cx="0" cy="0" r="1" gradientUnits="userSpaceOnUse" gradientTransform="translate(842.816 424.846) rotate(87.8843) scale(35.8418 29.3886)">
<stop offset="0.302083" stop-color="#E9ABCC"/>
<stop offset="1" stop-color="#D13982"/>
</radialGradient>
<linearGradient id="paint19_linear_685_1130" x1="789.335" y1="64.4911" x2="1041.23" y2="318.521" gradientUnits="userSpaceOnUse">
<stop stop-color="#8983CF"/>
<stop offset="1" stop-color="#D6FDFF" stop-opacity="0"/>
</linearGradient>
<linearGradient id="paint20_linear_685_1130" x1="594.927" y1="620.316" x2="1346.55" y2="1099.25" gradientUnits="userSpaceOnUse">
<stop stop-color="#FFF2C4"/>
<stop offset="1" stop-color="#F4FFD6" stop-opacity="0"/>
</linearGradient>
<linearGradient id="paint21_linear_685_1130" x1="674.277" y1="650.921" x2="944.831" y2="833.858" gradientUnits="userSpaceOnUse">
<stop stop-color="#B04B4B"/>
<stop offset="0.462669" stop-color="#E22C2C"/>
<stop offset="1" stop-color="#DE1F1F" stop-opacity="0"/>
</linearGradient>
<linearGradient id="paint22_linear_685_1130" x1="1219.83" y1="18.8652" x2="1150.47" y2="2649.19" gradientUnits="userSpaceOnUse">
<stop stop-color="#DB3A3A" stop-opacity="0.43"/>
<stop offset="0.995878" stop-color="#712121"/>
</linearGradient>
</defs>
</svg>
