<svg width="95" height="109" viewBox="0 0 95 109" fill="none" xmlns="http://www.w3.org/2000/svg">
<path d="M10.9003 108.532C9.08956 108.528 7.31086 108.054 5.73918 107.155C2.20012 105.149 0 101.256 0 97.0298V11.5025C0 7.26445 2.20012 3.38327 5.73918 1.37781C7.34828 0.453038 9.17625 -0.0225262 11.032 0.000819993C12.8878 0.0241662 14.7032 0.545567 16.2885 1.51052L89.3849 45.2651C90.9083 46.2204 92.1642 47.5468 93.0347 49.1202C93.9052 50.6935 94.3619 52.4622 94.3619 54.2603C94.3619 56.0584 93.9052 57.827 93.0347 59.4003C92.1642 60.9737 90.9083 62.3002 89.3849 63.2554L16.2767 107.022C14.6544 108.003 12.7961 108.525 10.9003 108.532Z" fill="#EA4050"/>
</svg>
