<svg width="1000" height="563" viewBox="0 0 1920 1080" fill="none" xmlns="http://www.w3.org/2000/svg">
  <defs>
    <linearGradient id="logo-gradient" x1="0.44" y1="1" x2="0.56" y2="0">
          <stop offset="-1" stop-color="#60DDFD">
          <animate attributeName="offset" dur="5s" values="-1;0;"
              repeatCount="indefinite" />
          </stop>
          <stop offset="-0.5" stop-color="#3656ff">
          <animate attributeName="offset" dur="5s" values="-0.5;0.5;"
              repeatCount="indefinite" />
          </stop>
          <stop offset="0" stop-color="#60DDFD">
          <animate attributeName="offset" dur="5s" values="0;1;"
              repeatCount="indefinite" />
          </stop>
          <stop offset=".5" stop-color="#3656ff">
          <animate attributeName="offset" dur="5s" values="0.5;1.5;"
              repeatCount="indefinite" />
          </stop>
          <stop offset="1" stop-color="#60DDFD">
          <animate attributeName="offset" dur="5s" values="1;2"
              repeatCount="indefinite" />
          </stop>
    </linearGradient>
  </defs>
  <path d="M157.012 782.409C142.658 801.325 130.49 830.878 123.001 851.668C117.279 867.552 115 884.391 115 901.274C115 999.982 195.018 1080 293.726 1080H1235.96C1334.49 1080 1414.37 1000.12 1414.37 901.586C1414.37 802.464 1333.56 722.076 1234.69 715.024C1124.75 707.183 986.122 690.158 884.219 653.266C787.797 618.359 775.546 492.277 862.641 438.145C910.677 408.29 962.741 381.02 1010.25 366.906C1161.78 321.892 1259.56 398.208 1414.37 366.906C1539.12 341.681 1613.08 322.393 1719.96 252.055C1792.2 204.514 1836.83 113.044 1858.08 59.0589C1864.6 42.5088 1847.99 27.9952 1831.9 35.5672C1826.85 37.9429 1821.05 38.1861 1815.82 36.2421L1794.03 28.1439C1773.64 20.5656 1751.02 22.0595 1731.77 32.1962C1693.22 52.4989 1625.57 87.8357 1575.92 112.193C1491.85 153.429 1450.37 197.205 1358.35 212.751C1300.16 222.582 1264.55 227.307 1207.31 212.751C1164.73 201.922 1112.89 167.481 1085.63 147.793C1072.92 138.62 1062.18 127.133 1053.15 114.331L996.689 34.3556C984.195 16.6565 961.002 10.143 941.12 18.7495L933.234 22.163C929.189 23.914 924.683 24.2944 920.401 23.2461C899.957 18.2403 884.009 46.4457 897.558 62.5536C932.107 103.629 970.722 160.349 975.245 212.751C985.438 330.864 820.002 399.006 699.65 432.748C624.394 453.847 556.877 500.342 519.917 569.207C470.751 660.815 367.729 704.989 265.767 725.312C222.125 734.01 180.89 750.942 157.012 782.409Z" fill="url('#logo-gradient')"/>
</svg>
