<svg width="368" height="644" viewBox="0 0 368 644" fill="none" xmlns="http://www.w3.org/2000/svg">
<path d="M169.154 115.433L186.087 149.819L169.154 164.556L154.338 125.257L143.361 101.236C131.894 76.144 117.928 52.2713 101.675 29.9795C122.601 49.9203 141.122 72.2417 156.859 96.4882L169.154 115.433Z" fill="#3D3AA9"/>
<path d="M264.399 93.9585L261.608 135.518H244.166L251.84 93.9585L253.793 81.9509C257.555 58.8208 266.732 36.9078 280.575 18C273.994 37.1282 269.335 56.8646 266.667 76.9167L264.399 93.9585Z" fill="#3D3AA9"/>
<path d="M239.74 311.889L241.422 307.353C244.509 299.029 250.099 291.866 257.423 286.848L191.292 218.845H151.192L159.56 239.512C164.656 252.098 165.949 265.901 163.277 279.213C162.258 284.287 160.676 289.232 158.558 293.954L131.801 353.62L191.292 386.13L223.335 382.027L241.957 369.717L237.035 342.469C235.184 332.217 236.118 321.656 239.74 311.889Z" fill="#3D3AA9"/>
<path d="M330.05 181.61L327.599 180.607C319.018 177.094 309.834 175.288 300.561 175.288L298.455 192.851L304.072 218.845H312.68C318.16 218.845 323.625 218.271 328.986 217.133L336.454 215.548C341.498 214.478 346.286 212.435 350.549 209.534C357.747 204.637 363.136 197.51 365.888 189.251L367.263 185.123L364.57 185.402C352.925 186.607 341.156 185.315 330.05 181.61Z" fill="#3D3AA9"/>
<path d="M190.057 364.799L202.412 365.782C218.243 367.041 233.508 359.603 242.272 346.36H291.826H306.405C319.328 346.36 330.946 354.238 335.728 366.244L342.643 383.605L365.368 474.191C347.922 490.2 325.896 500.336 302.389 503.173L301.926 503.229V563.515V644.001H111.6C116.624 613.227 117.222 581.893 113.374 550.95L111.6 536.686L105.753 478.61L103.394 507.017H98.7153C72.3292 507.017 46.1076 502.863 21.0135 494.707L24.8298 412.994C25.8458 391.24 32.4235 370.11 43.9344 351.622C46.0028 348.301 49.4836 346.114 53.3741 345.693L134.641 336.891L158.102 353.314C167.54 359.921 178.573 363.886 190.057 364.799Z" fill="#3D3AA9"/>
<path d="M283.889 157.092L271.826 147.713C269.95 146.255 268.853 144.012 268.853 141.636C268.853 138.778 267.269 136.155 264.739 134.824L257.968 131.261C256.356 130.413 254.593 129.888 252.779 129.715L245.065 128.981C242.611 128.747 240.354 130.342 239.756 132.734C239.148 135.166 236.828 136.769 234.337 136.476L228.718 135.815C227.428 135.663 226.121 135.733 224.854 136.02L214.163 138.449C212.285 138.876 210.461 139.512 208.725 140.345L196.25 146.331C194.759 147.046 192.987 146.826 191.717 145.768C190.427 144.693 188.624 144.484 187.123 145.234L174.163 151.712L173.222 152.044C166.871 154.284 163.047 160.763 164.155 167.406C164.28 168.16 164.343 168.923 164.343 169.687V183.237C164.343 185.674 162.57 187.75 160.162 188.13L155.462 188.872C152.505 189.338 149.598 190.08 146.779 191.086C143.072 192.41 139.541 194.183 136.265 196.365L125.065 203.83C120.408 206.933 115.372 209.424 110.08 211.243L106.913 212.331C99.4759 214.887 91.548 215.687 83.7497 214.67L80.9043 214.299C79.9521 214.175 79.0122 213.971 78.0944 213.689L72.6269 212.007C71.1893 211.565 69.6291 211.792 68.3775 212.626C66.9839 213.555 66.1468 215.119 66.1468 216.794V220.161C66.1468 222.607 66.9402 224.986 68.4079 226.942L71.7763 231.432C73.6221 233.892 75.8587 236.033 78.3973 237.769L82.9955 240.914C86.2513 243.141 89.7126 245.051 93.3321 246.619L99.1817 249.153C105.614 251.939 112.549 253.377 119.559 253.377H119.878C123.326 253.377 126.764 253.007 130.133 252.275C137.41 250.694 144.223 247.451 150.04 242.8L162.239 233.044L174.51 222.451C176.016 221.15 178.361 221.795 178.991 223.683C179.046 223.847 179.085 224.015 179.108 224.186L180.617 235.115C181.45 241.155 183.45 246.975 186.506 252.252C188.556 255.791 191.059 259.048 193.952 261.939L203.305 271.289C208.596 276.579 214.977 280.652 222.002 283.227C228.843 285.735 236.137 286.763 243.405 286.244L252.019 285.629C262.592 285.629 273.162 287.776 282.881 291.939L306.729 304.56L308.152 305.192C315.59 308.496 323.417 310.846 331.445 312.183L331.834 312.248C331.93 312.264 332.028 312.269 332.126 312.263L336.856 311.985C341.337 311.722 345.491 309.55 348.265 306.021C350.438 303.257 351.618 299.844 351.618 296.329V292.109C351.618 292 351.662 291.896 351.738 291.819C353.931 289.628 355.312 286.755 355.655 283.674L356.239 278.418C356.431 276.685 356.466 274.938 356.341 273.198L355.19 257.087C355.149 256.507 354.877 255.969 354.436 255.591L314.236 221.231C309.34 217.046 305.785 211.511 304.014 205.318C303.955 205.11 303.966 204.889 304.044 204.689L308.622 192.993C309.673 190.308 309.889 187.369 309.24 184.56C308.522 181.448 306.783 178.666 304.3 176.657L296.974 170.729C294.603 168.81 292.493 166.589 290.698 164.122C288.769 161.471 286.477 159.104 283.889 157.092Z" fill="#3D3AA9"/>
<path d="M367.892 567.618L358.423 480.504L304.765 500.073L311.393 567.618L317.39 638.32H367.892V567.618Z" fill="#3D3AA9"/>
<path d="M32.9918 498.788L39.7803 537.921L47.3133 573.508C49.9724 586.07 55.6197 597.806 63.7768 607.723C69.0444 614.127 75.2766 619.672 82.2497 624.158L82.9167 624.588C83.674 625.075 84.6321 625.126 85.4374 624.723L86.5273 624.178C100.278 617.292 112.937 608.415 124.095 597.833L135.422 587.091C146.447 576.635 156.539 565.238 165.584 553.03L179.145 534.727L188.556 521.572L198.407 509.89L207.41 501.27C215.256 493.758 221.932 485.113 227.216 475.623C231.246 470.145 230.754 462.562 226.05 457.651L223.259 454.737L207.904 436.568C206.089 434.421 204.064 432.459 201.861 430.711L189.226 420.693C187.219 419.102 184.603 418.499 182.103 419.051C179.37 419.655 177.108 421.563 176.054 424.156L172.356 433.251C172.294 431.945 171.369 430.714 169.89 430.47C169.363 430.384 168.823 430.442 168.327 430.638L164.923 431.986C162.06 433.12 159.646 435.16 158.051 437.794C156.771 439.907 156.068 442.319 156.013 444.788L155.768 455.726C155.573 464.42 157.441 473.037 161.218 480.87L166.714 492.266C166.769 492.38 166.774 492.511 166.728 492.628C163.007 502.091 155.015 508.977 147.31 515.616L147.191 515.719L119.655 539.446C110.362 547.454 102.021 556.505 94.796 566.42C94.5932 566.698 94.1542 566.504 94.2242 566.167L97.6825 549.502L98.8805 528.338V507.573L62.5419 504.777L32.9918 498.788Z" fill="#3D3AA9"/>
<mask id="mask0_695_55012" style="mask-type:alpha" maskUnits="userSpaceOnUse" x="0" y="0" width="349" height="627">
<path d="M149.143 97.4328L166.076 131.819L149.143 146.556L134.327 107.257L123.35 83.2362C111.883 58.1443 97.9174 34.2715 81.6643 11.9797C102.59 31.9206 121.111 54.2419 136.848 78.4884L149.143 97.4328Z" fill="#D9D9D9"/>
<path d="M244.387 75.9585L241.596 117.518H224.153L231.828 75.9585L233.78 63.9509C237.542 40.8208 246.719 18.9078 260.562 0C253.981 19.1282 249.322 38.8646 246.654 58.9167L244.387 75.9585Z" fill="#B0896D"/>
<path d="M219.726 293.889L221.408 289.353C224.495 281.029 230.085 273.866 237.409 268.848L171.279 200.845H131.178L139.547 221.512C144.643 234.098 145.935 247.901 143.263 261.213C142.245 266.287 140.662 271.232 138.544 275.954L111.788 335.62L171.279 368.13L203.321 364.027L221.943 351.717L217.022 324.469C215.17 314.217 216.104 303.656 219.726 293.889Z" fill="#D9A557" stroke="#FFD88B" stroke-width="0.631264"/>
<path d="M310.038 163.61L307.587 162.607C299.005 159.094 289.821 157.288 280.549 157.288L278.442 174.851L284.059 200.845H292.667C298.147 200.845 303.613 200.271 308.973 199.133L316.441 197.548C321.485 196.478 326.273 194.435 330.537 191.534C337.734 186.637 343.123 179.51 345.875 171.251L347.25 167.123L344.558 167.402C332.912 168.607 321.144 167.315 310.038 163.61Z" fill="#D9A557" stroke="#FFD88B" stroke-width="0.631264"/>
<g style="mix-blend-mode:color-burn">
<path d="M170.045 346.799L182.399 347.782C198.23 349.041 213.495 341.603 222.259 328.36H271.813H286.392C299.315 328.36 310.933 336.238 315.715 348.244L322.63 365.605L345.355 456.191C327.91 472.2 305.884 482.336 282.376 485.173L281.913 485.229V545.515V626.001H91.5872C96.6115 595.227 97.2088 563.893 93.361 532.95L91.5872 518.686L85.7405 460.61L83.3808 489.017H78.7026C52.3165 489.017 26.0949 484.863 1.00085 476.707L4.81711 394.994C5.8331 373.24 12.4108 352.11 23.9217 333.622C25.9901 330.301 29.4709 328.114 33.3614 327.693L114.628 318.891L138.089 335.314C147.528 341.921 158.56 345.886 170.045 346.799Z" fill="#D9A557"/>
<path d="M91.5873 390.224L85.7405 460.61M85.7405 460.61L83.3808 489.017H78.7027C52.3165 489.017 26.0949 484.863 1.00084 476.707V476.707L4.81711 394.994C5.8331 373.24 12.4108 352.11 23.9217 333.622V333.622C25.9901 330.301 29.4709 328.114 33.3614 327.693L114.628 318.891L138.089 335.314C147.528 341.921 158.56 345.886 170.045 346.799L182.399 347.782C198.23 349.041 213.495 341.603 222.259 328.36V328.36H271.813H286.392C299.315 328.36 310.933 336.238 315.715 348.244L322.63 365.605L345.355 456.191V456.191C327.91 472.2 305.884 482.336 282.376 485.173L281.913 485.229M85.7405 460.61L91.5873 518.686L93.361 532.95C97.2089 563.893 96.6115 595.227 91.5873 626.001V626.001H281.913V545.515V485.229M267.394 382.964V382.964C276.947 402.486 281.913 423.932 281.913 445.665V466.923V485.229" stroke="#C7FFDF" stroke-width="0.378758"/>
</g>
<path d="M263.878 139.092L251.815 129.713C249.939 128.254 248.842 126.012 248.842 123.636C248.842 120.777 247.258 118.154 244.729 116.823L237.958 113.261C236.345 112.413 234.582 111.887 232.768 111.715L225.054 110.98C222.6 110.747 220.344 112.342 219.745 114.734C219.137 117.166 216.817 118.768 214.327 118.475L208.707 117.815C207.417 117.663 206.11 117.732 204.844 118.02L194.153 120.449C192.275 120.876 190.45 121.512 188.714 122.345L176.239 128.33C174.748 129.046 172.977 128.826 171.706 127.767C170.416 126.693 168.613 126.484 167.112 127.234L154.152 133.711L153.211 134.044C146.86 136.284 143.036 142.763 144.144 149.406C144.27 150.16 144.333 150.923 144.333 151.687V165.236C144.333 167.674 142.559 169.749 140.151 170.129L135.451 170.871C132.494 171.338 129.587 172.079 126.768 173.086C123.061 174.409 119.53 176.182 116.255 178.365L105.054 185.829C100.397 188.933 95.361 191.424 90.0688 193.243L86.9026 194.331C79.4651 196.886 71.5373 197.687 63.739 196.67L60.8935 196.299C59.9414 196.175 59.0014 195.971 58.0836 195.688L52.6161 194.007C51.1786 193.565 49.6184 193.792 48.3668 194.626C46.9732 195.555 46.1361 197.119 46.1361 198.793V202.161C46.1361 204.607 46.9295 206.986 48.3972 208.942L51.7656 213.432C53.6113 215.892 55.848 218.033 58.3865 219.769L62.9847 222.914C66.2405 225.141 69.7018 227.051 73.3213 228.619L79.171 231.153C85.6031 233.939 92.5384 235.376 99.5481 235.376H99.8674C103.315 235.376 106.753 235.007 110.122 234.275C117.4 232.694 124.213 229.451 130.029 224.799L142.229 215.043L154.499 204.45C156.006 203.149 158.351 203.794 158.98 205.683C159.035 205.846 159.074 206.015 159.098 206.185L160.606 217.115C161.439 223.155 163.439 228.975 166.495 234.251C168.545 237.791 171.048 241.048 173.941 243.939L183.294 253.289C188.586 258.578 194.966 262.652 201.991 265.227C208.832 267.734 216.127 268.763 223.394 268.244L232.008 267.629C242.581 267.629 253.152 269.775 262.87 273.939L286.718 286.559L288.141 287.192C295.579 290.496 303.406 292.845 311.434 294.183L311.823 294.248C311.92 294.264 312.018 294.269 312.115 294.263L316.845 293.985C321.327 293.722 325.48 291.55 328.255 288.021C330.427 285.257 331.608 281.844 331.608 278.329V274.109C331.608 274 331.651 273.896 331.728 273.819C333.92 271.627 335.301 268.755 335.644 265.673L336.228 260.418C336.421 258.685 336.455 256.938 336.331 255.198L335.179 239.086C335.138 238.507 334.866 237.968 334.425 237.591L294.226 203.231C289.329 199.046 285.774 193.511 284.004 187.317C283.944 187.11 283.955 186.889 284.033 186.688L288.612 174.993C289.663 172.308 289.878 169.369 289.229 166.56C288.511 163.448 286.772 160.665 284.289 158.656L276.964 152.728C274.592 150.81 272.482 148.588 270.688 146.122C268.759 143.47 266.466 141.104 263.878 139.092Z" fill="#FCFFE9" stroke="#FFD88B" stroke-width="0.631264"/>
<path d="M347.88 549.618L338.411 462.504L284.753 482.073L291.382 549.618L297.379 620.32H347.88V549.618Z" fill="#FFEAB3"/>
<path d="M12.9801 480.788L19.7686 519.921L27.3016 555.508C29.9607 568.07 35.608 579.806 43.7651 589.723C49.0327 596.127 55.2649 601.672 62.238 606.158L62.9049 606.588C63.6622 607.075 64.6204 607.126 65.4257 606.723L66.5156 606.178C80.2663 599.292 92.9254 590.415 104.084 579.833L115.411 569.091C126.435 558.635 136.527 547.238 145.573 535.03L159.133 516.727L168.545 503.572L178.395 491.89L187.398 483.27C195.244 475.758 201.92 467.113 207.205 457.623C211.234 452.145 210.742 444.562 206.038 439.651L203.248 436.737L187.892 418.568C186.077 416.421 184.052 414.459 181.849 412.711L169.214 402.693C167.208 401.102 164.592 400.499 162.091 401.051C159.358 401.655 157.097 403.563 156.042 406.156L152.344 415.251C152.283 413.945 151.357 412.714 149.878 412.47C149.351 412.384 148.812 412.442 148.316 412.638L144.911 413.986C142.048 415.12 139.634 417.16 138.039 419.794C136.759 421.907 136.056 424.319 136.001 426.788L135.756 437.726C135.561 446.42 137.429 455.037 141.207 462.87L146.702 474.266C146.757 474.38 146.762 474.511 146.716 474.628C142.995 484.091 135.003 490.977 127.298 497.616L127.179 497.719L99.6438 521.446C90.3503 529.454 82.009 538.505 74.7842 548.42C74.5815 548.698 74.1425 548.504 74.2125 548.167L77.6708 531.502L78.8688 510.338V489.573L42.5302 486.777L12.9801 480.788Z" fill="#FFEAB3"/>
<path d="M152.344 415.251L156.042 406.156C157.097 403.563 159.358 401.655 162.091 401.051C164.592 400.499 167.208 401.102 169.214 402.693L181.849 412.711C184.052 414.459 186.077 416.421 187.892 418.568L203.248 436.737L206.038 439.651C210.742 444.562 211.234 452.145 207.205 457.623C201.92 467.113 195.244 475.758 187.398 483.27L178.395 491.89L168.545 503.572L159.133 516.727L145.573 535.03C136.527 547.238 126.435 558.635 115.411 569.091L104.084 579.833C92.9254 590.415 80.2663 599.292 66.5156 606.178L65.4256 606.723C64.6204 607.126 63.6622 607.075 62.9049 606.588L62.238 606.158C55.2649 601.672 49.0327 596.127 43.7651 589.723V589.723C35.608 579.806 29.9607 568.07 27.3016 555.508L19.7686 519.921L12.9801 480.788L42.5302 486.777L78.8688 489.573V510.338L77.6708 531.502L74.2124 548.167C74.1425 548.504 74.5815 548.698 74.7842 548.42V548.42C82.009 538.505 90.3503 529.454 99.6438 521.446L127.179 497.719C134.921 491.048 142.976 484.139 146.716 474.628V474.628C146.762 474.511 146.757 474.38 146.702 474.266L141.207 462.87C137.429 455.037 135.561 446.42 135.756 437.726L136.001 426.788C136.056 424.319 136.759 421.907 138.039 419.794C139.634 417.16 142.048 415.12 144.911 413.986L148.316 412.638C148.812 412.442 149.351 412.384 149.878 412.47C151.357 412.714 152.283 413.945 152.344 415.251ZM152.344 415.251L151.418 417.53M152.344 415.251C152.38 415.995 152.134 416.764 151.551 417.388L151.418 417.53M151.418 417.53V417.53C152.627 429.341 156.365 440.754 162.377 450.993L164.42 454.472M164.42 454.472C165.134 455.687 166.737 456.027 167.882 455.207L168.477 454.781M164.42 454.472C165.246 455.749 166.936 455.613 168.477 454.781M168.477 454.781L180.583 444.794C180.907 444.527 180.969 444.054 180.724 443.713L166.524 423.895C166.132 423.348 165.279 423.502 165.104 424.153L164.198 427.509C164.176 427.591 164.185 427.679 164.224 427.755L170.063 439.228C172.631 444.275 172.01 450.356 168.477 454.781ZM338.411 462.504L347.88 549.618V620.32H297.379L291.382 549.618L284.753 482.073L338.411 462.504Z" stroke="#FFD88B" stroke-width="0.631264"/>
</mask>
<g mask="url(#mask0_695_55012)">
<path d="M149.141 97.4328L166.074 131.819L149.141 146.556L134.325 107.257L123.348 83.2362C111.881 58.1443 97.9155 34.2715 81.6623 11.9797C102.588 31.9206 121.109 54.2419 136.846 78.4884L149.141 97.4328Z" fill="#B0896D" stroke="#95694A" stroke-width="0.798651"/>
<g style="mix-blend-mode:color-burn">
<path d="M149.141 97.4328L166.074 131.819L149.141 146.556L134.325 107.257L123.348 83.2362C111.881 58.1443 97.9155 34.2715 81.6623 11.9797C102.588 31.9206 121.109 54.2419 136.846 78.4884L149.141 97.4328Z" fill="url(#paint0_linear_695_55012)"/>
<path d="M149.141 97.4328L166.074 131.819L149.141 146.556L134.325 107.257L123.348 83.2362C111.881 58.1443 97.9155 34.2715 81.6623 11.9797C102.588 31.9206 121.109 54.2419 136.846 78.4884L149.141 97.4328Z" stroke="#95694A" stroke-width="0.798651"/>
</g>
<path d="M149.141 97.4328L166.074 131.819L149.141 146.556L134.325 107.257L123.348 83.2362C111.881 58.1443 97.9155 34.2715 81.6623 11.9797C102.588 31.9206 121.109 54.2419 136.846 78.4884L149.141 97.4328Z" stroke="#95694A" stroke-width="0.798651"/>
<g style="mix-blend-mode:color-dodge" opacity="0.5">
<path d="M142.155 126.355L145.441 125.134C150.261 123.345 154.856 121 159.133 118.148V118.148M139.88 121.936L144.561 120.454C148.648 118.909 153.452 116.069 156.924 113.414M138.443 117.201L139.999 116.644C144.566 115.008 148.929 112.85 153.002 110.215L154.888 108.995M136.408 112.782L139.035 111.877C143.133 110.465 147.074 108.634 150.797 106.414L152.821 105.207M135.145 109.31L135.286 109.255C140.704 107.113 145.799 104.231 150.427 100.692L150.611 100.55M133.251 105.207L135.461 104.256C138.878 102.784 142.158 101.014 145.263 98.9645L148.717 96.6852M131.606 101.104L133.086 100.461C136.65 98.9133 140.063 97.0395 143.283 94.8638L146.192 92.8976M130.095 97.6321L131.153 97.1729C135.11 95.4565 138.88 93.3391 142.405 90.854L143.983 89.7413M127.886 93.2132V93.2132C132.77 91.4591 137.394 89.0509 141.631 86.0546L141.774 85.9537M126.308 89.11V89.11C130.814 87.4825 135.109 85.3187 139.099 82.6653L139.248 82.5662M124.411 85.0077V85.0077C128.48 83.3847 132.362 81.3283 135.991 78.8739L136.723 78.3785M122.517 81.2201V81.2201C126.49 79.7111 130.31 77.8249 133.923 75.5874L134.511 75.2231M120.939 77.4326L126.449 75.3366L132.618 72.0668M119.045 73.3294L119.11 73.3131C123.088 72.3058 126.895 70.7158 130.408 68.5949V68.5949M117.203 69.4825L118.812 69.1018C122.027 68.3417 125.115 67.1252 127.984 65.4892V65.4892M143.452 131.089L147.533 129.754C152.417 128.156 157.081 125.952 161.415 123.193V123.193M114.807 65.8886L119.998 64.2913L125.11 61.8953M112.81 61.8953L118.001 60.298L122.517 58.3014M110.813 58.3014L110.924 58.2737C114.039 57.4951 117.076 56.4351 119.998 55.1068V55.1068M109.615 54.7074V54.7074C112.272 54.1761 114.874 53.4025 117.39 52.3964L117.602 52.3115M107.619 51.9122L108.217 51.749C110.743 51.0601 113.213 50.1802 115.605 49.1169V49.1169M106.022 48.7175V48.7175C108.4 48.189 110.671 47.2591 112.737 45.9677L112.81 45.9223M104.025 45.523L104.887 45.2356C106.7 44.6312 108.425 43.7878 110.015 42.7277V42.7277M102.028 42.7277L102.89 42.4403C104.704 41.8359 106.428 40.9925 108.018 39.9324V39.9324M100.032 39.1337L102.827 38.3351L105.622 37.1371M98.035 35.9391V35.9391C99.6303 35.4074 101.186 34.7631 102.69 34.011L102.827 33.9425M96.0384 33.1439V33.1439C97.3673 32.6123 98.6516 31.9753 99.879 31.2388L100.032 31.1473M94.4411 30.3486L94.5839 30.2915C95.8144 29.7993 96.9748 29.1472 98.035 28.352V28.352M92.4444 27.154L94.0418 26.3553L95.2398 25.5567M90.4479 24.3587L92.8438 23.1607M88.8505 21.5634L90.4479 20.7648" stroke="#B18D74" stroke-width="0.378758"/>
</g>
<path d="M244.385 75.9585L241.594 117.518H224.151L231.826 75.9585L233.778 63.9509C237.54 40.8208 246.717 18.9078 260.561 0C253.979 19.1282 249.32 38.8646 246.652 58.9167L244.385 75.9585Z" fill="#B0896D" stroke="#95694A" stroke-width="0.798651"/>
<g style="mix-blend-mode:color-burn">
<path d="M244.385 75.9585L241.594 117.518H224.151L231.826 75.9585L233.778 63.9509C237.54 40.8208 246.717 18.9078 260.561 0C253.979 19.1282 249.32 38.8646 246.652 58.9167L244.385 75.9585Z" fill="url(#paint1_linear_695_55012)"/>
<path d="M244.385 75.9585L241.594 117.518H224.151L231.826 75.9585L233.778 63.9509C237.54 40.8208 246.717 18.9078 260.561 0C253.979 19.1282 249.32 38.8646 246.652 58.9167L244.385 75.9585Z" stroke="#95694A" stroke-width="0.798651"/>
</g>
<path d="M244.385 75.9585L241.594 117.518H224.151L231.826 75.9585L233.778 63.9509C237.54 40.8208 246.717 18.9078 260.561 0C253.979 19.1282 249.32 38.8646 246.652 58.9167L244.385 75.9585Z" stroke="#95694A" stroke-width="0.798651"/>
<g style="mix-blend-mode:color-dodge" opacity="0.5">
<path d="M242.774 102.368H241.539C236.71 102.368 231.909 101.622 227.308 100.158V100.158M243.089 97.6332H241.158C236.788 97.6332 232.441 96.9952 228.255 95.7394M243.089 92.5831V92.5831C238.897 92.5831 234.72 92.0689 230.653 91.0521L229.202 90.6893M243.405 87.8486V87.8486C239.001 87.8486 234.613 87.3334 230.329 86.3134L230.148 86.2705M244.036 83.7454H243.683C239.313 83.7454 234.966 83.1074 230.78 81.8516V81.8516M244.352 79.0109V79.0109C240.388 79.0109 236.395 78.6376 232.502 77.896L231.727 77.7484M244.983 74.9077L244.712 74.8934C240.903 74.6929 237.119 74.1476 233.408 73.264L232.358 73.0139M244.983 71.1201V71.1201C240.996 70.9103 237.04 70.2924 233.179 69.2762L232.989 69.2263M245.614 66.3856H245.29C241.324 66.3856 237.383 65.7462 233.62 64.4919V64.4919M246.246 61.9668H245.753C241.885 61.9668 238.028 61.5434 234.252 60.7043V60.7043M246.877 57.548L246.692 57.5382C242.824 57.3346 238.98 56.81 235.199 55.9698V55.9698M247.193 53.1291H246.96C243.334 53.1291 239.716 52.8123 236.145 52.1822V52.1822M247.782 49.5164L242.142 49.0259L237.001 48.3184M242.142 108.049L241.668 108.031C236.522 107.833 231.402 107.206 226.361 106.155V106.155M238.598 43.1272V43.1272C241.504 44.1839 244.572 44.7245 247.665 44.7245H248.98M239.933 38.7346V38.7346C242.489 39.5287 245.151 39.9326 247.827 39.9326H249.779M242.142 34.342V34.342C244.02 35.1327 246.037 35.54 248.074 35.54H250.578M243.789 29.9495V29.9495C245.621 30.9962 247.694 31.5468 249.804 31.5468H251.376M244.987 26.3555V26.3555C246.839 27.1492 248.805 27.6464 250.811 27.8288L252.175 27.9528M246.585 22.7616V22.7616C248.169 23.5536 249.884 24.0499 251.646 24.2261L252.974 24.3589M248.98 19.1677V19.1677C250.041 19.6981 251.163 20.0964 252.321 20.3537L254.172 20.765M250.578 15.9731V15.9731C251.636 16.5021 252.772 16.857 253.943 17.0243L254.97 17.1711M252.175 13.5771L255.769 14.7751M253.373 10.7818L256.967 11.9798M254.97 7.98657L257.766 8.78522" stroke="#B18D74" stroke-width="0.378758"/>
</g>
<path d="M219.725 293.889L221.407 289.353C224.494 281.029 230.084 273.866 237.408 268.848L171.278 200.845H131.177L139.5 221.399C144.626 234.058 145.926 247.943 143.238 261.334C142.236 266.328 140.689 271.198 138.627 275.856L120.624 316.521L105.474 346.035L182.173 371.917L221.942 351.717L217.021 324.469C215.169 314.217 216.103 303.656 219.725 293.889Z" fill="#FFEAB3" stroke="#FFD88B" stroke-width="0.631264"/>
<path d="M219.725 293.889L221.407 289.353C224.494 281.029 230.084 273.866 237.408 268.848L171.278 200.845H131.177L139.546 221.512C144.642 234.098 145.934 247.901 143.262 261.213C142.244 266.287 140.661 271.232 138.543 275.954L111.787 335.62L171.278 368.13L203.32 364.027L221.942 351.717L217.021 324.469C215.169 314.217 216.103 303.656 219.725 293.889Z" fill="url(#paint2_linear_695_55012)" stroke="#E7AC93" stroke-width="0.798651"/>
<path d="M310.036 163.61L307.585 162.607C299.003 159.094 289.819 157.288 280.547 157.288L278.44 174.851L284.057 200.845H292.665C298.145 200.845 303.611 200.271 308.971 199.133L316.439 197.548C321.483 196.478 326.271 194.435 330.535 191.534C337.732 186.637 343.122 179.51 345.873 171.251L347.248 167.123L344.556 167.402C332.91 168.607 321.142 167.315 310.036 163.61Z" fill="#FFEAB3" stroke="#FFD88B" stroke-width="0.798651"/>
<path d="M310.036 163.61L307.585 162.607C299.003 159.094 289.819 157.288 280.547 157.288L278.44 174.851L284.057 200.845H292.665C298.145 200.845 303.611 200.271 308.971 199.133L316.439 197.548C321.483 196.478 326.271 194.435 330.535 191.534C337.732 186.637 343.122 179.51 345.873 171.251L347.248 167.123L344.556 167.402C332.91 168.607 321.142 167.315 310.036 163.61Z" fill="url(#paint3_linear_695_55012)" stroke="#E7AC93" stroke-width="0.798651"/>
<path d="M305.105 177.195L287.726 173.7L282.859 191.872L293.138 192.61C299.231 193.047 305.354 192.603 311.32 191.291C320.055 189.37 328.286 185.625 335.473 180.301L337.779 178.593H326.656L305.105 177.195Z" fill="#FFC896" stroke="#D98F4B" stroke-width="0.631264"/>
<path d="M263.876 139.092L251.813 129.713C249.937 128.254 248.84 126.012 248.84 123.636C248.84 120.777 247.256 118.154 244.727 116.823L237.956 113.261C236.343 112.413 234.58 111.887 232.766 111.715L225.052 110.98C222.598 110.747 220.342 112.342 219.744 114.734C219.135 117.166 216.815 118.768 214.325 118.475L208.705 117.815C207.415 117.663 206.108 117.732 204.842 118.02L194.151 120.449C192.273 120.876 190.449 121.512 188.712 122.345L176.237 128.33C174.746 129.046 172.975 128.826 171.704 127.767C170.415 126.693 168.611 126.484 167.11 127.234L154.15 133.711L153.209 134.044C146.858 136.284 143.034 142.763 144.142 149.406C144.268 150.16 144.331 150.923 144.331 151.687V165.236C144.331 167.674 142.557 169.749 140.149 170.129L135.449 170.871C132.492 171.338 129.585 172.079 126.766 173.086C123.059 174.409 119.528 176.182 116.253 178.365L105.052 185.829C100.395 188.933 95.359 191.424 90.0669 193.243L86.9007 194.331C79.4632 196.886 71.5353 197.687 63.737 196.67L60.8916 196.299C59.9394 196.175 58.9995 195.971 58.0817 195.688L52.6142 194.007C51.1766 193.565 49.6164 193.792 48.3648 194.626C46.9713 195.555 46.1341 197.119 46.1341 198.793V202.161C46.1341 204.607 46.9275 206.986 48.3952 208.942L51.7636 213.432C53.6094 215.892 55.846 218.033 58.3846 219.769L62.9828 222.914C66.2386 225.141 69.6999 227.051 73.3194 228.619L79.169 231.153C85.6012 233.939 92.5364 235.376 99.5461 235.376H99.8654C103.313 235.376 106.751 235.007 110.121 234.275C117.398 232.694 124.211 229.451 130.027 224.799L142.227 215.043L154.497 204.45C156.004 203.149 158.349 203.794 158.978 205.683C159.033 205.846 159.072 206.015 159.096 206.185L160.604 217.115C161.437 223.155 163.438 228.975 166.493 234.251C168.543 237.791 171.046 241.048 173.939 243.939L183.292 253.289C188.584 258.578 194.964 262.652 201.989 265.227C208.83 267.734 216.125 268.763 223.392 268.244L232.006 267.629C242.579 267.629 253.15 269.775 262.868 273.939L286.716 286.559L288.139 287.192C295.577 290.496 303.404 292.845 311.432 294.183L311.821 294.248C311.918 294.264 312.016 294.269 312.113 294.263L316.843 293.985C321.325 293.722 325.479 291.55 328.253 288.021C330.425 285.257 331.606 281.844 331.606 278.329V274.109C331.606 274 331.649 273.896 331.726 273.819C333.918 271.627 335.299 268.755 335.642 265.673L336.226 260.418C336.419 258.685 336.453 256.938 336.329 255.198L335.178 239.086C335.136 238.507 334.864 237.968 334.423 237.591L294.224 203.231C289.327 199.046 285.772 193.511 284.002 187.317C283.942 187.11 283.953 186.889 284.031 186.688L288.61 174.993C289.661 172.308 289.876 169.369 289.227 166.56C288.509 163.448 286.77 160.665 284.287 158.656L276.962 152.728C274.59 150.81 272.48 148.588 270.686 146.122C268.757 143.47 266.465 141.104 263.876 139.092Z" fill="#FFEAB3" stroke="#FFD88B" stroke-width="0.798651"/>
<path d="M263.876 139.092L251.813 129.713C249.937 128.254 248.84 126.012 248.84 123.636C248.84 120.777 247.256 118.154 244.727 116.823L237.956 113.261C236.343 112.413 234.58 111.887 232.766 111.715L225.052 110.98C222.598 110.747 220.342 112.342 219.744 114.734C219.135 117.166 216.815 118.768 214.325 118.475L208.705 117.815C207.415 117.663 206.108 117.732 204.842 118.02L194.151 120.449C192.273 120.876 190.449 121.512 188.712 122.345L176.237 128.33C174.746 129.046 172.975 128.826 171.704 127.767C170.415 126.693 168.611 126.484 167.11 127.234L154.15 133.711L153.209 134.044C146.858 136.284 143.034 142.763 144.142 149.406C144.268 150.16 144.331 150.923 144.331 151.687V165.236C144.331 167.674 142.557 169.749 140.149 170.129L135.449 170.871C132.492 171.338 129.585 172.079 126.766 173.086C123.059 174.409 119.528 176.182 116.253 178.365L105.052 185.829C100.395 188.933 95.359 191.424 90.0669 193.243L86.9007 194.331C79.4632 196.886 71.5353 197.687 63.737 196.67L60.8916 196.299C59.9394 196.175 58.9995 195.971 58.0817 195.688L52.6142 194.007C51.1766 193.565 49.6164 193.792 48.3648 194.626C46.9713 195.555 46.1341 197.119 46.1341 198.793V202.161C46.1341 204.607 46.9275 206.986 48.3952 208.942L51.7636 213.432C53.6094 215.892 55.846 218.033 58.3846 219.769L62.9828 222.914C66.2386 225.141 69.6999 227.051 73.3194 228.619L79.169 231.153C85.6012 233.939 92.5364 235.376 99.5461 235.376H99.8654C103.313 235.376 106.751 235.007 110.121 234.275C117.398 232.694 124.211 229.451 130.027 224.799L142.227 215.043L154.497 204.45C156.004 203.149 158.349 203.794 158.978 205.683C159.033 205.846 159.072 206.015 159.096 206.185L160.604 217.115C161.437 223.155 163.438 228.975 166.493 234.251C168.543 237.791 171.046 241.048 173.939 243.939L183.292 253.289C188.584 258.578 194.964 262.652 201.989 265.227C208.83 267.734 216.125 268.763 223.392 268.244L232.006 267.629C242.579 267.629 253.15 269.775 262.868 273.939L286.716 286.559L288.139 287.192C295.577 290.496 303.404 292.845 311.432 294.183L311.821 294.248C311.918 294.264 312.016 294.269 312.113 294.263L316.843 293.985C321.325 293.722 325.479 291.55 328.253 288.021C330.425 285.257 331.606 281.844 331.606 278.329V274.109C331.606 274 331.649 273.896 331.726 273.819C333.918 271.627 335.299 268.755 335.642 265.673L336.226 260.418C336.419 258.685 336.453 256.938 336.329 255.198L335.178 239.086C335.136 238.507 334.864 237.968 334.423 237.591L294.224 203.231C289.327 199.046 285.772 193.511 284.002 187.317C283.942 187.11 283.953 186.889 284.031 186.688L288.61 174.993C289.661 172.308 289.876 169.369 289.227 166.56C288.509 163.448 286.77 160.665 284.287 158.656L276.962 152.728C274.59 150.81 272.48 148.588 270.686 146.122C268.757 143.47 266.465 141.104 263.876 139.092Z" fill="url(#paint4_linear_695_55012)" stroke="#E7AC93" stroke-width="0.798651"/>
<mask id="mask1_695_55012" style="mask-type:alpha" maskUnits="userSpaceOnUse" x="45" y="111" width="292" height="184">
<path d="M263.743 139.354L251.671 129.965C249.794 128.505 248.695 126.259 248.695 123.88C248.695 121.019 247.11 118.392 244.577 117.059L237.802 113.494C236.188 112.644 234.424 112.118 232.608 111.945L224.89 111.21C222.433 110.976 220.174 112.573 219.575 114.968C218.966 117.403 216.643 119.007 214.15 118.714L208.528 118.052C207.237 117.9 205.929 117.97 204.661 118.258L193.961 120.69C192.082 121.117 190.256 121.754 188.519 122.588L176.033 128.581C174.541 129.297 172.768 129.077 171.497 128.017C170.206 126.941 168.401 126.732 166.899 127.483L153.929 133.968L152.991 134.299C146.632 136.544 142.803 143.03 143.912 149.682C144.038 150.436 144.101 151.2 144.101 151.965V165.533C144.101 167.973 142.327 170.049 139.917 170.43L135.212 171.172C132.253 171.64 129.343 172.382 126.522 173.39C122.812 174.715 119.278 176.49 116 178.675L104.789 186.149C100.129 189.256 95.0896 191.75 89.7936 193.57L86.6238 194.66C79.1805 197.219 71.2461 198.02 63.4414 197.002L60.5938 196.631C59.6409 196.507 58.7002 196.302 57.7817 196.019L52.3105 194.336C50.8713 193.893 49.3092 194.121 48.0562 194.956C46.6619 195.886 45.8243 197.451 45.8243 199.126V202.5C45.8243 204.948 46.6184 207.331 48.0874 209.289L51.4578 213.783C53.3055 216.247 55.5446 218.39 58.086 220.129L62.6861 223.277C65.9449 225.506 69.4096 227.419 73.0327 228.989L78.8867 231.526C85.3237 234.316 92.2644 235.755 99.2798 235.755H99.5988C103.05 235.755 106.491 235.385 109.863 234.652C117.146 233.069 123.964 229.822 129.784 225.166L141.995 215.397L154.275 204.792C155.783 203.49 158.13 204.135 158.76 206.026C158.815 206.189 158.854 206.358 158.878 206.529L160.387 217.473C161.221 223.519 163.223 229.346 166.281 234.628C168.333 238.172 170.839 241.433 173.734 244.329L183.096 253.691C188.391 258.985 194.775 263.063 201.805 265.641C208.652 268.151 215.954 269.181 223.228 268.661L231.848 268.046C242.43 268.046 253.009 270.195 262.735 274.363L286.602 286.999L288.027 287.632C295.471 290.941 303.304 293.292 311.339 294.632L311.728 294.696C311.824 294.713 311.923 294.718 312.02 294.712L316.751 294.434C321.238 294.17 325.397 291.995 328.174 288.461C330.347 285.695 331.529 282.279 331.529 278.761V274.533C331.529 274.424 331.572 274.32 331.649 274.243C333.843 272.049 335.225 269.173 335.568 266.089L336.153 260.826C336.345 259.091 336.38 257.342 336.255 255.601L335.103 239.469C335.062 238.889 334.79 238.35 334.348 237.972L294.118 203.572C289.216 199.381 285.657 193.839 283.886 187.638C283.826 187.431 283.837 187.21 283.915 187.009L288.498 175.299C289.549 172.611 289.765 169.668 289.116 166.856C288.397 163.74 286.656 160.954 284.17 158.942L276.84 153.008C274.467 151.087 272.355 148.863 270.559 146.393C268.628 143.739 266.334 141.369 263.743 139.354Z" fill="#D9D9D9"/>
</mask>
<g mask="url(#mask1_695_55012)">
<rect opacity="0.5" width="112.247" height="43.7812" transform="matrix(-0.977972 0.208736 0.208736 0.977972 151.765 182.119)" fill="url(#paint5_linear_695_55012)"/>
<path d="M217.015 171.334L213.688 170.216C212.828 169.927 211.926 169.782 211.019 169.784L206.23 169.798C201.151 169.814 196.139 170.948 191.548 173.12L197.326 174.022C199.437 174.351 201.48 175.025 203.372 176.016C205.42 177.089 207.641 177.789 209.934 178.084L212.414 178.404L212.416 178.404L216.323 177.95C218.046 177.75 219.344 176.289 219.338 174.555C219.334 173.094 218.4 171.799 217.015 171.334Z" fill="url(#paint6_linear_695_55012)" stroke="#A0763E" stroke-width="0.631264"/>
<path d="M281.097 166.641L281.437 166.405C282.261 165.832 283.241 165.523 284.246 165.52L285.679 165.515C288.136 165.508 290.502 166.45 292.282 168.144L292.942 168.772L290.482 169.578C289.215 169.993 288.075 170.725 287.169 171.704C286.172 172.783 284.891 173.56 283.473 173.946L282.73 174.148C282.729 174.148 282.728 174.148 282.728 174.148L282.55 174.107C280.662 173.678 279.32 172.002 279.314 170.066C279.31 168.701 279.977 167.421 281.097 166.641Z" fill="url(#paint7_linear_695_55012)" stroke="#A0763E" stroke-width="0.631264"/>
<path d="M265.831 155.054L261.331 151.518L260.19 150.815C255.006 147.626 248.93 146.2 242.868 146.751L241.608 146.865C238.415 147.156 235.321 148.129 232.536 149.72L232.16 149.935C228.746 151.886 225.952 154.763 224.101 158.233C222.282 161.645 221.446 165.495 221.687 169.354L221.727 169.991C221.921 173.087 222.735 176.113 224.123 178.888L226.755 184.152C228.738 188.119 231.22 191.816 234.14 195.153L239.57 201.358C251.246 212.568 263.893 222.721 277.361 231.7L278.178 232.245L300.642 246.284L301.153 246.444C308.259 248.665 315.66 249.794 323.105 249.794C327.248 245.651 330.267 240.52 331.877 234.886L332.23 233.649L291.508 197.058C286.514 192.57 283.193 186.519 282.089 179.897C281.363 175.54 279.672 171.401 277.139 167.782L275.044 164.79C272.468 161.11 269.364 157.829 265.831 155.054Z" fill="#C8794D"/>
<path d="M265.831 155.054L261.331 151.518L260.19 150.815C255.006 147.626 248.93 146.2 242.868 146.751L241.608 146.865C238.415 147.156 235.321 148.129 232.536 149.72L232.16 149.935C228.746 151.886 225.952 154.763 224.101 158.233C222.282 161.645 221.446 165.495 221.687 169.354L221.727 169.991C221.921 173.087 222.735 176.113 224.123 178.888L226.755 184.152C228.738 188.119 231.22 191.816 234.14 195.153L239.57 201.358C251.246 212.568 263.893 222.721 277.361 231.7L278.178 232.245L300.642 246.284L301.153 246.444C308.259 248.665 315.66 249.794 323.105 249.794C327.248 245.651 330.267 240.52 331.877 234.886L332.23 233.649L291.508 197.058C286.514 192.57 283.193 186.519 282.089 179.897C281.363 175.54 279.672 171.401 277.139 167.782L275.044 164.79C272.468 161.11 269.364 157.829 265.831 155.054Z" fill="url(#paint8_linear_695_55012)"/>
</g>
<path d="M263.876 139.092L251.813 129.713C249.937 128.254 248.84 126.012 248.84 123.636C248.84 120.777 247.256 118.154 244.727 116.823L237.956 113.261C236.343 112.413 234.58 111.887 232.766 111.715L225.052 110.98C222.598 110.747 220.342 112.342 219.744 114.734C219.135 117.166 216.815 118.768 214.325 118.475L208.705 117.815C207.415 117.663 206.108 117.732 204.842 118.02L194.151 120.449C192.273 120.876 190.449 121.512 188.712 122.345L176.237 128.33C174.746 129.046 172.975 128.826 171.704 127.767C170.415 126.693 168.611 126.484 167.11 127.234L154.15 133.711L153.209 134.044C146.858 136.284 143.034 142.763 144.142 149.406C144.268 150.16 144.331 150.923 144.331 151.687V165.236C144.331 167.674 142.557 169.749 140.149 170.129L135.449 170.871C132.492 171.338 129.585 172.079 126.766 173.086C123.059 174.409 119.528 176.182 116.253 178.365L105.052 185.829C100.395 188.933 95.359 191.424 90.0669 193.243L86.9007 194.331C79.4632 196.886 71.5353 197.687 63.737 196.67L60.8916 196.299C59.9394 196.175 58.9995 195.971 58.0817 195.688L52.6142 194.007C51.1766 193.565 49.6164 193.792 48.3648 194.626C46.9713 195.555 46.1341 197.119 46.1341 198.793V202.161C46.1341 204.607 46.9275 206.986 48.3952 208.942L51.7636 213.432C53.6094 215.892 55.846 218.033 58.3846 219.769L62.9828 222.914C66.2386 225.141 69.6999 227.051 73.3194 228.619L79.169 231.153C85.6012 233.939 92.5364 235.376 99.5461 235.376H99.8654C103.313 235.376 106.751 235.007 110.121 234.275C117.398 232.694 124.211 229.451 130.027 224.799L142.227 215.043L154.497 204.45C156.004 203.149 158.349 203.794 158.978 205.683C159.033 205.846 159.072 206.015 159.096 206.185L160.604 217.115C161.437 223.155 163.438 228.975 166.493 234.251C168.543 237.791 171.046 241.048 173.939 243.939L183.292 253.289C188.584 258.578 194.964 262.652 201.989 265.227C208.83 267.734 216.125 268.763 223.392 268.244L232.006 267.629C242.579 267.629 253.15 269.775 262.868 273.939L286.716 286.559L288.139 287.192C295.577 290.496 303.404 292.845 311.432 294.183L311.821 294.248C311.918 294.264 312.016 294.269 312.113 294.263L316.843 293.985C321.325 293.722 325.479 291.55 328.253 288.021C330.425 285.257 331.606 281.844 331.606 278.329V274.109C331.606 274 331.649 273.896 331.726 273.819C333.918 271.627 335.299 268.755 335.642 265.673L336.226 260.418C336.419 258.685 336.453 256.938 336.329 255.198L335.178 239.086C335.136 238.507 334.864 237.968 334.423 237.591L294.224 203.231C289.327 199.046 285.772 193.511 284.002 187.317C283.942 187.11 283.953 186.889 284.031 186.688L288.61 174.993C289.661 172.308 289.876 169.369 289.227 166.56C288.509 163.448 286.77 160.665 284.287 158.656L276.962 152.728C274.59 150.81 272.48 148.588 270.686 146.122C268.757 143.47 266.465 141.104 263.876 139.092Z" stroke="#E7AC93" stroke-width="0.631264"/>
<path d="M127.868 204.856L135.037 201.719C141.904 198.714 149.168 196.719 156.605 195.794L152.4 199.28L145.391 204.856L132.774 216.705L125.8 221.906C122.987 224.004 119.89 225.692 116.602 226.918C112.464 228.461 108.083 229.251 103.666 229.251H99.5864C95.1004 229.251 90.6381 228.6 86.3392 227.318C81.3509 225.829 76.649 223.511 72.431 220.461L63.383 213.917L54.9719 207.644L62.949 211.043C67.4318 212.954 72.1002 214.396 76.8796 215.347L77.5259 215.475C81.6385 216.293 85.8215 216.705 90.0146 216.705H90.9696C96.8428 216.705 102.682 215.81 108.285 214.05C111.521 213.034 114.661 211.735 117.669 210.168L127.868 204.856Z" fill="#FFC896" stroke="#D98F4B" stroke-width="0.631264"/>
<path d="M304.257 272.25L291.762 267.16C290.664 266.712 289.602 266.184 288.583 265.578L269.729 254.367L270.904 257.818C273.248 264.706 277.501 270.785 283.166 275.35C287.156 278.565 291.75 280.949 296.676 282.362L302.648 284.074C305.055 284.765 307.546 285.115 310.05 285.115C315.204 285.115 320.249 283.632 324.582 280.842L325.495 280.255C328.409 278.38 330.764 275.755 332.313 272.656L333.631 270.021C329.66 270.42 325.838 268.258 324.156 264.59L322.945 261.95C321.45 270.45 312.423 275.577 304.257 272.25Z" fill="url(#paint9_radial_695_55012)" stroke="#E9ABCC" stroke-width="0.639312"/>
<path d="M219.242 197.266L226.676 204.815L217.109 209.673C211.452 212.545 205.007 213.477 198.768 212.325C190.172 210.738 182.755 205.347 178.592 197.661L177.437 195.529L180.547 193.423C186.701 189.257 194.167 187.49 201.535 188.456C208.254 189.336 214.487 192.437 219.242 197.266Z" fill="white" stroke="#FFC896" stroke-width="0.631264"/>
<path d="M204.163 189.949L205.528 189.167L213.261 192.185L219.653 197.708L226.676 204.632L216.26 210.314L209.868 212.385L202.965 212.571L201.53 210.956C199.461 208.627 198.176 205.707 197.858 202.608L197.826 202.303C197.701 201.087 197.752 199.86 197.976 198.659C198.663 194.989 200.924 191.806 204.163 189.949Z" fill="url(#paint10_linear_695_55012)"/>
<mask id="mask2_695_55012" style="mask-type:alpha" maskUnits="userSpaceOnUse" x="177" y="187" width="51" height="27">
<path d="M219.242 197.266L226.676 204.815L217.109 209.673C211.452 212.545 205.007 213.477 198.768 212.325C190.172 210.738 182.755 205.347 178.592 197.661L177.437 195.529L180.547 193.423C186.701 189.257 194.167 187.49 201.535 188.456C208.254 189.336 214.487 192.437 219.242 197.266Z" fill="white" stroke="#FFC896" stroke-width="0.631264"/>
</mask>
<g mask="url(#mask2_695_55012)">
<circle cx="3.47195" cy="3.47195" r="3.47195" transform="matrix(-1 0 0 1 203.612 194.472)" fill="white"/>
<g style="mix-blend-mode:soft-light">
<circle cx="1.99663" cy="1.99663" r="1.99663" transform="matrix(-1 0 0 1 204.677 198.879)" fill="white"/>
</g>
<g style="mix-blend-mode:soft-light">
<circle cx="1.19798" cy="1.19798" r="1.19798" transform="matrix(-1 0 0 1 207.85 196.981)" fill="white"/>
</g>
</g>
<path d="M219.242 197.266L226.676 204.815L217.109 209.673C211.452 212.545 205.007 213.477 198.768 212.325C190.172 210.738 182.755 205.347 178.592 197.661L177.437 195.529L180.547 193.423C186.701 189.257 194.167 187.49 201.535 188.456C208.254 189.336 214.487 192.437 219.242 197.266Z" stroke="#FFC896" stroke-width="0.631264"/>
<path d="M322.398 248.524L315.647 244.041C311.34 241.18 305.516 243.719 304.681 248.822C304.112 252.3 306.173 255.672 309.528 256.751L314.528 258.359C322.516 260.927 330.844 255.501 331.722 247.157L332.033 244.198C332.076 243.791 332.063 243.381 331.993 242.977C331.134 237.98 323.927 238.07 323.193 243.087L322.398 248.524Z" fill="#B0896D" stroke="#95694A" stroke-width="0.631264"/>
<path d="M322.398 248.524L315.647 244.041C311.34 241.18 305.516 243.719 304.681 248.822C304.112 252.3 306.173 255.672 309.528 256.751L314.528 258.359C322.516 260.927 330.844 255.501 331.722 247.157L332.033 244.198C332.076 243.791 332.063 243.381 331.993 242.977C331.134 237.98 323.927 238.07 323.193 243.087L322.398 248.524Z" fill="url(#paint11_linear_695_55012)" stroke="#95694A" stroke-width="0.631264"/>
<path d="M170.043 346.799L182.398 347.782C198.228 349.041 213.493 341.603 222.257 328.36H271.811H286.39C299.313 328.36 310.931 336.238 315.713 348.244L322.628 365.605L345.354 456.191C327.908 472.2 305.882 482.336 282.374 485.173L281.911 485.229V545.515V626.001H91.5853C96.6096 595.227 97.2069 563.893 93.3591 532.95L91.5853 518.686L85.7386 460.61L83.3789 489.017H78.7007C52.3146 489.017 26.093 484.863 0.998901 476.707L4.81516 394.994C5.83115 373.24 12.4088 352.11 23.9198 333.622C25.9882 330.301 29.4689 328.114 33.3594 327.693L114.626 318.891L138.087 335.314C147.526 341.921 158.558 345.886 170.043 346.799Z" fill="#FFFDC7"/>
<path d="M91.5853 390.224L85.7386 460.61M85.7386 460.61L83.3789 489.017H78.7007C52.3146 489.017 26.093 484.863 0.998889 476.707V476.707L4.81516 394.994C5.83115 373.24 12.4089 352.11 23.9198 333.622V333.622C25.9881 330.301 29.4689 328.114 33.3594 327.693L114.626 318.891L138.087 335.314C147.526 341.921 158.558 345.886 170.043 346.799L182.398 347.782C198.228 349.041 213.493 341.603 222.257 328.36V328.36H271.811H286.39C299.313 328.36 310.931 336.238 315.713 348.244L322.628 365.605L345.354 456.191V456.191C327.908 472.2 305.882 482.336 282.374 485.173L281.911 485.229M85.7386 460.61L91.5853 518.686L93.3591 532.95C97.2069 563.893 96.6096 595.227 91.5853 626.001V626.001H281.911V545.515V485.229M267.392 382.964V382.964C276.945 402.486 281.911 423.932 281.911 445.665V466.923V485.229" stroke="#B18D74" stroke-width="0.378758"/>
<path d="M170.043 346.799L182.398 347.782C198.228 349.041 213.493 341.603 222.257 328.36H271.811H286.39C299.313 328.36 310.931 336.238 315.713 348.244L322.628 365.605L345.354 456.191C327.908 472.2 305.882 482.336 282.374 485.173L281.911 485.229V545.515V626.001H91.5853C96.6096 595.227 97.2069 563.893 93.3591 532.95L91.5853 518.686L85.7386 460.61L83.3789 489.017H78.7007C52.3146 489.017 26.093 484.863 0.998901 476.707L4.81516 394.994C5.83115 373.24 12.4088 352.11 23.9198 333.622C25.9882 330.301 29.4689 328.114 33.3594 327.693L114.626 318.891L138.087 335.314C147.526 341.921 158.558 345.886 170.043 346.799Z" fill="url(#paint12_linear_695_55012)"/>
<g style="mix-blend-mode:color-burn">
<path d="M170.043 346.799L182.398 347.782C198.228 349.041 213.493 341.603 222.257 328.36H271.811H286.39C299.313 328.36 310.931 336.238 315.713 348.244L322.628 365.605L345.354 456.191C327.908 472.2 305.882 482.336 282.374 485.173L281.911 485.229V545.515V626.001H91.5853C96.6096 595.227 97.2069 563.893 93.3591 532.95L91.5853 518.686L85.7386 460.61L83.3789 489.017H78.7007C52.3146 489.017 26.093 484.863 0.998901 476.707L4.81516 394.994C5.83115 373.24 12.4088 352.11 23.9198 333.622C25.9882 330.301 29.4689 328.114 33.3594 327.693L114.626 318.891L138.087 335.314C147.526 341.921 158.558 345.886 170.043 346.799Z" fill="url(#paint13_linear_695_55012)"/>
<path d="M91.5853 390.224L85.7386 460.61M85.7386 460.61L83.3789 489.017H78.7007C52.3146 489.017 26.093 484.863 0.998889 476.707V476.707L4.81516 394.994C5.83115 373.24 12.4089 352.11 23.9198 333.622V333.622C25.9881 330.301 29.4689 328.114 33.3594 327.693L114.626 318.891L138.087 335.314C147.526 341.921 158.558 345.886 170.043 346.799L182.398 347.782C198.228 349.041 213.493 341.603 222.257 328.36V328.36H271.811H286.39C299.313 328.36 310.931 336.238 315.713 348.244L322.628 365.605L345.354 456.191V456.191C327.908 472.2 305.882 482.336 282.374 485.173L281.911 485.229M85.7386 460.61L91.5853 518.686L93.3591 532.95C97.2069 563.893 96.6096 595.227 91.5853 626.001V626.001H281.911V545.515V485.229M267.392 382.964V382.964C276.945 402.486 281.911 423.932 281.911 445.665V466.923V485.229" stroke="#C7FFDF" stroke-width="0.798651"/>
</g>
<path d="M301.48 332.147L297.294 334.939C294.408 336.863 291.676 339.008 289.124 341.357L284.877 345.264C274.875 354.466 268.833 367.188 268.023 380.755V380.755" stroke="#7CB998" stroke-width="0.441885"/>
<path d="M28.7742 329.307V329.307C46.4099 327.127 64.0166 333.571 76.0787 346.62L76.5561 347.137C86.2185 357.59 91.585 371.301 91.585 385.536V390.855" stroke="#7CB998" stroke-width="0.441885"/>
<path d="M347.879 549.618L338.41 462.504L284.752 482.073L291.381 549.618L297.378 620.32H347.879V549.618Z" fill="#FFEAB3"/>
<path d="M12.9791 480.788L19.7676 519.921L27.3006 555.508C29.9597 568.07 35.607 579.806 43.7641 589.723C49.0317 596.127 55.2639 601.672 62.237 606.158L62.904 606.588C63.6613 607.075 64.6194 607.126 65.4247 606.723L66.5146 606.178C80.2653 599.292 92.9244 590.415 104.083 579.833L115.41 569.091C126.434 558.635 136.526 547.238 145.572 535.03L159.132 516.727L168.544 503.572L178.394 491.89L187.397 483.27C195.243 475.758 201.919 467.113 207.204 457.623C211.233 452.145 210.741 444.562 206.037 439.651L203.247 436.737L187.891 418.568C186.076 416.421 184.051 414.459 181.848 412.711L169.213 402.693C167.207 401.102 164.591 400.499 162.09 401.051C159.357 401.655 157.096 403.563 156.041 406.156L152.343 415.251C152.282 413.945 151.356 412.714 149.877 412.47C149.351 412.384 148.811 412.442 148.315 412.638L144.911 413.986C142.047 415.12 139.633 417.16 138.038 419.794C136.758 421.907 136.055 424.319 136 426.788L135.755 437.726C135.56 446.42 137.428 455.037 141.206 462.87L146.701 474.266C146.756 474.38 146.761 474.511 146.715 474.628C142.994 484.091 135.002 490.977 127.297 497.616L127.178 497.719L99.6428 521.446C90.3493 529.454 82.008 538.505 74.7833 548.42C74.5805 548.698 74.1415 548.504 74.2115 548.167L77.6698 531.502L78.8678 510.338V489.573L42.5292 486.777L12.9791 480.788Z" fill="#FFEAB3"/>
<path d="M152.343 415.251L156.041 406.156C157.096 403.563 159.357 401.655 162.09 401.051C164.591 400.499 167.207 401.102 169.213 402.693L181.848 412.711C184.051 414.459 186.076 416.421 187.891 418.568L203.247 436.737L206.037 439.651C210.741 444.562 211.233 452.145 207.204 457.623C201.919 467.113 195.243 475.758 187.397 483.27L178.394 491.89L168.544 503.572L159.132 516.727L145.572 535.03C136.526 547.238 126.434 558.635 115.41 569.091L104.083 579.833C92.9244 590.415 80.2653 599.292 66.5146 606.178L65.4247 606.723C64.6195 607.126 63.6613 607.075 62.904 606.588L62.237 606.158C55.2639 601.672 49.0317 596.127 43.7641 589.723V589.723C35.607 579.806 29.9597 568.07 27.3006 555.508L19.7676 519.921L12.9791 480.788L42.5292 486.777L78.8678 489.573V510.338L77.6698 531.502L74.2115 548.167C74.1415 548.504 74.5805 548.698 74.7833 548.42V548.42C82.008 538.505 90.3493 529.454 99.6428 521.446L127.178 497.719C134.92 491.048 142.975 484.139 146.715 474.628V474.628C146.761 474.511 146.756 474.38 146.701 474.266L141.206 462.87C137.428 455.037 135.56 446.42 135.755 437.726L136 426.788C136.055 424.319 136.758 421.907 138.038 419.794C139.633 417.16 142.047 415.12 144.911 413.986L148.315 412.638C148.811 412.442 149.351 412.384 149.877 412.47C151.356 412.714 152.282 413.945 152.343 415.251ZM152.343 415.251L151.417 417.53M152.343 415.251C152.379 415.995 152.133 416.764 151.55 417.388L151.417 417.53M151.417 417.53V417.53C152.626 429.341 156.364 440.754 162.376 450.993L164.419 454.472M164.419 454.472C165.133 455.687 166.736 456.027 167.881 455.207L168.476 454.781M164.419 454.472C165.245 455.749 166.936 455.613 168.476 454.781M168.476 454.781L180.582 444.794C180.906 444.527 180.968 444.054 180.723 443.713L166.523 423.895C166.131 423.348 165.278 423.502 165.103 424.153L164.197 427.509C164.175 427.591 164.184 427.679 164.223 427.755L170.062 439.228C172.63 444.275 172.009 450.356 168.476 454.781ZM338.41 462.504L347.879 549.618V620.32H297.378L291.381 549.618L284.752 482.073L338.41 462.504Z" stroke="#FFD88B" stroke-width="0.631264"/>
<path d="M165.102 424.153L164.197 427.509C164.175 427.591 164.184 427.679 164.223 427.754L170.061 439.228C172.629 444.275 172.009 450.356 168.475 454.78L180.582 444.794C180.906 444.526 180.967 444.054 180.723 443.712L166.523 423.895C166.13 423.348 165.278 423.502 165.102 424.153Z" fill="#AD7C66"/>
<path d="M168.475 454.78L180.582 444.794C180.906 444.526 180.967 444.054 180.723 443.712L166.523 423.895C166.13 423.348 165.278 423.502 165.102 424.153L164.197 427.509C164.175 427.591 164.184 427.679 164.223 427.754L170.061 439.228C172.629 444.275 172.009 450.356 168.475 454.78ZM168.475 454.78L167.881 455.207" stroke="#835E6D" stroke-width="0.631264"/>
<path d="M173.508 434.066L168.317 435.664L164.723 427.677L165.47 424.688C165.64 424.008 166.542 423.861 166.918 424.453L168.716 427.278L173.508 434.066Z" fill="url(#paint14_linear_695_55012)" stroke="#E7AC93" stroke-width="0.798651"/>
<path d="M173.508 434.066L168.317 435.664L164.723 427.677L165.47 424.688C165.64 424.008 166.542 423.861 166.918 424.453L168.716 427.278L173.508 434.066Z" fill="url(#paint15_linear_695_55012)" stroke="#E7AC93" stroke-width="0.798651"/>
<path d="M347.879 549.618L338.41 462.504L284.752 482.073L291.381 549.618L297.378 620.32H347.879V549.618Z" fill="url(#paint16_linear_695_55012)"/>
<path d="M12.9791 480.788L19.7676 519.921L27.3006 555.508C29.9597 568.07 35.607 579.806 43.7641 589.723C49.0317 596.127 55.2639 601.672 62.237 606.158L62.904 606.588C63.6613 607.075 64.6194 607.126 65.4247 606.723L66.5146 606.178C80.2653 599.292 92.9244 590.415 104.083 579.833L115.41 569.091C126.434 558.635 136.526 547.238 145.572 535.03L159.132 516.727L168.544 503.572L178.394 491.89L187.397 483.27C195.243 475.758 201.919 467.113 207.204 457.623C211.233 452.145 210.741 444.562 206.037 439.651L203.247 436.737L187.891 418.568C186.076 416.421 184.051 414.459 181.848 412.711L169.213 402.693C167.207 401.102 164.591 400.499 162.09 401.051C159.357 401.655 157.096 403.563 156.041 406.156L152.343 415.251C152.282 413.945 151.356 412.714 149.877 412.47C149.351 412.384 148.811 412.442 148.315 412.638L144.911 413.986C142.047 415.12 139.633 417.16 138.038 419.794C136.758 421.907 136.055 424.319 136 426.788L135.755 437.726C135.56 446.42 137.428 455.037 141.206 462.87L146.701 474.266C146.756 474.38 146.761 474.511 146.715 474.628C142.997 484.084 135.015 490.97 127.319 497.609L127.184 497.726L98.8516 522.169C89.8195 529.962 81.7303 538.784 74.7488 548.456C74.5558 548.724 74.1344 548.538 74.2014 548.215L77.6698 531.502L78.8678 510.338V489.573L42.5292 486.777L12.9791 480.788Z" fill="url(#paint17_linear_695_55012)"/>
<path d="M152.343 415.251L156.041 406.156C157.096 403.563 159.357 401.655 162.09 401.051C164.591 400.499 167.207 401.102 169.213 402.693L181.848 412.711C184.051 414.459 186.076 416.421 187.891 418.568L203.247 436.737L206.037 439.651C210.741 444.562 211.233 452.145 207.204 457.623C201.919 467.113 195.243 475.758 187.397 483.27L178.394 491.89L168.544 503.572L159.132 516.727L145.572 535.03C136.526 547.238 126.434 558.635 115.41 569.091L104.083 579.833C92.9244 590.415 80.2653 599.292 66.5146 606.178L65.4247 606.723C64.6195 607.126 63.6613 607.075 62.904 606.588L62.237 606.158C55.2639 601.672 49.0317 596.127 43.7641 589.723V589.723C35.607 579.806 29.9597 568.07 27.3006 555.508L19.7676 519.921L12.9791 480.788L42.5292 486.777L78.8678 489.573V510.338L77.6698 531.502L74.2014 548.215C74.1344 548.538 74.5558 548.724 74.7489 548.456V548.456C81.7303 538.784 89.8195 529.962 98.8516 522.169L127.184 497.726C134.922 491.05 142.975 484.139 146.715 474.628V474.628C146.761 474.511 146.756 474.38 146.701 474.266L141.206 462.87C137.428 455.037 135.56 446.42 135.755 437.726L136 426.788C136.055 424.319 136.758 421.907 138.038 419.794C139.633 417.16 142.047 415.12 144.911 413.986L148.315 412.638C148.811 412.442 149.351 412.384 149.877 412.47C151.356 412.714 152.282 413.945 152.343 415.251ZM152.343 415.251L151.417 417.53M152.343 415.251C152.379 415.995 152.133 416.764 151.55 417.388L151.417 417.53M151.417 417.53L155.139 435.264M155.139 435.264L164.323 454.432C165.149 455.708 166.217 455.554 167.717 455.314M155.139 435.264L164.419 454.472C165.133 455.687 166.736 456.027 167.881 455.207L167.717 455.314M167.717 455.314L180.582 444.794C180.906 444.527 180.968 444.054 180.723 443.713L166.523 423.895C166.131 423.348 165.278 423.502 165.103 424.153L164.197 427.509C164.175 427.591 164.184 427.679 164.223 427.755L170.062 439.228C172.63 444.275 171.251 450.89 167.717 455.314ZM338.41 462.504L347.879 549.618V620.32H297.378L291.381 549.618L284.752 482.073L338.41 462.504Z" stroke="#FFD88B" stroke-width="0.798651"/>
<path d="M347.879 549.618L338.41 462.504L284.752 482.073L291.381 549.618L297.378 620.32H347.879V549.618Z" fill="url(#paint18_linear_695_55012)"/>
<path d="M12.9791 480.788L19.7676 519.921L27.3006 555.508C29.9597 568.07 35.607 579.806 43.7641 589.723C49.0317 596.127 55.2639 601.672 62.237 606.158L62.904 606.588C63.6613 607.075 64.6194 607.126 65.4247 606.723L66.5146 606.178C80.2653 599.292 92.9244 590.415 104.083 579.833L115.41 569.091C126.434 558.635 136.526 547.238 145.572 535.03L159.132 516.727L168.544 503.572L178.394 491.89L187.397 483.27C195.243 475.758 201.919 467.113 207.204 457.623C211.233 452.145 210.741 444.562 206.037 439.651L203.247 436.737L187.891 418.568C186.076 416.421 184.051 414.459 181.848 412.711L169.213 402.693C167.207 401.102 164.591 400.499 162.09 401.051C159.357 401.655 157.096 403.563 156.041 406.156L152.343 415.251C152.282 413.945 151.356 412.714 149.877 412.47C149.351 412.384 148.811 412.442 148.315 412.638L144.911 413.986C142.047 415.12 139.633 417.16 138.038 419.794C136.758 421.907 136.055 424.319 136 426.788L135.755 437.726C135.56 446.42 137.428 455.037 141.206 462.87L146.701 474.266C146.756 474.38 146.761 474.511 146.715 474.628C142.997 484.084 135.015 490.97 127.319 497.609L127.184 497.726L98.8516 522.169C89.8195 529.962 81.7303 538.784 74.7488 548.456C74.5558 548.724 74.1344 548.538 74.2014 548.215L77.6698 531.502L78.8678 510.338V489.573L42.5292 486.777L12.9791 480.788Z" fill="url(#paint19_linear_695_55012)"/>
<path d="M152.343 415.251L156.041 406.156C157.096 403.563 159.357 401.655 162.09 401.051C164.591 400.499 167.207 401.102 169.213 402.693L181.848 412.711C184.051 414.459 186.076 416.421 187.891 418.568L203.247 436.737L206.037 439.651C210.741 444.562 211.233 452.145 207.204 457.623C201.919 467.113 195.243 475.758 187.397 483.27L178.394 491.89L168.544 503.572L159.132 516.727L145.572 535.03C136.526 547.238 126.434 558.635 115.41 569.091L104.083 579.833C92.9244 590.415 80.2653 599.292 66.5146 606.178L65.4247 606.723C64.6195 607.126 63.6613 607.075 62.904 606.588L62.237 606.158C55.2639 601.672 49.0317 596.127 43.7641 589.723V589.723C35.607 579.806 29.9597 568.07 27.3006 555.508L19.7676 519.921L12.9791 480.788L42.5292 486.777L78.8678 489.573V510.338L77.6698 531.502L74.2014 548.215C74.1344 548.538 74.5558 548.724 74.7489 548.456V548.456C81.7303 538.784 89.8195 529.962 98.8516 522.169L127.184 497.726C134.922 491.05 142.975 484.139 146.715 474.628V474.628C146.761 474.511 146.756 474.38 146.701 474.266L141.206 462.87C137.428 455.037 135.56 446.42 135.755 437.726L136 426.788C136.055 424.319 136.758 421.907 138.038 419.794C139.633 417.16 142.047 415.12 144.911 413.986L148.315 412.638C148.811 412.442 149.351 412.384 149.877 412.47C151.356 412.714 152.282 413.945 152.343 415.251ZM152.343 415.251L151.417 417.53M152.343 415.251C152.379 415.995 152.133 416.764 151.55 417.388L151.417 417.53M151.417 417.53L155.139 435.264M155.139 435.264L164.277 454.231C165.103 455.507 166.719 455.63 168.476 454.781M155.139 435.264L164.419 454.472C165.133 455.687 166.736 456.027 167.881 455.207L168.476 454.781M168.476 454.781L180.582 444.794C180.906 444.527 180.968 444.054 180.723 443.713L166.523 423.895C166.131 423.348 165.278 423.502 165.103 424.153L164.197 427.509C164.175 427.591 164.184 427.679 164.223 427.755L170.062 439.228C172.63 444.275 172.009 450.356 168.476 454.781ZM338.41 462.504L347.879 549.618V620.32H297.378L291.381 549.618L284.752 482.073L338.41 462.504Z" stroke="#E7AC93" stroke-width="0.798651"/>
<g style="mix-blend-mode:color-dodge" opacity="0.5">
<ellipse cx="272.141" cy="124.19" rx="71.4792" ry="55.1069" fill="#FF6636"/>
</g>
<g style="mix-blend-mode:soft-light">
<rect x="-118.453" y="-7.5" width="626" height="838" fill="#003EDC"/>
</g>
<g style="mix-blend-mode:soft-light">
<rect x="-118.453" y="-1.5" width="627" height="832" fill="#FFBB36"/>
</g>
<g style="mix-blend-mode:color-burn" opacity="0.5">
<rect x="-118.453" y="-1.5" width="627" height="832" fill="#B4A2FF"/>
</g>
</g>
<defs>
<linearGradient id="paint0_linear_695_55012" x1="151.001" y1="16.3921" x2="141.458" y2="161.161" gradientUnits="userSpaceOnUse">
<stop stop-color="#572908"/>
<stop offset="1" stop-color="#956645" stop-opacity="0"/>
</linearGradient>
<linearGradient id="paint1_linear_695_55012" x1="254.059" y1="3.85305" x2="237.411" y2="128.599" gradientUnits="userSpaceOnUse">
<stop stop-color="#572908"/>
<stop offset="1" stop-color="#956645" stop-opacity="0"/>
</linearGradient>
<linearGradient id="paint2_linear_695_55012" x1="222.226" y1="248.38" x2="97.3372" y2="271.735" gradientUnits="userSpaceOnUse">
<stop stop-color="#B4815C"/>
<stop offset="1" stop-color="#F8C99E" stop-opacity="0"/>
</linearGradient>
<linearGradient id="paint3_linear_695_55012" x1="278.132" y1="179.297" x2="347.603" y2="200.896" gradientUnits="userSpaceOnUse">
<stop stop-color="#9A6A47"/>
<stop offset="1" stop-color="#F8C99E" stop-opacity="0"/>
</linearGradient>
<linearGradient id="paint4_linear_695_55012" x1="163.924" y1="116.603" x2="286.517" y2="281.524" gradientUnits="userSpaceOnUse">
<stop stop-color="#B4815C"/>
<stop offset="1" stop-color="#F8C99E" stop-opacity="0"/>
</linearGradient>
<linearGradient id="paint5_linear_695_55012" x1="54.1762" y1="45.6681" x2="45.9856" y2="11.2513" gradientUnits="userSpaceOnUse">
<stop offset="0.229641" stop-color="#D9A557"/>
<stop offset="1" stop-color="#D9A557" stop-opacity="0"/>
</linearGradient>
<linearGradient id="paint6_linear_695_55012" x1="218.843" y1="173.712" x2="184.191" y2="180.646" gradientUnits="userSpaceOnUse">
<stop stop-color="#80571A"/>
<stop offset="1" stop-color="#F8C99E"/>
</linearGradient>
<linearGradient id="paint7_linear_695_55012" x1="279.555" y1="169.484" x2="297.066" y2="171.125" gradientUnits="userSpaceOnUse">
<stop stop-color="#80571A"/>
<stop offset="1" stop-color="#F8C99E"/>
</linearGradient>
<linearGradient id="paint8_linear_695_55012" x1="248.139" y1="145.925" x2="332.097" y2="262.077" gradientUnits="userSpaceOnUse">
<stop stop-color="#6A421C"/>
<stop offset="0.723573" stop-color="#6A421C" stop-opacity="0"/>
</linearGradient>
<radialGradient id="paint9_radial_695_55012" cx="0" cy="0" r="1" gradientUnits="userSpaceOnUse" gradientTransform="translate(322.629 277.228) rotate(-96.009) scale(6.03014 17.761)">
<stop offset="0.302083" stop-color="#E9ABCC"/>
<stop offset="1" stop-color="#D13982"/>
</radialGradient>
<linearGradient id="paint10_linear_695_55012" x1="217.522" y1="192.954" x2="204.266" y2="212.839" gradientUnits="userSpaceOnUse">
<stop stop-color="#184409"/>
<stop offset="1" stop-color="#C1F9AD"/>
</linearGradient>
<linearGradient id="paint11_linear_695_55012" x1="326.732" y1="239.352" x2="308.11" y2="268.074" gradientUnits="userSpaceOnUse">
<stop stop-color="#530F00"/>
<stop offset="1" stop-color="#B0896D" stop-opacity="0"/>
</linearGradient>
<linearGradient id="paint12_linear_695_55012" x1="275.914" y1="318.891" x2="39.1904" y2="638.942" gradientUnits="userSpaceOnUse">
<stop stop-color="#39D5A6"/>
<stop offset="1" stop-color="#DCFFE6" stop-opacity="0"/>
</linearGradient>
<linearGradient id="paint13_linear_695_55012" x1="275.914" y1="318.891" x2="39.1904" y2="638.942" gradientUnits="userSpaceOnUse">
<stop stop-color="#30C0ED"/>
<stop offset="1" stop-color="#DCFFE6" stop-opacity="0"/>
</linearGradient>
<linearGradient id="paint14_linear_695_55012" x1="165.921" y1="425.281" x2="184.518" y2="432.436" gradientUnits="userSpaceOnUse">
<stop stop-color="#B4815C"/>
<stop offset="1" stop-color="#F8C99E" stop-opacity="0"/>
</linearGradient>
<linearGradient id="paint15_linear_695_55012" x1="165.921" y1="425.281" x2="190.637" y2="436.226" gradientUnits="userSpaceOnUse">
<stop stop-color="#7E502E"/>
<stop offset="1" stop-color="#F8C99E" stop-opacity="0"/>
</linearGradient>
<linearGradient id="paint16_linear_695_55012" x1="251.776" y1="414.899" x2="195.7" y2="509.211" gradientUnits="userSpaceOnUse">
<stop stop-color="#B4815C"/>
<stop offset="1" stop-color="#F8C99E" stop-opacity="0"/>
</linearGradient>
<linearGradient id="paint17_linear_695_55012" x1="251.776" y1="414.899" x2="195.7" y2="509.211" gradientUnits="userSpaceOnUse">
<stop stop-color="#B4815C"/>
<stop offset="1" stop-color="#F8C99E" stop-opacity="0"/>
</linearGradient>
<linearGradient id="paint18_linear_695_55012" x1="12.9791" y1="569.038" x2="185.153" y2="405.207" gradientUnits="userSpaceOnUse">
<stop stop-color="#B4815C"/>
<stop offset="1" stop-color="#F8C99E" stop-opacity="0"/>
</linearGradient>
<linearGradient id="paint19_linear_695_55012" x1="12.9791" y1="569.038" x2="185.153" y2="405.207" gradientUnits="userSpaceOnUse">
<stop stop-color="#B4815C"/>
<stop offset="1" stop-color="#F8C99E" stop-opacity="0"/>
</linearGradient>
</defs>
</svg>
