<svg width="378" height="681" viewBox="0 0 378 681" fill="none" xmlns="http://www.w3.org/2000/svg">
<mask id="mask0_695_54707" style="mask-type:alpha" maskUnits="userSpaceOnUse" x="0" y="0" width="365" height="665">
<path d="M230.098 316.754L231.86 312.004C235.093 303.285 240.948 295.782 248.619 290.526L179.353 219.299H137.352L146.117 240.946C151.455 254.128 152.808 268.586 150.01 282.53C148.943 287.844 147.285 293.023 145.067 297.969L117.042 360.464L179.353 394.515L212.915 390.217L232.42 377.324L227.265 348.784C225.326 338.046 226.304 326.985 230.098 316.754Z" fill="#D9A557" stroke="#FFD88B" stroke-width="0.661193"/>
<g style="mix-blend-mode:color-burn">
<path d="M178.061 372.173L191.002 373.203C207.583 374.522 223.572 366.731 232.751 352.86H284.655H299.925C313.461 352.86 325.629 361.111 330.638 373.686L337.881 391.87L361.684 486.751C343.411 503.519 320.34 514.136 295.719 517.108L295.234 517.166V580.31V664.612H95.8841C101.147 632.379 101.772 599.56 97.7419 567.15L95.8841 552.209L89.7601 491.38L87.2885 521.133H82.3886C54.7515 521.133 27.2867 516.782 1.00287 508.24L5.00006 422.653C6.06424 399.867 12.9538 377.735 25.0104 358.372C27.1769 354.892 30.8227 352.602 34.8976 352.161L120.018 342.942L144.591 360.143C154.477 367.063 166.032 371.217 178.061 372.173Z" fill="#D9A557"/>
<path d="M95.8841 417.657L89.7601 491.38M89.7601 491.38L87.2885 521.133H82.3886C54.7515 521.133 27.2867 516.782 1.00287 508.24V508.24L5.00007 422.653C6.06423 399.867 12.9538 377.735 25.0105 358.372V358.372C27.1769 354.892 30.8227 352.602 34.8976 352.161L120.018 342.942L144.591 360.143C154.477 367.063 166.032 371.217 178.061 372.173L191.002 373.203C207.583 374.522 223.572 366.731 232.751 352.86V352.86H284.655H299.925C313.461 352.86 325.629 361.111 330.638 373.686L337.881 391.87L361.684 486.751V486.751C343.411 503.519 320.34 514.136 295.719 517.108L295.234 517.166M89.7601 491.38L95.8841 552.209L97.7419 567.15C101.772 599.56 101.147 632.379 95.8841 664.612V664.612H295.234V580.31V517.166M280.026 410.053V410.053C290.032 430.5 295.234 452.963 295.234 475.727V497.992V517.166" stroke="#C7FFDF" stroke-width="0.396716"/>
</g>
<path d="M364.328 584.608L354.41 493.363L298.209 513.86L305.151 584.608L311.433 658.661H364.328V584.608Z" fill="#FFEAB3"/>
<path d="M13.5505 512.514L20.6609 553.503L28.551 590.777C31.3362 603.935 37.2512 616.227 45.795 626.614C51.3124 633.321 57.8401 639.129 65.1437 643.829L65.8423 644.278C66.6355 644.789 67.6391 644.843 68.4825 644.42L69.6241 643.849C84.0268 636.637 97.286 627.339 108.973 616.255L120.837 605.004C132.385 594.052 142.955 582.115 152.429 569.328L166.633 550.157L176.49 536.379L186.808 524.142L196.238 515.114C204.456 507.246 211.449 498.191 216.983 488.251C221.204 482.513 220.689 474.571 215.762 469.427L212.839 466.375L196.755 447.345C194.854 445.095 192.734 443.04 190.426 441.21L177.192 430.717C175.09 429.051 172.35 428.419 169.731 428.997C166.869 429.629 164.5 431.629 163.396 434.344L159.522 443.87C159.457 442.502 158.488 441.213 156.939 440.958C156.387 440.867 155.822 440.928 155.302 441.134L151.737 442.546C148.738 443.733 146.21 445.87 144.538 448.629C143.198 450.842 142.462 453.368 142.404 455.955L142.147 467.411C141.944 476.517 143.9 485.542 147.856 493.747L153.613 505.683C153.67 505.802 153.675 505.94 153.627 506.063C149.73 515.973 141.359 523.186 133.288 530.141L133.163 530.248L104.323 555.1C94.5889 563.488 85.8521 572.968 78.2848 583.353C78.0724 583.644 77.6126 583.441 77.6859 583.088L81.3082 565.633L82.563 543.465V521.716L44.5016 518.788L13.5505 512.514Z" fill="#FFEAB3"/>
<path d="M159.522 443.87L163.396 434.344C164.5 431.629 166.869 429.629 169.731 428.997C172.35 428.419 175.09 429.051 177.192 430.717L190.426 441.21C192.734 443.04 194.854 445.095 196.755 447.345L212.839 466.375L215.762 469.427C220.689 474.571 221.204 482.513 216.983 488.251C211.449 498.191 204.456 507.246 196.238 515.114L186.808 524.142L176.49 536.379L166.633 550.157L152.429 569.328C142.955 582.115 132.385 594.052 120.837 605.004L108.973 616.255C97.286 627.339 84.0268 636.637 69.6241 643.849L68.4825 644.42C67.6391 644.843 66.6355 644.789 65.8423 644.278L65.1437 643.829C57.8401 639.129 51.3124 633.321 45.795 626.614V626.614C37.2512 616.227 31.3362 603.935 28.551 590.777L20.6609 553.503L13.5505 512.514L44.5016 518.788L82.563 521.716V543.465L81.3082 565.633L77.6859 583.088C77.6126 583.441 78.0724 583.644 78.2848 583.353V583.353C85.8521 572.968 94.5889 563.488 104.323 555.1L133.163 530.248C141.272 523.261 149.709 516.025 153.627 506.063V506.063C153.675 505.94 153.67 505.802 153.613 505.683L147.856 493.747C143.9 485.542 141.944 476.517 142.147 467.411L142.404 455.955C142.462 453.368 143.198 450.842 144.538 448.629C146.21 445.87 148.738 443.733 151.737 442.546L155.302 441.134C155.822 440.928 156.387 440.867 156.939 440.958C158.488 441.213 159.457 442.502 159.522 443.87ZM159.522 443.87L158.551 446.257M159.522 443.87C159.559 444.649 159.302 445.455 158.691 446.108L158.551 446.257M158.551 446.257V446.257C159.818 458.629 163.733 470.583 170.03 481.306L172.171 484.951M172.171 484.951C172.918 486.224 174.597 486.58 175.796 485.72L176.419 485.274M172.171 484.951C173.035 486.288 174.806 486.146 176.419 485.274M176.419 485.274L189.1 474.814C189.439 474.534 189.503 474.039 189.247 473.681L174.374 452.925C173.963 452.351 173.07 452.513 172.886 453.194L171.938 456.709C171.915 456.795 171.924 456.887 171.965 456.967L178.08 468.984C180.77 474.27 180.121 480.64 176.419 485.274ZM354.41 493.363L364.328 584.608V658.661H311.433L305.151 584.608L298.209 513.86L354.41 493.363Z" stroke="#FFD88B" stroke-width="0.661193"/>
<path d="M308.632 208.342L306.365 206.743C298.428 201.145 289.477 197.146 280.011 194.972L273.742 212.407L273.381 240.259L282.168 242.278C287.762 243.563 293.476 244.259 299.215 244.355L307.21 244.488C312.61 244.578 317.977 243.615 323.009 241.654C331.505 238.342 338.678 232.331 343.424 224.545L345.795 220.654L342.981 220.307C330.811 218.807 319.1 214.727 308.632 208.342Z" fill="#D9A557" stroke="#FFD88B" stroke-width="0.661193"/>
<path d="M267.26 172.488L257.145 160.085C255.572 158.156 254.978 155.61 255.535 153.184C256.206 150.266 255.204 147.217 252.934 145.266L246.857 140.041C245.41 138.797 243.734 137.847 241.922 137.246L234.22 134.687C231.77 133.873 229.092 134.973 227.921 137.274C226.729 139.614 223.985 140.706 221.512 139.823L215.93 137.83C214.648 137.373 213.298 137.138 211.938 137.134L200.455 137.107C198.437 137.102 196.426 137.323 194.458 137.766L180.32 140.951C178.63 141.332 176.873 140.692 175.824 139.314C174.76 137.914 172.968 137.278 171.26 137.692L156.511 141.265L155.473 141.383C148.464 142.181 143.041 147.898 142.614 154.939C142.566 155.739 142.451 156.532 142.272 157.312L139.095 171.144C138.523 173.632 136.226 175.335 133.679 175.158L128.707 174.813C125.579 174.596 122.437 174.671 119.323 175.038C115.229 175.519 111.209 176.501 107.353 177.962L94.1688 182.955C88.6876 185.031 82.9621 186.393 77.1334 187.008L73.6461 187.376C65.4544 188.241 57.1737 187.2 49.4515 184.333L46.6338 183.287C45.6909 182.937 44.7793 182.508 43.9086 182.004L38.7216 179.006C37.3578 178.217 35.7118 178.083 34.2385 178.641C32.5982 179.263 31.3769 180.663 30.9841 182.372L30.1944 185.81C29.6209 188.307 29.8729 190.922 30.9124 193.263L33.2981 198.636C34.6054 201.58 36.3867 204.29 38.5709 206.657L42.5274 210.946C45.3288 213.983 48.4142 216.744 51.7414 219.194L57.1186 223.152C63.0314 227.505 69.7739 230.598 76.9296 232.242L77.2555 232.317C80.7752 233.126 84.3713 233.555 87.9825 233.598C95.7821 233.69 103.497 231.977 110.525 228.593L125.267 221.494L140.277 213.558C142.12 212.584 144.362 213.792 144.562 215.867C144.58 216.047 144.58 216.228 144.564 216.408L143.541 227.919C142.975 234.28 143.652 240.69 145.535 246.793C146.797 250.887 148.589 254.798 150.864 258.428L158.219 270.166C162.38 276.807 167.938 282.462 174.505 286.737C180.901 290.901 188.107 293.661 195.647 294.836L204.585 296.228C215.378 298.707 225.665 303.378 234.609 309.907L255.994 328.382L257.299 329.362C264.117 334.479 271.556 338.713 279.438 341.961L279.819 342.118C279.914 342.157 280.013 342.185 280.114 342.202L285.007 343.028C289.644 343.81 294.394 342.567 298.053 339.615C300.919 337.303 302.925 334.096 303.749 330.507L304.739 326.199C304.764 326.088 304.833 325.992 304.929 325.932C307.681 324.208 309.765 321.6 310.837 318.535L312.665 313.307C313.269 311.583 313.713 309.807 313.994 308.002L316.597 291.285C316.691 290.684 316.54 290.071 316.178 289.582L283.199 245.08C279.182 239.659 276.85 233.175 276.496 226.437C276.484 226.212 276.546 225.989 276.674 225.802L284.09 214.937C285.792 212.443 286.701 209.493 286.698 206.473C286.694 203.128 285.572 199.88 283.508 197.247L277.42 189.477C275.449 186.962 273.816 184.2 272.563 181.261C271.216 178.103 269.431 175.149 267.26 172.488Z" fill="#FCFFE9" stroke="#FFD88B" stroke-width="0.661193"/>
<path d="M159.906 103.056L169.128 142.129L148.387 153.203L142.478 109.611L136.905 82.5156C131.083 54.2122 122.425 26.5674 111.061 2.32112e-05C127.747 25.2633 141.418 52.3925 151.797 80.8342L159.906 103.056Z" fill="#D9D9D9"/>
<path d="M262.167 103.469L249.572 145.24L231.766 141.149L249.347 100.524L254.156 88.7245C263.42 65.9948 277.926 45.7775 296.492 29.7224C285.288 47.7056 275.904 66.7604 268.478 86.6043L262.167 103.469Z" fill="#B0896D"/>
</mask>
<g mask="url(#mask0_695_54707)">
<path d="M230.096 316.754L231.858 312.004C235.091 303.285 240.946 295.782 248.617 290.526L179.351 219.299H144.418L149.719 241.755C152.736 254.537 152.96 267.82 150.375 280.697C149.064 287.23 147.042 293.6 144.344 299.694L126.296 340.459L110.428 371.373L190.763 398.482L232.418 377.324L227.263 348.784C225.324 338.046 226.302 326.985 230.096 316.754Z" fill="#FFEAB3" stroke="#FFD88B" stroke-width="0.661193"/>
<path d="M230.096 316.754L231.858 312.004C235.091 303.285 240.946 295.782 248.617 290.526L179.351 219.299H145.614L150.371 242.228C152.962 254.717 153.004 267.6 150.494 280.106C149.104 287.031 146.944 293.779 144.054 300.224L117.04 360.464L179.351 394.515L212.913 390.217L232.418 377.324L227.263 348.784C225.324 338.046 226.302 326.985 230.096 316.754Z" fill="url(#paint0_linear_695_54707)" stroke="#E7AC93" stroke-width="0.836515"/>
<path d="M159.906 103.056L169.128 142.129L148.387 153.203L142.478 109.611L136.905 82.5156C131.083 54.2122 122.425 26.5674 111.061 2.32112e-05C127.747 25.2633 141.418 52.3925 151.797 80.8342L159.906 103.056Z" fill="#B0896D" stroke="#95694A" stroke-width="0.836515"/>
<g style="mix-blend-mode:color-burn">
<path d="M159.906 103.056L169.128 142.129L148.387 153.203L142.478 109.611L136.905 82.5156C131.083 54.2122 122.425 26.5674 111.061 2.32112e-05C127.747 25.2633 141.418 52.3925 151.797 80.8342L159.906 103.056Z" fill="url(#paint1_linear_695_54707)"/>
<path d="M159.906 103.056L169.128 142.129L148.387 153.203L142.478 109.611L136.905 82.5156C131.083 54.2122 122.425 26.5674 111.061 2.32112e-05C127.747 25.2633 141.418 52.3925 151.797 80.8342L159.906 103.056Z" stroke="#95694A" stroke-width="0.836515"/>
</g>
<path d="M159.906 103.056L169.128 142.129L148.387 153.203L142.478 109.611L136.905 82.5156C131.083 54.2122 122.425 26.5674 111.061 2.32112e-05C127.747 25.2633 141.418 52.3925 151.797 80.8342L159.906 103.056Z" stroke="#95694A" stroke-width="0.836515"/>
<g style="mix-blend-mode:color-dodge" opacity="0.5">
<path d="M145.992 130.942L149.632 130.467C154.972 129.77 160.212 128.454 165.248 126.546V126.546M144.705 125.898L149.831 125.483C154.366 124.864 159.936 123.091 164.103 121.195M144.349 120.728L146.068 120.523C151.114 119.924 156.074 118.745 160.849 117.01L163.06 116.207M143.307 115.739L146.201 115.431C150.716 114.95 155.169 114.006 159.49 112.613L161.838 111.855M142.833 111.899L142.989 111.875C149.022 110.959 154.899 109.212 160.453 106.684L160.675 106.583M141.862 107.266L144.34 106.813C148.173 106.112 151.937 105.074 155.588 103.71L159.648 102.194M141.144 102.692L142.805 102.383C146.807 101.638 150.731 100.526 154.527 99.0599L157.959 97.735M140.416 98.7933L141.604 98.5728C146.045 97.7483 150.391 96.471 154.571 94.7606L156.443 93.9949M139.197 93.7643V93.7643C144.594 93.1189 149.879 91.7449 154.907 89.6798L155.076 89.6103M138.548 89.2056V89.2056C143.53 88.601 148.422 87.3993 153.117 85.6264L153.293 85.5601M137.574 84.5731V84.5731C142.108 83.8705 146.554 82.6817 150.833 81.0271L151.697 80.6931M136.529 80.2626V80.2626C140.939 79.6539 145.28 78.624 149.493 77.1873L150.179 76.9534M135.806 76.0261L141.922 75.1785L148.986 73.2872M134.835 71.3933L134.905 71.3918C139.202 71.2964 143.461 70.5662 147.545 69.2249V69.2249M133.856 67.0342L135.589 67.0231C139.048 67.0009 142.486 66.4833 145.799 65.4862V65.4862M146.205 136.079L150.685 135.673C156.045 135.187 161.323 134.031 166.394 132.231V132.231M132.253 62.8036L137.927 62.3904L143.707 61.1433M131.151 58.259L136.825 57.8458L141.904 56.8666M129.956 54.122L130.076 54.1197C133.437 54.0553 136.786 53.6854 140.081 53.0147V53.0147M129.576 50.1723V50.1723C132.412 50.2529 135.25 50.0735 138.054 49.6362L138.29 49.5993M128.193 46.8506L128.842 46.8244C131.582 46.7135 134.31 46.3944 137.001 45.87V45.87M127.312 43.215V43.215C129.864 43.2332 132.4 42.8164 134.812 41.9827L134.897 41.9534M126.023 39.4856L126.97 39.3944C128.963 39.2027 130.921 38.7461 132.793 38.0368V38.0368M124.64 36.1639L125.587 36.0727C127.58 35.881 129.538 35.4244 131.41 34.7151V34.7151M123.444 32.0269L126.485 31.8672L129.62 31.2997M122.155 28.2976V28.2976C123.909 28.1289 125.648 27.8359 127.359 27.4209L127.515 27.3831M120.773 24.9759V24.9759C122.254 24.7449 123.714 24.3958 125.14 23.9319L125.317 23.8742M119.798 21.7479L119.957 21.7231C121.328 21.5092 122.666 21.1156 123.935 20.5525V20.5525M118.509 18.0185L120.326 17.5778L121.737 17.0435M117.126 14.6969L119.853 14.0358M116.151 11.4688L117.969 11.0281" stroke="#B18D74" stroke-width="0.396716"/>
</g>
<path d="M262.167 103.469L249.572 145.24L231.766 141.149L249.347 100.524L254.156 88.7245C263.42 65.9948 277.926 45.7775 296.492 29.7224C285.288 47.7056 275.904 66.7604 268.478 86.6043L262.167 103.469Z" fill="#B0896D" stroke="#95694A" stroke-width="0.836515"/>
<g style="mix-blend-mode:color-burn">
<path d="M262.167 103.469L249.572 145.24L231.766 141.149L249.347 100.524L254.156 88.7245C263.42 65.9948 277.926 45.7775 296.492 29.7224C285.288 47.7056 275.904 66.7604 268.478 86.6043L262.167 103.469Z" fill="url(#paint2_linear_695_54707)"/>
<path d="M262.167 103.469L249.572 145.24L231.766 141.149L249.347 100.524L254.156 88.7245C263.42 65.9948 277.926 45.7775 296.492 29.7224C285.288 47.7056 275.904 66.7604 268.478 86.6043L262.167 103.469Z" stroke="#95694A" stroke-width="0.836515"/>
</g>
<path d="M262.167 103.469L249.572 145.24L231.766 141.149L249.347 100.524L254.156 88.7245C263.42 65.9948 277.926 45.7775 296.492 29.7224C285.288 47.7056 275.904 66.7604 268.478 86.6043L262.167 103.469Z" stroke="#95694A" stroke-width="0.836515"/>
<g style="mix-blend-mode:color-dodge" opacity="0.5">
<path d="M254.329 130.05L253.068 129.761C248.139 128.628 243.413 126.742 239.059 124.168V124.168M255.762 125.291L253.79 124.839C249.329 123.814 245.041 122.143 241.062 119.879M256.946 120.136V120.136C252.666 119.153 248.523 117.649 244.609 115.657L243.213 114.946M258.378 115.377V115.377C253.883 114.344 249.524 112.789 245.39 110.744L245.216 110.657M259.985 111.337L259.624 111.254C255.163 110.229 250.875 108.558 246.896 106.295V106.295M261.417 106.577V106.577C257.371 105.648 253.382 104.331 249.582 102.66L248.825 102.328M263.024 102.537L262.75 102.459C258.909 101.361 255.175 99.9168 251.594 98.1446L250.58 97.643M263.912 98.6704V98.6704C259.891 97.5211 255.998 95.9628 252.294 94.0199L252.112 93.9245M265.667 93.9853L265.336 93.9094C261.287 92.9792 257.414 91.4024 253.867 89.2395V89.2395M267.347 89.6225L266.844 89.507C262.896 88.5999 259.058 87.2633 255.4 85.5211V85.5211M269.028 85.2597L268.841 85.2063C264.941 84.0915 261.139 82.6545 257.477 80.9101V80.9101M270.386 80.8228L270.149 80.7683C266.448 79.9181 262.828 78.7461 259.331 77.2657V77.2657M271.836 77.2733L266.193 75.4499L261.11 73.522M252.352 135.702L251.872 135.572C246.666 134.164 241.586 132.322 236.686 130.068V130.068M263.958 68.5972V68.5972C266.677 70.3574 269.683 71.6288 272.839 72.3539L274.182 72.6625M266.351 64.4263V64.4263C268.774 65.8363 271.397 66.8727 274.129 67.5004L276.121 67.9581M269.637 60.4603V60.4603C271.368 61.7078 273.331 62.5965 275.411 63.0742L277.967 63.6613M272.348 56.3625V56.3625C273.972 57.8605 275.96 58.9088 278.113 59.4035L279.718 59.7722M274.414 52.9746V52.9746C276.118 54.2191 278.008 55.1876 280.013 55.8443L281.377 56.2908M276.887 49.6804V49.6804C278.318 50.8604 279.953 51.7692 281.71 52.3624L283.035 52.8093M280.176 46.5735V46.5735C281.134 47.3638 282.186 48.0335 283.308 48.5677L285.1 49.4214M282.555 43.687V43.687C283.511 44.4751 284.588 45.1039 285.744 45.5492L286.758 45.94M284.748 41.6157L288.136 43.6814M286.626 39.0431L290.014 41.1088M288.912 36.5642L291.578 38.035" stroke="#B18D74" stroke-width="0.396716"/>
</g>
<path d="M308.63 208.341L306.363 206.743C298.426 201.144 289.475 197.146 280.009 194.972L273.74 212.407L273.379 240.259L282.166 242.278C287.76 243.563 293.474 244.259 299.213 244.355L307.208 244.488C312.608 244.578 317.975 243.615 323.007 241.653C331.503 238.342 338.676 232.331 343.422 224.545L345.793 220.654L342.979 220.307C330.809 218.806 319.098 214.727 308.63 208.341Z" fill="#FFEAB3" stroke="#FFD88B" stroke-width="0.836515"/>
<path d="M308.63 208.341L306.363 206.743C298.426 201.144 289.475 197.146 280.009 194.972L273.74 212.407L273.379 240.259L282.166 242.278C287.76 243.563 293.474 244.259 299.213 244.355L307.208 244.488C312.608 244.578 317.975 243.615 323.007 241.653C331.503 238.342 338.676 232.331 343.422 224.545L345.793 220.654L342.979 220.307C330.809 218.806 319.098 214.727 308.63 208.341Z" fill="url(#paint3_linear_695_54707)" stroke="#E7AC93" stroke-width="0.836515"/>
<path d="M300.41 221.053L283.488 213.41L274.259 230.818L284.579 233.982C290.696 235.858 297.051 236.84 303.449 236.9C312.816 236.987 322.096 235.094 330.681 231.345L333.437 230.142L322.082 227.533L300.41 221.053Z" fill="#FFC896" stroke="#D98F4B" stroke-width="0.661193"/>
<path d="M267.26 172.488L257.145 160.085C255.572 158.156 254.978 155.61 255.535 153.184C256.206 150.266 255.204 147.217 252.934 145.266L246.857 140.041C245.41 138.797 243.734 137.847 241.922 137.246L234.22 134.687C231.77 133.873 229.092 134.973 227.921 137.274C226.729 139.614 223.985 140.706 221.512 139.823L215.93 137.83C214.648 137.373 213.298 137.138 211.938 137.134L200.455 137.107C198.437 137.102 196.426 137.323 194.458 137.766L180.32 140.951C178.63 141.332 176.873 140.692 175.824 139.314C174.76 137.914 172.968 137.278 171.26 137.692L156.511 141.265L155.473 141.383C148.464 142.181 143.041 147.898 142.614 154.939C142.566 155.739 142.451 156.532 142.272 157.312L139.095 171.144C138.523 173.632 136.226 175.335 133.679 175.158L128.707 174.813C125.579 174.596 122.437 174.671 119.323 175.038C115.229 175.519 111.209 176.501 107.353 177.962L94.1688 182.955C88.6876 185.031 82.9621 186.393 77.1334 187.008L73.6461 187.376C65.4544 188.241 57.1737 187.2 49.4515 184.333L46.6338 183.287C45.6909 182.937 44.7793 182.508 43.9086 182.004L38.7216 179.006C37.3578 178.217 35.7118 178.083 34.2385 178.641C32.5982 179.263 31.3769 180.663 30.9841 182.372L30.1944 185.81C29.6209 188.307 29.8729 190.922 30.9124 193.263L33.2981 198.636C34.6054 201.58 36.3867 204.29 38.5709 206.657L42.5274 210.946C45.3288 213.983 48.4142 216.744 51.7414 219.194L57.1186 223.152C63.0314 227.505 69.7739 230.598 76.9296 232.242L77.2555 232.317C80.7752 233.126 84.3713 233.555 87.9825 233.598C95.7821 233.69 103.497 231.977 110.525 228.593L125.267 221.494L140.277 213.558C142.12 212.584 144.362 213.792 144.562 215.867C144.58 216.047 144.58 216.228 144.564 216.408L143.541 227.919C142.975 234.28 143.652 240.69 145.535 246.793C146.797 250.887 148.589 254.798 150.864 258.428L158.219 270.166C162.38 276.807 167.938 282.462 174.505 286.737C180.901 290.901 188.107 293.661 195.647 294.836L204.585 296.228C215.378 298.707 225.665 303.378 234.609 309.907L255.994 328.382L257.299 329.362C264.117 334.479 271.556 338.713 279.438 341.961L279.819 342.118C279.914 342.157 280.013 342.185 280.114 342.202L285.007 343.028C289.644 343.81 294.394 342.567 298.053 339.615C300.919 337.303 302.925 334.096 303.749 330.507L304.739 326.199C304.764 326.088 304.833 325.992 304.929 325.932C307.681 324.208 309.765 321.6 310.837 318.535L312.665 313.307C313.269 311.583 313.713 309.807 313.994 308.002L316.597 291.285C316.691 290.684 316.54 290.071 316.178 289.582L283.199 245.08C279.182 239.659 276.85 233.175 276.496 226.437C276.484 226.212 276.546 225.989 276.674 225.802L284.09 214.937C285.792 212.443 286.701 209.493 286.698 206.473C286.694 203.128 285.572 199.88 283.508 197.247L277.42 189.477C275.449 186.962 273.816 184.2 272.563 181.261C271.216 178.103 269.431 175.149 267.26 172.488Z" fill="#FFEAB3" stroke="#FFD88B" stroke-width="0.836515"/>
<path d="M267.26 172.488L257.145 160.085C255.572 158.156 254.978 155.61 255.535 153.184C256.206 150.266 255.204 147.217 252.934 145.266L246.857 140.041C245.41 138.797 243.734 137.847 241.922 137.246L234.22 134.687C231.77 133.873 229.092 134.973 227.921 137.274C226.729 139.614 223.985 140.706 221.512 139.823L215.93 137.83C214.648 137.373 213.298 137.138 211.938 137.134L200.455 137.107C198.437 137.102 196.426 137.323 194.458 137.766L180.32 140.951C178.63 141.332 176.873 140.692 175.824 139.314C174.76 137.914 172.968 137.278 171.26 137.692L156.511 141.265L155.473 141.383C148.464 142.181 143.041 147.898 142.614 154.939C142.566 155.739 142.451 156.532 142.272 157.312L139.095 171.144C138.523 173.632 136.226 175.335 133.679 175.158L128.707 174.813C125.579 174.596 122.437 174.671 119.323 175.038C115.229 175.519 111.209 176.501 107.353 177.962L94.1688 182.955C88.6876 185.031 82.9621 186.393 77.1334 187.008L73.6461 187.376C65.4544 188.241 57.1737 187.2 49.4515 184.333L46.6338 183.287C45.6909 182.937 44.7793 182.508 43.9086 182.004L38.7216 179.006C37.3578 178.217 35.7118 178.083 34.2385 178.641C32.5982 179.263 31.3769 180.663 30.9841 182.372L30.1944 185.81C29.6209 188.307 29.8729 190.922 30.9124 193.263L33.2981 198.636C34.6054 201.58 36.3867 204.29 38.5709 206.657L42.5274 210.946C45.3288 213.983 48.4142 216.744 51.7414 219.194L57.1186 223.152C63.0314 227.505 69.7739 230.598 76.9296 232.242L77.2555 232.317C80.7752 233.126 84.3713 233.555 87.9825 233.598C95.7821 233.69 103.497 231.977 110.525 228.593L125.267 221.494L140.277 213.558C142.12 212.584 144.362 213.792 144.562 215.867C144.58 216.047 144.58 216.228 144.564 216.408L143.541 227.919C142.975 234.28 143.652 240.69 145.535 246.793C146.797 250.887 148.589 254.798 150.864 258.428L158.219 270.166C162.38 276.807 167.938 282.462 174.505 286.737C180.901 290.901 188.107 293.661 195.647 294.836L204.585 296.228C215.378 298.707 225.665 303.378 234.609 309.907L255.994 328.382L257.299 329.362C264.117 334.479 271.556 338.713 279.438 341.961L279.819 342.118C279.914 342.157 280.013 342.185 280.114 342.202L285.007 343.028C289.644 343.81 294.394 342.567 298.053 339.615C300.919 337.303 302.925 334.096 303.749 330.507L304.739 326.199C304.764 326.088 304.833 325.992 304.929 325.932C307.681 324.208 309.765 321.6 310.837 318.535L312.665 313.307C313.269 311.583 313.713 309.807 313.994 308.002L316.597 291.285C316.691 290.684 316.54 290.071 316.178 289.582L283.199 245.08C279.182 239.659 276.85 233.175 276.496 226.437C276.484 226.212 276.546 225.989 276.674 225.802L284.09 214.937C285.792 212.443 286.701 209.493 286.698 206.473C286.694 203.128 285.572 199.88 283.508 197.247L277.42 189.477C275.449 186.962 273.816 184.2 272.563 181.261C271.216 178.103 269.431 175.149 267.26 172.488Z" fill="url(#paint4_linear_695_54707)" stroke="#E7AC93" stroke-width="0.836515"/>
<path d="M267.26 172.488L257.145 160.085C255.572 158.156 254.978 155.61 255.535 153.184C256.206 150.266 255.204 147.217 252.934 145.266L246.857 140.041C245.41 138.797 243.734 137.847 241.922 137.246L234.22 134.687C231.77 133.873 229.092 134.973 227.921 137.274C226.729 139.614 223.985 140.706 221.512 139.823L215.93 137.83C214.648 137.373 213.298 137.138 211.938 137.134L200.455 137.107C198.437 137.102 196.426 137.323 194.458 137.766L180.32 140.951C178.63 141.332 176.873 140.692 175.824 139.314C174.76 137.914 172.968 137.278 171.26 137.692L156.511 141.265L155.473 141.383C148.464 142.181 143.041 147.898 142.614 154.939C142.566 155.739 142.451 156.532 142.272 157.312L139.095 171.144C138.523 173.632 136.226 175.335 133.679 175.158L128.707 174.813C125.579 174.596 122.437 174.671 119.323 175.038C115.229 175.519 111.209 176.501 107.353 177.962L94.1688 182.955C88.6876 185.031 82.9621 186.393 77.1334 187.008L73.6461 187.376C65.4544 188.241 57.1737 187.2 49.4515 184.333L46.6338 183.287C45.6909 182.937 44.7793 182.508 43.9086 182.004L38.7216 179.006C37.3578 178.217 35.7118 178.083 34.2385 178.641C32.5982 179.263 31.3769 180.663 30.9841 182.372L30.1944 185.81C29.6209 188.307 29.8729 190.922 30.9124 193.263L33.2981 198.636C34.6054 201.58 36.3867 204.29 38.5709 206.657L42.5274 210.946C45.3288 213.983 48.4142 216.744 51.7414 219.194L57.1186 223.152C63.0314 227.505 69.7739 230.598 76.9296 232.242L77.2555 232.317C80.7752 233.126 84.3713 233.555 87.9825 233.598C95.7821 233.69 103.497 231.977 110.525 228.593L125.267 221.494L140.277 213.558C142.12 212.584 144.362 213.792 144.562 215.867C144.58 216.047 144.58 216.228 144.564 216.408L143.541 227.919C142.975 234.28 143.652 240.69 145.535 246.793C146.797 250.887 148.589 254.798 150.864 258.428L158.219 270.166C162.38 276.807 167.938 282.462 174.505 286.737C180.901 290.901 188.107 293.661 195.647 294.836L204.585 296.228C215.378 298.707 225.665 303.378 234.609 309.907L255.994 328.382L257.299 329.362C264.117 334.479 271.556 338.713 279.438 341.961L279.819 342.118C279.914 342.157 280.013 342.185 280.114 342.202L285.007 343.028C289.644 343.81 294.394 342.567 298.053 339.615C300.919 337.303 302.925 334.096 303.749 330.507L304.739 326.199C304.764 326.088 304.833 325.992 304.929 325.932C307.681 324.208 309.765 321.6 310.837 318.535L312.665 313.307C313.269 311.583 313.713 309.807 313.994 308.002L316.597 291.285C316.691 290.684 316.54 290.071 316.178 289.582L283.199 245.08C279.182 239.659 276.85 233.175 276.496 226.437C276.484 226.212 276.546 225.989 276.674 225.802L284.09 214.937C285.792 212.443 286.701 209.493 286.698 206.473C286.694 203.128 285.572 199.88 283.508 197.247L277.42 189.477C275.449 186.962 273.816 184.2 272.563 181.261C271.216 178.103 269.431 175.149 267.26 172.488Z" fill="url(#paint5_linear_695_54707)" stroke="#E7AC93" stroke-width="0.836515"/>
<mask id="mask1_695_54707" style="mask-type:alpha" maskUnits="userSpaceOnUse" x="29" y="134" width="288" height="210">
<path d="M267.063 172.725L256.941 160.309C255.367 158.378 254.772 155.828 255.33 153.4C256.001 150.479 254.998 147.426 252.726 145.471L246.646 140.243C245.197 138.997 243.519 138.046 241.706 137.444L234 134.884C231.547 134.068 228.866 135.169 227.693 137.473C226.501 139.816 223.753 140.909 221.277 140.025L215.693 138.031C214.41 137.574 213.059 137.338 211.697 137.335L200.204 137.308C198.186 137.303 196.173 137.525 194.203 137.969L180.053 141.159C178.362 141.54 176.603 140.9 175.554 139.52C174.488 138.119 172.695 137.482 170.985 137.897L156.224 141.475L155.189 141.593C148.172 142.393 142.742 148.117 142.314 155.167C142.266 155.967 142.151 156.761 141.972 157.542L138.79 171.393C138.218 173.883 135.92 175.587 133.371 175.41L128.394 175.065C125.263 174.848 122.119 174.924 119.002 175.291C114.904 175.773 110.881 176.757 107.023 178.219L93.8249 183.22C88.3398 185.298 82.6102 186.662 76.7771 187.279L73.2857 187.648C65.0874 188.514 56.7998 187.472 49.0714 184.602L46.2515 183.555C45.3079 183.205 44.3956 182.776 43.5243 182.272L38.3339 179.27C36.9686 178.481 35.3206 178.347 33.8457 178.906C32.2043 179.528 30.9823 180.929 30.5893 182.64L29.7982 186.083C29.2241 188.583 29.4761 191.201 30.5164 193.545L32.9031 198.922C34.2115 201.871 35.9945 204.584 38.1811 206.955L42.1389 211.247C44.9428 214.287 48.031 217.053 51.3614 219.505L56.7424 223.467C62.6593 227.824 69.4071 230.921 76.5685 232.566L76.8942 232.641C80.4171 233.45 84.0166 233.88 87.631 233.922C95.4368 234.014 103.158 232.298 110.191 228.91L124.947 221.801L139.969 213.855C141.814 212.879 144.059 214.089 144.259 216.166C144.276 216.346 144.277 216.527 144.261 216.707L143.236 228.234C142.669 234.601 143.346 241.018 145.229 247.127C146.493 251.226 148.286 255.143 150.563 258.778L157.924 270.53C162.087 277.177 167.648 282.837 174.22 287.117C180.621 291.285 187.834 294.048 195.381 295.224L204.325 296.617C215.127 299.098 225.422 303.773 234.373 310.309L255.775 328.804L257.081 329.785C263.904 334.908 271.348 339.146 279.236 342.397L279.618 342.554C279.713 342.593 279.812 342.622 279.913 342.639L284.807 343.464C289.45 344.247 294.205 343.002 297.869 340.045C300.736 337.731 302.743 334.521 303.568 330.93L304.56 326.614C304.585 326.503 304.654 326.407 304.75 326.347C307.505 324.621 309.59 322.01 310.663 318.942L312.494 313.706C313.098 311.98 313.543 310.203 313.825 308.396L316.431 291.659C316.525 291.057 316.374 290.442 316.011 289.953L283.01 245.403C278.989 239.975 276.656 233.483 276.302 226.738C276.29 226.512 276.352 226.289 276.48 226.102L283.903 215.223C285.607 212.726 286.517 209.772 286.514 206.749C286.511 203.4 285.387 200.148 283.321 197.511L277.23 189.734C275.258 187.216 273.624 184.451 272.369 181.509C271.021 178.346 269.235 175.39 267.063 172.725Z" fill="#D9D9D9"/>
</mask>
<g mask="url(#mask1_695_54707)">
<rect opacity="0.5" width="117.568" height="45.8569" transform="matrix(-0.99988 -0.0155174 -0.0155174 0.99988 142.723 190.121)" fill="url(#paint6_linear_695_54707)"/>
<path d="M207.459 188.446L203.784 188.337C202.834 188.309 201.886 188.437 200.978 188.715L196.182 190.185C191.096 191.744 186.417 194.405 182.476 197.977L188.541 197.125C190.757 196.813 193.009 196.868 195.208 197.286C197.586 197.739 200.025 197.765 202.413 197.364L204.996 196.931L204.998 196.93L208.777 195.288C210.442 194.564 211.299 192.704 210.767 190.968C210.318 189.505 208.988 188.491 207.459 188.446Z" fill="url(#paint7_linear_695_54707)" stroke="#A0763E" stroke-width="0.661193"/>
<path d="M278.379 204.65L278.781 204.489C279.757 204.097 280.83 204.011 281.856 204.244L283.32 204.575C285.83 205.144 288.024 206.66 289.444 208.806L289.971 209.603L287.271 209.848C285.88 209.975 284.544 210.455 283.39 211.242C282.119 212.11 280.629 212.602 279.091 212.664L278.285 212.696C278.285 212.696 278.284 212.696 278.283 212.695L278.111 212.612C276.284 211.731 275.308 209.706 275.756 207.728C276.072 206.334 277.052 205.183 278.379 204.65Z" fill="url(#paint8_linear_695_54707)" stroke="#A0763E" stroke-width="0.661192"/>
<path d="M265.512 189.241L261.747 184.576L260.746 183.592C256.203 179.12 250.334 176.239 244.018 175.38L242.705 175.202C239.376 174.749 235.989 175.018 232.774 175.989L232.34 176.12C228.397 177.311 224.87 179.592 222.167 182.701C219.51 185.757 217.754 189.491 217.095 193.487L216.986 194.147C216.458 197.353 216.58 200.633 217.345 203.791L218.798 209.782C219.892 214.296 221.559 218.652 223.757 222.744L227.845 230.351C237.136 244.532 247.665 257.863 259.307 270.187L260.014 270.935L279.653 290.534L280.137 290.817C286.87 294.75 294.161 297.639 301.761 299.385C306.962 296.127 311.247 291.597 314.212 286.223L314.863 285.043L281.873 238.141C277.827 232.389 275.856 225.433 276.282 218.414C276.563 213.796 275.807 209.174 274.069 204.886L272.633 201.34C270.866 196.979 268.467 192.902 265.512 189.241Z" fill="#C8794D"/>
<path d="M265.512 189.241L261.747 184.576L260.746 183.592C256.203 179.12 250.334 176.239 244.018 175.38L242.705 175.202C239.376 174.749 235.989 175.018 232.774 175.989L232.34 176.12C228.397 177.311 224.87 179.592 222.167 182.701C219.51 185.757 217.754 189.491 217.095 193.487L216.986 194.147C216.458 197.353 216.58 200.633 217.345 203.791L218.798 209.782C219.892 214.296 221.559 218.652 223.757 222.744L227.845 230.351C237.136 244.532 247.665 257.863 259.307 270.187L260.014 270.935L279.653 290.534L280.137 290.817C286.87 294.75 294.161 297.639 301.761 299.385C306.962 296.127 311.247 291.597 314.212 286.223L314.863 285.043L281.873 238.141C277.827 232.389 275.856 225.433 276.282 218.414C276.563 213.796 275.807 209.174 274.069 204.886L272.633 201.34C270.866 196.979 268.467 192.902 265.512 189.241Z" fill="url(#paint9_linear_695_54707)"/>
</g>
<path d="M267.26 172.488L257.145 160.085C255.572 158.156 254.978 155.61 255.535 153.184C256.206 150.266 255.204 147.217 252.934 145.266L246.857 140.041C245.41 138.797 243.734 137.847 241.922 137.246L234.22 134.687C231.77 133.873 229.092 134.973 227.921 137.274C226.729 139.614 223.985 140.706 221.512 139.823L215.93 137.83C214.648 137.373 213.298 137.138 211.938 137.134L200.455 137.107C198.437 137.102 196.426 137.323 194.458 137.766L180.32 140.951C178.63 141.332 176.873 140.692 175.824 139.314C174.76 137.914 172.968 137.278 171.26 137.692L156.511 141.265L155.473 141.383C148.464 142.181 143.041 147.898 142.614 154.939C142.566 155.739 142.451 156.532 142.272 157.312L139.095 171.144C138.523 173.632 136.226 175.335 133.679 175.158L128.707 174.813C125.579 174.596 122.437 174.671 119.323 175.038C115.229 175.519 111.209 176.501 107.353 177.962L94.1688 182.955C88.6876 185.031 82.9621 186.393 77.1334 187.008L73.6461 187.376C65.4544 188.241 57.1737 187.2 49.4515 184.333L46.6338 183.287C45.6909 182.937 44.7793 182.508 43.9086 182.004L38.7216 179.006C37.3578 178.217 35.7118 178.083 34.2385 178.641C32.5982 179.263 31.3769 180.663 30.9841 182.372L30.1944 185.81C29.6209 188.307 29.8729 190.922 30.9124 193.263L33.2981 198.636C34.6054 201.58 36.3867 204.29 38.5709 206.657L42.5274 210.946C45.3288 213.983 48.4142 216.744 51.7414 219.194L57.1186 223.152C63.0314 227.505 69.7739 230.598 76.9296 232.242L77.2555 232.317C80.7752 233.126 84.3713 233.555 87.9825 233.598C95.7821 233.69 103.497 231.977 110.525 228.593L125.267 221.494L140.277 213.558C142.12 212.584 144.362 213.792 144.562 215.867C144.58 216.047 144.58 216.228 144.564 216.408L143.541 227.919C142.975 234.28 143.652 240.69 145.535 246.793C146.797 250.887 148.589 254.798 150.864 258.428L158.219 270.166C162.38 276.807 167.938 282.462 174.505 286.737C180.901 290.901 188.107 293.661 195.647 294.836L204.585 296.228C215.378 298.707 225.665 303.378 234.609 309.907L255.994 328.382L257.299 329.362C264.117 334.479 271.556 338.713 279.438 341.961L279.819 342.118C279.914 342.157 280.013 342.185 280.114 342.202L285.007 343.028C289.644 343.81 294.394 342.567 298.053 339.615C300.919 337.303 302.925 334.096 303.749 330.507L304.739 326.199C304.764 326.088 304.833 325.992 304.929 325.932C307.681 324.208 309.765 321.6 310.837 318.535L312.665 313.307C313.269 311.583 313.713 309.807 313.994 308.002L316.597 291.285C316.691 290.684 316.54 290.071 316.178 289.582L283.199 245.08C279.182 239.659 276.85 233.175 276.496 226.437C276.484 226.212 276.546 225.989 276.674 225.802L284.09 214.937C285.792 212.443 286.701 209.493 286.698 206.473C286.694 203.128 285.572 199.88 283.508 197.247L277.42 189.477C275.449 186.962 273.816 184.2 272.563 181.261C271.216 178.103 269.431 175.149 267.26 172.488Z" stroke="#E7AC93" stroke-width="0.661193"/>
<path d="M112.998 207.728L121.053 206.207C128.766 204.75 136.65 204.416 144.459 205.217L139.349 207.788L130.886 211.837L115.228 220.974L106.889 224.649C103.526 226.131 99.9684 227.127 96.3243 227.608C91.7379 228.212 87.0803 227.992 82.5717 226.956L78.407 225.999C73.8275 224.947 69.425 223.236 65.3374 220.919C60.5942 218.23 56.338 214.761 52.7475 210.658L45.0456 201.856L37.9305 193.48L45.2764 198.821C49.4046 201.822 53.832 204.389 58.488 206.48L59.1176 206.763C63.124 208.562 67.2975 209.964 71.578 210.947L72.5528 211.171C78.5483 212.548 84.7188 213.004 90.8515 212.521C94.3931 212.243 97.9032 211.653 101.341 210.759L112.998 207.728Z" fill="#FFC896" stroke="#D98F4B" stroke-width="0.661193"/>
<path d="M305.509 324.941C301.16 323.712 298.146 319.772 298.052 315.298C294.818 322.825 284.987 325.761 278.079 320.293C269.502 314.579 259.518 311.374 249.251 311.014L261.875 316.082C264.937 317.312 267.889 318.799 270.699 320.528L276.403 324.038C280.068 326.294 284.197 327.688 288.479 328.116C291.985 328.467 295.526 328.163 298.921 327.22L302.404 326.252C303.492 325.95 304.535 325.509 305.509 324.941Z" fill="url(#paint10_radial_695_54707)" stroke="#E9ABCC" stroke-width="0.669622"/>
<path d="M206.9 219.532L213.873 230.856L205.207 233.014C197.306 234.982 188.978 234.296 181.505 231.062L180.524 230.637C173.905 227.773 168.374 222.87 164.737 216.642L169.502 212.888C176.47 207.399 185.795 205.936 194.109 209.028C199.424 211.005 203.926 214.702 206.9 219.532Z" fill="white" stroke="#FFC896" stroke-width="0.661193"/>
<path d="M194.377 210.402L195.955 209.923L199.995 211.861L203.142 214.817L208.371 221.955L213.916 230.67L201.951 234.027L194.617 234.027L188.48 233.374L187.112 231.203C185.329 228.372 184.58 225.012 184.992 221.693L185.012 221.527C185.17 220.256 185.509 219.015 186.02 217.842C187.581 214.257 190.636 211.537 194.377 210.402Z" fill="url(#paint11_linear_695_54707)"/>
<mask id="mask2_695_54707" style="mask-type:alpha" maskUnits="userSpaceOnUse" x="165" y="205" width="50" height="30">
<path d="M208.054 221.407L213.873 230.856L202.968 233.572C196.519 235.177 189.722 234.618 183.622 231.978C175.22 228.342 168.912 221.1 166.465 212.277L165.787 209.83L169.455 208.41C176.714 205.601 184.75 205.547 192.045 208.261C198.698 210.735 204.333 215.362 208.054 221.407Z" fill="white" stroke="#FFC896" stroke-width="0.661193"/>
</mask>
<g mask="url(#mask2_695_54707)">
<circle cx="3.63656" cy="3.63656" r="3.63656" transform="matrix(-0.974615 -0.223886 -0.223886 0.974615 192.754 214.889)" fill="white"/>
</g>
<path d="M206.9 219.532L213.873 230.856L205.207 233.014C197.306 234.982 188.978 234.296 181.505 231.062L180.524 230.637C173.905 227.773 168.374 222.87 164.737 216.642L169.502 212.888C176.47 207.399 185.795 205.936 194.109 209.028C199.424 211.005 203.926 214.702 206.9 219.532Z" stroke="#FFC896" stroke-width="0.661193"/>
<path d="M301.338 297.922L295.498 291.763C291.772 287.833 285.231 289.059 283.182 294.072C281.786 297.489 283.099 301.414 286.271 303.302L290.998 306.116C298.549 310.611 308.323 307.025 311.176 298.714L312.188 295.766C312.327 295.361 312.41 294.938 312.434 294.51C312.729 289.207 305.35 287.609 303.424 292.559L301.338 297.922Z" fill="#B0896D" stroke="#95694A" stroke-width="0.661193"/>
<path d="M301.338 297.922L295.498 291.763C291.772 287.833 285.231 289.059 283.182 294.072C281.786 297.489 283.099 301.414 286.271 303.302L290.998 306.116C298.549 310.611 308.323 307.025 311.176 298.714L312.188 295.766C312.327 295.361 312.41 294.938 312.434 294.51C312.729 289.207 305.35 287.609 303.424 292.559L301.338 297.922Z" fill="url(#paint12_linear_695_54707)" stroke="#95694A" stroke-width="0.661193"/>
<path d="M178.059 372.173L191 373.203C207.581 374.522 223.57 366.731 232.749 352.86H284.653H299.923C313.459 352.86 325.627 361.111 330.636 373.686L337.879 391.87L361.682 486.751C343.409 503.519 320.338 514.136 295.717 517.108L295.232 517.166V580.31V664.612H95.8821C101.145 632.379 101.77 599.56 97.74 567.15L95.8821 552.209L89.7581 491.38L87.2866 521.133H82.3866C54.7495 521.133 27.2847 516.782 1.00092 508.24L4.99811 422.653C6.06229 399.867 12.9518 377.735 25.0085 358.372C27.1749 354.892 30.8207 352.602 34.8957 352.161L120.016 342.942L144.589 360.143C154.475 367.063 166.03 371.217 178.059 372.173Z" fill="#FFFDC7"/>
<path d="M95.8821 417.657L89.7582 491.38M89.7582 491.38L87.2866 521.133H82.3866C54.7495 521.133 27.2847 516.782 1.00092 508.24V508.24L4.99812 422.653C6.06228 399.867 12.9518 377.735 25.0085 358.372V358.372C27.1749 354.892 30.8207 352.602 34.8957 352.161L120.016 342.942L144.589 360.143C154.475 367.063 166.03 371.217 178.059 372.173L191 373.203C207.581 374.522 223.57 366.731 232.749 352.86V352.86H284.653H299.923C313.459 352.86 325.627 361.111 330.636 373.686L337.879 391.87L361.682 486.751V486.751C343.409 503.519 320.338 514.136 295.717 517.108L295.232 517.166M89.7582 491.38L95.8821 552.209L97.74 567.15C101.77 599.56 101.145 632.379 95.8821 664.612V664.612H295.232V580.31V517.166M280.024 410.053V410.053C290.03 430.5 295.232 452.963 295.232 475.727V497.992V517.166" stroke="#B18D74" stroke-width="0.396716"/>
<path d="M178.059 372.173L191 373.203C207.581 374.522 223.57 366.731 232.749 352.86H284.653H299.923C313.459 352.86 325.627 361.111 330.636 373.686L337.879 391.87L361.682 486.751C343.409 503.519 320.338 514.136 295.717 517.108L295.232 517.166V580.31V664.612H95.8821C101.145 632.379 101.77 599.56 97.74 567.15L95.8821 552.209L89.7581 491.38L87.2866 521.133H82.3866C54.7495 521.133 27.2847 516.782 1.00092 508.24L4.99811 422.653C6.06229 399.867 12.9518 377.735 25.0085 358.372C27.1749 354.892 30.8207 352.602 34.8957 352.161L120.016 342.942L144.589 360.143C154.475 367.063 166.03 371.217 178.059 372.173Z" fill="url(#paint13_linear_695_54707)"/>
<g style="mix-blend-mode:color-burn">
<path d="M178.059 372.173L191 373.203C207.581 374.522 223.57 366.731 232.749 352.86H284.653H299.923C313.459 352.86 325.627 361.111 330.636 373.686L337.879 391.87L361.682 486.751C343.409 503.519 320.338 514.136 295.717 517.108L295.232 517.166V580.31V664.612H95.8821C101.145 632.379 101.77 599.56 97.74 567.15L95.8821 552.209L89.7581 491.38L87.2866 521.133H82.3866C54.7495 521.133 27.2847 516.782 1.00092 508.24L4.99811 422.653C6.06229 399.867 12.9518 377.735 25.0085 358.372C27.1749 354.892 30.8207 352.602 34.8957 352.161L120.016 342.942L144.589 360.143C154.475 367.063 166.03 371.217 178.059 372.173Z" fill="url(#paint14_linear_695_54707)"/>
<path d="M95.8821 417.657L89.7582 491.38M89.7582 491.38L87.2866 521.133H82.3866C54.7495 521.133 27.2847 516.782 1.00092 508.24V508.24L4.99812 422.653C6.06228 399.867 12.9518 377.735 25.0085 358.372V358.372C27.1749 354.892 30.8207 352.602 34.8957 352.161L120.016 342.942L144.589 360.143C154.475 367.063 166.03 371.217 178.059 372.173L191 373.203C207.581 374.522 223.57 366.731 232.749 352.86V352.86H284.653H299.923C313.459 352.86 325.627 361.111 330.636 373.686L337.879 391.87L361.682 486.751V486.751C343.409 503.519 320.338 514.136 295.717 517.108L295.232 517.166M89.7582 491.38L95.8821 552.209L97.74 567.15C101.77 599.56 101.145 632.379 95.8821 664.612V664.612H295.232V580.31V517.166M280.024 410.053V410.053C290.03 430.5 295.232 452.963 295.232 475.727V497.992V517.166" stroke="#C7FFDF" stroke-width="0.836515"/>
</g>
<path d="M315.729 356.827L311.343 359.751C308.321 361.766 305.46 364.013 302.786 366.473L298.338 370.566C287.862 380.203 281.534 393.53 280.685 407.739V407.739" stroke="#7CB998" stroke-width="0.462835"/>
<path d="M30.0941 353.851V353.851C48.566 351.568 67.0074 358.318 79.6413 371.985L80.1414 372.526C90.2619 383.475 95.8828 397.837 95.8828 412.746V418.318" stroke="#7CB998" stroke-width="0.462835"/>
<path d="M364.326 584.608L354.408 493.363L298.207 513.86L305.149 584.608L311.431 658.661H364.326V584.608Z" fill="#FFEAB3"/>
<path d="M13.5485 512.514L20.6589 553.503L28.549 590.777C31.3342 603.935 37.2492 616.227 45.7931 626.614C51.3104 633.321 57.8381 639.129 65.1418 643.829L65.8404 644.278C66.6335 644.789 67.6372 644.843 68.4806 644.42L69.6222 643.849C84.0248 636.637 97.2841 627.339 108.971 616.255L120.835 605.004C132.383 594.052 142.953 582.115 152.427 569.328L166.631 550.157L176.488 536.379L186.806 524.142L196.236 515.114C204.454 507.246 211.447 498.191 216.981 488.251C221.202 482.513 220.687 474.571 215.76 469.427L212.837 466.375L196.753 447.345C194.852 445.095 192.732 443.04 190.424 441.21L177.19 430.717C175.088 429.051 172.348 428.419 169.729 428.997C166.867 429.629 164.498 431.629 163.394 434.344L159.52 443.87C159.455 442.502 158.486 441.213 156.937 440.958C156.385 440.867 155.82 440.928 155.3 441.134L151.735 442.546C148.736 443.733 146.208 445.87 144.536 448.629C143.196 450.842 142.46 453.368 142.402 455.955L142.145 467.411C141.942 476.517 143.898 485.542 147.854 493.747L153.611 505.683C153.668 505.802 153.673 505.94 153.625 506.063C149.728 515.973 141.357 523.186 133.286 530.141L133.162 530.248L104.321 555.1C94.5869 563.488 85.8501 572.968 78.2829 583.353C78.0705 583.644 77.6107 583.441 77.684 583.088L81.3063 565.633L82.561 543.465V521.716L44.4996 518.788L13.5485 512.514Z" fill="#FFEAB3"/>
<path d="M159.52 443.87L163.394 434.344C164.498 431.629 166.867 429.629 169.729 428.997C172.348 428.419 175.088 429.051 177.19 430.717L190.424 441.21C192.732 443.04 194.852 445.095 196.753 447.345L212.837 466.375L215.76 469.427C220.687 474.571 221.202 482.513 216.981 488.251C211.447 498.191 204.454 507.246 196.236 515.114L186.806 524.142L176.488 536.379L166.631 550.157L152.427 569.328C142.953 582.115 132.383 594.052 120.835 605.004L108.971 616.255C97.2841 627.339 84.0248 636.637 69.6222 643.849L68.4806 644.42C67.6372 644.843 66.6336 644.789 65.8404 644.278L65.1418 643.829C57.8381 639.129 51.3104 633.321 45.7931 626.614V626.614C37.2492 616.227 31.3342 603.935 28.549 590.777L20.6589 553.503L13.5485 512.514L44.4996 518.788L82.561 521.716V543.465L81.3063 565.633L77.684 583.088C77.6107 583.441 78.0705 583.644 78.2829 583.353V583.353C85.8501 572.968 94.5869 563.488 104.321 555.1L133.162 530.248C141.271 523.261 149.708 516.025 153.625 506.063V506.063C153.673 505.94 153.668 505.802 153.611 505.683L147.854 493.747C143.898 485.542 141.942 476.517 142.145 467.411L142.402 455.955C142.46 453.368 143.196 450.842 144.536 448.629C146.208 445.87 148.736 443.733 151.735 442.546L155.3 441.134C155.82 440.928 156.385 440.867 156.937 440.958C158.486 441.213 159.455 442.502 159.52 443.87ZM159.52 443.87L158.549 446.257M159.52 443.87C159.557 444.649 159.3 445.455 158.689 446.108L158.549 446.257M158.549 446.257V446.257C159.816 458.629 163.731 470.583 170.028 481.306L172.169 484.951M172.169 484.951C172.916 486.224 174.595 486.58 175.794 485.72L176.417 485.274M172.169 484.951C173.033 486.288 174.804 486.146 176.417 485.274M176.417 485.274L189.098 474.814C189.437 474.534 189.502 474.039 189.245 473.681L174.372 452.925C173.961 452.351 173.068 452.513 172.884 453.194L171.936 456.709C171.913 456.795 171.922 456.887 171.963 456.967L178.078 468.984C180.768 474.27 180.119 480.64 176.417 485.274ZM354.408 493.363L364.326 584.608V658.661H311.431L305.149 584.608L298.207 513.86L354.408 493.363Z" stroke="#FFD88B" stroke-width="0.661193"/>
<path d="M172.885 453.194L171.937 456.709C171.913 456.795 171.923 456.887 171.963 456.966L178.079 468.984C180.769 474.27 180.119 480.64 176.418 485.274L189.098 474.814C189.437 474.534 189.502 474.039 189.246 473.681L174.373 452.924C173.962 452.351 173.069 452.512 172.885 453.194Z" fill="#AD7C66"/>
<path d="M176.418 485.274L189.098 474.814C189.437 474.534 189.502 474.039 189.246 473.681L174.373 452.924C173.962 452.351 173.069 452.512 172.885 453.194L171.937 456.709C171.913 456.795 171.923 456.887 171.963 456.966L178.079 468.984C180.769 474.27 180.119 480.64 176.418 485.274ZM176.418 485.274L175.795 485.72" stroke="#835E6D" stroke-width="0.661193"/>
<path d="M181.688 463.578L176.251 465.251L172.486 456.886L173.269 453.755C173.447 453.043 174.392 452.889 174.786 453.509L176.669 456.468L181.688 463.578Z" fill="url(#paint15_linear_695_54707)" stroke="#E7AC93" stroke-width="0.836515"/>
<path d="M181.688 463.578L176.251 465.251L172.486 456.886L173.269 453.755C173.447 453.043 174.392 452.889 174.786 453.509L176.669 456.468L181.688 463.578Z" fill="url(#paint16_linear_695_54707)" stroke="#E7AC93" stroke-width="0.836515"/>
<path d="M364.326 584.608L354.408 493.363L298.207 513.86L305.149 584.608L311.431 658.661H364.326V584.608Z" fill="url(#paint17_linear_695_54707)"/>
<path d="M13.5485 512.514L20.6589 553.503L28.549 590.777C31.3342 603.935 37.2492 616.227 45.7931 626.614C51.3104 633.321 57.8381 639.129 65.1418 643.829L65.8404 644.278C66.6335 644.789 67.6372 644.843 68.4806 644.42L69.6222 643.849C84.0248 636.637 97.2841 627.339 108.971 616.255L120.835 605.004C132.383 594.052 142.953 582.115 152.427 569.328L166.631 550.157L176.488 536.379L186.806 524.142L196.236 515.114C204.454 507.246 211.447 498.191 216.981 488.251C221.202 482.513 220.687 474.571 215.76 469.427L212.837 466.375L196.753 447.345C194.852 445.095 192.732 443.04 190.424 441.21L177.19 430.717C175.088 429.051 172.348 428.419 169.729 428.997C166.867 429.629 164.498 431.629 163.394 434.344L159.52 443.87C159.455 442.502 158.486 441.213 156.937 440.958C156.385 440.867 155.82 440.928 155.3 441.134L151.735 442.546C148.736 443.733 146.208 445.87 144.536 448.629C143.196 450.842 142.46 453.368 142.402 455.955L142.145 467.411C141.942 476.517 143.898 485.542 147.854 493.747L153.611 505.683C153.668 505.802 153.673 505.94 153.625 506.063C149.73 515.967 141.371 523.179 133.309 530.133L133.168 530.255L103.492 555.858C94.032 564.019 85.5593 573.26 78.2468 583.391C78.0446 583.671 77.6032 583.477 77.6734 583.138L81.3063 565.633L82.561 543.465V521.716L44.4996 518.788L13.5485 512.514Z" fill="url(#paint18_linear_695_54707)"/>
<path d="M159.52 443.87L163.394 434.344C164.498 431.629 166.867 429.629 169.729 428.997C172.348 428.419 175.088 429.051 177.19 430.717L190.424 441.21C192.732 443.04 194.852 445.095 196.753 447.345L212.837 466.375L215.76 469.427C220.687 474.571 221.202 482.513 216.981 488.251C211.447 498.191 204.454 507.246 196.236 515.114L186.806 524.142L176.488 536.379L166.631 550.157L152.427 569.328C142.953 582.115 132.383 594.052 120.835 605.004L108.971 616.255C97.2841 627.339 84.0248 636.637 69.6222 643.849L68.4806 644.42C67.6372 644.843 66.6336 644.789 65.8404 644.278L65.1418 643.829C57.8381 639.129 51.3104 633.321 45.7931 626.614V626.614C37.2492 616.227 31.3342 603.935 28.549 590.777L20.6589 553.503L13.5485 512.514L44.4996 518.788L82.561 521.716V543.465L81.3063 565.633L77.6734 583.138C77.6032 583.477 78.0446 583.671 78.2468 583.391V583.391C85.5593 573.26 94.032 564.019 103.492 555.858L133.168 530.255C141.273 523.263 149.707 516.025 153.625 506.063V506.063C153.673 505.94 153.668 505.802 153.611 505.683L147.854 493.747C143.898 485.542 141.942 476.517 142.145 467.411L142.402 455.955C142.46 453.368 143.196 450.842 144.536 448.629C146.208 445.87 148.736 443.733 151.735 442.546L155.3 441.134C155.82 440.928 156.385 440.867 156.937 440.958C158.486 441.213 159.455 442.502 159.52 443.87ZM159.52 443.87L158.549 446.257M159.52 443.87C159.557 444.649 159.3 445.455 158.689 446.108L158.549 446.257M158.549 446.257L162.448 464.833M162.448 464.833L172.068 484.909C172.933 486.246 174.051 486.084 175.623 485.833M162.448 464.833L172.169 484.951C172.916 486.224 174.595 486.58 175.794 485.72L175.623 485.833M175.623 485.833L189.098 474.814C189.437 474.534 189.502 474.039 189.245 473.681L174.372 452.925C173.961 452.351 173.068 452.513 172.884 453.194L171.936 456.709C171.913 456.795 171.922 456.887 171.963 456.967L178.078 468.984C180.768 474.27 179.324 481.199 175.623 485.833ZM354.408 493.363L364.326 584.608V658.661H311.431L305.149 584.608L298.207 513.86L354.408 493.363Z" stroke="#FFD88B" stroke-width="0.836515"/>
<path d="M364.326 584.608L354.408 493.363L298.207 513.86L305.149 584.608L311.431 658.661H364.326V584.608Z" fill="url(#paint19_linear_695_54707)"/>
<path d="M13.5485 512.514L20.6589 553.503L28.549 590.777C31.3342 603.935 37.2492 616.227 45.7931 626.614C51.3104 633.321 57.8381 639.129 65.1418 643.829L65.8404 644.278C66.6335 644.789 67.6372 644.843 68.4806 644.42L69.6222 643.849C84.0248 636.637 97.2841 627.339 108.971 616.255L120.835 605.004C132.383 594.052 142.953 582.115 152.427 569.328L166.631 550.157L176.488 536.379L186.806 524.142L196.236 515.114C204.454 507.246 211.447 498.191 216.981 488.251C221.202 482.513 220.687 474.571 215.76 469.427L212.837 466.375L196.753 447.345C194.852 445.095 192.732 443.04 190.424 441.21L177.19 430.717C175.088 429.051 172.348 428.419 169.729 428.997C166.867 429.629 164.498 431.629 163.394 434.344L159.52 443.87C159.455 442.502 158.486 441.213 156.937 440.958C156.385 440.867 155.82 440.928 155.3 441.134L151.735 442.546C148.736 443.733 146.208 445.87 144.536 448.629C143.196 450.842 142.46 453.368 142.402 455.955L142.145 467.411C141.942 476.517 143.898 485.542 147.854 493.747L153.611 505.683C153.668 505.802 153.673 505.94 153.625 506.063C149.73 515.967 141.371 523.179 133.309 530.133L133.168 530.255L103.492 555.858C94.032 564.019 85.5593 573.26 78.2468 583.391C78.0446 583.671 77.6032 583.477 77.6734 583.138L81.3063 565.633L82.561 543.465V521.716L44.4996 518.788L13.5485 512.514Z" fill="url(#paint20_linear_695_54707)"/>
<path d="M159.52 443.87L163.394 434.344C164.498 431.629 166.867 429.629 169.729 428.997C172.348 428.419 175.088 429.051 177.19 430.717L190.424 441.21C192.732 443.04 194.852 445.095 196.753 447.345L212.837 466.375L215.76 469.427C220.687 474.571 221.202 482.513 216.981 488.251C211.447 498.191 204.454 507.246 196.236 515.114L186.806 524.142L176.488 536.379L166.631 550.157L152.427 569.328C142.953 582.115 132.383 594.052 120.835 605.004L108.971 616.255C97.2841 627.339 84.0248 636.637 69.6222 643.849L68.4806 644.42C67.6372 644.843 66.6336 644.789 65.8404 644.278L65.1418 643.829C57.8381 639.129 51.3104 633.321 45.7931 626.614V626.614C37.2492 616.227 31.3342 603.935 28.549 590.777L20.6589 553.503L13.5485 512.514L44.4996 518.788L82.561 521.716V543.465L81.3063 565.633L77.6734 583.138C77.6032 583.477 78.0446 583.671 78.2468 583.391V583.391C85.5593 573.26 94.032 564.019 103.492 555.858L133.168 530.255C141.273 523.263 149.707 516.025 153.625 506.063V506.063C153.673 505.94 153.668 505.802 153.611 505.683L147.854 493.747C143.898 485.542 141.942 476.517 142.145 467.411L142.402 455.955C142.46 453.368 143.196 450.842 144.536 448.629C146.208 445.87 148.736 443.733 151.735 442.546L155.3 441.134C155.82 440.928 156.385 440.867 156.937 440.958C158.486 441.213 159.455 442.502 159.52 443.87ZM159.52 443.87L158.549 446.257M159.52 443.87C159.557 444.649 159.3 445.455 158.689 446.108L158.549 446.257M158.549 446.257L162.448 464.833M162.448 464.833L172.02 484.698C172.884 486.035 174.578 486.164 176.417 485.274M162.448 464.833L172.169 484.951C172.916 486.224 174.595 486.58 175.794 485.72L176.417 485.274M176.417 485.274L189.098 474.814C189.437 474.534 189.502 474.039 189.245 473.681L174.372 452.925C173.961 452.351 173.068 452.513 172.884 453.194L171.936 456.709C171.913 456.795 171.922 456.887 171.963 456.967L178.078 468.984C180.768 474.27 180.119 480.64 176.417 485.274ZM354.408 493.363L364.326 584.608V658.661H311.431L305.149 584.608L298.207 513.86L354.408 493.363Z" stroke="#E7AC93" stroke-width="0.836515"/>
<g style="mix-blend-mode:color-dodge" opacity="0.5">
<ellipse cx="284.997" cy="139.01" rx="74.8681" ry="57.7195" fill="#FF6636"/>
</g>
<g style="mix-blend-mode:screen" opacity="0.5">
<path d="M435.153 383.273C435.153 415.15 386.278 440.992 325.988 440.992C265.697 440.992 216.822 415.15 216.822 383.273C216.822 370.575 224.577 358.834 237.72 349.304C244.813 344.159 252.879 351.768 262.739 348.108C275.535 343.359 292.02 346.913 306.96 342.133C313.139 341.558 319.497 325.553 325.988 325.553C386.278 325.553 435.153 351.395 435.153 383.273Z" fill="#E3FF36"/>
</g>
<g style="mix-blend-mode:soft-light">
<rect x="-232.217" y="-0.0341797" width="800.795" height="1071.99" fill="#003EDC"/>
</g>
<g style="mix-blend-mode:soft-light">
<rect x="-232.217" y="7.64136" width="802.075" height="1064.32" fill="#FFBB36"/>
</g>
<g style="mix-blend-mode:color-burn" opacity="0.5">
<rect x="-232.217" y="7.64136" width="802.075" height="1064.32" fill="#B4A2FF"/>
</g>
</g>
<defs>
<linearGradient id="paint0_linear_695_54707" x1="232.715" y1="269.088" x2="101.905" y2="293.551" gradientUnits="userSpaceOnUse">
<stop stop-color="#B4815C"/>
<stop offset="1" stop-color="#F8C99E" stop-opacity="0"/>
</linearGradient>
<linearGradient id="paint1_linear_695_54707" x1="180.808" y1="20.7641" x2="137.118" y2="166.31" gradientUnits="userSpaceOnUse">
<stop stop-color="#572908"/>
<stop offset="1" stop-color="#956645" stop-opacity="0"/>
</linearGradient>
<linearGradient id="paint2_linear_695_54707" x1="288.952" y1="32.131" x2="242.704" y2="155.571" gradientUnits="userSpaceOnUse">
<stop stop-color="#572908"/>
<stop offset="1" stop-color="#956645" stop-opacity="0"/>
</linearGradient>
<linearGradient id="paint3_linear_695_54707" x1="272.383" y1="216.873" x2="338.236" y2="255.213" gradientUnits="userSpaceOnUse">
<stop stop-color="#9A6A47"/>
<stop offset="1" stop-color="#F8C99E" stop-opacity="0"/>
</linearGradient>
<linearGradient id="paint4_linear_695_54707" x1="170.5" y1="126.092" x2="256.972" y2="323.196" gradientUnits="userSpaceOnUse">
<stop stop-color="#B4815C"/>
<stop offset="1" stop-color="#F8C99E" stop-opacity="0"/>
</linearGradient>
<linearGradient id="paint5_linear_695_54707" x1="210.751" y1="127.006" x2="162.347" y2="256.082" gradientUnits="userSpaceOnUse">
<stop stop-color="#385D60"/>
<stop offset="1" stop-color="#F8C99E" stop-opacity="0"/>
</linearGradient>
<linearGradient id="paint6_linear_695_54707" x1="56.7448" y1="47.8333" x2="48.1658" y2="11.7847" gradientUnits="userSpaceOnUse">
<stop offset="0.229641" stop-color="#D9A557"/>
<stop offset="1" stop-color="#D9A557" stop-opacity="0"/>
</linearGradient>
<linearGradient id="paint7_linear_695_54707" x1="210.013" y1="190.274" x2="177.389" y2="207.758" gradientUnits="userSpaceOnUse">
<stop stop-color="#80571A"/>
<stop offset="1" stop-color="#F8C99E"/>
</linearGradient>
<linearGradient id="paint8_linear_695_54707" x1="276.138" y1="207.191" x2="293.629" y2="212.971" gradientUnits="userSpaceOnUse">
<stop stop-color="#80571A"/>
<stop offset="1" stop-color="#F8C99E"/>
</linearGradient>
<linearGradient id="paint9_linear_695_54707" x1="249.591" y1="175.773" x2="308.06" y2="314.033" gradientUnits="userSpaceOnUse">
<stop stop-color="#6A421C"/>
<stop offset="0.723573" stop-color="#6A421C" stop-opacity="0"/>
</linearGradient>
<radialGradient id="paint10_radial_695_54707" cx="0" cy="0" r="1" gradientUnits="userSpaceOnUse" gradientTransform="translate(294.843 327.278) rotate(-83.0716) scale(6.31604 18.603)">
<stop offset="0.302083" stop-color="#E9ABCC"/>
<stop offset="1" stop-color="#D13982"/>
</radialGradient>
<linearGradient id="paint11_linear_695_54707" x1="207.311" y1="216.602" x2="189.115" y2="233.792" gradientUnits="userSpaceOnUse">
<stop stop-color="#184409"/>
<stop offset="1" stop-color="#C1F9AD"/>
</linearGradient>
<linearGradient id="paint12_linear_695_54707" x1="307.913" y1="289.575" x2="282.167" y2="314.529" gradientUnits="userSpaceOnUse">
<stop stop-color="#530F00"/>
<stop offset="1" stop-color="#B0896D" stop-opacity="0"/>
</linearGradient>
<linearGradient id="paint13_linear_695_54707" x1="288.95" y1="342.942" x2="41.0031" y2="678.167" gradientUnits="userSpaceOnUse">
<stop stop-color="#39D5A6"/>
<stop offset="1" stop-color="#DCFFE6" stop-opacity="0"/>
</linearGradient>
<linearGradient id="paint14_linear_695_54707" x1="288.95" y1="342.942" x2="41.0031" y2="678.167" gradientUnits="userSpaceOnUse">
<stop stop-color="#30C0ED"/>
<stop offset="1" stop-color="#DCFFE6" stop-opacity="0"/>
</linearGradient>
<linearGradient id="paint15_linear_695_54707" x1="173.741" y1="454.376" x2="193.221" y2="461.87" gradientUnits="userSpaceOnUse">
<stop stop-color="#B4815C"/>
<stop offset="1" stop-color="#F8C99E" stop-opacity="0"/>
</linearGradient>
<linearGradient id="paint16_linear_695_54707" x1="173.741" y1="454.376" x2="193.221" y2="461.87" gradientUnits="userSpaceOnUse">
<stop stop-color="#B4815C"/>
<stop offset="1" stop-color="#F8C99E" stop-opacity="0"/>
</linearGradient>
<linearGradient id="paint17_linear_695_54707" x1="263.667" y1="443.501" x2="204.932" y2="542.285" gradientUnits="userSpaceOnUse">
<stop stop-color="#B4815C"/>
<stop offset="1" stop-color="#F8C99E" stop-opacity="0"/>
</linearGradient>
<linearGradient id="paint18_linear_695_54707" x1="263.667" y1="443.501" x2="204.932" y2="542.285" gradientUnits="userSpaceOnUse">
<stop stop-color="#B4815C"/>
<stop offset="1" stop-color="#F8C99E" stop-opacity="0"/>
</linearGradient>
<linearGradient id="paint19_linear_695_54707" x1="13.5485" y1="604.949" x2="193.885" y2="433.351" gradientUnits="userSpaceOnUse">
<stop stop-color="#B4815C"/>
<stop offset="1" stop-color="#F8C99E" stop-opacity="0"/>
</linearGradient>
<linearGradient id="paint20_linear_695_54707" x1="13.5485" y1="604.949" x2="193.885" y2="433.351" gradientUnits="userSpaceOnUse">
<stop stop-color="#B4815C"/>
<stop offset="1" stop-color="#F8C99E" stop-opacity="0"/>
</linearGradient>
</defs>
</svg>
