<svg width="1339" height="797" viewBox="0 0 1339 797" fill="none" xmlns="http://www.w3.org/2000/svg">
<mask id="mask0_518_27842" style="mask-type:alpha" maskUnits="userSpaceOnUse" x="0" y="0" width="1339" height="797">
<path d="M0 30.3625C0 13.794 13.4315 0.362549 30 0.362549H1308.46C1325.03 0.362549 1338.46 13.794 1338.46 30.3625V199.363V440.363C1338.46 456.931 1325.03 470.363 1308.46 470.363H884C867.431 470.363 854 483.794 854 500.363V657.863V766.363C854 782.931 840.569 796.363 824 796.363H669.23H29.9999C13.4314 796.363 0 782.931 0 766.363V30.3625Z" fill="#EDE7FF"/>
</mask>
<g mask="url(#mask0_518_27842)">
<path d="M266.228 543.724L281.371 531.603L292.283 520.903L359.045 531.603L369.903 572.364C373.902 587.373 374.555 603.078 371.816 618.368L371.162 622.015C368.314 637.913 361.34 652.784 350.938 665.14L191.097 645.159L70.7308 622.898C69.3543 622.644 68.2187 621.673 67.7528 620.353L66.4801 616.748C60.6349 600.188 68.0439 581.868 83.7573 574.027C89.434 571.195 95.7771 569.968 102.101 570.479L146.95 574.108C164.706 575.544 182.574 574.556 200.064 571.172L211.759 568.908C221.831 566.959 231.626 563.78 240.922 559.442C249.953 555.228 258.448 549.951 266.228 543.724Z" fill="#3D3AA9"/>
<path d="M317.628 736.645L319.258 729.446C323.155 712.238 323.667 694.436 320.766 677.031H266.172C262.458 691.889 262.24 707.406 265.535 722.362L268.682 736.645H317.628Z" fill="#3D3AA9"/>
<path d="M167.025 669.501L130.629 667.619C121.795 686.091 120.712 707.329 127.622 726.604L128.747 729.742H163.26C171.367 712.718 173.217 693.382 168.484 675.13L167.025 669.501Z" fill="#3D3AA9"/>
<path d="M85.3628 713.373L86.0765 702.132H138.16L139.05 713.342C140.545 732.182 140.247 751.12 138.16 769.903H114.315H86.0765C84.4055 751.105 84.1669 732.207 85.3628 713.373Z" fill="#3D3AA9"/>
<path d="M233.029 710.232L233.542 705.269H286.881L287.477 710.212C289.997 731.092 289.797 752.212 286.881 773.041H233.542C231.04 752.189 230.868 731.122 233.029 710.232Z" fill="#3D3AA9"/>
<path d="M178.32 707.151H200.91L234.169 708.406C235.836 695.484 235.952 682.409 234.513 669.459L234.169 666.363H174.555V670.37C174.555 682.727 175.816 695.051 178.32 707.151Z" fill="#3D3AA9"/>
<path d="M271.192 705.269L264.29 723.467C243.315 711.54 219.6 705.269 195.471 705.269H184.596L163.888 710.917V684.561C174.72 686.644 185.774 687.327 196.78 686.593L221.352 684.955C225.285 684.693 229.235 684.82 233.143 685.334C244.86 686.876 255.858 691.851 264.751 699.633L271.192 705.269Z" fill="#3D3AA9"/>
<path d="M528.512 512.199L563.879 528.307C571.217 531.649 578.951 534.365 586.761 536.366C612.344 542.917 639.671 541.926 664.642 533.33L620.716 292.365L418.41 161.73C387.439 141.731 351.356 131.094 314.489 131.094H249.615C245.618 131.094 241.647 131.738 237.855 133.002C231.737 135.042 226.254 138.637 221.945 143.436L216.388 149.624C206.347 160.806 200.255 174.975 199.047 189.955L198.372 198.321C197.973 203.278 197.178 208.195 195.996 213.025L190.393 235.926C185.702 255.098 182.907 274.685 182.05 294.405C180.824 322.607 175.637 350.497 166.643 377.254L155.101 411.592L128.745 487.521L118.705 525.8C121.572 534.399 126.876 541.98 133.973 547.618L151.357 561.43C162.806 570.527 176.665 576.079 191.228 577.402C199.302 578.137 207.442 577.557 215.331 575.685L309.871 553.259C327.433 549.094 341.346 535.716 346.198 518.331L350.67 502.305C352.371 496.211 350.889 489.672 346.728 484.907C335.402 471.936 346.05 451.834 363.143 453.916L449.141 464.395C458.747 465.566 467.836 469.396 475.384 475.453L496.974 492.783C506.639 500.54 517.234 507.063 528.512 512.199Z" fill="#3D3AA9"/>
<path d="M244.413 530.638L260.443 513.73L270.874 500.438L332.062 530.821L335.85 565.847C337.813 583.995 337.09 602.333 333.706 620.27L332.002 629.3C328.567 647.504 321.553 664.844 311.366 680.316L172.208 654.882L66.7486 626.413C64.5954 625.831 62.9654 624.068 62.5549 621.876L60.3081 609.877C57.1881 593.215 64.7696 576.371 79.311 567.659C87.0096 563.046 96.0217 561.12 104.933 562.182L136.718 565.97C153.567 567.978 170.643 566.774 187.043 562.419L193.993 560.574C204.51 557.782 214.543 553.408 223.747 547.604C231.315 542.831 238.257 537.132 244.413 530.638Z" fill="#3D3AA9"/>
<path d="M777.167 550.19L815.246 524.545C800.367 520.412 786.573 513.07 774.834 503.035L771.596 500.267C759.802 490.185 749.988 477.995 742.657 464.32L732.769 445.875C725.063 431.5 719.957 415.877 717.686 399.726C716.214 389.264 715.945 378.669 716.883 368.147L720.173 331.228C720.802 324.162 720.734 317.052 719.969 309.999C717.075 283.308 704.343 258.651 684.255 240.837L648.955 209.534L574.281 142.39L490.764 79.7521C482.915 73.8653 474.082 69.4015 464.689 66.5705C444.399 60.4557 422.522 62.267 403.521 71.6501C389.623 78.5136 377.906 89.1059 369.679 102.244L340.219 149.292L300.058 225.221L228.521 350.724L171.911 433.112C162.911 446.211 156.954 461.156 154.475 476.854C161.152 482.28 168.344 487.039 175.948 491.065L228.612 518.946C242.724 526.417 255.889 535.555 267.823 546.163L290.158 566.016C304.401 578.676 322.007 586.94 340.846 589.807L389.792 490.659L479.527 304.288L511.236 397.463C517.274 415.206 525.064 432.303 534.491 448.501C554.516 482.911 581.594 512.695 613.947 535.897L626.992 545.253L634.901 552.71C644.157 561.437 655.222 568.017 667.308 571.983C681.6 576.673 696.867 577.559 711.605 574.554L726.086 571.601C744.351 567.877 761.706 560.603 777.167 550.19Z" fill="#3D3AA9"/>
<path d="M731.713 447.076L734.714 453.264C753.466 491.925 788.942 519.826 830.934 528.937L849.367 501.141C863.388 479.998 874.953 457.326 883.838 433.564C892.882 409.376 899.089 384.221 902.334 358.602L909.373 303.033C917.224 233.2 909.509 162.496 886.783 96.0001L883.411 86.1353C874.794 60.9236 864.261 36.4083 851.904 12.8039L814.618 -58.4149L360.001 -1.13757C366.881 31.7402 371.051 65.1274 372.467 98.6875L376.614 196.983L719.864 326.251L716.703 368.297C714.663 395.422 719.842 422.602 731.713 447.076Z" fill="#3D3AA9"/>
<mask id="mask1_518_27842" style="mask-type:alpha" maskUnits="userSpaceOnUse" x="83" y="-82" width="853" height="832">
<g style="mix-blend-mode:color-burn">
<path d="M289.814 520.139L304.957 508.017L315.868 497.318L382.63 508.017L393.489 548.778C397.487 563.788 398.14 579.493 395.401 594.783L394.748 598.43C391.9 614.328 384.925 629.199 374.523 641.555L214.683 621.574L94.3161 599.313C92.9396 599.058 91.804 598.088 91.3381 596.768L90.0655 593.162C84.2203 576.603 91.6293 558.283 107.343 550.442C113.019 547.609 119.362 546.383 125.686 546.894L170.535 550.522C188.291 551.959 206.16 550.971 223.649 547.586L235.344 545.323C245.416 543.374 255.211 540.195 264.508 535.857C273.538 531.643 282.034 526.366 289.814 520.139Z" fill="#1F1F1F"/>
</g>
<path d="M341.214 713.059L342.844 705.86C346.74 688.652 347.252 670.849 344.351 653.445H289.758C286.043 668.303 285.825 683.82 289.121 698.776L292.268 713.059H341.214Z" fill="#1F1F1F"/>
<path d="M190.61 645.915L154.215 644.032C145.38 662.505 144.297 683.743 151.207 703.018L152.332 706.156H186.845C194.952 689.132 196.802 669.796 192.07 651.544L190.61 645.915Z" fill="#1F1F1F"/>
<path d="M108.948 689.787L109.662 678.546H161.745L162.635 689.756C164.13 708.596 163.832 727.534 161.745 746.317H137.9H109.662C107.991 727.519 107.752 708.621 108.948 689.787Z" fill="#1F1F1F"/>
<path d="M256.614 686.646L257.127 681.683H310.466L311.063 686.626C313.583 707.506 313.382 728.626 310.466 749.455H257.127C254.625 728.603 254.453 707.536 256.614 686.646Z" fill="#1F1F1F"/>
<path d="M201.906 683.566H224.497L257.755 684.821C259.422 671.899 259.538 658.824 258.099 645.874L257.755 642.778H198.141V646.785C198.141 659.142 199.403 671.466 201.906 683.566Z" fill="#1F1F1F"/>
<path d="M294.778 681.684L287.875 699.882C266.9 687.955 243.185 681.684 219.057 681.684H208.181L187.473 687.332V660.976C198.305 663.059 209.36 663.742 220.366 663.008L244.938 661.37C248.871 661.108 252.82 661.235 256.728 661.749C268.445 663.291 279.443 668.266 288.337 676.048L294.778 681.684Z" fill="#1F1F1F"/>
<path d="M552.099 488.614L587.466 504.722C594.803 508.064 602.537 510.78 610.347 512.78C635.93 519.332 663.258 518.341 688.228 509.744L644.302 268.779L441.996 138.145C411.025 118.146 374.942 107.508 338.076 107.508H273.201C269.204 107.508 265.233 108.153 261.441 109.417C255.323 111.456 249.841 115.052 245.532 119.85L239.975 126.038C229.934 137.22 223.841 151.39 222.633 166.37L221.959 174.736C221.559 179.692 220.764 184.609 219.582 189.439L213.979 212.341C209.288 231.513 206.493 251.1 205.636 270.819C204.41 299.021 199.224 326.911 190.229 353.669L178.687 388.007L152.332 463.936L142.291 502.214C145.158 510.814 150.463 518.394 157.56 524.033L174.944 537.845C186.393 546.941 200.251 552.493 214.814 553.817C222.888 554.551 231.028 553.971 238.917 552.1L333.458 529.674C351.02 525.508 364.933 512.131 369.784 494.745L374.257 478.719C375.957 472.626 374.475 466.086 370.314 461.321C358.988 448.351 369.636 428.248 386.729 430.331L472.727 440.81C482.334 441.98 491.423 445.81 498.97 451.868L520.56 469.197C530.226 476.955 540.82 483.477 552.099 488.614Z" fill="#1F1F1F"/>
<g style="mix-blend-mode:color-burn">
<path d="M267.998 507.053L284.028 490.145L294.46 476.853L355.647 507.235L359.435 542.262C361.398 560.41 360.676 578.748 357.291 596.685L355.587 605.715C352.153 623.919 345.139 641.259 334.951 656.731L195.793 631.297L90.3339 602.828C88.1807 602.246 86.5508 600.483 86.1403 598.291L83.8934 586.292C80.7735 569.629 88.3549 552.786 102.896 544.074C110.595 539.461 119.607 537.535 128.519 538.597L160.303 542.385C177.152 544.393 194.229 543.189 210.628 538.834L217.578 536.989C228.096 534.197 238.128 529.823 247.333 524.018C254.9 519.246 261.843 513.546 267.998 507.053Z" fill="#1F1F1F"/>
</g>
<path d="M800.753 526.605L838.832 500.96C823.952 496.827 810.158 489.485 798.42 479.45L795.181 476.682C783.387 466.6 773.574 454.41 766.243 440.735L756.355 422.29C748.649 407.915 743.542 392.292 741.271 376.14C739.8 365.679 739.531 355.084 740.468 344.562L743.758 307.643C744.388 300.577 744.32 293.466 743.555 286.414C740.661 259.722 727.928 235.066 707.841 217.252L672.541 185.948L597.867 118.805L514.35 56.167C506.501 50.2802 497.668 45.8165 488.274 42.9854C467.984 36.8707 446.107 38.6819 427.107 48.065C413.208 54.9285 401.491 65.5208 393.264 78.6588L363.804 125.707L323.643 201.636L252.107 327.139L195.497 409.527C186.496 422.626 180.539 437.571 178.06 453.269C184.738 458.695 191.93 463.454 199.534 467.48L252.197 495.36C266.31 502.832 279.474 511.97 291.409 522.578L313.743 542.431C327.986 555.091 345.592 563.355 364.432 566.221L413.378 467.074L503.112 280.703L534.821 373.878C540.859 391.621 548.649 408.718 558.076 424.916C578.101 459.326 605.179 489.11 637.532 512.312L650.578 521.668L658.487 529.125C667.742 537.852 678.807 544.432 690.894 548.398C705.186 553.088 720.452 553.974 735.191 550.969L749.672 548.016C767.936 544.292 785.292 537.018 800.753 526.605Z" fill="#1F1F1F"/>
<path d="M755.299 423.491L758.3 429.679C777.052 468.34 812.528 496.241 854.52 505.352L872.954 477.556C886.974 456.413 898.539 433.741 907.424 409.979C916.469 385.791 922.675 360.635 925.92 335.017L932.959 279.448C940.81 209.615 933.095 138.911 910.369 72.415L906.997 62.5501C898.381 37.3385 887.847 12.8232 875.49 -10.7811L838.205 -82L387.023 -9.20847C391.617 13.3464 394.413 36.2305 395.383 59.2281L400.2 173.398L743.45 302.666L740.289 344.712C738.249 371.836 743.428 399.017 755.299 423.491Z" fill="black"/>
<path d="M220.104 647.798L198.083 643.189C176.949 638.766 156.753 630.678 138.408 619.291C133.765 616.409 132.618 610.152 135.938 605.81L137.9 603.245L189.356 569.987L351.882 594.46L328.183 626.836C315.235 644.527 293.992 654.177 272.15 652.291L220.104 647.798Z" fill="#FFE08F"/>
<path d="M220.104 647.798L198.083 643.189C176.949 638.766 156.753 630.678 138.408 619.291C133.765 616.409 132.618 610.152 135.938 605.81L137.9 603.245L189.356 569.987L351.882 594.46L328.183 626.836C315.235 644.527 293.992 654.177 272.15 652.291L220.104 647.798Z" fill="url(#paint0_linear_518_27842)"/>
</mask>
<g mask="url(#mask1_518_27842)">
<path d="M755.299 423.491L758.3 429.679C777.052 468.34 812.528 496.241 854.52 505.352L872.954 477.556C886.974 456.413 898.539 433.741 907.424 409.979C916.469 385.791 922.675 360.635 925.921 335.017L932.959 279.448C940.81 209.615 933.095 138.911 910.369 72.415L906.997 62.5501C898.381 37.3385 887.848 12.8232 875.49 -10.7811L838.205 -82L387.023 -9.20847C391.617 13.3464 394.413 36.2305 395.383 59.2281L400.201 173.398L743.45 302.666L740.289 344.712C738.249 371.836 743.428 399.017 755.299 423.491Z" fill="#F2BE37"/>
<path d="M755.299 423.491L758.3 429.679C777.052 468.34 812.528 496.241 854.52 505.352L872.954 477.556C886.974 456.413 898.539 433.741 907.424 409.979C916.469 385.791 922.675 360.635 925.921 335.017L932.959 279.448C940.81 209.615 933.095 138.911 910.369 72.415L906.997 62.5501C898.381 37.3385 887.848 12.8232 875.49 -10.7811L838.205 -82L387.023 -9.20847C391.617 13.3464 394.413 36.2305 395.383 59.2281L400.201 173.398L743.45 302.666L740.289 344.712C738.249 371.836 743.428 399.017 755.299 423.491Z" fill="url(#paint1_linear_518_27842)"/>
<circle cx="30.9374" cy="30.9374" r="30.9374" transform="matrix(0.76416 -0.645027 0.768823 0.639462 726.11 159.347)" fill="#EA4050"/>
<circle cx="30.9374" cy="30.9374" r="30.9374" transform="matrix(0.76416 -0.645027 0.768823 0.639462 770.147 122.175)" fill="#EA4050"/>
<circle cx="30.9374" cy="30.9374" r="30.9374" transform="matrix(0.76416 -0.645027 0.768823 0.639462 819.515 144.593)" fill="#EA4050"/>
<circle cx="30.9374" cy="30.9374" r="30.9374" transform="matrix(0.76416 -0.645027 0.768823 0.639462 754.154 199.764)" fill="#EA4050"/>
<circle cx="30.9374" cy="30.9374" r="30.9374" transform="matrix(0.76416 -0.645027 0.768823 0.639462 803.862 187.506)" fill="#EA4050"/>
<circle cx="23.658" cy="23.658" r="23.658" transform="matrix(0.76416 -0.645027 0.768823 0.639462 781.45 161.873)" fill="#F9F9F9"/>
<circle cx="17.5414" cy="17.5414" r="17.5414" transform="matrix(1 0 0.175033 0.984563 796.198 327.133)" fill="#408EEA"/>
<circle cx="17.5414" cy="17.5414" r="17.5414" transform="matrix(1 0 0.175033 0.984563 828.872 327.133)" fill="#408EEA"/>
<circle cx="17.5414" cy="17.5414" r="17.5414" transform="matrix(1 0 0.175033 0.984563 842.064 354.901)" fill="#408EEA"/>
<circle cx="17.5414" cy="17.5414" r="17.5414" transform="matrix(1 0 0.175033 0.984563 793.568 354.901)" fill="#408EEA"/>
<circle cx="17.5414" cy="17.5414" r="17.5414" transform="matrix(1 0 0.175033 0.984563 819.587 367.769)" fill="#408EEA"/>
<circle cx="13.414" cy="13.414" r="13.414" transform="matrix(1 0 0.175033 0.984563 819.251 348.467)" fill="#F9F9F9"/>
<circle cx="40.8021" cy="40.8021" r="40.8021" transform="matrix(0.883377 0.468664 -0.0881474 0.996107 540.563 -77.9703)" fill="#4047EA"/>
<circle cx="40.8021" cy="40.8021" r="40.8021" transform="matrix(0.883377 0.468664 -0.0881474 0.996107 607.704 -42.35)" fill="#4047EA"/>
<circle cx="40.8021" cy="40.8021" r="40.8021" transform="matrix(0.883377 0.468664 -0.0881474 0.996107 618.883 31.9966)" fill="#4047EA"/>
<circle cx="40.8021" cy="40.8021" r="40.8021" transform="matrix(0.883377 0.468664 -0.0881474 0.996107 519.233 -20.8713)" fill="#4047EA"/>
<circle cx="40.8021" cy="40.8021" r="40.8021" transform="matrix(0.883377 0.468664 -0.0881474 0.996107 565.317 35.2837)" fill="#4047EA"/>
<circle cx="31.2016" cy="31.2016" r="31.2016" transform="matrix(0.883377 0.468664 -0.0881474 0.996107 575.698 -6.76685)" fill="#F9F9F9"/>
<path d="M289.813 520.139L304.956 508.017L315.868 497.318L382.63 508.017L393.488 548.778C397.487 563.788 398.14 579.493 395.401 594.783L394.747 598.43C391.899 614.328 384.925 629.199 374.523 641.555L214.682 621.574L94.3158 599.313C92.9394 599.058 91.8038 598.088 91.3379 596.768L90.0652 593.162C84.22 576.603 91.629 558.283 107.342 550.442C113.019 547.609 119.362 546.383 125.686 546.894L170.535 550.522C188.291 551.959 206.159 550.971 223.649 547.586L235.344 545.323C245.416 543.374 255.211 540.195 264.507 535.857C273.538 531.643 282.033 526.366 289.813 520.139Z" fill="#3656FF" stroke="white" stroke-width="1.25503"/>
<mask id="mask2_518_27842" style="mask-type:alpha" maskUnits="userSpaceOnUse" x="84" y="497" width="312" height="147">
<path d="M287.303 521.393L302.446 509.272L313.358 498.572L380.119 509.272L391.169 550.749C395.043 565.293 395.732 580.503 393.187 595.337L392.488 599.409C389.733 615.467 382.654 630.472 372.013 642.809L212.172 622.828L91.8056 600.568C90.4291 600.313 89.2935 599.342 88.8276 598.022L87.555 594.417C81.7098 577.857 89.1188 559.537 104.832 551.697C110.509 548.864 116.852 547.637 123.175 548.149L168.024 551.777C185.78 553.213 203.649 552.226 221.139 548.841L232.834 546.578C242.906 544.629 252.7 541.449 261.997 537.111C271.028 532.897 279.523 527.621 287.303 521.393Z" fill="#3656FF" stroke="white" stroke-width="1.25503"/>
</mask>
<g mask="url(#mask2_518_27842)">
<path d="M272.188 609.519L380.12 632.737L375.728 650.935L269.678 628.345L272.188 609.519Z" fill="#B0BAEC"/>
</g>
<g style="mix-blend-mode:color-burn">
<path d="M289.813 520.139L304.956 508.017L315.868 497.318L382.63 508.017L393.488 548.778C397.487 563.788 398.14 579.493 395.401 594.783L394.747 598.43C391.899 614.328 384.925 629.199 374.523 641.555L214.682 621.574L94.3158 599.313C92.9394 599.058 91.8038 598.088 91.3379 596.768L90.0652 593.162C84.22 576.603 91.629 558.283 107.342 550.442C113.019 547.609 119.362 546.383 125.686 546.894L170.535 550.522C188.291 551.959 206.159 550.971 223.649 547.586L235.344 545.323C245.416 543.374 255.211 540.195 264.507 535.857C273.538 531.643 282.033 526.366 289.813 520.139Z" fill="url(#paint2_linear_518_27842)"/>
<path d="M289.813 520.139L304.956 508.017L315.868 497.318L382.63 508.017L393.488 548.778C397.487 563.788 398.14 579.493 395.401 594.783L394.747 598.43C391.899 614.328 384.925 629.199 374.523 641.555L214.682 621.574L94.3158 599.313C92.9394 599.058 91.8038 598.088 91.3379 596.768L90.0652 593.162C84.22 576.603 91.629 558.283 107.342 550.442C113.019 547.609 119.362 546.383 125.686 546.894L170.535 550.522C188.291 551.959 206.159 550.971 223.649 547.586L235.344 545.323C245.416 543.374 255.211 540.195 264.507 535.857C273.538 531.643 282.033 526.366 289.813 520.139Z" stroke="white" stroke-width="1.25503"/>
</g>
<path d="M341.215 713.059L342.845 705.86C346.741 688.652 347.253 670.849 344.352 653.445H289.759C286.044 668.303 285.826 683.82 289.122 698.776L292.269 713.059H341.215Z" fill="url(#paint3_linear_518_27842)"/>
<path d="M190.612 645.915L154.216 644.032C145.381 662.505 144.298 683.743 151.208 703.018L152.333 706.156H186.847C194.953 689.132 196.803 669.796 192.071 651.544L190.612 645.915Z" fill="url(#paint4_linear_518_27842)"/>
<path d="M294.779 681.684L287.876 699.882C266.901 687.955 243.187 681.684 219.058 681.684H208.182L187.474 687.332V660.976C198.306 663.059 209.361 663.742 220.367 663.008L244.939 661.37C248.872 661.108 252.821 661.235 256.73 661.749C268.446 663.291 279.444 668.266 288.338 676.048L294.779 681.684Z" fill="#1F1F1F"/>
<path d="M108.948 689.788L109.662 678.547H161.746L162.635 689.757C164.131 708.597 163.833 727.535 161.746 746.318H137.9H109.662C107.991 727.52 107.752 708.622 108.948 689.788Z" fill="url(#paint5_linear_518_27842)"/>
<path d="M256.614 686.647L257.128 681.684H310.466L311.063 686.627C313.583 707.507 313.382 728.627 310.466 749.456H257.128C254.625 728.604 254.453 707.537 256.614 686.647Z" fill="url(#paint6_linear_518_27842)"/>
<path d="M201.907 683.566H224.497L257.755 684.821C259.423 671.899 259.538 658.824 258.099 645.874L257.755 642.778H198.141V646.785C198.141 659.142 199.403 671.466 201.907 683.566Z" fill="#1F1F1F"/>
<path d="M220.104 647.798L198.083 643.189C176.95 638.766 156.753 630.678 138.408 619.291C133.765 616.409 132.618 610.152 135.938 605.81L137.9 603.245L189.356 569.986L351.882 594.459L328.184 626.836C315.235 644.527 293.992 654.177 272.15 652.291L220.104 647.798Z" fill="#FF5C00"/>
<path d="M220.104 647.798L198.083 643.189C176.95 638.766 156.753 630.678 138.408 619.291C133.765 616.409 132.618 610.152 135.938 605.81L137.9 603.245L189.356 569.986L351.882 594.459L328.184 626.836C315.235 644.527 293.992 654.177 272.15 652.291L220.104 647.798Z" fill="url(#paint7_linear_518_27842)"/>
<path d="M220.104 647.798L198.083 643.189C176.949 638.766 156.753 630.678 138.408 619.291C133.765 616.409 132.618 610.152 135.938 605.81L137.9 603.245L189.356 569.987L351.882 594.46L328.183 626.836C315.235 644.527 293.992 654.177 272.15 652.291L220.104 647.798Z" fill="url(#paint8_linear_518_27842)"/>
<mask id="mask3_518_27842" style="mask-type:alpha" maskUnits="userSpaceOnUse" x="142" y="107" width="547" height="448">
<path d="M552.099 488.614L587.466 504.722C594.803 508.064 602.537 510.78 610.347 512.781C635.93 519.332 663.258 518.341 688.228 509.745L644.302 268.78L441.996 138.145C411.025 118.146 374.942 107.509 338.076 107.509H273.201C269.204 107.509 265.233 108.153 261.441 109.417C255.323 111.457 249.841 115.052 245.532 119.85L239.975 126.039C229.934 137.221 223.841 151.39 222.633 166.37L221.959 174.736C221.559 179.693 220.764 184.609 219.582 189.439L213.979 212.341C209.288 231.513 206.493 251.1 205.636 270.82C204.41 299.022 199.224 326.911 190.229 353.669L178.687 388.007L152.332 463.936L142.291 502.215C145.158 510.814 150.463 518.395 157.56 524.033L174.944 537.845C186.393 546.942 200.251 552.493 214.814 553.817C222.888 554.551 231.028 553.971 238.917 552.1L333.458 529.674C351.02 525.508 364.933 512.131 369.784 494.746L374.257 478.72C375.957 472.626 374.475 466.086 370.314 461.321C358.988 448.351 369.636 428.249 386.729 430.331L472.727 440.81C482.334 441.981 491.423 445.811 498.97 451.868L520.56 469.198C530.226 476.955 540.82 483.478 552.099 488.614Z" fill="#EA4050"/>
</mask>
<g mask="url(#mask3_518_27842)">
<path d="M552.099 488.615L587.466 504.723C594.803 508.064 602.537 510.781 610.347 512.781C635.93 519.333 663.258 518.341 688.228 509.745L644.302 268.78L441.996 138.145C411.025 118.147 374.942 107.509 338.076 107.509H273.201C269.204 107.509 265.233 108.154 261.441 109.418C255.323 111.457 249.841 115.052 245.532 119.851L239.975 126.039C229.934 137.221 223.841 151.39 222.633 166.37L221.959 174.737C221.559 179.693 220.764 184.61 219.582 189.44L213.979 212.341C209.288 231.514 206.493 251.101 205.636 270.82C204.41 299.022 199.224 326.912 190.229 353.669L178.687 388.008L152.332 463.937L142.291 502.215C145.158 510.814 150.463 518.395 157.56 524.034L174.944 537.846C186.393 546.942 200.251 552.494 214.814 553.818C222.888 554.552 231.028 553.972 238.917 552.101L333.458 529.675C351.02 525.509 364.933 512.131 369.784 494.746L374.257 478.72C375.957 472.627 374.475 466.087 370.314 461.322C358.988 448.352 369.636 428.249 386.729 430.332L472.727 440.81C482.334 441.981 491.423 445.811 498.97 451.869L520.56 469.198C530.226 476.955 540.82 483.478 552.099 488.615Z" fill="#EA4050"/>
<path d="M552.099 488.615L587.466 504.723C594.803 508.064 602.537 510.781 610.347 512.781C635.93 519.333 663.258 518.341 688.228 509.745L644.302 268.78L441.996 138.145C411.025 118.147 374.942 107.509 338.076 107.509H273.201C269.204 107.509 265.233 108.154 261.441 109.418C255.323 111.457 249.841 115.052 245.532 119.851L239.975 126.039C229.934 137.221 223.841 151.39 222.633 166.37L221.959 174.737C221.559 179.693 220.764 184.61 219.582 189.44L213.979 212.341C209.288 231.514 206.493 251.101 205.636 270.82C204.41 299.022 199.224 326.912 190.229 353.669L178.687 388.008L152.332 463.937L142.291 502.215C145.158 510.814 150.463 518.395 157.56 524.034L174.944 537.846C186.393 546.942 200.251 552.494 214.814 553.818C222.888 554.552 231.028 553.972 238.917 552.101L333.458 529.675C351.02 525.509 364.933 512.131 369.784 494.746L374.257 478.72C375.957 472.627 374.475 466.087 370.314 461.322C358.988 448.352 369.636 428.249 386.729 430.332L472.727 440.81C482.334 441.981 491.423 445.811 498.97 451.869L520.56 469.198C530.226 476.955 540.82 483.478 552.099 488.615Z" fill="url(#paint9_linear_518_27842)"/>
<path d="M552.099 488.615L587.466 504.723C594.803 508.064 602.537 510.781 610.347 512.781C635.93 519.333 663.258 518.341 688.228 509.745L644.302 268.78L441.996 138.145C411.025 118.147 374.942 107.509 338.076 107.509H273.201C269.204 107.509 265.233 108.154 261.441 109.418C255.323 111.457 249.841 115.052 245.532 119.851L239.975 126.039C229.934 137.221 223.841 151.39 222.633 166.37L221.959 174.737C221.559 179.693 220.764 184.61 219.582 189.44L213.979 212.341C209.288 231.514 206.493 251.101 205.636 270.82C204.41 299.022 199.224 326.912 190.229 353.669L178.687 388.008L152.332 463.937L142.291 502.215C145.158 510.814 150.463 518.395 157.56 524.034L174.944 537.846C186.393 546.942 200.251 552.494 214.814 553.818C222.888 554.552 231.028 553.972 238.917 552.101L333.458 529.675C351.02 525.509 364.933 512.131 369.784 494.746L374.257 478.72C375.957 472.627 374.475 466.087 370.314 461.322C358.988 448.352 369.636 428.249 386.729 430.332L472.727 440.81C482.334 441.981 491.423 445.811 498.97 451.869L520.56 469.198C530.226 476.955 540.82 483.478 552.099 488.615Z" fill="url(#paint10_linear_518_27842)"/>
<path d="M552.099 488.615L587.466 504.723C594.803 508.064 602.537 510.781 610.347 512.781C635.93 519.333 663.258 518.341 688.228 509.745L644.302 268.78L441.996 138.145C411.025 118.147 374.942 107.509 338.076 107.509H273.201C269.204 107.509 265.233 108.154 261.441 109.418C255.323 111.457 249.841 115.052 245.532 119.851L239.975 126.039C229.934 137.221 223.841 151.39 222.633 166.37L221.959 174.737C221.559 179.693 220.764 184.61 219.582 189.44L213.979 212.341C209.288 231.514 206.493 251.101 205.636 270.82C204.41 299.022 199.224 326.912 190.229 353.669L178.687 388.008L152.332 463.937L142.291 502.215C145.158 510.814 150.463 518.395 157.56 524.034L174.944 537.846C186.393 546.942 200.251 552.494 214.814 553.818C222.888 554.552 231.028 553.972 238.917 552.101L333.458 529.675C351.02 525.509 364.933 512.131 369.784 494.746L374.257 478.72C375.957 472.627 374.475 466.087 370.314 461.322C358.988 448.352 369.636 428.249 386.729 430.332L472.727 440.81C482.334 441.981 491.423 445.811 498.97 451.869L520.56 469.198C530.226 476.955 540.82 483.478 552.099 488.615Z" fill="url(#paint11_linear_518_27842)"/>
<path d="M394.368 85.572L394.165 97.4563L403.645 101.255L393.457 100.54L388.458 111.324L388.661 99.4398L379.181 95.6407L389.369 96.3557L394.368 85.572Z" fill="#FF8A71" fill-opacity="0.4"/>
<path d="M506.905 111.399L506.701 123.284L516.182 127.083L505.994 126.368L500.995 137.151L501.198 125.267L491.717 121.468L501.906 122.183L506.905 111.399Z" fill="#FF8A71" fill-opacity="0.4"/>
<path d="M619.442 137.227L619.238 149.111L628.719 152.91L618.53 152.195L613.531 162.979L613.735 151.095L604.254 147.295L614.443 148.01L619.442 137.227Z" fill="#FF8A71" fill-opacity="0.4"/>
<path d="M147.944 126.947L147.741 138.831L157.221 142.63L147.033 141.915L142.034 152.699L142.238 140.815L132.757 137.015L142.945 137.73L147.944 126.947Z" fill="#FF8A71" fill-opacity="0.6"/>
<path d="M260.481 152.774L260.277 164.659L269.758 168.458L259.57 167.743L254.571 178.526L254.774 166.642L245.294 162.843L255.482 163.558L260.481 152.774Z" fill="#FF8A71" fill-opacity="0.6"/>
<path d="M373.018 178.601L372.814 190.486L382.295 194.285L372.107 193.57L367.108 204.354L367.311 192.469L357.83 188.67L368.019 189.385L373.018 178.601Z" fill="#FF8A71" fill-opacity="0.6"/>
<path d="M485.555 204.429L485.351 216.313L494.832 220.112L484.643 219.397L479.644 230.181L479.848 218.297L470.367 214.498L480.556 215.213L485.555 204.429Z" fill="#FF8A71" fill-opacity="0.6"/>
<path d="M598.091 230.256L597.888 242.14L607.369 245.94L597.18 245.225L592.181 256.008L592.385 244.124L582.904 240.325L593.092 241.04L598.091 230.256Z" fill="#FF8A71" fill-opacity="0.6"/>
<path d="M239.13 245.804L238.927 257.688L248.408 261.487L238.219 260.772L233.22 271.556L233.424 259.672L223.943 255.873L234.132 256.588L239.13 245.804Z" fill="#FF8A71"/>
<path d="M351.667 271.631L351.464 283.515L360.944 287.314L350.756 286.599L345.757 297.383L345.96 285.499L336.48 281.7L346.668 282.415L351.667 271.631Z" fill="#FF8A71"/>
<path d="M464.204 297.458L464.001 309.343L473.481 313.142L463.293 312.427L458.294 323.211L458.497 311.326L449.017 307.527L459.205 308.242L464.204 297.458Z" fill="#FF8A71"/>
<path d="M576.741 323.286L576.537 335.17L586.018 338.969L575.829 338.254L570.831 349.038L571.034 337.154L561.553 333.355L571.742 334.07L576.741 323.286Z" fill="#FF8A71"/>
<path d="M689.277 349.113L689.074 360.998L698.555 364.797L688.366 364.082L683.367 374.865L683.571 362.981L674.09 359.182L684.279 359.897L689.277 349.113Z" fill="#FF8A71"/>
<path d="M217.78 338.833L217.577 350.717L227.057 354.517L216.869 353.802L211.87 364.585L212.073 352.701L202.593 348.902L212.781 349.617L217.78 338.833Z" fill="#FF8A71"/>
<path d="M330.317 364.66L330.113 376.545L339.594 380.344L329.405 379.629L324.407 390.413L324.61 378.528L315.129 374.729L325.318 375.444L330.317 364.66Z" fill="#FF8A71"/>
<path d="M442.854 390.488L442.65 402.372L452.131 406.171L441.942 405.456L436.943 416.24L437.147 404.356L427.666 400.557L437.855 401.272L442.854 390.488Z" fill="#FF8A71"/>
<path d="M555.39 416.315L555.187 428.2L564.667 431.999L554.479 431.284L549.48 442.067L549.684 430.183L540.203 426.384L550.391 427.099L555.39 416.315Z" fill="#FF8A71"/>
<path d="M667.927 442.143L667.724 454.027L677.204 457.826L667.016 457.111L662.017 467.895L662.22 456.01L652.74 452.211L662.928 452.926L667.927 442.143Z" fill="#FF8A71"/>
<path d="M196.43 431.863L196.226 443.747L205.707 447.546L195.519 446.831L190.52 457.615L190.723 445.731L181.242 441.931L191.431 442.646L196.43 431.863Z" fill="#FF8A71"/>
<path d="M308.967 457.69L308.763 469.574L318.244 473.373L308.055 472.658L303.056 483.442L303.26 471.558L293.779 467.759L303.968 468.474L308.967 457.69Z" fill="#FF8A71"/>
<path d="M421.503 483.517L421.3 495.402L430.78 499.201L420.592 498.486L415.593 509.27L415.797 497.385L406.316 493.586L416.504 494.301L421.503 483.517Z" fill="#FF8A71"/>
<path d="M534.04 509.345L533.837 521.229L543.317 525.028L533.129 524.313L528.13 535.097L528.333 523.213L518.853 519.414L529.041 520.129L534.04 509.345Z" fill="#FF8A71"/>
<path d="M646.577 535.172L646.373 547.056L655.854 550.856L645.666 550.141L640.667 560.924L640.87 549.04L631.389 545.241L641.578 545.956L646.577 535.172Z" fill="#FF8A71"/>
<path d="M175.079 524.892L174.875 536.776L184.356 540.576L174.168 539.861L169.169 550.644L169.372 538.76L159.892 534.961L170.08 535.676L175.079 524.892Z" fill="#FF8A71"/>
<path d="M287.616 550.719L287.412 562.604L296.893 566.403L286.704 565.688L281.706 576.472L281.909 564.587L272.428 560.788L282.617 561.503L287.616 550.719Z" fill="#FF8A71"/>
</g>
<path d="M267.998 507.052L284.028 490.143L294.46 476.852L355.647 507.234L359.435 542.261C361.398 560.409 360.676 578.747 357.291 596.684L355.587 605.714C352.153 623.917 345.139 641.258 334.951 656.73L195.793 631.296L90.3339 602.826C88.1807 602.245 86.5508 600.482 86.1403 598.29L83.8934 586.29C80.7735 569.628 88.3549 552.785 102.896 544.072C110.595 539.46 119.607 537.533 128.519 538.596L160.303 542.384C177.152 544.392 194.229 543.187 210.628 538.833L217.578 536.988C228.096 534.196 238.128 529.822 247.333 524.017C254.9 519.244 261.843 513.545 267.998 507.052Z" fill="#3656FF"/>
<mask id="mask4_518_27842" style="mask-type:alpha" maskUnits="userSpaceOnUse" x="83" y="476" width="278" height="181">
<path d="M267.998 507.052L284.028 490.143L294.46 476.852L355.647 507.234L359.435 542.261C361.398 560.409 360.676 578.747 357.291 596.684L355.587 605.714C352.153 623.917 345.139 641.258 334.951 656.73L195.793 631.296L90.3339 602.826C88.1807 602.245 86.5508 600.482 86.1403 598.29L83.8934 586.29C80.7735 569.628 88.3549 552.785 102.896 544.072C110.595 539.46 119.607 537.533 128.519 538.596L160.303 542.384C177.152 544.392 194.229 543.187 210.628 538.833L217.578 536.988C228.096 534.196 238.128 529.822 247.333 524.017C254.9 519.244 261.843 513.545 267.998 507.052Z" fill="#3656FF"/>
</mask>
<g mask="url(#mask4_518_27842)">
<path d="M174.789 555.479L166.138 543.63L107.151 518.53L86.4435 541.12L80.1683 581.281C106.003 592.948 133.202 601.321 161.126 606.203L208.809 614.539C199.632 593.683 188.226 573.881 174.789 555.479Z" fill="#A25A18"/>
</g>
<path d="M187.474 575.633L192.404 574.982C232.344 569.707 269.429 551.409 297.916 522.922L270.933 503.469C245.864 530.528 210.139 545.156 173.292 543.45L163.628 543.002L187.474 575.633Z" fill="#D5DBFF"/>
<path d="M199.396 573.123L173.668 543.002H183.708L207.741 550.591L211.946 539.237L216.339 537.982L235.22 541.394L237.047 529.824L240.812 527.942L257.913 531.211L257.127 516.019L261.52 512.881L270.017 514.722L268.423 506.606L270.933 504.096L275.572 515.926L299.171 521.039L291.641 527.942L278.504 523.404L283.483 536.099L275.325 541.747L266.759 539.079L268.423 547.395L259.01 552.415L242.278 547.73L243.322 561.828L231.399 565.593L211.717 557.891L208.181 573.123H199.396Z" fill="#B0BAEC"/>
<path d="M173.668 543.002L199.396 573.123M173.668 543.002H183.708M173.668 543.002L231.399 565.593M199.396 573.123H208.181M199.396 573.123L211.946 539.237M208.181 573.123L183.708 543.002M208.181 573.123L216.339 537.982M183.708 543.002L243.322 561.828M231.399 565.593L243.322 561.828M231.399 565.593L237.047 529.824M243.322 561.828L240.812 527.942M237.047 529.824L240.812 527.942M237.047 529.824L275.325 541.747M240.812 527.942L283.483 536.099M275.325 541.747L283.483 536.099M275.325 541.747L268.423 506.606L270.933 504.096L283.483 536.099M211.946 539.237L216.339 537.982M211.946 539.237L259.01 552.415M216.339 537.982L268.423 547.395M259.01 552.415L268.423 547.395M259.01 552.415L257.127 516.019M268.423 547.395L261.52 512.881M257.127 516.019L261.52 512.881M257.127 516.019L291.641 527.942L299.171 521.039L261.52 512.881" stroke="#B0BAEC" stroke-width="1.25503"/>
<path d="M201.906 564.966L189.356 549.905L205.671 555.553L201.906 564.966Z" fill="#D5DBFF"/>
<path d="M213.201 551.788L215.711 540.493L234.537 546.14L232.027 558.063L213.201 551.788Z" fill="#D5DBFF"/>
<path d="M242.067 542.375L241.439 531.08L257.755 536.1L258.382 545.513L242.067 542.375Z" fill="#D5DBFF"/>
<path d="M265.285 532.335L262.775 518.53L271.56 521.04L273.443 534.217L265.285 532.335Z" fill="#D5DBFF"/>
<mask id="mask5_518_27842" style="mask-type:alpha" maskUnits="userSpaceOnUse" x="83" y="476" width="278" height="181">
<path d="M267.998 507.052L284.028 490.143L294.46 476.852L355.647 507.234L359.435 542.261C361.398 560.409 360.676 578.747 357.291 596.684L355.587 605.714C352.153 623.917 345.139 641.258 334.951 656.73L195.793 631.296L90.3339 602.826C88.1807 602.245 86.5508 600.482 86.1403 598.29L83.8934 586.29C80.7735 569.628 88.3549 552.785 102.896 544.072C110.595 539.46 119.607 537.533 128.519 538.596L160.303 542.384C177.152 544.392 194.229 543.187 210.628 538.833L217.578 536.988C228.096 534.196 238.128 529.822 247.333 524.017C254.9 519.244 261.843 513.545 267.998 507.052Z" fill="#3656FF"/>
</mask>
<g mask="url(#mask5_518_27842)">
<path d="M132.879 599.478L82.678 582.536C80.0079 585.206 79.1648 589.2 80.5279 592.721L82.6272 598.144C84.6434 603.353 88.9088 607.369 94.2292 609.068L160.49 630.227L336.193 661.602L344.979 644.032L299.17 634.619L218.221 616.421L132.879 599.478Z" fill="#B0BAEC"/>
</g>
<g style="mix-blend-mode:color-burn">
<path d="M267.998 507.052L284.028 490.143L294.46 476.852L355.647 507.234L359.435 542.261C361.398 560.409 360.676 578.747 357.291 596.684L355.587 605.714C352.153 623.917 345.139 641.258 334.951 656.73L195.793 631.296L90.3339 602.826C88.1807 602.245 86.5508 600.482 86.1403 598.29L83.8934 586.29C80.7735 569.628 88.3549 552.785 102.896 544.072C110.595 539.46 119.607 537.533 128.519 538.596L160.303 542.384C177.152 544.392 194.229 543.187 210.628 538.833L217.578 536.988C228.096 534.196 238.128 529.822 247.333 524.017C254.9 519.244 261.843 513.545 267.998 507.052Z" fill="url(#paint12_linear_518_27842)"/>
</g>
<mask id="mask6_518_27842" style="mask-type:alpha" maskUnits="userSpaceOnUse" x="178" y="39" width="661" height="528">
<path d="M800.753 526.605L838.832 500.96C823.952 496.827 810.158 489.485 798.42 479.45L795.181 476.682C783.387 466.6 773.574 454.41 766.243 440.735L756.355 422.29C748.649 407.915 743.542 392.292 741.271 376.14C739.8 365.679 739.531 355.084 740.468 344.562L743.758 307.643C744.388 300.577 744.32 293.466 743.555 286.414C740.661 259.722 727.928 235.066 707.841 217.252L672.541 185.948L597.867 118.805L514.35 56.167C506.501 50.2802 497.668 45.8165 488.274 42.9854C467.984 36.8707 446.107 38.6819 427.107 48.065C413.208 54.9285 401.491 65.5208 393.264 78.6588L363.804 125.707L323.643 201.636L252.107 327.139L195.497 409.527C186.496 422.626 180.539 437.571 178.06 453.269C184.738 458.695 191.93 463.454 199.534 467.48L252.197 495.36C266.31 502.832 279.474 511.97 291.409 522.578L313.743 542.431C327.986 555.091 345.592 563.355 364.432 566.221L413.378 467.074L503.112 280.703L534.821 373.878C540.859 391.621 548.649 408.718 558.076 424.916C578.101 459.326 605.179 489.11 637.532 512.312L650.578 521.668L658.487 529.125C667.742 537.852 678.807 544.432 690.894 548.398C705.186 553.088 720.452 553.974 735.191 550.969L749.672 548.016C767.936 544.292 785.292 537.018 800.753 526.605Z" fill="#EA4050"/>
</mask>
<g mask="url(#mask6_518_27842)">
<path d="M800.753 526.605L838.832 500.96C823.952 496.827 810.158 489.485 798.42 479.45L795.181 476.682C783.387 466.6 773.574 454.41 766.243 440.735L756.355 422.29C748.649 407.915 743.542 392.292 741.271 376.14C739.8 365.679 739.531 355.084 740.468 344.562L743.758 307.643C744.388 300.577 744.32 293.466 743.555 286.414C740.661 259.722 727.928 235.066 707.841 217.252L672.541 185.948L597.867 118.805L514.35 56.167C506.501 50.2802 497.668 45.8165 488.274 42.9854C467.984 36.8707 446.107 38.6819 427.107 48.065C413.208 54.9285 401.491 65.5208 393.264 78.6588L363.804 125.707L323.643 201.636L252.107 327.139L195.497 409.527C186.496 422.626 180.539 437.571 178.06 453.269C184.738 458.695 191.93 463.454 199.534 467.48L252.197 495.36C266.31 502.832 279.474 511.97 291.409 522.578L313.743 542.431C327.986 555.091 345.592 563.355 364.432 566.221L413.378 467.074L503.112 280.703L534.821 373.878C540.859 391.621 548.649 408.718 558.076 424.916C578.101 459.326 605.18 489.11 637.532 512.312L650.578 521.668L658.487 529.125C667.742 537.852 678.807 544.432 690.894 548.398C705.186 553.088 720.452 553.974 735.191 550.969L749.672 548.016C767.936 544.292 785.292 537.018 800.753 526.605Z" fill="#EA4050"/>
<path d="M800.753 526.606L838.832 500.961C823.952 496.827 810.158 489.486 798.42 479.451L795.181 476.683C783.387 466.601 773.574 454.41 766.243 440.736L756.355 422.291C748.649 407.916 743.542 392.292 741.271 376.141C739.8 365.68 739.531 355.085 740.468 344.562L743.758 307.643C744.388 300.578 744.32 293.467 743.555 286.415C740.661 259.723 727.928 235.066 707.841 217.253L672.541 185.949L597.867 118.805L514.35 56.1676C506.501 50.2809 497.668 45.8171 488.274 42.986C467.984 36.8713 446.107 38.6826 427.107 48.0656C413.208 54.9291 401.491 65.5214 393.264 78.6594L363.804 125.708L323.643 201.637L252.107 327.14L195.497 409.528C186.496 422.626 180.539 437.572 178.06 453.27C184.738 458.695 191.93 463.455 199.534 467.48L252.197 495.361C266.31 502.832 279.474 511.97 291.409 522.579L313.743 542.431C327.986 555.092 345.592 563.355 364.432 566.222L413.378 467.075L503.112 280.704L534.821 373.879C540.859 391.621 548.649 408.718 558.076 424.917C578.101 459.326 605.18 489.11 637.532 512.313L650.578 521.669L658.487 529.126C667.742 537.852 678.807 544.433 690.894 548.399C705.186 553.088 720.452 553.974 735.191 550.969L749.672 548.017C767.936 544.293 785.292 537.018 800.753 526.606Z" fill="url(#paint13_linear_518_27842)"/>
<path d="M800.753 526.606L838.832 500.961C823.952 496.827 810.158 489.486 798.42 479.451L795.181 476.683C783.387 466.601 773.574 454.41 766.243 440.736L756.355 422.291C748.649 407.916 743.542 392.292 741.271 376.141C739.8 365.68 739.531 355.085 740.468 344.562L743.758 307.643C744.388 300.578 744.32 293.467 743.555 286.415C740.661 259.723 727.928 235.066 707.841 217.253L672.541 185.949L597.867 118.805L514.35 56.1676C506.501 50.2809 497.668 45.8171 488.274 42.986C467.984 36.8713 446.107 38.6826 427.107 48.0656C413.208 54.9291 401.491 65.5214 393.264 78.6594L363.804 125.708L323.643 201.637L252.107 327.14L195.497 409.528C186.496 422.626 180.539 437.572 178.06 453.27C184.738 458.695 191.93 463.455 199.534 467.48L252.197 495.361C266.31 502.832 279.474 511.97 291.409 522.579L313.743 542.431C327.986 555.092 345.592 563.355 364.432 566.222L413.378 467.075L503.112 280.704L534.821 373.879C540.859 391.621 548.649 408.718 558.076 424.917C578.101 459.326 605.18 489.11 637.532 512.313L650.578 521.669L658.487 529.126C667.742 537.852 678.807 544.433 690.894 548.399C705.186 553.088 720.452 553.974 735.191 550.969L749.672 548.017C767.936 544.293 785.292 537.018 800.753 526.606Z" fill="url(#paint14_linear_518_27842)"/>
<path d="M585.131 20.2884L582.251 31.8203L590.63 37.6606L580.866 34.6652L573.563 44.0429L576.442 32.511L568.063 26.6707L577.828 29.6661L585.131 20.2884Z" fill="#FF8A71" fill-opacity="0.2"/>
<path d="M688.938 70.8424L686.058 82.3743L694.437 88.2146L684.673 85.2191L677.369 94.5968L680.249 83.0649L671.87 77.2246L681.635 80.2201L688.938 70.8424Z" fill="#FF8A71" fill-opacity="0.2"/>
<path d="M792.745 121.396L789.865 132.928L798.244 138.768L788.48 135.773L781.177 145.15L784.056 133.619L775.677 127.778L785.442 130.774L792.745 121.396Z" fill="#FF8A71" fill-opacity="0.2"/>
<path d="M439.533 55.5477L436.653 67.0796L445.032 72.9199L435.268 69.9245L427.965 79.3022L430.845 67.7703L422.466 61.93L432.23 64.9254L439.533 55.5477Z" fill="#FF8A71" fill-opacity="0.4"/>
<path d="M543.34 106.101L540.46 117.633L548.839 123.474L539.075 120.478L531.772 129.856L534.652 118.324L526.273 112.484L536.037 115.479L543.34 106.101Z" fill="#FF8A71" fill-opacity="0.4"/>
<path d="M647.147 156.655L644.268 168.187L652.647 174.027L642.882 171.032L635.579 180.409L638.459 168.878L630.08 163.037L639.844 166.033L647.147 156.655Z" fill="#FF8A71" fill-opacity="0.4"/>
<path d="M750.954 207.209L748.074 218.741L756.453 224.581L746.689 221.586L739.386 230.963L742.266 219.432L733.887 213.591L743.651 216.587L750.954 207.209Z" fill="#FF8A71" fill-opacity="0.4"/>
<path d="M854.761 257.763L851.881 269.295L860.26 275.135L850.496 272.14L843.193 281.517L846.073 269.985L837.694 264.145L847.458 267.14L854.761 257.763Z" fill="#FF8A71" fill-opacity="0.4"/>
<path d="M190.129 40.2532L187.249 51.7851L195.628 57.6254L185.863 54.6299L178.56 64.0076L181.44 52.4757L173.061 46.6354L182.825 49.6309L190.129 40.2532Z" fill="#FF8A71" fill-opacity="0.6"/>
<path d="M293.936 90.8069L291.056 102.339L299.435 108.179L289.67 105.184L282.367 114.561L285.247 103.029L276.868 97.1891L286.632 100.185L293.936 90.8069Z" fill="#FF8A71" fill-opacity="0.6"/>
<path d="M397.743 141.361L394.863 152.893L403.242 158.733L393.477 155.737L386.174 165.115L389.054 153.583L380.675 147.743L390.439 150.738L397.743 141.361Z" fill="#FF8A71" fill-opacity="0.6"/>
<path d="M501.55 191.914L498.67 203.446L507.049 209.287L497.284 206.291L489.981 215.669L492.861 204.137L484.482 198.297L494.246 201.292L501.55 191.914Z" fill="#FF8A71" fill-opacity="0.6"/>
<path d="M605.356 242.468L602.477 254L610.856 259.84L601.091 256.845L593.788 266.223L596.668 254.691L588.289 248.85L598.053 251.846L605.356 242.468Z" fill="#FF8A71" fill-opacity="0.6"/>
<path d="M709.163 293.022L706.284 304.554L714.663 310.394L704.898 307.399L697.595 316.776L700.475 305.244L692.096 299.404L701.86 302.4L709.163 293.022Z" fill="#FF8A71" fill-opacity="0.6"/>
<path d="M812.971 343.576L810.091 355.108L818.47 360.948L808.705 357.953L801.402 367.33L804.282 355.798L795.903 349.958L805.667 352.953L812.971 343.576Z" fill="#FF8A71" fill-opacity="0.6"/>
<path d="M252.145 176.62L249.265 188.152L257.644 193.992L247.88 190.997L240.577 200.374L243.456 188.843L235.078 183.002L244.842 185.998L252.145 176.62Z" fill="#FF8A71"/>
<path d="M355.952 227.174L353.072 238.706L361.451 244.546L351.687 241.551L344.384 250.928L347.263 239.396L338.884 233.556L348.649 236.552L355.952 227.174Z" fill="#FF8A71"/>
<path d="M459.759 277.728L456.879 289.26L465.258 295.1L455.494 292.104L448.191 301.482L451.07 289.95L442.691 284.11L452.456 287.105L459.759 277.728Z" fill="#FF8A71"/>
<path d="M563.566 328.281L560.686 339.813L569.065 345.654L559.301 342.658L551.997 352.036L554.877 340.504L546.498 334.664L556.263 337.659L563.566 328.281Z" fill="#FF8A71"/>
<path d="M667.373 378.835L664.493 390.367L672.872 396.207L663.108 393.212L655.804 402.59L658.684 391.058L650.305 385.217L660.07 388.213L667.373 378.835Z" fill="#FF8A71"/>
<path d="M771.18 429.389L768.3 440.921L776.679 446.761L766.915 443.766L759.612 453.143L762.491 441.612L754.112 435.771L763.877 438.767L771.18 429.389Z" fill="#FF8A71"/>
<path d="M210.354 262.433L207.474 273.965L215.853 279.805L206.089 276.81L198.786 286.187L201.665 274.655L193.286 268.815L203.051 271.811L210.354 262.433Z" fill="#FF8A71"/>
<path d="M314.161 312.987L311.281 324.519L319.66 330.359L309.896 327.363L302.593 336.741L305.472 325.209L297.093 319.369L306.858 322.364L314.161 312.987Z" fill="#FF8A71"/>
<path d="M417.968 363.54L415.088 375.072L423.467 380.913L413.703 377.917L406.4 387.295L409.279 375.763L400.9 369.923L410.665 372.918L417.968 363.54Z" fill="#FF8A71"/>
<path d="M521.775 414.094L518.895 425.626L527.274 431.466L517.51 428.471L510.207 437.849L513.086 426.317L504.707 420.476L514.472 423.472L521.775 414.094Z" fill="#FF8A71"/>
<path d="M625.582 464.648L622.702 476.18L631.081 482.02L621.317 479.025L614.014 488.402L616.893 476.87L608.514 471.03L618.279 474.026L625.582 464.648Z" fill="#FF8A71"/>
<path d="M729.389 515.202L726.509 526.734L734.888 532.574L725.124 529.579L717.821 538.956L720.7 527.424L712.321 521.584L722.086 524.579L729.389 515.202Z" fill="#FF8A71"/>
<path d="M833.196 565.756L830.316 577.288L838.695 583.128L828.931 580.132L821.628 589.51L824.507 577.978L816.129 572.138L825.893 575.133L833.196 565.756Z" fill="#FF8A71"/>
<path d="M168.563 348.246L165.684 359.778L174.063 365.618L164.298 362.623L156.995 372L159.875 360.468L151.496 354.628L161.26 357.624L168.563 348.246Z" fill="#FF8A71"/>
<path d="M272.37 398.8L269.491 410.332L277.87 416.172L268.105 413.176L260.802 422.554L263.682 411.022L255.303 405.182L265.067 408.177L272.37 398.8Z" fill="#FF8A71"/>
<path d="M376.177 449.353L373.298 460.885L381.677 466.726L371.912 463.73L364.609 473.108L367.489 461.576L359.11 455.736L368.874 458.731L376.177 449.353Z" fill="#FF8A71"/>
<path d="M479.984 499.907L477.105 511.439L485.483 517.279L475.719 514.284L468.416 523.662L471.296 512.13L462.917 506.289L472.681 509.285L479.984 499.907Z" fill="#FF8A71"/>
<path d="M583.791 550.461L580.912 561.993L589.29 567.833L579.526 564.838L572.223 574.215L575.103 562.683L566.724 556.843L576.488 559.839L583.791 550.461Z" fill="#FF8A71"/>
<path d="M230.58 484.613L227.7 496.145L236.079 501.985L226.314 498.989L219.011 508.367L221.891 496.835L213.512 490.995L223.276 493.99L230.58 484.613Z" fill="#FF8A71"/>
<path d="M334.387 535.166L331.507 546.698L339.886 552.539L330.121 549.543L322.818 558.921L325.698 547.389L317.319 541.549L327.083 544.544L334.387 535.166Z" fill="#FF8A71"/>
</g>
<g style="mix-blend-mode:color-dodge">
<rect x="70.7556" y="-105.845" width="922.444" height="855.928" fill="#3656FF"/>
</g>
<g style="mix-blend-mode:hard-light" opacity="0.6">
<path d="M70.7556 -105.845H993.2V750.083H70.7556V-105.845Z" fill="url(#paint15_linear_518_27842)"/>
</g>
<g style="mix-blend-mode:overlay">
<path d="M642.689 171.134C642.689 206.616 592.386 237.605 517.562 254.242C480.499 262.483 427.645 250.106 381.683 250.106C314.142 250.106 262.602 257.011 217.455 240.43C169.855 222.948 140.228 198.364 140.228 171.134C140.228 131.312 218.023 99.4474 308.296 84.8808C338.301 80.039 338.64 109.627 373.254 109.627C382.534 91.0672 412.435 35.3881 468.114 39.5128C507.296 42.4154 528.728 67.3339 560.912 91.0672C601.524 121.015 642.689 152.47 642.689 171.134Z" fill="#96CDF5"/>
</g>
<g style="mix-blend-mode:soft-light" filter="url(#filter0_f_518_27842)">
<ellipse cx="388.526" cy="139.382" rx="218.971" ry="105.025" fill="#FFC1C1"/>
</g>
<g style="mix-blend-mode:overlay">
<path d="M661.959 604.191C661.959 639.673 707.867 670.662 633.044 687.299C595.981 695.54 543.127 683.163 497.165 683.163C429.624 683.163 378.084 690.068 332.936 673.487C285.337 656.005 255.71 631.421 255.71 604.191C255.71 580.081 277.448 560.949 315.513 544.746C325.824 549.901 348.508 564.337 363.974 564.337C372.223 556.088 381.503 527.218 387.689 520C417.695 515.158 454.122 542.684 488.736 542.684C498.016 524.124 478.425 513.814 534.104 517.938C573.285 520.841 562.754 547.821 594.938 571.554C635.549 601.502 661.959 585.527 661.959 604.191Z" fill="#96CDF5"/>
</g>
<g style="mix-blend-mode:soft-light" filter="url(#filter1_f_518_27842)">
<ellipse cx="504.008" cy="572.439" rx="218.971" ry="105.025" fill="#FFC1C1"/>
</g>
</g>
</g>
<defs>
<filter id="filter0_f_518_27842" x="-130.095" y="-265.292" width="1037.24" height="809.348" filterUnits="userSpaceOnUse" color-interpolation-filters="sRGB">
<feFlood flood-opacity="0" result="BackgroundImageFix"/>
<feBlend mode="normal" in="SourceGraphic" in2="BackgroundImageFix" result="shape"/>
<feGaussianBlur stdDeviation="149.825" result="effect1_foregroundBlur_518_27842"/>
</filter>
<filter id="filter1_f_518_27842" x="-14.6131" y="167.765" width="1037.24" height="809.348" filterUnits="userSpaceOnUse" color-interpolation-filters="sRGB">
<feFlood flood-opacity="0" result="BackgroundImageFix"/>
<feBlend mode="normal" in="SourceGraphic" in2="BackgroundImageFix" result="shape"/>
<feGaussianBlur stdDeviation="149.825" result="effect1_foregroundBlur_518_27842"/>
</filter>
<linearGradient id="paint0_linear_518_27842" x1="240.812" y1="569.987" x2="222.614" y2="655.956" gradientUnits="userSpaceOnUse">
<stop offset="0.686123" stop-color="#FFCF54" stop-opacity="0"/>
<stop offset="1" stop-color="#E89F13"/>
</linearGradient>
<linearGradient id="paint1_linear_518_27842" x1="665.952" y1="-82" x2="649.323" y2="381.105" gradientUnits="userSpaceOnUse">
<stop stop-color="#F2BE37"/>
<stop offset="1" stop-color="#DA8A2C"/>
</linearGradient>
<linearGradient id="paint2_linear_518_27842" x1="326.153" y1="494.058" x2="322.388" y2="631.483" gradientUnits="userSpaceOnUse">
<stop stop-color="#3D4B96"/>
<stop offset="1" stop-color="#3656FF" stop-opacity="0"/>
</linearGradient>
<linearGradient id="paint3_linear_518_27842" x1="244.578" y1="644.032" x2="244.578" y2="713.059" gradientUnits="userSpaceOnUse">
<stop stop-color="#1F1F1F"/>
<stop offset="0.65625" stop-color="#353535"/>
<stop offset="1" stop-color="#595959"/>
</linearGradient>
<linearGradient id="paint4_linear_518_27842" x1="244.578" y1="644.032" x2="244.578" y2="713.059" gradientUnits="userSpaceOnUse">
<stop stop-color="#1F1F1F"/>
<stop offset="0.65625" stop-color="#353535"/>
<stop offset="1" stop-color="#595959"/>
</linearGradient>
<linearGradient id="paint5_linear_518_27842" x1="211.005" y1="678.547" x2="211.005" y2="749.456" gradientUnits="userSpaceOnUse">
<stop stop-color="#1F1F1F"/>
<stop offset="0.65625" stop-color="#353535"/>
<stop offset="1" stop-color="#595959"/>
</linearGradient>
<linearGradient id="paint6_linear_518_27842" x1="211.005" y1="678.547" x2="211.005" y2="749.456" gradientUnits="userSpaceOnUse">
<stop stop-color="#1F1F1F"/>
<stop offset="0.65625" stop-color="#353535"/>
<stop offset="1" stop-color="#595959"/>
</linearGradient>
<linearGradient id="paint7_linear_518_27842" x1="240.812" y1="569.986" x2="213.004" y2="649.955" gradientUnits="userSpaceOnUse">
<stop stop-color="#FF8A00" stop-opacity="0"/>
<stop offset="1" stop-color="#B1761C"/>
</linearGradient>
<linearGradient id="paint8_linear_518_27842" x1="240.812" y1="569.987" x2="222.614" y2="655.956" gradientUnits="userSpaceOnUse">
<stop offset="0.686123" stop-color="#FFCF54" stop-opacity="0"/>
<stop offset="1" stop-color="#E89F13"/>
</linearGradient>
<linearGradient id="paint9_linear_518_27842" x1="622.902" y1="243.473" x2="211.115" y2="498.796" gradientUnits="userSpaceOnUse">
<stop stop-color="#8A000D" stop-opacity="0"/>
<stop offset="1" stop-color="#8A000D"/>
</linearGradient>
<linearGradient id="paint10_linear_518_27842" x1="609.941" y1="74.8356" x2="508.857" y2="523.136" gradientUnits="userSpaceOnUse">
<stop stop-color="#EA4050" stop-opacity="0"/>
<stop offset="1" stop-color="#8A000D"/>
</linearGradient>
<linearGradient id="paint11_linear_518_27842" x1="280.075" y1="36.0036" x2="288.646" y2="502.607" gradientUnits="userSpaceOnUse">
<stop stop-color="#EA4050" stop-opacity="0"/>
<stop offset="1" stop-color="#5B040C"/>
</linearGradient>
<linearGradient id="paint12_linear_518_27842" x1="324.271" y1="489.664" x2="246.46" y2="633.364" gradientUnits="userSpaceOnUse">
<stop stop-color="#3D4B96"/>
<stop offset="1" stop-color="#3656FF" stop-opacity="0"/>
</linearGradient>
<linearGradient id="paint13_linear_518_27842" x1="759.765" y1="195.362" x2="265.912" y2="506.608" gradientUnits="userSpaceOnUse">
<stop stop-color="#EA4050" stop-opacity="0"/>
<stop offset="1" stop-color="#8A000D"/>
</linearGradient>
<linearGradient id="paint14_linear_518_27842" x1="744.077" y1="-5.44245" x2="625.477" y2="529.199" gradientUnits="userSpaceOnUse">
<stop stop-color="#EA4050" stop-opacity="0"/>
<stop offset="1" stop-color="#8A000D"/>
</linearGradient>
<linearGradient id="paint15_linear_518_27842" x1="531.978" y1="-105.845" x2="501.013" y2="693.116" gradientUnits="userSpaceOnUse">
<stop stop-color="#FF7A00"/>
<stop offset="1" stop-color="#471111" stop-opacity="0"/>
</linearGradient>
</defs>
</svg>
