<svg width="1821" height="892" viewBox="0 0 1821 892" fill="none" xmlns="http://www.w3.org/2000/svg">
<path d="M357.727 388.382L327.743 341.558L226.648 313.101L224.063 350.758L127.039 323.447L149.312 116.472L280.262 153.332L454.751 415.693L357.727 388.382ZM230.146 259.252L285.104 274.722L234.358 195.245L230.146 259.252ZM692.335 482.569L662.352 435.745L561.256 407.289L558.672 444.945L461.647 417.634L483.921 210.659L614.87 247.519L789.36 509.88L692.335 482.569ZM564.755 353.439L619.713 368.909L568.966 289.432L564.755 353.439ZM1026.94 576.756L996.961 529.933L895.865 501.476L893.281 539.132L796.256 511.821L818.53 304.846L949.479 341.706L1123.97 604.067L1026.94 576.756ZM899.363 447.626L954.321 463.096L903.575 383.619L899.363 447.626ZM1361.55 670.944L1331.57 624.12L1230.47 595.663L1227.89 633.319L1130.86 606.009L1153.14 399.033L1284.09 435.893L1458.58 698.255L1361.55 670.944ZM1233.97 541.813L1288.93 557.283L1238.18 477.807L1233.97 541.813ZM1616.74 529.53L1704.94 554.358L1781.05 789.026L1692.85 764.198L1666.75 683.741L1527.66 644.589L1553.76 725.046L1465.55 700.218L1389.45 465.55L1477.65 490.378L1503.74 570.836L1642.83 609.988L1616.74 529.53Z" fill="#3D3AA9"/>
<path d="M331.876 367.428L301.892 320.604L200.797 292.147L198.212 329.804L101.188 302.493L123.461 95.5175L254.411 132.378L428.9 394.739L331.876 367.428ZM204.295 238.297L259.253 253.767L208.507 174.291L204.295 238.297ZM666.484 461.615L636.501 414.791L535.405 386.334L532.821 423.991L435.796 396.68L458.07 189.705L589.019 226.565L763.509 488.926L666.484 461.615ZM538.904 332.485L593.862 347.954L543.115 268.478L538.904 332.485ZM1001.09 555.802L971.11 508.978L870.014 480.521L867.43 518.178L770.405 490.867L792.679 283.892L923.628 320.752L1098.12 583.113L1001.09 555.802ZM873.512 426.672L928.47 442.141L877.724 362.665L873.512 426.672ZM1335.7 649.989L1305.72 603.165L1204.62 574.709L1202.04 612.365L1105.01 585.054L1127.29 378.079L1258.24 414.939L1432.73 677.3L1335.7 649.989ZM1208.12 520.859L1263.08 536.329L1212.33 456.852L1208.12 520.859ZM1590.89 508.576L1679.09 533.404L1755.2 768.072L1667 743.244L1640.9 662.786L1501.81 623.634L1527.91 704.092L1439.7 679.264L1363.59 444.596L1451.8 469.424L1477.89 549.881L1616.98 589.033L1590.89 508.576Z" fill="#EA4050"/>
</svg>
