<svg width="424" height="972" viewBox="0 0 424 972" fill="none" xmlns="http://www.w3.org/2000/svg">
<path d="M4.00103 710.532L4.00102 619.904L248 619.904L248 738.418L104.041 843.686L248 843.686L248 934.314L4.00104 934.314L4.00103 815.8L147.96 710.532L4.00103 710.532ZM73.715 347.886L73.715 515.2L96.3721 515.2L96.3721 347.886L155.629 347.886L155.629 515.2L178.286 515.2L178.286 347.886L248 347.886L248 605.828L4.00102 605.828L4.00101 347.886L73.715 347.886ZM251.486 187.707C251.486 295.067 210.703 341.078 125.652 341.078C40.9494 341.078 0.515313 295.067 0.515308 187.707C0.515304 80.6961 41.298 34.3363 125.652 34.3363C210.354 34.3363 251.486 80.6961 251.486 187.707ZM174.8 187.707C174.8 134.376 151.446 124.964 125.652 124.964C100.206 124.964 77.2007 134.027 77.2007 187.707C77.2007 241.387 99.8578 250.45 125.652 250.45C151.795 250.45 174.8 241.038 174.8 187.707ZM362.015 892.015L362.015 816.772L398 816.772L398 934.543L283.501 934.543L283.501 892.015L362.015 892.015ZM360.379 799.357L283.501 857.588L283.501 808.517L326.029 778.093L283.501 747.669L283.501 698.598L360.379 756.829L398 756.829L398 799.357L360.379 799.357ZM283.501 519.911L398 519.911L398 562.439L343.531 562.439L398 593.681L398 621.488L343.531 652.73L398 652.73L398 695.258L283.501 695.258L283.501 642.915L348.929 607.584L283.501 572.253L283.501 519.911ZM283.501 423.355C283.501 397.347 301.821 379.518 327.338 379.518C352.855 379.518 371.175 397.347 371.175 423.355L371.175 470.79L398 470.79L398 513.318L283.501 513.318L283.501 423.355ZM335.189 431.533C335.189 427.28 335.189 422.046 327.338 422.046C319.486 422.046 319.486 427.28 319.486 431.533L319.486 470.79L335.189 470.79L335.189 431.533ZM283.501 332.139L398 332.139L398 374.667L283.501 374.667L283.501 332.139ZM340.587 328.861C300.839 328.861 281.865 307.27 281.865 256.89C281.865 211.091 297.895 187.209 334.044 185.41L334.044 228.92C323.249 230.555 317.851 238.897 317.851 256.89C317.851 282.08 328.483 286.333 340.587 286.333C352.855 286.333 363.65 281.916 363.65 256.89C363.65 238.897 358.089 230.555 347.13 228.92L347.13 185.41C383.442 187.209 399.636 210.927 399.636 256.89C399.636 307.27 380.498 328.861 340.587 328.861ZM357.598 182.063L357.598 139.535C363.16 139.535 366.922 134.301 366.922 107.312C366.922 82.122 365.286 78.3599 361.033 78.3599C356.126 78.3599 355.472 82.122 354.654 108.947C353.018 160.636 344.513 180.428 317.851 180.428C292.661 180.428 281.865 155.728 281.865 110.583C281.865 65.9286 292.661 40.7388 321.94 40.7388L321.94 83.267C315.888 83.267 314.579 93.0812 314.579 113.855C314.579 133.81 315.561 137.899 319.977 137.899C324.394 137.899 324.23 133.81 325.211 108.947C327.011 63.8021 330.118 35.8317 360.052 35.8317C391.621 35.8317 399.636 62.0029 399.636 108.947C399.636 155.892 391.621 182.063 357.598 182.063Z" fill="#E9EEFD"/>
</svg>
