<svg width="484" height="1080" viewBox="0 0 484 1080" fill="none" xmlns="http://www.w3.org/2000/svg">
<mask id="mask0_518_20591" style="mask-type:alpha" maskUnits="userSpaceOnUse" x="0" y="0" width="484" height="1080">
<rect width="484" height="1080" fill="#3656FF"/>
</mask>
<g mask="url(#mask0_518_20591)">
<rect width="484" height="1080" fill="#3656FF"/>
<path d="M415.67 821.106L509.138 832.87C540.078 836.764 570.547 843.76 600.086 853.754L639.497 867.088L605.367 967.971L506.17 917.991C483.288 906.462 458.156 900.092 432.545 899.329C368.001 897.406 307.63 931.138 275.436 987.113L252.836 1026.41C244.667 1040.61 237.908 1055.58 232.657 1071.1L204.659 1153.86L46.9411 1100.5L155.305 989.311C171.278 972.922 175.177 948.242 165.035 927.727C153.159 903.708 125.458 892.04 99.976 900.323L80.529 906.644C60.3139 913.215 43.6784 927.789 34.5059 946.965L-17.8468 1056.41L-101.679 1028.05L22.2097 850.443C59.0446 797.637 73.392 732.36 62.0953 668.975C52.6371 615.906 25.783 567.494 -14.2322 531.375L-68.2742 482.594C-174.085 387.084 -146.803 214.33 -16.708 156.076C92.2592 107.283 133.256 -26.3562 70.3965 -127.861L15.0583 -217.221L68.8504 -295.089L201.892 -147.555C313.741 -23.5205 318.457 163.539 212.999 293.052L207.022 300.392C140.096 382.584 118.1 492.533 148.256 594.146C184.466 716.157 289.395 805.213 415.67 821.106Z" fill="#3D3AA9"/>
</g>
</svg>
