<svg width="453" height="507" viewBox="0 0 453 507" fill="none" xmlns="http://www.w3.org/2000/svg">
<mask id="mask0_518_29176" style="mask-type:alpha" maskUnits="userSpaceOnUse" x="0" y="0" width="453" height="507">
<rect x="0.44812" y="0.799072" width="452" height="505.627" fill="#EDE7FF"/>
</mask>
<g mask="url(#mask0_518_29176)">
<path d="M86.8412 202.26V173.923L148.97 252.822V327.864C148.97 343.696 147.78 359.506 145.411 375.16L138.034 423.909C132.66 459.415 118.747 493.085 97.4899 522.028L75.601 551.83C69.8954 559.598 62.4821 565.953 53.9327 570.403L48.5675 573.196C24.9911 585.469 -3.97433 579.338 -20.5563 558.566C-33.1713 542.762 -36.2116 521.356 -28.4958 502.665L-20.8296 484.094C-19.1449 480.013 -17.1612 476.063 -14.8947 472.274L31.5437 394.648C42.6255 376.123 51.7806 356.513 58.8656 336.123L69.3297 306.008C80.922 272.647 86.8412 237.578 86.8412 202.26Z" fill="#3D3AA9"/>
<path d="M254.265 202.176V173.923L316.497 176.314V327.825C316.497 343.683 315.303 359.519 312.926 375.198L305.553 423.842C300.164 459.391 286.216 493.097 264.909 522.058L243.021 551.81C237.296 559.591 229.861 565.955 221.289 570.41L215.848 573.238C192.27 585.491 163.32 579.365 146.726 558.612C134.07 542.784 131.02 521.326 138.764 502.598L146.416 484.091C148.103 480.012 150.089 476.064 152.357 472.278L198.865 394.665C209.972 376.129 219.149 356.504 226.252 336.095L236.7 306.078C248.327 272.671 254.265 237.549 254.265 202.176Z" fill="#3D3AA9"/>
<path d="M173.459 294.126L159.589 269.468L263.825 265.926V291.772C263.825 298.371 265.599 304.849 268.96 310.527C274.954 320.656 285.429 327.309 297.145 328.429L336.504 332.191C343.693 332.878 350.934 332.833 358.114 332.055L390.908 328.502C401.754 327.327 412.558 331.059 420.367 338.677C425.839 344.015 429.499 350.935 430.832 358.462L444.468 435.437L466.47 545.812C472.019 573.649 481.142 600.653 493.612 626.152C503.663 646.705 511.547 668.249 517.134 690.435L525.934 725.376L456.106 737.52L428.782 676.799L399.434 597.357L374.64 496.157L359.46 405.583L365.026 454.159V475.242C365.026 536.287 359.502 597.206 348.523 657.256L340.232 702.605L102.411 687.931L105.172 677.211C120.393 618.119 124.094 556.648 116.073 496.157L105.953 445.051L100.893 419.498L99.7424 414.215C99.1732 411.602 95.327 412.016 95.327 414.691C93.6437 427.484 90.8255 440.102 86.9057 452.396L81.665 468.833C65.8443 511.919 46.069 553.448 22.5924 592.889L19.9328 597.357L-39.7753 573.069L3.74594 466.636C8.79469 454.289 12.8637 441.564 15.9153 428.578L30.9839 364.457C33.6654 353.046 39.9431 342.799 48.891 335.228C61.0264 324.96 77.0302 320.482 92.7324 322.961L111.031 325.85C114.387 326.38 117.78 326.647 121.178 326.647H154.44C164.337 326.647 172.994 319.986 175.532 310.421C176.99 304.927 176.246 299.081 173.459 294.126Z" fill="#3D3AA9"/>
<path d="M267.543 264.412L237.611 282.346C235.223 283.777 232.424 284.362 229.664 284.01L199.583 280.164C188.578 278.757 177.768 276.111 167.359 272.277L143.078 263.332C124.331 256.426 108.831 242.779 99.6052 225.057C96.2515 218.615 93.7872 211.747 92.2799 204.642L89.5657 191.848C87.2442 180.905 86.4006 169.7 87.0576 158.532L87.327 153.953C88.0961 140.879 91.3852 128.077 97.0131 116.252L97.3665 115.509C103.495 102.632 112.364 91.2484 123.351 82.1562C135.483 72.1175 149.857 65.1533 165.254 61.8543L175.752 59.6049L197.029 56.7683C207.038 55.4339 217.181 55.4451 227.187 56.8015L234.913 57.8489C260.333 61.295 283.271 74.9006 298.483 95.5567L300.49 98.281C305.572 105.182 309.437 112.902 311.915 121.107C314.044 128.153 315.126 135.474 315.126 142.835V160.817L317.584 179.868C319.151 192.007 317.564 204.344 312.977 215.691C309.592 224.063 304.648 231.715 298.406 238.239L292.189 244.738C284.89 252.368 276.601 258.985 267.543 264.412Z" fill="#3D3AA9"/>
<path d="M127.908 125.33L42.8548 150.086C41.9915 150.337 41.2958 149.358 41.8173 148.626L79.6877 95.4243L95.0694 46.1053C96.4558 41.66 99.4315 37.8814 103.428 35.4914L114.51 28.8638C167.867 -3.04579 234.489 -2.86077 287.669 29.3447C290.553 31.0912 292.844 33.6655 294.245 36.7325L313.216 78.2787L362.061 123.333C362.738 123.957 362.217 125.083 361.303 124.971L279.741 114.962L267.471 113.28C223.796 107.291 179.351 110.503 136.992 122.711L127.908 125.33Z" fill="#3D3AA9"/>
<path d="M153.99 350.304L133.783 323.611L87.1341 319.687C82.1655 319.269 77.1625 319.581 72.2843 320.613C54.6069 324.352 40.2211 337.154 34.454 354.277L22.9688 388.379L15.8848 415.197C7.92569 437.085 -5.58702 456.527 -23.3274 471.617L-40.2813 486.037C-11.9882 509.777 23.9853 522.975 60.9189 522.975L83.183 486.037L93.5413 471.794C94.1037 471.021 95.327 471.419 95.327 472.375V529.948C95.327 566.158 88.8017 602.071 76.0638 635.967C69.0208 654.709 60.1277 672.702 49.5164 689.68L47.7629 692.486L348.328 704.124L363.508 605.453L370.847 483.624C370.891 482.891 371.932 482.795 372.11 483.507C375.433 494.805 375.943 506.744 373.596 518.284L371.098 530.565L385.327 527.066C416.606 519.375 445.791 504.843 470.78 484.519L464.189 469.555C456.132 451.265 450.367 432.05 447.023 412.345L440.045 371.227C438.626 362.863 435.366 354.92 430.502 347.97L429.903 347.115C425.825 341.29 420.6 336.359 414.549 332.625C405.059 326.769 393.945 324.106 382.832 325.026L332.642 329.177L311.275 350.998C294.234 368.402 272.196 380.065 248.222 384.368L243.368 385.239C231.814 387.313 219.969 387.151 208.475 384.761C186.744 380.243 167.387 368.001 153.99 350.304Z" fill="#3D3AA9"/>
<mask id="mask1_518_29176" style="mask-type:alpha" maskUnits="userSpaceOnUse" x="-27" y="10" width="567" height="734">
<path fill-rule="evenodd" clip-rule="evenodd" d="M79.8692 148.834L56.4258 155.658C55.5625 155.909 54.8668 154.93 55.3882 154.198L93.2586 100.996L108.64 51.6774C110.027 47.2321 113.002 43.4535 116.999 41.0635L128.081 34.4359C181.438 2.52632 248.06 2.71134 301.24 34.9168C304.124 36.6634 306.415 39.2377 307.816 42.3046L326.787 83.8508L375.632 128.905C376.309 129.529 375.788 130.655 374.874 130.543L359.641 128.674L361.74 129.276L326.862 131.904C328.08 137.315 328.697 142.849 328.697 148.406V166.389L331.155 185.44C332.212 193.629 331.834 201.908 330.068 209.912V333.397C330.068 334.214 330.064 335.032 330.058 335.85L343.844 337.168L346.213 334.748L396.403 330.597C407.516 329.678 418.63 332.341 428.12 338.196C434.171 341.93 439.396 346.861 443.474 352.687L444.073 353.542C448.937 360.491 452.197 368.435 453.616 376.798L460.594 417.917C463.938 437.621 469.703 456.837 477.76 475.127L484.351 490.091C479.697 493.876 474.897 497.461 469.965 500.838L480.041 551.384C485.59 579.221 494.713 606.225 507.183 631.724C517.234 652.277 525.118 673.821 530.705 696.007L539.505 730.948L469.677 743.092L442.353 682.371L413.005 602.929L395.96 533.36L384.669 536.137L387.167 523.856C388.663 516.497 388.998 508.976 388.183 501.562L386.834 493.517C386.498 492.029 386.113 490.548 385.681 489.079C385.503 488.367 384.462 488.463 384.418 489.196L377.079 611.025L361.899 709.695L61.3339 698.057L63.0873 695.252C73.6987 678.274 82.5918 660.28 89.6348 641.539C102.373 607.643 108.898 571.729 108.898 535.519V530.545L89.172 557.402C83.4664 565.17 76.0531 571.525 67.5037 575.975L62.1385 578.768C56.4138 581.748 50.3714 583.643 44.2658 584.507C41.6161 589.186 38.9152 593.838 36.1634 598.461L33.5038 602.929L-26.2043 578.641L-14.8453 550.862C-20.4538 537.418 -20.6403 522.083 -14.9248 508.237L-12.4562 502.257C-17.3884 498.989 -22.1492 495.436 -26.7103 491.609L-9.75646 477.188C7.98396 462.099 21.4967 442.656 29.4558 420.769L36.5398 393.951L44.4588 370.438L44.5549 370.029C45.3751 366.538 46.5318 363.157 47.9984 359.928L48.025 359.849C52.777 345.739 63.3809 334.564 76.8563 328.975L82.9007 311.58C94.493 278.219 100.412 243.15 100.412 207.832V179.495L100.695 179.855C100.343 174.617 100.32 169.356 100.629 164.104L100.898 159.524C101.109 155.936 101.51 152.368 102.098 148.834H79.8692ZM162.541 271.074L173.295 275.036L173.16 275.04L187.03 299.698C189.817 304.653 190.561 310.499 189.103 315.993C186.565 325.558 177.908 332.219 168.011 332.219H162.541V271.074Z" fill="#D9D9D9"/>
</mask>
<g mask="url(#mask1_518_29176)">
<path d="M101.188 148.834H69.2939L73.6794 139.654L238.334 94.1509L360.728 129.276L101.188 148.834Z" fill="#BBCCDB"/>
<path d="M100.412 207.831V179.495L162.54 258.394V333.435C162.54 349.268 161.351 365.078 158.982 380.732L151.604 429.481C146.231 464.987 132.318 498.657 111.061 527.599L89.1717 557.402C83.4662 565.17 76.0529 571.524 67.5035 575.975L62.1382 578.768C38.5619 591.041 9.59644 584.91 -6.98548 564.137C-19.6005 548.334 -22.6408 526.928 -14.925 508.237L-7.25879 489.666C-5.57414 485.585 -3.59044 481.634 -1.32389 477.845L45.1144 400.219C56.1962 381.695 65.3513 362.084 72.4364 341.694L82.9004 311.58C94.4928 278.218 100.412 243.15 100.412 207.831Z" fill="white" stroke="#F4EBF0" stroke-width="0.632178"/>
<path d="M267.836 207.748V179.495L330.067 181.886V333.396C330.067 349.255 328.874 365.091 326.497 380.77L319.123 429.413C313.735 464.962 299.786 498.669 278.48 527.63L256.592 557.382C250.867 565.163 243.432 571.527 234.86 575.982L229.419 578.809C205.841 591.062 176.89 584.937 160.297 564.184C147.641 548.355 144.591 526.898 152.335 508.169L159.987 489.663C161.674 485.584 163.659 481.636 165.928 477.85L212.436 400.237C223.543 381.701 232.72 362.075 239.823 341.667L250.271 311.65C261.898 278.243 267.836 243.121 267.836 207.748Z" fill="white" stroke="#F4EBF0" stroke-width="0.632178"/>
<path d="M100.412 207.831V179.495L162.54 258.394V333.435C162.54 349.268 161.351 365.078 158.982 380.732L151.604 429.481C146.231 464.987 132.318 498.657 111.061 527.599L89.1717 557.402C83.4662 565.17 76.0529 571.524 67.5035 575.975L62.1382 578.768C38.5619 591.041 9.59644 584.91 -6.98548 564.137C-19.6005 548.334 -22.6408 526.928 -14.925 508.237L-7.25879 489.666C-5.57414 485.585 -3.59044 481.634 -1.32389 477.845L45.1144 400.219C56.1962 381.695 65.3513 362.084 72.4364 341.694L82.9004 311.58C94.4928 278.218 100.412 243.15 100.412 207.831Z" fill="url(#paint0_linear_518_29176)" stroke="#F4EBF0" stroke-width="0.632178"/>
<path d="M267.836 207.748V179.495L330.067 181.886V333.396C330.067 349.255 328.874 365.091 326.497 380.77L319.123 429.413C313.735 464.962 299.786 498.669 278.48 527.63L256.592 557.382C250.867 565.163 243.432 571.527 234.86 575.982L229.419 578.809C205.841 591.062 176.89 584.937 160.297 564.184C147.641 548.355 144.591 526.898 152.335 508.169L159.987 489.663C161.674 485.584 163.659 481.636 165.928 477.85L212.436 400.237C223.543 381.701 232.72 362.075 239.823 341.667L250.271 311.65C261.898 278.243 267.836 243.121 267.836 207.748Z" fill="url(#paint1_linear_518_29176)" stroke="#F4EBF0" stroke-width="0.632178"/>
<path d="M111.322 220.826V175.702L151.161 257.407L148.372 351.467L135.072 439.342C131.241 464.654 121.688 488.759 107.14 509.825L90.3355 534.157C86.0626 540.344 80.3669 545.415 73.7272 548.944L60.7326 555.85C40.1635 566.782 14.811 555.339 9.40259 532.682C8.0487 527.01 8.10887 521.092 9.57781 515.449L13.6679 499.737C16.0773 490.481 19.7935 481.615 24.7042 473.408L58.5777 416.793C75.3134 388.822 87.622 358.43 95.0667 326.695L102.967 293.02C108.518 269.357 111.322 245.132 111.322 220.826Z" fill="#FFF7FD" stroke="#F4EBF0" stroke-width="1.012"/>
<path d="M276.876 220.853V175.702L320.269 215.558L313.899 351.467L300.605 439.362C296.779 464.661 287.237 488.756 272.704 509.814L255.901 534.163C251.634 540.346 245.945 545.414 239.312 548.942L226.354 555.834C205.789 566.772 180.434 555.33 175.03 532.673C173.678 527.007 173.738 521.095 175.205 515.458L179.293 499.739C181.701 490.481 185.416 481.614 190.324 473.404L224.179 416.779C240.897 388.817 253.192 358.438 260.627 326.719L268.533 292.996C274.076 269.348 276.876 245.141 276.876 220.853Z" fill="#FFF7FD" stroke="#F4EBF0" stroke-width="1.012"/>
<path d="M187.03 299.698L173.16 275.04L277.396 271.498V297.344C277.396 303.943 279.169 310.42 282.53 316.099C288.525 326.227 299 332.88 310.716 334L350.074 337.763C357.264 338.45 364.504 338.404 371.684 337.626L404.479 334.074C415.325 332.899 426.129 336.63 433.938 344.249C439.41 349.587 443.07 356.507 444.403 364.034L458.039 441.008L480.04 551.383C485.589 579.221 494.712 606.225 507.183 631.724C517.234 652.277 525.117 673.82 530.705 696.007L539.505 730.947L469.677 743.091L442.353 682.371L413.005 602.929L388.21 501.728L373.03 411.154L378.596 459.73V480.814C378.596 541.859 373.073 602.778 362.094 662.827L353.802 708.177L115.982 693.503L118.743 682.782C133.964 623.69 137.665 562.22 129.644 501.728L119.524 450.622L114.464 425.069L113.313 419.787C112.744 417.174 108.898 417.588 108.898 420.262C107.214 433.056 104.396 445.674 100.476 457.968L95.2358 474.404C79.415 517.491 59.6398 559.02 36.1632 598.461L33.5036 602.929L-26.2045 578.641L24.9016 453.658L46.768 368.765C49.3409 358.776 54.7112 349.729 62.248 342.687C74.4443 331.29 91.212 326.15 107.7 328.753L124.602 331.422C127.958 331.952 131.351 332.218 134.748 332.218H168.011C177.907 332.218 186.565 325.558 189.103 315.992C190.56 310.498 189.817 304.652 187.03 299.698Z" fill="white" stroke="#F4EBF0" stroke-width="1.012"/>
<path d="M187.03 299.698L173.16 275.04L277.396 271.498V297.344C277.396 303.943 279.169 310.42 282.53 316.099C288.525 326.227 299 332.88 310.716 334L350.074 337.763C357.264 338.45 364.504 338.404 371.684 337.626L404.479 334.074C415.325 332.899 426.129 336.63 433.938 344.249C439.41 349.587 443.07 356.507 444.403 364.034L458.039 441.008L480.04 551.383C485.589 579.221 494.712 606.225 507.183 631.724C517.234 652.277 525.117 673.82 530.705 696.007L539.505 730.947L469.677 743.091L442.353 682.371L413.005 602.929L388.21 501.728L373.03 411.154L378.596 459.73V480.814C378.596 541.859 373.073 602.778 362.094 662.827L353.802 708.177L115.982 693.503L118.743 682.782C133.964 623.69 137.665 562.22 129.644 501.728L119.524 450.622L114.464 425.069L113.313 419.787C112.744 417.174 108.898 417.588 108.898 420.262C107.214 433.056 104.396 445.674 100.476 457.968L95.2358 474.404C79.415 517.491 59.6398 559.02 36.1632 598.461L33.5036 602.929L-26.2045 578.641L17.3167 472.208C22.3655 459.861 26.4345 447.135 29.4861 434.15L44.5547 370.028C47.2362 358.618 53.5138 348.371 62.4618 340.8C74.5971 330.531 90.6009 326.053 106.303 328.533L124.602 331.422C127.958 331.952 131.351 332.218 134.748 332.218H168.011C177.907 332.218 186.565 325.558 189.103 315.992C190.56 310.498 189.817 304.652 187.03 299.698Z" fill="url(#paint2_linear_518_29176)"/>
<path d="M187.03 299.698L173.16 275.04L277.396 271.498V297.344C277.396 303.943 279.169 310.42 282.53 316.099C288.525 326.227 299 332.88 310.716 334L350.074 337.763C357.264 338.45 364.504 338.404 371.684 337.626L404.479 334.074C415.325 332.899 426.129 336.63 433.938 344.249C439.41 349.587 443.07 356.507 444.403 364.034L458.039 441.008L480.04 551.383C485.589 579.221 494.712 606.225 507.183 631.724C517.234 652.277 525.117 673.82 530.705 696.007L539.505 730.947L469.677 743.091L442.353 682.371L413.005 602.929L388.21 501.728L373.03 411.154L378.596 459.73V480.814C378.596 541.859 373.073 602.778 362.094 662.827L353.802 708.177L115.982 693.503L118.743 682.782C133.964 623.69 137.665 562.22 129.644 501.728L119.524 450.622L114.464 425.069L113.313 419.787C112.744 417.174 108.898 417.588 108.898 420.262C107.214 433.056 104.396 445.674 100.476 457.968L95.2358 474.404C79.415 517.491 59.6398 559.02 36.1632 598.461L33.5036 602.929L-26.2045 578.641L17.3504 472.125C22.378 459.83 26.511 447.188 29.7173 434.297L45.6909 370.077C48.3032 359.574 53.9397 350.069 61.9019 342.739C74.3283 331.298 91.3015 326.164 107.986 328.798L124.602 331.422C127.958 331.952 131.351 332.218 134.748 332.218H168.011C177.907 332.218 186.565 325.558 189.103 315.992C190.56 310.498 189.817 304.652 187.03 299.698Z" fill="url(#paint3_linear_518_29176)"/>
<g style="mix-blend-mode:color-burn">
<path d="M187.03 299.698L173.16 275.04L277.396 271.498V297.344C277.396 303.943 279.169 310.42 282.53 316.099C288.525 326.227 299 332.88 310.716 334L350.074 337.763C357.264 338.45 364.504 338.404 371.684 337.626L404.479 334.074C415.325 332.899 426.129 336.63 433.938 344.249C439.41 349.587 443.07 356.507 444.403 364.034L458.039 441.008L480.04 551.383C485.589 579.221 494.712 606.225 507.183 631.724C517.234 652.277 525.117 673.82 530.705 696.007L539.505 730.947L469.677 743.091L442.353 682.371L413.005 602.929L388.21 501.728L373.03 411.154L378.596 459.73V480.814C378.596 541.859 373.073 602.778 362.094 662.827L353.802 708.177L115.982 693.503L118.743 682.782C133.964 623.69 137.665 562.22 129.644 501.728L119.524 450.622L114.464 425.069L113.313 419.787C112.744 417.174 108.898 417.588 108.898 420.262C107.214 433.056 104.396 445.674 100.476 457.968L95.2358 474.404C79.415 517.491 59.6398 559.02 36.1632 598.461L33.5036 602.929L-26.2045 578.641L17.3167 472.208C22.3655 459.861 26.4345 447.135 29.4861 434.15L44.5547 370.028C47.2362 358.618 53.5138 348.371 62.4618 340.8C74.5971 330.531 90.6009 326.053 106.303 328.533L124.602 331.422C127.958 331.952 131.351 332.218 134.748 332.218H168.011C177.907 332.218 186.565 325.558 189.103 315.992C190.56 310.498 189.817 304.652 187.03 299.698Z" fill="url(#paint4_linear_518_29176)"/>
</g>
<path d="M281.114 269.983L251.182 287.918C248.794 289.348 245.995 289.934 243.235 289.581L213.154 285.736C202.15 284.329 191.34 281.683 180.93 277.848L156.65 268.904C137.902 261.998 122.402 248.351 113.176 230.629C109.823 224.186 107.358 217.318 105.851 210.213L103.137 197.419C100.815 186.476 99.9717 175.271 100.629 164.104L100.898 159.524C101.667 146.451 104.956 133.649 110.584 121.824L110.938 121.081C117.066 108.203 125.935 96.82 136.923 87.7277C149.054 77.6891 163.428 70.7248 178.825 67.4258L189.323 65.1765L210.6 62.3398C220.609 61.0054 230.752 61.0166 240.758 62.3731L248.484 63.4204C273.904 66.8666 296.842 80.4722 312.055 101.128L314.061 103.853C319.143 110.754 323.008 118.474 325.486 126.678C327.615 133.725 328.697 141.045 328.697 148.406V166.389L331.155 185.44C332.722 197.578 331.135 209.916 326.548 221.263C323.164 229.634 318.219 237.286 311.977 243.811L305.76 250.309C298.461 257.939 290.172 264.556 281.114 269.983Z" fill="white" stroke="#F4EBF0" stroke-width="1.012"/>
<path d="M281.114 269.983L251.182 287.918C248.794 289.348 245.995 289.934 243.235 289.581L213.154 285.736C202.15 284.329 191.34 281.683 180.93 277.848L156.65 268.904C137.902 261.998 122.402 248.351 113.176 230.629C109.823 224.186 107.358 217.318 105.851 210.213L103.137 197.419C100.815 186.476 99.9717 175.271 100.629 164.104L100.898 159.524C101.667 146.451 104.956 133.649 110.584 121.824L110.938 121.081C117.066 108.203 125.935 96.82 136.923 87.7277C149.054 77.6891 163.428 70.7248 178.825 67.4258L189.323 65.1765L210.6 62.3398C220.609 61.0054 230.752 61.0166 240.758 62.3731L248.484 63.4204C273.904 66.8666 296.842 80.4722 312.055 101.128L314.061 103.853C319.143 110.754 323.008 118.474 325.486 126.678C327.615 133.725 328.697 141.045 328.697 148.406V166.389L331.155 185.44C332.722 197.578 331.135 209.916 326.548 221.263C323.164 229.634 318.219 237.286 311.977 243.811L305.76 250.309C298.461 257.939 290.172 264.556 281.114 269.983Z" fill="url(#paint5_linear_518_29176)"/>
<path d="M281.114 269.983L251.182 287.918C248.794 289.348 245.995 289.934 243.235 289.581L213.154 285.736C202.15 284.329 191.34 281.683 180.93 277.848L156.65 268.904C137.902 261.998 122.402 248.351 113.176 230.629C109.823 224.186 107.358 217.318 105.851 210.213L103.137 197.419C100.815 186.476 99.9717 175.271 100.629 164.104L100.898 159.524C101.667 146.451 104.956 133.649 110.584 121.824L110.938 121.081C117.066 108.203 125.935 96.82 136.923 87.7277C149.054 77.6891 163.428 70.7248 178.825 67.4258L189.323 65.1765L210.6 62.3398C220.609 61.0054 230.752 61.0166 240.758 62.3731L248.484 63.4204C273.904 66.8666 296.842 80.4722 312.055 101.128L314.061 103.853C319.143 110.754 323.008 118.474 325.486 126.678C327.615 133.725 328.697 141.045 328.697 148.406V166.389L331.155 185.44C332.722 197.578 331.135 209.916 326.548 221.263C323.164 229.634 318.219 237.286 311.977 243.811L305.76 250.309C298.461 257.939 290.172 264.556 281.114 269.983Z" fill="url(#paint6_linear_518_29176)"/>
<g style="mix-blend-mode:soft-light">
<path d="M281.114 269.983L251.182 287.918C248.794 289.348 245.995 289.934 243.235 289.581L213.154 285.736C202.15 284.329 191.34 281.683 180.93 277.848L156.65 268.904C137.902 261.998 122.402 248.351 113.176 230.629C109.823 224.186 107.358 217.318 105.851 210.213L103.137 197.419C100.815 186.476 99.9717 175.271 100.629 164.104L100.898 159.524C101.667 146.451 104.956 133.649 110.584 121.824L110.938 121.081C117.066 108.203 125.935 96.82 136.923 87.7277C149.054 77.6891 163.428 70.7248 178.825 67.4258L189.323 65.1765L210.6 62.3398C220.609 61.0054 230.752 61.0166 240.758 62.3731L248.484 63.4204C273.904 66.8666 296.842 80.4722 312.055 101.128L314.061 103.853C319.143 110.754 323.008 118.474 325.486 126.678C327.615 133.725 328.697 141.045 328.697 148.406V166.389L331.155 185.44C332.722 197.578 331.135 209.916 326.548 221.263C323.164 229.634 318.219 237.286 311.977 243.811L305.76 250.309C298.461 257.939 290.172 264.556 281.114 269.983Z" fill="#40B1F0"/>
</g>
<path d="M330.02 178.394C332.044 188.514 333.959 207.157 321.384 214.493C292.267 231.478 272.855 204.263 272.855 184.161C272.855 164.059 288.607 147.764 308.038 147.764C327.469 147.764 327.996 158.154 330.02 178.394Z" fill="url(#paint7_radial_518_29176)"/>
<ellipse cx="136.222" cy="192.056" rx="34.9141" ry="44.5281" fill="url(#paint8_radial_518_29176)"/>
<path d="M180.219 163.178L172.151 161.329C170.541 160.96 168.9 160.751 167.249 160.704L145.617 160.099L163.728 148.38C166.998 146.264 170.834 145.189 174.728 145.298L179.461 145.431C182.54 145.517 185.399 147.048 187.178 149.563L188.289 151.134C190.674 154.507 189.999 159.158 186.752 161.713C184.908 163.164 182.507 163.703 180.219 163.178Z" fill="url(#paint9_linear_518_29176)"/>
<path d="M258.864 141.879L262.585 140.55C264.179 139.981 265.872 139.741 267.562 139.846L274.75 140.291C281.396 140.702 287.881 142.504 293.787 145.579L297.226 147.369L286.459 148.646C283.168 149.036 279.992 150.096 277.127 151.76C274.157 153.485 270.856 154.56 267.44 154.914L264.038 155.266C264.037 155.267 264.036 155.267 264.035 155.266L259.736 154.378C256.565 153.723 254.358 150.836 254.559 147.604C254.719 145.007 256.413 142.755 258.864 141.879Z" fill="url(#paint10_linear_518_29176)"/>
<path d="M226.606 232.73L228.761 232.01C233.293 230.495 236.486 226.505 237.041 221.845L240.205 226.256C241.614 228.22 243.605 229.689 245.897 230.455C248.534 231.336 251.4 231.231 253.965 230.16L256.259 229.201C260.707 227.343 265.825 229.381 267.779 233.788C268.48 235.371 268.703 237.124 268.419 238.833L268.02 241.233C267.072 246.939 263.284 251.771 257.97 254.054L253.454 255.995C251.056 257.025 248.518 257.688 245.923 257.962L239.115 258.681C231.083 259.528 222.963 258.851 215.183 256.684L207.343 254.5C205.984 254.122 204.694 253.53 203.521 252.746L201.128 251.146C194.627 246.8 194.414 237.317 200.715 232.685C203.529 230.616 207.143 229.967 210.501 230.929L217.481 232.929C220.473 233.786 223.654 233.716 226.606 232.73Z" fill="url(#paint11_radial_518_29176)" stroke="#E9ABCC" stroke-width="1.012"/>
<path d="M239.235 207.626L239.235 207.626L239.239 207.632L241.524 211.061C243.394 213.867 242.853 217.632 240.267 219.797C238.705 221.105 236.628 221.62 234.636 221.193L232.541 220.744C231.548 220.531 230.602 220.141 229.748 219.592C226.385 217.433 224.997 213.211 226.422 209.477L231.625 195.844L239.235 207.626Z" fill="url(#paint12_radial_518_29176)" stroke="#E9ABCC" stroke-width="1.012"/>
<path d="M258.061 198.322L257.461 200.04L275.544 196.305L289.918 192.264C292.334 191.585 294.8 191.097 297.293 190.805L312.507 189.023C315.115 188.717 317.5 187.407 319.157 185.37C321.115 182.963 321.856 179.787 321.165 176.762L320.275 172.867C319.421 169.127 317.412 165.751 314.532 163.217L313.825 162.594C308.226 157.667 300.45 156.045 293.348 158.323L290.956 159.091C286.688 160.46 282.853 162.926 279.835 166.241L272.106 174.733C265.883 181.569 261.106 189.593 258.061 198.322Z" fill="white" stroke="black" stroke-width="0.316089"/>
<path d="M281.938 168.012L279.58 166.285L274.866 171.815L269.806 177.381L265.252 183.453L260.972 191.054L257.461 200.04L275.878 196.103L294.6 191.043L292.74 182.96C290.802 176.965 287.022 171.734 281.938 168.012Z" fill="url(#paint13_linear_518_29176)"/>
<path d="M258.061 198.322L257.461 200.04L275.544 196.305L289.918 192.264C292.334 191.585 294.8 191.097 297.293 190.805L312.507 189.023C315.115 188.717 317.5 187.407 319.157 185.37C321.115 182.963 321.856 179.787 321.165 176.762L320.275 172.867C319.421 169.127 317.412 165.751 314.532 163.217L313.825 162.594C308.226 157.667 300.45 156.045 293.348 158.323L290.956 159.091C286.688 160.46 282.853 162.926 279.835 166.241L272.106 174.733C265.883 181.569 261.106 189.593 258.061 198.322Z" stroke="#F4EBF0" stroke-width="0.316089"/>
<path d="M192.47 196.766L197.646 206.153C183.231 203.783 168.581 203.165 154.017 204.312L153.035 204.389L142.9 205.187C135.351 205.782 128.345 201.231 125.819 194.093C123.985 188.909 124.815 183.156 128.04 178.703L129.738 176.357C135.063 169.003 144.324 165.625 153.134 167.821L165.385 170.876C166.815 171.232 168.177 171.82 169.417 172.615L170.54 173.335C179.686 179.199 187.224 187.253 192.47 196.766Z" fill="white" stroke="#E9ABCC" stroke-width="0.316089"/>
<path d="M163.092 176.132L168.581 172.224L173.666 175.357L178.726 179.405L183.786 184.465L187.834 189.525L192.894 197.621L197.448 206.223L186.822 204.705L175.784 203.735L165.064 203.693L154.438 204.199L153.774 196.2C153.51 193.017 153.931 189.814 155.008 186.807C156.549 182.507 159.37 178.781 163.092 176.132Z" fill="url(#paint14_linear_518_29176)"/>
<path d="M192.47 196.766L197.646 206.153C183.231 203.783 168.581 203.165 154.017 204.312L153.035 204.389L142.9 205.187C135.351 205.782 128.345 201.231 125.819 194.093C123.985 188.909 124.815 183.156 128.04 178.703L129.738 176.357C135.063 169.003 144.324 165.625 153.134 167.821L165.385 170.876C166.815 171.232 168.177 171.82 169.417 172.615L170.54 173.335C179.686 179.199 187.224 187.253 192.47 196.766Z" stroke="#F4EBF0" stroke-width="0.316089"/>
<g style="mix-blend-mode:multiply">
<path d="M326.907 83.7197L214.895 94.8343L93.317 100.789" stroke="#C2DBEA" stroke-width="0.316089"/>
</g>
<path d="M141.479 130.901L56.4256 155.658C55.5623 155.909 54.8666 154.93 55.3881 154.197L93.2585 100.996L108.64 51.6768C110.027 47.2315 113.002 43.4529 116.999 41.0629L128.081 34.4354C181.438 2.52574 248.06 2.71076 301.24 34.9163C304.124 36.6628 306.415 39.2371 307.815 42.304L326.787 83.8502L375.632 128.904C376.309 129.529 375.788 130.655 374.873 130.542L293.312 120.534L281.042 118.851C237.367 112.862 192.922 116.075 150.563 128.283L141.479 130.901Z" fill="#D6FDFF"/>
<path d="M326.787 83.8502L375.632 128.904C376.309 129.529 375.788 130.655 374.873 130.542L293.312 120.534L281.042 118.851C237.367 112.862 192.922 116.075 150.563 128.283L141.479 130.901L56.4256 155.658C55.5623 155.909 54.8666 154.93 55.3881 154.197L93.2585 100.996M326.787 83.8502L307.815 42.304C306.415 39.2371 304.124 36.6628 301.24 34.9163V34.9163C248.06 2.71076 181.438 2.52574 128.081 34.4354L116.999 41.0629C113.002 43.4529 110.027 47.2315 108.64 51.6768L93.2585 100.996M326.787 83.8502L214.805 95.0148L93.2585 100.996" stroke="#C2DBEA" stroke-width="0.316089"/>
<g style="mix-blend-mode:multiply">
<path d="M141.479 130.901L56.4256 155.658C55.5623 155.909 54.8666 154.93 55.3881 154.197L93.2585 100.996L108.64 51.6768C110.027 47.2315 113.002 43.4529 116.999 41.0629L128.081 34.4354C181.438 2.52574 248.06 2.71076 301.24 34.9163C304.124 36.6628 306.415 39.2371 307.815 42.304L326.787 83.8502L375.632 128.904C376.309 129.529 375.788 130.655 374.873 130.542L293.312 120.534L281.042 118.851C237.367 112.862 192.922 116.075 150.563 128.283L141.479 130.901Z" fill="url(#paint15_linear_518_29176)"/>
</g>
<ellipse cx="160.328" cy="179.337" rx="4.42524" ry="3.95111" fill="white"/>
<ellipse cx="271.624" cy="176.62" rx="4.2672" ry="3.95111" fill="white"/>
<mask id="mask2_518_29176" style="mask-type:alpha" maskUnits="userSpaceOnUse" x="55" y="10" width="321" height="146">
<g style="mix-blend-mode:multiply">
<path d="M141.479 130.901L56.4256 155.658C55.5623 155.909 54.8666 154.93 55.3881 154.197L93.2585 100.996L108.64 51.677C110.027 47.2318 113.002 43.4531 116.999 41.0632L128.081 34.4356C181.438 2.52599 248.06 2.71101 301.24 34.9165C304.124 36.663 306.415 39.2373 307.815 42.3043L326.787 83.8505L375.632 128.904C376.309 129.529 375.788 130.655 374.873 130.543L293.312 120.534L281.042 118.852C237.367 112.862 192.922 116.075 150.563 128.283L141.479 130.901Z" fill="url(#paint16_linear_518_29176)"/>
</g>
</mask>
<g mask="url(#mask2_518_29176)">
<g style="mix-blend-mode:lighten">
<path d="M390.74 67.5795C390.74 89.632 364.702 108.892 325.972 119.232C306.787 124.354 279.429 116.662 255.638 116.662C220.677 116.662 193.999 120.953 170.63 110.648C145.991 99.7828 130.655 84.5034 130.655 67.5795C130.655 34.6036 188.877 7.87134 260.698 7.87134C332.518 7.87134 390.74 34.6036 390.74 67.5795Z" fill="#96CDF5"/>
</g>
<g style="mix-blend-mode:soft-light" filter="url(#filter0_f_518_29176)">
<ellipse cx="259.18" cy="47.8455" rx="113.344" ry="65.2742" fill="#FFC1C1"/>
</g>
</g>
<mask id="mask3_518_29176" style="mask-type:alpha" maskUnits="userSpaceOnUse" x="-30" y="324" width="515" height="387">
<path d="M167.561 355.875L147.354 329.182L100.705 325.259C95.7361 324.841 90.7331 325.153 85.8549 326.185C68.1776 329.924 53.7918 342.726 48.0247 359.849L36.5395 393.951L16.6508 434.391C9.70356 448.517 0.828438 461.61 -9.72031 473.295L-24.7335 489.925C-26.0443 491.377 -27.5632 492.626 -29.2406 493.633C-9.68255 537.778 41.9715 557.695 86.1036 538.107L100.802 531.583L97.4424 494.151C97.3242 492.834 97.6642 491.517 98.4049 490.422L107.197 477.425C107.711 476.666 108.898 477.029 108.898 477.947V535.519C108.898 571.729 102.372 607.643 89.6345 641.539C82.5915 660.28 73.6984 678.274 63.087 695.252L61.3336 698.057L361.898 709.695L377.078 611.025L384.423 489.11C384.466 488.392 385.485 488.298 385.659 488.995C385.673 489.051 385.68 489.108 385.678 489.165L385.301 502.544C384.905 516.595 391.489 529.931 402.884 538.161L446.907 521.969L477.773 495.151L483.845 489.585L477.423 474.78C469.589 456.717 463.964 437.775 460.67 418.364L453.616 376.798C452.197 368.435 448.937 360.491 444.072 353.542L443.474 352.687C439.396 346.861 434.171 341.93 428.119 338.196C418.63 332.341 407.515 329.678 396.403 330.597L346.212 334.748L324.845 356.57C307.805 373.973 285.766 385.637 261.793 389.94L256.939 390.811C245.384 392.885 233.539 392.722 222.046 390.333C200.315 385.814 180.958 373.573 167.561 355.875Z" fill="#96CDF5" stroke="#81ABCA" stroke-width="1.012"/>
</mask>
<g mask="url(#mask3_518_29176)">
<path d="M167.561 355.875L147.354 329.182L100.705 325.259C95.7362 324.841 90.7332 325.153 85.855 326.185C68.1777 329.924 53.7919 342.726 48.0248 359.849L36.5396 393.951L29.4556 420.769C21.4965 442.656 7.98375 462.099 -9.75668 477.188L-26.7105 491.609C1.58253 515.349 37.5561 528.547 74.4897 528.547L96.7538 491.609L107.112 477.366C107.674 476.593 108.898 476.991 108.898 477.947V535.519C108.898 571.729 102.372 607.643 89.6346 641.539C82.5915 660.28 73.6985 678.274 63.0871 695.252L61.3337 698.057L361.898 709.695L377.078 611.025L384.418 489.196C384.462 488.463 385.503 488.367 385.681 489.079C389.003 500.377 389.514 512.316 387.166 523.856L384.669 536.137L398.898 532.638C430.177 524.946 459.362 510.415 484.351 490.091L477.76 475.127C469.703 456.837 463.938 437.621 460.594 417.917L453.616 376.798C452.197 368.435 448.937 360.491 444.073 353.542L443.474 352.687C439.396 346.861 434.171 341.93 428.119 338.196C418.63 332.341 407.515 329.678 396.403 330.597L346.212 334.748L324.845 356.57C307.805 373.973 285.767 385.637 261.793 389.94L256.939 390.811C245.384 392.885 233.539 392.722 222.046 390.333C200.315 385.814 180.958 373.573 167.561 355.875Z" fill="#FFFBED" stroke="#F9E8C3" stroke-width="0.316089"/>
<g style="mix-blend-mode:multiply" opacity="0.7">
<path d="M167.561 355.875L147.354 329.182L100.705 325.259C95.7362 324.841 90.7332 325.153 85.855 326.185C68.1777 329.924 53.7919 342.726 48.0248 359.849L36.5396 393.951L29.4556 420.769C21.4965 442.656 7.98375 462.099 -9.75668 477.188L-26.7105 491.609C1.58253 515.349 37.5561 528.547 74.4897 528.547L96.7538 491.609L107.112 477.366C107.674 476.593 108.898 476.991 108.898 477.947V535.519C108.898 571.729 102.372 607.643 89.6346 641.539C82.5915 660.28 73.6985 678.274 63.0871 695.252L61.3337 698.057L361.898 709.695L377.078 611.025L384.418 489.196C384.462 488.463 385.503 488.367 385.681 489.079C389.003 500.377 389.514 512.316 387.166 523.856L384.669 536.137L398.898 532.638C430.177 524.946 459.362 510.415 484.351 490.091L477.76 475.127C469.703 456.837 463.938 437.621 460.594 417.917L453.616 376.798C452.197 368.435 448.937 360.491 444.073 353.542L443.474 352.687C439.396 346.861 434.171 341.93 428.119 338.196C418.63 332.341 407.515 329.678 396.403 330.597L346.212 334.748L324.845 356.57C307.805 373.973 285.767 385.637 261.793 389.94L256.939 390.811C245.384 392.885 233.539 392.722 222.046 390.333C200.315 385.814 180.958 373.573 167.561 355.875Z" fill="url(#paint17_linear_518_29176)"/>
</g>
<path d="M83.5975 326.652L87.0561 332.233C99.4568 352.244 107.55 374.619 110.818 397.933V397.933C112.568 410.419 112.919 423.062 111.863 435.626L108.392 476.935" stroke="#F9E8C3" stroke-width="0.313721"/>
<path d="M426.161 337.784L422.363 345.024C414.115 360.746 407.24 377.149 401.812 394.053V394.053C395.459 413.837 391.12 434.211 388.861 454.867L385.175 488.573" stroke="#F9E8C3" stroke-width="0.313721"/>
<g style="mix-blend-mode:color-burn" filter="url(#filter1_f_518_29176)">
<path d="M147.354 321.086L167.561 347.779C180.958 365.477 200.315 377.718 222.046 382.237V382.237C233.539 384.626 245.384 384.789 256.939 382.715L261.793 381.844C285.766 377.541 307.805 365.877 324.845 348.474L346.212 326.652" stroke="url(#paint18_linear_518_29176)" stroke-width="7.08402"/>
</g>
<g style="mix-blend-mode:soft-light">
<path d="M457.533 398.121C457.533 437.973 431.495 472.779 392.764 491.466C373.58 500.722 346.221 486.82 322.43 486.82C287.47 486.82 260.791 494.576 237.422 475.952C212.783 456.318 197.448 428.705 197.448 398.121C197.448 338.529 255.67 290.22 327.49 290.22C399.311 290.22 457.533 338.529 457.533 398.121Z" fill="url(#paint19_radial_518_29176)"/>
</g>
<g style="mix-blend-mode:overlay" opacity="0.8" filter="url(#filter2_f_518_29176)">
<path d="M557.721 432.65C557.721 501.7 531.683 562.008 492.953 594.385C473.768 610.423 446.41 586.335 422.619 586.335C387.658 586.335 360.98 599.774 337.61 567.506C312.972 533.485 297.636 485.642 297.636 432.65C297.636 329.396 355.858 245.692 427.679 245.692C499.499 245.692 557.721 329.396 557.721 432.65Z" fill="#EE96F5"/>
</g>
<g style="mix-blend-mode:color-burn" filter="url(#filter3_f_518_29176)">
<path d="M233.88 393.903C233.88 425.468 207.842 453.037 169.112 467.839C149.927 475.17 122.569 464.159 98.7778 464.159C63.8172 464.159 37.1388 470.302 13.7696 455.551C-10.8691 439.998 -26.2045 418.127 -26.2045 393.903C-26.2045 346.701 32.0174 308.436 103.838 308.436C175.658 308.436 233.88 346.701 233.88 393.903Z" fill="url(#paint20_linear_518_29176)"/>
</g>
<g style="mix-blend-mode:lighten">
<path d="M521.289 387.407C521.289 412.463 495.251 434.346 456.52 446.094C437.336 451.913 409.977 443.173 386.186 443.173C351.226 443.173 324.547 448.049 301.178 436.341C276.539 423.996 261.204 406.636 261.204 387.407C261.204 349.941 319.426 319.568 391.246 319.568C463.067 319.568 521.289 349.941 521.289 387.407Z" fill="#96CDF5"/>
</g>
</g>
<g style="mix-blend-mode:soft-light" opacity="0.8">
<rect x="-85.9125" y="-38.6807" width="898" height="976.466" fill="#003EDC"/>
</g>
<g style="mix-blend-mode:color-burn" opacity="0.5">
<rect x="-85.9125" y="-31.4153" width="899.453" height="969.201" fill="url(#paint21_linear_518_29176)"/>
</g>
<g style="mix-blend-mode:saturation">
<rect x="-85.9125" y="-31.4153" width="899.453" height="969.201" fill="#3656FF"/>
</g>
<g style="mix-blend-mode:color-burn" opacity="0.5">
<rect x="-85.9125" y="-31.4153" width="899.453" height="969.201" fill="#A2B0FF"/>
</g>
</g>
</g>
<defs>
<filter id="filter0_f_518_29176" x="44.6354" y="-118.629" width="429.089" height="332.949" filterUnits="userSpaceOnUse" color-interpolation-filters="sRGB">
<feFlood flood-opacity="0" result="BackgroundImageFix"/>
<feBlend mode="normal" in="SourceGraphic" in2="BackgroundImageFix" result="shape"/>
<feGaussianBlur stdDeviation="50.6001" result="effect1_foregroundBlur_518_29176"/>
</filter>
<filter id="filter1_f_518_29176" x="114.17" y="288.588" width="264.934" height="129.472" filterUnits="userSpaceOnUse" color-interpolation-filters="sRGB">
<feFlood flood-opacity="0" result="BackgroundImageFix"/>
<feBlend mode="normal" in="SourceGraphic" in2="BackgroundImageFix" result="shape"/>
<feGaussianBlur stdDeviation="15.18" result="effect1_foregroundBlur_518_29176"/>
</filter>
<filter id="filter2_f_518_29176" x="196.436" y="144.492" width="462.485" height="556.601" filterUnits="userSpaceOnUse" color-interpolation-filters="sRGB">
<feFlood flood-opacity="0" result="BackgroundImageFix"/>
<feBlend mode="normal" in="SourceGraphic" in2="BackgroundImageFix" result="shape"/>
<feGaussianBlur stdDeviation="50.6001" result="effect1_foregroundBlur_518_29176"/>
</filter>
<filter id="filter3_f_518_29176" x="-127.405" y="207.236" width="462.485" height="364.321" filterUnits="userSpaceOnUse" color-interpolation-filters="sRGB">
<feFlood flood-opacity="0" result="BackgroundImageFix"/>
<feBlend mode="normal" in="SourceGraphic" in2="BackgroundImageFix" result="shape"/>
<feGaussianBlur stdDeviation="50.6001" result="effect1_foregroundBlur_518_29176"/>
</filter>
<linearGradient id="paint0_linear_518_29176" x1="67.5556" y1="179.495" x2="67.5556" y2="599.893" gradientUnits="userSpaceOnUse">
<stop stop-color="#FDDBF0"/>
<stop offset="1" stop-color="white" stop-opacity="0"/>
</linearGradient>
<linearGradient id="paint1_linear_518_29176" x1="234.925" y1="179.495" x2="234.925" y2="599.893" gradientUnits="userSpaceOnUse">
<stop stop-color="#FDDBF0"/>
<stop offset="1" stop-color="white" stop-opacity="0"/>
</linearGradient>
<linearGradient id="paint2_linear_518_29176" x1="239.952" y1="270.992" x2="239.952" y2="548.787" gradientUnits="userSpaceOnUse">
<stop stop-color="#FEECF6"/>
<stop offset="1" stop-color="white" stop-opacity="0"/>
</linearGradient>
<linearGradient id="paint3_linear_518_29176" x1="83.0917" y1="306.918" x2="267.276" y2="543.727" gradientUnits="userSpaceOnUse">
<stop stop-color="#FEECF6"/>
<stop offset="1" stop-color="white" stop-opacity="0"/>
</linearGradient>
<linearGradient id="paint4_linear_518_29176" x1="233.039" y1="272.112" x2="268.082" y2="485.233" gradientUnits="userSpaceOnUse">
<stop stop-color="#F3766F"/>
<stop offset="1" stop-color="#FFD6DB" stop-opacity="0"/>
</linearGradient>
<linearGradient id="paint5_linear_518_29176" x1="99.2403" y1="165.416" x2="280.541" y2="239.539" gradientUnits="userSpaceOnUse">
<stop stop-color="#FFD9D9"/>
<stop offset="1" stop-color="#FEF5F5" stop-opacity="0"/>
</linearGradient>
<linearGradient id="paint6_linear_518_29176" x1="206.829" y1="60.6286" x2="226.749" y2="163.425" gradientUnits="userSpaceOnUse">
<stop stop-color="#F3766F"/>
<stop offset="1" stop-color="#FFD6DB" stop-opacity="0"/>
</linearGradient>
<radialGradient id="paint7_radial_518_29176" cx="0" cy="0" r="1" gradientUnits="userSpaceOnUse" gradientTransform="translate(308.038 184.161) rotate(90) scale(36.3978 35.1829)">
<stop stop-color="#FFC1C1"/>
<stop offset="1" stop-color="#FFEEEE" stop-opacity="0"/>
</radialGradient>
<radialGradient id="paint8_radial_518_29176" cx="0" cy="0" r="1" gradientUnits="userSpaceOnUse" gradientTransform="translate(136.222 192.056) rotate(90) scale(44.5281 34.9141)">
<stop stop-color="#FFC1C1"/>
<stop offset="1" stop-color="#FFEEEE" stop-opacity="0"/>
</radialGradient>
<linearGradient id="paint9_linear_518_29176" x1="188.93" y1="154.683" x2="142.312" y2="160.261" gradientUnits="userSpaceOnUse">
<stop stop-color="#0A0033" stop-opacity="0.72"/>
<stop offset="1"/>
</linearGradient>
<linearGradient id="paint10_linear_518_29176" x1="293.765" y1="149.084" x2="251.348" y2="153.169" gradientUnits="userSpaceOnUse">
<stop/>
<stop offset="1" stop-color="#0A0033" stop-opacity="0.72"/>
</linearGradient>
<radialGradient id="paint11_radial_518_29176" cx="0" cy="0" r="1" gradientUnits="userSpaceOnUse" gradientTransform="translate(236.149 242.743) rotate(84.6711) scale(27.918 57.3774)">
<stop offset="0.302083" stop-color="#E9ABCC"/>
<stop offset="1" stop-color="#D13982"/>
</radialGradient>
<radialGradient id="paint12_radial_518_29176" cx="0" cy="0" r="1" gradientUnits="userSpaceOnUse" gradientTransform="translate(236.571 209.905) rotate(87.8843) scale(18.8362 15.4448)">
<stop offset="0.302083" stop-color="#E9ABCC"/>
<stop offset="1" stop-color="#D13982"/>
</radialGradient>
<linearGradient id="paint13_linear_518_29176" x1="279.915" y1="166.386" x2="256.793" y2="194.851" gradientUnits="userSpaceOnUse">
<stop/>
<stop offset="1" stop-color="#C3C2F7"/>
</linearGradient>
<linearGradient id="paint14_linear_518_29176" x1="168.981" y1="173.82" x2="194.094" y2="204.215" gradientUnits="userSpaceOnUse">
<stop/>
<stop offset="1" stop-color="#C3C2F7"/>
</linearGradient>
<linearGradient id="paint15_linear_518_29176" x1="207.632" y1="16.4638" x2="340.013" y2="149.966" gradientUnits="userSpaceOnUse">
<stop stop-color="#8983CF"/>
<stop offset="1" stop-color="#D6FDFF" stop-opacity="0"/>
</linearGradient>
<linearGradient id="paint16_linear_518_29176" x1="207.632" y1="16.4641" x2="340.013" y2="149.967" gradientUnits="userSpaceOnUse">
<stop stop-color="#8983CF"/>
<stop offset="1" stop-color="#D6FDFF" stop-opacity="0"/>
</linearGradient>
<linearGradient id="paint17_linear_518_29176" x1="114.126" y1="324.628" x2="483.562" y2="501.399" gradientUnits="userSpaceOnUse">
<stop stop-color="#FFF5D0"/>
<stop offset="1" stop-color="#F4FFD6" stop-opacity="0"/>
</linearGradient>
<linearGradient id="paint18_linear_518_29176" x1="177.714" y1="328.17" x2="319.9" y2="424.311" gradientUnits="userSpaceOnUse">
<stop stop-color="#B04B4B"/>
<stop offset="0.462669" stop-color="#E22C2C"/>
<stop offset="1" stop-color="#DE1F1F" stop-opacity="0"/>
</linearGradient>
<radialGradient id="paint19_radial_518_29176" cx="0" cy="0" r="1" gradientUnits="userSpaceOnUse" gradientTransform="translate(327.49 392.432) rotate(90) scale(102.212 130.042)">
<stop stop-color="#EE96F5"/>
<stop offset="1" stop-color="#F7FBFF" stop-opacity="0"/>
</radialGradient>
<linearGradient id="paint20_linear_518_29176" x1="186.822" y1="408.495" x2="105.081" y2="317.976" gradientUnits="userSpaceOnUse">
<stop stop-color="#559DD0"/>
<stop offset="1" stop-color="#C7E7FE" stop-opacity="0"/>
</linearGradient>
<linearGradient id="paint21_linear_518_29176" x1="363.814" y1="-31.4153" x2="338.254" y2="937.898" gradientUnits="userSpaceOnUse">
<stop stop-color="#DB3A3A" stop-opacity="0.43"/>
<stop offset="0.995878" stop-color="#712121"/>
</linearGradient>
</defs>
</svg>
