<svg width="448" height="996" viewBox="0 0 448 996" fill="none" xmlns="http://www.w3.org/2000/svg">
<path d="M4.00097 734.532L4.00096 643.904L248 643.904L248 762.418L104.041 867.686L248 867.686L248 958.314L4.00098 958.314L4.00097 839.8L147.96 734.532L4.00097 734.532ZM73.715 371.886L73.715 539.2L96.372 539.2L96.372 371.886L155.629 371.886L155.629 539.2L178.286 539.2L178.286 371.886L248 371.886L248 629.828L4.00096 629.828L4.00095 371.886L73.715 371.886ZM251.486 211.707C251.486 319.067 210.703 365.078 125.652 365.078C40.9494 365.078 0.515252 319.067 0.515247 211.707C0.515243 104.696 41.2979 58.3363 125.652 58.3363C210.354 58.3363 251.486 104.696 251.486 211.707ZM174.8 211.707C174.8 158.376 151.446 148.964 125.652 148.964C100.206 148.964 77.2007 158.027 77.2007 211.707C77.2007 265.387 99.8577 274.45 125.652 274.45C151.795 274.45 174.8 265.038 174.8 211.707ZM362.015 916.015L362.015 840.772L398 840.772L398 958.543L283.501 958.543L283.501 916.015L362.015 916.015ZM360.379 823.357L283.501 881.588L283.501 832.517L326.029 802.093L283.501 771.669L283.501 722.598L360.379 780.829L398 780.829L398 823.357L360.379 823.357ZM283.501 543.911L398 543.911L398 586.439L343.531 586.439L398 617.681L398 645.488L343.531 676.73L398 676.73L398 719.258L283.501 719.258L283.501 666.915L348.929 631.584L283.501 596.253L283.501 543.911ZM283.501 447.355C283.501 421.347 301.821 403.518 327.338 403.518C352.855 403.518 371.174 421.347 371.174 447.355L371.174 494.79L398 494.79L398 537.318L283.501 537.318L283.501 447.355ZM335.189 455.533C335.189 451.28 335.189 446.046 327.338 446.046C319.486 446.046 319.486 451.28 319.486 455.533L319.486 494.79L335.189 494.79L335.189 455.533ZM283.501 356.139L398 356.139L398 398.667L283.501 398.667L283.501 356.139ZM340.587 352.861C300.839 352.861 281.865 331.27 281.865 280.89C281.865 235.091 297.895 211.209 334.044 209.41L334.044 252.92C323.248 254.555 317.851 262.897 317.851 280.89C317.851 306.08 328.483 310.333 340.587 310.333C352.855 310.333 363.65 305.916 363.65 280.89C363.65 262.897 358.089 254.555 347.13 252.92L347.13 209.41C383.442 211.209 399.636 234.927 399.636 280.89C399.636 331.27 380.498 352.861 340.587 352.861ZM357.598 206.063L357.598 163.535C363.16 163.535 366.922 158.301 366.922 131.312C366.922 106.122 365.286 102.36 361.033 102.36C356.126 102.36 355.472 106.122 354.654 132.947C353.018 184.636 344.513 204.428 317.851 204.428C292.661 204.428 281.865 179.728 281.865 134.583C281.865 89.9286 292.661 64.7388 321.94 64.7388L321.94 107.267C315.888 107.267 314.579 117.081 314.579 137.855C314.579 157.81 315.561 161.899 319.977 161.899C324.393 161.899 324.23 157.81 325.211 132.947C327.011 87.8021 330.118 59.8317 360.052 59.8317C391.621 59.8317 399.636 86.0029 399.636 132.947C399.636 179.892 391.621 206.063 357.598 206.063Z" fill="#E9EEFD"/>
<path d="M28.001 710.532L27.001 710.532L27.001 711.532L28.001 711.532L28.001 710.532ZM28.001 619.904L28.001 618.904L27.001 618.904L27.001 619.904L28.001 619.904ZM272 619.904L273 619.904L273 618.904L272 618.904L272 619.904ZM272 738.418L272.59 739.225L273 738.925L273 738.418L272 738.418ZM128.041 843.686L127.45 842.879L124.979 844.686L128.041 844.686L128.041 843.686ZM272 843.686L273 843.686L273 842.686L272 842.686L272 843.686ZM272 934.314L272 935.314L273 935.314L273 934.314L272 934.314ZM28.001 934.314L27.001 934.314L27.001 935.314L28.001 935.314L28.001 934.314ZM28.001 815.8L27.4107 814.993L27.001 815.293L27.001 815.8L28.001 815.8ZM171.96 710.532L172.551 711.339L175.022 709.532L171.96 709.532L171.96 710.532ZM29.001 710.532L29.001 619.904L27.001 619.904L27.001 710.532L29.001 710.532ZM28.001 620.904L272 620.904L272 618.904L28.001 618.904L28.001 620.904ZM271 619.904L271 738.418L273 738.418L273 619.904L271 619.904ZM271.41 737.611L127.45 842.879L128.631 844.493L272.59 739.225L271.41 737.611ZM128.041 844.686L272 844.686L272 842.686L128.041 842.686L128.041 844.686ZM271 843.686L271 934.314L273 934.314L273 843.686L271 843.686ZM272 933.314L28.001 933.314L28.001 935.314L272 935.314L272 933.314ZM29.001 934.314L29.001 815.8L27.001 815.8L27.001 934.314L29.001 934.314ZM28.5912 816.608L172.551 711.339L171.37 709.725L27.4107 814.993L28.5912 816.608ZM171.96 709.532L28.001 709.532L28.001 711.532L171.96 711.532L171.96 709.532ZM97.715 347.886L98.715 347.886L98.715 346.886L97.715 346.886L97.715 347.886ZM97.715 515.2L96.715 515.2L96.715 516.2L97.715 516.2L97.715 515.2ZM120.372 515.2L120.372 516.2L121.372 516.2L121.372 515.2L120.372 515.2ZM120.372 347.886L120.372 346.886L119.372 346.886L119.372 347.886L120.372 347.886ZM179.629 347.886L180.629 347.886L180.629 346.886L179.629 346.886L179.629 347.886ZM179.629 515.2L178.629 515.2L178.629 516.2L179.629 516.2L179.629 515.2ZM202.286 515.2L202.286 516.2L203.286 516.2L203.286 515.2L202.286 515.2ZM202.286 347.886L202.286 346.886L201.286 346.886L201.286 347.886L202.286 347.886ZM272 347.886L273 347.886L273 346.886L272 346.886L272 347.886ZM272 605.828L272 606.828L273 606.828L273 605.828L272 605.828ZM28.001 605.828L27.001 605.828L27.001 606.828L28.001 606.828L28.001 605.828ZM28.001 347.886L28.001 346.886L27.001 346.886L27.001 347.886L28.001 347.886ZM96.715 347.886L96.715 515.2L98.715 515.2L98.715 347.886L96.715 347.886ZM97.715 516.2L120.372 516.2L120.372 514.2L97.715 514.2L97.715 516.2ZM121.372 515.2L121.372 347.886L119.372 347.886L119.372 515.2L121.372 515.2ZM120.372 348.886L179.629 348.886L179.629 346.886L120.372 346.886L120.372 348.886ZM178.629 347.886L178.629 515.2L180.629 515.2L180.629 347.886L178.629 347.886ZM179.629 516.2L202.286 516.2L202.286 514.2L179.629 514.2L179.629 516.2ZM203.286 515.2L203.286 347.886L201.286 347.886L201.286 515.2L203.286 515.2ZM202.286 348.886L272 348.886L272 346.886L202.286 346.886L202.286 348.886ZM271 347.886L271 605.828L273 605.828L273 347.886L271 347.886ZM272 604.828L28.001 604.828L28.001 606.828L272 606.828L272 604.828ZM29.001 605.828L29.001 347.886L27.001 347.886L27.001 605.828L29.001 605.828ZM28.001 348.886L97.715 348.886L97.715 346.886L28.001 346.886L28.001 348.886ZM274.486 187.707C274.486 241.293 264.302 279.353 243.696 304.011C223.123 328.629 192 340.078 149.652 340.078L149.652 342.078C192.355 342.078 224.149 330.521 245.23 305.294C266.278 280.106 276.486 241.48 276.486 187.707L274.486 187.707ZM149.652 340.078C107.48 340.078 76.5314 328.63 56.0895 304.013C35.6127 279.355 25.5152 241.295 25.5152 187.707L23.5152 187.707C23.5152 241.479 33.6349 280.104 54.5508 305.291C75.5015 330.52 107.121 342.078 149.652 342.078L149.652 340.078ZM25.5152 187.707C25.5152 134.296 35.6988 96.2346 56.22 71.5316C76.7071 46.8696 107.657 35.3363 149.652 35.3363L149.652 33.3363C107.292 33.3363 75.6744 44.9829 54.6816 70.2536C33.723 95.4831 23.5152 134.107 23.5152 187.707L25.5152 187.707ZM149.652 35.3363C191.822 35.3363 222.948 46.8705 243.565 71.5339C264.216 96.237 274.486 134.298 274.486 187.707L276.486 187.707C276.486 134.105 266.19 95.4808 245.099 70.2512C223.976 44.982 192.184 33.3363 149.652 33.3363L149.652 35.3363ZM199.8 187.707C199.8 160.926 193.941 144.919 184.604 135.628C175.261 126.329 162.644 123.964 149.652 123.964L149.652 125.964C162.454 125.964 174.411 128.305 183.193 137.045C191.983 145.792 197.8 161.157 197.8 187.707L199.8 187.707ZM149.652 123.964C136.838 123.964 124.39 126.241 115.175 135.5C105.97 144.75 100.201 160.758 100.201 187.707L102.201 187.707C102.201 160.977 107.934 145.613 116.593 136.911C125.242 128.22 137.02 125.964 149.652 125.964L149.652 123.964ZM100.201 187.707C100.201 214.653 105.882 230.661 115.043 239.912C124.216 249.175 136.667 251.45 149.652 251.45L149.652 249.45C136.843 249.45 125.068 247.193 116.464 238.505C107.848 229.804 102.201 214.441 102.201 187.707L100.201 187.707ZM149.652 251.45C162.815 251.45 175.435 249.086 184.737 239.785C194.03 230.492 199.8 214.484 199.8 187.707L197.8 187.707C197.8 214.261 192.068 229.625 183.323 238.37C174.585 247.108 162.631 249.45 149.652 249.45L149.652 251.45ZM386.015 892.015L386.015 893.015L387.015 893.015L387.015 892.015L386.015 892.015ZM386.015 816.772L386.015 815.772L385.015 815.772L385.015 816.772L386.015 816.772ZM422 816.772L423 816.772L423 815.772L422 815.772L422 816.772ZM422 934.543L422 935.543L423 935.543L423 934.543L422 934.543ZM307.501 934.543L306.501 934.543L306.501 935.543L307.501 935.543L307.501 934.543ZM307.501 892.015L307.501 891.015L306.501 891.015L306.501 892.015L307.501 892.015ZM387.015 892.015L387.015 816.772L385.015 816.772L385.015 892.015L387.015 892.015ZM386.015 817.772L422 817.772L422 815.772L386.015 815.772L386.015 817.772ZM421 816.772L421 934.543L423 934.543L423 816.772L421 816.772ZM422 933.543L307.501 933.543L307.501 935.543L422 935.543L422 933.543ZM308.501 934.543L308.501 892.015L306.501 892.015L306.501 934.543L308.501 934.543ZM307.501 893.015L386.015 893.015L386.015 891.015L307.501 891.015L307.501 893.015ZM384.379 799.357L384.379 798.357L384.043 798.357L383.775 798.56L384.379 799.357ZM307.501 857.588L306.501 857.588L306.501 859.6L308.105 858.385L307.501 857.588ZM307.501 808.517L306.919 807.704L306.501 808.003L306.501 808.517L307.501 808.517ZM350.029 778.093L350.611 778.907L351.748 778.093L350.611 777.28L350.029 778.093ZM307.501 747.669L306.501 747.669L306.501 748.183L306.919 748.483L307.501 747.669ZM307.501 698.598L308.105 697.801L306.501 696.586L306.501 698.598L307.501 698.598ZM384.379 756.829L383.775 757.626L384.043 757.829L384.379 757.829L384.379 756.829ZM422 756.829L423 756.829L423 755.829L422 755.829L422 756.829ZM422 799.357L422 800.357L423 800.357L423 799.357L422 799.357ZM383.775 798.56L306.897 856.791L308.105 858.385L384.983 800.154L383.775 798.56ZM308.501 857.588L308.501 808.517L306.501 808.517L306.501 857.588L308.501 857.588ZM308.083 809.331L350.611 778.907L349.447 777.28L306.919 807.704L308.083 809.331ZM350.611 777.28L308.083 746.856L306.919 748.483L349.447 778.907L350.611 777.28ZM308.501 747.669L308.501 698.598L306.501 698.598L306.501 747.669L308.501 747.669ZM306.897 699.395L383.775 757.626L384.983 756.032L308.105 697.801L306.897 699.395ZM384.379 757.829L422 757.829L422 755.829L384.379 755.829L384.379 757.829ZM421 756.829L421 799.357L423 799.357L423 756.829L421 756.829ZM422 798.357L384.379 798.357L384.379 800.357L422 800.357L422 798.357ZM307.501 519.911L307.501 518.911L306.501 518.911L306.501 519.911L307.501 519.911ZM422 519.911L423 519.911L423 518.911L422 518.911L422 519.911ZM422 562.439L422 563.439L423 563.439L423 562.439L422 562.439ZM367.531 562.439L367.531 561.439L363.778 561.439L367.034 563.306L367.531 562.439ZM422 593.681L423 593.681L423 593.102L422.498 592.813L422 593.681ZM422 621.488L422.498 622.355L423 622.067L423 621.488L422 621.488ZM367.531 652.73L367.034 651.862L363.778 653.73L367.531 653.73L367.531 652.73ZM422 652.73L423 652.73L423 651.73L422 651.73L422 652.73ZM422 695.258L422 696.258L423 696.258L423 695.258L422 695.258ZM307.501 695.258L306.501 695.258L306.501 696.258L307.501 696.258L307.501 695.258ZM307.501 642.915L307.026 642.035L306.501 642.319L306.501 642.915L307.501 642.915ZM372.929 607.584L373.404 608.464L375.034 607.584L373.404 606.704L372.929 607.584ZM307.501 572.253L306.501 572.253L306.501 572.85L307.026 573.133L307.501 572.253ZM307.501 520.911L422 520.911L422 518.911L307.501 518.911L307.501 520.911ZM421 519.911L421 562.439L423 562.439L423 519.911L421 519.911ZM422 561.439L367.531 561.439L367.531 563.439L422 563.439L422 561.439ZM367.034 563.306L421.502 594.548L422.498 592.813L368.029 561.572L367.034 563.306ZM421 593.681L421 621.488L423 621.488L423 593.681L421 593.681ZM421.502 620.62L367.034 651.862L368.029 653.597L422.498 622.355L421.502 620.62ZM367.531 653.73L422 653.73L422 651.73L367.531 651.73L367.531 653.73ZM421 652.73L421 695.258L423 695.258L423 652.73L421 652.73ZM422 694.258L307.501 694.258L307.501 696.258L422 696.258L422 694.258ZM308.501 695.258L308.501 642.915L306.501 642.915L306.501 695.258L308.501 695.258ZM307.976 643.795L373.404 608.464L372.454 606.704L307.026 642.035L307.976 643.795ZM373.404 606.704L307.976 571.373L307.026 573.133L372.454 608.464L373.404 606.704ZM308.501 572.253L308.501 519.911L306.501 519.911L306.501 572.253L308.501 572.253ZM395.174 470.79L394.174 470.79L394.174 471.79L395.174 471.79L395.174 470.79ZM422 470.79L423 470.79L423 469.79L422 469.79L422 470.79ZM422 513.318L422 514.318L423 514.318L423 513.318L422 513.318ZM307.501 513.318L306.501 513.318L306.501 514.318L307.501 514.318L307.501 513.318ZM343.486 470.79L342.486 470.79L342.486 471.79L343.486 471.79L343.486 470.79ZM359.189 470.79L359.189 471.79L360.189 471.79L360.189 470.79L359.189 470.79ZM308.501 423.355C308.501 410.593 312.991 399.897 320.555 392.393C328.12 384.888 338.817 380.518 351.338 380.518L351.338 378.518C338.341 378.518 327.121 383.062 319.146 390.973C311.171 398.886 306.501 410.109 306.501 423.355L308.501 423.355ZM351.338 380.518C363.858 380.518 374.556 384.888 382.121 392.393C389.684 399.897 394.174 410.593 394.174 423.355L396.174 423.355C396.174 410.109 391.505 398.886 383.529 390.973C375.555 383.062 364.334 378.518 351.338 378.518L351.338 380.518ZM394.174 423.355L394.174 470.79L396.174 470.79L396.174 423.355L394.174 423.355ZM395.174 471.79L422 471.79L422 469.79L395.174 469.79L395.174 471.79ZM421 470.79L421 513.318L423 513.318L423 470.79L421 470.79ZM422 512.318L307.501 512.318L307.501 514.318L422 514.318L422 512.318ZM308.501 513.318L308.501 423.355L306.501 423.355L306.501 513.318L308.501 513.318ZM360.189 431.533C360.189 429.473 360.212 426.827 359.09 424.724C358.508 423.633 357.626 422.693 356.327 422.038C355.044 421.39 353.406 421.046 351.338 421.046L351.338 423.046C353.195 423.046 354.501 423.356 355.426 423.823C356.336 424.282 356.926 424.916 357.325 425.665C358.167 427.243 358.189 429.341 358.189 431.533L360.189 431.533ZM351.338 421.046C349.27 421.046 347.631 421.39 346.348 422.038C345.049 422.693 344.167 423.633 343.585 424.724C342.464 426.827 342.486 429.473 342.486 431.533L344.486 431.533C344.486 429.341 344.509 427.243 345.35 425.665C345.75 424.916 346.34 424.282 347.249 423.823C348.174 423.356 349.48 423.046 351.338 423.046L351.338 421.046ZM342.486 431.533L342.486 470.79L344.486 470.79L344.486 431.533L342.486 431.533ZM343.486 471.79L359.189 471.79L359.189 469.79L343.486 469.79L343.486 471.79ZM360.189 470.79L360.189 431.533L358.189 431.533L358.189 470.79L360.189 470.79ZM307.501 332.139L307.501 331.139L306.501 331.139L306.501 332.139L307.501 332.139ZM422 332.139L423 332.139L423 331.139L422 331.139L422 332.139ZM422 374.667L422 375.667L423 375.667L423 374.667L422 374.667ZM307.501 374.667L306.501 374.667L306.501 375.667L307.501 375.667L307.501 374.667ZM307.501 333.139L422 333.139L422 331.139L307.501 331.139L307.501 333.139ZM421 332.139L421 374.667L423 374.667L423 332.139L421 332.139ZM422 373.667L307.501 373.667L307.501 375.667L422 375.667L422 373.667ZM308.501 374.667L308.501 332.139L306.501 332.139L306.501 374.667L308.501 374.667ZM358.044 185.41L359.044 185.41L359.044 184.359L357.994 184.411L358.044 185.41ZM358.044 228.92L358.194 229.908L359.044 229.78L359.044 228.92L358.044 228.92ZM371.13 228.92L370.13 228.92L370.13 229.782L370.982 229.909L371.13 228.92ZM371.13 185.41L371.179 184.411L370.13 184.359L370.13 185.41L371.13 185.41ZM364.587 327.861C344.892 327.861 330.548 322.518 321.09 311.129C311.598 299.698 306.865 281.988 306.865 256.89L304.865 256.89C304.865 282.172 309.62 300.447 319.551 312.407C329.518 324.408 344.534 329.861 364.587 329.861L364.587 327.861ZM306.865 256.89C306.865 234.078 310.863 216.905 319.212 205.232C327.522 193.613 340.252 187.297 358.094 186.409L357.994 184.411C339.687 185.323 326.327 191.846 317.585 204.068C308.883 216.235 304.865 233.903 304.865 256.89L306.865 256.89ZM357.044 185.41L357.044 228.92L359.044 228.92L359.044 185.41L357.044 185.41ZM357.894 227.931C352.236 228.788 347.909 231.434 345.039 236.26C342.206 241.025 340.851 247.821 340.851 256.89L342.851 256.89C342.851 247.967 344.194 241.595 346.759 237.282C349.287 233.03 353.057 230.687 358.194 229.908L357.894 227.931ZM340.851 256.89C340.851 269.591 343.525 277.274 347.969 281.761C352.425 286.26 358.447 287.333 364.587 287.333L364.587 285.333C358.623 285.333 353.277 284.279 349.39 280.354C345.492 276.418 342.851 269.379 342.851 256.89L340.851 256.89ZM364.587 287.333C370.813 287.333 376.912 286.218 381.426 281.703C385.932 277.197 388.65 269.515 388.65 256.89L386.65 256.89C386.65 269.292 383.97 276.331 380.012 280.289C376.062 284.239 370.629 285.333 364.587 285.333L364.587 287.333ZM388.65 256.89C388.65 247.817 387.253 241.018 384.354 236.251C381.42 231.427 377.011 228.786 371.277 227.931L370.982 229.909C376.207 230.689 380.059 233.037 382.645 237.291C385.267 241.602 386.65 247.971 386.65 256.89L388.65 256.89ZM372.13 228.92L372.13 185.41L370.13 185.41L370.13 228.92L372.13 228.92ZM371.08 186.409C389.008 187.297 401.819 193.575 410.189 205.174C418.597 216.826 422.636 233.997 422.636 256.89L424.636 256.89C424.636 233.82 420.577 216.151 411.811 204.003C403.006 191.802 389.564 185.322 371.179 184.411L371.08 186.409ZM422.636 256.89C422.636 281.986 417.863 299.696 408.311 311.127C398.792 322.517 384.365 327.861 364.587 327.861L364.587 329.861C384.72 329.861 399.817 324.409 409.845 312.409C419.84 300.449 424.636 282.174 424.636 256.89L422.636 256.89ZM381.598 182.063L380.598 182.063L380.598 183.063L381.598 183.063L381.598 182.063ZM381.598 139.535L381.598 138.535L380.598 138.535L380.598 139.535L381.598 139.535ZM378.654 108.947L379.653 108.979L379.653 108.978L378.654 108.947ZM345.94 40.7388L346.94 40.7388L346.94 39.7388L345.94 39.7388L345.94 40.7388ZM345.94 83.267L345.94 84.267L346.94 84.267L346.94 83.267L345.94 83.267ZM349.211 108.947L348.212 108.908L348.212 108.908L349.211 108.947ZM382.598 182.063L382.598 139.535L380.598 139.535L380.598 182.063L382.598 182.063ZM381.598 140.535C383.157 140.535 384.674 140.163 386.028 139.075C387.36 138.004 388.436 136.316 389.289 133.874C390.986 129.018 391.922 120.812 391.922 107.312L389.922 107.312C389.922 120.8 388.976 128.706 387.401 133.215C386.619 135.454 385.712 136.763 384.775 137.516C383.858 138.253 382.82 138.535 381.598 138.535L381.598 140.535ZM391.922 107.312C391.922 94.7364 391.517 87.3838 390.547 83.1655C390.062 81.0569 389.404 79.5772 388.452 78.6318C387.451 77.6375 386.257 77.3599 385.033 77.3599L385.033 79.3599C385.935 79.3599 386.541 79.5525 387.043 80.0508C387.594 80.5979 388.142 81.6331 388.598 83.6138C389.508 87.574 389.922 94.6973 389.922 107.312L391.922 107.312ZM385.033 77.3599C383.679 77.3599 382.402 77.6212 381.371 78.6633C380.394 79.6495 379.78 81.2001 379.33 83.3935C378.43 87.7922 378.062 95.5441 377.654 108.917L379.653 108.978C380.064 95.5254 380.432 87.9834 381.29 83.7947C381.72 81.6944 382.24 80.6279 382.792 80.0704C383.288 79.5688 383.933 79.3599 385.033 79.3599L385.033 77.3599ZM377.654 108.916C376.836 134.763 374.298 152.432 368.741 163.626C365.978 169.192 362.487 173.117 358.116 175.663C353.738 178.213 348.394 179.428 341.851 179.428L341.851 181.428C348.638 181.428 354.356 180.168 359.122 177.392C363.896 174.611 367.632 170.358 370.533 164.515C376.303 152.891 378.836 134.82 379.653 108.979L377.654 108.916ZM341.851 179.428C335.724 179.428 330.524 177.929 326.154 175.03C321.778 172.127 318.172 167.78 315.308 161.991C309.564 150.383 306.865 133.11 306.865 110.583L304.865 110.583C304.865 133.202 307.564 150.85 313.516 162.878C316.499 168.908 320.316 173.557 325.048 176.696C329.787 179.839 335.382 181.428 341.851 181.428L341.851 179.428ZM306.865 110.583C306.865 88.298 309.566 71.0424 315.805 59.3874C318.914 53.579 322.891 49.182 327.838 46.2313C332.786 43.2802 338.767 41.7388 345.94 41.7388L345.94 39.7388C338.474 39.7388 332.125 41.346 326.814 44.5136C321.503 47.6813 317.291 52.3727 314.041 58.4436C307.562 70.5471 304.865 88.2137 304.865 110.583L306.865 110.583ZM344.94 40.7388L344.94 83.267L346.94 83.267L346.94 40.7388L344.94 40.7388ZM345.94 82.267C344.102 82.267 342.601 83.0362 341.449 84.5089C340.337 85.9296 339.566 87.9796 339.012 90.561C337.903 95.7296 337.579 103.479 337.579 113.855L339.579 113.855C339.579 103.457 339.91 95.9123 340.968 90.9805C341.498 88.5117 342.188 86.8098 343.024 85.7412C343.82 84.7245 344.752 84.267 345.94 84.267L345.94 82.267ZM337.579 113.855C337.579 123.803 337.82 129.934 338.647 133.581C339.061 135.41 339.654 136.77 340.572 137.665C341.532 138.6 342.709 138.899 343.977 138.899L343.977 136.899C343.037 136.899 342.435 136.688 341.969 136.233C341.46 135.737 340.98 134.828 340.597 133.139C339.829 129.753 339.579 123.862 339.579 113.855L337.579 113.855ZM343.977 138.899C345.253 138.899 346.419 138.593 347.299 137.499C348.099 136.505 348.551 134.983 348.871 132.899C349.516 128.695 349.722 121.368 350.211 108.987L348.212 108.908C347.719 121.389 347.516 128.538 346.894 132.595C346.58 134.641 346.183 135.695 345.741 136.245C345.379 136.695 344.91 136.899 343.977 136.899L343.977 138.899ZM350.211 108.987C351.112 86.372 352.342 68.2672 357.017 55.8115C359.345 49.6123 362.499 44.8918 366.825 41.7133C371.144 38.5398 376.729 36.8317 384.052 36.8317L384.052 34.8317C376.408 34.8317 370.379 36.6198 365.641 40.1016C360.909 43.5783 357.561 48.6721 355.145 55.1086C350.334 67.9245 349.11 86.3776 348.212 108.908L350.211 108.987ZM384.052 36.8317C391.805 36.8317 398.033 38.4375 403.032 41.5066C408.027 44.5739 411.871 49.1495 414.78 55.2176C420.624 67.407 422.636 85.4834 422.636 108.947L424.636 108.947C424.636 85.4669 422.64 66.9854 416.584 54.353C413.543 48.0103 409.464 43.1091 404.078 39.8022C398.695 36.4972 392.083 34.8317 384.052 34.8317L384.052 36.8317ZM422.636 108.947C422.636 132.415 420.623 150.479 414.482 162.659C411.427 168.72 407.361 173.3 402.021 176.374C396.674 179.452 389.977 181.063 381.598 181.063L381.598 183.063C390.231 183.063 397.294 181.403 403.019 178.107C408.75 174.807 413.067 169.91 416.268 163.56C422.641 150.918 424.636 132.424 424.636 108.947L422.636 108.947Z" fill="#E9EEFD"/>
</svg>
