<svg width="69" height="29" viewBox="0 0 69 29" fill="none" xmlns="http://www.w3.org/2000/svg">
<g clip-path="url(#clip0_523_10)">
<path d="M69.24 0H0V29H69.24V0Z" fill="#FFF965"/>
<path d="M27.334 12.5291C30.0378 12.5291 32.2296 10.3373 32.2296 7.63359C32.2296 4.92985 30.0378 2.73804 27.334 2.73804C24.6303 2.73804 22.4385 4.92985 22.4385 7.63359C22.4385 10.3373 24.6303 12.5291 27.334 12.5291Z" fill="#F9D6AD"/>
<path d="M61.6031 12.5294C64.3068 12.5294 66.4986 10.3376 66.4986 7.63383C66.4986 4.93009 64.3068 2.73828 61.6031 2.73828C58.8993 2.73828 56.7075 4.93009 56.7075 7.63383C56.7075 10.3376 58.8993 12.5294 61.6031 12.5294Z" fill="#F9D6AD"/>
<path d="M7.75248 26.4449C10.4562 26.4449 12.648 24.2531 12.648 21.5494C12.648 18.8456 10.4562 16.6538 7.75248 16.6538C5.04875 16.6538 2.85693 18.8456 2.85693 21.5494C2.85693 24.2531 5.04875 26.4449 7.75248 26.4449Z" fill="#F9D6AD"/>
<path d="M42.021 26.4449C44.7248 26.4449 46.9166 24.2531 46.9166 21.5494C46.9166 18.8456 44.7248 16.6538 42.021 16.6538C39.3173 16.6538 37.1255 18.8456 37.1255 21.5494C37.1255 24.2531 39.3173 26.4449 42.021 26.4449Z" fill="#F9D6AD"/>
</g>
<defs>
<clipPath id="clip0_523_10">
<rect width="69" height="29" fill="white"/>
</clipPath>
</defs>
</svg>
