<svg width="45" height="21" viewBox="0 0 45 21" fill="none" xmlns="http://www.w3.org/2000/svg">
<path d="M37.2902 0.235116C33.6694 0.235116 30.6729 2.92772 30.1784 6.41432C30.0079 6.40246 29.8374 6.38837 29.6639 6.38837C29.5579 6.38837 29.4556 6.39949 29.351 6.40394C28.8513 2.92253 25.8578 0.235116 22.2407 0.235116C18.6214 0.235116 15.6263 2.9255 15.1296 6.40987C14.9858 6.40097 14.8434 6.38763 14.6974 6.38763C14.5639 6.38763 14.4335 6.40023 14.3015 6.40764C13.804 2.92401 10.8097 0.234375 7.19115 0.234375C3.22564 0.234375 0 3.46076 0 7.42553C0 11.3903 3.22638 14.6167 7.19115 14.6167C7.3246 14.6167 7.45508 14.6041 7.58704 14.5967C8.08449 18.0803 11.0788 20.7699 14.6974 20.7699C18.3167 20.7699 21.3118 18.0795 21.8085 14.5952C21.9523 14.6041 22.0946 14.6174 22.2407 14.6174C22.3467 14.6174 22.449 14.6063 22.5535 14.6018C23.0525 18.0833 26.0461 20.7707 29.6639 20.7707C33.2847 20.7707 36.2812 18.0781 36.7757 14.5915C36.9462 14.6033 37.1167 14.6174 37.2902 14.6174C41.2557 14.6174 44.4814 11.391 44.4814 7.42627C44.4814 3.4615 41.255 0.235116 37.2902 0.235116ZM1.48271 7.42627C1.48271 4.27847 4.04336 1.71783 7.19115 1.71783C10.0721 1.71783 12.454 3.86405 12.8388 6.64043C9.91638 7.42404 7.72864 10.001 7.52921 13.1177C7.41727 13.1243 7.30532 13.1347 7.19115 13.1347C4.04336 13.1347 1.48271 10.5741 1.48271 7.42627ZM12.8432 8.18616C12.5541 10.348 11.0529 12.1272 9.04528 12.8196C9.33515 10.6578 10.8357 8.87858 12.8432 8.18616ZM14.6974 19.288C11.8165 19.288 9.43449 17.1417 9.04973 14.3654C11.9722 13.5817 14.1599 11.0048 14.3593 7.88813C14.472 7.88146 14.5832 7.87108 14.6974 7.87108C14.8242 7.87108 14.948 7.8822 15.0725 7.89036C15.2719 10.9937 17.4426 13.5617 20.3465 14.3565C19.9662 17.1373 17.5813 19.288 14.6974 19.288ZM16.5908 8.20024C18.5739 8.90082 20.0552 10.6638 20.3473 12.8055C18.3641 12.105 16.8829 10.342 16.5908 8.20024ZM21.8656 13.1162C21.6661 10.0129 19.4954 7.4448 16.5915 6.65007C16.9726 3.86924 19.3568 1.71857 22.2407 1.71857C25.1142 1.71857 27.4917 3.85442 27.8854 6.62041C24.9222 7.37808 22.6951 9.97579 22.4957 13.1228C22.4104 13.1258 22.3267 13.1347 22.2407 13.1347C22.1139 13.1347 21.9901 13.1243 21.8656 13.1162ZM27.8972 8.15354C27.6148 10.362 26.069 12.1791 24.0066 12.8522C24.2898 10.6438 25.8355 8.82669 27.8972 8.15354ZM29.6639 19.288C26.7904 19.288 24.4128 17.1521 24.0192 14.3861C26.9824 13.6284 29.2094 11.0307 29.4088 7.88368C29.4941 7.87998 29.5779 7.87108 29.6639 7.87108C29.8188 7.87108 29.9708 7.8822 30.1228 7.89406C30.3222 10.967 32.4536 13.5165 35.3167 14.3357C34.9446 17.1262 32.5544 19.288 29.6639 19.288ZM31.6455 8.23286C33.5745 8.95049 35.0105 10.6786 35.3086 12.7729C33.3795 12.0553 31.9435 10.3272 31.6455 8.23286ZM37.2902 13.1347C37.1353 13.1347 36.9833 13.1236 36.8313 13.1117C36.6319 10.0388 34.5005 7.48928 31.6374 6.67008C32.0095 3.87962 34.3989 1.71783 37.2902 1.71783C40.438 1.71783 42.9986 4.27847 42.9986 7.42627C42.9986 10.5741 40.438 13.1347 37.2902 13.1347Z" fill="white"/>
</svg>
