<svg xmlns="http://www.w3.org/2000/svg" width="29" height="30" fill="none"><g clip-path="url(#a)"><path fill="#55ACEE" d="M14.421 7.171 8.872.83H.152L11.25 14.306l9.133-3.766-5.962-3.369Z"/><path fill="#3B88C3" d="M19.97.83 14.423 7.17l4.273 5.797.972-1.18L28.691.83h-8.72Z"/><path fill="#FBD408" d="M18.548 13.534c.064-.173.104-.356.104-.55a1.586 1.586 0 0 0-1.585-1.585h-5.285a1.585 1.585 0 0 0-1.586 1.585c0 .194.04.377.104.55A8.45 8.45 0 0 0 5.97 20.91a8.456 8.456 0 0 0 16.911 0 8.45 8.45 0 0 0-4.332-7.378Z"/><path fill="#9E5200" d="M15.535 15.574h-1.364l-2.164 1.69a.418.418 0 0 0-.089.222v.934c0 .147.119.28.267.28h1.423v6.67a.28.28 0 0 0 .281.282h1.646c.148 0 .267-.133.267-.281v-9.516c0-.148-.119-.28-.267-.28Z"/></g><defs><clipPath id="a"><path fill="#fff" d="M.152.83H28.69v28.537H.152z"/></clipPath></defs></svg>