<svg xmlns="http://www.w3.org/2000/svg" width="30" height="30" fill="none"><g clip-path="url(#a)"><path fill="#55ACEE" d="M14.992 7.171 9.442.83H.723l11.099 13.477 9.133-3.766-5.962-3.369Z"/><path fill="#3B88C3" d="M20.541.83 14.992 7.17l4.273 5.797.973-1.18L29.26.83h-8.72Z"/><path fill="#FF8A3B" d="M19.119 13.534c.063-.173.104-.356.104-.55a1.586 1.586 0 0 0-1.586-1.585h-5.285a1.585 1.585 0 0 0-1.585 1.585c0 .194.04.377.104.55a8.45 8.45 0 0 0-4.332 7.377 8.456 8.456 0 0 0 16.911 0 8.45 8.45 0 0 0-4.331-7.378Z"/><path fill="#7C4119" d="m11.915 24.096.934-.934a.274.274 0 0 1 .37-.03s.918.682 1.63.682c.638 0 1.29-.533 1.29-1.186 0-.652-.667-1.2-1.764-1.2h-.506a.29.29 0 0 1-.28-.281v-1.23a.28.28 0 0 1 .28-.282h.506c1.038 0 1.586-.503 1.586-1.14 0-.639-.548-1.112-1.186-1.112-.652 0-1.067.341-1.29.592-.104.12-.28.12-.399.016l-.904-.89c-.12-.104-.105-.28 0-.385 0 0 1.215-1.304 2.83-1.304 1.72 0 3.202 1.052 3.202 2.712 0 1.141-.86 1.986-1.527 2.297v.045c.697.296 1.793 1.215 1.793 2.49 0 1.616-1.408 2.832-3.454 2.832-1.866 0-2.816-.92-3.126-1.32-.09-.106-.074-.27.015-.372Z"/></g><defs><clipPath id="a"><path fill="#fff" d="M.723.83H29.26v28.537H.723z"/></clipPath></defs></svg>