<svg xmlns="http://www.w3.org/2000/svg" width="30" height="30" fill="none"><g clip-path="url(#a)"><path fill="#55ACEE" d="M15.206 7.171 9.657.83H.937l11.099 13.477 9.132-3.766-5.962-3.369Z"/><path fill="#3B88C3" d="M20.756.83 15.207 7.17l4.273 5.797.972-1.18L29.476.83h-8.72Z"/><path fill="#CCD6DD" d="M19.334 13.534a1.58 1.58 0 0 0 .103-.55 1.586 1.586 0 0 0-1.585-1.585h-5.285a1.586 1.586 0 0 0-1.585 1.585c0 .194.04.377.103.55a8.45 8.45 0 0 0-4.331 7.377 8.456 8.456 0 0 0 16.911 0 8.45 8.45 0 0 0-4.331-7.378Z"/><path fill="#627077" d="M18.38 23.756h-2.81c.697-.979 1.913-2.564 2.387-3.41.356-.697.578-1.14.578-1.926 0-1.646-1.245-2.994-3.364-2.994-1.764 0-2.965 1.452-2.965 1.452-.104.119-.089.296.015.386l.904.919a.286.286 0 0 0 .415 0c.281-.312.83-.741 1.437-.741.83 0 1.305.503 1.305 1.067 0 .414-.193.83-.385 1.126-.876 1.333-3.069 4.313-3.928 5.44v.296a.28.28 0 0 0 .281.282h6.13a.291.291 0 0 0 .28-.282v-1.333a.29.29 0 0 0-.28-.282Z"/></g><defs><clipPath id="a"><path fill="#fff" d="M.938.83h28.538v28.537H.938z"/></clipPath></defs></svg>