<svg width="1152" height="373" viewBox="0 0 1152 373" fill="none" xmlns="http://www.w3.org/2000/svg">
<g clip-path="url(#clip0_723_25)">
<mask id="mask0_723_25" style="mask-type:alpha" maskUnits="userSpaceOnUse" x="0" y="-7" width="1290" height="581">
<rect y="-7" width="1290" height="581" rx="5" fill="#F9F9F9"/>
</mask>
<g mask="url(#mask0_723_25)">
<path d="M31.9045 -406.888C32.5677 -409.666 35.2598 -410.867 37.8118 -409.523L1551.15 387.33C1553.54 388.585 1554.92 391.61 1554.3 394.204L1543.39 439.909C1542.77 442.51 1540.36 443.758 1537.91 442.743L-12.1333 -200.368C-14.7414 -201.45 -16.3673 -204.669 -15.7056 -207.441L31.9045 -406.888Z" fill="#D6DAEE" fill-opacity="0.25"/>
<path d="M-9.04839 -92.2548C-8.60507 -95.0803 -5.9631 -96.6261 -3.25511 -95.6442L1561.7 471.776C1564.23 472.691 1565.88 475.474 1565.47 478.106L1558.06 525.321C1557.65 527.96 1555.3 529.515 1552.73 528.854L-37.066 119.738C-39.8106 119.032 -41.7362 116.084 -41.294 113.265L-9.04839 -92.2548Z" fill="#D6DAEE" fill-opacity="0.25"/>
<path d="M-100.779 338.794C-100.692 335.955 -98.2624 333.828 -95.4326 334.113L1516.33 496.687C1519 496.956 1521.04 499.287 1520.96 501.968L1519.87 537.529C1519.79 540.216 1517.6 542.294 1514.91 542.234L-100.72 505.928C-103.552 505.865 -105.833 503.456 -105.746 500.623L-100.779 338.794Z" fill="#D6DAEE" fill-opacity="0.25"/>
</g>
</g>
<defs>
<clipPath id="clip0_723_25">
<path d="M0 0L1152 0V373H0L0 0Z" fill="white"/>
</clipPath>
</defs>
</svg>
