<svg width="504" height="428" viewBox="0 0 504 428" fill="none" xmlns="http://www.w3.org/2000/svg">
<path d="M45.3661 124.139L503.245 17.3765L475.841 321.107L17.9619 427.869L45.3661 124.139Z" fill="#3D3AA9"/>
<path d="M2.50373 408.286L29.5838 108.149L483.949 2.2061L456.869 302.343L2.50373 408.286Z" fill="#F9F9F9" stroke="#1F1F1F" stroke-width="3.42553"/>
<path d="M138.091 143.734C153.451 140.028 163.196 148.589 162.103 164.052C161.011 179.516 149.698 193.159 134.338 196.866L106.324 203.627L105.176 219.883L80.0602 225.944L84.9616 156.556L138.091 143.734ZM131.049 176.224C133.56 175.618 136.651 174.872 136.988 170.114C137.324 165.356 134.232 166.102 131.721 166.708L108.537 172.303L107.865 181.819L131.049 176.224ZM214.118 193.592L210.364 182.221L181.577 189.168L176.058 202.777L148.431 209.444L181.346 133.296L218.633 124.297L241.746 186.924L214.118 193.592ZM189.406 169.74L205.055 165.964L198.729 146.639L189.406 169.74ZM325.775 124.553C325.061 134.664 319.933 144.086 312.18 150.342L322.751 167.375L292.998 174.556L284.776 160.56L269.996 164.127L268.848 180.384L243.732 186.445L248.634 117.057L301.763 104.235C317.123 100.529 326.868 109.09 325.775 124.553ZM272.209 132.804L271.537 142.32L294.721 136.725C297.232 136.118 300.323 135.372 300.66 130.614C300.996 125.856 297.904 126.602 295.393 127.209L272.209 132.804ZM355.633 91.2348L350.731 160.623L325.615 166.684L330.517 97.2961L355.633 91.2348ZM355.34 135.444L380.456 129.383C380.218 132.753 383.148 134.287 399.087 130.44C413.963 126.85 416.255 125.323 416.437 122.745C416.647 119.772 414.453 119.911 398.646 123.239C368.19 129.615 356.866 127.281 358.007 111.123C359.086 95.8579 374.134 85.7955 400.796 79.3612C427.167 72.9969 441.582 75.949 440.328 93.6925L415.212 99.7538C415.471 96.0861 409.731 96.6919 397.463 99.6526C385.678 102.497 383.221 103.674 383.032 106.351C382.843 109.027 385.265 108.345 399.906 105.396C426.491 100.053 442.876 97.9495 441.595 116.089C440.243 135.221 424.444 143.808 396.72 150.499C368.996 157.189 353.883 156.062 355.34 135.444Z" fill="#EA4050"/>
<path d="M163.195 255.337C161.382 281.013 123.854 286.178 117.719 296.331L159.936 286.142L158.178 311.026L71.7614 331.881L72.7202 318.308C74.8135 288.674 133.474 277.297 134.257 266.212C134.497 262.819 131.781 262.919 122.191 265.233C112.051 267.68 105.437 269.276 104.918 276.628L76.2593 283.544C78.1688 256.512 96.6133 246.946 122.847 240.615C149.411 234.204 164.585 235.657 163.195 255.337ZM206.647 300.441C176.004 307.836 162.39 298.113 164.339 270.515C166.281 243.03 181.757 226.398 212.4 219.003C242.932 211.635 256.657 221.33 254.724 248.702C252.782 276.188 237.179 293.072 206.647 300.441ZM208.405 275.557C221.963 272.285 225.474 263.989 226.065 255.619C226.648 247.362 224.31 240.588 210.642 243.887C196.974 247.185 193.589 255.229 192.998 263.599C192.398 272.082 194.847 278.829 208.405 275.557ZM345.54 211.332C343.727 237.007 306.199 242.172 300.065 252.325L342.281 242.137L340.523 267.02L254.107 287.875L255.065 274.303C257.159 244.668 315.819 233.291 316.602 222.207C316.842 218.813 314.126 218.913 304.537 221.227C294.396 223.674 287.782 225.27 287.263 232.622L258.604 239.539C260.514 212.506 278.958 202.94 305.192 196.609C331.756 190.199 346.931 191.651 345.54 211.332ZM436.026 210.619L434.268 235.502L423.246 238.162L422.607 247.211L393.948 254.127L394.587 245.079L344.545 257.155L346.303 232.272L399.541 174.952L428.199 168.036L425.003 213.279L436.026 210.619ZM372.757 225.888L396.345 220.195L397.783 199.836L372.757 225.888Z" fill="#3D3AA9"/>
</svg>
