<svg width="528" height="555" viewBox="0 0 528 555" fill="none" xmlns="http://www.w3.org/2000/svg">
<path d="M103.804 47.443L134.925 62.0512L79.2221 150.722L68.1383 125.144L56.2018 106.671L30.0043 63.827C29.2824 62.6462 28.6829 61.3948 28.2153 60.0923L25.0991 51.4112C22.8515 45.1501 26.3237 38.2862 32.6991 36.3871C33.7729 36.0673 34.8875 35.9048 36.0079 35.9048H52.0673C69.9508 35.9048 87.6148 39.8442 103.804 47.443Z" fill="#3D3AA9"/>
<path d="M144.247 236.916L120.149 203.583L248.039 216.088L242.376 233.947C241.232 237.556 240.65 241.319 240.65 245.105V268.366C240.65 275.908 246.764 282.022 254.306 282.022C256.536 282.022 258.732 281.476 260.702 280.432L270.084 275.458C277.443 271.557 285.645 269.518 293.974 269.518H302.61C318.676 269.518 333.058 279.484 338.699 294.527L354.792 355.355C355.241 357.051 355.543 358.783 355.696 360.531L363.333 448.257L403.497 372.682L420.031 342.667C421.32 340.326 422.37 337.861 423.164 335.31L424.992 329.432C430.043 313.197 446.627 303.478 463.26 307.006C468.616 308.142 474.17 307.925 479.421 306.374L484.918 304.749C492.251 302.583 498.33 297.426 501.663 290.544L509.741 273.868C512.089 269.021 518.008 267.114 522.744 269.679C525.793 271.331 527.692 274.52 527.692 277.987V292.837C527.692 298.427 526.329 303.932 523.721 308.876L521.859 312.408C516.791 322.015 508.739 329.717 498.916 334.353L495.07 336.167C490.913 338.129 486.373 339.147 481.776 339.147C468.865 339.147 457.291 347.112 452.68 359.172L430.78 416.449L405.115 478.473C404.039 481.074 402.709 483.563 401.146 485.903L395.306 494.646C378.503 519.801 340.348 515.669 329.32 487.5L344.383 533.824L133.222 550.308V540.803C133.222 496.471 128.843 452.247 120.149 408.776L119.225 405.911C116.737 398.195 105.238 400.729 106.223 408.776L120.149 509.383L70.1294 517.909L54.4983 469.879L39.4357 401.955L28.0021 354.279C25.6428 344.441 26.4422 334.11 30.2868 324.753C36.0462 310.735 48.0694 300.246 62.7394 296.443L63.8919 296.144C68.0335 295.071 72.2945 294.527 76.573 294.527H131.14C136.001 294.527 140.735 292.977 144.655 290.103C151.441 285.127 154.943 276.824 153.771 268.491L152.058 256.311C151.073 249.306 148.392 242.648 144.247 236.916Z" fill="#3D3AA9"/>
<path d="M71.2154 159.772L97.3928 101.658C106.756 80.8727 123.268 64.1378 143.926 54.4972C156.53 48.6155 170.269 45.5674 184.178 45.5674H199.538C209.265 45.5674 218.933 47.0838 228.192 50.0622C250.463 57.2253 269.244 72.4703 280.833 92.7929L282.426 95.5867L307.436 151.574L308.738 155.022C313.533 167.714 308.251 182 296.352 188.52L266.226 204.72L246.714 217.254C234.033 225.399 219.278 229.729 204.207 229.729C194.666 229.729 185.205 227.994 176.286 224.607L83.4578 189.358C74.9203 186.117 69.2754 177.935 69.2754 168.803C69.2754 165.689 69.9367 162.611 71.2154 159.772Z" fill="#3D3AA9"/>
<path d="M138.648 276.791L139.123 274.954C140.847 268.295 148.988 265.795 154.152 270.339C156.032 271.993 158.504 272.813 161.001 272.608L234.406 266.596C237.957 266.305 240.914 263.754 241.724 260.284C243.399 253.103 252.963 251.608 256.75 257.936L287.477 309.282C288.842 311.563 289.921 314.003 290.689 316.547L360.298 546.898L136.632 554.571L117.306 411.618L126.116 546.898L65.8658 554.571L55.0466 498.594C53.5614 490.909 50.4378 483.635 45.8886 477.266C39.2885 468.026 35.7405 456.954 35.7405 445.599V438.798C35.7405 434.329 35.3447 429.868 34.5576 425.468L23.0897 361.36C20.0861 344.569 23.8997 327.084 33.4891 312.977C45.4632 295.362 65.5426 284.58 86.8419 284.58H128.586C133.323 284.58 137.461 281.377 138.648 276.791Z" fill="#3D3AA9"/>
<path d="M284.333 266.676H299.914C316.265 266.676 331.649 274.426 341.38 287.567L347.373 295.66C355.087 306.077 359.827 318.394 361.089 331.295L369.108 413.323L396.748 355.176C398.266 351.982 401.487 349.947 405.024 349.947C408.45 349.947 411.59 348.036 413.164 344.993L415.252 340.956C419.661 332.431 430.351 329.397 438.581 334.335L457.127 345.463C461 347.787 461.791 353.067 458.77 356.424C457.583 357.743 456.926 359.454 456.926 361.228V363.481C456.926 365.055 456.642 366.616 456.086 368.089L413.38 481.27C404.868 503.83 383.274 518.762 359.161 518.762C343.204 508.674 331.375 493.219 325.806 475.181L268.184 288.563C266.44 282.915 267.774 276.766 271.701 272.348C274.908 268.74 279.505 266.676 284.333 266.676Z" fill="#3D3AA9"/>
<path d="M242.181 39.4224L232.976 49.2619L224.734 57.2196L288.68 119.744L293.511 57.2196V29.9171C293.511 28.0484 293.198 26.1929 292.586 24.4274L290.998 19.8505C289.61 15.8504 285.841 13.1685 281.607 13.1685C279.729 13.1685 277.89 13.7003 276.302 14.7024L258.47 25.9552C252.488 29.7305 247.014 34.2564 242.181 39.4224Z" fill="#3D3AA9"/>
<mask id="mask0_695_54778" style="mask-type:alpha" maskUnits="userSpaceOnUse" x="3" y="0" width="507" height="542">
<path d="M85.4012 34.2746L116.523 48.8828L60.8197 137.553L49.7359 111.975L37.7995 93.5023L11.602 50.6585C10.88 49.4778 10.2806 48.2264 9.81299 46.9238L6.69672 38.2428C4.44915 31.9817 7.92134 25.1177 14.2968 23.2187C15.3706 22.8988 16.4851 22.7363 17.6056 22.7363H33.665C51.5485 22.7363 69.2124 26.6757 85.4012 34.2746Z" fill="#FFDAB8" stroke="#D49357" stroke-width="0.747405"/>
<path d="M125.843 223.748L101.744 190.415L229.635 202.92L223.972 220.779C222.828 224.388 222.245 228.151 222.245 231.937V255.198C222.245 262.74 228.36 268.854 235.902 268.854C238.132 268.854 240.328 268.308 242.298 267.264L251.68 262.29C259.039 258.389 267.241 256.35 275.57 256.35H284.206C300.272 256.35 314.653 266.316 320.295 281.359L336.388 342.187C336.837 343.883 337.139 345.615 337.291 347.363L344.929 435.089L385.092 359.514L401.627 329.499C402.916 327.158 403.965 324.693 404.759 322.142L406.588 316.264C411.639 300.029 428.223 290.31 444.856 293.838C450.212 294.974 455.766 294.757 461.016 293.206L466.514 291.581C473.846 289.415 479.926 284.258 483.259 277.376L491.337 260.7C493.685 255.853 499.604 253.946 504.34 256.511C507.389 258.163 509.288 261.352 509.288 264.819V279.669C509.288 285.259 507.925 290.764 505.317 295.708L503.454 299.24C498.387 308.847 490.335 316.549 480.511 321.185L476.666 322.999C472.509 324.961 467.969 325.979 463.372 325.979C450.46 325.979 438.887 333.944 434.276 346.004L412.376 403.281L386.711 465.305C385.634 467.906 384.305 470.395 382.742 472.735L376.902 481.478C360.099 506.633 321.944 502.501 310.916 474.332L325.979 520.656L114.818 537.14V527.635C114.818 483.303 110.439 439.079 101.744 395.608L100.821 392.743C98.3327 385.027 86.8333 387.561 87.8185 395.608L101.744 496.215L51.7251 504.741L36.094 456.711L21.0314 388.787L9.59777 341.111C7.2385 331.273 8.03791 320.943 11.8825 311.585C17.6419 297.567 29.6651 287.079 44.3351 283.275L45.4877 282.976C49.6292 281.903 53.8902 281.359 58.1687 281.359H112.736C117.597 281.359 122.331 279.809 126.251 276.935C133.036 271.959 136.538 263.656 135.367 255.323L133.654 243.143C132.669 236.138 129.987 229.48 125.843 223.748Z" fill="#FFDAB8"/>
<path d="M275.107 314.042L297.041 424.408C300.413 441.372 305.051 458.06 310.916 474.332V474.332M310.916 474.332V474.332C321.944 502.501 360.099 506.633 376.902 481.478L382.742 472.735C384.305 470.395 385.634 467.906 386.711 465.305L412.376 403.281L434.276 346.004C438.887 333.944 450.46 325.979 463.372 325.979V325.979C467.969 325.979 472.509 324.961 476.666 322.999L480.511 321.185C490.335 316.549 498.387 308.847 503.454 299.24L505.317 295.708C507.925 290.764 509.288 285.259 509.288 279.669V264.819C509.288 261.352 507.389 258.163 504.34 256.511V256.511C499.604 253.946 493.685 255.853 491.337 260.7L483.259 277.376C479.926 284.258 473.846 289.415 466.514 291.581L461.016 293.206C455.766 294.757 450.212 294.974 444.856 293.838V293.838C428.223 290.31 411.639 300.029 406.588 316.264L404.759 322.142C403.965 324.693 402.916 327.158 401.627 329.499L385.092 359.514L338.248 447.659C337.518 449.033 337.605 450.696 338.473 451.987V451.987C340.901 455.596 346.54 453.604 346.163 449.27L337.291 347.363C337.139 345.615 336.837 343.883 336.388 342.187L320.295 281.359V281.359C314.653 266.316 300.272 256.35 284.206 256.35H275.57C267.241 256.35 259.039 258.389 251.68 262.29L242.298 267.264C240.328 268.308 238.132 268.854 235.902 268.854V268.854C228.36 268.854 222.245 262.74 222.245 255.198V231.937C222.245 228.151 222.828 224.388 223.972 220.779L229.635 202.92L101.744 190.415L125.843 223.748C129.987 229.48 132.669 236.138 133.654 243.143L135.367 255.323C136.538 263.656 133.036 271.959 126.251 276.935V276.935C122.331 279.809 117.597 281.359 112.736 281.359H58.1687C53.8902 281.359 49.6292 281.903 45.4877 282.976L44.3351 283.275C29.6651 287.079 17.6419 297.567 11.8825 311.585V311.585C8.03791 320.943 7.2385 331.273 9.59777 341.111L21.0314 388.787L36.094 456.711L51.7251 504.741L101.744 496.215L87.8185 395.608V395.608C86.8333 387.561 98.3327 385.027 100.821 392.743L101.744 395.608V395.608C110.439 439.079 114.818 483.303 114.818 527.635V537.14L325.979 520.656L310.916 474.332Z" stroke="#D49357" stroke-width="0.747405"/>
<path d="M52.8111 146.604L78.9885 88.4904C88.3514 67.7047 104.864 50.9698 125.522 41.3292C138.126 35.4475 151.865 32.3994 165.774 32.3994L181.134 32.3994C190.861 32.3994 200.528 33.9159 209.788 36.8942C232.059 44.0574 250.84 59.3024 262.428 79.625L264.022 82.4187L289.031 138.406L290.334 141.854C295.129 154.546 289.846 168.832 277.947 175.352L247.822 191.552L228.309 204.086C215.628 212.231 200.874 216.561 185.802 216.561C176.262 216.561 166.801 214.826 157.882 211.439L65.0535 176.19C56.516 172.949 50.8711 164.767 50.8711 155.635C50.8711 152.521 51.5324 149.443 52.8111 146.604Z" fill="#FFDAB8" stroke="#D49357" stroke-width="0.747405"/>
<path d="M120.244 263.623L120.719 261.785C122.443 255.126 130.584 252.626 135.747 257.17C137.628 258.825 140.1 259.644 142.596 259.44L216.001 253.427C219.552 253.136 222.51 250.586 223.319 247.116C224.995 239.934 234.559 238.44 238.346 244.768L269.072 296.114C270.437 298.394 271.516 300.834 272.285 303.379L341.893 533.729L118.227 541.403L98.9018 398.45L107.712 533.729L47.4615 541.403L36.6423 485.425C35.1571 477.74 32.0335 470.466 27.4843 464.097C20.8842 454.857 17.3362 443.786 17.3362 432.431V425.63C17.3362 421.16 16.9404 416.699 16.1533 412.299L4.68543 348.192C1.68176 331.401 5.49537 313.916 15.0848 299.809C27.0589 282.194 47.1383 271.412 68.4376 271.412H110.181C114.919 271.412 119.057 268.209 120.244 263.623Z" fill="#FFDAB8"/>
<path d="M265.928 253.507H281.509C297.861 253.507 313.245 261.258 322.976 274.399L328.968 282.491C336.682 292.909 341.423 305.225 342.684 318.126L350.704 400.155L378.343 342.008C379.862 338.814 383.083 336.778 386.62 336.778C390.046 336.778 393.186 334.867 394.76 331.824L396.848 327.788C401.257 319.263 411.947 316.229 420.177 321.167L438.722 332.294C442.596 334.618 443.387 339.898 440.365 343.256C439.179 344.575 438.522 346.286 438.522 348.06V350.313C438.522 351.887 438.237 353.448 437.682 354.921L394.976 468.101C386.463 490.662 364.87 505.593 340.757 505.593C324.8 495.506 312.971 480.05 307.401 462.012L249.78 275.394C248.036 269.746 249.369 263.598 253.297 259.18C256.504 255.572 261.101 253.507 265.928 253.507Z" fill="#FFDAB8"/>
<g style="mix-blend-mode:color-burn">
<path d="M223.777 26.2539L214.572 36.0935L206.33 44.0511L270.275 106.575L275.107 44.0511V16.7487C275.107 14.88 274.794 13.0244 274.181 11.2589L272.594 6.68207C271.206 2.68198 267.436 0 263.202 0C261.325 0 259.485 0.531833 257.898 1.53393L240.066 12.7868C234.084 16.5621 228.609 21.0879 223.777 26.2539Z" fill="#D9D9D9"/>
</g>
</mask>
<g mask="url(#mask0_695_54778)">
<path d="M85.4012 34.2741L116.523 48.8823L60.8197 137.553L49.7359 111.975L37.7995 93.5018L11.602 50.658C10.88 49.4773 10.2806 48.2259 9.81299 46.9233L6.69672 38.2423C4.44915 31.9812 7.92134 25.1172 14.2968 23.2182C15.3706 22.8983 16.4851 22.7358 17.6056 22.7358H33.665C51.5485 22.7358 69.2124 26.6753 85.4012 34.2741Z" fill="#FBB778" stroke="#D49357" stroke-width="0.747405"/>
<path d="M85.4012 34.2741L116.523 48.8823L60.8197 137.553L49.7359 111.975L37.7995 93.5018L11.602 50.658C10.88 49.4773 10.2806 48.2259 9.81299 46.9233L6.69672 38.2423C4.44915 31.9812 7.92134 25.1172 14.2968 23.2182C15.3706 22.8983 16.4851 22.7358 17.6056 22.7358H33.665C51.5485 22.7358 69.2124 26.6753 85.4012 34.2741Z" fill="url(#paint0_linear_695_54778)" stroke="#D49357" stroke-width="0.747405"/>
<g style="mix-blend-mode:color-burn">
<path d="M85.4012 34.2741L116.523 48.8823L60.8197 137.553L49.7359 111.975L37.7995 93.5018L11.602 50.658C10.88 49.4773 10.2806 48.2259 9.81299 46.9233L6.69672 38.2423C4.44915 31.9812 7.92134 25.1172 14.2968 23.2182C15.3706 22.8983 16.4851 22.7358 17.6056 22.7358H33.665C51.5485 22.7358 69.2124 26.6753 85.4012 34.2741Z" fill="url(#paint1_linear_695_54778)"/>
<path d="M85.4012 34.2741L116.523 48.8823L60.8197 137.553L49.7359 111.975L37.7995 93.5018L11.602 50.658C10.88 49.4773 10.2806 48.2259 9.81299 46.9233L6.69672 38.2423C4.44915 31.9812 7.92134 25.1172 14.2968 23.2182C15.3706 22.8983 16.4851 22.7358 17.6056 22.7358H33.665C51.5485 22.7358 69.2124 26.6753 85.4012 34.2741Z" stroke="#D49357" stroke-width="0.747405"/>
</g>
<path d="M75.1178 64.6125L92.366 77.8705L69.0615 131.016L49.1675 96.6278L26.7156 55.4187L22.4834 46.62C20.1676 41.8056 24.9993 36.6674 29.9469 38.6831C46.0977 45.2631 61.2907 53.9843 75.1178 64.6125Z" fill="url(#paint2_linear_695_54778)" stroke="#FDE2B7" stroke-width="0.747405"/>
<path d="M223.777 26.2539L214.572 36.0935L206.33 44.0511L270.275 106.575L275.107 44.0511V16.7487C275.107 14.88 274.794 13.0244 274.181 11.2589L272.594 6.68207C271.206 2.68198 267.436 0 263.202 0C261.325 0 259.485 0.531833 257.898 1.53393L240.066 12.7868C234.084 16.5621 228.609 21.0879 223.777 26.2539Z" fill="#EECD23" stroke="#D49357" stroke-width="0.747405"/>
<path d="M223.777 26.2539L214.572 36.0935L206.33 44.0511L270.275 106.575L275.107 44.0511V16.7487C275.107 14.88 274.794 13.0244 274.181 11.2589L272.594 6.68207C271.206 2.68198 267.436 0 263.202 0C261.325 0 259.485 0.531833 257.898 1.53393L240.066 12.7868C234.084 16.5621 228.609 21.0879 223.777 26.2539Z" fill="url(#paint3_linear_695_54778)" stroke="#D49357" stroke-width="0.747405"/>
<g style="mix-blend-mode:color-burn">
<path d="M223.777 26.2539L214.572 36.0935L206.33 44.0511L270.275 106.575L275.107 44.0511V16.7487C275.107 14.88 274.794 13.0244 274.181 11.2589L272.594 6.68207C271.206 2.68198 267.436 0 263.202 0C261.325 0 259.485 0.531833 257.898 1.53393L240.066 12.7868C234.084 16.5621 228.609 21.0879 223.777 26.2539Z" fill="url(#paint4_linear_695_54778)"/>
<path d="M223.777 26.2539L214.572 36.0935L206.33 44.0511L270.275 106.575L275.107 44.0511V16.7487C275.107 14.88 274.794 13.0244 274.181 11.2589L272.594 6.68207C271.206 2.68198 267.436 0 263.202 0C261.325 0 259.485 0.531833 257.898 1.53393L240.066 12.7868C234.084 16.5621 228.609 21.0879 223.777 26.2539Z" stroke="#D49357" stroke-width="0.747405"/>
</g>
<path d="M260.329 46.6089L268.162 20.9216C268.914 18.4568 272.549 18.9987 272.549 21.5757V42.0617L266.865 104.302L251.803 81.5656L260.329 46.6089Z" fill="url(#paint5_linear_695_54778)" stroke="#FDE2B7" stroke-width="0.747405"/>
<path d="M125.843 223.747L101.744 190.415L229.35 202.919L223.858 220.934C222.789 224.441 222.245 228.087 222.245 231.754V255.198C222.245 262.74 228.36 268.854 235.902 268.854C238.132 268.854 240.328 268.308 242.298 267.263L251.68 262.29C259.039 258.389 267.241 256.349 275.57 256.349H284.206C300.272 256.349 314.653 266.315 320.295 281.359L336.388 342.186C336.837 343.883 337.139 345.614 337.291 347.363L344.929 435.089L385.092 359.514L401.627 329.498C402.916 327.158 403.965 324.693 404.759 322.141L406.588 316.264C411.639 300.028 428.223 290.31 444.856 293.838C450.212 294.974 455.766 294.756 461.016 293.205L466.514 291.581C473.846 289.414 479.926 284.257 483.259 277.376L491.337 260.7C493.685 255.852 499.604 253.945 504.34 256.511C507.389 258.162 509.288 261.351 509.288 264.819V279.668C509.288 285.258 507.925 290.764 505.317 295.708L503.454 299.239C498.387 308.847 490.335 316.548 480.511 321.184L476.666 322.999C472.509 324.961 467.969 325.978 463.372 325.978C450.46 325.978 438.887 333.944 434.276 346.004L412.376 403.281L386.711 465.305C385.634 467.906 384.305 470.394 382.742 472.735L376.902 481.478C360.099 506.632 321.944 502.5 310.916 474.331L325.979 520.656L114.818 537.139V527.634C114.818 483.302 110.439 439.079 101.744 395.607L100.821 392.742C98.3327 385.027 86.8333 387.561 87.8185 395.607L101.744 496.215L51.7251 504.741L36.094 456.711L21.0314 388.787L9.59777 341.111C7.2385 331.273 8.03791 320.942 11.8825 311.584C17.6419 297.566 29.6651 287.078 44.3351 283.275L45.4877 282.976C49.6292 281.902 53.8902 281.359 58.1687 281.359H112.736C117.597 281.359 122.331 279.809 126.251 276.934C133.036 271.958 136.538 263.656 135.367 255.323L133.654 243.143C132.669 236.138 129.987 229.48 125.843 223.747Z" fill="url(#paint6_linear_695_54778)"/>
<g style="mix-blend-mode:color-burn">
<path d="M125.843 223.747L101.744 190.415L229.635 202.919L223.972 220.778C222.828 224.387 222.245 228.151 222.245 231.936V255.198C222.245 262.74 228.36 268.854 235.902 268.854C238.132 268.854 240.328 268.308 242.298 267.263L251.68 262.29C259.039 258.389 267.241 256.349 275.57 256.349H284.206C300.272 256.349 314.653 266.315 320.295 281.359L336.388 342.186C336.837 343.883 337.139 345.614 337.291 347.363L344.929 435.089L385.092 359.514L401.627 329.498C402.916 327.158 403.965 324.693 404.759 322.141L406.588 316.264C411.639 300.028 428.223 290.31 444.856 293.838C450.212 294.974 455.766 294.756 461.016 293.205L466.514 291.581C473.846 289.414 479.926 284.257 483.259 277.376L491.337 260.7C493.685 255.852 499.604 253.945 504.34 256.511C507.389 258.162 509.288 261.351 509.288 264.819V279.668C509.288 285.258 507.925 290.764 505.317 295.708L503.454 299.239C498.387 308.847 490.335 316.548 480.511 321.184L476.666 322.999C472.509 324.961 467.969 325.978 463.372 325.978C450.46 325.978 438.887 333.944 434.276 346.004L412.376 403.281L386.711 465.305C385.634 467.906 384.305 470.394 382.742 472.735L376.902 481.478C360.099 506.632 321.944 502.5 310.916 474.331L325.979 520.656L114.818 537.139V527.634C114.818 483.302 110.439 439.079 101.744 395.607L100.821 392.742C98.3327 385.027 86.8333 387.561 87.8185 395.607L101.744 496.215L51.7251 504.741L36.094 456.711L21.0314 388.787L9.59777 341.111C7.2385 331.273 8.03791 320.942 11.8825 311.584C17.6419 297.566 29.6651 287.078 44.3351 283.275L45.4877 282.976C49.6292 281.902 53.8902 281.359 58.1687 281.359H112.736C117.597 281.359 122.331 279.809 126.251 276.934C133.036 271.958 136.538 263.656 135.367 255.323L133.654 243.143C132.669 236.138 129.987 229.48 125.843 223.747Z" fill="url(#paint7_linear_695_54778)"/>
<path d="M275.107 314.042L297.041 424.408C300.413 441.372 305.051 458.06 310.916 474.331V474.331M310.916 474.331V474.331C321.944 502.5 360.099 506.632 376.902 481.478L382.742 472.735C384.305 470.394 385.634 467.906 386.711 465.305L412.376 403.281L434.276 346.004C438.887 333.944 450.46 325.978 463.372 325.978V325.978C467.969 325.978 472.509 324.961 476.666 322.999L480.511 321.184C490.335 316.548 498.387 308.847 503.454 299.239L505.317 295.708C507.925 290.764 509.288 285.258 509.288 279.668V264.819C509.288 261.351 507.389 258.162 504.34 256.511V256.511C499.604 253.945 493.685 255.852 491.337 260.7L483.259 277.376C479.926 284.257 473.846 289.414 466.514 291.581L461.016 293.205C455.766 294.756 450.212 294.974 444.856 293.838V293.838C428.223 290.31 411.639 300.028 406.588 316.264L404.759 322.141C403.965 324.693 402.916 327.158 401.627 329.498L385.092 359.514L338.248 447.659C337.518 449.032 337.605 450.696 338.473 451.986V451.986C340.901 455.595 346.54 453.603 346.163 449.27L337.291 347.363C337.139 345.614 336.837 343.883 336.388 342.186L320.295 281.359V281.359C314.653 266.315 300.272 256.349 284.206 256.349H275.57C267.241 256.349 259.039 258.389 251.68 262.29L242.298 267.263C240.328 268.308 238.132 268.854 235.902 268.854V268.854C228.36 268.854 222.245 262.74 222.245 255.198V231.936C222.245 228.151 222.828 224.387 223.972 220.778L229.635 202.919L101.744 190.415L125.843 223.747C129.987 229.48 132.669 236.138 133.654 243.143L135.367 255.323C136.538 263.656 133.036 271.958 126.251 276.934V276.934C122.331 279.809 117.597 281.359 112.736 281.359H58.1687C53.8902 281.359 49.6292 281.902 45.4877 282.976L44.3351 283.275C29.6651 287.078 17.6419 297.566 11.8825 311.584V311.584C8.03791 320.942 7.2385 331.273 9.59777 341.111L21.0314 388.787L36.094 456.711L51.7251 504.741L101.744 496.215L87.8185 395.607V395.607C86.8333 387.561 98.3327 385.027 100.821 392.742L101.744 395.607V395.607C110.439 439.079 114.818 483.302 114.818 527.634V537.139L325.979 520.656L310.916 474.331Z" stroke="#D49357" stroke-width="0.747405"/>
</g>
<g style="mix-blend-mode:color-burn">
<path d="M125.843 223.747L101.744 190.415L229.635 202.919L223.972 220.778C222.828 224.387 222.245 228.151 222.245 231.936V255.198C222.245 262.74 228.36 268.854 235.902 268.854C238.132 268.854 240.328 268.308 242.298 267.263L251.68 262.29C259.039 258.389 267.241 256.349 275.57 256.349H284.206C300.272 256.349 314.653 266.315 320.295 281.359L336.388 342.186C336.837 343.883 337.139 345.614 337.291 347.363L344.929 435.089L385.092 359.514L401.627 329.498C402.916 327.158 403.965 324.693 404.759 322.141L406.588 316.264C411.639 300.028 428.223 290.31 444.856 293.838C450.212 294.974 455.766 294.756 461.016 293.205L466.514 291.581C473.846 289.414 479.926 284.257 483.259 277.376L491.337 260.7C493.685 255.852 499.604 253.945 504.34 256.511C507.389 258.162 509.288 261.351 509.288 264.819V279.668C509.288 285.258 507.925 290.764 505.317 295.708L503.455 299.239C498.387 308.847 490.335 316.548 480.511 321.184L476.666 322.999C472.509 324.961 467.969 325.978 463.372 325.978C450.46 325.978 438.887 333.944 434.276 346.004L412.376 403.281L386.711 465.305C385.634 467.906 384.305 470.394 382.742 472.735L376.902 481.478C360.099 506.632 321.944 502.5 310.916 474.331L325.979 520.656L114.818 537.139V527.634C114.818 483.302 110.439 439.079 101.744 395.607L100.821 392.742C98.3327 385.027 86.8333 387.561 87.8185 395.607L101.744 496.214L51.7251 504.74L36.094 456.711L21.0314 388.787L9.59777 341.111C7.2385 331.273 8.03791 320.942 11.8825 311.584C17.6419 297.566 29.6651 287.078 44.3351 283.275L45.4877 282.976C49.6292 281.902 53.8902 281.359 58.1687 281.359H112.736C117.597 281.359 122.331 279.809 126.251 276.934C133.036 271.958 136.538 263.656 135.367 255.323L133.654 243.143C132.669 236.138 129.987 229.48 125.843 223.747Z" fill="url(#paint8_linear_695_54778)"/>
<path d="M275.107 314.042L297.041 424.408C300.413 441.372 305.051 458.06 310.916 474.331V474.331M310.916 474.331V474.331C321.944 502.5 360.099 506.632 376.902 481.478L382.742 472.735C384.305 470.394 385.634 467.906 386.711 465.305L412.376 403.281L434.276 346.004C438.887 333.944 450.46 325.978 463.372 325.978V325.978C467.969 325.978 472.509 324.961 476.666 322.999L480.511 321.184C490.335 316.548 498.387 308.847 503.455 299.239L505.317 295.708C507.925 290.764 509.288 285.258 509.288 279.668V264.819C509.288 261.351 507.389 258.162 504.34 256.511V256.511C499.604 253.945 493.685 255.852 491.337 260.7L483.259 277.376C479.926 284.257 473.846 289.414 466.514 291.581L461.016 293.205C455.766 294.756 450.212 294.974 444.856 293.838V293.838C428.223 290.31 411.639 300.028 406.588 316.264L404.759 322.141C403.965 324.693 402.916 327.158 401.627 329.498L385.092 359.514L338.248 447.659C337.518 449.032 337.605 450.696 338.473 451.986V451.986C340.901 455.595 346.54 453.603 346.163 449.27L337.291 347.363C337.139 345.614 336.837 343.883 336.388 342.186L320.295 281.359V281.359C314.653 266.315 300.272 256.349 284.206 256.349H275.57C267.241 256.349 259.039 258.389 251.68 262.29L242.298 267.263C240.328 268.308 238.132 268.854 235.902 268.854V268.854C228.36 268.854 222.245 262.74 222.245 255.198V231.936C222.245 228.151 222.828 224.387 223.972 220.778L229.635 202.919L101.744 190.415L125.843 223.747C129.987 229.48 132.669 236.138 133.654 243.143L135.367 255.323C136.538 263.656 133.036 271.958 126.251 276.934V276.934C122.331 279.809 117.597 281.359 112.736 281.359H58.1687C53.8902 281.359 49.6292 281.902 45.4877 282.976L44.3351 283.275C29.6651 287.078 17.6419 297.566 11.8825 311.584V311.584C8.03791 320.942 7.2385 331.273 9.59777 341.111L21.0314 388.787L36.094 456.711L51.7251 504.74L101.744 496.214L87.8185 395.607V395.607C86.8333 387.561 98.3327 385.027 100.821 392.742L101.744 395.607V395.607C110.439 439.079 114.818 483.302 114.818 527.634V537.139L325.979 520.656L310.916 474.331Z" stroke="#D49357" stroke-width="0.747405"/>
</g>
<g style="mix-blend-mode:soft-light" filter="url(#filter0_f_695_54778)">
<ellipse cx="176.772" cy="240.149" rx="50.3035" ry="53.7139" fill="#88FFEA"/>
</g>
<mask id="mask1_695_54778" style="mask-type:alpha" maskUnits="userSpaceOnUse" x="50" y="32" width="243" height="185">
<path d="M52.8111 146.604L78.9885 88.4899C88.3514 67.7042 104.864 50.9693 125.522 41.3287C138.126 35.447 151.865 32.3989 165.774 32.3989L181.134 32.3989C190.861 32.3989 200.528 33.9154 209.788 36.8937C232.059 44.0569 250.84 59.3019 262.428 79.6245L264.022 82.4182L289.031 138.406L290.334 141.853C295.129 154.546 289.846 168.832 277.947 175.352L247.822 191.551L228.309 204.085C215.628 212.231 200.874 216.561 185.802 216.561C176.262 216.561 166.801 214.825 157.882 211.439L65.0535 176.19C56.516 172.948 50.8711 164.767 50.8711 155.634C50.8711 152.521 51.5324 149.443 52.8111 146.604Z" fill="#FBB778" stroke="#D49357" stroke-width="0.747405"/>
</mask>
<g mask="url(#mask1_695_54778)">
<path d="M52.8111 146.604L78.9885 88.4899C88.3514 67.7042 104.864 50.9693 125.522 41.3287C138.126 35.447 151.865 32.3989 165.774 32.3989L181.134 32.3989C190.861 32.3989 200.528 33.9154 209.788 36.8937C232.059 44.0569 250.84 59.3019 262.428 79.6245L264.022 82.4182L289.031 138.406L290.334 141.853C295.129 154.546 289.846 168.832 277.947 175.352L247.822 191.551L228.309 204.085C215.628 212.231 200.874 216.561 185.802 216.561C176.262 216.561 166.801 214.825 157.882 211.439L65.0535 176.19C56.516 172.948 50.8711 164.767 50.8711 155.634C50.8711 152.521 51.5324 149.443 52.8111 146.604Z" fill="url(#paint9_linear_695_54778)" stroke="#D49357" stroke-width="0.747405"/>
<g style="mix-blend-mode:color-burn">
<path d="M52.8111 146.604L78.9885 88.4899C88.3514 67.7042 104.864 50.9693 125.522 41.3287C138.126 35.447 151.865 32.3989 165.774 32.3989L181.134 32.3989C190.861 32.3989 200.528 33.9154 209.788 36.8937C232.059 44.0569 250.84 59.3019 262.428 79.6245L264.022 82.4182L289.031 138.406L290.334 141.853C295.129 154.546 289.846 168.832 277.947 175.352L247.822 191.551L228.309 204.085C215.628 212.231 200.874 216.561 185.802 216.561C176.262 216.561 166.801 214.825 157.882 211.439L65.0535 176.19C56.516 172.948 50.8711 164.767 50.8711 155.634C50.8711 152.521 51.5324 149.443 52.8111 146.604Z" fill="url(#paint10_linear_695_54778)"/>
<path d="M52.8111 146.604L78.9885 88.4899C88.3514 67.7042 104.864 50.9693 125.522 41.3287C138.126 35.447 151.865 32.3989 165.774 32.3989L181.134 32.3989C190.861 32.3989 200.528 33.9154 209.788 36.8937C232.059 44.0569 250.84 59.3019 262.428 79.6245L264.022 82.4182L289.031 138.406L290.334 141.853C295.129 154.546 289.846 168.832 277.947 175.352L247.822 191.551L228.309 204.085C215.628 212.231 200.874 216.561 185.802 216.561C176.262 216.561 166.801 214.825 157.882 211.439L65.0535 176.19C56.516 172.948 50.8711 164.767 50.8711 155.634C50.8711 152.521 51.5324 149.443 52.8111 146.604Z" stroke="#D49357" stroke-width="0.747405"/>
</g>
<path d="M52.8111 146.604L78.9885 88.4899C88.3514 67.7042 104.864 50.9693 125.522 41.3287C138.126 35.447 151.865 32.3989 165.774 32.3989L181.134 32.3989C190.861 32.3989 200.528 33.9154 209.788 36.8937C232.059 44.0569 250.84 59.3019 262.428 79.6245L264.022 82.4182L289.031 138.406L290.334 141.853C295.129 154.546 289.846 168.832 277.947 175.352L247.822 191.551L228.309 204.085C215.628 212.231 200.874 216.561 185.802 216.561C176.262 216.561 166.801 214.825 157.882 211.439L65.0535 176.19C56.516 172.948 50.8711 164.767 50.8711 155.634C50.8711 152.521 51.5324 149.443 52.8111 146.604Z" fill="url(#paint11_linear_695_54778)" stroke="#D49357" stroke-width="0.747405"/>
<path d="M52.8111 146.604L78.9885 88.4899C88.3514 67.7042 104.864 50.9693 125.522 41.3287C138.126 35.447 151.865 32.3989 165.774 32.3989L181.134 32.3989C190.861 32.3989 200.528 33.9154 209.788 36.8937C232.059 44.0569 250.84 59.3019 262.428 79.6245L264.022 82.4182L289.031 138.406L290.334 141.853C295.129 154.546 289.846 168.832 277.947 175.352L247.822 191.551L228.309 204.085C215.628 212.231 200.874 216.561 185.802 216.561C176.262 216.561 166.801 214.825 157.882 211.439L65.0535 176.19C56.516 172.948 50.8711 164.767 50.8711 155.634C50.8711 152.521 51.5324 149.443 52.8111 146.604Z" fill="url(#paint12_linear_695_54778)" stroke="#D49357" stroke-width="0.747405"/>
<ellipse opacity="0.4" cx="106.86" cy="131.301" rx="42.3459" ry="36.3777" fill="url(#paint13_radial_695_54778)"/>
<ellipse opacity="0.4" cx="251.801" cy="131.301" rx="42.3459" ry="36.3777" fill="url(#paint14_radial_695_54778)"/>
<g filter="url(#filter1_f_695_54778)">
<path d="M147.563 161.994H93.2168C105.228 174.005 119.461 183.565 135.122 190.142L165.653 202.962C173.18 206.123 181.26 207.75 189.423 207.75C201.38 207.75 213.077 204.259 223.077 197.704L239.409 187C246.327 182.466 252.785 177.266 258.691 171.474L279.368 151.194L241.582 159.307C233.7 160.999 225.482 158.889 219.39 153.609C212.226 147.4 202.221 145.647 193.373 149.051L171.066 157.63C163.566 160.515 155.599 161.994 147.563 161.994Z" fill="url(#paint15_linear_695_54778)"/>
</g>
<g style="mix-blend-mode:soft-light" filter="url(#filter2_f_695_54778)">
<ellipse cx="210.024" cy="99.4703" rx="112.543" ry="66.503" fill="#88FFEA"/>
</g>
<g style="mix-blend-mode:soft-light" filter="url(#filter3_f_695_54778)">
<ellipse cx="66.5027" cy="109.417" rx="50.3035" ry="53.7139" fill="#88FFEA"/>
</g>
</g>
<path d="M162.733 111.876L156.376 110.419C154.912 110.083 153.415 109.914 151.913 109.914L127.607 109.914L150.792 100.133C152.281 99.5048 153.849 99.0818 155.452 98.8754L161.652 98.077C164.393 97.7242 167.104 98.9142 168.699 101.17L169.319 102.047C171.266 104.8 170.714 108.595 168.065 110.68C166.56 111.865 164.6 112.304 162.733 111.876Z" fill="url(#paint16_linear_695_54778)"/>
<path d="M219.896 99.0115L222.965 98.0201C224.279 97.5954 225.666 97.4421 227.042 97.5696L231.866 98.0166C237.911 98.5767 243.694 100.755 248.607 104.322L248.779 104.447L242.131 105.154C239.505 105.434 236.959 106.224 234.636 107.48C232.112 108.844 229.328 109.657 226.468 109.866L223.783 110.061C223.782 110.061 223.781 110.061 223.78 110.061L220.296 109.229C217.725 108.616 215.997 106.206 216.241 103.574C216.437 101.459 217.875 99.6645 219.896 99.0115Z" fill="url(#paint17_linear_695_54778)"/>
<path d="M177.06 171.236L204.795 177.287C208.33 178.059 211.826 176.099 213.082 172.821L213.898 173.889C215.286 175.703 217.942 175.911 219.594 174.333C221.018 172.974 223.368 173.508 224.065 175.349L224.757 177.179C225.514 179.179 224.583 181.423 222.633 182.3L215.23 185.63C213.596 186.365 211.824 186.745 210.032 186.745H175.387C173.323 186.745 171.342 185.932 169.873 184.481C164.284 178.958 169.383 169.561 177.06 171.236Z" fill="url(#paint18_radial_695_54778)" stroke="#E9ABCC" stroke-width="1.08603"/>
<path d="M97.4805 122.207H168.531L167.796 124.08C162.519 137.538 149.948 146.742 135.524 147.706C119.574 148.773 104.714 139.567 98.5656 124.811L97.4805 122.207Z" fill="white" stroke="#D59357" stroke-width="0.747405"/>
<path d="M269.138 121.07H219.688L220.851 127.037C223.352 139.868 235.588 148.397 248.492 146.304C259.198 144.568 267.444 135.924 268.673 125.147L269.138 121.07Z" fill="white" stroke="#D59357" stroke-width="0.747405"/>
<path d="M130.182 130.587L125.9 122.207H161.141L160.268 128.164C159.735 131.8 157.797 135.081 154.872 137.305C151.799 139.64 147.9 140.608 144.091 139.979L142.73 139.755C137.329 138.864 132.673 135.461 130.182 130.587Z" fill="url(#paint19_linear_695_54778)"/>
<path d="M231.033 130.113L226.223 121.354H256.632V124.508C256.632 128.762 254.57 132.751 251.099 135.21C247.096 138.046 241.846 138.411 237.489 136.156L236.931 135.867C234.437 134.577 232.384 132.574 231.033 130.113Z" fill="url(#paint20_linear_695_54778)"/>
<ellipse cx="128.944" cy="128.273" rx="3.61159" ry="3.22464" fill="white"/>
<ellipse cx="229.551" cy="128.273" rx="3.61159" ry="3.22464" fill="white"/>
<path d="M211.299 170.869L206.722 169.881C203.367 169.158 201.631 165.431 203.235 162.397C203.987 160.976 205.356 159.984 206.941 159.713L213.008 158.676C213.463 158.598 213.923 158.559 214.385 158.559L216.829 158.559C219.991 158.559 222.554 161.122 222.554 164.284C222.554 166.756 220.967 168.949 218.619 169.722L215.867 170.627C214.393 171.112 212.816 171.196 211.299 170.869Z" fill="url(#paint21_radial_695_54778)" stroke="#B55A26" stroke-width="1.08603"/>
<path d="M118.227 271.412L119.737 265.58C121.911 257.182 132.178 254.029 138.69 259.76L216.001 253.427C219.552 253.136 222.51 250.586 223.319 247.116C224.995 239.934 234.559 238.44 238.346 244.768L269.072 296.114C270.437 298.394 271.516 300.834 272.285 303.379L341.893 533.729L118.227 541.403L98.9018 398.45L107.712 533.729L47.4615 541.403L36.6423 485.425C35.1571 477.74 32.0335 470.466 27.4843 464.097C20.8842 454.857 17.3362 443.786 17.3362 432.431V425.63C17.3362 421.16 16.9404 416.699 16.1533 412.299L4.68543 348.192C1.68176 331.401 5.36915 314.101 14.9586 299.994C27.1127 282.115 47.33 271.412 68.9494 271.412H118.227Z" fill="#F1F3FF"/>
<path d="M265.928 253.507H281.509C297.861 253.507 313.245 261.258 322.976 274.399L328.968 282.491C336.682 292.909 341.423 305.225 342.684 318.126L350.704 400.155L378.343 342.008C379.862 338.814 383.083 336.778 386.62 336.778C390.046 336.778 393.186 334.867 394.76 331.824L396.848 327.788C401.257 319.263 411.947 316.229 420.177 321.167L438.722 332.294C442.596 334.618 443.387 339.898 440.365 343.256C439.179 344.575 438.522 346.286 438.522 348.06V350.313C438.522 351.887 438.237 353.448 437.682 354.921L394.976 468.101C386.463 490.662 364.87 505.593 340.757 505.593C324.8 495.506 312.971 480.05 307.401 462.012L249.78 275.394C248.036 269.746 249.369 263.598 253.297 259.18C256.504 255.572 261.101 253.507 265.928 253.507Z" fill="#E0E5FF"/>
<path fill-rule="evenodd" clip-rule="evenodd" d="M120.719 261.785L120.244 263.623C119.057 268.209 114.919 271.412 110.182 271.412H68.4378C47.1385 271.412 27.0591 282.194 15.085 299.809C5.49556 313.916 1.68195 331.401 4.68562 348.192L16.1535 412.299C16.9406 416.699 17.3364 421.16 17.3364 425.63V432.431C17.3364 443.786 20.8844 454.857 27.4845 464.097C32.0337 470.466 35.1573 477.74 36.6425 485.425L47.4617 541.403L107.712 533.729L98.902 398.45L118.228 541.403L341.894 533.729L331.262 498.547C334.231 501.116 337.403 503.473 340.757 505.593C364.87 505.593 386.463 490.662 394.976 468.101L437.681 354.921C438.237 353.448 438.522 351.887 438.522 350.313V348.06C438.522 346.286 439.179 344.575 440.365 343.256C443.387 339.899 442.596 334.618 438.722 332.294L420.177 321.167C411.947 316.229 401.257 319.263 396.848 327.788L394.76 331.824C393.186 334.867 390.046 336.778 386.62 336.778C383.083 336.778 379.862 338.814 378.343 342.008L350.704 400.155L342.684 318.126C341.423 305.225 336.682 292.909 328.968 282.491L322.976 274.399C313.245 261.258 297.861 253.507 281.509 253.507H265.928C261.101 253.507 256.504 255.572 253.296 259.18C251.903 260.748 250.836 262.534 250.117 264.438L238.346 244.768C234.559 238.44 224.995 239.934 223.32 247.116C222.51 250.586 219.553 253.136 216.001 253.427L142.597 259.44C140.1 259.644 137.628 258.825 135.748 257.17C130.584 252.626 122.443 255.126 120.719 261.785Z" fill="url(#paint22_linear_695_54778)"/>
<path fill-rule="evenodd" clip-rule="evenodd" d="M120.719 261.785L120.244 263.623C119.057 268.209 114.919 271.412 110.182 271.412H68.4378C47.1385 271.412 27.0591 282.194 15.085 299.809C5.49556 313.916 1.68195 331.401 4.68562 348.192L16.1535 412.299C16.9406 416.699 17.3364 421.16 17.3364 425.63V432.431C17.3364 443.786 20.8844 454.857 27.4845 464.097C32.0337 470.466 35.1573 477.74 36.6425 485.425L47.4617 541.403L107.712 533.729L98.902 398.45L118.228 541.403L341.894 533.729L331.262 498.547C334.232 501.116 337.403 503.473 340.757 505.593C364.87 505.593 386.463 490.662 394.976 468.101L437.681 354.921C438.237 353.448 438.522 351.887 438.522 350.313V348.06C438.522 346.286 439.179 344.575 440.365 343.256C443.387 339.899 442.596 334.618 438.722 332.294L420.177 321.167C411.947 316.229 401.257 319.263 396.848 327.788L394.76 331.824C393.186 334.867 390.046 336.778 386.62 336.778C383.083 336.778 379.862 338.814 378.343 342.008L350.704 400.155L342.684 318.126C341.423 305.225 336.682 292.909 328.968 282.491L322.976 274.399C313.245 261.258 297.861 253.507 281.509 253.507H265.928C261.101 253.507 256.504 255.572 253.296 259.18C251.903 260.748 250.836 262.534 250.117 264.438L238.346 244.768C234.559 238.44 224.995 239.934 223.32 247.116C222.51 250.586 219.553 253.136 216.001 253.427L142.597 259.44C140.1 259.644 137.628 258.825 135.748 257.17C130.584 252.626 122.443 255.126 120.719 261.785Z" fill="url(#paint23_linear_695_54778)"/>
<g style="mix-blend-mode:color-burn">
<path d="M343.066 481.108L349.325 414.757C350.237 405.097 352.834 395.672 357 386.908L378.342 342.008C379.861 338.814 383.082 336.778 386.619 336.778C390.045 336.778 393.185 334.867 394.759 331.824L396.847 327.788C401.256 319.263 411.946 316.229 420.176 321.167L438.721 332.294C442.595 334.618 443.386 339.899 440.364 343.256C439.178 344.575 438.521 346.286 438.521 348.06V350.313C438.521 351.887 438.236 353.448 437.68 354.921L386.292 491.112C383.004 499.826 374.664 505.593 365.35 505.593C352.158 505.593 341.827 494.242 343.066 481.108Z" fill="url(#paint24_linear_695_54778)"/>
</g>
<g style="mix-blend-mode:color-burn">
<path d="M343.066 481.108L349.325 414.757C350.237 405.097 352.834 395.672 357 386.908L378.342 342.008C379.861 338.814 383.082 336.778 386.619 336.778C390.045 336.778 393.185 334.867 394.759 331.824L396.847 327.788C401.256 319.263 411.946 316.229 420.176 321.167L438.721 332.294C442.595 334.618 443.386 339.899 440.364 343.256C439.178 344.575 438.521 346.286 438.521 348.06V350.313C438.521 351.887 438.236 353.448 437.68 354.921L386.292 491.112C383.004 499.826 374.664 505.593 365.35 505.593C352.158 505.593 341.827 494.242 343.066 481.108Z" fill="url(#paint25_linear_695_54778)"/>
</g>
<g style="mix-blend-mode:color-burn">
<path d="M30.4102 283.632L38.7792 289.497C58.8059 303.53 74.7998 322.573 85.1633 344.722L87.7352 350.219C94.7159 365.138 98.3341 381.409 98.3341 397.881V397.881" stroke="#919191" stroke-width="0.747405"/>
</g>
<g style="mix-blend-mode:color-burn">
<path d="M310.631 262.886V262.886C300.328 279.371 293.646 297.857 291.029 317.119L287.895 340.188" stroke="#919191" stroke-width="0.747405"/>
</g>
<g style="mix-blend-mode:color-burn">
<path d="M247.822 266.012L260.61 279.395C276.08 295.584 285.685 316.485 287.895 338.768V338.768L295.852 435.964L314.609 501.046" stroke="#919191" stroke-width="0.747405"/>
</g>
<g style="mix-blend-mode:screen">
<ellipse cx="298.642" cy="290.409" rx="98.5206" ry="69.9134" fill="#3656FF"/>
</g>
<g style="mix-blend-mode:soft-light" filter="url(#filter4_f_695_54778)">
<ellipse cx="106.86" cy="283.632" rx="67.924" ry="66.503" fill="#EE88FF"/>
</g>
<g style="mix-blend-mode:soft-light">
<rect x="7.97852" y="-11.9253" width="800.64" height="870.599" fill="#003EDC"/>
</g>
<g style="mix-blend-mode:soft-light">
<rect x="7.97852" y="-5.44873" width="801.936" height="864.121" fill="#FF7E36"/>
</g>
<g style="mix-blend-mode:color-burn" opacity="0.5">
<rect x="7.97852" y="-5.44873" width="801.936" height="864.121" fill="#A2B0FF"/>
</g>
</g>
<defs>
<filter id="filter0_f_695_54778" x="51.7283" y="111.695" width="250.088" height="256.909" filterUnits="userSpaceOnUse" color-interpolation-filters="sRGB">
<feFlood flood-opacity="0" result="BackgroundImageFix"/>
<feBlend mode="normal" in="SourceGraphic" in2="BackgroundImageFix" result="shape"/>
<feGaussianBlur stdDeviation="37.3702" result="effect1_foregroundBlur_695_54778"/>
</filter>
<filter id="filter1_f_695_54778" x="85.7427" y="139.866" width="201.1" height="75.3587" filterUnits="userSpaceOnUse" color-interpolation-filters="sRGB">
<feFlood flood-opacity="0" result="BackgroundImageFix"/>
<feBlend mode="normal" in="SourceGraphic" in2="BackgroundImageFix" result="shape"/>
<feGaussianBlur stdDeviation="3.73702" result="effect1_foregroundBlur_695_54778"/>
</filter>
<filter id="filter2_f_695_54778" x="22.74" y="-41.7732" width="374.569" height="282.487" filterUnits="userSpaceOnUse" color-interpolation-filters="sRGB">
<feFlood flood-opacity="0" result="BackgroundImageFix"/>
<feBlend mode="normal" in="SourceGraphic" in2="BackgroundImageFix" result="shape"/>
<feGaussianBlur stdDeviation="37.3702" result="effect1_foregroundBlur_695_54778"/>
</filter>
<filter id="filter3_f_695_54778" x="-58.5413" y="-19.0374" width="250.088" height="256.909" filterUnits="userSpaceOnUse" color-interpolation-filters="sRGB">
<feFlood flood-opacity="0" result="BackgroundImageFix"/>
<feBlend mode="normal" in="SourceGraphic" in2="BackgroundImageFix" result="shape"/>
<feGaussianBlur stdDeviation="37.3702" result="effect1_foregroundBlur_695_54778"/>
</filter>
<filter id="filter4_f_695_54778" x="-35.8049" y="142.389" width="285.329" height="282.487" filterUnits="userSpaceOnUse" color-interpolation-filters="sRGB">
<feFlood flood-opacity="0" result="BackgroundImageFix"/>
<feBlend mode="normal" in="SourceGraphic" in2="BackgroundImageFix" result="shape"/>
<feGaussianBlur stdDeviation="37.3702" result="effect1_foregroundBlur_695_54778"/>
</filter>
<linearGradient id="paint0_linear_695_54778" x1="10.8004" y1="22.7358" x2="120.786" y2="131.585" gradientUnits="userSpaceOnUse">
<stop stop-color="#EECD23"/>
<stop offset="1" stop-color="#E78124" stop-opacity="0.38"/>
</linearGradient>
<linearGradient id="paint1_linear_695_54778" x1="10.8004" y1="22.7358" x2="120.786" y2="131.585" gradientUnits="userSpaceOnUse">
<stop stop-color="#EECD23"/>
<stop offset="1" stop-color="#A8E724" stop-opacity="0.38"/>
</linearGradient>
<linearGradient id="paint2_linear_695_54778" x1="16.2002" y1="61.1027" x2="92.366" y2="89.2385" gradientUnits="userSpaceOnUse">
<stop stop-color="#FDE2B7"/>
<stop offset="1" stop-color="#EDBB6B"/>
</linearGradient>
<linearGradient id="paint3_linear_695_54778" x1="240.718" y1="11.9364" x2="343.451" y2="98.3895" gradientUnits="userSpaceOnUse">
<stop stop-color="#EECD23"/>
<stop offset="1" stop-color="#FBB778" stop-opacity="0"/>
</linearGradient>
<linearGradient id="paint4_linear_695_54778" x1="240.718" y1="11.9364" x2="343.451" y2="98.3895" gradientUnits="userSpaceOnUse">
<stop stop-color="#EECD23"/>
<stop offset="1" stop-color="#FBB778" stop-opacity="0"/>
</linearGradient>
<linearGradient id="paint5_linear_695_54778" x1="262.176" y1="6.53662" x2="262.176" y2="104.302" gradientUnits="userSpaceOnUse">
<stop stop-color="#FDE2B7"/>
<stop offset="1" stop-color="#EDBB6B"/>
</linearGradient>
<linearGradient id="paint6_linear_695_54778" x1="257.628" y1="190.415" x2="372.8" y2="514.092" gradientUnits="userSpaceOnUse">
<stop stop-color="#CDB952"/>
<stop offset="1" stop-color="#FCFCFC"/>
</linearGradient>
<linearGradient id="paint7_linear_695_54778" x1="59.1143" y1="121.922" x2="181.155" y2="303.055" gradientUnits="userSpaceOnUse">
<stop stop-color="#EECD23"/>
<stop offset="1" stop-color="#FBB778"/>
</linearGradient>
<linearGradient id="paint8_linear_695_54778" x1="509.134" y1="279.067" x2="362.751" y2="438.263" gradientUnits="userSpaceOnUse">
<stop stop-color="#EECD23"/>
<stop offset="1" stop-color="#FBB778"/>
</linearGradient>
<linearGradient id="paint9_linear_695_54778" x1="174.783" y1="32.3989" x2="239.58" y2="201.214" gradientUnits="userSpaceOnUse">
<stop stop-color="#EECD23"/>
<stop offset="1" stop-color="#FBB778"/>
</linearGradient>
<linearGradient id="paint10_linear_695_54778" x1="114.816" y1="55.7034" x2="239.58" y2="201.214" gradientUnits="userSpaceOnUse">
<stop stop-color="#FA7B05"/>
<stop offset="1" stop-color="#FBB778"/>
</linearGradient>
<linearGradient id="paint11_linear_695_54778" x1="298.694" y1="153.468" x2="125.9" y2="32.3989" gradientUnits="userSpaceOnUse">
<stop stop-color="#FFDAB8"/>
<stop offset="1" stop-color="#FBB778" stop-opacity="0.21"/>
</linearGradient>
<linearGradient id="paint12_linear_695_54778" x1="179.272" y1="32.2691" x2="196.601" y2="176.285" gradientUnits="userSpaceOnUse">
<stop stop-color="#333B65" stop-opacity="0.58"/>
<stop offset="1" stop-color="#FBB778" stop-opacity="0.21"/>
</linearGradient>
<radialGradient id="paint13_radial_695_54778" cx="0" cy="0" r="1" gradientUnits="userSpaceOnUse" gradientTransform="translate(106.86 131.301) rotate(90) scale(36.3777 42.3459)">
<stop stop-color="#FF0505"/>
<stop offset="1" stop-color="#E9724D" stop-opacity="0"/>
</radialGradient>
<radialGradient id="paint14_radial_695_54778" cx="0" cy="0" r="1" gradientUnits="userSpaceOnUse" gradientTransform="translate(251.801 131.301) rotate(90) scale(36.3777 42.3459)">
<stop stop-color="#FF6868"/>
<stop offset="1" stop-color="#E9724D" stop-opacity="0"/>
</radialGradient>
<linearGradient id="paint15_linear_695_54778" x1="202.066" y1="143.805" x2="202.066" y2="208.035" gradientUnits="userSpaceOnUse">
<stop stop-color="#FFCA99"/>
<stop offset="0.453125" stop-color="#FFE2C7"/>
<stop offset="1" stop-color="#FFE2C7"/>
</linearGradient>
<linearGradient id="paint16_linear_695_54778" x1="169.843" y1="104.943" x2="131.796" y2="109.496" gradientUnits="userSpaceOnUse">
<stop stop-color="#8D2200" stop-opacity="0.72"/>
<stop offset="1" stop-color="#6C1A00"/>
</linearGradient>
<linearGradient id="paint17_linear_695_54778" x1="246.498" y1="105.603" x2="218.826" y2="106.519" gradientUnits="userSpaceOnUse">
<stop stop-color="#6C1A00"/>
<stop offset="1" stop-color="#8D2200" stop-opacity="0.72"/>
</linearGradient>
<radialGradient id="paint18_radial_695_54778" cx="0" cy="0" r="1" gradientUnits="userSpaceOnUse" gradientTransform="translate(195.428 175.792) rotate(80.0791) scale(14.2051 53.5803)">
<stop offset="0.302083" stop-color="#E9ABCC"/>
<stop offset="1" stop-color="#D13982"/>
</radialGradient>
<linearGradient id="paint19_linear_695_54778" x1="145.836" y1="126.658" x2="149.651" y2="141.159" gradientUnits="userSpaceOnUse">
<stop stop-color="#004381"/>
<stop offset="1" stop-color="#AFF5FF"/>
</linearGradient>
<linearGradient id="paint20_linear_695_54778" x1="241.251" y1="127.098" x2="244.453" y2="140.492" gradientUnits="userSpaceOnUse">
<stop stop-color="#004381"/>
<stop offset="1" stop-color="#AFF5FF"/>
</linearGradient>
<radialGradient id="paint21_radial_695_54778" cx="0" cy="0" r="1" gradientUnits="userSpaceOnUse" gradientTransform="translate(213.482 165.642) rotate(85.4655) scale(9.49025 16.6232)">
<stop offset="0.302083" stop-color="#BE805D"/>
<stop offset="1" stop-color="#8F3C00"/>
</radialGradient>
<linearGradient id="paint22_linear_695_54778" x1="364.914" y1="508.629" x2="298.001" y2="279.277" gradientUnits="userSpaceOnUse">
<stop stop-color="#C949C4"/>
<stop offset="1" stop-color="#FFFBFF" stop-opacity="0.18"/>
</linearGradient>
<linearGradient id="paint23_linear_695_54778" x1="31.0744" y1="259.945" x2="442.582" y2="373.919" gradientUnits="userSpaceOnUse">
<stop stop-color="#C96849"/>
<stop offset="1" stop-color="#E0E5FF" stop-opacity="0.18"/>
</linearGradient>
<linearGradient id="paint24_linear_695_54778" x1="348.145" y1="426.017" x2="384.807" y2="463.816" gradientUnits="userSpaceOnUse">
<stop stop-color="#B7B7B7"/>
<stop offset="1" stop-color="#D9D9D9" stop-opacity="0"/>
</linearGradient>
<linearGradient id="paint25_linear_695_54778" x1="372.871" y1="353.546" x2="384.807" y2="463.816" gradientUnits="userSpaceOnUse">
<stop stop-color="#D2D2D2"/>
<stop offset="1" stop-color="#D9D9D9" stop-opacity="0"/>
</linearGradient>
</defs>
</svg>
