<svg width="525" height="562" viewBox="0 0 525 562" fill="none" xmlns="http://www.w3.org/2000/svg">
<path d="M160.513 243.954L136.428 210.641L264.244 223.138L258.585 240.987C257.441 244.594 256.859 248.355 256.859 252.138V275.386C256.859 282.924 262.97 289.034 270.507 289.034C272.736 289.034 274.931 288.489 276.9 287.445L286.277 282.474C293.631 278.575 301.828 276.537 310.152 276.537H318.783C334.841 276.537 349.213 286.497 354.852 301.532L370.935 362.324C371.384 364.02 371.686 365.75 371.838 367.498L379.471 455.173L419.612 379.642L430.877 359.191C435.058 351.602 444.027 348.036 452.277 350.682C461.936 353.782 467.168 364.209 463.878 373.805L446.879 423.383L421.229 485.371C420.153 487.971 418.825 490.458 417.262 492.797L411.426 501.535C394.632 526.675 356.5 522.545 345.478 494.392L360.532 540.69L149.494 557.164V547.665C149.494 503.358 145.117 459.16 136.428 415.714L135.505 412.851C133.018 405.14 121.526 407.673 122.51 415.714L136.428 516.263L86.4378 524.784L70.8158 476.782L55.7619 408.898L44.3349 361.249C41.977 351.417 42.776 341.092 46.6183 331.74C52.3743 317.73 64.3906 307.248 79.0521 303.447L80.204 303.148C84.3431 302.075 88.6017 301.532 92.8776 301.532H147.413C152.271 301.532 157.003 299.983 160.92 297.11C167.702 292.137 171.202 283.839 170.031 275.511L168.319 263.338C167.334 256.337 164.655 249.683 160.513 243.954Z" fill="#3D3AA9"/>
<path d="M154.919 283.805L155.394 281.969C157.117 275.314 165.253 272.815 170.414 277.357C172.293 279.01 174.764 279.829 177.259 279.625L250.621 273.616C254.17 273.325 257.126 270.776 257.935 267.308C259.61 260.13 269.168 258.637 272.952 264.961L303.661 316.278C305.025 318.557 306.104 320.995 306.872 323.538L376.44 553.755L152.904 561.424L133.59 418.554L142.395 553.755L82.1791 561.424L71.3662 505.479C69.8818 497.799 66.76 490.529 62.2134 484.163C55.6172 474.929 52.0713 463.864 52.0713 452.515V445.718C52.0713 441.251 51.6757 436.793 50.8891 432.396L39.4278 368.325C36.4259 351.544 40.2373 334.069 49.8212 319.97C61.7883 302.366 81.8561 291.59 103.143 291.59H144.863C149.597 291.59 153.733 288.389 154.919 283.805Z" fill="#3D3AA9"/>
<path d="M300.517 273.697H316.089C332.431 273.697 347.806 281.443 357.531 294.576L363.52 302.664C371.23 313.075 375.968 325.384 377.228 338.278L385.243 420.259L412.867 362.146C414.384 358.953 417.604 356.919 421.138 356.919C424.562 356.919 427.7 355.009 429.273 351.968L431.36 347.934C435.767 339.414 446.451 336.382 454.676 341.317L473.211 352.438C477.082 354.76 477.873 360.038 474.853 363.393C473.667 364.711 473.01 366.421 473.01 368.194V370.446C473.01 372.019 472.726 373.579 472.17 375.051L429.49 488.166C420.982 510.713 399.401 525.636 375.302 525.636C359.354 515.554 347.532 500.108 341.966 482.081L284.378 295.571C282.635 289.926 283.968 283.781 287.892 279.366C291.098 275.76 295.692 273.697 300.517 273.697Z" fill="#3D3AA9"/>
<path d="M102.743 84.4257L136.622 90.1525L106.747 190.452L89.2215 168.795L72.7792 154.206L36.0762 119.974C35.0647 119.03 34.1522 117.986 33.353 116.857L28.0267 109.334C24.1851 103.907 25.6892 96.3683 31.3189 92.8316C32.2671 92.2359 33.2967 91.7809 34.3755 91.4807L49.838 87.1779C67.0569 82.3864 85.1199 81.4467 102.743 84.4257Z" fill="#3D3AA9"/>
<path d="M142.647 80.9961L143.264 80.4678C153.824 71.4278 166.236 64.8118 179.627 61.0853L194.417 56.9699C203.782 54.3637 213.497 53.2336 223.21 53.6202C246.573 54.5502 268.74 64.1968 285.343 80.6591L287.626 82.9222L326.707 130.128L328.884 133.099C336.902 144.035 335.644 159.205 325.934 168.671L301.268 192.34L284.389 211.261C275.308 221.44 263.494 228.796 250.352 232.453C239.832 235.381 228.78 235.848 218.05 233.821L123.888 216.026C121.771 215.626 119.714 214.957 117.767 214.035C107.668 209.254 101.906 198.41 103.596 187.366L111.219 137.541C114.585 115.537 125.738 95.4726 142.647 80.9961Z" fill="#3D3AA9"/>
<path d="M233.825 39.6289L227.598 51.569L221.795 61.4391L300.116 104.507L288.015 43.0119L280.7 16.7241C280.2 14.9248 279.401 13.222 278.338 11.6863L275.583 7.70495C273.175 4.22535 268.828 2.65294 264.751 3.78735C262.943 4.29045 261.315 5.29532 260.054 6.68562L245.9 22.2978C241.152 27.5357 237.094 33.3601 233.825 39.6289Z" fill="#3D3AA9"/>
<path d="M483.442 338.805L490.362 329.672C496.393 321.711 501.198 312.892 504.615 303.509C507.478 297.949 505.929 291.137 500.944 287.362L497.987 285.122L483.205 272.408C480.062 269.705 476.491 267.544 472.639 266.014L461.637 261.645C459.876 260.945 457.916 260.944 456.154 261.639C453.397 262.728 451.548 265.349 451.448 268.312L451.244 274.335C451.283 273.113 450.136 272.197 448.953 272.504L447.96 272.762C446.815 273.059 446.016 274.093 446.016 275.275L446.016 288.338L447.045 305.47C447.257 308.998 447.859 312.491 448.84 315.887L451.001 323.369C451.795 326.121 451.89 329.027 451.277 331.825L450.968 333.233C450.755 334.204 450.379 335.131 449.855 335.976C447.63 339.566 448.279 344.234 451.401 347.08L458.914 353.932C464.29 358.835 472.852 357.304 476.197 350.844L483.442 338.805Z" fill="#3D3AA9"/>
<mask id="mask0_695_55092" style="mask-type:alpha" maskUnits="userSpaceOnUse" x="5" y="2" width="482" height="559">
<path d="M140.627 243.356L116.542 210.043L244.358 222.54L238.699 240.389C237.555 243.996 236.973 247.757 236.973 251.541V274.788C236.973 282.326 243.084 288.437 250.622 288.437C252.85 288.437 255.045 287.891 257.014 286.847L266.391 281.876C273.745 277.977 281.943 275.939 290.267 275.939H298.898C314.955 275.939 329.328 285.899 334.966 300.934L351.05 361.726C351.498 363.422 351.8 365.153 351.952 366.9L359.585 454.575L399.726 379.044L410.991 358.593C415.172 351.004 424.141 347.438 432.391 350.085C442.051 353.184 447.282 363.611 443.992 373.207L426.993 422.785L401.343 484.773C400.268 487.373 398.939 489.86 397.376 492.199L391.54 500.937C374.746 526.077 336.614 521.947 325.593 493.794L340.646 540.092L129.608 556.566V547.067C129.608 502.76 125.231 458.562 116.542 415.117L115.619 412.253C113.133 404.542 101.64 407.075 102.625 415.117L116.542 515.665L66.552 524.186L50.9301 476.184L35.8762 408.3L24.4492 360.651C22.0913 350.819 22.8902 340.494 26.7326 331.142C32.4886 317.132 44.5048 306.65 59.1663 302.849L60.3182 302.55C64.4573 301.477 68.716 300.934 72.9919 300.934H127.527C132.385 300.934 137.117 299.385 141.034 296.512C147.816 291.539 151.316 283.241 150.145 274.913L148.433 262.74C147.449 255.739 144.769 249.085 140.627 243.356Z" fill="#FFDAB8"/>
<path d="M289.804 333.598L311.726 443.9C315.096 460.854 319.731 477.533 325.593 493.794V493.794M325.593 493.794V493.794C336.614 521.947 374.746 526.077 391.54 500.937L397.376 492.199C398.939 489.86 400.268 487.373 401.343 484.773L426.993 422.785L443.992 373.207C447.282 363.611 442.051 353.184 432.391 350.085V350.085C424.141 347.438 415.172 351.004 410.991 358.593L399.726 379.044L352.909 467.138C352.179 468.51 352.266 470.173 353.133 471.462V471.462C355.56 475.07 361.196 473.079 360.819 468.748L351.952 366.9C351.8 365.153 351.498 363.422 351.05 361.726L334.966 300.934V300.934C329.328 285.899 314.955 275.939 298.898 275.939H290.267C281.943 275.939 273.745 277.977 266.391 281.876L257.014 286.847C255.045 287.891 252.85 288.437 250.622 288.437V288.437C243.084 288.437 236.973 282.326 236.973 274.788V251.541C236.973 247.757 237.555 243.996 238.699 240.389L244.358 222.54L116.542 210.043L140.627 243.356C144.769 249.085 147.449 255.739 148.433 262.74L150.145 274.913C151.316 283.241 147.816 291.539 141.034 296.512V296.512C137.117 299.385 132.385 300.934 127.527 300.934L72.9919 300.934C68.716 300.934 64.4573 301.477 60.3182 302.55L59.1663 302.849C44.5048 306.65 32.4886 317.132 26.7326 331.142V331.142C22.8902 340.494 22.0913 350.819 24.4492 360.651L35.8762 408.3L50.9301 476.184L66.552 524.186L116.542 515.665L102.625 415.117V415.117C101.64 407.075 113.133 404.542 115.619 412.253L116.542 415.117V415.117C125.231 458.562 129.608 502.76 129.608 547.067V556.566L340.646 540.092L325.593 493.794Z" stroke="#D49357" stroke-width="0.746971"/>
<path d="M135.032 283.208L135.507 281.372C137.23 274.717 145.366 272.218 150.527 276.759C152.406 278.413 154.877 279.232 157.372 279.028L230.734 273.018C234.283 272.728 237.239 270.179 238.048 266.711C239.723 259.533 249.281 258.04 253.066 264.364L283.775 315.68C285.139 317.96 286.217 320.398 286.985 322.941L356.553 553.158L133.017 560.827L113.703 417.957L122.508 553.158L62.2924 560.827L51.4795 504.882C49.9951 497.202 46.8733 489.931 42.3267 483.566C35.7305 474.332 32.1846 463.267 32.1846 451.918V445.121C32.1846 440.654 31.789 436.196 31.0023 431.798L19.5411 367.728C16.5392 350.947 20.3506 333.472 29.9345 319.373C41.9016 301.769 61.9694 290.993 83.2563 290.993H124.976C129.71 290.993 133.846 287.791 135.032 283.208Z" fill="#FFDAB8"/>
<path d="M280.631 273.099H296.203C312.545 273.099 327.92 280.845 337.646 293.978L343.635 302.066C351.344 312.477 356.082 324.787 357.343 337.68L365.358 419.661L392.981 361.548C394.498 358.355 397.718 356.321 401.253 356.321C404.677 356.321 407.815 354.411 409.388 351.37L411.474 347.336C415.881 338.816 426.565 335.784 434.79 340.719L453.325 351.84C457.196 354.162 457.987 359.44 454.967 362.795C453.781 364.113 453.125 365.823 453.125 367.596V369.848C453.125 371.421 452.84 372.981 452.285 374.453L409.604 487.568C401.096 510.115 379.515 525.038 355.416 525.038C339.469 514.956 327.646 499.51 322.08 481.483L264.492 294.973C262.749 289.328 264.082 283.183 268.007 278.768C271.212 275.162 275.806 273.099 280.631 273.099Z" fill="#FFDAB8"/>
<path d="M82.8553 83.8287L116.735 89.5556L86.8588 189.855L69.3338 168.198L52.8915 153.609L16.1885 119.377C15.177 118.433 14.2646 117.389 13.4653 116.26L8.13897 108.737C4.2974 103.311 5.80149 95.7713 11.4312 92.2347C12.3794 91.639 13.409 91.184 14.4878 90.8838L29.9503 86.581C47.1692 81.7894 65.2322 80.8498 82.8553 83.8287Z" fill="#FFDAB8" stroke="#D49357" stroke-width="0.746971"/>
<path d="M81.5742 200.715L91.2083 137.747C94.6542 115.225 106.069 94.6882 123.377 79.8709C133.936 70.8309 146.348 64.2149 159.74 60.4884L174.529 56.3729C183.895 53.7668 193.609 52.6367 203.323 53.0233C226.685 53.9532 248.852 63.5998 265.456 80.0622L267.738 82.3252L306.819 129.531L308.997 132.502C317.014 143.438 315.756 158.608 306.046 168.074L281.381 191.743L265.951 209.039C255.924 220.279 242.878 228.402 228.366 232.44C219.181 234.996 209.606 235.86 200.111 234.989L101.289 225.921C92.1998 225.088 84.5726 218.722 82.1258 209.93C81.2916 206.932 81.1036 203.791 81.5742 200.715Z" fill="#FFDAB8" stroke="#D49357" stroke-width="0.746971"/>
<g style="mix-blend-mode:color-burn">
<path d="M213.94 39.031L207.713 50.9711L201.91 60.8412L280.231 103.909L268.131 42.414L260.815 16.1262C260.315 14.3269 259.516 12.6241 258.454 11.0884L255.699 7.10705C253.291 3.62745 248.943 2.05504 244.866 3.18945C243.058 3.69254 241.43 4.69742 240.169 6.08772L226.016 21.6999C221.267 26.9378 217.209 32.7622 213.94 39.031Z" fill="#D9D9D9"/>
</g>
<path d="M463.556 338.208L470.477 329.074C476.508 321.114 481.312 312.295 484.73 302.911C487.592 297.352 486.043 290.539 481.058 286.764L478.101 284.525L463.319 271.81C460.176 269.107 456.605 266.946 452.753 265.416L441.751 261.047C439.991 260.348 438.03 260.346 436.268 261.042C433.511 262.13 431.662 264.751 431.562 267.714L431.358 273.737C431.397 272.516 430.251 271.599 429.067 271.906L428.075 272.164C426.93 272.461 426.13 273.495 426.13 274.678L426.13 287.74L427.159 304.872C427.371 308.4 427.973 311.893 428.954 315.289L431.115 322.772C431.91 325.523 432.005 328.43 431.391 331.227L431.082 332.635C430.869 333.606 430.493 334.533 429.97 335.378C427.744 338.969 428.394 343.636 431.515 346.483L439.028 353.335C444.404 358.237 452.967 356.707 456.312 350.246L463.556 338.208Z" fill="#D9D9D9"/>
<path d="M431.104 281.243L431.562 267.714C431.662 264.751 433.511 262.13 436.268 261.042V261.042C438.03 260.346 439.991 260.348 441.751 261.047L452.753 265.416C456.605 266.946 460.176 269.107 463.319 271.81L478.101 284.525L481.058 286.764C486.043 290.539 487.592 297.352 484.73 302.911V302.911V302.911C481.312 312.295 476.508 321.114 470.477 329.074L463.556 338.208L456.312 350.246V350.246C452.967 356.707 444.404 358.237 439.028 353.335L431.515 346.483C428.394 343.636 427.744 338.969 429.97 335.378V335.378C430.493 334.533 430.869 333.606 431.082 332.635L431.391 331.227C432.005 328.43 431.91 325.523 431.115 322.772L428.954 315.289C427.973 311.893 427.371 308.4 427.159 304.872L426.13 287.74L426.13 274.678C426.13 273.495 426.93 272.461 428.075 272.164L429.067 271.906C430.252 271.599 431.399 272.517 431.358 273.741V273.741L431.104 281.243ZM431.104 281.243V281.243C431.747 276.64 436.205 273.583 440.731 274.642L453.605 277.655C456.168 278.255 458.587 279.355 460.723 280.893L470.884 288.209L471.83 288.763C476.738 291.635 480.12 296.535 481.065 302.142V302.142M431.104 281.243C431.104 281.243 430.058 284.223 431.104 285.53C432.411 287.164 436.462 285.53 436.462 285.53M475.171 295.712L461.445 289.838C453.904 286.612 445.727 285.141 437.534 285.537V285.537L436.681 285.536C434.709 285.532 432.887 286.592 431.916 288.309V288.309C431.179 289.614 431.009 291.164 431.448 292.598L432.169 294.953C432.505 296.049 433.399 296.883 434.516 297.142L440.812 298.599M479.574 313.931L474.099 308.572V308.572C467.281 301.376 457.715 297.431 447.805 297.732L445.698 297.796L443.5 297.796C442.831 297.796 442.169 297.946 441.566 298.237V298.237C440.075 298.954 439.103 300.438 439.041 302.091L439.011 302.911L439.126 310.242C439.136 310.9 439.345 311.539 439.726 312.076V312.076C440.291 312.874 441.184 313.376 442.159 313.444L454.739 314.328C455.496 314.381 456.256 314.327 456.997 314.168L461.348 313.236C462.534 312.982 463.382 311.933 463.382 310.721V310.721C463.382 309.704 462.783 308.783 461.854 308.37L458.559 306.905L458.353 306.812C454.791 305.193 450.661 305.428 447.306 307.441V307.441" stroke="#D49357" stroke-width="0.746971"/>
</mask>
<g mask="url(#mask0_695_55092)">
<path d="M463.556 338.208L470.477 329.074C476.508 321.114 481.312 312.295 484.73 302.911C487.592 297.352 486.043 290.539 481.058 286.764L478.101 284.525L463.319 271.81C460.176 269.107 456.605 266.946 452.753 265.416L441.751 261.047C439.991 260.348 438.03 260.346 436.268 261.042C433.511 262.13 431.662 264.751 431.562 267.714L431.358 273.741C431.399 272.517 430.252 271.599 429.067 271.906L428.075 272.164C426.93 272.461 426.13 273.495 426.13 274.678L426.13 287.74L427.159 304.872C427.371 308.4 427.973 311.893 428.954 315.289L431.115 322.772C431.91 325.523 432.005 328.43 431.391 331.227L431.082 332.635C430.869 333.606 430.493 334.533 429.97 335.378C427.744 338.969 428.394 343.636 431.515 346.483L439.028 353.335C444.404 358.237 452.967 356.707 456.312 350.246L463.556 338.208Z" fill="url(#paint0_linear_695_55092)"/>
<g style="mix-blend-mode:color-burn">
<path d="M463.556 338.208L470.477 329.074C476.508 321.114 481.312 312.295 484.73 302.911C487.592 297.352 486.043 290.539 481.058 286.764L478.101 284.525L463.319 271.81C460.176 269.107 456.605 266.946 452.753 265.416L441.751 261.047C439.991 260.348 438.03 260.346 436.268 261.042C433.511 262.13 431.662 264.751 431.562 267.714L431.358 273.741C431.399 272.517 430.252 271.599 429.067 271.906L428.075 272.164C426.93 272.461 426.13 273.495 426.13 274.678L426.13 287.74L427.159 304.872C427.371 308.4 427.973 311.893 428.954 315.289L431.115 322.772C431.91 325.523 432.005 328.43 431.391 331.227L431.082 332.635C430.869 333.606 430.493 334.533 429.97 335.378C427.744 338.969 428.394 343.636 431.515 346.483L439.028 353.335C444.404 358.237 452.967 356.707 456.312 350.246L463.556 338.208Z" fill="url(#paint1_linear_695_55092)"/>
<path d="M431.104 281.243L431.562 267.714C431.662 264.751 433.511 262.13 436.268 261.042V261.042C438.03 260.346 439.991 260.348 441.751 261.047L452.753 265.416C456.605 266.946 460.176 269.107 463.319 271.81L478.101 284.525L481.058 286.764C486.043 290.539 487.592 297.352 484.73 302.911V302.911V302.911C481.312 312.295 476.508 321.114 470.477 329.074L463.556 338.208L456.312 350.246V350.246C452.967 356.707 444.404 358.237 439.028 353.335L431.515 346.483C428.394 343.636 427.744 338.969 429.97 335.378V335.378C430.493 334.533 430.869 333.606 431.082 332.635L431.391 331.227C432.005 328.43 431.91 325.523 431.115 322.772L428.954 315.289C427.973 311.893 427.371 308.4 427.159 304.872L426.13 287.74L426.13 274.678C426.13 273.495 426.93 272.461 428.075 272.164L429.067 271.906C430.252 271.599 431.399 272.517 431.358 273.741V273.741L431.104 281.243ZM431.104 281.243V281.243C431.747 276.64 436.205 273.583 440.731 274.642L453.605 277.655C456.168 278.255 458.587 279.355 460.723 280.893L470.884 288.209L471.83 288.763C476.738 291.635 480.12 296.535 481.065 302.142V302.142M431.104 281.243C431.104 281.243 430.058 284.223 431.104 285.53C432.411 287.164 436.462 285.53 436.462 285.53M475.171 295.712L461.445 289.838C453.904 286.612 445.727 285.141 437.534 285.537V285.537L436.681 285.536C434.709 285.532 432.887 286.592 431.916 288.309V288.309C431.179 289.614 431.009 291.164 431.448 292.598L431.594 293.073C432.285 295.333 434.129 297.052 436.431 297.585L440.812 298.599M479.574 313.931L474.099 308.572V308.572C467.281 301.376 457.715 297.431 447.805 297.732L445.698 297.796L443.5 297.796C442.83 297.796 442.169 297.946 441.566 298.237V298.237C440.075 298.954 439.103 300.438 439.041 302.091L439.011 302.911L439.126 310.242C439.136 310.9 439.345 311.539 439.726 312.076V312.076C440.291 312.874 441.184 313.376 442.158 313.444L454.739 314.328C455.496 314.381 456.256 314.327 456.997 314.168L461.348 313.236C462.534 312.982 463.382 311.933 463.382 310.721V310.721C463.382 309.704 462.783 308.783 461.854 308.37L458.559 306.905L458.353 306.812C454.791 305.193 450.661 305.428 447.306 307.441V307.441" stroke="#D49357" stroke-width="0.74217"/>
</g>
<g style="mix-blend-mode:color-burn">
<path d="M463.556 338.208L470.477 329.074C476.508 321.114 481.312 312.295 484.73 302.911C487.592 297.352 486.043 290.539 481.058 286.764L478.101 284.525L463.319 271.81C460.176 269.107 456.605 266.946 452.753 265.416L441.751 261.047C439.991 260.348 438.03 260.346 436.268 261.042C433.511 262.13 431.662 264.751 431.562 267.714L431.358 273.741C431.399 272.517 430.252 271.599 429.067 271.906L428.075 272.164C426.93 272.461 426.13 273.495 426.13 274.678L426.13 287.74L427.159 304.872C427.371 308.4 427.973 311.893 428.954 315.289L431.115 322.772C431.91 325.523 432.005 328.43 431.391 331.227L431.082 332.635C430.869 333.606 430.493 334.533 429.97 335.378C427.744 338.969 428.394 343.636 431.515 346.483L439.028 353.335C444.404 358.237 452.967 356.707 456.312 350.246L463.556 338.208Z" fill="url(#paint2_linear_695_55092)"/>
<path d="M431.104 281.243L431.562 267.714C431.662 264.751 433.511 262.13 436.268 261.042V261.042C438.03 260.346 439.991 260.348 441.751 261.047L452.753 265.416C456.605 266.946 460.176 269.107 463.319 271.81L478.101 284.525L481.058 286.764C486.043 290.539 487.592 297.352 484.73 302.911V302.911V302.911C481.312 312.295 476.508 321.114 470.477 329.074L463.556 338.208L456.312 350.246V350.246C452.967 356.707 444.404 358.237 439.028 353.335L431.515 346.483C428.394 343.636 427.744 338.969 429.97 335.378V335.378C430.493 334.533 430.869 333.606 431.082 332.635L431.391 331.227C432.005 328.43 431.91 325.523 431.115 322.772L428.954 315.289C427.973 311.893 427.371 308.4 427.159 304.872L426.13 287.74L426.13 274.678C426.13 273.495 426.93 272.461 428.075 272.164L429.067 271.906C430.252 271.599 431.399 272.517 431.358 273.741V273.741L431.104 281.243ZM431.104 281.243V281.243C431.747 276.64 436.205 273.583 440.731 274.642L453.605 277.655C456.168 278.255 458.587 279.355 460.723 280.893L470.884 288.209L471.83 288.763C476.738 291.635 480.12 296.535 481.065 302.142V302.142M431.104 281.243C431.104 281.243 430.058 284.223 431.104 285.53C432.411 287.164 436.462 285.53 436.462 285.53M475.171 295.712L461.445 289.838C453.904 286.612 445.727 285.141 437.534 285.537V285.537L436.681 285.536C434.709 285.532 432.887 286.592 431.916 288.309V288.309C431.179 289.614 431.009 291.164 431.448 292.598L431.594 293.073C432.285 295.333 434.129 297.052 436.431 297.585L440.812 298.599M479.574 313.931L474.099 308.572V308.572C467.281 301.376 457.715 297.431 447.805 297.732L445.698 297.796L443.5 297.796C442.83 297.796 442.169 297.946 441.566 298.237V298.237C440.075 298.954 439.103 300.438 439.041 302.091L439.011 302.911L439.126 310.242C439.136 310.9 439.345 311.539 439.726 312.076V312.076C440.291 312.874 441.184 313.376 442.158 313.444L454.739 314.328C455.496 314.381 456.256 314.327 456.997 314.168L461.348 313.236C462.534 312.982 463.382 311.933 463.382 310.721V310.721C463.382 309.704 462.783 308.783 461.854 308.37L458.559 306.905L458.353 306.812C454.791 305.193 450.661 305.428 447.306 307.441V307.441" stroke="#D49357" stroke-width="0.74217"/>
</g>
<path d="M140.627 243.356L116.542 210.042L244.074 222.54L238.585 240.544C237.517 244.049 236.973 247.693 236.973 251.357V274.788C236.973 282.326 243.084 288.436 250.622 288.436C252.85 288.436 255.045 287.89 257.014 286.846L266.391 281.876C273.745 277.977 281.943 275.939 290.267 275.939H298.898C314.955 275.939 329.328 285.899 334.966 300.934L351.05 361.726C351.498 363.421 351.8 365.152 351.952 366.899L359.585 454.574L399.726 379.043L411.384 357.879C415.382 350.622 423.81 347.021 431.817 349.15C441.927 351.837 447.638 362.533 444.247 372.429L426.993 422.785L401.343 484.773C400.268 487.372 398.939 489.859 397.376 492.199L391.54 500.936C374.746 526.076 336.614 521.947 325.593 493.794L340.646 540.092L129.608 556.566V547.066C129.608 502.76 125.231 458.562 116.542 415.116L115.619 412.253C113.133 404.542 101.64 407.074 102.625 415.116L116.542 515.665L66.552 524.186L50.9301 476.184L35.8762 408.299L24.4492 360.651C22.0913 350.819 22.8902 340.494 26.7326 331.142C32.4886 317.132 44.5048 306.65 59.1663 302.848L60.3182 302.55C64.4573 301.477 68.716 300.934 72.9919 300.934H127.527C132.385 300.934 137.117 299.385 141.034 296.512C147.816 291.539 151.316 283.241 150.145 274.913L148.433 262.74C147.449 255.739 144.769 249.085 140.627 243.356Z" fill="url(#paint3_linear_695_55092)"/>
<g style="mix-blend-mode:color-burn">
<path d="M140.627 243.356L116.542 210.042L244.358 222.54L238.699 240.388C237.555 243.995 236.973 247.756 236.973 251.54V274.788C236.973 282.326 243.084 288.436 250.622 288.436C252.85 288.436 255.045 287.89 257.014 286.846L266.391 281.876C273.745 277.977 281.943 275.939 290.267 275.939H298.898C314.955 275.939 329.328 285.899 334.966 300.934L351.05 361.726C351.498 363.421 351.8 365.152 351.952 366.899L359.585 454.574L399.726 379.043L418.188 345.527L419.976 341.261L453.2 355.193L422.706 428.68L401.433 484.223C400.299 487.186 398.836 490.013 397.074 492.651L391.54 500.936C374.746 526.076 336.614 521.947 325.593 493.794L340.646 540.092L129.608 556.566V547.066C129.608 502.76 125.231 458.562 116.542 415.116L115.619 412.253C113.133 404.542 101.64 407.074 102.625 415.116L116.542 515.665L66.552 524.186L50.9301 476.184L35.8762 408.299L24.4492 360.651C22.0913 350.819 22.8902 340.494 26.7326 331.142C32.4886 317.132 44.5048 306.65 59.1663 302.848L60.3182 302.55C64.4573 301.477 68.716 300.934 72.9919 300.934H127.527C132.385 300.934 137.117 299.385 141.034 296.512C147.816 291.539 151.316 283.241 150.145 274.913L148.433 262.74C147.449 255.739 144.769 249.085 140.627 243.356Z" fill="url(#paint4_linear_695_55092)"/>
<path d="M289.804 333.598L311.726 443.899C315.096 460.854 319.731 477.532 325.593 493.794V493.794M325.593 493.794V493.794C336.614 521.947 374.746 526.076 391.54 500.936L397.074 492.651C398.836 490.013 400.299 487.186 401.433 484.223L422.706 428.68L453.2 355.193L419.976 341.261L418.188 345.527L399.726 379.043L352.909 467.137C352.179 468.51 352.266 470.172 353.133 471.462V471.462C355.56 475.069 361.196 473.078 360.819 468.747L351.952 366.899C351.8 365.152 351.498 363.421 351.05 361.726L334.966 300.934V300.934C329.328 285.899 314.955 275.939 298.898 275.939H290.267C281.943 275.939 273.745 277.977 266.391 281.876L257.014 286.846C255.045 287.89 252.85 288.436 250.622 288.436V288.436C243.084 288.436 236.973 282.326 236.973 274.788V251.54C236.973 247.756 237.555 243.995 238.699 240.388L244.358 222.54L116.542 210.042L140.627 243.356C144.769 249.085 147.449 255.739 148.433 262.74L150.145 274.913C151.316 283.241 147.816 291.539 141.034 296.512V296.512C137.117 299.385 132.385 300.934 127.527 300.934H72.9919C68.716 300.934 64.4573 301.477 60.3182 302.55L59.1663 302.848C44.5048 306.65 32.4886 317.132 26.7326 331.142V331.142C22.8902 340.494 22.0913 350.819 24.4492 360.651L35.8762 408.299L50.9301 476.184L66.552 524.186L116.542 515.665L102.625 415.116V415.116C101.64 407.074 113.133 404.542 115.619 412.253L116.542 415.116V415.116C125.231 458.562 129.608 502.76 129.608 547.066V556.566L340.646 540.092L325.593 493.794Z" stroke="#D49357" stroke-width="0.74217"/>
</g>
<g style="mix-blend-mode:color-burn">
<path d="M140.627 243.356L116.542 210.042L244.358 222.54L238.699 240.388C237.555 243.995 236.973 247.756 236.973 251.54V274.788C236.973 282.326 243.084 288.436 250.622 288.436C252.85 288.436 255.045 287.89 257.014 286.846L266.391 281.876C273.745 277.977 281.943 275.939 290.267 275.939H298.898C314.955 275.939 329.328 285.899 334.966 300.934L351.05 361.726C351.498 363.421 351.8 365.152 351.952 366.899L359.585 454.574L399.726 379.043L418.188 345.527L419.976 341.261L453.2 355.193L422.706 428.68L401.433 484.223C400.299 487.186 398.836 490.013 397.074 492.651L391.54 500.936C374.746 526.076 336.614 521.947 325.593 493.794L340.646 540.092L129.608 556.566V547.066C129.608 502.76 125.231 458.562 116.542 415.116L115.619 412.253C113.133 404.542 101.64 407.074 102.625 415.116L116.542 515.665L66.552 524.186L50.9301 476.184L35.8762 408.299L24.4492 360.651C22.0913 350.819 22.8902 340.494 26.7326 331.142C32.4886 317.132 44.5048 306.65 59.1663 302.848L60.3182 302.55C64.4573 301.477 68.716 300.934 72.9919 300.934H127.527C132.385 300.934 137.117 299.385 141.034 296.512C147.816 291.539 151.316 283.241 150.145 274.913L148.433 262.74C147.449 255.739 144.769 249.085 140.627 243.356Z" fill="url(#paint5_linear_695_55092)"/>
<path d="M289.804 333.598L311.726 443.899C315.096 460.854 319.731 477.532 325.593 493.794V493.794M325.593 493.794V493.794C336.614 521.947 374.746 526.076 391.54 500.936L397.074 492.651C398.836 490.013 400.299 487.186 401.433 484.223L422.706 428.68L453.2 355.193L419.976 341.261L418.188 345.527L399.726 379.043L352.909 467.137C352.179 468.51 352.266 470.172 353.133 471.462V471.462C355.56 475.069 361.196 473.078 360.819 468.747L351.952 366.899C351.8 365.152 351.498 363.421 351.05 361.726L334.966 300.934V300.934C329.328 285.899 314.955 275.939 298.898 275.939H290.267C281.943 275.939 273.745 277.977 266.391 281.876L257.014 286.846C255.045 287.89 252.85 288.436 250.622 288.436V288.436C243.084 288.436 236.973 282.326 236.973 274.788V251.54C236.973 247.756 237.555 243.995 238.699 240.388L244.358 222.54L116.542 210.042L140.627 243.356C144.769 249.085 147.449 255.739 148.433 262.74L150.145 274.913C151.316 283.241 147.816 291.539 141.034 296.512V296.512C137.117 299.385 132.385 300.934 127.527 300.934H72.9919C68.716 300.934 64.4573 301.477 60.3182 302.55L59.1663 302.848C44.5048 306.65 32.4886 317.132 26.7326 331.142V331.142C22.8902 340.494 22.0913 350.819 24.4492 360.651L35.8762 408.299L50.9301 476.184L66.552 524.186L116.542 515.665L102.625 415.116V415.116C101.64 407.074 113.133 404.542 115.619 412.253L116.542 415.116V415.116C125.231 458.562 129.608 502.76 129.608 547.066V556.566L340.646 540.092L325.593 493.794Z" stroke="#D49357" stroke-width="0.74217"/>
</g>
<g style="mix-blend-mode:soft-light" filter="url(#filter0_f_695_55092)">
<ellipse cx="191.528" cy="259.748" rx="50.2743" ry="53.6828" fill="#88FFEA"/>
</g>
<path d="M82.8553 83.8282L116.735 89.5551L86.8588 189.855L69.3338 168.197L52.8915 153.609L16.1885 119.376C15.177 118.433 14.2645 117.389 13.4653 116.26L8.13897 108.736C4.2974 103.31 5.80149 95.7709 11.4312 92.2342C12.3794 91.6385 13.409 91.1835 14.4878 90.8833L29.9504 86.5805C47.1692 81.789 65.2322 80.8493 82.8553 83.8282Z" fill="#FBB778" stroke="#D49357" stroke-width="0.74217"/>
<path d="M82.8553 83.8282L116.735 89.5551L86.8588 189.855L69.3338 168.197L52.8915 153.609L16.1885 119.376C15.177 118.433 14.2645 117.389 13.4653 116.26L8.13897 108.736C4.2974 103.31 5.80149 95.7709 11.4312 92.2342C12.3794 91.6385 13.409 91.1835 14.4878 90.8833L29.9504 86.5805C47.1692 81.789 65.2322 80.8493 82.8553 83.8282Z" fill="url(#paint6_linear_695_55092)" stroke="#D49357" stroke-width="0.74217"/>
<g style="mix-blend-mode:color-burn">
<path d="M82.8553 83.8282L116.735 89.5551L86.8588 189.855L69.3338 168.197L52.8915 153.609L16.1885 119.376C15.177 118.433 14.2645 117.389 13.4653 116.26L8.13897 108.736C4.2974 103.31 5.80149 95.7709 11.4312 92.2342C12.3794 91.6385 13.409 91.1835 14.4878 90.8833L29.9504 86.5805C47.1692 81.789 65.2322 80.8493 82.8553 83.8282Z" fill="url(#paint7_linear_695_55092)"/>
<path d="M82.8553 83.8282L116.735 89.5551L86.8588 189.855L69.3338 168.197L52.8915 153.609L16.1885 119.376C15.177 118.433 14.2645 117.389 13.4653 116.26L8.13897 108.736C4.2974 103.31 5.80149 95.7709 11.4312 92.2342C12.3794 91.6385 13.409 91.1835 14.4878 90.8833L29.9504 86.5805C47.1692 81.789 65.2322 80.8493 82.8553 83.8282Z" stroke="#D49357" stroke-width="0.74217"/>
</g>
<path d="M81.083 115.795L101.242 123.938L93.0433 181.353L64.6749 153.573L32.0163 119.911L25.5839 112.573C22.0643 108.558 25.3398 102.316 30.6435 102.931C47.9571 104.939 64.9222 109.266 81.083 115.795Z" fill="url(#paint8_linear_695_55092)" stroke="#FDE2B7" stroke-width="0.746971"/>
<g style="mix-blend-mode:color-burn">
<path d="M213.94 39.031L207.713 50.9711L201.91 60.8412L280.231 103.909L268.131 42.414L260.815 16.1262C260.315 14.3269 259.516 12.6241 258.454 11.0884L255.699 7.10705C253.291 3.62745 248.943 2.05505 244.866 3.18946C243.058 3.69255 241.43 4.69742 240.169 6.08773L226.016 21.6999C221.267 26.9378 217.209 32.7622 213.94 39.031Z" fill="url(#paint9_linear_695_55092)"/>
<path d="M213.94 39.031L207.713 50.9711L201.91 60.8412L280.231 103.909L268.131 42.414L260.815 16.1262C260.315 14.3269 259.516 12.6241 258.454 11.0884L255.699 7.10705C253.291 3.62745 248.943 2.05505 244.866 3.18946C243.058 3.69255 241.43 4.69742 240.169 6.08773L226.016 21.6999C221.267 26.9378 217.209 32.7622 213.94 39.031Z" stroke="#D49357" stroke-width="0.746971"/>
</g>
<path d="M213.94 39.031L207.713 50.9711L201.91 60.8412L280.231 103.909L268.131 42.414L260.815 16.1262C260.315 14.3269 259.516 12.6241 258.454 11.0884L255.699 7.10705C253.291 3.62745 248.943 2.05505 244.866 3.18946C243.058 3.69255 241.43 4.69742 240.169 6.08773L226.016 21.6999C221.267 26.9378 217.209 32.7622 213.94 39.031Z" fill="url(#paint10_linear_695_55092)" stroke="#D49357" stroke-width="0.74217"/>
<g style="mix-blend-mode:color-burn">
<path d="M213.94 39.031L207.713 50.9711L201.91 60.8412L280.231 103.909L268.131 42.414L260.815 16.1262C260.315 14.3269 259.516 12.6241 258.454 11.0884L255.699 7.10705C253.291 3.62745 248.943 2.05505 244.866 3.18946C243.058 3.69255 241.43 4.69742 240.169 6.08773L226.016 21.6999C221.267 26.9378 217.209 32.7622 213.94 39.031Z" fill="url(#paint11_linear_695_55092)"/>
<path d="M213.94 39.031L207.713 50.9711L201.91 60.8412L280.231 103.909L268.131 42.414L260.815 16.1262C260.315 14.3269 259.516 12.6241 258.454 11.0884L255.699 7.10705C253.291 3.62745 248.943 2.05505 244.866 3.18946C243.058 3.69255 241.43 4.69742 240.169 6.08773L226.016 21.6999C221.267 26.9378 217.209 32.7622 213.94 39.031Z" stroke="#D49357" stroke-width="0.74217"/>
</g>
<path d="M254.586 48.8363L255.247 22.0047C255.31 19.4301 258.955 18.9779 259.646 21.4591L265.134 41.1838L276.338 102.634L255.743 84.7782L254.586 48.8363Z" fill="url(#paint12_linear_695_55092)" stroke="#FDE2B7" stroke-width="0.746971"/>
<mask id="mask1_695_55092" style="mask-type:alpha" maskUnits="userSpaceOnUse" x="80" y="52" width="235" height="184">
<path d="M81.5742 200.714L91.2083 137.747C94.6542 115.225 106.069 94.6877 123.377 79.8704C133.936 70.8304 146.348 64.2144 159.74 60.4879L174.529 56.3725C183.894 53.7663 193.609 52.6362 203.323 53.0228C226.685 53.9528 248.852 63.5994 265.456 80.0617L267.738 82.3248L306.819 129.531L308.997 132.501C317.014 143.437 315.756 158.608 306.046 168.073L281.381 191.742L265.951 209.038C255.924 220.279 242.878 228.401 228.366 232.439C219.181 234.996 209.606 235.859 200.111 234.988L101.289 225.921C92.1998 225.087 84.5726 218.722 82.1258 209.929C81.2916 206.931 81.1036 203.79 81.5742 200.714Z" fill="#FBB778" stroke="#D49357" stroke-width="0.746971"/>
</mask>
<g mask="url(#mask1_695_55092)">
<path d="M81.5742 200.714L91.2083 137.747C94.6542 115.225 106.069 94.6877 123.377 79.8704C133.936 70.8304 146.348 64.2144 159.74 60.4879L174.529 56.3725C183.894 53.7663 193.609 52.6362 203.323 53.0228C226.685 53.9528 248.852 63.5994 265.456 80.0617L267.738 82.3248L306.819 129.531L308.997 132.501C317.014 143.437 315.756 158.608 306.046 168.073L281.381 191.742L265.951 209.038C255.924 220.279 242.878 228.401 228.366 232.439C219.181 234.996 209.606 235.859 200.111 234.988L101.289 225.921C92.1998 225.087 84.5726 218.722 82.1258 209.929C81.2916 206.931 81.1036 203.79 81.5742 200.714Z" fill="url(#paint13_linear_695_55092)" stroke="#D49357" stroke-width="0.74217"/>
<g style="mix-blend-mode:color-burn">
<path d="M81.5742 200.714L91.2083 137.747C94.6542 115.225 106.069 94.6877 123.377 79.8704C133.936 70.8304 146.348 64.2144 159.74 60.4879L174.529 56.3725C183.894 53.7663 193.609 52.6362 203.323 53.0228C226.685 53.9528 248.852 63.5994 265.456 80.0617L267.738 82.3248L306.819 129.531L308.997 132.501C317.014 143.437 315.756 158.608 306.046 168.073L281.381 191.742L265.951 209.038C255.924 220.279 242.878 228.401 228.366 232.439C219.181 234.996 209.606 235.859 200.111 234.988L101.289 225.921C92.1998 225.087 84.5726 218.722 82.1258 209.929C81.2916 206.931 81.1036 203.79 81.5742 200.714Z" fill="url(#paint14_linear_695_55092)"/>
<path d="M81.5742 200.714L91.2083 137.747C94.6542 115.225 106.069 94.6877 123.377 79.8704C133.936 70.8304 146.348 64.2144 159.74 60.4879L174.529 56.3725C183.894 53.7663 193.609 52.6362 203.323 53.0228C226.685 53.9528 248.852 63.5994 265.456 80.0617L267.738 82.3248L306.819 129.531L308.997 132.501C317.014 143.437 315.756 158.608 306.046 168.073L281.381 191.742L265.951 209.038C255.924 220.279 242.878 228.401 228.366 232.439C219.181 234.996 209.606 235.859 200.111 234.988L101.289 225.921C92.1998 225.087 84.5726 218.722 82.1258 209.929C81.2916 206.931 81.1036 203.79 81.5742 200.714Z" stroke="#D49357" stroke-width="0.74217"/>
</g>
<path d="M81.5742 200.714L91.2083 137.747C94.6542 115.225 106.069 94.6877 123.377 79.8704C133.936 70.8304 146.348 64.2144 159.74 60.4879L174.529 56.3725C183.894 53.7663 193.609 52.6362 203.323 53.0228C226.685 53.9528 248.852 63.5994 265.456 80.0617L267.738 82.3248L306.819 129.531L308.997 132.501C317.014 143.437 315.756 158.608 306.046 168.073L281.381 191.742L265.951 209.038C255.924 220.279 242.878 228.401 228.366 232.439C219.181 234.996 209.606 235.859 200.111 234.988L101.289 225.921C92.1998 225.087 84.5726 218.722 82.1258 209.929C81.2916 206.931 81.1036 203.79 81.5742 200.714Z" fill="url(#paint15_linear_695_55092)" stroke="#D49357" stroke-width="0.74217"/>
<ellipse cx="129.513" cy="171.499" rx="42.3213" ry="36.3566" transform="rotate(-15.5504 129.513 171.499)" fill="url(#paint16_radial_695_55092)"/>
<ellipse cx="269.069" cy="132.665" rx="42.3213" ry="36.3566" transform="rotate(-15.5504 269.069 132.665)" fill="url(#paint17_radial_695_55092)"/>
<g filter="url(#filter1_f_695_55092)">
<path d="M176.928 190.146L124.602 204.707C139.385 213.054 155.65 218.445 172.492 220.581L205.323 224.745C213.416 225.771 221.633 225.173 229.492 222.986C241.005 219.783 251.331 213.287 259.204 204.297L272.061 189.615C277.507 183.395 282.332 176.658 286.466 169.5L300.942 144.433L266.733 162.368C259.598 166.109 251.119 166.279 243.839 162.828C235.278 158.769 225.176 159.762 217.568 165.41L198.389 179.647C191.94 184.434 184.665 187.993 176.928 190.146Z" fill="url(#paint18_linear_695_55092)"/>
</g>
<g style="mix-blend-mode:soft-light" filter="url(#filter2_f_695_55092)">
<ellipse cx="220.316" cy="113.21" rx="112.478" ry="66.4644" transform="rotate(-15.5504 220.316 113.21)" fill="#88FFEA"/>
</g>
<g style="mix-blend-mode:soft-light" filter="url(#filter3_f_695_55092)">
<ellipse cx="84.7934" cy="161.242" rx="50.2743" ry="53.6828" transform="rotate(-15.5504 84.7934 161.242)" fill="#88FFEA"/>
</g>
</g>
<path d="M176.401 139.122L170.671 136.016C169.351 135.3 167.955 134.736 166.509 134.334L143.106 127.823L168.05 124.616C169.652 124.41 171.274 124.423 172.873 124.653L179.057 125.545C181.79 125.94 184.082 127.812 185.014 130.411L185.376 131.421C186.513 134.593 184.965 138.1 181.856 139.398C180.089 140.136 178.084 140.034 176.401 139.122Z" fill="url(#paint19_linear_695_55092)"/>
<path d="M225.866 114.398L227.302 111.513C227.917 110.277 228.777 109.179 229.829 108.285L233.52 105.151C238.145 101.224 243.743 98.6142 249.725 97.5971L249.934 97.5615L245.794 102.805C244.158 104.877 242.943 107.248 242.217 109.786C241.428 112.542 240.063 115.099 238.213 117.289L236.477 119.344C236.476 119.344 236.475 119.345 236.474 119.345L233.445 121.254C231.21 122.661 228.281 122.212 226.571 120.198C225.197 118.58 224.92 116.299 225.866 114.398Z" fill="url(#paint20_linear_695_55092)"/>
<mask id="mask2_695_55092" style="mask-type:alpha" maskUnits="userSpaceOnUse" x="192" y="173" width="72" height="36">
<path d="M197.996 194.922L236.211 190.008C239.888 189.535 242.657 186.535 242.923 182.93C245.769 184.475 249.385 183.807 251.475 181.21L255.94 175.663C257.389 173.862 260.16 173.946 261.497 175.833C261.846 176.326 262.107 176.875 262.269 177.456L262.918 179.791C263.762 182.822 263.493 186.054 262.161 188.903L260.407 192.657C260.25 192.993 260.032 193.298 259.764 193.556L259.558 193.755C249.724 203.232 236.479 208.335 222.828 207.905L208.51 207.455L198.19 206.478C191.768 205.87 190.964 196.816 197.179 195.087C197.447 195.013 197.72 194.957 197.996 194.922Z" fill="#D9D9D9" stroke="#E9ABCC" stroke-width="1.0854"/>
</mask>
<g mask="url(#mask2_695_55092)">
<path d="M218.487 207.992L209.365 207.193L202.595 206.852L191.925 206.484L194.299 193.03L201.958 192.567L207.551 192.679L215.726 192.073L225.45 191.036L234.141 190.286L240.852 188.419L243.46 183.799L245.669 183.741L251.72 181.501L254.988 177.254L256.851 173.954L264.712 176.217L262.795 187.319L259.958 193.114L253.22 198.883L245.391 202.73L236.902 206.205L227.838 207.615L218.487 207.992Z" fill="white"/>
<path d="M207.551 192.679L209.365 207.193M207.551 192.679L215.726 192.073M207.551 192.679L201.958 192.567M209.365 207.193L218.487 207.992M209.365 207.193L202.595 206.852M218.487 207.992L215.726 192.073M218.487 207.992L227.838 207.615M215.726 192.073L225.45 191.036M225.45 191.036L227.838 207.615M225.45 191.036L234.141 190.286M227.838 207.615L236.902 206.205M234.141 190.286L236.902 206.205M234.141 190.286L240.852 188.419M236.902 206.205L245.391 202.73M240.852 188.419L245.391 202.73M240.852 188.419L243.46 183.799L245.669 183.741M245.391 202.73L253.22 198.883M245.669 183.741L253.22 198.883M245.669 183.741L251.72 181.501M253.22 198.883L259.958 193.114M251.72 181.501L259.958 193.114M251.72 181.501L254.988 177.254M259.958 193.114L262.795 187.319M254.988 177.254L262.795 187.319M254.988 177.254L256.851 173.954L264.712 176.217L262.795 187.319M201.958 192.567L202.595 206.852M201.958 192.567L194.299 193.03L191.925 206.484L202.595 206.852" stroke="#FFEEDF" stroke-width="1.07174"/>
<path d="M218.487 207.992L209.365 207.193L202.595 206.852L191.408 206.627L192.176 191.396L201.958 192.567L207.551 192.679L215.726 192.073L225.449 191.036L234.14 190.286L240.852 188.419L243.46 183.799L245.669 183.741L251.72 181.501L254.988 177.254L258.256 173.007L264.77 178.426L262.795 187.319L259.958 193.114L253.22 198.883L245.391 202.73L236.902 206.205L227.838 207.615L218.487 207.992Z" fill="url(#paint21_radial_695_55092)"/>
<path d="M218.487 207.992L209.365 207.193L202.595 206.852L201.958 192.567L207.551 192.679L215.726 192.073L225.45 191.036L234.141 190.286L240.852 188.419L243.46 183.799L245.669 183.741L251.72 181.501L254.988 177.254L259.145 172.204L263.94 181.438L262.795 187.319L259.958 193.114L253.22 198.883L245.391 202.73L236.902 206.205L227.838 207.615L218.487 207.992Z" fill="url(#paint22_radial_695_55092)" fill-opacity="0.5"/>
<path d="M197.996 194.922L236.211 190.008C239.888 189.535 242.657 186.535 242.923 182.93C245.769 184.475 249.385 183.807 251.475 181.21L255.94 175.663C257.389 173.862 260.16 173.946 261.497 175.833C261.846 176.326 262.107 176.875 262.269 177.456L262.918 179.791C263.762 182.822 263.493 186.054 262.161 188.903L260.407 192.657C260.25 192.993 260.032 193.298 259.764 193.556L259.558 193.755C249.724 203.232 236.479 208.335 222.828 207.905L208.51 207.455L198.19 206.478C191.768 205.87 190.964 196.816 197.179 195.087C197.447 195.013 197.72 194.957 197.996 194.922Z" stroke="#E9ABCC" stroke-width="1.0854"/>
<g style="mix-blend-mode:soft-light">
<path d="M197.927 194.384L236.142 189.47C239.877 188.99 242.605 185.703 242.39 181.943C245.093 183.984 248.929 183.508 251.053 180.869L255.517 175.323C257.192 173.241 260.394 173.339 261.939 175.519C262.325 176.063 262.613 176.669 262.791 177.311L263.441 179.646C264.319 182.801 264.04 186.166 262.653 189.133L260.899 192.886C260.713 193.283 260.456 193.643 260.141 193.947L259.935 194.145C249.996 203.725 236.608 208.882 222.811 208.448L208.476 207.996L198.138 207.018C191.117 206.354 190.239 196.455 197.033 194.564C197.326 194.483 197.625 194.422 197.927 194.384Z" fill="#D9D9D9"/>
</g>
</g>
<path d="M160.135 181.493L158.458 181.798C144.399 184.353 129.958 180.136 119.483 170.419C126.185 160.677 136.099 153.602 147.49 150.432L150.458 149.606C161.278 146.595 172.734 146.742 183.473 150.029L187.893 151.382C186.348 166.437 175.025 178.787 160.135 181.493Z" fill="white" stroke="#D59357" stroke-width="0.746971"/>
<path d="M145.113 162.675L139.81 153.126L147.926 150.311L159.427 147.667L169.955 147.519L179.22 148.834L179.808 152.892C180.453 157.345 179.283 161.872 176.561 165.456C174.687 167.923 172.167 169.824 169.28 170.949L168.686 171.18C159.807 174.637 149.739 171.005 145.113 162.675Z" fill="url(#paint23_linear_695_55092)"/>
<path d="M264.446 145.389L270.187 142.585C281.349 137.134 287.031 124.495 283.701 112.529L278.335 112.059C269.925 111.322 261.48 113.004 253.995 116.907C249.467 119.267 245.382 122.393 241.92 126.145L233.342 135.442L235.534 138.381C242.234 147.363 254.377 150.306 264.446 145.389Z" fill="white" stroke="#D59357" stroke-width="0.746971"/>
<path d="M270.475 127.171L268.613 112.277L260.21 114.06L249.943 119.142L244.094 124.107L238.695 130.059L240.31 133.889C242.044 138.002 245.357 141.248 249.505 142.897L249.925 143.064C252.562 144.113 255.441 144.396 258.232 143.883C266.096 142.435 271.466 135.105 270.475 127.171Z" fill="url(#paint24_linear_695_55092)"/>
<path d="M160.135 181.493L158.458 181.798C144.399 184.353 129.958 180.136 119.483 170.419C126.185 160.677 136.099 153.602 147.49 150.432L150.458 149.606C161.278 146.595 172.734 146.742 183.473 150.029L187.893 151.382C186.348 166.437 175.025 178.787 160.135 181.493Z" stroke="#D59357" stroke-width="0.746971"/>
<path d="M264.446 145.389L270.187 142.585C281.349 137.134 287.031 124.495 283.701 112.529L278.335 112.059C269.925 111.322 261.48 113.004 253.995 116.907C249.467 119.267 245.382 122.393 241.92 126.145L233.342 135.442L235.534 138.381C242.234 147.363 254.377 150.306 264.446 145.389Z" stroke="#D59357" stroke-width="0.746971"/>
<ellipse cx="145.79" cy="163.15" rx="3.6095" ry="3.22276" transform="rotate(-15.5504 145.79 163.15)" fill="white"/>
<ellipse cx="243.303" cy="133.79" rx="3.6095" ry="3.22276" transform="rotate(-15.5504 243.303 133.79)" fill="white"/>
<path d="M240.673 181.614L236.001 181.89C232.577 182.092 229.907 178.969 230.639 175.618C230.982 174.048 232.034 172.726 233.488 172.041L239.051 169.416C239.468 169.22 239.901 169.058 240.346 168.935L242.7 168.28C245.744 167.433 248.899 169.214 249.746 172.258C250.408 174.639 249.468 177.175 247.413 178.549L245.006 180.158C243.717 181.02 242.221 181.523 240.673 181.614Z" fill="url(#paint25_radial_695_55092)" stroke="#B55A26" stroke-width="1.0854"/>
<path d="M133.017 290.993L134.526 285.164C136.698 276.771 146.959 273.62 153.468 279.347L230.734 273.018C234.283 272.727 237.239 270.179 238.048 266.711C239.723 259.533 249.281 258.039 253.066 264.364L283.775 315.68C285.139 317.959 286.217 320.398 286.985 322.941L356.553 553.158L133.017 560.827L113.703 417.957L122.508 553.158L62.2924 560.827L51.4795 504.882C49.9951 497.201 46.8733 489.931 42.3267 483.566C35.7305 474.331 32.1846 463.266 32.1846 451.918V445.121C32.1846 440.654 31.789 436.195 31.0023 431.798L19.5411 367.728C16.5392 350.947 20.2244 333.657 29.8083 319.558C41.9553 301.689 62.1609 290.993 83.7678 290.993H133.017Z" fill="#F1FFF4"/>
<path d="M280.632 273.098H296.204C312.546 273.098 327.921 280.845 337.647 293.978L343.636 302.066C351.345 312.477 356.083 324.786 357.344 337.68L365.359 419.661L392.982 361.548C394.499 358.355 397.719 356.321 401.254 356.321C404.678 356.321 407.816 354.411 409.389 351.37L411.475 347.335C415.882 338.816 426.566 335.784 434.791 340.719L453.326 351.84C457.197 354.162 457.988 359.439 454.968 362.795C453.782 364.113 453.126 365.823 453.126 367.596V369.848C453.126 371.421 452.841 372.981 452.286 374.453L409.605 487.568C401.097 510.115 379.516 525.038 355.417 525.038C339.47 514.956 327.647 499.51 322.081 481.482L264.493 294.973C262.75 289.328 264.083 283.183 268.008 278.768C271.213 275.162 275.807 273.098 280.632 273.098Z" fill="#E0E5FF"/>
<path fill-rule="evenodd" clip-rule="evenodd" d="M135.507 281.372L135.032 283.208C133.845 287.791 129.71 290.993 124.975 290.993H83.2558C61.9689 290.993 41.9011 301.769 29.934 319.373C20.3501 333.472 16.5387 350.947 19.5406 367.728L31.0019 431.798C31.7885 436.196 32.1841 440.654 32.1841 445.121V451.918C32.1841 463.267 35.73 474.332 42.3262 483.566C46.8728 489.932 49.9946 497.202 51.479 504.882L62.2919 560.827L122.507 553.158L113.702 417.957L133.017 560.827L356.553 553.158L345.928 517.996C348.895 520.563 352.065 522.919 355.417 525.038C379.516 525.038 401.096 510.115 409.604 487.568L452.285 374.453C452.84 372.981 453.125 371.421 453.125 369.848V367.596C453.125 365.823 453.781 364.113 454.967 362.795C457.987 359.44 457.196 354.162 453.325 351.84L434.79 340.719C426.565 335.784 415.881 338.816 411.475 347.336L409.388 351.37C407.815 354.411 404.677 356.321 401.253 356.321C397.718 356.321 394.499 358.355 392.981 361.548L365.358 419.661L357.343 337.68C356.082 324.786 351.344 312.477 343.635 302.066L337.646 293.978C327.92 280.845 312.546 273.099 296.204 273.099H280.631C275.807 273.099 271.212 275.162 268.007 278.768C266.614 280.335 265.548 282.12 264.829 284.023L253.065 264.364C249.281 258.04 239.722 259.533 238.048 266.711C237.239 270.179 234.283 272.728 230.734 273.018L157.372 279.028C154.877 279.232 152.406 278.413 150.527 276.76C145.366 272.218 137.229 274.717 135.507 281.372Z" fill="url(#paint26_linear_695_55092)"/>
<path fill-rule="evenodd" clip-rule="evenodd" d="M135.507 281.372L135.032 283.208C133.845 287.791 129.71 290.993 124.975 290.993H83.2558C61.9689 290.993 41.9011 301.769 29.934 319.373C20.3501 333.472 16.5387 350.947 19.5406 367.728L31.0019 431.798C31.7885 436.196 32.1841 440.654 32.1841 445.121V451.918C32.1841 463.267 35.73 474.332 42.3262 483.566C46.8728 489.932 49.9946 497.202 51.479 504.882L62.2919 560.827L122.507 553.158L113.702 417.957L133.017 560.827L356.553 553.158L345.928 517.996C348.895 520.563 352.065 522.919 355.417 525.038C379.516 525.038 401.096 510.115 409.604 487.568L452.285 374.453C452.84 372.981 453.125 371.421 453.125 369.848V367.596C453.125 365.823 453.781 364.113 454.967 362.795C457.987 359.44 457.196 354.163 453.325 351.84L434.79 340.719C426.565 335.784 415.882 338.816 411.475 347.336L409.388 351.37C407.815 354.411 404.677 356.321 401.253 356.321C397.718 356.321 394.499 358.355 392.981 361.548L365.358 419.661L357.343 337.68C356.082 324.787 351.345 312.477 343.635 302.066L337.646 293.978C327.921 280.845 312.546 273.099 296.204 273.099H280.631C275.807 273.099 271.212 275.162 268.007 278.768C266.614 280.335 265.548 282.12 264.829 284.023L253.065 264.364C249.281 258.04 239.722 259.533 238.048 266.711C237.239 270.179 234.283 272.728 230.734 273.018L157.372 279.028C154.877 279.232 152.406 278.413 150.527 276.76C145.366 272.218 137.229 274.717 135.507 281.372Z" fill="url(#paint27_linear_695_55092)"/>
<g style="mix-blend-mode:color-burn">
<path d="M357.726 500.567L363.981 434.255C364.892 424.6 367.488 415.18 371.651 406.422L392.982 361.548C394.499 358.355 397.718 356.321 401.253 356.321C404.677 356.321 407.815 354.411 409.388 351.37L411.475 347.335C415.882 338.815 426.566 335.784 434.791 340.719L453.326 351.84C457.197 354.162 457.988 359.439 454.968 362.795C453.782 364.113 453.125 365.823 453.125 367.596V369.848C453.125 371.421 452.841 372.981 452.285 374.453L400.927 510.565C397.641 519.274 389.305 525.038 379.997 525.038C366.812 525.038 356.487 513.693 357.726 500.567Z" fill="url(#paint28_linear_695_55092)"/>
</g>
<g style="mix-blend-mode:color-burn">
<path d="M357.726 500.567L363.981 434.255C364.892 424.6 367.488 415.18 371.651 406.422L392.982 361.548C394.499 358.355 397.718 356.321 401.253 356.321C404.677 356.321 407.815 354.411 409.388 351.37L411.475 347.335C415.882 338.815 426.566 335.784 434.791 340.719L453.326 351.84C457.197 354.162 457.988 359.439 454.968 362.795C453.782 364.113 453.125 365.823 453.125 367.596V369.848C453.125 371.421 452.841 372.981 452.285 374.453L400.927 510.565C397.641 519.274 389.305 525.038 379.997 525.038C366.812 525.038 356.487 513.693 357.726 500.567Z" fill="url(#paint29_linear_695_55092)"/>
</g>
<g style="mix-blend-mode:color-burn">
<path d="M45.25 303.206L53.6142 309.067C73.6293 323.092 89.6139 342.124 99.9714 364.26L102.542 369.754C109.518 384.665 113.135 400.926 113.135 417.388V417.388" stroke="#919191" stroke-width="0.746971"/>
</g>
<g style="mix-blend-mode:color-burn">
<path d="M325.31 282.471V282.471C315.013 298.947 308.335 317.422 305.719 336.674L302.587 359.729" stroke="#919191" stroke-width="0.746971"/>
</g>
<g style="mix-blend-mode:color-burn">
<path d="M262.537 285.596L275.318 298.971C290.778 315.15 300.378 336.04 302.586 358.309V358.309L310.539 455.449L329.286 520.493" stroke="#919191" stroke-width="0.746971"/>
</g>
<g style="mix-blend-mode:screen">
<ellipse cx="321.794" cy="301.649" rx="97.832" ry="69.8728" fill="#3656FF"/>
</g>
<g style="mix-blend-mode:soft-light" filter="url(#filter4_f_695_55092)">
<ellipse cx="121.656" cy="303.206" rx="67.8845" ry="66.4644" fill="#EE88FF"/>
</g>
<g style="mix-blend-mode:soft-light">
<rect width="582.772" height="634.952" transform="matrix(0.999999 0.00111663 0.00111445 0.999999 -7.1377 -9.65137)" fill="#003EDC"/>
</g>
<g style="mix-blend-mode:soft-light">
<rect width="583.715" height="630.227" transform="matrix(0.999999 0.00111663 0.00111445 0.999999 -7.13379 -4.92676)" fill="#FF7E36"/>
</g>
<g style="mix-blend-mode:color-burn" opacity="0.5">
<rect width="583.715" height="630.227" transform="matrix(0.999999 0.00111663 0.00111445 0.999999 -7.13379 -4.92676)" fill="#A2B0FF"/>
</g>
</g>
<defs>
<filter id="filter0_f_695_55092" x="66.5568" y="131.369" width="249.943" height="256.76" filterUnits="userSpaceOnUse" color-interpolation-filters="sRGB">
<feFlood flood-opacity="0" result="BackgroundImageFix"/>
<feBlend mode="normal" in="SourceGraphic" in2="BackgroundImageFix" result="shape"/>
<feGaussianBlur stdDeviation="37.3486" result="effect1_foregroundBlur_695_55092"/>
</filter>
<filter id="filter1_f_695_55092" x="117.132" y="136.963" width="191.279" height="95.7385" filterUnits="userSpaceOnUse" color-interpolation-filters="sRGB">
<feFlood flood-opacity="0" result="BackgroundImageFix"/>
<feBlend mode="normal" in="SourceGraphic" in2="BackgroundImageFix" result="shape"/>
<feGaussianBlur stdDeviation="3.73486" result="effect1_foregroundBlur_695_55092"/>
</filter>
<filter id="filter2_f_695_55092" x="35.7853" y="-32.2796" width="369.06" height="290.98" filterUnits="userSpaceOnUse" color-interpolation-filters="sRGB">
<feFlood flood-opacity="0" result="BackgroundImageFix"/>
<feBlend mode="normal" in="SourceGraphic" in2="BackgroundImageFix" result="shape"/>
<feGaussianBlur stdDeviation="37.3486" result="effect1_foregroundBlur_695_55092"/>
</filter>
<filter id="filter3_f_695_55092" x="-40.4442" y="33.0863" width="250.475" height="256.31" filterUnits="userSpaceOnUse" color-interpolation-filters="sRGB">
<feFlood flood-opacity="0" result="BackgroundImageFix"/>
<feBlend mode="normal" in="SourceGraphic" in2="BackgroundImageFix" result="shape"/>
<feGaussianBlur stdDeviation="37.3486" result="effect1_foregroundBlur_695_55092"/>
</filter>
<filter id="filter4_f_695_55092" x="-20.9256" y="162.045" width="285.164" height="282.323" filterUnits="userSpaceOnUse" color-interpolation-filters="sRGB">
<feFlood flood-opacity="0" result="BackgroundImageFix"/>
<feBlend mode="normal" in="SourceGraphic" in2="BackgroundImageFix" result="shape"/>
<feGaussianBlur stdDeviation="37.3486" result="effect1_foregroundBlur_695_55092"/>
</filter>
<linearGradient id="paint0_linear_695_55092" x1="475.255" y1="278.728" x2="405.173" y2="302.844" gradientUnits="userSpaceOnUse">
<stop stop-color="#CDB952"/>
<stop offset="1" stop-color="#FCFCFC"/>
</linearGradient>
<linearGradient id="paint1_linear_695_55092" x1="509.504" y1="291.351" x2="465.65" y2="293.141" gradientUnits="userSpaceOnUse">
<stop stop-color="#EECD23"/>
<stop offset="1" stop-color="#FBB778"/>
</linearGradient>
<linearGradient id="paint2_linear_695_55092" x1="431.563" y1="263.033" x2="435.872" y2="304.31" gradientUnits="userSpaceOnUse">
<stop stop-color="#EECD23"/>
<stop offset="1" stop-color="#FBB778"/>
</linearGradient>
<linearGradient id="paint3_linear_695_55092" x1="235.671" y1="210.042" x2="365.033" y2="520.604" gradientUnits="userSpaceOnUse">
<stop stop-color="#CDB952"/>
<stop offset="1" stop-color="#FCFCFC"/>
</linearGradient>
<linearGradient id="paint4_linear_695_55092" x1="66.477" y1="141.59" x2="194.272" y2="304.624" gradientUnits="userSpaceOnUse">
<stop stop-color="#EECD23"/>
<stop offset="1" stop-color="#FBB778"/>
</linearGradient>
<linearGradient id="paint5_linear_695_55092" x1="66.477" y1="141.59" x2="194.272" y2="304.624" gradientUnits="userSpaceOnUse">
<stop stop-color="#EECD23"/>
<stop offset="1" stop-color="#FBB778"/>
</linearGradient>
<linearGradient id="paint6_linear_695_55092" x1="7.93552" y1="92.7066" x2="142.997" y2="168.042" gradientUnits="userSpaceOnUse">
<stop stop-color="#EECD23"/>
<stop offset="1" stop-color="#E78124" stop-opacity="0.38"/>
</linearGradient>
<linearGradient id="paint7_linear_695_55092" x1="7.93552" y1="92.7066" x2="142.997" y2="168.042" gradientUnits="userSpaceOnUse">
<stop stop-color="#EECD23"/>
<stop offset="1" stop-color="#A8E724" stop-opacity="0.38"/>
</linearGradient>
<linearGradient id="paint8_linear_695_55092" x1="23.4146" y1="128.201" x2="104.288" y2="134.884" gradientUnits="userSpaceOnUse">
<stop stop-color="#FDE2B7"/>
<stop offset="1" stop-color="#EDBB6B"/>
</linearGradient>
<linearGradient id="paint9_linear_695_55092" x1="226.416" y1="20.7064" x2="348.494" y2="76.4215" gradientUnits="userSpaceOnUse">
<stop stop-color="#F78F54"/>
<stop offset="1" stop-color="#FBB778" stop-opacity="0"/>
</linearGradient>
<linearGradient id="paint10_linear_695_55092" x1="226.416" y1="20.7064" x2="348.494" y2="76.4215" gradientUnits="userSpaceOnUse">
<stop stop-color="#EECD23"/>
<stop offset="1" stop-color="#FBB778" stop-opacity="0"/>
</linearGradient>
<linearGradient id="paint11_linear_695_55092" x1="226.416" y1="20.7064" x2="348.494" y2="76.4215" gradientUnits="userSpaceOnUse">
<stop stop-color="#EECD23"/>
<stop offset="1" stop-color="#FBB778" stop-opacity="0"/>
</linearGradient>
<linearGradient id="paint12_linear_695_55092" x1="245.628" y1="9.75828" x2="271.823" y2="103.89" gradientUnits="userSpaceOnUse">
<stop stop-color="#FDE2B7"/>
<stop offset="1" stop-color="#EDBB6B"/>
</linearGradient>
<linearGradient id="paint13_linear_695_55092" x1="168.414" y1="58.0741" x2="276.034" y2="203.254" gradientUnits="userSpaceOnUse">
<stop stop-color="#EECD23"/>
<stop offset="1" stop-color="#FBB778"/>
</linearGradient>
<linearGradient id="paint14_linear_695_55092" x1="116.92" y1="96.5793" x2="276.034" y2="203.254" gradientUnits="userSpaceOnUse">
<stop stop-color="#FA7B05"/>
<stop offset="1" stop-color="#FBB778"/>
</linearGradient>
<linearGradient id="paint15_linear_695_55092" x1="320.158" y1="141.445" x2="121.348" y2="71.1712" gradientUnits="userSpaceOnUse">
<stop stop-color="#FFDAB8"/>
<stop offset="1" stop-color="#FBB778" stop-opacity="0.21"/>
</linearGradient>
<radialGradient id="paint16_radial_695_55092" cx="0" cy="0" r="1" gradientUnits="userSpaceOnUse" gradientTransform="translate(129.513 171.499) rotate(90) scale(36.3566 42.3213)">
<stop stop-color="#FF0505"/>
<stop offset="1" stop-color="#E9724D" stop-opacity="0"/>
</radialGradient>
<radialGradient id="paint17_radial_695_55092" cx="0" cy="0" r="1" gradientUnits="userSpaceOnUse" gradientTransform="translate(269.069 132.665) rotate(90) scale(36.3566 42.3213)">
<stop stop-color="#FF6868"/>
<stop offset="1" stop-color="#E9724D" stop-opacity="0"/>
</radialGradient>
<linearGradient id="paint18_linear_695_55092" x1="224.532" y1="158.03" x2="241.741" y2="219.873" gradientUnits="userSpaceOnUse">
<stop stop-color="#FFCA99"/>
<stop offset="0.453125" stop-color="#FFE2C7"/>
<stop offset="1" stop-color="#FFE2C7"/>
</linearGradient>
<linearGradient id="paint19_linear_695_55092" x1="185.104" y1="134.351" x2="147.251" y2="128.543" gradientUnits="userSpaceOnUse">
<stop stop-color="#8D2200" stop-opacity="0.72"/>
<stop offset="1" stop-color="#6C1A00"/>
</linearGradient>
<linearGradient id="paint20_linear_695_55092" x1="249.166" y1="99.9997" x2="230.481" y2="120.409" gradientUnits="userSpaceOnUse">
<stop stop-color="#6C1A00"/>
<stop offset="1" stop-color="#8D2200" stop-opacity="0.72"/>
</linearGradient>
<radialGradient id="paint21_radial_695_55092" cx="0" cy="0" r="1" gradientUnits="userSpaceOnUse" gradientTransform="translate(195.623 203.786) rotate(-9.4779) scale(50.6561 132.568)">
<stop stop-color="#CACACA"/>
<stop offset="1" stop-color="white" stop-opacity="0"/>
</radialGradient>
<radialGradient id="paint22_radial_695_55092" cx="0" cy="0" r="1" gradientUnits="userSpaceOnUse" gradientTransform="translate(260.295 176.334) rotate(132.444) scale(30.3324 79.3804)">
<stop stop-color="#CACACA"/>
<stop offset="1" stop-color="white" stop-opacity="0"/>
</radialGradient>
<linearGradient id="paint23_linear_695_55092" x1="162.723" y1="152.925" x2="174.849" y2="170.502" gradientUnits="userSpaceOnUse">
<stop stop-color="#004381"/>
<stop offset="1" stop-color="#AFF5FF"/>
</linearGradient>
<linearGradient id="paint24_linear_695_55092" x1="254.934" y1="125.041" x2="253.63" y2="146.354" gradientUnits="userSpaceOnUse">
<stop stop-color="#004381"/>
<stop offset="1" stop-color="#AFF5FF"/>
</linearGradient>
<radialGradient id="paint25_radial_695_55092" cx="0" cy="0" r="1" gradientUnits="userSpaceOnUse" gradientTransform="translate(241.374 175.997) rotate(69.9152) scale(9.48474 16.6136)">
<stop offset="0.302083" stop-color="#BE805D"/>
<stop offset="1" stop-color="#8F3C00"/>
</radialGradient>
<linearGradient id="paint26_linear_695_55092" x1="469.221" y1="686.029" x2="261.307" y2="190.003" gradientUnits="userSpaceOnUse">
<stop stop-color="#C949C4"/>
<stop offset="1" stop-color="#FFFBFF" stop-opacity="0.18"/>
</linearGradient>
<linearGradient id="paint27_linear_695_55092" x1="38.143" y1="107.363" x2="462.082" y2="155.281" gradientUnits="userSpaceOnUse">
<stop stop-color="#C96849"/>
<stop offset="1" stop-color="#E0E5FF" stop-opacity="0.18"/>
</linearGradient>
<linearGradient id="paint28_linear_695_55092" x1="362.802" y1="445.508" x2="399.443" y2="483.285" gradientUnits="userSpaceOnUse">
<stop stop-color="#B7B7B7"/>
<stop offset="1" stop-color="#D9D9D9" stop-opacity="0"/>
</linearGradient>
<linearGradient id="paint29_linear_695_55092" x1="387.513" y1="373.079" x2="399.443" y2="483.285" gradientUnits="userSpaceOnUse">
<stop stop-color="#D2D2D2"/>
<stop offset="1" stop-color="#D9D9D9" stop-opacity="0"/>
</linearGradient>
</defs>
</svg>
