<svg width="687" height="574" viewBox="0 0 687 574" fill="none" xmlns="http://www.w3.org/2000/svg">
<path d="M335.027 252.113L304.536 260.586C301.28 261.491 297.942 262.069 294.571 262.311C283.125 263.133 272.294 267.805 263.842 275.567L263.299 276.065L171.771 228.244L164.803 235.377C157.13 243.231 147.196 248.49 136.387 250.42C113.938 254.43 96.6186 272.431 93.4789 295.019L91.8085 307.036L87.5607 339.093C77.7438 413.176 55.0163 484.965 20.41 551.2L193.618 555.441L262.7 442.933L274.377 420.584C282.102 405.799 288.456 390.338 293.361 374.394L299.414 354.716C300.292 351.863 301.429 349.097 302.811 346.451C308.295 335.954 317.405 327.805 328.446 323.519L379.531 303.688C408.768 289.814 436.644 273.235 462.792 254.168L469.846 249.025L514.706 213.812C530.655 201.293 545.642 187.595 559.54 172.832L597.287 132.736C597.74 132.256 598.256 131.84 598.822 131.5L611.115 122.156C611.385 121.951 611.738 121.89 612.061 121.993L623.528 125.655C631.638 128.244 640.245 128.875 648.645 127.496L659.213 125.762C661.599 125.37 663.841 124.359 665.713 122.83C668.048 120.922 669.695 118.304 670.402 115.373L671.243 111.889C671.365 111.382 671.348 110.85 671.192 110.352C670.753 108.952 669.434 108.223 668.159 108.342L676.468 103.513C678.837 102.136 680.377 99.6828 680.588 96.9512C680.781 94.4522 679.839 91.999 678.022 90.272L666.582 79.3967C664.587 77.5001 662.408 75.8065 660.078 74.341L640.367 61.9442L637.16 59.638C631.756 55.7508 624.339 56.3117 619.581 60.9674C611.106 67.3881 603.64 75.0423 597.433 83.6753L590.311 93.581C583.944 101.668 576.891 109.192 569.232 116.069C568.839 116.48 568.395 116.84 567.911 117.139L488.5 166.223L431.672 205.867C411.636 219.844 390.272 231.814 367.89 241.604L335.027 252.113Z" fill="#3D3AA9"/>
<path d="M171.616 228.53L184.292 204.27C191.61 190.263 195.878 174.863 196.813 159.087L303.638 223.483L298.468 227.218C281.687 239.343 269.292 256.582 263.142 276.35L244.182 294.851L217.851 289.749L171.616 228.53Z" fill="#3D3AA9"/>
<path d="M172.818 433.212L228.308 426.801L330.154 425.298L332.079 425.098C337.023 424.227 341.784 422.523 346.158 420.058C346.266 419.998 346.343 419.895 346.372 419.775L349.239 407.727C351.209 399.445 355.114 391.748 360.632 385.267L367.575 377.113C369.142 375.272 371.166 373.874 373.443 373.061C376.282 372.046 379.374 371.988 382.249 372.896L385.667 373.975C386.165 374.133 386.611 374.422 386.957 374.813C387.93 375.911 387.872 377.418 387.112 378.448L395.539 373.826C397.941 372.509 400.837 372.457 403.285 373.687C405.525 374.812 407.139 376.886 407.679 379.334L411.085 394.746C411.679 397.434 412.004 400.174 412.055 402.926L412.492 426.208L412.811 430.145C413.349 436.78 409.039 442.842 402.594 444.512C392.719 448.454 382.309 450.894 371.711 451.752L359.55 452.735L344.853 455.521L329.805 459.232L193.698 493.043L140.613 499.709C119.231 502.394 97.5384 501.182 76.5877 496.133L75.6656 495.911C74.5994 495.654 73.7177 494.908 73.2883 493.899C64.5087 473.268 61.9213 450.528 65.8415 428.453L84.7156 322.167L96.3451 283.313C100.631 268.993 114.402 259.667 129.29 261.001L135.049 260.522C142.286 259.92 149.504 261.883 155.44 266.067C163.343 271.639 168.187 280.584 168.533 290.247L169.027 304.039C169.239 309.951 168.557 315.86 167.005 321.568L151.87 377.208L126.181 442.086C125.984 442.585 126.459 443.088 126.968 442.92C141.235 438.195 155.965 435.009 170.909 433.416L172.818 433.212Z" fill="#3D3AA9"/>
<path d="M304.638 46.9089L298.265 68.9858L296.706 74.1031L333.198 83.651L330.197 65.543L325.298 48.5635C324.48 45.7264 323.465 42.9612 322.263 40.2906L319.708 34.6144C319.441 34.022 319.108 33.4673 318.716 32.9626L315.987 29.4528C314.816 27.9457 312.716 27.7585 311.296 29.0347C310.844 29.4406 310.499 29.9656 310.295 30.5568L304.638 46.9089Z" fill="#3D3AA9"/>
<path d="M337.76 84.4678L332.162 79.1881C329.554 76.7292 326.649 74.6581 323.522 73.0295C319.71 71.0442 315.615 69.7405 311.397 69.1692L303.644 68.1193C299.657 67.5793 295.631 67.3865 291.606 67.5428L279.796 68.2245C273.562 68.5843 267.383 69.7743 261.403 71.7669L256.387 73.4383C250.039 75.5536 244.136 79.0102 239.027 83.6031L231.547 73.9802L207.371 46.2642C206.539 45.3102 205.592 44.479 204.555 43.7919L200.947 41.4009C196.648 38.5516 190.978 39.8511 188.059 44.3549C186.944 46.0749 186.341 48.1124 186.33 50.195L186.12 89.8225C186.069 99.5701 186.987 109.283 188.86 118.795L194.495 147.416L197.428 169.803C198.813 180.375 202.905 190.292 209.25 198.455C213.621 204.078 218.962 208.741 224.988 212.194L254.483 229.093C258.652 231.483 263.217 232.996 267.934 233.554C274.732 234.358 281.629 233.151 287.881 230.064L290.325 228.857C293.321 227.378 296.448 226.236 299.656 225.449L319.831 220.504L340.316 215.268C344.357 214.236 348.479 213.636 352.62 213.478L369.119 212.85C372.431 212.724 375.621 211.407 378.176 209.11C380.889 206.671 382.713 203.282 383.319 199.556L383.937 195.757L386.19 183.882L388.53 170.871C390.104 162.124 386.592 153.294 379.65 148.541L379.167 148.21C374.547 145.047 371.453 139.877 370.68 134.032C370.268 130.909 369.186 127.94 367.519 125.358L352.924 102.737C348.581 96.0052 343.489 89.8712 337.76 84.4678Z" fill="#3D3AA9"/>
<path d="M350.56 329.336L403.721 311.729C403.752 311.719 403.759 311.677 403.732 311.657C398.922 308.148 394.93 303.637 392.034 298.435L378.631 274.363L365.885 241.322L349.82 245.441L304.605 257.178C301.179 258.067 297.689 258.685 294.166 259.025L291.353 259.297C288.225 259.6 285.141 260.251 282.158 261.239L271.832 264.659C268.132 265.884 265.049 268.493 263.229 271.939C259.599 278.81 251.347 281.804 244.156 278.858L238.908 276.708C237.878 276.287 236.884 275.785 235.932 275.208L225.945 269.153C207.649 258.06 191.605 243.624 178.648 226.598L173.782 220.204C165.989 229.847 155.588 237.047 143.818 240.945L140.297 242.112C136.256 243.45 132.332 245.12 128.566 247.105L115.335 254.077C109.57 257.114 104.501 261.319 100.449 266.422C96.391 271.535 93.4432 277.437 91.7941 283.753L78.6635 334.043L65.5156 415.927C53.6678 458.644 38.1653 500.261 19.1798 540.319L17.6394 543.569L206.324 559.81L230.572 522.33C258.281 484.458 280.326 442.751 296.01 398.522L310.271 358.305C315.584 346.585 325.554 337.618 337.77 333.572L350.56 329.336Z" fill="#3D3AA9"/>
<path d="M400.605 293.529L401.383 295.879C403.007 300.783 403.874 305.906 403.953 311.072C403.959 311.443 403.578 311.694 403.239 311.544L395.164 307.952L387.028 300.648L400.605 293.529Z" fill="#3D3AA9"/>
<mask id="mask0_720_65161" style="mask-type:alpha" maskUnits="userSpaceOnUse" x="1" y="12" width="665" height="534">
<path d="M319.633 236.868L289.142 245.341C285.886 246.246 282.547 246.823 279.177 247.066C267.731 247.888 256.9 252.56 248.447 260.321L247.904 260.82L156.377 212.999L149.408 220.132C141.736 227.985 131.801 233.245 120.993 235.175C98.5434 239.184 81.2241 257.186 78.0844 279.773L76.414 291.791L72.1661 323.847C62.3493 397.931 39.6218 469.719 5.01543 535.955L178.224 540.196L247.306 427.688L258.983 405.339C266.707 390.554 273.062 375.093 277.966 359.149L284.02 339.47C284.897 336.618 286.034 333.851 287.416 331.206C292.901 320.708 302.01 312.559 313.052 308.273L364.137 288.443C393.374 274.569 421.249 257.99 447.398 238.923L454.451 233.779L499.312 198.567C515.261 186.048 530.248 172.349 544.146 157.587L581.893 117.491C582.345 117.011 582.861 116.595 583.427 116.255L595.721 106.911C595.991 106.706 596.343 106.645 596.666 106.748L608.134 110.409C616.243 112.998 624.85 113.63 633.251 112.251L643.819 110.517C646.205 110.125 648.446 109.114 650.319 107.584C652.654 105.677 654.3 103.058 655.007 100.128L655.848 96.6438C655.971 96.1363 655.953 95.605 655.797 95.1067C655.359 93.7065 654.039 92.9777 652.765 93.0965L661.074 88.2674C663.442 86.8907 664.983 84.4374 665.194 81.7059C665.386 79.2068 664.444 76.7537 662.627 75.0267L651.188 64.1514C649.193 62.2547 647.014 60.5611 644.684 59.0956L624.972 46.6989L621.766 44.3927C616.361 40.5055 608.945 41.0663 604.186 45.722C595.711 52.1427 588.246 59.797 582.038 68.4299L574.916 78.3356C568.549 86.4231 561.497 93.9468 553.838 100.823C553.445 101.235 553.001 101.595 552.517 101.894L473.106 150.978L416.277 190.622C396.241 204.599 374.878 216.569 352.496 226.358L319.633 236.868Z" fill="#A80B0B"/>
<path d="M652.765 93.0965L661.074 88.2674C663.442 86.8907 664.983 84.4374 665.194 81.7059C665.386 79.2068 664.444 76.7537 662.627 75.0267L651.188 64.1514C649.193 62.2547 647.014 60.5611 644.684 59.0956L624.972 46.6989L621.766 44.3927C616.361 40.5055 608.945 41.0663 604.186 45.722C595.711 52.1427 588.246 59.797 582.038 68.4299L574.916 78.3356C568.549 86.4231 561.497 93.9468 553.838 100.823V100.823C553.445 101.235 553.001 101.595 552.517 101.894L473.106 150.978L416.277 190.622C396.241 204.599 374.878 216.569 352.496 226.358V226.358L319.633 236.867L289.142 245.341C285.886 246.246 282.547 246.823 279.177 247.066V247.066C267.731 247.888 256.9 252.56 248.447 260.321L247.904 260.82L156.377 212.999L149.408 220.132C141.736 227.985 131.801 233.245 120.993 235.175V235.175C98.5434 239.184 81.2241 257.186 78.0844 279.773L76.414 291.791L72.1661 323.847C62.3493 397.931 39.6218 469.719 5.01544 535.955V535.955L178.224 540.196L247.306 427.688L258.983 405.339C266.707 390.554 273.062 375.093 277.966 359.149L284.02 339.47C284.897 336.618 286.034 333.851 287.416 331.206V331.206C292.901 320.708 302.01 312.559 313.052 308.273L364.137 288.443V288.443C393.374 274.569 421.249 257.99 447.398 238.923L454.451 233.779L499.312 198.567C515.261 186.048 530.248 172.349 544.146 157.587L581.893 117.491C582.345 117.011 582.861 116.595 583.427 116.255V116.255L595.721 106.911C595.991 106.706 596.343 106.645 596.666 106.748L608.134 110.409C616.243 112.998 624.85 113.63 633.251 112.251L643.819 110.517C646.205 110.125 648.446 109.114 650.319 107.584C652.654 105.677 654.3 103.058 655.007 100.128L655.848 96.6438C655.971 96.1363 655.953 95.605 655.797 95.1067C655.359 93.7065 654.039 92.9777 652.765 93.0965ZM652.765 93.0965L650.682 94.3068M652.765 93.0965C652.039 93.1642 651.327 93.5072 650.802 94.1582L650.682 94.3068M650.682 94.3068L633.057 94.9812M633.057 94.9812L614.418 86.3465C613.068 85.7212 612.215 84.3578 612.242 82.8703M633.057 94.9812L613.758 87.0327C612.127 86.361 611.425 84.4337 612.242 82.8703M612.242 82.8703L620.089 70.0556C620.403 69.5439 621.059 69.3623 621.591 69.6402L642.28 80.4496C642.93 80.7895 642.894 81.7326 642.219 82.021L639.261 83.2847C639.184 83.3174 639.098 83.3206 639.019 83.2935L627.099 79.2046C621.856 77.4063 616.046 78.8398 612.242 82.8703Z" stroke="black" stroke-width="1.14105"/>
<path d="M156.222 213.285L168.897 189.025C176.216 175.017 180.483 159.618 181.419 143.842L288.244 208.237L283.073 211.973C266.293 224.097 253.897 241.337 247.747 261.105L228.787 279.606L202.456 274.504L156.222 213.285Z" fill="#A80B0B" stroke="black" stroke-width="1.14105"/>
<path d="M157.423 417.967L212.913 411.555L314.76 410.053L316.684 409.852C321.629 408.982 326.39 407.278 330.764 404.813C330.871 404.752 330.949 404.65 330.977 404.53L333.844 392.481C335.815 384.2 339.719 376.503 345.238 370.021L352.18 361.867C353.748 360.026 355.771 358.629 358.048 357.815C360.887 356.801 363.98 356.743 366.855 357.651L370.272 358.73C370.77 358.887 371.216 359.177 371.562 359.568C372.535 360.666 372.478 362.173 371.718 363.202L380.144 358.581C382.546 357.264 385.442 357.211 387.89 358.441C390.13 359.567 391.744 361.641 392.285 364.088L395.69 379.501C396.284 382.189 396.609 384.929 396.661 387.681L397.097 410.963L397.416 414.899C397.954 421.535 393.644 427.596 387.2 429.267C377.325 433.209 366.915 435.649 356.317 436.506L344.156 437.49L329.459 440.276L314.41 443.987L178.303 477.798L125.219 484.463C103.836 487.148 82.1439 485.937 61.1931 480.888L60.2711 480.666C59.2049 480.409 58.3232 479.662 57.8938 478.653C49.1142 458.023 46.5267 435.283 50.4469 413.207L69.321 306.921L80.9506 268.067C85.2367 253.748 99.0076 244.421 113.895 245.755L119.654 245.276C126.891 244.674 134.11 246.638 140.045 250.822C147.948 256.393 152.792 265.339 153.138 275.002L153.633 288.794C153.844 294.705 153.163 300.615 151.61 306.322L136.475 361.963L110.787 426.841C110.589 427.34 111.064 427.843 111.574 427.674C125.84 422.949 140.571 419.763 155.515 418.17L157.423 417.967Z" fill="#A80B0B"/>
<path d="M371.718 363.202L380.144 358.581C382.546 357.264 385.442 357.211 387.89 358.441C390.13 359.567 391.744 361.641 392.285 364.088L395.69 379.501C396.284 382.189 396.609 384.929 396.661 387.681L397.097 410.963L397.416 414.899C397.954 421.535 393.644 427.596 387.2 429.267C377.325 433.209 366.915 435.649 356.317 436.506L344.156 437.49L329.459 440.276L314.41 443.987L178.303 477.798L125.219 484.463C103.836 487.148 82.1439 485.937 61.1931 480.888L60.2711 480.666C59.2049 480.409 58.3232 479.662 57.8938 478.653V478.653C49.1142 458.023 46.5267 435.283 50.4469 413.207L69.3211 306.921L80.9506 268.067C85.2367 253.748 99.0076 244.421 113.895 245.755V245.755L119.654 245.276C126.891 244.674 134.11 246.638 140.045 250.822V250.822C147.948 256.393 152.792 265.339 153.138 275.002L153.633 288.794C153.844 294.705 153.163 300.615 151.61 306.322L136.475 361.963L110.787 426.841C110.589 427.34 111.064 427.843 111.574 427.674V427.674C125.84 422.949 140.571 419.763 155.515 418.17L157.423 417.967L212.913 411.555L314.76 410.053L316.684 409.852C321.629 408.982 326.39 407.278 330.764 404.813C330.871 404.752 330.949 404.65 330.977 404.53L333.844 392.481C335.815 384.2 339.719 376.503 345.238 370.022L352.18 361.867C353.748 360.026 355.771 358.629 358.048 357.815C360.887 356.801 363.98 356.743 366.855 357.651L370.272 358.73C370.77 358.887 371.216 359.177 371.562 359.568C372.535 360.666 372.478 362.173 371.718 363.202ZM371.718 363.202L369.606 364.361M371.718 363.202C371.285 363.789 370.624 364.221 369.795 364.335L369.606 364.361M369.606 364.361L359.927 379.105M359.927 379.105L357.695 399.526C357.534 401.005 358.26 402.44 359.548 403.185M359.927 379.105L356.767 399.737C356.5 401.48 357.788 403.077 359.548 403.185M359.548 403.185L374.575 403.082C375.175 403.078 375.669 402.61 375.706 402.011L377.133 378.712C377.178 377.98 376.352 377.524 375.756 377.953L373.147 379.833C373.079 379.882 373.032 379.954 373.014 380.036L370.36 392.355C369.192 397.773 364.965 402.008 359.548 403.185Z" stroke="black" stroke-width="1.14105"/>
<path d="M289.244 31.6636L282.871 53.7404L281.311 58.8578L317.804 68.4056L314.803 50.2976L309.904 33.3181C309.085 30.4811 308.071 27.7158 306.869 25.0452L304.313 19.3691C304.047 18.7766 303.713 18.2219 303.321 17.7173L300.593 14.2075C299.421 12.7003 297.321 12.5131 295.901 13.7893C295.45 14.1952 295.105 14.7202 294.9 15.3115L289.244 31.6636Z" fill="#A80B0B" stroke="black" stroke-width="1.14105"/>
<path d="M322.365 69.2224L316.767 63.9427C314.16 61.4838 311.254 59.4127 308.128 57.7842C304.316 55.7988 300.221 54.4951 296.003 53.9239L288.25 52.8739C284.262 52.3339 280.236 52.1411 276.212 52.2974L264.401 52.9791C258.167 53.339 251.989 54.5289 246.009 56.5215L240.993 58.1929C234.645 60.3082 228.741 63.7649 223.632 68.3578L216.152 58.7348L191.976 31.0188C191.144 30.0648 190.198 29.2336 189.161 28.5465L185.553 26.1556C181.253 23.3062 175.583 24.6057 172.664 29.1095C171.549 30.8295 170.946 32.867 170.935 34.9496L170.726 74.5771C170.674 84.3247 171.593 94.0372 173.465 103.549L179.1 132.17L182.034 154.558C183.419 165.13 187.511 175.047 193.855 183.21C198.226 188.833 203.568 193.496 209.593 196.948L239.088 213.848C243.258 216.237 247.822 217.751 252.539 218.309C259.337 219.113 266.235 217.906 272.487 214.818L274.931 213.612C277.926 212.132 281.053 210.99 284.261 210.204L304.436 205.259L324.922 200.023C328.963 198.99 333.084 198.391 337.226 198.233L353.725 197.605C357.036 197.479 360.226 196.162 362.781 193.865C365.495 191.425 367.319 188.037 367.925 184.31L368.542 180.511L370.795 168.637L373.136 155.626C374.709 146.879 371.197 138.049 364.255 133.295L363.772 132.965C359.153 129.801 356.058 124.632 355.286 118.787C354.873 115.664 353.791 112.695 352.125 110.112L337.53 87.4916C333.186 80.7599 328.095 74.6258 322.365 69.2224Z" fill="#A80B0B" stroke="black" stroke-width="1.14105"/>
<path d="M335.166 314.09L388.326 296.484C388.358 296.474 388.364 296.432 388.337 296.412C383.527 292.903 379.536 288.391 376.639 283.189L363.236 259.118L350.49 226.077L334.425 230.195L289.211 241.933C285.785 242.822 282.294 243.44 278.771 243.78L275.958 244.052C272.831 244.354 269.747 245.005 266.764 245.993L256.438 249.413C252.738 250.639 249.655 253.247 247.834 256.694C244.205 263.565 235.952 266.559 228.761 263.613L223.513 261.463C222.484 261.041 221.489 260.54 220.538 259.963L210.55 253.907C192.255 242.815 176.21 228.378 163.254 211.352L158.388 204.958C150.595 214.602 140.194 221.802 128.424 225.7L124.903 226.866C120.861 228.205 116.938 229.875 113.171 231.859L99.9403 238.831C94.1756 241.869 89.1063 246.073 85.055 251.177C80.9965 256.289 78.0486 262.192 76.3996 268.508L63.269 318.798L50.121 400.682C38.2732 443.398 22.7708 485.016 3.78529 525.074L2.24484 528.324L190.929 544.565L215.177 507.085C242.887 469.213 264.931 427.505 280.615 383.277L294.877 343.06C300.19 331.339 310.159 322.372 322.375 318.326L335.166 314.09Z" fill="#EDDB3A" stroke="#C86161" stroke-width="1.14105"/>
<path d="M385.21 278.284L385.988 280.634C387.612 285.538 388.479 290.661 388.559 295.826C388.564 296.197 388.183 296.449 387.844 296.298L379.77 292.707L371.633 285.403L385.21 278.284Z" fill="url(#paint0_linear_720_65161)" stroke="#C86161" stroke-width="1.14105"/>
</mask>
<g mask="url(#mask0_720_65161)">
<path d="M384.852 277.201L385.989 280.634C387.613 285.538 388.479 290.661 388.559 295.826C388.565 296.197 388.183 296.449 387.844 296.298L379.77 292.707L371.275 284.32L384.852 277.201Z" fill="url(#paint1_linear_720_65161)" stroke="#C86161" stroke-width="1.14105"/>
<path d="M319.633 236.868L289.142 245.341C285.886 246.246 282.547 246.824 279.177 247.066C267.731 247.888 256.9 252.56 248.447 260.322L247.904 260.82L156.377 212.999L149.408 220.132C141.736 227.985 131.801 233.245 120.993 235.175C98.5434 239.185 81.2241 257.186 78.0844 279.774L76.414 291.791L72.1661 323.848C62.3493 397.931 39.6218 469.72 5.01543 535.955L178.224 540.196L247.306 427.688L258.983 405.339C266.707 390.554 273.062 375.093 277.966 359.149L284.02 339.47C284.897 336.618 286.034 333.851 287.416 331.206C292.901 320.709 302.01 312.56 313.052 308.274L364.137 288.443C393.374 274.569 421.249 257.99 447.398 238.923L454.451 233.78L499.312 198.567C515.261 186.048 530.248 172.35 544.146 157.587L581.893 117.491C582.345 117.011 582.861 116.595 583.427 116.255L595.721 106.911C595.991 106.706 596.343 106.645 596.666 106.748L608.134 110.409C616.243 112.999 624.85 113.63 633.251 112.251L643.819 110.517C646.205 110.125 648.446 109.114 650.319 107.584C652.654 105.677 654.3 103.059 655.007 100.128L655.848 96.6441C655.971 96.1365 655.953 95.6053 655.797 95.107C655.359 93.7067 654.039 92.9779 652.765 93.0967L661.074 88.2676C663.442 86.8909 664.983 84.4377 665.194 81.7061C665.386 79.2071 664.444 76.7539 662.627 75.0269L651.188 64.1516C649.193 62.255 647.014 60.5614 644.684 59.0959L624.972 46.6991L621.766 44.3929C616.361 40.5057 608.945 41.0665 604.186 45.7223C595.711 52.1429 588.246 59.7972 582.038 68.4302L574.916 78.3359C568.549 86.4233 561.497 93.947 553.838 100.823C553.445 101.235 553.001 101.595 552.517 101.894L473.106 150.978L416.277 190.622C396.241 204.599 374.878 216.569 352.496 226.359L319.633 236.868Z" fill="#FFE9CE"/>
<path d="M652.765 93.0967L661.074 88.2676C663.442 86.8909 664.983 84.4377 665.194 81.7061C665.386 79.2071 664.444 76.7539 662.627 75.0269L651.188 64.1516C649.193 62.255 647.014 60.5614 644.684 59.0959L624.972 46.6991L621.766 44.3929C616.361 40.5057 608.945 41.0665 604.186 45.7223C595.711 52.1429 588.246 59.7972 582.038 68.4302L574.916 78.3359C568.549 86.4233 561.497 93.947 553.838 100.823V100.823C553.445 101.235 553.001 101.595 552.517 101.894L473.106 150.978L416.277 190.622C396.241 204.599 374.878 216.569 352.496 226.359V226.359L319.633 236.868L289.142 245.341C285.886 246.246 282.547 246.824 279.177 247.066V247.066C267.731 247.888 256.9 252.56 248.447 260.322L247.904 260.82L156.377 212.999L149.408 220.132C141.736 227.985 131.801 233.245 120.993 235.175V235.175C98.5434 239.185 81.2241 257.186 78.0844 279.774L76.414 291.791L72.1661 323.848C62.3493 397.931 39.6218 469.72 5.01544 535.955V535.955L178.224 540.196L247.306 427.688L258.983 405.339C266.707 390.554 273.062 375.093 277.966 359.149L284.02 339.47C284.897 336.618 286.034 333.851 287.416 331.206V331.206C292.901 320.709 302.01 312.56 313.052 308.274L364.137 288.443V288.443C393.374 274.569 421.249 257.99 447.398 238.923L454.451 233.78L499.312 198.567C515.261 186.048 530.248 172.35 544.146 157.587L581.893 117.491C582.345 117.011 582.861 116.595 583.427 116.255V116.255L595.721 106.911C595.991 106.706 596.343 106.645 596.666 106.748L608.134 110.409C616.243 112.999 624.85 113.63 633.251 112.251L643.819 110.517C646.205 110.125 648.446 109.114 650.319 107.584C652.654 105.677 654.3 103.059 655.007 100.128L655.848 96.6441C655.971 96.1365 655.953 95.6053 655.797 95.107C655.359 93.7067 654.039 92.9779 652.765 93.0967ZM652.765 93.0967L650.682 94.307M652.765 93.0967C652.039 93.1644 651.327 93.5075 650.802 94.1584L650.682 94.307M650.682 94.307L633.057 94.9814M633.057 94.9814L614.418 86.3468C613.068 85.7214 612.215 84.3581 612.242 82.8706M633.057 94.9814L613.758 87.0329C612.127 86.3612 611.425 84.434 612.242 82.8706M612.242 82.8706L620.089 70.0559C620.403 69.5441 621.059 69.3625 621.591 69.6404L642.28 80.4499C642.93 80.7898 642.894 81.7328 642.219 82.0212L639.261 83.2849C639.184 83.3177 639.098 83.3208 639.019 83.2938L627.099 79.2049C621.856 77.4065 616.046 78.84 612.242 82.8706Z" stroke="#E2B98C" stroke-width="1.14105"/>
<path d="M319.633 236.868L289.142 245.341C285.886 246.246 282.547 246.824 279.177 247.066C267.731 247.888 256.9 252.56 248.447 260.322L247.904 260.82L156.377 212.999L149.408 220.132C141.736 227.985 131.801 233.245 120.993 235.175C98.5434 239.185 81.2241 257.186 78.0844 279.774L76.414 291.791L72.1661 323.848C62.3493 397.931 39.6218 469.72 5.01543 535.955L178.224 540.196L247.306 427.688L258.983 405.339C266.707 390.554 273.062 375.093 277.966 359.149L284.02 339.47C284.897 336.618 286.034 333.851 287.416 331.206C292.901 320.709 302.01 312.56 313.052 308.274L364.137 288.443C393.374 274.569 421.249 257.99 447.398 238.923L454.451 233.78L499.312 198.567C515.261 186.048 530.248 172.35 544.146 157.587L581.893 117.491C582.345 117.011 582.861 116.595 583.427 116.255L595.721 106.911C595.991 106.706 596.343 106.645 596.666 106.748L608.134 110.409C616.243 112.999 624.85 113.63 633.251 112.251L643.819 110.517C646.205 110.125 648.446 109.114 650.319 107.584C652.654 105.677 654.3 103.059 655.007 100.128L655.848 96.6441C655.971 96.1365 655.953 95.6053 655.797 95.107C655.359 93.7067 654.039 92.9779 652.765 93.0967L661.074 88.2676C663.442 86.8909 664.983 84.4377 665.194 81.7061C665.386 79.2071 664.444 76.7539 662.627 75.0269L651.188 64.1516C649.193 62.255 647.014 60.5614 644.684 59.0959L624.972 46.6991L621.766 44.3929C616.361 40.5057 608.945 41.0665 604.186 45.7223C595.711 52.1429 588.246 59.7972 582.038 68.4302L574.916 78.3359C568.549 86.4233 561.497 93.947 553.838 100.823C553.445 101.235 553.001 101.595 552.517 101.894L473.106 150.978L416.277 190.622C396.241 204.599 374.878 216.569 352.496 226.359L319.633 236.868Z" fill="url(#paint2_linear_720_65161)"/>
<path d="M319.633 236.868L289.142 245.341C285.886 246.246 282.547 246.824 279.177 247.066C267.731 247.888 256.9 252.56 248.447 260.322L247.904 260.82L156.377 212.999L149.408 220.132C141.736 227.985 131.801 233.245 120.993 235.175C98.5434 239.185 81.2241 257.186 78.0844 279.774L76.414 291.791L72.1661 323.848C62.3493 397.931 39.6218 469.72 5.01543 535.955L178.224 540.196L247.306 427.688L258.983 405.339C266.707 390.554 273.062 375.093 277.966 359.149L284.02 339.47C284.897 336.618 286.034 333.851 287.416 331.206C292.901 320.709 302.01 312.56 313.052 308.274L364.137 288.443C393.374 274.569 421.249 257.99 447.398 238.923L454.451 233.78L499.312 198.567C515.261 186.048 530.248 172.35 544.146 157.587L581.893 117.491C582.345 117.011 582.861 116.595 583.427 116.255L595.721 106.911C595.991 106.706 596.343 106.645 596.666 106.748L608.134 110.409C616.243 112.999 624.85 113.63 633.251 112.251L643.819 110.517C646.205 110.125 648.446 109.114 650.319 107.584C652.654 105.677 654.3 103.059 655.007 100.128L655.848 96.6441C655.971 96.1365 655.953 95.6053 655.797 95.107C655.359 93.7067 654.039 92.9779 652.765 93.0967L661.074 88.2676C663.442 86.8909 664.983 84.4377 665.194 81.7061C665.386 79.2071 664.444 76.7539 662.627 75.0269L651.188 64.1516C649.193 62.255 647.014 60.5614 644.684 59.0959L624.972 46.6991L621.766 44.3929C616.361 40.5057 608.945 41.0665 604.186 45.7223C595.711 52.1429 588.246 59.7972 582.038 68.4302L574.916 78.3359C568.549 86.4233 561.497 93.947 553.838 100.823C553.445 101.235 553.001 101.595 552.517 101.894L473.106 150.978L416.277 190.622C396.241 204.599 374.878 216.569 352.496 226.359L319.633 236.868Z" fill="url(#paint3_linear_720_65161)"/>
<path d="M156.221 213.285L168.896 189.025C176.215 175.017 180.482 159.618 181.418 143.842L288.243 208.237L283.072 211.973C266.292 224.097 253.896 241.337 247.747 261.105L228.786 279.606L202.455 274.504L156.221 213.285Z" fill="#FFE9CE" stroke="#FFE3C5" stroke-width="1.14105"/>
<path d="M156.221 213.285L168.896 189.025C176.215 175.017 180.482 159.618 181.418 143.842L288.243 208.237L283.072 211.973C266.292 224.097 253.896 241.337 247.747 261.105L228.786 279.606L202.455 274.504L156.221 213.285Z" fill="url(#paint4_linear_720_65161)"/>
<path d="M335.166 314.091L388.326 296.484C388.358 296.474 388.364 296.432 388.337 296.412C383.527 292.903 379.536 288.392 376.639 283.189L363.236 259.118L350.49 226.077L334.425 230.196L289.211 241.933C285.785 242.822 282.294 243.44 278.771 243.78L275.958 244.052C272.831 244.354 269.747 245.006 266.764 245.993L256.438 249.413C252.738 250.639 249.655 253.248 247.834 256.694C244.205 263.565 235.952 266.559 228.761 263.613L223.513 261.463C222.484 261.042 221.489 260.54 220.538 259.963L210.55 253.908C192.255 242.815 176.21 228.379 163.254 211.353L158.388 204.958C150.595 214.602 140.194 221.802 128.424 225.7L124.903 226.866C120.861 228.205 116.938 229.875 113.171 231.86L99.9403 238.832C94.1756 241.869 89.1063 246.074 85.055 251.177C80.9965 256.29 78.0486 262.192 76.3996 268.508L63.269 318.798L50.121 400.682C38.2732 443.398 22.7708 485.016 3.78529 525.074L2.24484 528.324L190.929 544.565L215.177 507.085C242.887 469.213 264.931 427.506 280.615 383.277L294.877 343.06C300.19 331.339 310.159 322.373 322.375 318.327L335.166 314.091Z" fill="#E4C49D" stroke="#C86161" stroke-width="1.14105"/>
<path d="M335.166 314.091L387.7 296.692C383.294 292.985 379.6 288.508 376.799 283.477L363.236 259.118L350.49 226.077L334.425 230.196L289.211 241.933C285.785 242.822 282.294 243.44 278.771 243.78L275.958 244.052C272.83 244.354 269.747 245.006 266.764 245.993L256.437 249.413C252.738 250.639 249.655 253.248 247.834 256.694C244.205 263.565 235.952 266.559 228.761 263.613L223.513 261.463C222.484 261.042 221.489 260.54 220.538 259.963L210.55 253.908C192.255 242.815 176.21 228.379 163.254 211.353L158.388 204.959C150.595 214.602 140.194 221.802 128.424 225.7L124.903 226.866C120.861 228.205 116.938 229.875 113.171 231.86L99.9403 238.832C94.1756 241.869 89.1063 246.074 85.0549 251.177C80.9965 256.29 78.0486 262.192 76.3996 268.508L63.269 318.798L50.121 400.682C38.2732 443.398 22.7708 485.016 3.78529 525.074L2.24484 528.324L190.929 544.565L215.177 507.085C242.887 469.213 264.931 427.506 280.615 383.277L294.877 343.06C300.19 331.339 310.159 322.373 322.375 318.327L335.166 314.091Z" fill="url(#paint5_linear_720_65161)"/>
<path d="M335.166 314.091L387.7 296.692C383.294 292.985 379.6 288.508 376.799 283.477L363.236 259.118L350.49 226.077L334.425 230.196L289.211 241.933C285.785 242.822 282.294 243.44 278.771 243.78L275.958 244.052C272.83 244.354 269.747 245.006 266.764 245.993L256.437 249.413C252.738 250.639 249.655 253.248 247.834 256.694C244.205 263.565 235.952 266.559 228.761 263.613L223.513 261.463C222.484 261.042 221.489 260.54 220.538 259.963L210.55 253.908C192.255 242.815 176.21 228.379 163.254 211.353L158.388 204.959C150.595 214.602 140.194 221.802 128.424 225.7L124.903 226.866C120.861 228.205 116.938 229.875 113.171 231.86L99.9403 238.832C94.1756 241.869 89.1063 246.074 85.0549 251.177C80.9965 256.29 78.0486 262.192 76.3996 268.508L63.269 318.798L50.121 400.682C38.2732 443.398 22.7708 485.016 3.78529 525.074L2.24484 528.324L190.929 544.565L215.177 507.085C242.887 469.213 264.931 427.506 280.615 383.277L294.877 343.06C300.19 331.339 310.159 322.373 322.375 318.327L335.166 314.091Z" fill="url(#paint6_linear_720_65161)"/>
<g filter="url(#filter0_f_720_65161)">
<ellipse cx="310.144" cy="357.908" rx="79.3031" ry="61.0462" transform="rotate(-47.9766 310.144 357.908)" fill="#670A0A"/>
</g>
<g filter="url(#filter1_f_720_65161)">
<path d="M94.7903 411.811L74.5844 397.448L78.2302 378.292L87.8653 320.532C88.9336 314.128 91.344 308.022 94.9383 302.615L98.3844 297.432C101.849 292.22 106.959 288.32 112.899 286.352L115.003 285.656C119.118 284.293 123.554 284.236 127.703 285.493C132.996 287.097 137.443 290.724 140.08 295.586L143.875 302.584C146.355 307.157 147.928 312.166 148.508 317.337L152.046 348.893L150.004 419.506L139.853 421.503C131.379 423.171 122.64 422.936 114.267 420.815C107.274 419.044 100.67 415.991 94.7903 411.811Z" fill="#761111"/>
</g>
<path d="M157.422 417.967L212.912 411.556L314.759 410.053L316.683 409.853C321.628 408.982 326.389 407.278 330.763 404.813C330.87 404.753 330.948 404.65 330.976 404.53L333.843 392.481C335.814 384.2 339.718 376.503 345.237 370.022L352.179 361.868C353.747 360.027 355.77 358.629 358.047 357.816C360.886 356.801 363.979 356.743 366.854 357.651L370.271 358.73C370.769 358.888 371.215 359.177 371.561 359.568C372.534 360.666 372.477 362.173 371.717 363.203L380.143 358.581C382.545 357.264 385.441 357.212 387.889 358.442C390.129 359.567 391.743 361.641 392.284 364.088L395.689 379.501C396.283 382.189 396.608 384.929 396.66 387.681L397.096 410.963L397.415 414.9C397.953 421.535 393.643 427.597 387.199 429.267C377.324 433.209 366.914 435.649 356.316 436.507L344.155 437.49L329.458 440.276L314.409 443.987L178.302 477.798L125.218 484.464C103.835 487.149 82.1429 485.937 61.1922 480.888L60.2701 480.666C59.2039 480.409 58.3222 479.663 57.8928 478.653C49.1132 458.023 46.5258 435.283 50.4459 413.208L69.3201 306.922L80.9496 268.068C85.2358 253.748 99.0066 244.421 113.894 245.755L119.653 245.276C126.89 244.675 134.109 246.638 140.045 250.822C147.947 256.393 152.791 265.339 153.137 275.002L153.632 288.794C153.843 294.706 153.162 300.615 151.609 306.323L136.474 361.963L110.786 426.841C110.588 427.34 111.063 427.843 111.573 427.674C125.839 422.95 140.57 419.763 155.514 418.171L157.422 417.967Z" fill="#FFE9CE"/>
<path d="M371.717 363.203L380.143 358.581C382.545 357.264 385.441 357.212 387.889 358.442C390.129 359.567 391.743 361.641 392.284 364.088L395.689 379.501C396.283 382.189 396.608 384.929 396.66 387.681L397.096 410.963L397.415 414.9C397.953 421.535 393.643 427.597 387.199 429.267C377.324 433.209 366.914 435.649 356.316 436.507L344.155 437.49L329.458 440.276L314.409 443.987L178.302 477.798L125.218 484.464C103.835 487.149 82.1429 485.937 61.1921 480.888L60.2701 480.666C59.2039 480.409 58.3222 479.663 57.8928 478.653V478.653C49.1132 458.023 46.5258 435.283 50.4459 413.208L69.3201 306.922L80.9496 268.068C85.2358 253.748 99.0066 244.421 113.894 245.755V245.755L119.653 245.276C126.89 244.675 134.109 246.638 140.045 250.822V250.822C147.947 256.393 152.791 265.339 153.137 275.002L153.632 288.794C153.843 294.706 153.162 300.615 151.609 306.323L136.474 361.963L110.786 426.841C110.588 427.34 111.063 427.843 111.573 427.674V427.674C125.839 422.95 140.57 419.763 155.514 418.171L157.422 417.967L212.912 411.556L314.759 410.053L316.683 409.853C321.628 408.982 326.389 407.278 330.763 404.813C330.87 404.753 330.948 404.65 330.976 404.53L333.843 392.481C335.814 384.2 339.718 376.503 345.237 370.022L352.179 361.868C353.747 360.027 355.77 358.629 358.047 357.816C360.886 356.801 363.979 356.743 366.854 357.651L370.271 358.73C370.769 358.888 371.215 359.177 371.561 359.568C372.534 360.666 372.477 362.173 371.717 363.203ZM371.717 363.203L369.605 364.361M371.717 363.203C371.284 363.79 370.623 364.222 369.794 364.335L369.605 364.361M369.605 364.361L359.926 379.106M359.926 379.106L357.694 399.526C357.533 401.005 358.259 402.44 359.547 403.185M359.926 379.106L356.766 399.737C356.499 401.481 357.787 403.077 359.547 403.185M359.547 403.185L374.574 403.082C375.174 403.078 375.668 402.61 375.705 402.011L377.132 378.712C377.177 377.98 376.351 377.524 375.755 377.953L373.146 379.834C373.078 379.882 373.031 379.954 373.013 380.036L370.359 392.355C369.191 397.773 364.964 402.008 359.547 403.185Z" stroke="#E2B98C" stroke-width="1.14105"/>
<path d="M157.422 417.967L212.912 411.556L314.759 410.053L316.683 409.853C321.628 408.982 326.389 407.278 330.763 404.813C330.87 404.753 330.948 404.65 330.976 404.53L333.843 392.481C335.814 384.2 339.718 376.503 345.237 370.022L352.179 361.868C353.747 360.027 355.77 358.629 358.047 357.816C360.886 356.801 363.979 356.743 366.854 357.651L370.271 358.73C370.769 358.888 371.215 359.177 371.561 359.568C372.534 360.666 372.477 362.173 371.717 363.203L380.143 358.581C382.545 357.264 385.441 357.212 387.889 358.442C390.129 359.567 391.743 361.641 392.284 364.088L395.689 379.501C396.283 382.189 396.608 384.929 396.66 387.681L397.096 410.963L397.415 414.9C397.953 421.535 393.643 427.597 387.199 429.267C377.324 433.209 366.914 435.649 356.316 436.507L344.155 437.49L329.458 440.276L314.409 443.987L178.302 477.798L125.218 484.464C103.835 487.149 82.1429 485.937 61.1922 480.888L60.2701 480.666C59.2039 480.409 58.3222 479.663 57.8928 478.653C49.1132 458.023 46.5258 435.283 50.4459 413.208L69.3201 306.922L80.9496 268.068C85.2358 253.748 99.0066 244.421 113.894 245.755L119.653 245.276C126.89 244.675 134.109 246.638 140.045 250.822C147.947 256.393 152.791 265.339 153.137 275.002L153.632 288.794C153.843 294.706 153.162 300.615 151.609 306.323L136.474 361.963L110.786 426.841C110.588 427.34 111.063 427.843 111.573 427.674C125.839 422.95 140.57 419.763 155.514 418.171L157.422 417.967Z" fill="url(#paint7_linear_720_65161)"/>
<path d="M157.422 417.967L212.912 411.556L314.759 410.053L316.683 409.853C321.628 408.982 326.389 407.278 330.763 404.813C330.87 404.753 330.948 404.65 330.976 404.53L333.843 392.481C335.814 384.2 339.718 376.503 345.237 370.022L352.179 361.868C353.747 360.027 355.77 358.629 358.047 357.816C360.886 356.801 363.979 356.743 366.854 357.651L370.271 358.73C370.769 358.888 371.215 359.177 371.561 359.568C372.534 360.666 372.477 362.173 371.717 363.203L380.143 358.581C382.545 357.264 385.441 357.212 387.889 358.442C390.129 359.567 391.743 361.641 392.284 364.088L395.689 379.501C396.283 382.189 396.608 384.929 396.66 387.681L397.096 410.963L397.415 414.9C397.953 421.535 393.643 427.597 387.199 429.267C377.324 433.209 366.914 435.649 356.316 436.507L344.155 437.49L329.458 440.276L314.409 443.987L178.302 477.798L125.218 484.464C103.835 487.149 82.1429 485.937 61.1922 480.888L60.2701 480.666C59.2039 480.409 58.3222 479.663 57.8928 478.653C49.1132 458.023 46.5258 435.283 50.4459 413.208L69.3201 306.922L80.9496 268.068C85.2358 253.748 99.0066 244.421 113.894 245.755L119.653 245.276C126.89 244.675 134.109 246.638 140.045 250.822C147.947 256.393 152.791 265.339 153.137 275.002L153.632 288.794C153.843 294.706 153.162 300.615 151.609 306.323L136.474 361.963L110.786 426.841C110.588 427.34 111.063 427.843 111.573 427.674C125.839 422.95 140.57 419.763 155.514 418.171L157.422 417.967Z" fill="url(#paint8_linear_720_65161)"/>
<path d="M71.3659 365.756L49.3081 354.674L56.0215 335.022L73.4886 279.184C76.2141 270.471 80.7723 262.443 86.8571 255.637L89.6841 252.475C95.2875 246.208 102.436 241.519 110.416 238.876L115.365 237.237C119.412 235.897 123.722 235.546 127.934 236.215C135.55 237.425 142.269 241.872 146.36 248.41L147.984 251.006C151.069 255.937 152.813 261.588 153.043 267.401L153.848 287.768C154.109 294.366 153.776 300.973 152.852 307.511L144.18 368.929L128.413 372.579C118.901 374.782 109.079 375.32 99.3825 374.171C89.6258 373.014 80.1452 370.167 71.3659 365.756Z" fill="#E4C49D" stroke="#C86161" stroke-width="1.14105"/>
<path d="M71.3659 365.756L49.3081 354.674L56.0215 335.022L73.4886 279.184C76.2141 270.471 80.7723 262.443 86.8571 255.637L89.6841 252.475C95.2875 246.208 102.436 241.519 110.416 238.876L115.365 237.237C119.412 235.897 123.722 235.546 127.934 236.215C135.55 237.425 142.269 241.872 146.36 248.41L147.984 251.006C151.069 255.937 152.813 261.588 153.043 267.401L153.848 287.768C154.109 294.366 153.776 300.973 152.852 307.511L144.18 368.929L128.413 372.579C118.901 374.782 109.079 375.32 99.3825 374.171C89.6258 373.014 80.1452 370.167 71.3659 365.756Z" fill="url(#paint9_linear_720_65161)" stroke="#C86161" stroke-width="1.14105"/>
<path d="M612.708 81.2637L619.91 70.4248C620.235 69.9362 620.877 69.7734 621.395 70.0483L636.523 78.0744L641.038 80.343C641.866 80.7589 641.879 81.9358 641.061 82.3703L638.438 83.7637L627.508 79.8568C625.414 79.1084 623.191 78.7888 620.972 78.917C619.242 79.0169 617.539 79.3872 615.925 80.0143L612.708 81.2637Z" fill="#F9AD55"/>
<path d="M362.906 402.624L374.1 402.805C374.706 402.815 375.215 402.349 375.257 401.743L376.461 384.357L376.903 379.28C376.985 378.336 375.947 377.709 375.15 378.221L373.232 379.451L370.709 391.867C370.421 393.282 369.936 394.649 369.268 395.928C368.239 397.897 366.795 399.621 365.036 400.979L362.906 402.624Z" fill="#F9AD55"/>
<path d="M289.245 31.6636L282.872 53.7404L281.312 58.8578L317.805 68.4056L314.804 50.2976L309.905 33.3181C309.086 30.4811 308.072 27.7158 306.87 25.0452L304.314 19.3691C304.048 18.7766 303.714 18.2219 303.322 17.7173L300.594 14.2075C299.422 12.7003 297.322 12.5131 295.902 13.7893C295.451 14.1952 295.106 14.7202 294.901 15.3115L289.245 31.6636Z" fill="#FFE9CE" stroke="black" stroke-width="1.14105"/>
<path d="M289.245 31.6636L282.872 53.7404L281.312 58.8578L317.805 68.4056L314.804 50.2976L309.905 33.3181C309.086 30.4811 308.072 27.7158 306.87 25.0452L304.314 19.3691C304.048 18.7766 303.714 18.2219 303.322 17.7173L300.594 14.2075C299.422 12.7003 297.322 12.5131 295.902 13.7893C295.451 14.1952 295.106 14.7202 294.901 15.3115L289.245 31.6636Z" fill="url(#paint10_linear_720_65161)" stroke="#FFE3C5" stroke-width="1.14105"/>
<path d="M295.412 41.1314L295.036 56.9223L312.977 63.0849L312.821 59.8462C312.468 52.551 311.105 45.3663 308.777 38.5283L306.95 33.1642C305.483 28.8568 303.337 24.8595 300.606 21.3452C300.038 20.6147 298.934 20.8559 298.66 21.7704L298.287 23.0121C296.526 28.8838 295.558 34.986 295.412 41.1314Z" fill="#FFF8DD" stroke="#CEBA6E" stroke-width="1.14105"/>
<path d="M295.412 41.1314L295.036 56.9223L312.977 63.0849L312.821 59.8462C312.468 52.551 311.105 45.3663 308.777 38.5283L306.95 33.1642C305.483 28.8568 303.337 24.8595 300.606 21.3452C300.038 20.6147 298.934 20.8559 298.66 21.7704L298.287 23.0121C296.526 28.8838 295.558 34.986 295.412 41.1314Z" fill="url(#paint11_linear_720_65161)" stroke="#CEBA6E" stroke-width="1.14105"/>
<mask id="mask1_720_65161" style="mask-type:alpha" maskUnits="userSpaceOnUse" x="170" y="24" width="205" height="196">
<path d="M322.366 69.2217L316.768 63.942C314.161 61.4831 311.255 59.412 308.129 57.7834C304.317 55.7981 300.222 54.4944 296.004 53.9231L288.251 52.8732C284.263 52.3332 280.237 52.1404 276.212 52.2966L264.402 52.9784C258.168 53.3382 251.99 54.5282 246.01 56.5208L240.994 58.1922C234.646 60.3075 228.742 63.7641 223.633 68.357L216.153 58.7341L191.977 31.0181C191.145 30.0641 190.199 29.2329 189.162 28.5458L185.554 26.1548C181.254 23.3055 175.584 24.605 172.665 29.1088C171.55 30.8288 170.947 32.8663 170.936 34.9489L170.727 74.5764C170.675 84.324 171.594 94.0364 173.466 103.549L179.101 132.17L182.035 154.557C183.42 165.129 187.512 175.046 193.856 183.209C198.227 188.832 203.569 193.495 209.594 196.947L239.089 213.847C243.259 216.237 247.823 217.75 252.54 218.308C259.338 219.112 266.236 217.905 272.488 214.818L274.931 213.611C277.927 212.132 281.054 210.989 284.262 210.203L304.437 205.258L324.923 200.022C328.964 198.989 333.085 198.39 337.227 198.232L353.725 197.604C357.037 197.478 360.227 196.161 362.782 193.864C365.496 191.425 367.32 188.036 367.926 184.31L368.543 180.511L370.796 168.636L373.137 155.625C374.71 146.878 371.198 138.048 364.256 133.295L363.773 132.964C359.154 129.801 356.059 124.631 355.287 118.786C354.874 115.663 353.792 112.694 352.126 110.112L337.531 87.4908C333.187 80.7591 328.096 74.625 322.366 69.2217Z" fill="#D9D9D9" stroke="black" stroke-width="1.14105"/>
</mask>
<g mask="url(#mask1_720_65161)">
<path d="M322.366 69.2229L316.768 63.9432C314.161 61.4843 311.255 59.4132 308.129 57.7846C304.317 55.7993 300.222 54.4956 296.004 53.9244L288.251 52.8744C284.263 52.3344 280.237 52.1416 276.212 52.2979L264.402 52.9796C258.168 53.3394 251.99 54.5294 246.01 56.522L240.994 58.1934C234.646 60.3087 228.742 63.7653 223.633 68.3582L216.153 58.7353L191.977 31.0193C191.145 30.0653 190.199 29.2341 189.162 28.547L185.554 26.156C181.254 23.3067 175.584 24.6062 172.665 29.11C171.55 30.83 170.947 32.8675 170.936 34.9501L170.727 74.5776C170.675 84.3252 171.594 94.0377 173.466 103.55L179.101 132.171L182.035 154.558C183.42 165.131 187.512 175.048 193.856 183.21C198.227 188.833 203.569 193.496 209.594 196.949L239.089 213.849C243.259 216.238 247.823 217.751 252.54 218.309C259.338 219.113 266.236 217.906 272.488 214.819L274.931 213.612C277.927 212.133 281.054 210.991 284.262 210.204L304.437 205.259L324.923 200.023C328.964 198.991 333.085 198.391 337.227 198.233L353.725 197.606C357.037 197.48 360.227 196.162 362.782 193.865C365.496 191.426 367.32 188.037 367.926 184.311L368.543 180.512L370.796 168.637L373.137 155.626C374.71 146.879 371.198 138.049 364.256 133.296L363.773 132.965C359.154 129.802 356.059 124.632 355.287 118.787C354.874 115.664 353.792 112.695 352.126 110.113L337.531 87.492C333.187 80.7603 328.096 74.6262 322.366 69.2229Z" fill="#FFE9CE"/>
<path d="M322.366 69.2229L316.768 63.9432C314.161 61.4843 311.255 59.4132 308.129 57.7846C304.317 55.7993 300.222 54.4956 296.004 53.9244L288.251 52.8744C284.263 52.3344 280.237 52.1416 276.212 52.2979L264.402 52.9796C258.168 53.3394 251.99 54.5294 246.01 56.522L240.994 58.1934C234.646 60.3087 228.742 63.7653 223.633 68.3582L216.153 58.7353L191.977 31.0193C191.145 30.0653 190.199 29.2341 189.162 28.547L185.554 26.156C181.254 23.3067 175.584 24.6062 172.665 29.11C171.55 30.83 170.947 32.8675 170.936 34.9501L170.727 74.5776C170.675 84.3252 171.594 94.0377 173.466 103.55L179.101 132.171L182.035 154.558C183.42 165.131 187.512 175.048 193.856 183.21C198.227 188.833 203.569 193.496 209.594 196.949L239.089 213.849C243.259 216.238 247.823 217.751 252.54 218.309C259.338 219.113 266.236 217.906 272.488 214.819L274.931 213.612C277.927 212.133 281.054 210.991 284.262 210.204L304.437 205.259L324.923 200.023C328.964 198.991 333.085 198.391 337.227 198.233L353.725 197.606C357.037 197.48 360.227 196.162 362.782 193.865C365.496 191.426 367.32 188.037 367.926 184.311L368.543 180.512L370.796 168.637L373.137 155.626C374.71 146.879 371.198 138.049 364.256 133.296L363.773 132.965C359.154 129.802 356.059 124.632 355.287 118.787C354.874 115.664 353.792 112.695 352.126 110.113L337.531 87.492C333.187 80.7603 328.096 74.6262 322.366 69.2229Z" fill="url(#paint12_linear_720_65161)" stroke="black" stroke-width="1.14105"/>
<path d="M342.479 145.294L362.194 138.682L352.187 132.286L351.861 115.165L349.393 99.7305L385.391 151.514L371.633 192.43L246.942 234.87L221.317 203.181L212.666 190.457C206.519 181.417 206.322 169.592 212.165 160.353L213.989 157.468C221.535 145.535 237.633 142.533 248.973 150.943C254.055 154.712 260.407 156.348 266.677 155.504L342.479 145.294Z" fill="#FFFBEC"/>
<path d="M310.293 105.789L308.949 104.638C306.716 102.726 303.697 102.014 300.847 102.727L296.683 103.769C295.386 104.093 294.13 104.567 292.942 105.179L286.165 108.672L292.385 110.461C293.869 110.887 295.304 111.466 296.669 112.186L301.28 114.62C302.757 115.4 304.452 115.66 306.094 115.359L307.803 115.045C310.289 114.589 312.108 112.442 312.15 109.914C312.177 108.331 311.496 106.819 310.293 105.789Z" fill="#FFFBEC"/>
<path d="M319.253 102.763L319.802 101.685C320.28 100.746 320.93 99.9203 321.712 99.2589C322.687 98.4353 323.84 97.8897 325.063 97.6727L332.239 96.3997L330.141 100.163C329.609 101.116 329.243 102.164 329.06 103.258L328.697 105.431C328.385 107.292 327.179 108.837 325.528 109.489L319.253 102.763Z" fill="#FFFBEC"/>
<g filter="url(#filter2_f_720_65161)">
<ellipse cx="364.869" cy="106.962" rx="25.5752" ry="15.4042" transform="rotate(-53.829 364.869 106.962)" fill="#EA927F"/>
</g>
</g>
<path d="M322.366 69.2226L316.768 63.943C314.161 61.484 311.255 59.413 308.129 57.7844C304.317 55.7991 300.222 54.4953 296.004 53.9241L288.251 52.8742C284.263 52.3342 280.237 52.1414 276.212 52.2976L264.402 52.9793C258.168 53.3392 251.99 54.5291 246.01 56.5218L240.994 58.1931C234.646 60.3084 228.742 63.7651 223.633 68.358L216.153 58.7351L191.977 31.0191C191.145 30.065 190.199 29.2338 189.162 28.5467L185.554 26.1558C181.254 23.3065 175.584 24.6059 172.665 29.1098C171.55 30.8298 170.947 32.8672 170.936 34.9499L170.727 74.5774C170.675 84.325 171.594 94.0374 173.466 103.55L179.101 132.171L182.035 154.558C183.42 165.13 187.512 175.047 193.856 183.21C198.227 188.833 203.569 193.496 209.594 196.948L239.089 213.848C243.259 216.238 247.823 217.751 252.54 218.309C259.338 219.113 266.236 217.906 272.488 214.819L274.931 213.612C277.927 212.132 281.054 210.99 284.262 210.204L304.437 205.259L324.923 200.023C328.964 198.99 333.085 198.391 337.227 198.233L353.725 197.605C357.037 197.479 360.227 196.162 362.782 193.865C365.496 191.426 367.32 188.037 367.926 184.311L368.543 180.512L370.796 168.637L373.137 155.626C374.71 146.879 371.198 138.049 364.256 133.296L363.773 132.965C359.154 129.802 356.059 124.632 355.287 118.787C354.874 115.664 353.792 112.695 352.126 110.113L337.531 87.4918C333.187 80.7601 328.096 74.626 322.366 69.2226Z" fill="url(#paint13_linear_720_65161)" stroke="#E2B98C" stroke-width="1.14105"/>
<g filter="url(#filter3_f_720_65161)">
<ellipse cx="261.483" cy="148.796" rx="28.5263" ry="15.4042" transform="rotate(-3.28189 261.483 148.796)" fill="#EA927F"/>
</g>
<path d="M187.099 93.0425L197.711 121.383L197.951 121.071C207.602 108.519 215.439 94.4903 221.194 79.4659L207.824 58.6929C201.248 48.4749 192.878 39.7408 183.174 32.9703L182.561 32.5427C181.22 31.6068 179.407 32.4679 179.13 34.1727C177.462 44.4288 177.672 54.9103 179.749 65.0291L181.508 73.6055C182.871 80.2446 184.74 86.7454 187.099 93.0425Z" fill="#FFF8DD" stroke="#F0DF9F" stroke-width="1.14105"/>
<path d="M187.099 93.0425L197.711 121.383L197.951 121.071C207.602 108.519 215.439 94.4903 221.194 79.4659L207.824 58.6929C201.248 48.4749 192.878 39.7408 183.174 32.9703L182.561 32.5427C181.22 31.6068 179.407 32.4679 179.13 34.1727C177.462 44.4288 177.672 54.9103 179.749 65.0291L181.508 73.6055C182.871 80.2446 184.74 86.7454 187.099 93.0425Z" fill="url(#paint14_linear_720_65161)" stroke="#CEBA6E" stroke-width="1.14105"/>
<path d="M319.732 138.414L322.647 139.944L298.963 140.967L283.982 143.681C276.926 144.958 270.27 148.147 264.645 152.944L270.103 147.214C274.995 142.079 280.927 138.234 287.423 135.988C298.133 132.285 309.711 133.154 319.732 138.414Z" fill="black" stroke="black" stroke-width="1.14105"/>
<path d="M342.778 115.785L341.645 118.145C340.832 119.839 340.616 121.749 341.033 123.547C341.046 123.601 341.077 123.648 341.121 123.681L342.631 124.786C342.898 122.183 343.903 119.692 345.522 117.618L346.677 116.138C347.485 115.104 348.388 114.151 349.375 113.292L352.383 110.676C352.064 110.325 351.566 110.203 351.111 110.365L347.238 111.745C345.295 112.437 343.685 113.895 342.778 115.785Z" fill="black" stroke="black" stroke-width="1.14105"/>
<path d="M314.384 98.1692V98.1692C327.944 113.486 343.271 126.884 360.002 138.045L363.974 140.694" stroke="#FFCB94" stroke-width="1.14105"/>
<path d="M357.928 157.722L361.876 158.098C363.743 158.275 365.607 157.643 367.054 156.342C368.441 155.096 369.336 153.332 369.555 151.414L370.023 147.318C370.207 145.713 369.689 144.116 368.622 142.992L367.436 141.745C365.871 140.097 363.274 140.415 362.053 142.404C362.048 142.412 362.04 142.418 362.03 142.42L355.812 143.706C354.463 143.985 353.241 144.756 352.353 145.889C350.499 148.256 350.476 151.688 352.299 154.034L353.037 154.983C354.259 156.556 356.017 157.54 357.928 157.722Z" fill="#2F2318" stroke="#503B24" stroke-width="1.14105"/>
<path d="M357.928 157.722L361.876 158.098C363.743 158.275 365.607 157.643 367.054 156.342C368.441 155.096 369.336 153.332 369.555 151.414L370.023 147.318C370.207 145.713 369.689 144.116 368.622 142.992L367.436 141.745C365.871 140.097 363.274 140.415 362.053 142.404C362.048 142.412 362.04 142.418 362.03 142.42L355.812 143.706C354.463 143.985 353.241 144.756 352.353 145.889C350.499 148.256 350.476 151.688 352.299 154.034L353.037 154.983C354.259 156.556 356.017 157.54 357.928 157.722Z" fill="url(#paint15_linear_720_65161)"/>
<path d="M350.657 172.526L350.667 172.526L350.677 172.525L354.022 172.205C360.576 171.58 365.477 166.097 365.546 159.683C367.154 161.639 370.659 161.32 371.568 158.508L372.001 157.168L370.585 164.974L370.585 164.974L370.583 164.986L370.011 168.929L370.327 168.974L370.011 168.929C370.004 168.974 370.001 169.02 370.002 169.067C370.133 180.74 359.676 189.691 348.162 187.76L326.68 184.157L310.85 180.603C307.385 179.825 307.731 174.78 311.269 174.482L324.651 173.355L350.657 172.526Z" fill="url(#paint16_radial_720_65161)" stroke="#E9ABCC" stroke-width="0.639312"/>
<mask id="mask2_720_65161" style="mask-type:alpha" maskUnits="userSpaceOnUse" x="308" y="152" width="66" height="37">
<path d="M350.647 172.206L353.991 171.887C360.908 171.227 365.936 165.019 365.145 158.116C365.84 161.278 370.268 161.491 371.264 158.41L373.172 152.506L370.899 165.031L370.327 168.974C370.323 169.004 370.321 169.033 370.321 169.063C370.455 180.935 359.819 190.04 348.11 188.076L326.619 184.471L310.78 180.915C306.959 180.057 307.34 174.492 311.243 174.164L324.633 173.036L350.647 172.206Z" fill="#D9D9D9"/>
</mask>
<g mask="url(#mask2_720_65161)">
<path d="M336.025 168.621L341.658 165.922C345.907 163.886 350.648 163.102 355.327 163.662L355.865 163.726C361 164.34 365.781 166.649 369.455 170.284L369.382 176.408L368.874 180.809C368.226 186.415 362.778 190.159 357.312 188.754C356.661 188.587 355.995 188.486 355.324 188.453L310.34 186.246L304.841 175.734L306.701 174.27L320.08 173.029C325.614 172.515 331.013 171.023 336.025 168.621Z" fill="url(#paint17_radial_720_65161)" stroke="#E9ABCC" stroke-width="0.639312"/>
</g>
<path d="M350.657 172.526L350.667 172.526L350.677 172.525L354.022 172.205C360.576 171.58 365.477 166.097 365.546 159.683C367.154 161.639 370.659 161.32 371.568 158.508L372.001 157.168L370.585 164.974L370.585 164.974L370.583 164.986L370.011 168.929L370.327 168.974L370.011 168.929C370.004 168.974 370.001 169.02 370.002 169.067C370.133 180.74 359.676 189.691 348.162 187.76L326.68 184.157L310.85 180.603C307.385 179.825 307.731 174.78 311.269 174.482L324.651 173.355L350.657 172.526Z" stroke="#E9ABCC" stroke-width="0.639312"/>
<g style="mix-blend-mode:soft-light">
<rect width="575.694" height="640.141" transform="matrix(0.95727 0.289196 -0.23793 0.971282 95.8301 -161.851)" fill="#D88277"/>
</g>
<g style="mix-blend-mode:soft-light">
<rect width="576.626" height="635.378" transform="matrix(0.95727 0.289196 -0.23793 0.971282 94.6973 -157.225)" fill="#FF3636"/>
</g>
<g style="mix-blend-mode:color-burn" opacity="0.5">
<rect width="576.626" height="635.378" transform="matrix(0.95727 0.289196 -0.23793 0.971282 94.6973 -157.225)" fill="#A2B0FF"/>
</g>
<g style="mix-blend-mode:color-dodge" opacity="0.5">
<ellipse cx="293.302" cy="21.6636" rx="107.829" ry="58.7641" transform="rotate(-18.3244 293.302 21.6636)" fill="#FF6636"/>
</g>
</g>
<defs>
<filter id="filter0_f_720_65161" x="183.269" y="229.151" width="253.75" height="257.515" filterUnits="userSpaceOnUse" color-interpolation-filters="sRGB">
<feFlood flood-opacity="0" result="BackgroundImageFix"/>
<feBlend mode="normal" in="SourceGraphic" in2="BackgroundImageFix" result="shape"/>
<feGaussianBlur stdDeviation="28.5263" result="effect1_foregroundBlur_720_65161"/>
</filter>
<filter id="filter1_f_720_65161" x="51.763" y="261.769" width="123.104" height="183.653" filterUnits="userSpaceOnUse" color-interpolation-filters="sRGB">
<feFlood flood-opacity="0" result="BackgroundImageFix"/>
<feBlend mode="normal" in="SourceGraphic" in2="BackgroundImageFix" result="shape"/>
<feGaussianBlur stdDeviation="11.4105" result="effect1_foregroundBlur_720_65161"/>
</filter>
<filter id="filter2_f_720_65161" x="311.08" y="50.1657" width="107.578" height="113.592" filterUnits="userSpaceOnUse" color-interpolation-filters="sRGB">
<feFlood flood-opacity="0" result="BackgroundImageFix"/>
<feBlend mode="normal" in="SourceGraphic" in2="BackgroundImageFix" result="shape"/>
<feGaussianBlur stdDeviation="17.1158" result="effect1_foregroundBlur_720_65161"/>
</filter>
<filter id="filter3_f_720_65161" x="198.759" y="99.0978" width="125.449" height="99.3962" filterUnits="userSpaceOnUse" color-interpolation-filters="sRGB">
<feFlood flood-opacity="0" result="BackgroundImageFix"/>
<feBlend mode="normal" in="SourceGraphic" in2="BackgroundImageFix" result="shape"/>
<feGaussianBlur stdDeviation="17.1158" result="effect1_foregroundBlur_720_65161"/>
</filter>
<linearGradient id="paint0_linear_720_65161" x1="386.791" y1="283.989" x2="353.567" y2="297.997" gradientUnits="userSpaceOnUse">
<stop stop-color="#400707"/>
<stop offset="1" stop-color="#F60B00"/>
</linearGradient>
<linearGradient id="paint1_linear_720_65161" x1="386.791" y1="283.989" x2="353.568" y2="297.997" gradientUnits="userSpaceOnUse">
<stop stop-color="#400707"/>
<stop offset="1" stop-color="#F60B00"/>
</linearGradient>
<linearGradient id="paint2_linear_720_65161" x1="350.367" y1="273.815" x2="518.709" y2="-26.198" gradientUnits="userSpaceOnUse">
<stop stop-color="#F9AD55"/>
<stop offset="1" stop-color="#FFE9CE" stop-opacity="0"/>
</linearGradient>
<linearGradient id="paint3_linear_720_65161" x1="649.455" y1="15.4949" x2="676.196" y2="98.2831" gradientUnits="userSpaceOnUse">
<stop stop-color="#F9AD55"/>
<stop offset="1" stop-color="#FFE9CE" stop-opacity="0"/>
</linearGradient>
<linearGradient id="paint4_linear_720_65161" x1="225.604" y1="168.658" x2="173.303" y2="319.68" gradientUnits="userSpaceOnUse">
<stop stop-color="#DB9139"/>
<stop offset="1" stop-color="#FFE9CE" stop-opacity="0"/>
</linearGradient>
<linearGradient id="paint5_linear_720_65161" x1="197.373" y1="180.245" x2="233.986" y2="530.305" gradientUnits="userSpaceOnUse">
<stop offset="0.109371" stop-color="#A80B0B"/>
<stop offset="1" stop-color="#A80B0B" stop-opacity="0"/>
</linearGradient>
<linearGradient id="paint6_linear_720_65161" x1="197.373" y1="180.245" x2="233.986" y2="530.305" gradientUnits="userSpaceOnUse">
<stop offset="0.109371" stop-color="#A80B0B"/>
<stop offset="1" stop-color="#A80B0B" stop-opacity="0"/>
</linearGradient>
<linearGradient id="paint7_linear_720_65161" x1="81.7245" y1="368.196" x2="231.001" y2="542.59" gradientUnits="userSpaceOnUse">
<stop stop-color="#F9AD55"/>
<stop offset="1" stop-color="#FFE9CE" stop-opacity="0"/>
</linearGradient>
<linearGradient id="paint8_linear_720_65161" x1="402.375" y1="341.933" x2="300.053" y2="406.106" gradientUnits="userSpaceOnUse">
<stop stop-color="#F9AD55"/>
<stop offset="1" stop-color="#FFE9CE" stop-opacity="0"/>
</linearGradient>
<linearGradient id="paint9_linear_720_65161" x1="101.213" y1="237.167" x2="106.048" y2="446.897" gradientUnits="userSpaceOnUse">
<stop offset="0.109371" stop-color="#A80B0B"/>
<stop offset="1" stop-color="#A80B0B" stop-opacity="0"/>
</linearGradient>
<linearGradient id="paint10_linear_720_65161" x1="280.114" y1="29.0576" x2="383.91" y2="148.329" gradientUnits="userSpaceOnUse">
<stop stop-color="#F9AD55"/>
<stop offset="1" stop-color="#FFE9CE" stop-opacity="0"/>
</linearGradient>
<linearGradient id="paint11_linear_720_65161" x1="289.515" y1="28.448" x2="317.223" y2="59.2685" gradientUnits="userSpaceOnUse">
<stop stop-color="#DFC568"/>
<stop offset="1" stop-color="#FFF8DD" stop-opacity="0"/>
</linearGradient>
<linearGradient id="paint12_linear_720_65161" x1="167.887" y1="34.9529" x2="379.086" y2="127.565" gradientUnits="userSpaceOnUse">
<stop stop-color="#F9AD55"/>
<stop offset="1" stop-color="#FFE9CE" stop-opacity="0"/>
</linearGradient>
<linearGradient id="paint13_linear_720_65161" x1="167.887" y1="34.9526" x2="379.086" y2="127.565" gradientUnits="userSpaceOnUse">
<stop stop-color="#F9AD55"/>
<stop offset="1" stop-color="#FFE9CE" stop-opacity="0"/>
</linearGradient>
<linearGradient id="paint14_linear_720_65161" x1="166.679" y1="42.2797" x2="219.878" y2="101.455" gradientUnits="userSpaceOnUse">
<stop stop-color="#DFC568"/>
<stop offset="1" stop-color="#FFF8DD" stop-opacity="0"/>
</linearGradient>
<linearGradient id="paint15_linear_720_65161" x1="355.778" y1="142.292" x2="367.804" y2="155.668" gradientUnits="userSpaceOnUse">
<stop stop-color="#1F1A12"/>
<stop offset="1" stop-color="#913A14" stop-opacity="0"/>
</linearGradient>
<radialGradient id="paint16_radial_720_65161" cx="0" cy="0" r="1" gradientUnits="userSpaceOnUse" gradientTransform="translate(303.883 180.881) rotate(-83.0614) scale(7.47185 22.8856)">
<stop offset="0.302083" stop-color="#E9ABCC"/>
<stop offset="1" stop-color="#731442"/>
</radialGradient>
<radialGradient id="paint17_radial_720_65161" cx="0" cy="0" r="1" gradientUnits="userSpaceOnUse" gradientTransform="translate(351.275 176.753) rotate(177.616) scale(34.6677 111.692)">
<stop offset="0.302083" stop-color="#E9ABCC"/>
<stop offset="1" stop-color="#D13982"/>
</radialGradient>
</defs>
</svg>
