<svg width="438" height="575" viewBox="0 0 438 575" fill="none" xmlns="http://www.w3.org/2000/svg">
<path d="M326.31 253.52L318.173 255.838C316.072 256.437 313.916 256.825 311.737 256.995L309.706 257.154C297.724 258.093 286.411 263.06 277.611 271.247L277.045 271.772L180.856 222.305L173.606 229.824C165.623 238.101 155.253 243.677 143.946 245.772C120.46 250.124 102.442 269.096 99.3063 292.775L97.6382 305.373L93.4063 338.977C83.6264 416.638 60.3084 491.983 24.511 561.591L205.956 564.859L277.55 446.552L289.628 423.065C297.619 407.527 304.17 391.29 309.199 374.557L316.663 349.721C316.726 349.511 316.808 349.307 316.909 349.112C318.792 345.449 324.355 347.316 323.647 351.374L318.742 379.473L289.593 442.477L215.285 567.78L231.926 570.35C262.203 528.611 289.149 484.555 312.515 438.59L336.284 391.832L353.754 352.805C365.116 327.421 366.476 298.682 357.562 272.339C354.559 258.2 340.211 249.56 326.31 253.52Z" fill="#3D3AA9"/>
<path d="M180.697 222.606L193.808 197.11C201.379 182.389 205.744 166.231 206.617 149.701L318.941 216.424L313.551 220.372C296.057 233.185 283.191 251.325 276.884 272.072L257.15 291.578L229.537 286.412L180.697 222.606Z" fill="#3D3AA9"/>
<path d="M244.437 529.929L259.188 509.492C278.172 483.19 293.223 454.262 303.866 423.62L348.898 422.892L354.688 390.214C356.528 379.826 359.626 369.699 363.914 360.059L367.216 352.635C374.662 335.892 377.403 317.437 375.143 299.253L374.564 294.594C373.598 286.817 371.371 279.25 367.971 272.189L362.18 260.164C358.279 252.062 351.552 245.664 343.265 242.174C334.961 238.678 325.665 238.341 317.13 241.229L298.969 247.375L296.541 248.197C289.525 250.571 283.606 255.406 279.879 261.807L279.685 262.181C274.375 272.392 262.181 276.905 251.503 272.611C250.422 272.177 249.377 271.658 248.376 271.06L237.874 264.785C218.637 253.291 201.734 238.279 188.048 220.534L182.908 213.87C174.812 224.024 163.966 231.635 151.665 235.798L147.985 237.043C143.761 238.473 139.663 240.248 135.731 242.352L121.921 249.745C115.903 252.965 110.622 257.403 106.414 262.776C102.197 268.158 99.1499 274.36 97.4656 280.987L84.0535 333.749L70.8375 419.602C58.7177 464.424 42.7627 508.118 23.1489 550.203L21.5575 553.618L219.293 569.35L244.437 529.929Z" fill="#3D3AA9"/>
<path d="M183.223 436.903L241.299 429.811L347.961 427.548L349.976 427.325C355.149 426.379 360.124 424.562 364.688 421.951C364.801 421.887 364.881 421.779 364.91 421.652L367.831 409.014C369.839 400.327 373.876 392.239 379.613 385.413L386.829 376.825C388.458 374.886 390.568 373.409 392.947 372.541C395.914 371.459 399.153 371.378 402.17 372.309L405.757 373.416C406.28 373.578 406.749 373.878 407.114 374.285C408.14 375.429 408.09 377.007 407.301 378.091L416.095 373.193C418.602 371.797 421.636 371.723 424.208 372.995C426.561 374.158 428.266 376.319 428.849 378.879L432.52 394.999C433.16 397.81 433.52 400.678 433.592 403.561L434.207 427.943L434.568 432.064C435.176 439.01 430.703 445.388 423.965 447.181C413.648 451.377 402.762 454.003 391.667 454.973L378.937 456.085L363.562 459.103L347.825 463.092L205.497 499.427L149.943 506.769C127.565 509.726 104.837 508.604 82.8588 503.458L81.8916 503.231C80.7731 502.969 79.8445 502.194 79.3879 501.14C70.0524 479.591 67.1883 455.791 71.1446 432.643L90.1929 321.192L102.11 280.418C106.502 265.391 120.863 255.529 136.465 256.825L142.493 256.285C150.07 255.605 157.643 257.612 163.889 261.955C172.204 267.737 177.338 277.073 177.766 287.192L178.377 301.634C178.639 307.824 177.965 314.018 176.377 320.007L160.902 378.387L134.436 446.513C134.233 447.038 134.733 447.561 135.266 447.381C150.177 442.335 165.584 438.899 181.225 437.129L183.223 436.903Z" fill="#3D3AA9"/>
<path d="M92.8521 382.877L69.6739 371.42L76.5722 350.79L94.4887 292.189C97.2843 283.045 102.004 274.604 108.331 267.435L111.271 264.104C117.097 257.502 124.552 252.543 132.893 249.72L138.065 247.97C142.295 246.539 146.807 246.142 151.223 246.814C159.208 248.03 166.276 252.642 170.604 259.462L172.323 262.17C175.588 267.314 177.453 273.221 177.733 279.308L178.714 300.634C179.032 307.543 178.728 314.466 177.805 321.32L169.138 385.708L152.649 389.638C142.701 392.008 132.417 392.639 122.253 391.501C112.027 390.356 102.077 387.438 92.8521 382.877Z" fill="#3D3AA9"/>
<path d="M318.343 31.3728L312.129 54.6245L310.602 60.0159L349.016 69.2541L345.496 50.3539L340.012 32.675C339.096 29.721 337.976 26.8464 336.661 24.0748L333.867 18.1839C333.576 17.5691 333.215 16.9952 332.794 16.4749L329.864 12.8562C328.606 11.3024 326.402 11.1501 324.942 12.5161C324.478 12.9505 324.127 13.5075 323.925 14.1309L318.343 31.3728Z" fill="#3D3AA9"/>
<path d="M353.81 70.0148L347.837 64.6025C345.056 62.0818 341.97 59.9735 338.662 58.3332C334.629 56.3336 330.313 55.0537 325.884 54.5434L317.743 53.6054C313.556 53.123 309.336 53.005 305.125 53.2525L292.771 54.2124C286.25 54.7192 279.805 56.094 273.584 58.3053L268.367 60.1601C261.763 62.5076 255.653 66.2504 250.398 71.1665L242.365 61.2452L216.47 32.7247C215.579 31.7429 214.57 30.8922 213.47 30.1943L209.642 27.7657C205.08 24.8714 199.17 26.3504 196.207 31.1276C195.075 32.952 194.486 35.0982 194.518 37.2794L195.124 78.7818C195.273 88.9906 196.437 99.1424 198.597 109.065L205.094 138.919L208.632 162.302C210.303 173.345 214.795 183.645 221.609 192.06C226.303 197.858 231.994 202.629 238.376 206.119L269.615 223.202C274.032 225.618 278.843 227.108 283.794 227.593C290.93 228.294 298.128 226.886 304.61 223.523L307.145 222.208C310.251 220.596 313.502 219.335 316.845 218.445L337.869 212.846L359.212 206.936C363.423 205.771 367.726 205.057 372.06 204.805L389.324 203.804C392.79 203.603 396.103 202.157 398.73 199.699C401.521 197.087 403.361 193.501 403.918 189.586L404.486 185.595L406.597 173.113L408.777 159.439C410.243 150.246 406.381 141.073 399.012 136.239L398.5 135.903C393.596 132.687 390.248 127.338 389.317 121.233C388.82 117.971 387.625 114.885 385.826 112.215L370.071 88.8303C365.382 81.8714 359.922 75.5538 353.81 70.0148Z" fill="#3D3AA9"/>
<mask id="mask0_695_54850" style="mask-type:alpha" maskUnits="userSpaceOnUse" x="0" y="0" width="415" height="561">
<path d="M306.023 243.493L297.886 245.811C295.784 246.41 293.628 246.797 291.45 246.968L289.419 247.127C277.437 248.066 266.124 253.033 257.323 261.219L256.758 261.745L160.569 212.278L153.319 219.797C145.336 228.074 134.966 233.65 123.659 235.745C100.173 240.097 82.1546 259.069 79.0192 282.748L77.351 295.346L73.1192 328.95C63.3393 406.611 40.0213 481.956 4.2239 551.564L185.669 554.832L257.262 436.525L269.341 413.038C277.332 397.5 283.882 381.263 288.911 364.53L296.376 339.694C296.439 339.484 296.521 339.28 296.621 339.084C298.505 335.422 304.068 337.289 303.36 341.347L298.455 369.446L269.306 432.449L194.998 557.753L211.639 560.323C241.916 518.584 268.862 474.528 292.228 428.563L315.997 381.805L333.467 342.778C344.829 317.394 346.189 288.655 337.275 262.312C334.272 248.173 319.924 239.533 306.023 243.493Z" fill="white" stroke="#FFE3C5" stroke-width="1.19515"/>
<path d="M160.41 212.579L173.521 187.083C181.092 172.362 185.457 156.204 186.33 139.674L298.654 206.397L293.264 210.345C275.77 223.157 262.904 241.298 256.597 262.045L236.863 281.551L209.25 276.385L160.41 212.579Z" fill="white" stroke="#FFE3C5" stroke-width="1.19515"/>
<path d="M224.151 519.902L238.903 499.465C257.887 473.163 272.938 444.235 283.581 413.593L328.613 412.865L334.403 380.187C336.243 369.798 339.341 359.672 343.629 350.032L346.931 342.607C354.377 325.865 357.117 307.409 354.858 289.226L354.279 284.567C353.312 276.79 351.086 269.222 347.686 262.162L341.895 250.136C337.994 242.034 331.267 235.637 322.98 232.147C314.676 228.65 305.38 228.314 296.845 231.202L278.684 237.348L276.256 238.169C269.24 240.543 263.321 245.378 259.594 251.779L259.399 252.154C254.09 262.365 241.896 266.878 231.218 262.584C230.137 262.149 229.091 261.631 228.091 261.033L217.589 254.758C198.352 243.264 181.449 228.252 167.763 210.507L162.623 203.843C154.526 213.996 143.681 221.608 131.38 225.771L127.7 227.016C123.476 228.445 119.378 230.221 115.446 232.325L101.636 239.717C95.6183 242.938 90.3372 247.376 86.1285 252.749C81.9123 258.131 78.8648 264.333 77.1804 270.959L63.7684 323.722L50.5523 409.575C38.4326 454.396 22.4775 498.091 2.86378 540.176L1.27235 543.591L199.008 559.322L224.151 519.902Z" fill="white"/>
<path d="M326.161 311.495V311.495C318.814 322.646 312.39 334.379 306.956 346.578L306.516 347.564L283.581 413.593M283.581 413.593V413.593C272.938 444.235 257.887 473.162 238.903 499.465L224.151 519.902L199.008 559.322L1.27236 543.591L2.86378 540.176C22.4775 498.091 38.4326 454.396 50.5523 409.575V409.575L63.7684 323.722L77.1804 270.959C78.8648 264.333 81.9123 258.131 86.1285 252.749V252.749C90.3372 247.376 95.6182 242.938 101.636 239.717L115.446 232.325C119.378 230.221 123.476 228.445 127.7 227.016L131.38 225.771C143.681 221.608 154.526 213.996 162.623 203.843V203.843L167.763 210.507C181.449 228.252 198.352 243.264 217.589 254.758L228.091 261.033C229.091 261.631 230.137 262.149 231.218 262.584V262.584C241.896 266.878 254.09 262.365 259.399 252.154L259.594 251.779V251.779C263.321 245.378 269.24 240.543 276.256 238.169L278.684 237.348L296.845 231.202C305.38 228.314 314.676 228.65 322.98 232.147V232.147C331.267 235.637 337.994 242.034 341.895 250.136L347.686 262.162C351.086 269.222 353.312 276.79 354.279 284.567L354.858 289.226C357.117 307.409 354.377 325.865 346.931 342.607L343.629 350.032C339.341 359.672 336.243 369.798 334.403 380.187L328.613 412.865L283.581 413.593Z" stroke="#FFE3C5" stroke-width="1.19515"/>
<path d="M162.938 426.876L221.014 419.784L327.676 417.52L329.691 417.297C334.864 416.352 339.839 414.535 344.403 411.924C344.515 411.859 344.596 411.751 344.625 411.625L347.546 398.986C349.554 390.299 353.591 382.211 359.327 375.385L366.544 366.798C368.173 364.859 370.283 363.382 372.662 362.514C375.629 361.432 378.868 361.351 381.885 362.282L385.472 363.389C385.994 363.55 386.463 363.85 386.829 364.257C387.855 365.401 387.805 366.98 387.016 368.064L395.81 363.166C398.317 361.77 401.351 361.696 403.923 362.967C406.276 364.131 407.981 366.292 408.564 368.852L412.235 384.972C412.875 387.783 413.234 390.651 413.307 393.533L413.922 417.915L414.283 422.036C414.891 428.982 410.418 435.36 403.68 437.154C393.363 441.349 382.477 443.976 371.382 444.946L358.652 446.058L343.277 449.076L327.54 453.064L185.212 489.4L129.658 496.742C107.28 499.699 84.5514 498.577 62.5736 493.43L61.6064 493.204C60.4879 492.942 59.5594 492.166 59.1027 491.112C49.7673 469.563 46.9031 445.764 50.8595 422.615L69.9077 311.165L81.8251 270.391C86.2173 255.363 100.577 245.502 116.18 246.798L122.208 246.257C129.784 245.578 137.358 247.585 143.603 251.928C151.919 257.709 157.053 267.046 157.481 277.164L158.092 291.607C158.354 297.797 157.68 303.991 156.092 309.98L140.617 368.359L114.151 436.486C113.947 437.01 114.448 437.534 114.981 437.354C129.891 432.308 145.299 428.871 160.94 427.102L162.938 426.876Z" fill="white"/>
<path d="M387.016 368.064L395.81 363.166C398.317 361.77 401.351 361.696 403.923 362.967C406.276 364.131 407.981 366.292 408.564 368.852L412.235 384.972C412.875 387.783 413.234 390.651 413.307 393.533L413.922 417.915L414.283 422.036C414.891 428.982 410.418 435.36 403.68 437.154C393.363 441.349 382.477 443.976 371.382 444.946L358.652 446.058L343.277 449.076L327.54 453.064L185.212 489.4L129.658 496.742C107.28 499.699 84.5514 498.577 62.5736 493.43L61.6064 493.204C60.4879 492.942 59.5594 492.166 59.1027 491.112V491.112C49.7673 469.563 46.9031 445.764 50.8595 422.615L69.9077 311.165L81.8251 270.391C86.2173 255.363 100.577 245.502 116.18 246.798V246.798L122.208 246.257C129.784 245.578 137.358 247.585 143.603 251.928V251.928C151.919 257.709 157.053 267.046 157.481 277.164L158.092 291.607C158.354 297.797 157.68 303.991 156.092 309.98L140.617 368.359L114.151 436.486C113.947 437.01 114.448 437.534 114.981 437.354V437.354C129.891 432.308 145.299 428.871 160.94 427.102L162.938 426.876L221.014 419.784L327.676 417.52L329.691 417.297C334.864 416.352 339.839 414.535 344.403 411.924C344.515 411.859 344.596 411.751 344.625 411.625L347.546 398.986C349.554 390.299 353.591 382.211 359.327 375.385L366.544 366.798C368.173 364.859 370.283 363.382 372.662 362.514C375.629 361.432 378.868 361.351 381.885 362.282L385.472 363.389C385.994 363.55 386.463 363.85 386.829 364.257C387.855 365.401 387.805 366.98 387.016 368.064ZM387.016 368.064L384.812 369.291M387.016 368.064C386.567 368.681 385.877 369.138 385.01 369.263L384.812 369.291M384.812 369.291L374.774 384.8M374.774 384.8L372.575 406.203C372.416 407.753 373.187 409.251 374.541 410.023M374.774 384.8L371.604 406.43C371.336 408.258 372.696 409.922 374.541 410.023M374.541 410.023L390.279 409.814C390.907 409.805 391.422 409.312 391.456 408.684L392.793 384.272C392.835 383.504 391.967 383.032 391.346 383.486L388.625 385.473C388.555 385.524 388.506 385.6 388.488 385.686L385.791 398.607C384.605 404.29 380.206 408.754 374.541 410.023Z" stroke="#FFE3C5" stroke-width="1.19515"/>
<path d="M72.567 372.85L49.3888 361.392L56.2871 340.763L74.2035 282.161C76.9992 273.017 81.719 264.577 88.046 257.408L90.9854 254.077C96.812 247.475 104.267 242.515 112.608 239.693L117.78 237.943C122.01 236.511 126.522 236.115 130.937 236.787C138.923 238.003 145.991 242.615 150.319 249.435L152.038 252.143C155.303 257.287 157.167 263.194 157.448 269.28L158.429 290.607C158.747 297.516 158.443 304.439 157.52 311.293L148.853 375.68L132.364 379.61C122.416 381.981 112.132 382.612 101.968 381.474C91.7414 380.329 81.7921 377.41 72.567 372.85Z" fill="white" stroke="#FFE3C5" stroke-width="1.19515"/>
<path d="M298.056 21.3457L291.842 44.5974L290.315 49.9888L328.729 59.227L325.209 40.3268L319.725 22.6479C318.809 19.6939 317.689 16.8193 316.374 14.0477L313.58 8.15684C313.288 7.54196 312.928 6.96807 312.507 6.44776L309.577 2.82911C308.318 1.27526 306.115 1.12298 304.655 2.48898C304.191 2.92344 303.84 3.48041 303.638 4.10384L298.056 21.3457Z" fill="white" stroke="#FFE3C5" stroke-width="1.19515"/>
<path d="M333.523 59.9876L327.55 54.5754C324.769 52.0547 321.683 49.9464 318.375 48.3061C314.342 46.3065 310.026 45.0266 305.597 44.5163L297.456 43.5783C293.269 43.0959 289.049 42.9779 284.838 43.2254L272.484 44.1853C265.963 44.6921 259.518 46.0669 253.297 48.2782L248.08 50.133C241.476 52.4804 235.365 56.2233 230.111 61.1394L222.078 51.2181L196.183 22.6976C195.292 21.7158 194.283 20.8651 193.183 20.1672L189.355 17.7386C184.793 14.8443 178.882 16.3233 175.919 21.1005C174.788 22.9249 174.199 25.0711 174.231 27.2523L174.837 68.7547C174.986 78.9635 176.15 89.1153 178.31 99.0375L184.807 128.892L188.345 152.275C190.016 163.318 194.507 173.618 201.322 182.033C206.016 187.831 211.707 192.602 218.089 196.092L249.328 213.175C253.744 215.591 258.556 217.08 263.507 217.566C270.643 218.267 277.841 216.859 284.323 213.496L286.857 212.181C289.964 210.569 293.215 209.308 296.558 208.418L317.582 202.819L338.925 196.909C343.135 195.743 347.439 195.03 351.773 194.778L369.037 193.777C372.503 193.576 375.816 192.13 378.443 189.671C381.234 187.06 383.074 183.474 383.631 179.559L384.199 175.568L386.31 163.085L388.49 149.411C389.955 140.219 386.094 131.045 378.725 126.212L378.213 125.876C373.309 122.66 369.961 117.311 369.03 111.206C368.533 107.944 367.338 104.857 365.539 102.188L349.784 78.8032C345.095 71.8443 339.635 65.5267 333.523 59.9876Z" fill="white" stroke="#FFE3C5" stroke-width="1.19515"/>
</mask>
<g mask="url(#mask0_695_54850)">
<path d="M306.023 243.493L297.886 245.811C295.784 246.41 293.628 246.797 291.45 246.968L289.419 247.127C277.437 248.066 266.124 253.033 257.323 261.219L256.758 261.745L160.569 212.278L153.319 219.796C145.336 228.074 134.966 233.65 123.659 235.745C100.173 240.096 82.1546 259.068 79.0192 282.748L77.351 295.346L73.1192 328.95C63.3393 406.611 40.0213 481.955 4.2239 551.564L185.669 554.832L257.262 436.525L269.341 413.038C277.332 397.5 283.882 381.263 288.911 364.53L296.376 339.694C296.439 339.483 296.521 339.279 296.621 339.084C298.505 335.421 304.068 337.289 303.36 341.347L298.455 369.446L269.306 432.449L194.998 557.753L211.639 560.323C241.916 518.584 268.862 474.528 292.228 428.563L315.997 381.805L333.467 342.777C344.829 317.393 346.189 288.655 337.275 262.311C334.272 248.172 319.924 239.533 306.023 243.493Z" fill="#FFE9CE" stroke="#E2B98C" stroke-width="1.19515"/>
<path d="M306.023 243.493L297.886 245.811C295.784 246.41 293.628 246.797 291.45 246.968L289.419 247.127C277.437 248.066 266.124 253.033 257.323 261.219L256.758 261.745L160.569 212.278L153.319 219.796C145.336 228.074 134.966 233.65 123.659 235.745C100.173 240.096 82.1546 259.068 79.0192 282.748L77.351 295.346L73.1192 328.95C63.3393 406.611 40.0213 481.955 4.2239 551.564L185.669 554.832L257.262 436.525L269.341 413.038C277.332 397.5 283.882 381.263 288.911 364.53L296.376 339.694C296.439 339.483 296.521 339.279 296.621 339.084C298.505 335.421 304.068 337.289 303.36 341.347L298.455 369.446L269.306 432.449L194.998 557.753L211.639 560.323C241.916 518.584 268.862 474.528 292.228 428.563L315.997 381.805L333.467 342.777C344.829 317.393 346.189 288.655 337.275 262.311C334.272 248.172 319.924 239.533 306.023 243.493Z" fill="url(#paint0_linear_695_54850)"/>
<path d="M306.023 243.493L297.886 245.811C295.784 246.41 293.628 246.797 291.45 246.968L289.419 247.127C277.437 248.066 266.124 253.033 257.323 261.219L256.758 261.745L160.569 212.278L153.319 219.796C145.336 228.074 134.966 233.65 123.659 235.745C100.173 240.096 82.1546 259.068 79.0192 282.748L77.351 295.346L73.1192 328.95C63.3393 406.611 40.0213 481.955 4.2239 551.564L185.669 554.832L257.262 436.525L269.341 413.038C277.332 397.5 283.882 381.263 288.911 364.53L296.376 339.694C296.439 339.483 296.521 339.279 296.621 339.084C298.505 335.421 304.068 337.289 303.36 341.347L298.455 369.446L269.306 432.449L194.998 557.753L211.639 560.323C241.916 518.584 268.862 474.528 292.228 428.563L315.997 381.805L333.467 342.777C344.829 317.393 346.189 288.655 337.275 262.311C334.272 248.172 319.924 239.533 306.023 243.493Z" fill="url(#paint1_linear_695_54850)"/>
<path d="M160.412 212.579L173.523 187.083C181.094 172.362 185.459 156.204 186.332 139.674L298.656 206.397L293.265 210.345C275.772 223.157 262.906 241.298 256.599 262.045L236.865 281.551L209.252 276.385L160.412 212.579Z" fill="#FFE9CE" stroke="#FFE3C5" stroke-width="1.19515"/>
<path d="M160.412 212.579L173.523 187.083C181.094 172.362 185.459 156.204 186.332 139.674L298.656 206.397L293.265 210.345C275.772 223.157 262.906 241.298 256.599 262.045L236.865 281.551L209.252 276.385L160.412 212.579Z" fill="url(#paint2_linear_695_54850)"/>
<path d="M224.151 519.902L238.903 499.465C257.887 473.163 272.938 444.235 283.581 413.593L328.613 412.865L334.403 380.187C336.243 369.798 339.341 359.672 343.629 350.032L346.931 342.608C354.377 325.865 357.117 307.41 354.858 289.226L354.279 284.567C353.312 276.79 351.086 269.223 347.686 262.162L341.895 250.137C337.994 242.035 331.267 235.637 322.98 232.147C314.676 228.65 305.38 228.314 296.845 231.202L278.684 237.348L276.256 238.169C269.24 240.544 263.321 245.378 259.594 251.779L259.399 252.154C254.09 262.365 241.896 266.878 231.218 262.584C230.137 262.15 229.091 261.631 228.091 261.033L217.589 254.758C198.352 243.264 181.449 228.252 167.763 210.507L162.623 203.843C154.526 213.997 143.681 221.608 131.38 225.771L127.7 227.016C123.476 228.445 119.378 230.221 115.446 232.325L101.636 239.717C95.6183 242.938 90.3372 247.376 86.1285 252.749C81.9123 258.131 78.8648 264.333 77.1804 270.96L63.7684 323.722L50.5523 409.575C38.4326 454.396 22.4775 498.091 2.86378 540.176L1.27235 543.591L199.008 559.322L224.151 519.902Z" fill="#E4C49D"/>
<path d="M326.161 311.495V311.495C318.814 322.646 312.39 334.38 306.956 346.578L306.516 347.564L283.581 413.593M283.581 413.593V413.593C272.938 444.235 257.887 473.163 238.903 499.465L224.151 519.902L199.008 559.323L1.27236 543.591L2.86378 540.176C22.4775 498.091 38.4326 454.396 50.5523 409.575V409.575L63.7684 323.722L77.1804 270.96C78.8648 264.333 81.9123 258.131 86.1285 252.749V252.749C90.3372 247.376 95.6182 242.938 101.636 239.717L115.446 232.325C119.378 230.221 123.476 228.445 127.7 227.016L131.38 225.771C143.681 221.608 154.526 213.997 162.623 203.843V203.843L167.763 210.507C181.449 228.252 198.352 243.264 217.589 254.758L228.091 261.033C229.091 261.631 230.137 262.15 231.218 262.584V262.584C241.896 266.878 254.09 262.365 259.399 252.154L259.594 251.779V251.779C263.321 245.378 269.24 240.544 276.256 238.169L278.684 237.348L296.845 231.202C305.38 228.314 314.676 228.65 322.98 232.147V232.147C331.267 235.637 337.994 242.035 341.895 250.137L347.686 262.162C351.086 269.223 353.312 276.79 354.279 284.567L354.858 289.226C357.117 307.41 354.377 325.865 346.931 342.608L343.629 350.032C339.341 359.672 336.243 369.798 334.403 380.187L328.613 412.865L283.581 413.593Z" stroke="#C86161" stroke-width="1.19515"/>
<path d="M224.151 519.902L238.903 499.465C257.887 473.163 272.938 444.235 283.581 413.593L328.613 412.865L334.403 380.187C336.243 369.798 339.341 359.672 343.629 350.032L346.931 342.608C354.377 325.865 357.117 307.41 354.858 289.226L354.279 284.567C353.312 276.79 351.086 269.223 347.686 262.162L341.895 250.137C337.994 242.035 331.267 235.637 322.98 232.147C314.676 228.65 305.38 228.314 296.845 231.202L278.684 237.348L276.256 238.169C269.24 240.544 263.321 245.378 259.594 251.779L259.399 252.154C254.09 262.365 241.896 266.878 231.218 262.584C230.137 262.15 229.091 261.631 228.091 261.033L217.589 254.758C198.352 243.264 181.449 228.252 167.763 210.507L162.623 203.843C154.526 213.997 143.681 221.608 131.38 225.771L127.7 227.016C123.476 228.445 119.378 230.221 115.446 232.325L101.636 239.717C95.6183 242.938 90.3372 247.376 86.1285 252.749C81.9123 258.131 78.8648 264.333 77.1804 270.96L63.7684 323.722L50.5523 409.575C38.4326 454.396 22.4775 498.091 2.86378 540.176L1.27235 543.591L199.008 559.322L224.151 519.902Z" fill="url(#paint3_linear_695_54850)"/>
<mask id="mask1_695_54850" style="mask-type:alpha" maskUnits="userSpaceOnUse" x="1" y="203" width="355" height="357">
<path d="M224.151 519.902L238.903 499.465C257.887 473.163 272.938 444.235 283.581 413.593L328.613 412.865L334.403 380.187C336.243 369.798 339.341 359.672 343.629 350.032L346.931 342.608C354.377 325.865 357.117 307.41 354.858 289.226L354.279 284.567C353.312 276.79 351.086 269.223 347.686 262.162L341.895 250.137C337.994 242.035 331.267 235.637 322.98 232.147C314.676 228.65 305.38 228.314 296.845 231.202L278.684 237.348L276.256 238.169C269.24 240.544 263.321 245.378 259.594 251.779L259.399 252.154C254.09 262.365 241.896 266.878 231.218 262.584C230.137 262.15 229.091 261.631 228.091 261.033L217.589 254.758C198.352 243.264 181.449 228.252 167.763 210.507L162.623 203.843C154.526 213.997 143.681 221.608 131.38 225.771L127.7 227.016C123.476 228.445 119.378 230.221 115.446 232.325L101.636 239.717C95.6183 242.938 90.3372 247.376 86.1285 252.749C81.9123 258.131 78.8648 264.333 77.1804 270.96L63.7684 323.722L50.5523 409.575C38.4326 454.396 22.4775 498.091 2.86378 540.176L1.27235 543.591L199.008 559.322L224.151 519.902Z" fill="url(#paint4_linear_695_54850)"/>
</mask>
<g mask="url(#mask1_695_54850)">
<g filter="url(#filter0_f_695_54850)">
<ellipse cx="307.763" cy="278.128" rx="46.0517" ry="51.6502" transform="rotate(-48.3473 307.763 278.128)" fill="#670A0A"/>
</g>
<g filter="url(#filter1_f_695_54850)">
<ellipse cx="315.784" cy="355.079" rx="46.0517" ry="24.0636" transform="rotate(-70.7019 315.784 355.079)" fill="#670A0A"/>
</g>
</g>
<g filter="url(#filter2_f_695_54850)">
<path d="M103.926 440.175L82.6651 425.267L86.3539 405.179L96.0541 344.616C97.1296 337.902 99.6128 331.49 103.341 325.803L106.915 320.35C110.508 314.869 115.834 310.749 122.043 308.648L124.241 307.904C128.542 306.448 133.188 306.359 137.542 307.648C143.097 309.292 147.78 313.06 150.574 318.135L154.596 325.439C157.225 330.212 158.906 335.448 159.549 340.859L163.469 373.887L161.808 447.86L151.19 450.021C142.325 451.825 133.171 451.638 124.387 449.474C117.05 447.666 110.113 444.513 103.926 440.175Z" fill="#761111"/>
</g>
<path d="M162.938 426.876L221.014 419.784L327.676 417.52L329.691 417.297C334.864 416.352 339.839 414.535 344.403 411.924C344.515 411.859 344.596 411.751 344.625 411.625L347.546 398.986C349.554 390.299 353.591 382.211 359.327 375.385L366.544 366.798C368.173 364.859 370.283 363.382 372.662 362.514C375.629 361.432 378.868 361.351 381.885 362.282L385.472 363.389C385.994 363.55 386.463 363.85 386.829 364.257C387.855 365.401 387.805 366.98 387.016 368.064L395.81 363.166C398.317 361.77 401.351 361.696 403.923 362.967C406.276 364.131 407.981 366.292 408.564 368.852L412.235 384.972C412.875 387.783 413.234 390.651 413.307 393.533L413.922 417.915L414.283 422.036C414.891 428.982 410.418 435.36 403.68 437.154C393.363 441.349 382.477 443.976 371.382 444.946L358.652 446.058L343.277 449.076L327.54 453.064L185.212 489.4L129.658 496.742C107.28 499.699 84.5514 498.577 62.5736 493.43L61.6064 493.204C60.4879 492.942 59.5594 492.166 59.1027 491.112C49.7673 469.563 46.9031 445.764 50.8595 422.615L69.9077 311.165L81.8251 270.391C86.2173 255.363 100.577 245.502 116.18 246.798L122.208 246.257C129.784 245.578 137.358 247.585 143.603 251.928C151.919 257.709 157.053 267.046 157.481 277.164L158.092 291.607C158.354 297.797 157.68 303.991 156.092 309.98L140.617 368.359L114.151 436.486C113.947 437.01 114.448 437.534 114.981 437.354C129.891 432.308 145.299 428.871 160.94 427.102L162.938 426.876Z" fill="#FFE9CE"/>
<path d="M387.016 368.064L395.81 363.166C398.317 361.77 401.351 361.696 403.923 362.967C406.276 364.131 407.981 366.292 408.564 368.852L412.235 384.972C412.875 387.783 413.234 390.651 413.307 393.533L413.922 417.915L414.283 422.036C414.891 428.982 410.418 435.36 403.68 437.154C393.363 441.349 382.477 443.976 371.382 444.946L358.652 446.058L343.277 449.076L327.54 453.064L185.212 489.4L129.658 496.742C107.28 499.699 84.5514 498.577 62.5736 493.43L61.6064 493.204C60.4879 492.942 59.5594 492.166 59.1027 491.112V491.112C49.7673 469.563 46.9031 445.764 50.8595 422.615L69.9077 311.165L81.8251 270.391C86.2173 255.363 100.577 245.502 116.18 246.798V246.798L122.208 246.257C129.784 245.578 137.358 247.585 143.603 251.928V251.928C151.919 257.709 157.053 267.046 157.481 277.164L158.092 291.607C158.354 297.797 157.68 303.991 156.092 309.98L140.617 368.359L114.151 436.486C113.947 437.01 114.448 437.534 114.981 437.354V437.354C129.891 432.308 145.299 428.871 160.94 427.102L162.938 426.876L221.014 419.784L327.676 417.52L329.691 417.297C334.864 416.352 339.839 414.535 344.403 411.924C344.515 411.859 344.596 411.751 344.625 411.625L347.546 398.986C349.554 390.299 353.591 382.211 359.327 375.385L366.544 366.798C368.173 364.859 370.283 363.382 372.662 362.514C375.629 361.432 378.868 361.351 381.885 362.282L385.472 363.389C385.994 363.55 386.463 363.85 386.829 364.257C387.855 365.401 387.805 366.98 387.016 368.064ZM387.016 368.064L384.812 369.291M387.016 368.064C386.567 368.681 385.877 369.138 385.01 369.263L384.812 369.291M384.812 369.291L374.774 384.8M374.774 384.8L372.575 406.203C372.416 407.753 373.187 409.251 374.541 410.023M374.774 384.8L371.604 406.43C371.336 408.258 372.696 409.922 374.541 410.023M374.541 410.023L390.279 409.814C390.907 409.805 391.422 409.312 391.456 408.684L392.793 384.272C392.835 383.504 391.967 383.032 391.346 383.486L388.625 385.473C388.555 385.524 388.506 385.6 388.488 385.686L385.791 398.607C384.605 404.29 380.206 408.754 374.541 410.023Z" stroke="#E2B98C" stroke-width="1.19515"/>
<path d="M162.938 426.876L221.014 419.784L327.676 417.52L329.691 417.297C334.864 416.352 339.839 414.535 344.403 411.924C344.515 411.859 344.596 411.751 344.625 411.625L347.546 398.986C349.554 390.299 353.591 382.211 359.327 375.385L366.544 366.798C368.173 364.859 370.283 363.382 372.662 362.514C375.629 361.432 378.868 361.351 381.885 362.282L385.472 363.389C385.994 363.55 386.463 363.85 386.829 364.257C387.855 365.401 387.805 366.98 387.016 368.064L395.81 363.166C398.317 361.77 401.351 361.696 403.923 362.967C406.276 364.131 407.981 366.292 408.564 368.852L412.235 384.972C412.875 387.783 413.234 390.651 413.307 393.533L413.922 417.915L414.283 422.036C414.891 428.982 410.418 435.36 403.68 437.154C393.363 441.349 382.477 443.976 371.382 444.946L358.652 446.058L343.277 449.076L327.54 453.064L185.212 489.4L129.658 496.742C107.28 499.699 84.5514 498.577 62.5736 493.43L61.6064 493.204C60.4879 492.942 59.5594 492.166 59.1027 491.112C49.7673 469.563 46.9031 445.764 50.8595 422.615L69.9077 311.165L81.8251 270.391C86.2173 255.363 100.577 245.502 116.18 246.798L122.208 246.257C129.784 245.578 137.358 247.585 143.603 251.928C151.919 257.709 157.053 267.046 157.481 277.164L158.092 291.607C158.354 297.797 157.68 303.991 156.092 309.98L140.617 368.359L114.151 436.486C113.947 437.01 114.448 437.534 114.981 437.354C129.891 432.308 145.299 428.871 160.94 427.102L162.938 426.876Z" fill="url(#paint5_linear_695_54850)"/>
<path d="M162.938 426.876L221.014 419.784L327.676 417.52L329.691 417.297C334.864 416.352 339.839 414.535 344.403 411.924C344.515 411.859 344.596 411.751 344.625 411.625L347.546 398.986C349.554 390.299 353.591 382.211 359.327 375.385L366.544 366.798C368.173 364.859 370.283 363.382 372.662 362.514C375.629 361.432 378.868 361.351 381.885 362.282L385.472 363.389C385.994 363.55 386.463 363.85 386.829 364.257C387.855 365.401 387.805 366.98 387.016 368.064L395.81 363.166C398.317 361.77 401.351 361.696 403.923 362.967C406.276 364.131 407.981 366.292 408.564 368.852L412.235 384.972C412.875 387.783 413.234 390.651 413.307 393.533L413.922 417.915L414.283 422.036C414.891 428.982 410.418 435.36 403.68 437.154C393.363 441.349 382.477 443.976 371.382 444.946L358.652 446.058L343.277 449.076L327.54 453.064L185.212 489.4L129.658 496.742C107.28 499.699 84.5514 498.577 62.5736 493.43L61.6064 493.204C60.4879 492.942 59.5594 492.166 59.1027 491.112C49.7673 469.563 46.9031 445.764 50.8595 422.615L69.9077 311.165L81.8251 270.391C86.2173 255.363 100.577 245.502 116.18 246.798L122.208 246.257C129.784 245.578 137.358 247.585 143.603 251.928C151.919 257.709 157.053 267.046 157.481 277.164L158.092 291.607C158.354 297.797 157.68 303.991 156.092 309.98L140.617 368.359L114.151 436.486C113.947 437.01 114.448 437.534 114.981 437.354C129.891 432.308 145.299 428.871 160.94 427.102L162.938 426.876Z" fill="url(#paint6_linear_695_54850)"/>
<path d="M378.195 409.335L390.275 409.28C390.916 409.277 391.441 408.769 391.464 408.128L392.094 390.752L392.692 385.137C392.805 384.075 391.575 383.409 390.748 384.085L389.047 385.475L386.154 399.221C385.986 400.017 385.749 400.798 385.445 401.553C384.403 404.144 382.608 406.363 380.291 407.923L378.195 409.335Z" fill="#F9AD55"/>
<path d="M72.567 372.85L49.3888 361.393L56.2871 340.763L74.2035 282.162C76.9992 273.017 81.719 264.577 88.046 257.408L90.9854 254.077C96.812 247.475 104.267 242.516 112.608 239.693L117.78 237.943C122.01 236.512 126.522 236.115 130.937 236.787C138.923 238.003 145.991 242.615 150.319 249.435L152.038 252.143C155.303 257.287 157.167 263.194 157.448 269.28L158.429 290.607C158.747 297.516 158.443 304.439 157.52 311.293L148.853 375.681L132.364 379.61C122.416 381.981 112.132 382.612 101.968 381.474C91.7414 380.329 81.7921 377.411 72.567 372.85Z" fill="#E4C49D" stroke="#C86161" stroke-width="1.19515"/>
<path d="M72.567 372.85L49.3888 361.393L56.2871 340.763L74.2035 282.162C76.9992 273.017 81.719 264.577 88.046 257.408L90.9854 254.077C96.812 247.475 104.267 242.516 112.608 239.693L117.78 237.943C122.01 236.512 126.522 236.115 130.937 236.787C138.923 238.003 145.991 242.615 150.319 249.435L152.038 252.143C155.303 257.287 157.167 263.194 157.448 269.28L158.429 290.607C158.747 297.516 158.443 304.439 157.52 311.293L148.853 375.681L132.364 379.61C122.416 381.981 112.132 382.612 101.968 381.474C91.7414 380.329 81.7921 377.411 72.567 372.85Z" fill="url(#paint7_linear_695_54850)" stroke="#C86161" stroke-width="1.19515"/>
<path d="M298.056 21.3454L291.842 44.5972L290.315 49.9886L328.729 59.2268L325.209 40.3265L319.725 22.6476C318.809 19.6937 317.689 16.819 316.374 14.0474L313.58 8.15659C313.288 7.54171 312.928 6.96782 312.507 6.44752L309.577 2.82886C308.318 1.27501 306.115 1.12273 304.655 2.48874C304.191 2.92319 303.84 3.48016 303.638 4.10359L298.056 21.3454Z" fill="#FFE9CE" stroke="black" stroke-width="1.19515"/>
<path d="M298.056 21.3454L291.842 44.5972L290.315 49.9886L328.729 59.2268L325.209 40.3265L319.725 22.6476C318.809 19.6937 317.689 16.819 316.374 14.0474L313.58 8.15659C313.288 7.54171 312.928 6.96782 312.507 6.44752L309.577 2.82886C308.318 1.27501 306.115 1.12273 304.655 2.48874C304.191 2.92319 303.84 3.48016 303.638 4.10359L298.056 21.3454Z" fill="url(#paint8_linear_695_54850)" stroke="#FFE3C5" stroke-width="1.19515"/>
<path d="M304.711 31.1318L304.647 47.6759L323.564 53.7556L323.332 50.3673C322.811 42.735 321.234 35.2397 318.653 28.1274L316.628 22.5481C315.002 18.068 312.672 13.9267 309.738 10.3034C309.128 9.55023 307.977 9.82584 307.709 10.7893L307.345 12.0973C305.623 18.2829 304.736 24.6933 304.711 31.1318Z" fill="#FFF8DD" stroke="#F0DF9F" stroke-width="1.19515"/>
<path d="M304.711 31.1318L304.647 47.6759L323.564 53.7556L323.332 50.3673C322.811 42.735 321.234 35.2397 318.653 28.1274L316.628 22.5481C315.002 18.068 312.672 13.9267 309.738 10.3034C309.128 9.55023 307.977 9.82584 307.709 10.7893L307.345 12.0973C305.623 18.2829 304.736 24.6933 304.711 31.1318Z" fill="url(#paint9_linear_695_54850)" stroke="#CEBA6E" stroke-width="1.19515"/>
<mask id="mask2_695_54850" style="mask-type:alpha" maskUnits="userSpaceOnUse" x="173" y="15" width="217" height="204">
<path d="M333.523 59.9862L327.55 54.5739C324.769 52.0532 321.683 49.945 318.375 48.3047C314.342 46.3051 310.026 45.0251 305.597 44.5148L297.456 43.5769C293.269 43.0945 289.049 42.9764 284.838 43.2239L272.484 44.1839C265.963 44.6906 259.518 46.0655 253.297 48.2768L248.079 50.1315C241.476 52.479 235.365 56.2218 230.111 61.1379L222.078 51.2166L196.183 22.6961C195.292 21.7143 194.283 20.8636 193.183 20.1657L189.355 17.7371C184.793 14.8428 178.882 16.3218 175.919 21.0991C174.788 22.9235 174.199 25.0697 174.231 27.2508L174.837 68.7533C174.986 78.9621 176.15 89.1138 178.31 99.0361L184.807 128.891L188.345 152.274C190.016 163.316 194.507 173.616 201.322 182.032C206.016 187.829 211.707 192.601 218.089 196.091L249.328 213.174C253.744 215.589 258.556 217.079 263.507 217.565C270.643 218.265 277.841 216.857 284.323 213.494L286.857 212.179C289.964 210.568 293.215 209.307 296.558 208.416L317.582 202.818L338.925 196.908C343.135 195.742 347.439 195.028 351.773 194.777L369.037 193.776C372.503 193.575 375.816 192.128 378.443 189.67C381.234 187.059 383.074 183.472 383.631 179.557L384.199 175.566L386.31 163.084L388.49 149.41C389.955 140.218 386.094 131.044 378.725 126.211L378.213 125.875C373.309 122.658 369.961 117.309 369.03 111.204C368.533 107.942 367.338 104.856 365.539 102.186L349.784 78.8017C345.095 71.8428 339.635 65.5252 333.523 59.9862Z" fill="#D9D9D9" stroke="black" stroke-width="1.19515"/>
</mask>
<g mask="url(#mask2_695_54850)">
<path d="M333.523 59.9874L327.55 54.5752C324.769 52.0545 321.683 49.9462 318.375 48.3059C314.342 46.3063 310.026 45.0263 305.597 44.516L297.456 43.5781C293.269 43.0957 289.049 42.9776 284.838 43.2251L272.484 44.1851C265.963 44.6918 259.518 46.0667 253.297 48.278L248.079 50.1328C241.476 52.4802 235.365 56.223 230.111 61.1392L222.078 51.2179L196.183 22.6973C195.292 21.7156 194.283 20.8649 193.183 20.1669L189.355 17.7383C184.793 14.8441 178.882 16.323 175.919 21.1003C174.788 22.9247 174.199 25.0709 174.231 27.2521L174.837 68.7545C174.986 78.9633 176.15 89.1151 178.31 99.0373L184.807 128.892L188.345 152.275C190.016 163.317 194.507 173.617 201.322 182.033C206.016 187.83 211.707 192.602 218.089 196.092L249.328 213.175C253.744 215.59 258.556 217.08 263.507 217.566C270.643 218.266 277.841 216.859 284.323 213.495L286.857 212.181C289.964 210.569 293.215 209.308 296.558 208.418L317.582 202.819L338.925 196.909C343.135 195.743 347.439 195.029 351.773 194.778L369.037 193.777C372.503 193.576 375.816 192.13 378.443 189.671C381.234 187.06 383.074 183.474 383.631 179.559L384.199 175.568L386.31 163.085L388.49 149.411C389.955 140.219 386.094 131.045 378.725 126.212L378.213 125.876C373.309 122.659 369.961 117.31 369.03 111.205C368.533 107.944 367.338 104.857 365.539 102.187L349.784 78.803C345.095 71.844 339.635 65.5265 333.523 59.9874Z" fill="#D9D9D9" stroke="black" stroke-width="1.19515"/>
<path d="M333.523 59.9874L327.55 54.5752C324.769 52.0545 321.683 49.9462 318.375 48.3059C314.342 46.3063 310.026 45.0263 305.597 44.516L297.456 43.5781C293.269 43.0957 289.049 42.9776 284.838 43.2251L272.484 44.1851C265.963 44.6918 259.518 46.0667 253.297 48.278L248.079 50.1328C241.476 52.4802 235.365 56.223 230.111 61.1392L222.078 51.2179L196.183 22.6973C195.292 21.7156 194.283 20.8649 193.183 20.1669L189.355 17.7383C184.793 14.8441 178.882 16.323 175.919 21.1003C174.788 22.9247 174.199 25.0709 174.231 27.2521L174.837 68.7545C174.986 78.9633 176.15 89.1151 178.31 99.0373L184.807 128.892L188.345 152.275C190.016 163.317 194.507 173.617 201.322 182.033C206.016 187.83 211.707 192.602 218.089 196.092L249.328 213.175C253.744 215.59 258.556 217.08 263.507 217.566C270.643 218.266 277.841 216.859 284.323 213.495L286.857 212.181C289.964 210.569 293.215 209.308 296.558 208.418L317.582 202.819L338.925 196.909C343.135 195.743 347.439 195.029 351.773 194.778L369.037 193.777C372.503 193.576 375.816 192.13 378.443 189.671C381.234 187.06 383.074 183.474 383.631 179.559L384.199 175.568L386.31 163.085L388.49 149.411C389.955 140.219 386.094 131.045 378.725 126.212L378.213 125.876C373.309 122.659 369.961 117.31 369.03 111.205C368.533 107.944 367.338 104.857 365.539 102.187L349.784 78.803C345.095 71.844 339.635 65.5265 333.523 59.9874Z" fill="url(#paint10_linear_695_54850)" stroke="black" stroke-width="1.19515"/>
<path d="M356.17 139.23L376.677 131.895L366.065 125.406L365.367 107.483L362.461 91.3714L401.237 144.849L387.683 187.983L257.99 235.025L230.495 202.374L221.17 189.23C214.545 179.891 214.093 167.512 220.018 157.715L221.869 154.656C229.522 142.003 246.317 138.523 258.368 147.094C263.768 150.935 270.454 152.516 277.003 151.501L356.17 139.23Z" fill="#FFFBEC"/>
<path d="M321.698 105.702L320.267 104.524C317.889 102.569 314.712 101.886 311.742 102.692L307.404 103.87C306.052 104.236 304.747 104.758 303.515 105.425L296.491 109.224L303.043 110.967C304.605 111.383 306.12 111.959 307.565 112.685L312.444 115.138C314.007 115.923 315.787 116.16 317.5 115.811L319.283 115.446C321.878 114.917 323.738 112.631 323.729 109.983C323.724 108.325 322.979 106.755 321.698 105.702Z" fill="#FFFBEC"/>
<path d="M334.886 99.3283L335.308 98.3483C335.772 97.2721 336.456 96.3231 337.31 95.5723C338.264 94.733 339.4 94.167 340.614 93.9267L348.198 92.4252L346.003 96.553C345.517 97.4671 345.189 98.4691 345.036 99.5101L344.633 102.253C344.378 103.992 343.191 105.402 341.608 105.848L334.886 99.3283Z" fill="#FFFBEC"/>
</g>
<g style="mix-blend-mode:multiply" opacity="0.5">
<path d="M333.523 59.9876L327.55 54.5754C324.769 52.0547 321.683 49.9464 318.375 48.3061C314.342 46.3065 310.026 45.0266 305.597 44.5163L297.456 43.5783C293.269 43.0959 289.049 42.9779 284.838 43.2254L272.484 44.1853C265.963 44.6921 259.518 46.0669 253.297 48.2782L248.079 50.133C241.476 52.4804 235.365 56.2233 230.111 61.1394L222.078 51.2181L196.183 22.6976C195.292 21.7158 194.283 20.8651 193.183 20.1672L189.355 17.7386C184.793 14.8443 178.882 16.3233 175.919 21.1005C174.788 22.9249 174.199 25.0711 174.231 27.2523L174.837 68.7547C174.986 78.9635 176.15 89.1153 178.31 99.0375L184.807 128.892L188.345 152.275C190.016 163.318 194.507 173.618 201.322 182.033C206.016 187.831 211.707 192.602 218.089 196.092L249.328 213.175C253.744 215.591 258.556 217.08 263.507 217.566C270.643 218.267 277.841 216.859 284.323 213.496L286.857 212.181C289.964 210.569 293.215 209.308 296.558 208.418L317.582 202.819L338.925 196.909C343.135 195.743 347.439 195.03 351.773 194.778L369.037 193.777C372.503 193.576 375.816 192.13 378.443 189.671C381.234 187.06 383.074 183.474 383.631 179.559L384.199 175.568L386.31 163.085L388.49 149.411C389.955 140.219 386.094 131.045 378.725 126.212L378.213 125.876C373.309 122.66 369.961 117.311 369.03 111.206C368.533 107.944 367.338 104.857 365.539 102.188L349.784 78.8032C345.095 71.8443 339.635 65.5267 333.523 59.9876Z" fill="#FFD8D2"/>
<path d="M333.523 59.9876L327.55 54.5754C324.769 52.0547 321.683 49.9464 318.375 48.3061C314.342 46.3065 310.026 45.0266 305.597 44.5163L297.456 43.5783C293.269 43.0959 289.049 42.9779 284.838 43.2254L272.484 44.1853C265.963 44.6921 259.518 46.0669 253.297 48.2782L248.079 50.133C241.476 52.4804 235.365 56.2233 230.111 61.1394L222.078 51.2181L196.183 22.6976C195.292 21.7158 194.283 20.8651 193.183 20.1672L189.355 17.7386C184.793 14.8443 178.882 16.3233 175.919 21.1005C174.788 22.9249 174.199 25.0711 174.231 27.2523L174.837 68.7547C174.986 78.9635 176.15 89.1153 178.31 99.0375L184.807 128.892L188.345 152.275C190.016 163.318 194.507 173.618 201.322 182.033C206.016 187.831 211.707 192.602 218.089 196.092L249.328 213.175C253.744 215.591 258.556 217.08 263.507 217.566C270.643 218.267 277.841 216.859 284.323 213.496L286.857 212.181C289.964 210.569 293.215 209.308 296.558 208.418L317.582 202.819L338.925 196.909C343.135 195.743 347.439 195.03 351.773 194.778L369.037 193.777C372.503 193.576 375.816 192.13 378.443 189.671C381.234 187.06 383.074 183.474 383.631 179.559L384.199 175.568L386.31 163.085L388.49 149.411C389.955 140.219 386.094 131.045 378.725 126.212L378.213 125.876C373.309 122.66 369.961 117.311 369.03 111.206C368.533 107.944 367.338 104.857 365.539 102.188L349.784 78.8032C345.095 71.8443 339.635 65.5267 333.523 59.9876Z" stroke="#E2B98C" stroke-width="1.19515"/>
</g>
<path d="M333.523 59.9874L327.55 54.5752C324.769 52.0545 321.683 49.9462 318.375 48.3059C314.342 46.3063 310.026 45.0263 305.597 44.516L297.456 43.5781C293.269 43.0957 289.049 42.9776 284.838 43.2251L272.484 44.1851C265.963 44.6918 259.518 46.0667 253.297 48.278L248.079 50.1328C241.476 52.4802 235.365 56.223 230.111 61.1392L222.078 51.2179L196.183 22.6973C195.292 21.7156 194.283 20.8649 193.183 20.1669L189.355 17.7383C184.793 14.8441 178.882 16.323 175.919 21.1003C174.788 22.9247 174.199 25.0709 174.231 27.2521L174.837 68.7545C174.986 78.9633 176.15 89.1151 178.31 99.0373L184.807 128.892L188.345 152.275C190.016 163.317 194.507 173.617 201.322 182.033C206.016 187.83 211.707 192.602 218.089 196.092L249.328 213.175C253.744 215.59 258.556 217.08 263.507 217.566C270.643 218.266 277.841 216.859 284.323 213.495L286.857 212.181C289.964 210.569 293.215 209.308 296.558 208.418L317.582 202.819L338.925 196.909C343.135 195.743 347.439 195.029 351.773 194.778L369.037 193.777C372.503 193.576 375.816 192.13 378.443 189.671C381.234 187.06 383.074 183.474 383.631 179.559L384.199 175.568L386.31 163.085L388.49 149.411C389.955 140.219 386.094 131.045 378.725 126.212L378.213 125.876C373.309 122.659 369.961 117.31 369.03 111.205C368.533 107.944 367.338 104.857 365.539 102.187L349.784 78.803C345.095 71.844 339.635 65.5265 333.523 59.9874Z" fill="url(#paint11_linear_695_54850)" stroke="#E2B98C" stroke-width="1.19515"/>
<path d="M192.367 87.7501L204.071 117.207L204.316 116.876C214.161 103.53 222.075 88.6756 227.789 72.8222L213.355 51.3472C206.255 40.7839 197.308 31.8119 187.006 24.924L186.355 24.4889C184.931 23.5368 183.05 24.4764 182.795 26.2674C181.262 37.0423 181.701 48.0142 184.086 58.5674L186.108 67.512C187.673 74.4361 189.766 81.2048 192.367 87.7501Z" fill="#FFF8DD" stroke="#F0DF9F" stroke-width="1.19515"/>
<path d="M192.367 87.7501L204.071 117.207L204.316 116.876C214.161 103.53 222.075 88.6756 227.789 72.8222L213.355 51.3472C206.255 40.7839 197.308 31.8119 187.006 24.924L186.355 24.4889C184.931 23.5368 183.05 24.4764 182.795 26.2674C181.262 37.0423 181.701 48.0142 184.086 58.5674L186.108 67.512C187.673 74.4361 189.766 81.2048 192.367 87.7501Z" fill="url(#paint12_linear_695_54850)" stroke="#CEBA6E" stroke-width="1.19515"/>
<path d="M325.77 90.4663V90.4663C340.279 106.213 356.741 119.739 374.702 130.671L380.588 134.254" stroke="#FFCB94" stroke-width="1.19515"/>
<g filter="url(#filter3_f_695_54850)">
<ellipse cx="342.773" cy="143.299" rx="56.988" ry="25.8791" transform="rotate(-25.7495 342.773 143.299)" fill="#EA927F"/>
</g>
<path d="M372.609 151.923L376.751 152.234C378.71 152.381 380.649 151.68 382.138 150.288C383.564 148.953 384.464 147.088 384.654 145.075L385.058 140.776C385.217 139.091 384.642 137.43 383.501 136.275L382.233 134.993C380.56 133.3 377.847 133.687 376.61 135.795C376.604 135.805 376.596 135.811 376.586 135.813L370.101 137.289C368.694 137.609 367.43 138.443 366.525 139.647C364.632 142.165 364.679 145.76 366.638 148.178L367.43 149.156C368.743 150.778 370.604 151.772 372.609 151.923Z" fill="#2F2318" stroke="#503B24" stroke-width="1.19515"/>
<path d="M372.609 151.923L376.751 152.234C378.71 152.381 380.649 151.68 382.138 150.288C383.564 148.953 384.464 147.088 384.654 145.075L385.058 140.776C385.217 139.091 384.642 137.43 383.501 136.275L382.233 134.993C380.56 133.3 377.847 133.687 376.61 135.795C376.604 135.805 376.596 135.811 376.586 135.813L370.101 137.289C368.694 137.609 367.43 138.443 366.525 139.647C364.632 142.165 364.679 145.76 366.638 148.178L367.43 149.156C368.743 150.778 370.604 151.772 372.609 151.923Z" fill="url(#paint13_linear_695_54850)"/>
<path d="M326.779 129.122L342.031 139.423L319.95 145.265C316.274 146.237 312.772 147.868 309.591 150.088L297.934 158.225C293.391 161.396 287.532 161.286 283.155 157.948C278.539 154.428 276.584 148.099 278.31 142.262L279.089 139.626C280.815 133.79 285.181 129.269 290.676 127.631L299.758 124.922C308.952 122.18 318.759 123.704 326.779 129.122Z" fill="white" stroke="#E2B98C" stroke-width="1.19515"/>
<path d="M303.789 125.044L304.333 123.945L310.806 124.054L320.269 125.771L330.445 132.025L341.379 139.731L324.498 143.761L310.305 149.051L307.756 146.7C305.809 144.904 304.276 142.707 303.263 140.261C302.018 137.258 301.601 133.944 302.047 130.724C302.319 128.756 302.909 126.825 303.789 125.044Z" fill="url(#paint14_linear_695_54850)"/>
<ellipse cx="302.404" cy="134.942" rx="3.61159" ry="3.22464" transform="rotate(-18.6951 302.404 134.942)" fill="white"/>
<path d="M326.779 129.122L342.031 139.423L319.95 145.265C316.274 146.237 312.772 147.868 309.591 150.088L297.934 158.225C293.391 161.396 287.532 161.286 283.155 157.948C278.539 154.428 276.584 148.099 278.31 142.262L279.089 139.626C280.815 133.79 285.181 129.269 290.676 127.631L299.758 124.922C308.952 122.18 318.759 123.704 326.779 129.122Z" stroke="#E2B98C" stroke-width="1.19515"/>
<path d="M354.179 104.576L352.828 114.106C352.773 114.49 352.918 114.868 353.21 115.104L363.285 123.271L365.815 117.716C366.105 117.079 366.5 116.496 366.982 115.991C368.509 114.393 369.079 112.095 368.465 110.009L368.234 109.222L365.246 102.4C364.812 101.41 364.109 100.575 363.218 99.9909C360.891 98.4663 357.768 98.9349 355.859 101.095L355.708 101.267C354.886 102.197 354.352 103.351 354.179 104.576Z" fill="white" stroke="#E2B98C" stroke-width="1.19515"/>
<path d="M356.043 105.262L354.136 105.2L353.395 108.605L352.943 114.253L363.278 122.614L366.251 116.746L367.598 115.154C367.346 112.068 365.636 109.286 362.996 107.668L361.965 107.036C360.178 105.941 358.137 105.33 356.043 105.262Z" fill="url(#paint15_linear_695_54850)"/>
<mask id="mask3_695_54850" style="mask-type:alpha" maskUnits="userSpaceOnUse" x="352" y="105" width="16" height="18">
<path d="M356.043 105.262L354.136 105.2L353.395 108.605L352.943 114.253L363.278 122.614L366.251 116.746L367.598 115.154C367.346 112.068 365.636 109.286 362.996 107.668L361.965 107.036C360.178 105.941 358.137 105.33 356.043 105.262Z" fill="url(#paint16_linear_695_54850)"/>
</mask>
<g mask="url(#mask3_695_54850)">
<circle cx="353.804" cy="115.406" r="2.3903" transform="rotate(-18.6951 353.804 115.406)" fill="white"/>
</g>
<path d="M354.179 104.576L352.828 114.106C352.773 114.49 352.918 114.868 353.21 115.104L363.285 123.271L365.815 117.716C366.105 117.079 366.5 116.496 366.982 115.991C368.509 114.393 369.079 112.095 368.465 110.009L368.234 109.222L365.246 102.4C364.812 101.41 364.109 100.575 363.218 99.9909C360.891 98.4663 357.768 98.9349 355.859 101.095L355.708 101.267C354.886 102.197 354.352 103.351 354.179 104.576Z" stroke="#E2B98C" stroke-width="1.19515"/>
<path d="M365.303 167.578L365.314 167.577L365.325 167.576L368.82 167.172C375.671 166.381 380.689 160.537 380.627 153.818C382.352 155.834 386.016 155.426 386.909 152.463L387.335 151.05L386.014 159.255L386.014 159.255L386.013 159.267L385.496 163.408C385.49 163.456 385.488 163.504 385.489 163.552C385.87 175.774 375.105 185.366 363.008 183.584L348.111 181.389C343.008 180.637 337.8 181.095 332.906 182.728L319.636 187.154C331.805 175.429 347.803 168.485 364.691 167.61L365.303 167.578ZM319.123 187.325C319.124 187.325 319.124 187.325 319.124 187.325L319.123 187.325Z" fill="url(#paint17_radial_695_54850)" stroke="#E9ABCC" stroke-width="0.669622"/>
<mask id="mask4_695_54850" style="mask-type:alpha" maskUnits="userSpaceOnUse" x="318" y="146" width="71" height="42">
<path d="M365.303 167.578L365.314 167.577L365.325 167.576L368.82 167.172C375.671 166.381 380.689 160.537 380.627 153.818C382.352 155.834 386.016 155.426 386.909 152.463L387.335 151.05L386.014 159.255L386.014 159.255L386.013 159.267L385.496 163.408C385.49 163.456 385.488 163.504 385.489 163.552C385.87 175.774 375.105 185.366 363.008 183.584L348.111 181.389C343.008 180.637 337.8 181.095 332.906 182.728L319.636 187.154C331.805 175.429 347.803 168.485 364.691 167.61L365.303 167.578ZM319.123 187.325C319.124 187.325 319.124 187.325 319.124 187.325L319.123 187.325Z" fill="url(#paint18_radial_695_54850)" stroke="#E9ABCC" stroke-width="0.669622"/>
</mask>
<g mask="url(#mask4_695_54850)">
<path d="M319.27 187.34L317.321 171.951L319.31 170.321L333.295 168.742C339.079 168.089 344.701 166.414 349.9 163.794L355.743 160.85C360.15 158.629 365.099 157.71 370.01 158.198L370.575 158.254C375.965 158.791 381.02 161.108 384.943 164.839L384.994 171.253L384.651 174.853C384.038 181.276 377.895 185.68 371.615 184.198L371.592 184.193L371.568 184.191L343.556 181.637L343.501 181.632L343.448 181.645L319.27 187.34Z" fill="url(#paint19_radial_695_54850)" stroke="#E9ABCC" stroke-width="0.669622"/>
</g>
<path d="M365.303 167.578L365.314 167.577L365.325 167.576L368.82 167.172C375.671 166.381 380.689 160.537 380.627 153.818C382.352 155.834 386.016 155.426 386.909 152.463L387.335 151.05L386.014 159.255L386.014 159.255L386.013 159.267L385.496 163.408C385.49 163.456 385.488 163.504 385.489 163.552C385.87 175.774 375.105 185.366 363.008 183.584L348.111 181.389C343.008 180.637 337.8 181.095 332.906 182.728L319.636 187.154C331.805 175.429 347.803 168.485 364.691 167.61L365.303 167.578ZM319.123 187.325C319.124 187.325 319.124 187.325 319.124 187.325L319.123 187.325Z" stroke="#E9ABCC" stroke-width="0.669622"/>
<g style="mix-blend-mode:color-dodge" opacity="0.5">
<ellipse cx="300.055" cy="14.361" rx="112.942" ry="61.5502" transform="rotate(-18.6951 300.055 14.361)" fill="#FF6636"/>
</g>
<g style="mix-blend-mode:soft-light">
<rect width="736.443" height="818.885" transform="matrix(0.959121 0.282996 -0.231641 0.972801 58.6875 -182.451)" fill="#D88277"/>
</g>
<g style="mix-blend-mode:soft-light">
<rect width="737.635" height="812.792" transform="matrix(0.959121 0.282996 -0.231641 0.972801 57.2773 -176.525)" fill="#FF3636"/>
</g>
<g style="mix-blend-mode:color-burn" opacity="0.5">
<rect width="737.635" height="812.792" transform="matrix(0.959121 0.282996 -0.231641 0.972801 57.2773 -176.525)" fill="#A2B0FF"/>
</g>
</g>
<defs>
<filter id="filter0_f_695_54850" x="198.748" y="169.766" width="218.031" height="216.723" filterUnits="userSpaceOnUse" color-interpolation-filters="sRGB">
<feFlood flood-opacity="0" result="BackgroundImageFix"/>
<feBlend mode="normal" in="SourceGraphic" in2="BackgroundImageFix" result="shape"/>
<feGaussianBlur stdDeviation="29.8787" result="effect1_foregroundBlur_695_54850"/>
</filter>
<filter id="filter1_f_695_54850" x="228.684" y="251.128" width="174.2" height="207.902" filterUnits="userSpaceOnUse" color-interpolation-filters="sRGB">
<feFlood flood-opacity="0" result="BackgroundImageFix"/>
<feBlend mode="normal" in="SourceGraphic" in2="BackgroundImageFix" result="shape"/>
<feGaussianBlur stdDeviation="29.8787" result="effect1_foregroundBlur_695_54850"/>
</filter>
<filter id="filter2_f_695_54850" x="58.763" y="282.84" width="128.609" height="192.311" filterUnits="userSpaceOnUse" color-interpolation-filters="sRGB">
<feFlood flood-opacity="0" result="BackgroundImageFix"/>
<feBlend mode="normal" in="SourceGraphic" in2="BackgroundImageFix" result="shape"/>
<feGaussianBlur stdDeviation="11.9515" result="effect1_foregroundBlur_695_54850"/>
</filter>
<filter id="filter3_f_695_54850" x="254.362" y="73.4409" width="176.822" height="139.717" filterUnits="userSpaceOnUse" color-interpolation-filters="sRGB">
<feFlood flood-opacity="0" result="BackgroundImageFix"/>
<feBlend mode="normal" in="SourceGraphic" in2="BackgroundImageFix" result="shape"/>
<feGaussianBlur stdDeviation="17.9272" result="effect1_foregroundBlur_695_54850"/>
</filter>
<linearGradient id="paint0_linear_695_54850" x1="274.81" y1="405.836" x2="331.477" y2="577.867" gradientUnits="userSpaceOnUse">
<stop stop-color="#F9AD55"/>
<stop offset="1" stop-color="#FFE9CE" stop-opacity="0"/>
</linearGradient>
<linearGradient id="paint1_linear_695_54850" x1="364.903" y1="227.552" x2="377.237" y2="589.604" gradientUnits="userSpaceOnUse">
<stop stop-color="#F9AD55"/>
<stop offset="1" stop-color="#FFE9CE" stop-opacity="0"/>
</linearGradient>
<linearGradient id="paint2_linear_695_54850" x1="232.78" y1="165.367" x2="179.024" y2="323.9" gradientUnits="userSpaceOnUse">
<stop stop-color="#D1944D"/>
<stop offset="1" stop-color="#FFE9CE" stop-opacity="0"/>
</linearGradient>
<linearGradient id="paint3_linear_695_54850" x1="178.002" y1="186.251" x2="211.346" y2="551.727" gradientUnits="userSpaceOnUse">
<stop offset="0.109371" stop-color="#A80B0B"/>
<stop offset="1" stop-color="#A80B0B" stop-opacity="0"/>
</linearGradient>
<linearGradient id="paint4_linear_695_54850" x1="178.002" y1="186.251" x2="211.346" y2="551.727" gradientUnits="userSpaceOnUse">
<stop offset="0.109371" stop-color="#A80B0B"/>
<stop offset="1" stop-color="#A80B0B" stop-opacity="0"/>
</linearGradient>
<linearGradient id="paint5_linear_695_54850" x1="83.3153" y1="375.259" x2="240.848" y2="556.906" gradientUnits="userSpaceOnUse">
<stop stop-color="#F9AD55"/>
<stop offset="1" stop-color="#FFE9CE" stop-opacity="0"/>
</linearGradient>
<linearGradient id="paint6_linear_695_54850" x1="418.983" y1="345.578" x2="312.247" y2="413.486" gradientUnits="userSpaceOnUse">
<stop stop-color="#F9AD55"/>
<stop offset="1" stop-color="#FFE9CE" stop-opacity="0"/>
</linearGradient>
<linearGradient id="paint7_linear_695_54850" x1="102.957" y1="237.966" x2="109.442" y2="457.601" gradientUnits="userSpaceOnUse">
<stop offset="0.109371" stop-color="#A80B0B"/>
<stop offset="1" stop-color="#A80B0B" stop-opacity="0"/>
</linearGradient>
<linearGradient id="paint8_linear_695_54850" x1="288.44" y1="18.8067" x2="399.621" y2="141.546" gradientUnits="userSpaceOnUse">
<stop stop-color="#F9AD55"/>
<stop offset="1" stop-color="#FFE9CE" stop-opacity="0"/>
</linearGradient>
<linearGradient id="paint9_linear_695_54850" x1="298.272" y1="17.9726" x2="327.93" y2="49.6706" gradientUnits="userSpaceOnUse">
<stop stop-color="#DFC568"/>
<stop offset="1" stop-color="#FFF8DD" stop-opacity="0"/>
</linearGradient>
<linearGradient id="paint10_linear_695_54850" x1="171.037" y1="27.3185" x2="394.136" y2="119.902" gradientUnits="userSpaceOnUse">
<stop stop-color="#F9AD55"/>
<stop offset="1" stop-color="#FFE9CE" stop-opacity="0"/>
</linearGradient>
<linearGradient id="paint11_linear_695_54850" x1="171.037" y1="27.3185" x2="394.136" y2="119.902" gradientUnits="userSpaceOnUse">
<stop stop-color="#F9AD55"/>
<stop offset="1" stop-color="#FFE9CE" stop-opacity="0"/>
</linearGradient>
<linearGradient id="paint12_linear_695_54850" x1="169.926" y1="35.0164" x2="226.869" y2="95.8765" gradientUnits="userSpaceOnUse">
<stop stop-color="#DFC568"/>
<stop offset="1" stop-color="#FFF8DD" stop-opacity="0"/>
</linearGradient>
<linearGradient id="paint13_linear_695_54850" x1="370.036" y1="135.809" x2="382.908" y2="149.567" gradientUnits="userSpaceOnUse">
<stop stop-color="#1F1A12"/>
<stop offset="1" stop-color="#913A14" stop-opacity="0"/>
</linearGradient>
<linearGradient id="paint14_linear_695_54850" x1="303.235" y1="131.887" x2="335.6" y2="155.4" gradientUnits="userSpaceOnUse">
<stop stop-color="#004381"/>
<stop offset="1" stop-color="#AFF5FF"/>
</linearGradient>
<linearGradient id="paint15_linear_695_54850" x1="361.189" y1="109.294" x2="365.939" y2="131.057" gradientUnits="userSpaceOnUse">
<stop stop-color="#004381"/>
<stop offset="1" stop-color="#AFF5FF"/>
</linearGradient>
<linearGradient id="paint16_linear_695_54850" x1="361.189" y1="109.294" x2="365.939" y2="131.057" gradientUnits="userSpaceOnUse">
<stop stop-color="#004381"/>
<stop offset="1" stop-color="#AFF5FF"/>
</linearGradient>
<radialGradient id="paint17_radial_695_54850" cx="0" cy="0" r="1" gradientUnits="userSpaceOnUse" gradientTransform="translate(330.79 177.189) rotate(-85.4319) scale(7.80952 19.2663)">
<stop offset="0.302083" stop-color="#E9ABCC"/>
<stop offset="1" stop-color="#731442"/>
</radialGradient>
<radialGradient id="paint18_radial_695_54850" cx="0" cy="0" r="1" gradientUnits="userSpaceOnUse" gradientTransform="translate(330.79 177.189) rotate(-85.4319) scale(7.80952 19.2663)">
<stop offset="0.302083" stop-color="#E9ABCC"/>
<stop offset="1" stop-color="#731442"/>
</radialGradient>
<radialGradient id="paint19_radial_695_54850" cx="0" cy="0" r="1" gradientUnits="userSpaceOnUse" gradientTransform="translate(366.04 171.992) rotate(176.476) scale(36.3113 116.987)">
<stop offset="0.302083" stop-color="#E9ABCC"/>
<stop offset="1" stop-color="#D13982"/>
</radialGradient>
</defs>
</svg>
