<svg width="1438" height="166" viewBox="0 0 1438 166" fill="none" xmlns="http://www.w3.org/2000/svg">
<mask id="mask0_790_23629" style="mask-type:alpha" maskUnits="userSpaceOnUse" x="0" y="0" width="1438" height="166">
<rect x="1.5" y="1.5" width="1435" height="163" fill="#F9F9F9" stroke="#0F0F0F" stroke-width="3"/>
</mask>
<g mask="url(#mask0_790_23629)">
<path d="M30.316 -196.862C31.5524 -199.391 34.8102 -200.904 37.5197 -200.208L1524.9 182.233C1527.5 182.903 1528.63 185.374 1527.44 187.806L1518.81 205.463C1517.62 207.899 1514.54 209.41 1511.87 208.868L-11.582 -99.7851C-14.3536 -100.347 -15.6207 -102.892 -14.3859 -105.418L30.316 -196.862Z" fill="#D6DAEE" fill-opacity="0.25"/>
<path d="M-9.66708 -45.546C-8.80655 -48.2242 -5.82135 -50.0307 -3.06314 -49.5424L1535.42 222.851C1538.08 223.321 1539.54 225.752 1538.71 228.332L1532.95 246.244C1532.12 248.827 1529.3 250.618 1526.6 250.278L-36.3028 53.8798C-39.1012 53.5281 -40.6988 51.0347 -39.8394 48.36L-9.66708 -45.546Z" fill="#D6DAEE" fill-opacity="0.25"/>
<path d="M-99.2682 161.644C-99.0925 158.849 -96.6526 156.667 -93.8576 156.804L1490.96 234.864C1493.67 234.998 1495.71 237.28 1495.54 239.997L1494.79 251.899C1494.62 254.619 1492.3 256.774 1489.57 256.744L-99.0503 239.311C-101.849 239.281 -104.002 236.965 -103.827 234.173L-99.2682 161.644Z" fill="#D6DAEE" fill-opacity="0.25"/>
</g>
</svg>
