<svg width="2286" height="663" viewBox="0 0 2286 663" fill="none" xmlns="http://www.w3.org/2000/svg">
<ellipse cx="1143" cy="331.5" rx="1143" ry="331.5" fill="url(#paint0_linear_794_337)"/>
<mask id="mask0_794_337" style="mask-type:alpha" maskUnits="userSpaceOnUse" x="0" y="0" width="2286" height="663">
<ellipse cx="1143" cy="331.5" rx="1143" ry="331.5" fill="url(#paint1_linear_794_337)"/>
</mask>
<g mask="url(#mask0_794_337)">
<path d="M251.163 356.927L246.885 360.45C244.263 362.609 241.48 364.565 238.56 366.3C179.703 401.278 205.419 491.625 273.875 490.365L1460.27 468.535C1505.44 467.704 1541.63 430.844 1541.63 385.66C1541.63 341.419 1506.89 304.976 1462.7 302.865L1011.76 281.32C969.602 274.096 967.95 214.152 1009.65 204.618L1130.69 176.938C1135.37 175.869 1140.15 175.33 1144.95 175.33H1541.63L1842.06 133.516C1845.38 133.054 1848.64 132.215 1851.77 131.015L1904.33 110.889C1939.34 97.4818 1929.73 45.5343 1892.24 45.5343C1890.12 45.5343 1887.99 45.7353 1885.9 46.1345L1703.09 81.0533L1552.86 106.768C1508.13 114.424 1462.83 118.273 1417.45 118.273H1391.45C1353.7 118.273 1316.06 114.39 1279.1 106.686L1271.84 105.172C1220.41 94.4491 1170.97 75.7398 1125.32 49.7238L1019.4 -10.647C1014.39 -13.5016 1008.73 -15.03 1002.97 -15.0871C968.452 -15.4291 955.618 30.0489 985.221 47.8011L1012.44 64.1252C1045.22 83.7816 1037.39 133.347 1000.15 141.938L734.679 203.176C715.951 207.496 698.209 215.321 682.39 226.236L647.929 250.014C594.171 287.107 531.589 309.38 466.485 314.59L328.544 325.629C300.157 327.901 273.148 338.825 251.163 356.927Z" fill="#DBEBFF"/>
<path d="M177 -21L178.96 -11.7343L187 -10.4737L178.96 -9.21305L177 0.0526314L175.04 -9.21305L167 -10.4737L175.04 -11.7343L177 -21Z" fill="#CAD1F4" fill-opacity="0.2"/>
<path d="M269 -21L270.96 -11.7343L279 -10.4737L270.96 -9.21305L269 0.0526314L267.04 -9.21305L259 -10.4737L267.04 -11.7343L269 -21Z" fill="#CAD1F4" fill-opacity="0.2"/>
<path d="M361 -21L362.96 -11.7343L371 -10.4737L362.96 -9.21305L361 0.0526314L359.04 -9.21305L351 -10.4737L359.04 -11.7343L361 -21Z" fill="#CAD1F4" fill-opacity="0.2"/>
<path d="M453 -21L454.96 -11.7343L463 -10.4737L454.96 -9.21305L453 0.0526314L451.04 -9.21305L443 -10.4737L451.04 -11.7343L453 -21Z" fill="#CAD1F4" fill-opacity="0.2"/>
<path d="M545 -21L546.96 -11.7343L555 -10.4737L546.96 -9.21305L545 0.0526314L543.04 -9.21305L535 -10.4737L543.04 -11.7343L545 -21Z" fill="#CAD1F4" fill-opacity="0.2"/>
<path d="M637 -21L638.96 -11.7343L647 -10.4737L638.96 -9.21305L637 0.0526314L635.04 -9.21305L627 -10.4737L635.04 -11.7343L637 -21Z" fill="#CAD1F4" fill-opacity="0.2"/>
<path d="M729 -21L730.96 -11.7343L739 -10.4737L730.96 -9.21305L729 0.0526314L727.04 -9.21305L719 -10.4737L727.04 -11.7343L729 -21Z" fill="#CAD1F4" fill-opacity="0.2"/>
<path d="M821 -21L822.96 -11.7343L831 -10.4737L822.96 -9.21305L821 0.0526314L819.04 -9.21305L811 -10.4737L819.04 -11.7343L821 -21Z" fill="#CAD1F4" fill-opacity="0.2"/>
<path d="M913 -21L914.96 -11.7343L923 -10.4737L914.96 -9.21305L913 0.0526314L911.04 -9.21305L903 -10.4737L911.04 -11.7343L913 -21Z" fill="#CAD1F4" fill-opacity="0.2"/>
<path d="M1005 -21L1006.96 -11.7343L1015 -10.4737L1006.96 -9.21305L1005 0.0526314L1003.04 -9.21305L995 -10.4737L1003.04 -11.7343L1005 -21Z" fill="#CAD1F4" fill-opacity="0.2"/>
<path d="M1097 -21L1098.96 -11.7343L1107 -10.4737L1098.96 -9.21305L1097 0.0526314L1095.04 -9.21305L1087 -10.4737L1095.04 -11.7343L1097 -21Z" fill="#CAD1F4" fill-opacity="0.2"/>
<path d="M1189 -21L1190.96 -11.7343L1199 -10.4737L1190.96 -9.21305L1189 0.0526314L1187.04 -9.21305L1179 -10.4737L1187.04 -11.7343L1189 -21Z" fill="#CAD1F4" fill-opacity="0.2"/>
<path d="M1281 -21L1282.96 -11.7343L1291 -10.4737L1282.96 -9.21305L1281 0.0526314L1279.04 -9.21305L1271 -10.4737L1279.04 -11.7343L1281 -21Z" fill="#CAD1F4" fill-opacity="0.2"/>
<path d="M1373 -21L1374.96 -11.7343L1383 -10.4737L1374.96 -9.21305L1373 0.0526314L1371.04 -9.21305L1363 -10.4737L1371.04 -11.7343L1373 -21Z" fill="#CAD1F4" fill-opacity="0.2"/>
<path d="M1465 -21L1466.96 -11.7343L1475 -10.4737L1466.96 -9.21305L1465 0.0526314L1463.04 -9.21305L1455 -10.4737L1463.04 -11.7343L1465 -21Z" fill="#CAD1F4" fill-opacity="0.2"/>
<path d="M1557 -21L1558.96 -11.7343L1567 -10.4737L1558.96 -9.21305L1557 0.0526314L1555.04 -9.21305L1547 -10.4737L1555.04 -11.7343L1557 -21Z" fill="#CAD1F4" fill-opacity="0.2"/>
<path d="M1649 -21L1650.96 -11.7343L1659 -10.4737L1650.96 -9.21305L1649 0.0526314L1647.04 -9.21305L1639 -10.4737L1647.04 -11.7343L1649 -21Z" fill="#CAD1F4" fill-opacity="0.2"/>
<path d="M1741 -21L1742.96 -11.7343L1751 -10.4737L1742.96 -9.21305L1741 0.0526314L1739.04 -9.21305L1731 -10.4737L1739.04 -11.7343L1741 -21Z" fill="#CAD1F4" fill-opacity="0.2"/>
<path d="M1833 -21L1834.96 -11.7343L1843 -10.4737L1834.96 -9.21305L1833 0.0526314L1831.04 -9.21305L1823 -10.4737L1831.04 -11.7343L1833 -21Z" fill="#CAD1F4" fill-opacity="0.2"/>
<path d="M1925 -21L1926.96 -11.7343L1935 -10.4737L1926.96 -9.21305L1925 0.0526314L1923.04 -9.21305L1915 -10.4737L1923.04 -11.7343L1925 -21Z" fill="#CAD1F4" fill-opacity="0.2"/>
<path d="M2017 -21L2018.96 -11.7343L2027 -10.4737L2018.96 -9.21305L2017 0.0526314L2015.04 -9.21305L2007 -10.4737L2015.04 -11.7343L2017 -21Z" fill="#CAD1F4" fill-opacity="0.2"/>
<path d="M2109 -21L2110.96 -11.7343L2119 -10.4737L2110.96 -9.21305L2109 0.0526314L2107.04 -9.21305L2099 -10.4737L2107.04 -11.7343L2109 -21Z" fill="#CAD1F4" fill-opacity="0.2"/>
<path d="M177 55.0526L178.96 64.3183L187 65.5789L178.96 66.8396L177 76.1052L175.04 66.8396L167 65.5789L175.04 64.3183L177 55.0526Z" fill="#CAD1F4" fill-opacity="0.4"/>
<path d="M269 55.0526L270.96 64.3183L279 65.5789L270.96 66.8396L269 76.1052L267.04 66.8396L259 65.5789L267.04 64.3183L269 55.0526Z" fill="#CAD1F4" fill-opacity="0.4"/>
<path d="M361 55.0526L362.96 64.3183L371 65.5789L362.96 66.8396L361 76.1052L359.04 66.8396L351 65.5789L359.04 64.3183L361 55.0526Z" fill="#CAD1F4" fill-opacity="0.4"/>
<path d="M453 55.0526L454.96 64.3183L463 65.5789L454.96 66.8396L453 76.1052L451.04 66.8396L443 65.5789L451.04 64.3183L453 55.0526Z" fill="#CAD1F4" fill-opacity="0.4"/>
<path d="M545 55.0526L546.96 64.3183L555 65.5789L546.96 66.8396L545 76.1052L543.04 66.8396L535 65.5789L543.04 64.3183L545 55.0526Z" fill="#CAD1F4" fill-opacity="0.4"/>
<path d="M637 55.0526L638.96 64.3183L647 65.5789L638.96 66.8396L637 76.1052L635.04 66.8396L627 65.5789L635.04 64.3183L637 55.0526Z" fill="#CAD1F4" fill-opacity="0.4"/>
<path d="M729 55.0526L730.96 64.3183L739 65.5789L730.96 66.8396L729 76.1052L727.04 66.8396L719 65.5789L727.04 64.3183L729 55.0526Z" fill="#CAD1F4" fill-opacity="0.4"/>
<path d="M821 55.0526L822.96 64.3183L831 65.5789L822.96 66.8396L821 76.1052L819.04 66.8396L811 65.5789L819.04 64.3183L821 55.0526Z" fill="#CAD1F4" fill-opacity="0.4"/>
<path d="M913 55.0526L914.96 64.3183L923 65.5789L914.96 66.8396L913 76.1052L911.04 66.8396L903 65.5789L911.04 64.3183L913 55.0526Z" fill="#CAD1F4" fill-opacity="0.4"/>
<path d="M1005 55.0526L1006.96 64.3183L1015 65.5789L1006.96 66.8396L1005 76.1052L1003.04 66.8396L995 65.5789L1003.04 64.3183L1005 55.0526Z" fill="#CAD1F4" fill-opacity="0.4"/>
<path d="M1097 55.0526L1098.96 64.3183L1107 65.5789L1098.96 66.8396L1097 76.1052L1095.04 66.8396L1087 65.5789L1095.04 64.3183L1097 55.0526Z" fill="#CAD1F4" fill-opacity="0.4"/>
<path d="M1189 55.0526L1190.96 64.3183L1199 65.5789L1190.96 66.8396L1189 76.1052L1187.04 66.8396L1179 65.5789L1187.04 64.3183L1189 55.0526Z" fill="#CAD1F4" fill-opacity="0.4"/>
<path d="M1281 55.0526L1282.96 64.3183L1291 65.5789L1282.96 66.8396L1281 76.1052L1279.04 66.8396L1271 65.5789L1279.04 64.3183L1281 55.0526Z" fill="#CAD1F4" fill-opacity="0.4"/>
<path d="M1373 55.0526L1374.96 64.3183L1383 65.5789L1374.96 66.8396L1373 76.1052L1371.04 66.8396L1363 65.5789L1371.04 64.3183L1373 55.0526Z" fill="#CAD1F4" fill-opacity="0.4"/>
<path d="M1465 55.0526L1466.96 64.3183L1475 65.5789L1466.96 66.8396L1465 76.1052L1463.04 66.8396L1455 65.5789L1463.04 64.3183L1465 55.0526Z" fill="#CAD1F4" fill-opacity="0.4"/>
<path d="M1557 55.0526L1558.96 64.3183L1567 65.5789L1558.96 66.8396L1557 76.1052L1555.04 66.8396L1547 65.5789L1555.04 64.3183L1557 55.0526Z" fill="#CAD1F4" fill-opacity="0.4"/>
<path d="M1649 55.0526L1650.96 64.3183L1659 65.5789L1650.96 66.8396L1649 76.1052L1647.04 66.8396L1639 65.5789L1647.04 64.3183L1649 55.0526Z" fill="#CAD1F4" fill-opacity="0.4"/>
<path d="M1741 55.0526L1742.96 64.3183L1751 65.5789L1742.96 66.8396L1741 76.1052L1739.04 66.8396L1731 65.5789L1739.04 64.3183L1741 55.0526Z" fill="#CAD1F4" fill-opacity="0.4"/>
<path d="M1833 55.0526L1834.96 64.3183L1843 65.5789L1834.96 66.8396L1833 76.1052L1831.04 66.8396L1823 65.5789L1831.04 64.3183L1833 55.0526Z" fill="#CAD1F4" fill-opacity="0.4"/>
<path d="M1925 55.0526L1926.96 64.3183L1935 65.5789L1926.96 66.8396L1925 76.1052L1923.04 66.8396L1915 65.5789L1923.04 64.3183L1925 55.0526Z" fill="#CAD1F4" fill-opacity="0.4"/>
<path d="M2017 55.0526L2018.96 64.3183L2027 65.5789L2018.96 66.8396L2017 76.1052L2015.04 66.8396L2007 65.5789L2015.04 64.3183L2017 55.0526Z" fill="#CAD1F4" fill-opacity="0.4"/>
<path d="M2109 55.0526L2110.96 64.3183L2119 65.5789L2110.96 66.8396L2109 76.1052L2107.04 66.8396L2099 65.5789L2107.04 64.3183L2109 55.0526Z" fill="#CAD1F4" fill-opacity="0.4"/>
<path d="M177 131.105L178.96 140.371L187 141.632L178.96 142.892L177 152.158L175.04 142.892L167 141.632L175.04 140.371L177 131.105Z" fill="#CAD1F4" fill-opacity="0.6"/>
<path d="M269 131.105L270.96 140.371L279 141.632L270.96 142.892L269 152.158L267.04 142.892L259 141.632L267.04 140.371L269 131.105Z" fill="#CAD1F4" fill-opacity="0.6"/>
<path d="M361 131.105L362.96 140.371L371 141.632L362.96 142.892L361 152.158L359.04 142.892L351 141.632L359.04 140.371L361 131.105Z" fill="#CAD1F4" fill-opacity="0.6"/>
<path d="M453 131.105L454.96 140.371L463 141.632L454.96 142.892L453 152.158L451.04 142.892L443 141.632L451.04 140.371L453 131.105Z" fill="#CAD1F4" fill-opacity="0.6"/>
<path d="M545 131.105L546.96 140.371L555 141.632L546.96 142.892L545 152.158L543.04 142.892L535 141.632L543.04 140.371L545 131.105Z" fill="#CAD1F4" fill-opacity="0.6"/>
<path d="M637 131.105L638.96 140.371L647 141.632L638.96 142.892L637 152.158L635.04 142.892L627 141.632L635.04 140.371L637 131.105Z" fill="#CAD1F4" fill-opacity="0.6"/>
<path d="M729 131.105L730.96 140.371L739 141.632L730.96 142.892L729 152.158L727.04 142.892L719 141.632L727.04 140.371L729 131.105Z" fill="#CAD1F4" fill-opacity="0.6"/>
<path d="M821 131.105L822.96 140.371L831 141.632L822.96 142.892L821 152.158L819.04 142.892L811 141.632L819.04 140.371L821 131.105Z" fill="#CAD1F4" fill-opacity="0.6"/>
<path d="M913 131.105L914.96 140.371L923 141.632L914.96 142.892L913 152.158L911.04 142.892L903 141.632L911.04 140.371L913 131.105Z" fill="#CAD1F4" fill-opacity="0.6"/>
<path d="M1005 131.105L1006.96 140.371L1015 141.632L1006.96 142.892L1005 152.158L1003.04 142.892L995 141.632L1003.04 140.371L1005 131.105Z" fill="#CAD1F4" fill-opacity="0.6"/>
<path d="M1097 131.105L1098.96 140.371L1107 141.632L1098.96 142.892L1097 152.158L1095.04 142.892L1087 141.632L1095.04 140.371L1097 131.105Z" fill="#CAD1F4" fill-opacity="0.6"/>
<path d="M1189 131.105L1190.96 140.371L1199 141.632L1190.96 142.892L1189 152.158L1187.04 142.892L1179 141.632L1187.04 140.371L1189 131.105Z" fill="#CAD1F4" fill-opacity="0.6"/>
<path d="M1281 131.105L1282.96 140.371L1291 141.632L1282.96 142.892L1281 152.158L1279.04 142.892L1271 141.632L1279.04 140.371L1281 131.105Z" fill="#CAD1F4" fill-opacity="0.6"/>
<path d="M1373 131.105L1374.96 140.371L1383 141.632L1374.96 142.892L1373 152.158L1371.04 142.892L1363 141.632L1371.04 140.371L1373 131.105Z" fill="#CAD1F4" fill-opacity="0.6"/>
<path d="M1465 131.105L1466.96 140.371L1475 141.632L1466.96 142.892L1465 152.158L1463.04 142.892L1455 141.632L1463.04 140.371L1465 131.105Z" fill="#CAD1F4" fill-opacity="0.6"/>
<path d="M1557 131.105L1558.96 140.371L1567 141.632L1558.96 142.892L1557 152.158L1555.04 142.892L1547 141.632L1555.04 140.371L1557 131.105Z" fill="#CAD1F4" fill-opacity="0.6"/>
<path d="M1649 131.105L1650.96 140.371L1659 141.632L1650.96 142.892L1649 152.158L1647.04 142.892L1639 141.632L1647.04 140.371L1649 131.105Z" fill="#CAD1F4" fill-opacity="0.6"/>
<path d="M1741 131.105L1742.96 140.371L1751 141.632L1742.96 142.892L1741 152.158L1739.04 142.892L1731 141.632L1739.04 140.371L1741 131.105Z" fill="#CAD1F4" fill-opacity="0.6"/>
<path d="M1833 131.105L1834.96 140.371L1843 141.632L1834.96 142.892L1833 152.158L1831.04 142.892L1823 141.632L1831.04 140.371L1833 131.105Z" fill="#CAD1F4" fill-opacity="0.6"/>
<path d="M1925 131.105L1926.96 140.371L1935 141.632L1926.96 142.892L1925 152.158L1923.04 142.892L1915 141.632L1923.04 140.371L1925 131.105Z" fill="#CAD1F4" fill-opacity="0.6"/>
<path d="M2017 131.105L2018.96 140.371L2027 141.632L2018.96 142.892L2017 152.158L2015.04 142.892L2007 141.632L2015.04 140.371L2017 131.105Z" fill="#CAD1F4" fill-opacity="0.6"/>
<path d="M2109 131.105L2110.96 140.371L2119 141.632L2110.96 142.892L2109 152.158L2107.04 142.892L2099 141.632L2107.04 140.371L2109 131.105Z" fill="#CAD1F4" fill-opacity="0.6"/>
<path d="M177 207.158L178.96 216.424L187 217.684L178.96 218.945L177 228.211L175.04 218.945L167 217.684L175.04 216.424L177 207.158Z" fill="#CAD1F4"/>
<path d="M269 207.158L270.96 216.424L279 217.684L270.96 218.945L269 228.211L267.04 218.945L259 217.684L267.04 216.424L269 207.158Z" fill="#CAD1F4"/>
<path d="M361 207.158L362.96 216.424L371 217.684L362.96 218.945L361 228.211L359.04 218.945L351 217.684L359.04 216.424L361 207.158Z" fill="#CAD1F4"/>
<path d="M453 207.158L454.96 216.424L463 217.684L454.96 218.945L453 228.211L451.04 218.945L443 217.684L451.04 216.424L453 207.158Z" fill="#CAD1F4"/>
<path d="M545 207.158L546.96 216.424L555 217.684L546.96 218.945L545 228.211L543.04 218.945L535 217.684L543.04 216.424L545 207.158Z" fill="#CAD1F4"/>
<path d="M637 207.158L638.96 216.424L647 217.684L638.96 218.945L637 228.211L635.04 218.945L627 217.684L635.04 216.424L637 207.158Z" fill="#CAD1F4"/>
<path d="M729 207.158L730.96 216.424L739 217.684L730.96 218.945L729 228.211L727.04 218.945L719 217.684L727.04 216.424L729 207.158Z" fill="#CAD1F4"/>
<path d="M821 207.158L822.96 216.424L831 217.684L822.96 218.945L821 228.211L819.04 218.945L811 217.684L819.04 216.424L821 207.158Z" fill="#CAD1F4"/>
<path d="M913 207.158L914.96 216.424L923 217.684L914.96 218.945L913 228.211L911.04 218.945L903 217.684L911.04 216.424L913 207.158Z" fill="#CAD1F4"/>
<path d="M1005 207.158L1006.96 216.424L1015 217.684L1006.96 218.945L1005 228.211L1003.04 218.945L995 217.684L1003.04 216.424L1005 207.158Z" fill="#CAD1F4"/>
<path d="M1097 207.158L1098.96 216.424L1107 217.684L1098.96 218.945L1097 228.211L1095.04 218.945L1087 217.684L1095.04 216.424L1097 207.158Z" fill="#CAD1F4"/>
<path d="M1189 207.158L1190.96 216.424L1199 217.684L1190.96 218.945L1189 228.211L1187.04 218.945L1179 217.684L1187.04 216.424L1189 207.158Z" fill="#CAD1F4"/>
<path d="M1281 207.158L1282.96 216.424L1291 217.684L1282.96 218.945L1281 228.211L1279.04 218.945L1271 217.684L1279.04 216.424L1281 207.158Z" fill="#CAD1F4"/>
<path d="M1373 207.158L1374.96 216.424L1383 217.684L1374.96 218.945L1373 228.211L1371.04 218.945L1363 217.684L1371.04 216.424L1373 207.158Z" fill="#CAD1F4"/>
<path d="M1465 207.158L1466.96 216.424L1475 217.684L1466.96 218.945L1465 228.211L1463.04 218.945L1455 217.684L1463.04 216.424L1465 207.158Z" fill="#CAD1F4"/>
<path d="M1557 207.158L1558.96 216.424L1567 217.684L1558.96 218.945L1557 228.211L1555.04 218.945L1547 217.684L1555.04 216.424L1557 207.158Z" fill="#CAD1F4"/>
<path d="M1649 207.158L1650.96 216.424L1659 217.684L1650.96 218.945L1649 228.211L1647.04 218.945L1639 217.684L1647.04 216.424L1649 207.158Z" fill="#CAD1F4"/>
<path d="M1741 207.158L1742.96 216.424L1751 217.684L1742.96 218.945L1741 228.211L1739.04 218.945L1731 217.684L1739.04 216.424L1741 207.158Z" fill="#CAD1F4"/>
<path d="M1833 207.158L1834.96 216.424L1843 217.684L1834.96 218.945L1833 228.211L1831.04 218.945L1823 217.684L1831.04 216.424L1833 207.158Z" fill="#CAD1F4"/>
<path d="M1925 207.158L1926.96 216.424L1935 217.684L1926.96 218.945L1925 228.211L1923.04 218.945L1915 217.684L1923.04 216.424L1925 207.158Z" fill="#CAD1F4"/>
<path d="M2017 207.158L2018.96 216.424L2027 217.684L2018.96 218.945L2017 228.211L2015.04 218.945L2007 217.684L2015.04 216.424L2017 207.158Z" fill="#CAD1F4"/>
<path d="M2109 207.158L2110.96 216.424L2119 217.684L2110.96 218.945L2109 228.211L2107.04 218.945L2099 217.684L2107.04 216.424L2109 207.158Z" fill="#CAD1F4"/>
<path d="M177 283.211L178.96 292.476L187 293.737L178.96 294.997L177 304.263L175.04 294.997L167 293.737L175.04 292.476L177 283.211Z" fill="#CAD1F4"/>
<path d="M269 283.211L270.96 292.476L279 293.737L270.96 294.997L269 304.263L267.04 294.997L259 293.737L267.04 292.476L269 283.211Z" fill="#CAD1F4"/>
<path d="M361 283.211L362.96 292.476L371 293.737L362.96 294.997L361 304.263L359.04 294.997L351 293.737L359.04 292.476L361 283.211Z" fill="#CAD1F4"/>
<path d="M453 283.211L454.96 292.476L463 293.737L454.96 294.997L453 304.263L451.04 294.997L443 293.737L451.04 292.476L453 283.211Z" fill="#CAD1F4"/>
<path d="M545 283.211L546.96 292.476L555 293.737L546.96 294.997L545 304.263L543.04 294.997L535 293.737L543.04 292.476L545 283.211Z" fill="#CAD1F4"/>
<path d="M637 283.211L638.96 292.476L647 293.737L638.96 294.997L637 304.263L635.04 294.997L627 293.737L635.04 292.476L637 283.211Z" fill="#CAD1F4"/>
<path d="M729 283.211L730.96 292.476L739 293.737L730.96 294.997L729 304.263L727.04 294.997L719 293.737L727.04 292.476L729 283.211Z" fill="#CAD1F4"/>
<path d="M821 283.211L822.96 292.476L831 293.737L822.96 294.997L821 304.263L819.04 294.997L811 293.737L819.04 292.476L821 283.211Z" fill="#CAD1F4"/>
<path d="M913 283.211L914.96 292.476L923 293.737L914.96 294.997L913 304.263L911.04 294.997L903 293.737L911.04 292.476L913 283.211Z" fill="#CAD1F4"/>
<path d="M1005 283.211L1006.96 292.476L1015 293.737L1006.96 294.997L1005 304.263L1003.04 294.997L995 293.737L1003.04 292.476L1005 283.211Z" fill="#CAD1F4"/>
<path d="M1097 283.211L1098.96 292.476L1107 293.737L1098.96 294.997L1097 304.263L1095.04 294.997L1087 293.737L1095.04 292.476L1097 283.211Z" fill="#CAD1F4"/>
<path d="M1189 283.211L1190.96 292.476L1199 293.737L1190.96 294.997L1189 304.263L1187.04 294.997L1179 293.737L1187.04 292.476L1189 283.211Z" fill="#CAD1F4"/>
<path d="M1281 283.211L1282.96 292.476L1291 293.737L1282.96 294.997L1281 304.263L1279.04 294.997L1271 293.737L1279.04 292.476L1281 283.211Z" fill="#CAD1F4"/>
<path d="M1373 283.211L1374.96 292.476L1383 293.737L1374.96 294.997L1373 304.263L1371.04 294.997L1363 293.737L1371.04 292.476L1373 283.211Z" fill="#CAD1F4"/>
<path d="M1465 283.211L1466.96 292.476L1475 293.737L1466.96 294.997L1465 304.263L1463.04 294.997L1455 293.737L1463.04 292.476L1465 283.211Z" fill="#CAD1F4"/>
<path d="M1557 283.211L1558.96 292.476L1567 293.737L1558.96 294.997L1557 304.263L1555.04 294.997L1547 293.737L1555.04 292.476L1557 283.211Z" fill="#CAD1F4"/>
<path d="M1649 283.211L1650.96 292.476L1659 293.737L1650.96 294.997L1649 304.263L1647.04 294.997L1639 293.737L1647.04 292.476L1649 283.211Z" fill="#CAD1F4"/>
<path d="M1741 283.211L1742.96 292.476L1751 293.737L1742.96 294.997L1741 304.263L1739.04 294.997L1731 293.737L1739.04 292.476L1741 283.211Z" fill="#CAD1F4"/>
<path d="M1833 283.211L1834.96 292.476L1843 293.737L1834.96 294.997L1833 304.263L1831.04 294.997L1823 293.737L1831.04 292.476L1833 283.211Z" fill="#CAD1F4"/>
<path d="M1925 283.211L1926.96 292.476L1935 293.737L1926.96 294.997L1925 304.263L1923.04 294.997L1915 293.737L1923.04 292.476L1925 283.211Z" fill="#CAD1F4"/>
<path d="M2017 283.211L2018.96 292.476L2027 293.737L2018.96 294.997L2017 304.263L2015.04 294.997L2007 293.737L2015.04 292.476L2017 283.211Z" fill="#CAD1F4"/>
<path d="M2109 283.211L2110.96 292.476L2119 293.737L2110.96 294.997L2109 304.263L2107.04 294.997L2099 293.737L2107.04 292.476L2109 283.211Z" fill="#CAD1F4"/>
<path d="M177 359.263L178.96 368.529L187 369.789L178.96 371.05L177 380.316L175.04 371.05L167 369.789L175.04 368.529L177 359.263Z" fill="#CAD1F4"/>
<path d="M269 359.263L270.96 368.529L279 369.789L270.96 371.05L269 380.316L267.04 371.05L259 369.789L267.04 368.529L269 359.263Z" fill="#CAD1F4"/>
<path d="M361 359.263L362.96 368.529L371 369.789L362.96 371.05L361 380.316L359.04 371.05L351 369.789L359.04 368.529L361 359.263Z" fill="#CAD1F4"/>
<path d="M453 359.263L454.96 368.529L463 369.789L454.96 371.05L453 380.316L451.04 371.05L443 369.789L451.04 368.529L453 359.263Z" fill="#CAD1F4"/>
<path d="M545 359.263L546.96 368.529L555 369.789L546.96 371.05L545 380.316L543.04 371.05L535 369.789L543.04 368.529L545 359.263Z" fill="#CAD1F4"/>
<path d="M637 359.263L638.96 368.529L647 369.789L638.96 371.05L637 380.316L635.04 371.05L627 369.789L635.04 368.529L637 359.263Z" fill="#CAD1F4"/>
<path d="M729 359.263L730.96 368.529L739 369.789L730.96 371.05L729 380.316L727.04 371.05L719 369.789L727.04 368.529L729 359.263Z" fill="#CAD1F4"/>
<path d="M821 359.263L822.96 368.529L831 369.789L822.96 371.05L821 380.316L819.04 371.05L811 369.789L819.04 368.529L821 359.263Z" fill="#CAD1F4"/>
<path d="M913 359.263L914.96 368.529L923 369.789L914.96 371.05L913 380.316L911.04 371.05L903 369.789L911.04 368.529L913 359.263Z" fill="#CAD1F4"/>
<path d="M1005 359.263L1006.96 368.529L1015 369.789L1006.96 371.05L1005 380.316L1003.04 371.05L995 369.789L1003.04 368.529L1005 359.263Z" fill="#CAD1F4"/>
<path d="M1097 359.263L1098.96 368.529L1107 369.789L1098.96 371.05L1097 380.316L1095.04 371.05L1087 369.789L1095.04 368.529L1097 359.263Z" fill="#CAD1F4"/>
<path d="M1189 359.263L1190.96 368.529L1199 369.789L1190.96 371.05L1189 380.316L1187.04 371.05L1179 369.789L1187.04 368.529L1189 359.263Z" fill="#CAD1F4"/>
<path d="M1281 359.263L1282.96 368.529L1291 369.789L1282.96 371.05L1281 380.316L1279.04 371.05L1271 369.789L1279.04 368.529L1281 359.263Z" fill="#CAD1F4"/>
<path d="M1373 359.263L1374.96 368.529L1383 369.789L1374.96 371.05L1373 380.316L1371.04 371.05L1363 369.789L1371.04 368.529L1373 359.263Z" fill="#CAD1F4"/>
<path d="M1465 359.263L1466.96 368.529L1475 369.789L1466.96 371.05L1465 380.316L1463.04 371.05L1455 369.789L1463.04 368.529L1465 359.263Z" fill="#CAD1F4"/>
<path d="M1557 359.263L1558.96 368.529L1567 369.789L1558.96 371.05L1557 380.316L1555.04 371.05L1547 369.789L1555.04 368.529L1557 359.263Z" fill="#CAD1F4"/>
<path d="M1649 359.263L1650.96 368.529L1659 369.789L1650.96 371.05L1649 380.316L1647.04 371.05L1639 369.789L1647.04 368.529L1649 359.263Z" fill="#CAD1F4"/>
<path d="M1741 359.263L1742.96 368.529L1751 369.789L1742.96 371.05L1741 380.316L1739.04 371.05L1731 369.789L1739.04 368.529L1741 359.263Z" fill="#CAD1F4"/>
<path d="M1833 359.263L1834.96 368.529L1843 369.789L1834.96 371.05L1833 380.316L1831.04 371.05L1823 369.789L1831.04 368.529L1833 359.263Z" fill="#CAD1F4"/>
<path d="M1925 359.263L1926.96 368.529L1935 369.789L1926.96 371.05L1925 380.316L1923.04 371.05L1915 369.789L1923.04 368.529L1925 359.263Z" fill="#CAD1F4"/>
<path d="M2017 359.263L2018.96 368.529L2027 369.789L2018.96 371.05L2017 380.316L2015.04 371.05L2007 369.789L2015.04 368.529L2017 359.263Z" fill="#CAD1F4"/>
<path d="M2109 359.263L2110.96 368.529L2119 369.789L2110.96 371.05L2109 380.316L2107.04 371.05L2099 369.789L2107.04 368.529L2109 359.263Z" fill="#CAD1F4"/>
<path d="M177 435.316L178.96 444.581L187 445.842L178.96 447.103L177 456.368L175.04 447.103L167 445.842L175.04 444.581L177 435.316Z" fill="#CAD1F4"/>
<path d="M269 435.316L270.96 444.581L279 445.842L270.96 447.103L269 456.368L267.04 447.103L259 445.842L267.04 444.581L269 435.316Z" fill="#CAD1F4"/>
<path d="M361 435.316L362.96 444.581L371 445.842L362.96 447.103L361 456.368L359.04 447.103L351 445.842L359.04 444.581L361 435.316Z" fill="#CAD1F4"/>
<path d="M453 435.316L454.96 444.581L463 445.842L454.96 447.103L453 456.368L451.04 447.103L443 445.842L451.04 444.581L453 435.316Z" fill="#CAD1F4"/>
<path d="M545 435.316L546.96 444.581L555 445.842L546.96 447.103L545 456.368L543.04 447.103L535 445.842L543.04 444.581L545 435.316Z" fill="#CAD1F4"/>
<path d="M637 435.316L638.96 444.581L647 445.842L638.96 447.103L637 456.368L635.04 447.103L627 445.842L635.04 444.581L637 435.316Z" fill="#CAD1F4"/>
<path d="M729 435.316L730.96 444.581L739 445.842L730.96 447.103L729 456.368L727.04 447.103L719 445.842L727.04 444.581L729 435.316Z" fill="#CAD1F4"/>
<path d="M821 435.316L822.96 444.581L831 445.842L822.96 447.103L821 456.368L819.04 447.103L811 445.842L819.04 444.581L821 435.316Z" fill="#CAD1F4"/>
<path d="M913 435.316L914.96 444.581L923 445.842L914.96 447.103L913 456.368L911.04 447.103L903 445.842L911.04 444.581L913 435.316Z" fill="#CAD1F4"/>
<path d="M1005 435.316L1006.96 444.581L1015 445.842L1006.96 447.103L1005 456.368L1003.04 447.103L995 445.842L1003.04 444.581L1005 435.316Z" fill="#CAD1F4"/>
<path d="M1097 435.316L1098.96 444.581L1107 445.842L1098.96 447.103L1097 456.368L1095.04 447.103L1087 445.842L1095.04 444.581L1097 435.316Z" fill="#CAD1F4"/>
<path d="M1189 435.316L1190.96 444.581L1199 445.842L1190.96 447.103L1189 456.368L1187.04 447.103L1179 445.842L1187.04 444.581L1189 435.316Z" fill="#CAD1F4"/>
<path d="M1281 435.316L1282.96 444.581L1291 445.842L1282.96 447.103L1281 456.368L1279.04 447.103L1271 445.842L1279.04 444.581L1281 435.316Z" fill="#CAD1F4"/>
<path d="M1373 435.316L1374.96 444.581L1383 445.842L1374.96 447.103L1373 456.368L1371.04 447.103L1363 445.842L1371.04 444.581L1373 435.316Z" fill="#CAD1F4"/>
<path d="M1465 435.316L1466.96 444.581L1475 445.842L1466.96 447.103L1465 456.368L1463.04 447.103L1455 445.842L1463.04 444.581L1465 435.316Z" fill="#CAD1F4"/>
<path d="M1557 435.316L1558.96 444.581L1567 445.842L1558.96 447.103L1557 456.368L1555.04 447.103L1547 445.842L1555.04 444.581L1557 435.316Z" fill="#CAD1F4"/>
<path d="M1649 435.316L1650.96 444.581L1659 445.842L1650.96 447.103L1649 456.368L1647.04 447.103L1639 445.842L1647.04 444.581L1649 435.316Z" fill="#CAD1F4"/>
<path d="M1741 435.316L1742.96 444.581L1751 445.842L1742.96 447.103L1741 456.368L1739.04 447.103L1731 445.842L1739.04 444.581L1741 435.316Z" fill="#CAD1F4"/>
<path d="M1833 435.316L1834.96 444.581L1843 445.842L1834.96 447.103L1833 456.368L1831.04 447.103L1823 445.842L1831.04 444.581L1833 435.316Z" fill="#CAD1F4"/>
<path d="M1925 435.316L1926.96 444.581L1935 445.842L1926.96 447.103L1925 456.368L1923.04 447.103L1915 445.842L1923.04 444.581L1925 435.316Z" fill="#CAD1F4"/>
<path d="M2017 435.316L2018.96 444.581L2027 445.842L2018.96 447.103L2017 456.368L2015.04 447.103L2007 445.842L2015.04 444.581L2017 435.316Z" fill="#CAD1F4"/>
<path d="M2109 435.316L2110.96 444.581L2119 445.842L2110.96 447.103L2109 456.368L2107.04 447.103L2099 445.842L2107.04 444.581L2109 435.316Z" fill="#CAD1F4"/>
<path d="M177 511.368L178.96 520.634L187 521.895L178.96 523.155L177 532.421L175.04 523.155L167 521.895L175.04 520.634L177 511.368Z" fill="#CAD1F4"/>
<path d="M269 511.368L270.96 520.634L279 521.895L270.96 523.155L269 532.421L267.04 523.155L259 521.895L267.04 520.634L269 511.368Z" fill="#CAD1F4"/>
<path d="M361 511.368L362.96 520.634L371 521.895L362.96 523.155L361 532.421L359.04 523.155L351 521.895L359.04 520.634L361 511.368Z" fill="#CAD1F4"/>
<path d="M453 511.368L454.96 520.634L463 521.895L454.96 523.155L453 532.421L451.04 523.155L443 521.895L451.04 520.634L453 511.368Z" fill="#CAD1F4"/>
<path d="M545 511.368L546.96 520.634L555 521.895L546.96 523.155L545 532.421L543.04 523.155L535 521.895L543.04 520.634L545 511.368Z" fill="#CAD1F4"/>
<path d="M637 511.368L638.96 520.634L647 521.895L638.96 523.155L637 532.421L635.04 523.155L627 521.895L635.04 520.634L637 511.368Z" fill="#CAD1F4"/>
<path d="M729 511.368L730.96 520.634L739 521.895L730.96 523.155L729 532.421L727.04 523.155L719 521.895L727.04 520.634L729 511.368Z" fill="#CAD1F4"/>
<path d="M821 511.368L822.96 520.634L831 521.895L822.96 523.155L821 532.421L819.04 523.155L811 521.895L819.04 520.634L821 511.368Z" fill="#CAD1F4"/>
<path d="M913 511.368L914.96 520.634L923 521.895L914.96 523.155L913 532.421L911.04 523.155L903 521.895L911.04 520.634L913 511.368Z" fill="#CAD1F4"/>
<path d="M1005 511.368L1006.96 520.634L1015 521.895L1006.96 523.155L1005 532.421L1003.04 523.155L995 521.895L1003.04 520.634L1005 511.368Z" fill="#CAD1F4"/>
<path d="M1097 511.368L1098.96 520.634L1107 521.895L1098.96 523.155L1097 532.421L1095.04 523.155L1087 521.895L1095.04 520.634L1097 511.368Z" fill="#CAD1F4"/>
<path d="M1189 511.368L1190.96 520.634L1199 521.895L1190.96 523.155L1189 532.421L1187.04 523.155L1179 521.895L1187.04 520.634L1189 511.368Z" fill="#CAD1F4"/>
<path d="M1281 511.368L1282.96 520.634L1291 521.895L1282.96 523.155L1281 532.421L1279.04 523.155L1271 521.895L1279.04 520.634L1281 511.368Z" fill="#CAD1F4"/>
<path d="M1373 511.368L1374.96 520.634L1383 521.895L1374.96 523.155L1373 532.421L1371.04 523.155L1363 521.895L1371.04 520.634L1373 511.368Z" fill="#CAD1F4"/>
<path d="M1465 511.368L1466.96 520.634L1475 521.895L1466.96 523.155L1465 532.421L1463.04 523.155L1455 521.895L1463.04 520.634L1465 511.368Z" fill="#CAD1F4"/>
<path d="M1557 511.368L1558.96 520.634L1567 521.895L1558.96 523.155L1557 532.421L1555.04 523.155L1547 521.895L1555.04 520.634L1557 511.368Z" fill="#CAD1F4"/>
<path d="M1649 511.368L1650.96 520.634L1659 521.895L1650.96 523.155L1649 532.421L1647.04 523.155L1639 521.895L1647.04 520.634L1649 511.368Z" fill="#CAD1F4"/>
<path d="M1741 511.368L1742.96 520.634L1751 521.895L1742.96 523.155L1741 532.421L1739.04 523.155L1731 521.895L1739.04 520.634L1741 511.368Z" fill="#CAD1F4"/>
<path d="M1833 511.368L1834.96 520.634L1843 521.895L1834.96 523.155L1833 532.421L1831.04 523.155L1823 521.895L1831.04 520.634L1833 511.368Z" fill="#CAD1F4"/>
<path d="M1925 511.368L1926.96 520.634L1935 521.895L1926.96 523.155L1925 532.421L1923.04 523.155L1915 521.895L1923.04 520.634L1925 511.368Z" fill="#CAD1F4"/>
<path d="M2017 511.368L2018.96 520.634L2027 521.895L2018.96 523.155L2017 532.421L2015.04 523.155L2007 521.895L2015.04 520.634L2017 511.368Z" fill="#CAD1F4"/>
<path d="M2109 511.368L2110.96 520.634L2119 521.895L2110.96 523.155L2109 532.421L2107.04 523.155L2099 521.895L2107.04 520.634L2109 511.368Z" fill="#CAD1F4"/>
<path d="M177 587.421L178.96 596.687L187 597.947L178.96 599.208L177 608.474L175.04 599.208L167 597.947L175.04 596.687L177 587.421Z" fill="#CAD1F4"/>
<path d="M269 587.421L270.96 596.687L279 597.947L270.96 599.208L269 608.474L267.04 599.208L259 597.947L267.04 596.687L269 587.421Z" fill="#CAD1F4"/>
<path d="M361 587.421L362.96 596.687L371 597.947L362.96 599.208L361 608.474L359.04 599.208L351 597.947L359.04 596.687L361 587.421Z" fill="#CAD1F4"/>
<path d="M453 587.421L454.96 596.687L463 597.947L454.96 599.208L453 608.474L451.04 599.208L443 597.947L451.04 596.687L453 587.421Z" fill="#CAD1F4"/>
<path d="M545 587.421L546.96 596.687L555 597.947L546.96 599.208L545 608.474L543.04 599.208L535 597.947L543.04 596.687L545 587.421Z" fill="#CAD1F4"/>
<path d="M637 587.421L638.96 596.687L647 597.947L638.96 599.208L637 608.474L635.04 599.208L627 597.947L635.04 596.687L637 587.421Z" fill="#CAD1F4"/>
<path d="M729 587.421L730.96 596.687L739 597.947L730.96 599.208L729 608.474L727.04 599.208L719 597.947L727.04 596.687L729 587.421Z" fill="#CAD1F4"/>
<path d="M821 587.421L822.96 596.687L831 597.947L822.96 599.208L821 608.474L819.04 599.208L811 597.947L819.04 596.687L821 587.421Z" fill="#CAD1F4"/>
<path d="M913 587.421L914.96 596.687L923 597.947L914.96 599.208L913 608.474L911.04 599.208L903 597.947L911.04 596.687L913 587.421Z" fill="#CAD1F4"/>
<path d="M1005 587.421L1006.96 596.687L1015 597.947L1006.96 599.208L1005 608.474L1003.04 599.208L995 597.947L1003.04 596.687L1005 587.421Z" fill="#CAD1F4"/>
<path d="M1097 587.421L1098.96 596.687L1107 597.947L1098.96 599.208L1097 608.474L1095.04 599.208L1087 597.947L1095.04 596.687L1097 587.421Z" fill="#CAD1F4"/>
<path d="M1189 587.421L1190.96 596.687L1199 597.947L1190.96 599.208L1189 608.474L1187.04 599.208L1179 597.947L1187.04 596.687L1189 587.421Z" fill="#CAD1F4"/>
<path d="M1281 587.421L1282.96 596.687L1291 597.947L1282.96 599.208L1281 608.474L1279.04 599.208L1271 597.947L1279.04 596.687L1281 587.421Z" fill="#CAD1F4"/>
<path d="M1373 587.421L1374.96 596.687L1383 597.947L1374.96 599.208L1373 608.474L1371.04 599.208L1363 597.947L1371.04 596.687L1373 587.421Z" fill="#CAD1F4"/>
<path d="M1465 587.421L1466.96 596.687L1475 597.947L1466.96 599.208L1465 608.474L1463.04 599.208L1455 597.947L1463.04 596.687L1465 587.421Z" fill="#CAD1F4"/>
<path d="M1557 587.421L1558.96 596.687L1567 597.947L1558.96 599.208L1557 608.474L1555.04 599.208L1547 597.947L1555.04 596.687L1557 587.421Z" fill="#CAD1F4"/>
<path d="M1649 587.421L1650.96 596.687L1659 597.947L1650.96 599.208L1649 608.474L1647.04 599.208L1639 597.947L1647.04 596.687L1649 587.421Z" fill="#CAD1F4"/>
<path d="M1741 587.421L1742.96 596.687L1751 597.947L1742.96 599.208L1741 608.474L1739.04 599.208L1731 597.947L1739.04 596.687L1741 587.421Z" fill="#CAD1F4"/>
<path d="M1833 587.421L1834.96 596.687L1843 597.947L1834.96 599.208L1833 608.474L1831.04 599.208L1823 597.947L1831.04 596.687L1833 587.421Z" fill="#CAD1F4"/>
<path d="M1925 587.421L1926.96 596.687L1935 597.947L1926.96 599.208L1925 608.474L1923.04 599.208L1915 597.947L1923.04 596.687L1925 587.421Z" fill="#CAD1F4"/>
<path d="M2017 587.421L2018.96 596.687L2027 597.947L2018.96 599.208L2017 608.474L2015.04 599.208L2007 597.947L2015.04 596.687L2017 587.421Z" fill="#CAD1F4"/>
<path d="M2109 587.421L2110.96 596.687L2119 597.947L2110.96 599.208L2109 608.474L2107.04 599.208L2099 597.947L2107.04 596.687L2109 587.421Z" fill="#CAD1F4"/>
</g>
<defs>
<linearGradient id="paint0_linear_794_337" x1="1143" y1="0" x2="1143" y2="663" gradientUnits="userSpaceOnUse">
<stop stop-color="#D8EBF1"/>
<stop offset="0.477883" stop-color="#F9F9F9"/>
</linearGradient>
<linearGradient id="paint1_linear_794_337" x1="1143" y1="0" x2="1143" y2="663" gradientUnits="userSpaceOnUse">
<stop stop-color="#F9F9F9"/>
<stop offset="1" stop-color="#F9F9F9" stop-opacity="0"/>
</linearGradient>
</defs>
</svg>
