<svg width="28" height="27" viewBox="0 0 28 27" fill="none" xmlns="http://www.w3.org/2000/svg">
<path d="M13.986 0.166016C6.62602 0.166016 0.666016 6.13935 0.666016 13.4993C0.666016 20.8593 6.62602 26.8327 13.986 26.8327C21.3593 26.8327 27.3327 20.8593 27.3327 13.4993C27.3327 6.13935 21.3593 0.166016 13.986 0.166016ZM13.9993 24.166C8.10602 24.166 3.33268 19.3927 3.33268 13.4993C3.33268 7.60602 8.10602 2.83268 13.9993 2.83268C19.8927 2.83268 24.666 7.60602 24.666 13.4993C24.666 19.3927 19.8927 24.166 13.9993 24.166ZM14.666 6.83268H12.666V14.8327L19.666 19.0327L20.666 17.3927L14.666 13.8327V6.83268Z" fill="white"/>
</svg>
